<?xml version="1.0"?>
<svg width="181" height="153" viewBox="0 0 181 153" fill="none" xmlns="http://www.w3.org/2000/svg">
<path d="M162.834 18.8816L162.897 18.9884C157.222 26.0716 156.848 37.0702 156.825 37.1644L155.629 35.7826C155.65 35.6821 157.122 26.0109 162.834 18.8816Z" fill="#444053"/>
<path d="M165.532 36.2035C165.532 36.2035 162.464 29.7693 165.194 25.5817" stroke="#444053" stroke-miterlimit="10"/>
<path d="M163.051 13.7874C163.051 13.7874 165.048 16.4319 165.563 15.8393" stroke="#444053" stroke-miterlimit="10"/>
<path d="M159.401 16.0048C159.401 16.0048 159.389 21.9197 157.789 22.3384" stroke="#444053" stroke-miterlimit="10"/>
<path d="M146.238 23.668C146.238 23.668 152.633 24.2145 155.583 20.9147" stroke="#444053" stroke-miterlimit="10"/>
<path d="M142.395 17.349C142.395 17.349 146.921 18.9214 150.814 14.9139" stroke="#444053" stroke-miterlimit="10"/>
<path d="M76.6452 128.116C75.2972 125.928 73.4595 124.095 71.2879 122.755H114.304C112.801 123.684 111.454 124.852 110.317 126.216C108.748 128.099 107.619 130.309 107.015 132.685L107.014 132.685C106.203 135.885 106.375 139.254 107.508 142.354C108.641 145.454 110.682 148.141 113.366 150.063C114.231 150.685 115.154 151.221 116.122 151.665V152.477H68.6992V151.99C71.6074 150.842 74.1295 148.885 75.9659 146.349C77.8706 143.718 78.9518 140.581 79.0728 137.335C79.1937 134.09 78.3489 130.881 76.6452 128.116Z" stroke="white"/>
<path d="M13.2539 124.106V115.416H171.313V124.106C171.313 128.956 167.775 132.797 163.515 132.797H21.0519C16.7915 132.797 13.2539 128.956 13.2539 124.106Z" fill="#FC6464" stroke="white"/>
<path d="M169.029 7.68537C170.491 9.14771 171.313 11.1311 171.313 13.1991V115.202H13.2539V13.1991C13.2539 11.1311 14.0755 9.14771 15.5379 7.68537C17.0003 6.22303 18.9838 5.40149 21.0519 5.40149H163.515C165.583 5.40149 167.566 6.22303 169.029 7.68537Z" stroke="white"/>
<path d="M165 16.0804V103.926C165 105.006 164.585 106.043 163.846 106.807C163.108 107.571 162.106 108 161.061 108H23.939C23.4217 108 22.9093 107.895 22.4313 107.69C21.9533 107.486 21.5189 107.186 21.1531 106.807C20.7873 106.429 20.4972 105.98 20.2993 105.485C20.1014 104.991 19.9997 104.461 20 103.926V16.0804C19.9992 15.5448 20.1005 15.0144 20.2981 14.5194C20.4957 14.0244 20.7857 13.5745 21.1516 13.1955C21.5174 12.8165 21.9519 12.5159 22.4302 12.3107C22.9085 12.1056 23.4212 12 23.939 12H161.061C161.579 12.0003 162.091 12.106 162.569 12.3113C163.048 12.5165 163.482 12.8172 163.848 13.1961C164.214 13.575 164.504 14.0248 164.701 14.5197C164.899 15.0146 165.001 15.5449 165 16.0804Z" fill="white"/>
<path opacity="0.5" d="M105.767 70.1046H42.0248C41.3143 70.1046 40.7383 70.4703 40.7383 70.9214V73.0772C40.7383 73.5283 41.3143 73.8941 42.0248 73.8941H105.767C106.477 73.8941 107.053 73.5283 107.053 73.0772V70.9214C107.053 70.4703 106.477 70.1046 105.767 70.1046Z" fill="#FC6464"/>
<path d="M127.134 77.6835H42.4475C41.5035 77.6835 40.7383 78.0492 40.7383 78.5003V80.6561C40.7383 81.1072 41.5035 81.4729 42.4475 81.4729H127.134C128.077 81.4729 128.843 81.1072 128.843 80.6561V78.5003C128.843 78.0492 128.077 77.6835 127.134 77.6835Z" fill="#FC6464"/>
<path opacity="0.3" d="M117.844 85.2624H42.2637C41.4212 85.2624 40.7383 85.6281 40.7383 86.0792V88.235C40.7383 88.6861 41.4212 89.0518 42.2637 89.0518H117.844C118.686 89.0518 119.369 88.6861 119.369 88.235V86.0792C119.369 85.6281 118.686 85.2624 117.844 85.2624Z" fill="#FC6464"/>
<path opacity="0.5" d="M100.193 92.8412H41.9145C41.2649 92.8412 40.7383 93.207 40.7383 93.6581V95.8139C40.7383 96.265 41.2649 96.6307 41.9145 96.6307H100.193C100.843 96.6307 101.369 96.265 101.369 95.8139V93.6581C101.369 93.207 100.843 92.8412 100.193 92.8412Z" fill="#FC6464"/>
<path opacity="0.3" d="M142.76 28.4208H42.9259C41.7177 28.4208 40.7383 28.8323 40.7383 29.3399V60.6593C40.7383 61.1669 41.7177 61.5784 42.9259 61.5784H142.76C143.968 61.5784 144.948 61.1669 144.948 60.6593V29.3399C144.948 28.8323 143.968 28.4208 142.76 28.4208Z" fill="#FC6464"/>
<path d="M92.5 126C93.8807 126 95 124.881 95 123.5C95 122.119 93.8807 121 92.5 121C91.1193 121 90 122.119 90 123.5C90 124.881 91.1193 126 92.5 126Z" fill="white"/>
<path d="M26.0218 19.0435C26.5861 19.0435 27.0436 18.5861 27.0436 18.0218C27.0436 17.4575 26.5861 17 26.0218 17C25.4575 17 25 17.4575 25 18.0218C25 18.5861 25.4575 19.0435 26.0218 19.0435Z" fill="#FC6464"/>
<path d="M29.0921 19.0435C29.6565 19.0435 30.1139 18.5861 30.1139 18.0218C30.1139 17.4575 29.6565 17 29.0921 17C28.5278 17 28.0703 17.4575 28.0703 18.0218C28.0703 18.5861 28.5278 19.0435 29.0921 19.0435Z" fill="#FC6464"/>
<path d="M32.1507 19.0435C32.715 19.0435 33.1725 18.5861 33.1725 18.0218C33.1725 17.4575 32.715 17 32.1507 17C31.5864 17 31.1289 17.4575 31.1289 18.0218C31.1289 18.5861 31.5864 19.0435 32.1507 19.0435Z" fill="#FC6464"/>
<g opacity="0.1">
<path opacity="0.1" d="M174.168 112.547C174.248 112.337 174.038 112.143 174.011 111.919C173.984 111.981 173.973 112.048 173.978 112.115C173.99 112.281 174.114 112.434 174.145 112.587C174.154 112.574 174.162 112.561 174.168 112.547Z" fill="black"/>
<path opacity="0.1" d="M179.937 112.999C179.815 113.324 179.593 113.602 179.518 113.941C179.502 114.01 179.491 114.08 179.484 114.151C179.56 113.811 179.78 113.535 179.903 113.213C179.957 113.067 179.991 112.915 180.004 112.76C179.987 112.841 179.965 112.921 179.937 112.999Z" fill="black"/>
</g>
<g opacity="0.05">
<path opacity="0.05" d="M144.888 82.0299C144.951 81.9692 144.942 81.8205 144.888 81.6111C144.8 81.7911 144.761 81.9913 144.777 82.1911C144.802 82.1302 144.84 82.0753 144.888 82.0299Z" fill="black"/>
<path opacity="0.05" d="M149.481 70.8973C149.494 70.8247 149.499 70.751 149.496 70.6774C149.47 70.8282 149.456 70.9664 149.445 71.0962C149.456 71.0166 149.468 70.9622 149.481 70.8973Z" fill="black"/>
<path opacity="0.05" d="M144.365 79.2221C144.404 79.0776 144.418 78.9275 144.407 78.7783C144.341 78.9577 144.309 79.1481 144.313 79.3394C144.326 79.2984 144.343 79.2591 144.365 79.2221Z" fill="black"/>
<path opacity="0.05" d="M151.88 81.4038C151.778 81.5983 151.692 81.8015 151.625 82.011L151.635 82.2895C151.69 82.1511 151.751 82.0155 151.82 81.8833C151.876 81.7243 151.899 81.5553 151.887 81.3871L151.88 81.4038Z" fill="black"/>
<path opacity="0.05" d="M148.99 81.8288C149.06 81.6724 149.12 81.5115 149.168 81.3473C149.168 81.3473 148.833 81.4415 148.27 80.8238C147.862 80.3758 147.807 79.5027 147.851 78.9395C147.763 79.2807 147.659 80.7003 148.22 81.3159C148.578 81.7074 148.846 81.8079 148.99 81.8288Z" fill="black"/>
</g>
<path opacity="0.1" d="M16.7591 1.83835C16.7591 1.83835 15.2724 1.66038 14.8516 2.64863C15.0297 2.61985 15.212 2.63057 15.3855 2.68004C15.4945 2.72949 15.6136 2.75245 15.7331 2.74704C15.9569 2.3324 16.3204 2.01046 16.7591 1.83835Z" fill="white"/>
<path opacity="0.1" d="M23.8936 5.06266C23.8936 5.06266 22.719 4.13303 21.8438 4.75697C22.0106 4.8249 22.1602 4.92936 22.2814 5.06266C22.3492 5.16198 22.4396 5.24378 22.5452 5.30135C22.9522 5.06453 23.4301 4.97994 23.8936 5.06266Z" fill="white"/>
<g opacity="0.1">
<path opacity="0.1" d="M0.629661 12.4663C0.534583 12.6191 0.475845 12.7917 0.457964 12.9709C-0.379588 12.3029 0.187852 10.9169 0.187852 10.9169C0.2359 11.3857 0.447991 11.8224 0.786702 12.1501C0.760426 12.2665 0.706569 12.375 0.629661 12.4663Z" fill="black"/>
<path opacity="0.1" d="M11.2773 14.8197L11.5495 13.5173C11.6047 13.6304 11.6677 13.7396 11.738 13.844C11.7294 14.1921 11.6436 14.5339 11.4867 14.8448C11.4174 14.8327 11.3475 14.8243 11.2773 14.8197Z" fill="black"/>
<path opacity="0.1" d="M11.2069 15.2845C11.1713 15.3306 11.1315 15.3787 11.0917 15.4248C10.8469 15.6951 10.5649 15.9291 10.2542 16.1199C10.1704 16.1765 10.0804 16.2288 9.98828 16.2791C7.95722 17.3971 4.59028 17.573 2.43359 16.5094C2.63006 15.9661 2.92697 15.4647 3.30883 15.0312C4.79757 13.3436 7.28718 13.0002 9.42084 14.0178C9.93932 14.2651 10.4207 14.5836 10.851 14.9642C10.9682 15.0689 11.0897 15.1736 11.2069 15.2845Z" fill="black"/>
<path opacity="0.1" d="M12.0382 15.0353C11.9963 15.0123 11.9502 14.9893 11.9062 14.9704C11.9607 14.7401 12.0277 14.3695 12.0717 14.1329C12.1059 14.1318 12.1386 14.1185 12.1638 14.0952L12.0382 15.0353Z" fill="black"/>
<path opacity="0.1" d="M12.4347 15.3724C12.5276 15.2024 12.5873 15.0162 12.6105 14.8238C12.6168 14.4949 12.4961 14.1762 12.2734 13.934C12.4828 13.6325 12.6168 13.8209 12.6168 13.8209C13.1549 14.0156 12.9812 15.2112 12.9812 15.2112C12.9812 15.2112 12.7718 15.6614 12.4347 15.3724Z" fill="black"/>
<path opacity="0.1" d="M12.4347 15.3724C12.5276 15.2024 12.5873 15.0162 12.6105 14.8238C12.6168 14.4949 12.4961 14.1762 12.2734 13.934C12.4828 13.6325 12.6168 13.8209 12.6168 13.8209C13.1549 14.0156 12.9812 15.2112 12.9812 15.2112C12.9812 15.2112 12.7718 15.6614 12.4347 15.3724Z" fill="black"/>
<path opacity="0.1" d="M0.465772 12.9709C-0.371774 12.3029 0.195665 10.9169 0.195665 10.9169C0.243713 11.3857 0.455802 11.8224 0.794511 12.1501C0.768236 12.2665 0.714379 12.375 0.637471 12.4663C0.542394 12.6191 0.483653 12.7917 0.465772 12.9709Z" fill="black"/>
</g>
<path opacity="0.1" d="M0.365401 10.6594C0.365401 10.6594 -0.206228 12.0434 0.63551 12.7155C0.654363 12.5359 0.713021 12.3628 0.80721 12.2088C0.884359 12.1165 0.938856 12.0076 0.966343 11.8905C0.626261 11.5644 0.413252 11.1281 0.365401 10.6594Z" fill="white"/>
<g opacity="0.1">
<path opacity="0.1" d="M8.92433 1.31903C8.81298 1.36438 8.69217 1.38164 8.57257 1.36928C8.3931 1.37793 8.21783 1.42658 8.05957 1.51165C8.13704 0.439639 9.60484 0.129761 9.60484 0.129761C9.24488 0.433553 9.00385 0.854773 8.92433 1.31903Z" fill="black"/>
<path opacity="0.1" d="M10.9978 11.0237C11.1004 11.1786 11.1968 11.3357 11.2847 11.4948C11.0853 11.424 10.8909 11.3401 10.7026 11.2435C9.1992 10.4835 7.70836 8.85874 6.875 7.11462C7.39343 7.36112 7.87481 7.67897 8.30512 8.05891C9.11243 8.75661 9.85334 9.52763 10.5183 10.3621C10.69 10.5756 10.8513 10.7976 10.9978 11.0237Z" fill="black"/>
<path opacity="0.1" d="M13.6986 11.3127C13.4062 11.5016 13.076 11.6245 12.7312 11.6728C12.7028 11.6078 12.67 11.5448 12.6328 11.4844L13.864 10.9714C13.8008 11.0811 13.7455 11.1951 13.6986 11.3127Z" fill="black"/>
<path opacity="0.1" d="M13.273 13.1154C13.273 13.1154 12.7851 13.197 12.8312 12.7573C13.0241 12.7371 13.2116 12.681 13.384 12.5919C13.659 12.4121 13.8541 12.1331 13.9284 11.813C14.299 11.813 14.2153 12.0224 14.2153 12.0224C14.3597 12.5857 13.273 13.1154 13.273 13.1154Z" fill="black"/>
<path opacity="0.1" d="M8.92433 1.31903C8.81298 1.36438 8.69217 1.38164 8.57257 1.36928C8.3931 1.37793 8.21783 1.42658 8.05957 1.51165C8.13704 0.439639 9.60484 0.129761 9.60484 0.129761C9.24488 0.433553 9.00385 0.854773 8.92433 1.31903Z" fill="black"/>
</g>
<path opacity="0.1" d="M9.69161 0C9.69161 0 8.22591 0.311973 8.14844 1.38399C8.30694 1.29765 8.48318 1.24894 8.66353 1.24161C8.78241 1.25247 8.90219 1.23526 9.0132 1.19136C9.09222 0.726827 9.33242 0.305001 9.69161 0Z" fill="white"/>
<path opacity="0.1" d="M29.5705 21.2057C29.5705 21.2057 30.1275 19.8134 29.2816 19.1517C29.2638 19.3319 29.2059 19.5057 29.112 19.6605C29.0358 19.7528 28.9827 19.8619 28.957 19.9788C29.3009 20.3019 29.5184 20.7368 29.5705 21.2057Z" fill="white"/>
<g opacity="0.1">
<path opacity="0.1" d="M13.32 10.6511C13.2082 10.6949 13.0876 10.7114 12.9682 10.6992C12.7881 10.708 12.6122 10.7567 12.4531 10.8416C12.5327 9.77167 13.9984 9.46179 13.9984 9.46179C13.6385 9.76533 13.3981 10.1868 13.32 10.6511Z" fill="black"/>
<path opacity="0.1" d="M18.0949 20.6426C17.8033 20.8316 17.4738 20.9545 17.1297 21.0027C17.1013 20.9377 17.0684 20.8747 17.0312 20.8143L18.2624 20.3034C18.1988 20.4124 18.1428 20.5258 18.0949 20.6426Z" fill="black"/>
<path opacity="0.1" d="M18.122 21.1409L17.2845 21.5597C17.2845 21.5122 17.2782 21.4641 17.2656 21.4152C17.4855 21.3294 17.831 21.1765 18.0487 21.0802C18.0648 21.1089 18.0909 21.1305 18.122 21.1409Z" fill="black"/>
<path opacity="0.1" d="M13.32 10.6511C13.2082 10.6949 13.0876 10.7114 12.9682 10.6992C12.7881 10.708 12.6122 10.7567 12.4531 10.8416C12.5327 9.77167 13.9984 9.46179 13.9984 9.46179C13.6385 9.76533 13.3981 10.1868 13.32 10.6511Z" fill="black"/>
</g>
</svg>
