<?xml version="1.0"?>
<svg width="120" height="160" viewBox="0 0 120 160" fill="none" xmlns="http://www.w3.org/2000/svg">
<path d="M115.374 0H4.46562C1.99933 0 0 1.99645 0 4.45919V154.609C0 157.072 1.99933 159.068 4.46562 159.068H115.374C117.84 159.068 119.839 157.072 119.839 154.609V4.45919C119.839 1.99645 117.84 0 115.374 0Z" fill="#FC6464"/>
<path d="M108 15H12C9.79086 15 8 16.7909 8 19V140C8 142.209 9.79086 144 12 144H108C110.209 144 112 142.209 112 140V19C112 16.7909 110.209 15 108 15Z" fill="white"/>
<path d="M60.3937 7.29528C60.3937 7.82501 59.9635 8.25567 59.4312 8.25567C58.899 8.25567 58.4688 7.82501 58.4688 7.29528C58.4688 6.76556 58.899 6.3349 59.4312 6.3349C59.9635 6.3349 60.3937 6.76556 60.3937 7.29528Z" stroke="white"/>
<path d="M59.0778 153.538C60.6072 153.538 61.8471 152.299 61.8471 150.769C61.8471 149.24 60.6072 148 59.0778 148C57.5484 148 56.3086 149.24 56.3086 150.769C56.3086 152.299 57.5484 153.538 59.0778 153.538Z" fill="white"/>
<path d="M37.4011 31.8007H21.7045C20.2432 31.8007 19.0586 32.9836 19.0586 34.4428V50.1168C19.0586 51.576 20.2432 52.7589 21.7045 52.7589H37.4011C38.8624 52.7589 40.047 51.576 40.047 50.1168V34.4428C40.047 32.9836 38.8624 31.8007 37.4011 31.8007Z" fill="#FC6464"/>
<path opacity="0.5" d="M82.4348 52.759H98.1315C99.5927 52.759 100.777 51.5761 100.777 50.1169V34.4429C100.777 32.9837 99.5927 31.8008 98.1315 31.8008L82.4348 31.8008C80.9735 31.8008 79.7889 32.9837 79.7889 34.4429V50.1169C79.7889 51.5761 80.9735 52.759 82.4348 52.759Z" fill="#FC6464"/>
<path d="M67.7722 31.8007H52.0756C50.6143 31.8007 49.4297 32.9836 49.4297 34.4428V50.1168C49.4297 51.576 50.6143 52.7589 52.0756 52.7589H67.7722C69.2335 52.7589 70.4181 51.576 70.4181 50.1168V34.4428C70.4181 32.9836 69.2335 31.8007 67.7722 31.8007Z" fill="#FC6464"/>
<path d="M37.4011 68.812H21.7045C20.2432 68.812 19.0586 69.9949 19.0586 71.4541V87.1281C19.0586 88.5873 20.2432 89.7702 21.7045 89.7702H37.4011C38.8624 89.7702 40.047 88.5873 40.047 87.1281V71.4541C40.047 69.9949 38.8624 68.812 37.4011 68.812Z" fill="#FC6464"/>
<path opacity="0.5" d="M82.4348 89.7701H98.1315C99.5927 89.7701 100.777 88.5872 100.777 87.1281V71.454C100.777 69.9949 99.5927 68.812 98.1315 68.812H82.4348C80.9735 68.812 79.7889 69.9949 79.7889 71.454V87.1281C79.7889 88.5872 80.9735 89.7701 82.4348 89.7701Z" fill="#FC6464"/>
<path opacity="0.5" d="M67.7722 68.812H52.0756C50.6143 68.812 49.4297 69.9949 49.4297 71.4541V87.1281C49.4297 88.5873 50.6143 89.7702 52.0756 89.7702H67.7722C69.2335 89.7702 70.4181 88.5873 70.4181 87.1281V71.4541C70.4181 69.9949 69.2335 68.812 67.7722 68.812Z" fill="#FC6464"/>
<path d="M37.4011 105.823H21.7045C20.2432 105.823 19.0586 107.006 19.0586 108.465V124.139C19.0586 125.599 20.2432 126.781 21.7045 126.781H37.4011C38.8624 126.781 40.047 125.599 40.047 124.139V108.465C40.047 107.006 38.8624 105.823 37.4011 105.823Z" fill="#FC6464"/>
<path d="M82.4348 126.781H98.1315C99.5927 126.781 100.777 125.599 100.777 124.139V108.465C100.777 107.006 99.5927 105.823 98.1315 105.823H82.4348C80.9735 105.823 79.7889 107.006 79.7889 108.465V124.139C79.7889 125.599 80.9735 126.781 82.4348 126.781Z" fill="#FC6464"/>
<path d="M67.7722 105.823H52.0756C50.6143 105.823 49.4297 107.006 49.4297 108.465V124.139C49.4297 125.599 50.6143 126.781 52.0756 126.781H67.7722C69.2335 126.781 70.4181 125.599 70.4181 124.139V108.465C70.4181 107.006 69.2335 105.823 67.7722 105.823Z" fill="#FC6464"/>
<g opacity="0.05">
<mask id="path-14-inside-1" fill="white">
<path d="M119.998 134.445C119.998 134.445 120.143 134.891 118.243 135.466C116.343 136.041 115.758 136.634 115.758 136.634"/>
</mask>
<path d="M119.998 134.445C119.047 134.754 119.046 134.752 119.046 134.75C119.046 134.749 119.045 134.748 119.045 134.746C119.044 134.744 119.043 134.741 119.042 134.738C119.04 134.733 119.039 134.728 119.037 134.722C119.034 134.712 119.031 134.701 119.028 134.69C119.023 134.668 119.018 134.646 119.014 134.623C119.006 134.577 119.002 134.531 119.001 134.484C118.999 134.389 119.013 134.3 119.038 134.221C119.087 134.064 119.165 133.995 119.159 134C119.125 134.032 118.859 134.234 117.953 134.509L118.533 136.423C119.527 136.122 120.138 135.814 120.507 135.479C120.702 135.301 120.862 135.084 120.944 134.825C120.985 134.696 121.003 134.568 121 134.446C120.999 134.385 120.993 134.329 120.984 134.277C120.979 134.25 120.974 134.226 120.968 134.202C120.965 134.19 120.962 134.179 120.959 134.168C120.957 134.162 120.956 134.156 120.954 134.151C120.953 134.148 120.952 134.146 120.951 134.143C120.951 134.142 120.95 134.14 120.95 134.139C120.949 134.137 120.949 134.135 119.998 134.445ZM117.953 134.509C116.939 134.816 116.247 135.136 115.79 135.398C115.562 135.529 115.393 135.646 115.272 135.738C115.211 135.784 115.163 135.824 115.126 135.857C115.107 135.873 115.092 135.888 115.078 135.9C115.072 135.906 115.066 135.912 115.06 135.918C115.058 135.92 115.055 135.923 115.053 135.925C115.051 135.926 115.05 135.927 115.049 135.929C115.049 135.929 115.048 135.93 115.047 135.93C115.047 135.93 115.047 135.931 115.047 135.931C115.046 135.931 115.046 135.932 115.758 136.634C116.47 137.336 116.469 137.337 116.469 137.337C116.469 137.337 116.468 137.338 116.468 137.338C116.468 137.338 116.467 137.339 116.467 137.339C116.466 137.34 116.465 137.341 116.464 137.342C116.462 137.344 116.46 137.346 116.459 137.347C116.456 137.35 116.453 137.353 116.451 137.354C116.448 137.358 116.446 137.359 116.447 137.358C116.449 137.356 116.462 137.345 116.486 137.327C116.534 137.29 116.63 137.222 116.785 137.133C117.096 136.955 117.646 136.691 118.533 136.423L117.953 134.509Z" fill="white" mask="url(#path-14-inside-1)"/>
</g>
</svg>
