<svg width="46" height="46" viewBox="0 0 46 46" fill="none" xmlns="http://www.w3.org/2000/svg">
<g clip-path="url(#clip0)">
<path d="M29.7629 4.99545C28.4351 2.4924 25.8334 0.927246 22.9999 0.927246C20.1664 0.927246 17.5646 2.4924 16.2369 4.99545L0.894083 33.9222C-0.36604 36.2956 -0.289782 39.156 1.09519 41.4587C2.4798 43.7613 4.97089 45.1695 7.65785 45.1688H38.3419C41.0289 45.1695 43.52 43.7613 44.9049 41.4587C46.2896 39.156 46.3658 36.2956 45.1057 33.9222L29.7629 4.99545ZM43.5936 40.6703C42.4924 42.5199 40.4947 43.6485 38.3419 43.6376H7.65785C5.50918 43.6376 3.5175 42.5113 2.40989 40.6703C1.30191 38.8289 1.24023 36.5419 2.24691 34.6437L17.5889 5.7128C18.6509 3.70954 20.7327 2.45726 22.9999 2.45726C25.2671 2.45726 27.3488 3.70954 28.4108 5.7128L43.7529 34.6437C44.7704 36.5389 44.7098 38.8311 43.5936 40.6703Z" fill="#FC6464"/>
<path d="M31.7132 28.3258L33.0324 30.9646C33.2215 31.3429 33.6813 31.4965 34.06 31.3077C34.4383 31.1186 34.5919 30.6584 34.4028 30.2801L32.8716 27.2178C32.7412 26.9569 32.4743 26.7928 32.1827 26.7947H29.8897V26.0291C29.886 25.6874 29.8247 25.3491 29.7084 25.0284L31.8459 23.6038C32.0586 23.4618 32.1864 23.2225 32.1864 22.9668V19.139C32.1864 18.7158 31.8436 18.3734 31.4208 18.3734C30.9981 18.3734 30.6553 18.7158 30.6553 19.139V22.5571L28.8584 23.7545C28.3021 23.2498 27.5784 22.9695 26.8274 22.9668V20.6701C26.8274 18.5558 25.1135 16.8423 22.9996 16.8423C20.8857 16.8423 19.1717 18.5558 19.1717 20.6701V22.9668C18.4207 22.9695 17.697 23.2498 17.1408 23.7545L15.3439 22.5571V19.139C15.3439 18.7158 15.0011 18.3734 14.5783 18.3734C14.1555 18.3734 13.8127 18.7158 13.8127 19.139V22.9668C13.8127 23.2225 13.9406 23.4618 14.1533 23.6038L16.2908 25.0284C16.1745 25.3491 16.1132 25.6874 16.1095 26.0291V26.7947H13.8127C13.5227 26.7943 13.2573 26.9584 13.1275 27.2178L11.5964 30.2801C11.4076 30.6584 11.5609 31.1186 11.9396 31.3077C12.3179 31.4965 12.7777 31.3429 12.9668 30.9646L14.286 28.3258H16.1095V32.1537H13.8127C13.5227 32.1533 13.2573 32.3174 13.1275 32.5768L11.5964 35.6391C11.4076 36.0174 11.5609 36.4776 11.9396 36.6667C12.3179 36.8555 12.7777 36.7018 12.9668 36.3235L14.286 33.6848H16.287C16.9988 36.8196 19.7852 39.0445 22.9996 39.0445C26.214 39.0445 29.0008 36.8196 29.7121 33.6848H31.7132L33.0324 36.3235C33.2215 36.7018 33.6813 36.8555 34.06 36.6667C34.4383 36.4776 34.5919 36.0174 34.4028 35.6391L32.8716 32.5768C32.7412 32.3159 32.4743 32.1518 32.1827 32.1537H29.8897V28.3258H31.7132ZM20.7029 20.6701C20.7029 19.4014 21.7312 18.3734 22.9996 18.3734C24.2679 18.3734 25.2963 19.4014 25.2963 20.6701V22.9668H20.7029V20.6701ZM17.6406 32.1537V26.0291C17.6406 25.1832 18.3262 24.498 19.1717 24.498H22.234V30.7971L19.2091 35.9385C18.2043 34.9352 17.6398 33.5734 17.6406 32.1537ZM22.9996 37.5126C22.1062 37.5138 21.227 37.2899 20.4427 36.8618L22.9996 32.5148L25.5565 36.8618C24.7726 37.2899 23.893 37.5138 22.9996 37.5126ZM28.3586 32.1537C28.3593 33.5734 27.7949 34.9352 26.79 35.9385L23.7652 30.7971V24.498H26.8274C27.673 24.498 28.3586 25.1832 28.3586 26.0291V32.1537Z" fill="#FC6464"/>
</g>
<defs>
<clipPath id="clip0">
<rect width="46" height="46" fill="white"/>
</clipPath>
</defs>
</svg>
