<svg width="48" height="48" viewBox="0 0 48 48" fill="none" xmlns="http://www.w3.org/2000/svg">
<g clip-path="url(#clip0)">
<path d="M38.974 17.8022C37.5403 14.6989 35.5444 11.6423 33.0413 8.71711C28.7896 3.74837 24.5979 0.912789 24.4215 0.79456C24.1668 0.623819 23.8341 0.623819 23.5794 0.79456C23.4031 0.912789 19.2113 3.74837 14.9596 8.71711C12.4565 11.6422 10.4605 14.6989 9.02696 17.8022C7.2251 21.7027 6.31152 25.6869 6.31152 29.6442C6.31152 39.398 14.2467 47.3332 24.0005 47.3332C33.7543 47.3332 41.6895 39.398 41.6895 29.6442C41.6895 25.6869 40.7758 21.7027 38.974 17.8022ZM24.0005 45.8213C15.0804 45.8213 7.8234 38.5643 7.8234 29.6442C7.8234 25.9147 8.68679 22.1511 10.3896 18.4578C11.7605 15.4844 13.6757 12.5483 16.0817 9.73138C19.4387 5.8012 22.8366 3.19331 24.0007 2.34817C25.161 3.18968 28.5385 5.78033 31.8927 9.70013C34.3055 12.5199 36.2262 15.4591 37.6016 18.4364C39.3108 22.1365 40.1776 25.9075 40.1776 29.6442C40.1776 38.5643 32.9206 45.8213 24.0005 45.8213Z" fill="#FC6464"/>
<path d="M37.5029 32.1352C37.0969 32.0369 36.6886 32.2863 36.5903 32.692C35.7241 36.2696 33.3565 39.3235 30.0945 41.0706C29.7265 41.2676 29.5879 41.7258 29.785 42.0938C29.9213 42.3482 30.1823 42.493 30.4521 42.493C30.5724 42.493 30.6947 42.4641 30.8083 42.4032C34.4494 40.4531 37.0925 37.0431 38.0597 33.0476C38.1579 32.642 37.9087 32.2334 37.5029 32.1352Z" fill="#FC6464"/>
<path d="M38.4024 27.976C38.3716 27.5597 38.0101 27.2478 37.5928 27.2779C37.1764 27.3087 36.8639 27.6712 36.8947 28.0876C36.933 28.6043 36.9523 29.128 36.9523 29.6442C36.9523 30.0618 37.2907 30.4001 37.7083 30.4001C38.1259 30.4001 38.4642 30.0618 38.4642 29.6442C38.4642 29.0909 38.4435 28.5296 38.4024 27.976Z" fill="#FC6464"/>
<path d="M20.775 22.4375C20.3574 22.4375 20.019 22.7759 20.019 23.1934V27.2755H15.0802V23.1934C15.0802 22.7759 14.7419 22.4375 14.3243 22.4375C13.9067 22.4375 13.5684 22.7759 13.5684 23.1934V32.8695C13.5684 33.287 13.9067 33.6254 14.3243 33.6254C14.7419 33.6254 15.0802 33.287 15.0802 32.8695V28.7874H20.019V32.8695C20.019 33.287 20.3574 33.6254 20.775 33.6254C21.1926 33.6254 21.5309 33.287 21.5309 32.8695V23.1934C21.5309 22.7759 21.1925 22.4375 20.775 22.4375Z" fill="#FC6464"/>
<path d="M34.4323 29.6441V26.4188C34.4323 24.2235 32.6463 22.4375 30.451 22.4375C28.2558 22.4375 26.4697 24.2235 26.4697 26.4188V29.6441C26.4697 31.8394 28.2558 33.6254 30.451 33.6254C32.6463 33.6254 34.4323 31.8394 34.4323 29.6441ZM27.9816 29.6441V26.4188C27.9816 25.0571 29.0893 23.9494 30.451 23.9494C31.8127 23.9494 32.9204 25.0571 32.9204 26.4188V29.6441C32.9204 31.0058 31.8127 32.1135 30.451 32.1135C29.0893 32.1135 27.9816 31.0058 27.9816 29.6441Z" fill="#FC6464"/>
<path d="M24.4039 36.0447H24.8071C25.8908 36.0447 26.7725 35.1629 26.7725 34.0792C26.7725 32.9955 25.8908 32.1138 24.8071 32.1138H24.0008C23.1393 32.1138 22.4385 32.8146 22.4385 33.676C22.4385 34.0936 22.7768 34.432 23.1944 34.432C23.612 34.432 23.9504 34.0936 23.9504 33.676C23.9504 33.6483 23.973 33.6256 24.0008 33.6256H24.8071C25.0572 33.6256 25.2607 33.8291 25.2607 34.0792C25.2607 34.3293 25.0572 34.5328 24.8071 34.5328H24.4039C23.3202 34.5328 22.4385 35.4145 22.4385 36.4982V37.7077C22.4385 38.1253 22.7768 38.4637 23.1944 38.4637H26.0166C26.4342 38.4637 26.7725 38.1253 26.7725 37.7077C26.7725 37.2901 26.4342 36.9518 26.0166 36.9518H23.9504V36.4982C23.9504 36.2481 24.1538 36.0447 24.4039 36.0447Z" fill="#FC6464"/>
</g>
<defs>
<clipPath id="clip0">
<rect width="46.6667" height="46.6667" fill="white" transform="translate(0.666992 0.666504)"/>
</clipPath>
</defs>
</svg>
