<svg width="46" height="46" viewBox="0 0 46 46" fill="none" xmlns="http://www.w3.org/2000/svg">
<path d="M39.0996 0H6.89961C5.62944 0 4.59961 1.02983 4.59961 2.3V43.7C4.59961 44.9702 5.62944 46 6.89961 46H39.0996C40.3698 46 41.3996 44.9702 41.3996 43.7V2.3C41.3996 1.02983 40.3698 0 39.0996 0ZM39.8663 43.7C39.8663 44.1234 39.523 44.4667 39.0996 44.4667H6.89961C6.47622 44.4667 6.13294 44.1234 6.13294 43.7V2.3C6.13294 1.87661 6.47622 1.53333 6.89961 1.53333H39.0996C39.523 1.53333 39.8663 1.87661 39.8663 2.3V43.7Z" fill="#FC6464"/>
<path d="M22.9992 15.3336C21.5823 15.3347 20.1744 15.5563 18.8256 15.9898L18.3816 13.8002H18.3992C19.246 13.8002 19.9326 13.1137 19.9326 12.2669V4.60023C19.9326 3.75345 19.246 3.06689 18.3992 3.06689H10.7326C9.88577 3.06689 9.19922 3.75345 9.19922 4.60023V12.2669C9.19922 13.1137 9.88577 13.8002 10.7326 13.8002H12.8079L15.026 17.8795C9.4826 21.8154 7.63519 29.2039 10.673 35.286C13.7109 41.3677 20.728 44.328 27.2043 42.2601C33.6805 40.1922 37.6834 33.7126 36.6345 26.9957C35.5856 20.2787 29.7978 15.3283 22.9992 15.3336ZM12.4605 9.25451C12.188 9.35408 11.9949 9.59891 11.9615 9.88716L11.7654 11.5908C11.7467 11.7473 11.7777 11.906 11.8534 12.0445L11.9746 12.2669H10.7326V4.60023H18.3992V12.2669H18.0702L17.6004 9.95229C17.5689 9.79806 17.4907 9.65693 17.3765 9.54837L16.1314 8.36992C15.9207 8.17039 15.6152 8.10675 15.3427 8.20596L12.4605 9.25451ZM13.3163 11.5257L13.4305 10.5333L15.4239 9.80817L16.149 10.4981L18.1667 20.4472L13.3163 11.5257ZM22.9992 41.4002C17.6936 41.3976 12.9906 37.9843 11.3442 32.9407C9.69748 27.8971 11.4798 22.3665 15.7619 19.2335L19.2595 25.6667C19.441 25.9999 19.839 26.15 20.1953 26.0201C20.5521 25.8898 20.7595 25.5188 20.6839 25.1467L19.1329 17.5033C20.3788 17.0833 21.6845 16.868 22.9992 16.8669C29.7738 16.8669 35.2659 22.359 35.2659 29.1336C35.2659 35.9082 29.7738 41.4002 22.9992 41.4002Z" fill="#FC6464"/>
<path d="M23 38.3333V39.8666C28.9252 39.8603 33.727 35.0585 33.7333 29.1333H32.2C32.1944 34.2121 28.0788 38.3277 23 38.3333Z" fill="#FC6464"/>
<path d="M26.0669 29.1336C26.0669 27.44 24.6938 26.0669 23.0003 26.0669C21.3067 26.0669 19.9336 27.44 19.9336 29.1336C19.9336 30.8271 21.3067 32.2002 23.0003 32.2002C24.6938 32.2002 26.0669 30.8271 26.0669 29.1336ZM21.4669 29.1336C21.4669 28.2868 22.1535 27.6002 23.0003 27.6002C23.847 27.6002 24.5336 28.2868 24.5336 29.1336C24.5336 29.9803 23.847 30.6669 23.0003 30.6669C22.1535 30.6669 21.4669 29.9803 21.4669 29.1336Z" fill="#FC6464"/>
</svg>
