<svg width="48" height="48" viewBox="0 0 48 48" fill="none" xmlns="http://www.w3.org/2000/svg">
<g clip-path="url(#clip0)">
<path d="M24.0003 0.666504C11.1137 0.666504 0.666992 11.1132 0.666992 23.9998C0.666992 36.8865 11.1137 47.3332 24.0003 47.3332C36.887 47.3332 47.3337 36.8865 47.3337 23.9998C47.3192 11.1192 36.881 0.680996 24.0003 0.666504ZM24.0003 45.8748C11.9191 45.8748 2.12533 36.081 2.12533 23.9998C2.12533 11.9186 11.9191 2.12484 24.0003 2.12484C36.0815 2.12484 45.8753 11.9186 45.8753 23.9998C45.8617 36.0754 36.0759 45.8612 24.0003 45.8748Z" fill="#FC6464"/>
<path d="M24.0007 3.58301C12.7248 3.58301 3.58398 12.7238 3.58398 23.9997C3.58398 35.2755 12.7248 44.4163 24.0007 44.4163C35.2765 44.4163 44.4173 35.2755 44.4173 23.9997C44.4045 12.7292 35.2711 3.59586 24.0007 3.58301ZM24.0007 42.958C13.5303 42.958 5.04232 34.4701 5.04232 23.9997C5.04232 13.5293 13.5303 5.04134 24.0007 5.04134C34.471 5.04134 42.959 13.5293 42.959 23.9997C42.9473 34.4652 34.4662 42.9463 24.0007 42.958Z" fill="#FC6464"/>
<path d="M24.0007 10.1455C16.3492 10.1455 10.1465 16.3483 10.1465 23.9997C10.1465 31.6511 16.3492 37.8538 24.0007 37.8538C31.6521 37.8538 37.8548 31.6511 37.8548 23.9997C37.8463 16.3517 31.6486 10.154 24.0007 10.1455ZM24.0007 36.3955C17.1546 36.3955 11.6048 30.8457 11.6048 23.9997C11.6048 17.1536 17.1546 11.6038 24.0007 11.6038C30.8467 11.6038 36.3965 17.1536 36.3965 23.9997C36.3888 30.8425 30.8435 36.3878 24.0007 36.3955Z" fill="#FC6464"/>
<path d="M15.5828 26.3986C15.3615 25.6182 15.2497 24.8109 15.2503 23.9997C15.2503 23.597 14.9238 23.2705 14.5212 23.2705C14.1185 23.2705 13.792 23.597 13.792 23.9997C13.7915 24.9457 13.9221 25.8872 14.1799 26.7975C14.2691 27.1106 14.5551 27.3266 14.8806 27.3269C14.9485 27.3273 15.016 27.3179 15.0812 27.2991C15.4683 27.1889 15.6928 26.7858 15.5828 26.3986Z" fill="#FC6464"/>
<path d="M23.9999 32.75C20.991 32.7574 18.1912 31.2121 16.5938 28.6623C16.3839 28.3186 15.9352 28.2101 15.5915 28.4199C15.2478 28.6297 15.1393 29.0785 15.3491 29.4222C15.3527 29.4281 15.3563 29.4338 15.36 29.4396C17.2234 32.4144 20.4897 34.2171 23.9999 34.2083C24.4026 34.2083 24.7291 33.8818 24.7291 33.4791C24.7291 33.0765 24.4026 32.75 23.9999 32.75Z" fill="#FC6464"/>
</g>
<defs>
<clipPath id="clip0">
<rect width="46.6667" height="46.6667" fill="white" transform="translate(0.666992 0.666504)"/>
</clipPath>
</defs>
</svg>
