<svg width="46" height="46" viewBox="0 0 46 46" fill="none" xmlns="http://www.w3.org/2000/svg">
<path d="M38.6169 0H7.38297C5.88272 0 4.66211 1.22061 4.66211 2.72086V43.2791C4.66211 44.7794 5.88262 46 7.38297 46H38.6169C40.1171 46 41.3378 44.7794 41.3378 43.2791V2.72086C41.3378 1.22061 40.1171 0 38.6169 0ZM39.7836 43.2791C39.7836 43.9224 39.2602 44.4459 38.6169 44.4459H7.38297C6.73967 44.4459 6.21624 43.9224 6.21624 43.2791V2.72086C6.21624 2.07756 6.73967 1.55413 7.38297 1.55413H38.6169C39.2602 1.55413 39.7836 2.07756 39.7836 2.72086V43.2791Z" fill="#FC6464"/>
<path d="M38.2293 4.96387H7.77C7.48393 4.96387 7.25195 5.19585 7.25195 5.48191V40.5185C7.25195 40.8045 7.48393 41.0365 7.77 41.0365H38.2293C38.5154 41.0365 38.7474 40.8045 38.7474 40.5185V5.48191C38.7474 5.19574 38.5154 4.96387 38.2293 4.96387ZM37.7113 40.0004H8.28804V5.99995H37.7113V40.0004Z" fill="#FC6464"/>
<path d="M22.9997 42.1147C22.7946 42.1147 22.5946 42.1976 22.4496 42.3427C22.3055 42.4867 22.2227 42.6877 22.2227 42.8918C22.2227 43.0959 22.3055 43.2969 22.4496 43.4409C22.5946 43.586 22.7946 43.6689 22.9997 43.6689C23.2038 43.6689 23.4048 43.586 23.5488 43.4409C23.6939 43.2969 23.7768 43.0959 23.7768 42.8918C23.7768 42.6877 23.6939 42.4867 23.5488 42.3427C23.4038 42.1976 23.2038 42.1147 22.9997 42.1147Z" fill="#FC6464"/>
<path d="M23.0005 3.85933C23.1362 3.85933 23.2698 3.80441 23.3662 3.70806C23.4626 3.6117 23.5185 3.47805 23.5185 3.34128C23.5185 3.20452 23.4626 3.0719 23.3662 2.97451C23.2698 2.87815 23.1362 2.82324 23.0005 2.82324C22.8637 2.82324 22.73 2.87815 22.6337 2.97451C22.5373 3.07087 22.4824 3.20452 22.4824 3.34128C22.4824 3.47805 22.5373 3.6117 22.6337 3.70806C22.73 3.80441 22.8637 3.85933 23.0005 3.85933Z" fill="#FC6464"/>
</svg>
