<?xml version="1.0"?>
<svg width="80" height="163" viewBox="0 0 80 163" fill="none" xmlns="http://www.w3.org/2000/svg">
<path d="M9.40169 0.5H70.5983C75.5149 0.5 79.5 4.48289 79.5 9.39531V153.082C79.5 157.994 75.5149 161.977 70.5983 161.977H9.40169C4.4851 161.977 0.5 157.994 0.5 153.082V9.39531C0.5 4.48289 4.4851 0.5 9.40169 0.5Z" stroke="white"/>
<path d="M42.5292 4.88452H33.1017C32.5795 4.88452 32.1562 5.31055 32.1562 5.83609V6.24671C32.1562 6.77224 32.5795 7.19827 33.1017 7.19827H42.5292C43.0513 7.19827 43.4746 6.77224 43.4746 6.24671V5.83609C43.4746 5.31055 43.0513 4.88452 42.5292 4.88452Z" fill="white"/>
<path d="M46.4304 7.19828C47.2118 7.19828 47.8452 6.62278 47.8452 5.91286C47.8452 5.20294 47.2118 4.62744 46.4304 4.62744C45.649 4.62744 45.0156 5.20294 45.0156 5.91286C45.0156 6.62278 45.649 7.19828 46.4304 7.19828Z" fill="white"/>
<path d="M12.162 6.5H19.9943V7.0723C19.9943 7.07238 19.9943 7.07246 19.9943 7.07253C19.9939 7.80679 20.1378 8.53395 20.4177 9.21247C20.6976 9.89107 21.1081 10.5078 21.6257 11.0273C22.1434 11.5468 22.7581 11.9589 23.4347 12.24C24.1113 12.5211 24.8365 12.6656 25.5689 12.6653C25.569 12.6653 25.569 12.6653 25.5691 12.6653H53.8792C55.3583 12.6653 56.7764 12.0756 57.8217 11.0266C58.867 9.97761 59.4538 8.55526 59.4538 7.07253V6.5H67.8403C68.5835 6.5 69.3194 6.64694 70.0061 6.93246C70.6928 7.21799 71.3168 7.63653 71.8424 8.16427L72.1967 7.81142L71.8424 8.16427C72.3681 8.69202 72.7851 9.31863 73.0696 10.0083C73.354 10.6981 73.5003 11.4373 73.5 12.1839V12.1841V149.816C73.5003 150.563 73.354 151.302 73.0696 151.992C72.7851 152.681 72.3681 153.308 71.8424 153.836C71.3168 154.363 70.6928 154.782 70.0061 155.068C69.3194 155.353 68.5835 155.5 67.8403 155.5H12.162C10.661 155.5 9.22099 154.902 8.15901 153.836C7.09697 152.77 6.5 151.324 6.5 149.816V12.1841C6.5 10.676 7.09697 9.23004 8.15901 8.1642C9.22099 7.09842 10.661 6.5 12.162 6.5Z" fill="white" stroke="white"/>
<path opacity="0.5" d="M57.9738 22.3663H22.2857C21.7698 22.3663 21.3516 22.788 21.3516 23.3083V34.5355C21.3516 35.0558 21.7698 35.4775 22.2857 35.4775H57.9738C58.4896 35.4775 58.9079 35.0558 58.9079 34.5355V23.3083C58.9079 22.788 58.4896 22.3663 57.9738 22.3663Z" fill="#FC6464"/>
<path opacity="0.5" d="M63.3728 110.546H17.1363C16.6209 110.546 16.2031 110.968 16.2031 111.488V113.974C16.2031 114.495 16.6209 114.916 17.1363 114.916H63.3728C63.8882 114.916 64.306 114.495 64.306 113.974V111.488C64.306 110.968 63.8882 110.546 63.3728 110.546Z" fill="#FC6464"/>
<path opacity="0.5" d="M63.3728 117.487H17.1363C16.6209 117.487 16.2031 117.909 16.2031 118.429V120.916C16.2031 121.436 16.6209 121.858 17.1363 121.858H63.3728C63.8882 121.858 64.306 121.436 64.306 120.916V118.429C64.306 117.909 63.8882 117.487 63.3728 117.487Z" fill="#FC6464"/>
<path opacity="0.5" d="M63.3728 124.171H17.1363C16.6209 124.171 16.2031 124.593 16.2031 125.113V127.6C16.2031 128.12 16.6209 128.542 17.1363 128.542H63.3728C63.8882 128.542 64.306 128.12 64.306 127.6V125.113C64.306 124.593 63.8882 124.171 63.3728 124.171Z" fill="#FC6464"/>
<path opacity="0.5" d="M63.3728 130.856H17.1363C16.6209 130.856 16.2031 131.277 16.2031 131.798V134.284C16.2031 134.804 16.6209 135.226 17.1363 135.226H63.3728C63.8882 135.226 64.306 134.804 64.306 134.284V131.798C64.306 131.277 63.8882 130.856 63.3728 130.856Z" fill="#FC6464"/>
<path opacity="0.5" d="M33.5344 137.54H17.1355C16.6206 137.54 16.2031 137.962 16.2031 138.482V140.968C16.2031 141.488 16.6206 141.91 17.1355 141.91H33.5344C34.0493 141.91 34.4668 141.488 34.4668 140.968V138.482C34.4668 137.962 34.0493 137.54 33.5344 137.54Z" fill="#FC6464"/>
<path d="M68.9733 50.6667H11.9182C11.2277 50.6667 10.668 51.2293 10.668 51.9233V94.7435C10.668 95.4374 11.2277 96 11.9182 96H68.9733C69.6638 96 70.2235 95.4374 70.2235 94.7435V51.9233C70.2235 51.2293 69.6638 50.6667 68.9733 50.6667Z" fill="#FC6464"/>
</svg>
