<svg width="665" height="509" viewBox="0 0 665 509" fill="none" xmlns="http://www.w3.org/2000/svg">
<path opacity="0.1" d="M154.342 410.336C163.257 410.923 172.679 414.016 180.791 410.271C182.884 409.308 184.781 407.917 186.954 407.142C191.944 405.36 197.427 407.091 202.453 408.757C241.802 421.784 282.249 431.222 323.299 436.956C331.758 438.137 340.586 439.129 348.647 436.377C354.542 434.37 359.648 430.495 365.485 428.322C375.031 424.78 385.576 426.098 395.737 426.656C422.351 428.107 448.978 424.05 473.954 414.74L475.265 414.241C481.472 411.843 488.183 411.051 494.778 411.937C501.372 412.823 507.636 415.36 512.99 419.311C517.234 422.424 521.736 425.17 526.447 427.518C534.065 431.36 539.884 438.021 542.669 446.087C545.454 454.153 544.983 462.986 541.359 470.711L541.185 471.087C537.042 480.12 533.588 490.232 525.469 495.969C517.814 501.38 507.769 501.604 498.397 501.626L440.871 501.764C434.903 501.764 428.863 501.764 423.069 500.358C417.862 499.076 413.017 496.671 408.215 494.281L382.476 481.511C372.112 476.361 360.749 471.058 349.407 473.427C337.82 475.846 329.469 485.589 319.373 491.731C303.708 501.271 282.879 501.648 266.881 492.666C259.218 488.363 252.563 482.09 244.205 479.388C230.401 474.919 215.735 481.105 201.533 484.068C173.896 489.834 141.342 481.945 120.165 462.873C92.8904 438.303 124.916 408.41 154.342 410.336Z" fill="#FC6464"/>
<path d="M433.419 3.62183H261.122C246.503 3.62183 234.652 15.4737 234.652 30.0937V434.939C234.652 449.559 246.503 461.41 261.122 461.41H433.419C448.038 461.41 459.889 449.559 459.889 434.939V30.0937C459.889 15.4737 448.038 3.62183 433.419 3.62183Z" fill="#3A3768"/>
<path d="M354.386 17.3843H327.843C326.373 17.3843 325.182 18.5846 325.182 20.0654V21.2223C325.182 22.7031 326.373 23.9034 327.843 23.9034H354.386C355.856 23.9034 357.048 22.7031 357.048 21.2223V20.0654C357.048 18.5846 355.856 17.3843 354.386 17.3843Z" fill="#E6E8EC"/>
<path d="M365.377 23.9034C367.577 23.9034 369.36 22.2819 369.36 20.2817C369.36 18.2814 367.577 16.6599 365.377 16.6599C363.177 16.6599 361.394 18.2814 361.394 20.2817C361.394 22.2819 363.177 23.9034 365.377 23.9034Z" fill="#E6E8EC"/>
<path d="M428.219 15.2114H402.381V18.319C402.381 22.2325 400.827 25.9857 398.06 28.7529C395.293 31.5202 391.54 33.0748 387.626 33.0748H305.311C303.373 33.0757 301.454 32.6946 299.664 31.9534C297.873 31.2122 296.246 30.1253 294.876 28.7549C293.506 27.3845 292.419 25.7575 291.678 23.9668C290.937 22.1762 290.556 20.257 290.556 18.319V15.2114H266.33C261.578 15.2114 257.021 17.0992 253.661 20.4594C250.301 23.8197 248.413 28.3771 248.413 33.1292V431.903C248.413 436.655 250.301 441.213 253.661 444.573C257.021 447.933 261.578 449.821 266.33 449.821H428.219C430.572 449.821 432.901 449.357 435.075 448.457C437.248 447.556 439.223 446.236 440.886 444.572C442.549 442.908 443.868 440.933 444.768 438.759C445.668 436.586 446.13 434.256 446.129 431.903V33.1292C446.13 30.7765 445.668 28.4467 444.768 26.2729C443.868 24.099 442.549 22.1237 440.886 20.4598C439.223 18.7959 437.248 17.476 435.075 16.5755C432.901 15.6749 430.572 15.2114 428.219 15.2114Z" fill="white"/>
<path d="M397.872 66.6401H297.394C295.941 66.6401 294.764 67.8285 294.764 69.2945V100.928C294.764 102.394 295.941 103.582 297.394 103.582H397.872C399.325 103.582 400.502 102.394 400.502 100.928V69.2945C400.502 67.8285 399.325 66.6401 397.872 66.6401Z" fill="#FC6464"/>
<path opacity="0.3" d="M413.084 315.092H282.907C281.456 315.092 280.279 316.28 280.279 317.746V324.751C280.279 326.217 281.456 327.406 282.907 327.406H413.084C414.535 327.406 415.711 326.217 415.711 324.751V317.746C415.711 316.28 414.535 315.092 413.084 315.092Z" fill="#FC6464"/>
<path opacity="0.3" d="M413.084 334.649H282.907C281.456 334.649 280.279 335.838 280.279 337.303V344.309C280.279 345.775 281.456 346.963 282.907 346.963H413.084C414.535 346.963 415.711 345.775 415.711 344.309V337.303C415.711 335.838 414.535 334.649 413.084 334.649Z" fill="#FC6464"/>
<path opacity="0.3" d="M413.084 353.482H282.907C281.456 353.482 280.279 354.671 280.279 356.137V363.142C280.279 364.608 281.456 365.796 282.907 365.796H413.084C414.535 365.796 415.711 364.608 415.711 363.142V356.137C415.711 354.671 414.535 353.482 413.084 353.482Z" fill="#FC6464"/>
<path opacity="0.3" d="M413.084 372.315H282.907C281.456 372.315 280.279 373.504 280.279 374.97V381.975C280.279 383.441 281.456 384.629 282.907 384.629H413.084C414.535 384.629 415.711 383.441 415.711 381.975V374.97C415.711 373.504 414.535 372.315 413.084 372.315Z" fill="#FC6464"/>
<path opacity="0.3" d="M329.075 391.148H282.904C281.455 391.148 280.279 392.337 280.279 393.803V400.808C280.279 402.274 281.455 403.462 282.904 403.462H329.075C330.525 403.462 331.7 402.274 331.7 400.808V393.803C331.7 392.337 330.525 391.148 329.075 391.148Z" fill="#FC6464"/>
<path opacity="0.3" d="M436.458 139.799H259.532C257.391 139.799 255.655 141.534 255.655 143.674V275.724C255.655 277.864 257.391 279.599 259.532 279.599H436.458C438.599 279.599 440.335 277.864 440.335 275.724V143.674C440.335 141.534 438.599 139.799 436.458 139.799Z" fill="#FC6464"/>
<path d="M49.8271 451.363C49.8271 451.363 28.7446 379.812 53.7814 327.094C64.2901 304.98 67.7809 280.156 62.9213 256.159C60.6006 244.768 57.2406 233.615 52.8834 222.839" stroke="#535461" stroke-width="2" stroke-miterlimit="10"/>
<path d="M68.4544 189.569C68.4544 198.341 52.5719 223.78 52.5719 223.78C52.5719 223.78 36.6895 198.341 36.6895 189.569C36.6895 185.356 38.3628 181.316 41.3413 178.337C44.3199 175.358 48.3596 173.684 52.5719 173.684C56.7842 173.684 60.824 175.358 63.8025 178.337C66.7811 181.316 68.4544 185.356 68.4544 189.569Z" fill="#FC6464"/>
<path d="M94.7085 238.166C89.943 245.533 62.7842 258.252 62.7842 258.252C62.7842 258.252 63.2767 228.264 68.0421 220.897C69.1758 219.146 70.6433 217.636 72.3607 216.452C74.0782 215.268 76.012 214.433 78.0517 213.997C80.0914 213.56 82.1972 213.53 84.2487 213.907C86.3002 214.285 88.2573 215.063 90.0082 216.196C91.7591 217.33 93.2696 218.798 94.4534 220.516C95.6372 222.233 96.4712 224.168 96.9076 226.208C97.3441 228.248 97.3745 230.354 96.9972 232.406C96.6199 234.457 95.8422 236.415 94.7085 238.166Z" fill="#FC6464"/>
<path d="M93.5635 321.205C85.7346 325.153 55.9033 322.43 55.9033 322.43C55.9033 322.43 71.4671 296.788 79.2961 292.84C81.1604 291.88 83.1962 291.299 85.2862 291.13C87.3761 290.961 89.4788 291.208 91.473 291.856C93.4671 292.504 95.3133 293.541 96.9049 294.906C98.4965 296.271 99.802 297.938 100.746 299.81C101.69 301.683 102.255 303.724 102.406 305.815C102.558 307.907 102.294 310.008 101.629 311.997C100.965 313.986 99.9133 315.824 98.5352 317.404C97.157 318.985 95.4797 320.277 93.5998 321.205H93.5635Z" fill="#FC6464"/>
<path d="M78.5503 383.847C71.4962 389.062 41.6143 391.424 41.6143 391.424C41.6143 391.424 52.6226 363.522 59.6694 358.307C63.059 355.86 67.2762 354.849 71.4064 355.492C75.5366 356.135 79.2469 358.38 81.7326 361.742C84.2182 365.103 85.2789 369.308 84.6845 373.447C84.0901 377.585 81.8886 381.322 78.5575 383.847H78.5503Z" fill="#FC6464"/>
<path d="M29.4401 259.947C35.7338 266.061 65.0435 272.392 65.0435 272.392C65.0435 272.392 57.8664 243.273 51.5728 237.159C48.5463 234.25 44.4914 232.657 40.2944 232.729C36.0973 232.801 32.0995 234.532 29.1747 237.544C26.2499 240.555 24.6359 244.602 24.6857 248.8C24.7354 252.998 26.4448 257.006 29.4401 259.947Z" fill="#FC6464"/>
<path d="M12.804 333.454C20.6329 337.402 50.4642 334.678 50.4642 334.678C50.4642 334.678 34.9004 309.036 27.0714 305.088C23.3304 303.359 19.0637 303.151 15.1726 304.51C11.2815 305.868 8.07076 308.686 6.21862 312.369C4.36647 316.051 4.01801 320.309 5.24683 324.244C6.47565 328.178 9.18551 331.481 12.804 333.454Z" fill="#FC6464"/>
<path d="M6.43829 407.062C13.4923 412.278 43.3743 414.639 43.3743 414.639C43.3743 414.639 32.3659 386.737 25.3191 381.522C21.9295 379.075 17.7123 378.064 13.5821 378.707C9.45189 379.35 5.74163 381.596 3.25597 384.957C0.77031 388.318 -0.290346 392.524 0.30403 396.662C0.898406 400.8 3.09989 404.537 6.43105 407.062H6.43829Z" fill="#FC6464"/>
<path opacity="0.25" d="M68.4544 189.569C68.4544 198.341 52.5719 223.78 52.5719 223.78C52.5719 223.78 36.6895 198.341 36.6895 189.569C36.6895 185.356 38.3628 181.316 41.3413 178.337C44.3199 175.358 48.3596 173.684 52.5719 173.684C56.7842 173.684 60.824 175.358 63.8025 178.337C66.7811 181.316 68.4544 185.356 68.4544 189.569Z" fill="black"/>
<path opacity="0.25" d="M94.7085 238.166C89.943 245.533 62.7842 258.252 62.7842 258.252C62.7842 258.252 63.2767 228.264 68.0421 220.897C69.1758 219.146 70.6433 217.636 72.3607 216.452C74.0782 215.268 76.012 214.433 78.0517 213.997C80.0914 213.56 82.1972 213.53 84.2487 213.907C86.3002 214.285 88.2573 215.063 90.0082 216.196C91.7591 217.33 93.2696 218.798 94.4534 220.516C95.6372 222.233 96.4712 224.168 96.9076 226.208C97.3441 228.248 97.3745 230.354 96.9972 232.406C96.6199 234.457 95.8422 236.415 94.7085 238.166Z" fill="black"/>
<path opacity="0.25" d="M93.5635 321.205C85.7346 325.153 55.9033 322.43 55.9033 322.43C55.9033 322.43 71.4671 296.788 79.2961 292.84C81.1604 291.88 83.1962 291.299 85.2862 291.13C87.3761 290.961 89.4788 291.208 91.473 291.856C93.4671 292.504 95.3133 293.541 96.9049 294.906C98.4965 296.271 99.802 297.938 100.746 299.81C101.69 301.683 102.255 303.724 102.406 305.815C102.558 307.907 102.294 310.008 101.629 311.997C100.965 313.986 99.9133 315.824 98.5352 317.404C97.157 318.985 95.4797 320.277 93.5998 321.205H93.5635Z" fill="black"/>
<path opacity="0.25" d="M78.5503 383.847C71.4962 389.062 41.6143 391.424 41.6143 391.424C41.6143 391.424 52.6226 363.522 59.6694 358.307C63.059 355.86 67.2762 354.849 71.4064 355.492C75.5366 356.135 79.2469 358.38 81.7326 361.742C84.2182 365.103 85.2789 369.308 84.6845 373.447C84.0901 377.585 81.8886 381.322 78.5575 383.847H78.5503Z" fill="black"/>
<path opacity="0.25" d="M29.4401 259.947C35.7338 266.061 65.0435 272.392 65.0435 272.392C65.0435 272.392 57.8664 243.273 51.5728 237.159C48.5463 234.25 44.4914 232.657 40.2944 232.729C36.0973 232.801 32.0995 234.532 29.1747 237.544C26.2499 240.555 24.6359 244.602 24.6857 248.8C24.7354 252.998 26.4448 257.006 29.4401 259.947Z" fill="black"/>
<path opacity="0.25" d="M12.804 333.454C20.6329 337.402 50.4642 334.678 50.4642 334.678C50.4642 334.678 34.9004 309.036 27.0714 305.088C23.3304 303.359 19.0637 303.151 15.1726 304.51C11.2815 305.868 8.07076 308.686 6.21862 312.369C4.36647 316.051 4.01801 320.309 5.24683 324.244C6.47565 328.178 9.18551 331.481 12.804 333.454Z" fill="black"/>
<path opacity="0.25" d="M6.43829 407.062C13.4923 412.278 43.3743 414.639 43.3743 414.639C43.3743 414.639 32.3659 386.737 25.3191 381.522C21.9295 379.075 17.7123 378.064 13.5821 378.707C9.45189 379.35 5.74163 381.596 3.25597 384.957C0.77031 388.318 -0.290346 392.524 0.30403 396.662C0.898406 400.8 3.09989 404.537 6.43105 407.062H6.43829Z" fill="black"/>
<path d="M434.193 252.993C431.513 231.987 439.907 210.365 434.917 189.801C431.079 173.916 419.708 160.653 415.971 144.739C410.481 121.155 423.04 96.9324 439.067 78.8237C450.09 66.3431 463.923 55.0143 480.414 52.7471C490.596 51.2984 501.062 53.5366 510.462 57.6872C520.022 61.9738 528.595 68.1849 535.648 75.9329C542.701 83.681 548.081 92.7997 551.454 102.72C553.627 109.167 554.879 115.91 557.552 122.161C562.151 132.933 570.588 141.625 575.839 152.099C579.338 159.194 581.317 166.942 581.649 174.846C581.981 182.751 580.658 190.637 577.765 198.001C571.689 213.169 558.935 225.859 557.052 242.092C555.683 253.79 560.072 266.604 554.372 276.911C550.071 284.691 541.213 288.617 532.826 291.558C513.316 298.367 486.041 309.377 466.487 298.895C449.38 289.732 436.67 272.384 434.193 252.993Z" fill="#FC6464"/>
<path d="M488.938 267.922C488.938 267.922 517.662 256.333 521.283 249.813C524.904 243.294 529.974 204.904 529.974 204.904" stroke="#333333" stroke-width="3" stroke-miterlimit="10"/>
<path d="M488.663 445.402V195.502" stroke="#333333" stroke-width="3" stroke-miterlimit="10"/>
<path d="M517.48 252.993C514.8 231.987 523.194 210.365 518.204 189.801C514.366 173.916 502.995 160.653 499.258 144.739C493.769 121.155 506.327 96.9324 522.354 78.8237C533.377 66.3431 547.21 55.0143 563.701 52.7471C573.883 51.2984 584.349 53.5366 593.749 57.6872C603.309 61.9738 611.882 68.1849 618.935 75.9329C625.988 83.681 631.369 92.7996 634.741 102.72C636.914 109.167 638.167 115.91 640.839 122.161C645.438 132.933 653.875 141.625 659.126 152.099C662.626 159.199 664.604 166.953 664.932 174.863C665.26 182.773 663.931 190.664 661.031 198.03C654.954 213.198 642.201 225.888 640.318 242.121C638.949 253.819 643.338 266.633 637.638 276.94C633.336 284.72 624.479 288.646 616.092 291.587C596.603 298.367 569.328 309.377 549.774 298.895C532.667 289.732 519.957 272.384 517.48 252.993Z" fill="#FC6464"/>
<path opacity="0.2" d="M517.48 252.993C514.8 231.987 523.194 210.365 518.204 189.801C514.366 173.916 502.995 160.653 499.258 144.739C493.769 121.155 506.327 96.9324 522.354 78.8237C533.377 66.3431 547.21 55.0143 563.701 52.7471C573.883 51.2984 584.349 53.5366 593.749 57.6872C603.309 61.9738 611.882 68.1849 618.935 75.9329C625.988 83.681 631.369 92.7996 634.741 102.72C636.914 109.167 638.167 115.91 640.839 122.161C645.438 132.933 653.875 141.625 659.126 152.099C662.626 159.199 664.604 166.953 664.932 174.863C665.26 182.773 663.931 190.664 661.031 198.03C654.954 213.198 642.201 225.888 640.318 242.121C638.949 253.819 643.338 266.633 637.638 276.94C633.336 284.72 624.479 288.646 616.092 291.587C596.603 298.367 569.328 309.377 549.774 298.895C532.667 289.732 519.957 272.384 517.48 252.993Z" fill="black"/>
<path d="M572.226 267.922C572.226 267.922 600.949 256.333 604.57 249.813C608.191 243.294 613.261 204.904 613.261 204.904" stroke="#333333" stroke-width="3" stroke-miterlimit="10"/>
<path d="M571.95 445.402V195.502" stroke="#333333" stroke-width="3" stroke-miterlimit="10"/>
<path d="M102.443 480.497C102.443 480.497 93.2309 449.212 104.167 426.171C108.817 416.544 110.22 405.668 108.165 395.176C107.149 390.201 105.68 385.33 103.776 380.624" stroke="#535461" stroke-width="2" stroke-miterlimit="10"/>
<path d="M110.583 366.093C110.583 369.925 103.645 381.044 103.645 381.044C103.645 381.044 96.707 369.925 96.707 366.093C96.707 364.252 97.4384 362.486 98.7402 361.184C100.042 359.882 101.808 359.15 103.649 359.15C105.49 359.15 107.256 359.882 108.557 361.184C109.859 362.486 110.591 364.252 110.591 366.093H110.583Z" fill="#FC6464"/>
<path d="M122.062 387.331C119.976 390.547 108.113 396.11 108.113 396.11C108.113 396.11 108.331 383.007 110.409 379.783C111.41 378.238 112.983 377.153 114.784 376.768C116.584 376.383 118.464 376.729 120.009 377.73C121.554 378.731 122.639 380.305 123.024 382.105C123.409 383.906 123.063 385.786 122.062 387.331Z" fill="#FC6464"/>
<path d="M121.555 423.621C118.13 425.345 105.079 424.157 105.079 424.157C105.079 424.157 111.88 412.951 115.305 411.227C116.119 410.817 117.005 410.571 117.914 410.503C118.823 410.435 119.736 410.547 120.602 410.832C121.467 411.117 122.268 411.57 122.959 412.165C123.649 412.76 124.216 413.485 124.626 414.298C125.037 415.112 125.283 415.999 125.35 416.908C125.418 417.817 125.306 418.73 125.021 419.596C124.736 420.461 124.283 421.262 123.689 421.953C123.094 422.644 122.369 423.21 121.555 423.621Z" fill="#FC6464"/>
<path d="M114.994 450.994C111.909 453.276 98.8506 454.305 98.8506 454.305C98.8506 454.305 103.66 442.114 106.745 439.818C108.225 438.723 110.079 438.26 111.9 438.533C113.72 438.805 115.358 439.79 116.453 441.27C117.548 442.75 118.01 444.605 117.738 446.426C117.465 448.247 116.481 449.885 115.001 450.98L114.994 450.994Z" fill="#FC6464"/>
<path d="M93.506 396.856C96.2581 399.529 109.063 402.296 109.063 402.296C109.063 402.296 105.927 389.569 103.175 386.896C102.521 386.261 101.748 385.761 100.901 385.425C100.054 385.089 99.1491 384.923 98.2378 384.936C97.3266 384.95 96.4269 385.142 95.5902 385.504C94.7534 385.865 93.996 386.387 93.3611 387.041C92.7263 387.695 92.2265 388.468 91.8902 389.315C91.5539 390.162 91.3877 391.067 91.4011 391.979C91.4146 392.89 91.6074 393.79 91.9686 394.627C92.3297 395.464 92.8521 396.221 93.506 396.856Z" fill="#FC6464"/>
<path d="M86.2635 428.959C89.6891 430.683 102.74 429.496 102.74 429.496C102.74 429.496 95.9393 418.29 92.5136 416.566C90.8704 415.737 88.9652 415.595 87.2172 416.171C85.4692 416.747 84.0215 417.994 83.1927 419.637C82.3639 421.281 82.2218 423.186 82.7977 424.934C83.3736 426.683 84.6203 428.131 86.2635 428.959Z" fill="#FC6464"/>
<path d="M83.4825 461.142C86.5677 463.424 99.6257 464.452 99.6257 464.452C99.6257 464.452 94.8167 452.262 91.7315 449.965C90.2515 448.87 88.3973 448.408 86.5766 448.681C84.7559 448.953 83.118 449.938 82.0231 451.418C80.9283 452.898 80.4662 454.753 80.7385 456.574C81.0108 458.395 81.9952 460.033 83.4752 461.128L83.4825 461.142Z" fill="#FC6464"/>
<path opacity="0.25" d="M110.583 366.093C110.583 369.925 103.645 381.044 103.645 381.044C103.645 381.044 96.707 369.925 96.707 366.093C96.707 364.252 97.4384 362.486 98.7402 361.184C100.042 359.882 101.808 359.15 103.649 359.15C105.49 359.15 107.256 359.882 108.557 361.184C109.859 362.486 110.591 364.252 110.591 366.093H110.583Z" fill="black"/>
<path opacity="0.25" d="M122.062 387.331C119.976 390.547 108.113 396.11 108.113 396.11C108.113 396.11 108.331 383.007 110.409 379.783C111.41 378.238 112.983 377.153 114.784 376.768C116.584 376.383 118.464 376.729 120.009 377.73C121.554 378.731 122.639 380.305 123.024 382.105C123.409 383.906 123.063 385.786 122.062 387.331Z" fill="black"/>
<path opacity="0.25" d="M121.555 423.621C118.13 425.345 105.079 424.157 105.079 424.157C105.079 424.157 111.88 412.951 115.305 411.227C116.119 410.817 117.005 410.571 117.914 410.503C118.823 410.435 119.736 410.547 120.602 410.832C121.467 411.117 122.268 411.57 122.959 412.165C123.649 412.76 124.216 413.485 124.626 414.298C125.037 415.112 125.283 415.999 125.35 416.908C125.418 417.817 125.306 418.73 125.021 419.596C124.736 420.461 124.283 421.262 123.689 421.953C123.094 422.644 122.369 423.21 121.555 423.621Z" fill="black"/>
<path opacity="0.25" d="M114.994 450.994C111.909 453.276 98.8506 454.305 98.8506 454.305C98.8506 454.305 103.66 442.114 106.745 439.818C108.225 438.723 110.079 438.26 111.9 438.533C113.72 438.805 115.358 439.79 116.453 441.27C117.548 442.75 118.01 444.605 117.738 446.426C117.465 448.247 116.481 449.885 115.001 450.98L114.994 450.994Z" fill="black"/>
<path opacity="0.25" d="M93.506 396.856C96.2581 399.529 109.063 402.296 109.063 402.296C109.063 402.296 105.927 389.569 103.175 386.896C102.521 386.261 101.748 385.761 100.901 385.425C100.054 385.089 99.1491 384.923 98.2378 384.936C97.3266 384.95 96.4269 385.142 95.5902 385.504C94.7534 385.865 93.996 386.387 93.3611 387.041C92.7263 387.695 92.2265 388.468 91.8902 389.315C91.5539 390.162 91.3877 391.067 91.4011 391.979C91.4146 392.89 91.6074 393.79 91.9686 394.627C92.3297 395.464 92.8521 396.221 93.506 396.856Z" fill="black"/>
<path opacity="0.25" d="M86.2635 428.959C89.6891 430.683 102.74 429.496 102.74 429.496C102.74 429.496 95.9393 418.29 92.5136 416.566C90.8704 415.737 88.9652 415.595 87.2172 416.171C85.4692 416.747 84.0215 417.994 83.1927 419.637C82.3639 421.281 82.2218 423.186 82.7977 424.934C83.3736 426.683 84.6203 428.131 86.2635 428.959Z" fill="black"/>
<path opacity="0.25" d="M83.4825 461.142C86.5677 463.424 99.6257 464.452 99.6257 464.452C99.6257 464.452 94.8167 452.262 91.7315 449.965C90.2515 448.87 88.3973 448.408 86.5766 448.681C84.7559 448.953 83.118 449.938 82.0231 451.418C80.9283 452.898 80.4662 454.753 80.7385 456.574C81.0108 458.395 81.9952 460.033 83.4752 461.128L83.4825 461.142Z" fill="black"/>
<path d="M612.826 462.794C612.826 462.794 601.412 424.041 614.999 395.516C620.756 383.591 622.492 370.121 619.946 357.126C618.687 350.965 616.866 344.933 614.507 339.104" stroke="#535461" stroke-width="2" stroke-miterlimit="10"/>
<path d="M622.922 321.053C622.922 325.805 614.325 339.575 614.325 339.575C614.325 339.575 605.729 325.812 605.729 321.053C605.729 318.772 606.635 316.584 608.247 314.971C609.86 313.358 612.048 312.452 614.329 312.452C616.61 312.452 618.797 313.358 620.41 314.971C622.023 316.584 622.929 318.772 622.929 321.053H622.922Z" fill="#FC6464"/>
<path d="M637.124 347.362C634.546 351.345 619.844 358.227 619.844 358.227C619.844 358.227 620.112 341.994 622.69 338.003C623.93 336.089 625.879 334.745 628.109 334.268C630.34 333.792 632.668 334.22 634.582 335.46C636.496 336.701 637.839 338.65 638.316 340.881C638.793 343.111 638.364 345.44 637.124 347.354V347.362Z" fill="#FC6464"/>
<path d="M636.509 392.322C632.272 394.495 616.1 392.981 616.1 392.981C616.1 392.981 624.522 379.103 628.766 376.959C630.803 375.932 633.163 375.756 635.329 376.47C637.494 377.184 639.288 378.729 640.314 380.765C641.341 382.801 641.517 385.162 640.803 387.328C640.089 389.494 638.545 391.288 636.509 392.315V392.322Z" fill="#FC6464"/>
<path d="M628.375 426.236C624.559 429.061 608.372 430.336 608.372 430.336C608.372 430.336 614.333 415.233 618.149 412.408C619.983 411.052 622.28 410.48 624.535 410.817C626.79 411.155 628.819 412.375 630.175 414.208C631.531 416.042 632.103 418.339 631.766 420.595C631.428 422.851 630.209 424.88 628.375 426.236Z" fill="#FC6464"/>
<path d="M601.788 359.161C605.192 362.471 621.067 365.898 621.067 365.898C621.067 365.898 617.178 350.129 613.774 346.825C612.125 345.328 609.958 344.529 607.731 344.598C605.504 344.666 603.391 345.597 601.836 347.194C600.282 348.791 599.408 350.929 599.399 353.157C599.391 355.385 600.247 357.53 601.788 359.139V359.161Z" fill="#FC6464"/>
<path d="M592.786 398.942C597.023 401.115 613.195 399.601 613.195 399.601C613.195 399.601 604.772 385.723 600.528 383.579C599.52 383.07 598.422 382.766 597.296 382.682C596.17 382.598 595.038 382.737 593.966 383.09C592.894 383.444 591.902 384.005 591.046 384.742C590.191 385.479 589.489 386.377 588.98 387.385C588.472 388.394 588.167 389.492 588.083 390.618C587.999 391.744 588.138 392.876 588.492 393.949C588.845 395.021 589.406 396.013 590.143 396.869C590.88 397.725 591.778 398.427 592.786 398.935V398.942Z" fill="#FC6464"/>
<path d="M589.339 438.803C593.155 441.628 609.342 442.903 609.342 442.903C609.342 442.903 603.382 427.801 599.565 424.976C597.732 423.619 595.435 423.047 593.179 423.385C590.924 423.722 588.895 424.942 587.539 426.776C586.183 428.609 585.611 430.907 585.948 433.162C586.286 435.418 587.505 437.447 589.339 438.803Z" fill="#FC6464"/>
<path opacity="0.5" d="M622.922 321.053C622.922 325.805 614.325 339.575 614.325 339.575C614.325 339.575 605.729 325.812 605.729 321.053C605.729 318.772 606.635 316.584 608.247 314.971C609.86 313.358 612.048 312.452 614.329 312.452C616.61 312.452 618.797 313.358 620.41 314.971C622.023 316.584 622.929 318.772 622.929 321.053H622.922Z" fill="white"/>
<path opacity="0.5" d="M637.124 347.362C634.546 351.345 619.844 358.227 619.844 358.227C619.844 358.227 620.112 341.994 622.69 338.003C623.93 336.089 625.879 334.745 628.109 334.268C630.34 333.792 632.668 334.22 634.582 335.46C636.496 336.701 637.839 338.65 638.316 340.881C638.793 343.111 638.364 345.44 637.124 347.354V347.362Z" fill="white"/>
<path opacity="0.5" d="M636.509 392.322C632.272 394.495 616.1 392.981 616.1 392.981C616.1 392.981 624.522 379.103 628.766 376.959C630.803 375.932 633.163 375.756 635.329 376.47C637.494 377.184 639.288 378.729 640.314 380.765C641.341 382.801 641.517 385.162 640.803 387.328C640.089 389.494 638.545 391.288 636.509 392.315V392.322Z" fill="white"/>
<path opacity="0.5" d="M628.375 426.236C624.559 429.061 608.372 430.336 608.372 430.336C608.372 430.336 614.333 415.233 618.149 412.408C619.983 411.052 622.28 410.48 624.535 410.817C626.79 411.155 628.819 412.375 630.175 414.208C631.531 416.042 632.103 418.339 631.766 420.595C631.428 422.851 630.209 424.88 628.375 426.236Z" fill="white"/>
<path opacity="0.5" d="M601.788 359.161C605.192 362.471 621.067 365.898 621.067 365.898C621.067 365.898 617.178 350.129 613.774 346.825C612.125 345.328 609.958 344.529 607.731 344.598C605.504 344.666 603.391 345.597 601.836 347.194C600.282 348.791 599.408 350.929 599.399 353.157C599.391 355.385 600.247 357.53 601.788 359.139V359.161Z" fill="white"/>
<path opacity="0.5" d="M592.786 398.942C597.023 401.115 613.195 399.601 613.195 399.601C613.195 399.601 604.772 385.723 600.528 383.579C599.52 383.07 598.422 382.766 597.296 382.682C596.17 382.598 595.038 382.737 593.966 383.09C592.894 383.444 591.902 384.005 591.046 384.742C590.191 385.479 589.489 386.377 588.98 387.385C588.472 388.394 588.167 389.492 588.083 390.618C587.999 391.744 588.138 392.876 588.492 393.949C588.845 395.021 589.406 396.013 590.143 396.869C590.88 397.725 591.778 398.427 592.786 398.935V398.942Z" fill="white"/>
<path opacity="0.5" d="M589.339 438.803C593.155 441.628 609.342 442.903 609.342 442.903C609.342 442.903 603.382 427.801 599.565 424.976C597.732 423.619 595.435 423.047 593.179 423.385C590.924 423.722 588.895 424.942 587.539 426.776C586.183 428.609 585.611 430.907 585.948 433.162C586.286 435.418 587.505 437.447 589.339 438.803Z" fill="white"/>
<path d="M249.941 195.726V199.913L232.284 188.758L234.145 186.433L235.007 186.94L248.674 166.912V155.264L253.881 155.728V153.866C267.641 138.061 269.025 155.728 266.193 160.842C263.361 165.956 258.147 169.672 258.147 169.672C255.25 172.105 250.18 190.504 248.956 195.118L249.941 195.726Z" fill="url(#paint0_linear)"/>
<path d="M116.066 232.226C116.066 232.226 129.544 258.6 125.358 284.973C123.953 293.839 124.54 299.258 125.945 302.561C125.558 306.131 124.579 309.612 123.048 312.861C117.935 323.552 117.935 334.707 124.438 347.724L126.3 415.088C126.3 415.088 128.624 446.692 126.3 453.203C123.975 459.715 127.227 490.87 127.227 490.87H126.763V508.066L161.584 509C161.584 509 169.747 505.125 171.195 502.227L188.693 507.609C188.693 507.609 207.95 504.292 196.659 499.699C188.251 496.28 186.165 491.391 185.643 489.131L213.164 409.989C213.164 409.989 208.051 342.624 189.46 319.351L187.577 305.646H187.838L191.785 225.628L192.111 225.671H192.017C202.193 227.297 212.574 227.138 222.695 225.2C225.731 224.66 228.707 223.828 231.582 222.716L232.11 222.506H232.168H232.219C234.373 221.623 236.403 220.464 238.259 219.058L249.847 201.304L232.19 189.135L226.15 197.755C226.15 197.755 207.226 193.756 196.833 189.54C191.995 187.565 186.846 186.459 181.624 186.274L170.275 185.882L164.619 182.485L166.386 177.915C166.56 177.835 166.734 177.755 166.908 177.661L167.067 176.683C174.042 174.951 180.044 170.519 183.753 164.361C187.462 158.204 188.575 150.826 186.846 143.849H187.215C187.056 134.432 184.173 133.512 184.173 133.512C184.173 123.936 175.808 116.932 166.277 116.128C161.342 115.788 156.384 116.223 151.583 117.417C148.138 118.24 145.034 120.111 142.699 122.774C140.364 125.436 138.913 128.758 138.546 132.281C126.097 135.707 130.268 142.226 130.073 144.725C129.117 156.894 132.97 164.087 137.243 168.281C139.052 170.171 141.177 171.73 143.522 172.888L140.806 178.328H140.009L137.793 184.847H137.685L135.266 186.411C127.962 191.357 122.256 198.324 118.847 206.46C115.437 214.596 114.471 223.55 116.066 232.226ZM153.241 490.87V469.958L162.07 408.142V376.531L177.88 409.511L160.86 481.047L159.969 480.801L156.051 494.882C154.774 493.821 153.805 492.435 153.248 490.87H153.241Z" fill="url(#paint1_linear)"/>
<path d="M246.399 161.443V172.605L233.103 192.09L246.399 200.746C246.399 200.746 252.309 177.973 255.496 175.292C255.496 175.292 260.5 171.721 263.223 166.81C265.947 161.899 264.585 144.928 251.397 160.11V161.899L246.399 161.443Z" fill="#FDA57D"/>
<path d="M140.53 188.07L145.795 177.538C145.949 177.228 146.182 176.965 146.471 176.776C146.76 176.586 147.094 176.477 147.439 176.459L167.435 175.437C167.76 175.42 168.085 175.485 168.378 175.625C168.672 175.765 168.926 175.977 169.117 176.24C169.307 176.504 169.429 176.811 169.471 177.134C169.512 177.457 169.473 177.785 169.355 178.088L164.198 191.424C164.046 191.818 163.769 192.153 163.41 192.376C163.05 192.6 162.628 192.7 162.206 192.662L142.109 190.873C141.793 190.846 141.489 190.742 141.222 190.57C140.956 190.399 140.735 190.164 140.58 189.888C140.424 189.612 140.339 189.302 140.33 188.985C140.321 188.668 140.39 188.354 140.53 188.07Z" fill="#FDA57D"/>
<path d="M142.008 183.55L138.611 193.51L173.491 192.257L160.092 184.216L142.008 183.55Z" fill="#EDEEF9"/>
<path d="M230.647 193.597L232.429 191.366L247.609 200.297V204.317L230.647 193.597Z" fill="#EDEEF9"/>
<path d="M128.067 292.398C129.468 299.289 128.643 306.447 125.713 312.839C120.803 323.11 120.803 333.845 127.053 346.333L128.842 411.09C128.842 411.09 131.072 441.462 128.842 447.713C126.611 453.964 129.718 483.894 129.718 483.894H154.726V463.793L163.207 404.397V374.018L178.416 405.73L161.034 478.976L183.804 488.356L212.382 406.179C212.382 406.179 207.428 341.422 189.569 319.097L186.208 294.752L128.067 292.398Z" fill="#CEDDF9"/>
<path d="M129.283 500.416V483.894H154.733C154.733 483.894 156.522 490.594 168.131 491.934C179.741 493.274 162.772 501.315 162.772 501.315L129.283 500.416Z" fill="#333333"/>
<path d="M156.775 490.131L161.208 474.195L185.73 481.026C185.73 481.026 185.651 487.958 196.478 492.362C207.305 496.766 188.801 499.96 188.801 499.96L156.775 490.131Z" fill="#333333"/>
<path opacity="0.1" d="M186.208 296.092L128.06 293.738C128.78 297.206 128.929 300.768 128.501 304.285C131.159 310.543 136.866 308.833 136.866 308.833L187.744 307.269L186.208 296.092Z" fill="black"/>
<path d="M139.777 189.801L137.459 191.373C130.446 196.124 124.968 202.814 121.692 210.627C118.416 218.44 117.486 227.037 119.013 235.37C119.013 235.37 131.963 260.722 127.943 286.075C123.924 311.427 136.873 307.515 136.873 307.515L188.004 305.943L191.799 229.054C191.799 229.054 222.608 233.436 236.455 222.716L247.616 205.657L230.647 193.945L224.853 202.231C224.853 202.231 206.667 198.392 196.68 194.336C192.022 192.435 187.064 191.373 182.036 191.199L139.777 189.801Z" fill="#4D4981"/>
<path opacity="0.1" d="M140.226 313.513C140.226 313.513 137.097 329.144 154.964 355.047L140.226 313.513Z" fill="black"/>
<path opacity="0.1" d="M192.002 229.104C192.002 229.104 213.432 221.962 222.811 221.962C232.19 221.962 230.625 226.011 230.625 226.011C230.625 226.011 215.692 232.675 192.002 229.104Z" fill="black"/>
<path opacity="0.1" d="M167.719 176.343L159.187 177.364C158.919 177.364 158.673 177.734 158.528 178.262C160.404 181.645 162.751 183.659 165.3 183.659C166.21 183.645 167.101 183.395 167.885 182.934L168.537 178.987C168.755 177.676 168.32 176.27 167.719 176.343Z" fill="black"/>
<path d="M161.765 182.76C176.149 182.76 187.809 171.099 187.809 156.713C187.809 142.327 176.149 130.665 161.765 130.665C147.382 130.665 135.722 142.327 135.722 156.713C135.722 171.099 147.382 182.76 161.765 182.76Z" fill="#FDA57D"/>
<path opacity="0.1" d="M183.919 141.965L182.587 143.168C182.028 143.679 181.608 144.323 181.364 145.039C181.12 145.756 181.061 146.523 181.191 147.268C181.322 148.014 181.638 148.715 182.111 149.306C182.584 149.897 183.199 150.359 183.897 150.65C183.897 150.65 172.23 162.319 170.608 164.485C168.985 166.651 170.876 172.352 170.876 172.352C170.876 172.352 176.032 181.848 148.902 179.675C148.902 179.675 130.999 175.879 132.897 151.729C133.085 149.31 129.102 143.037 141.037 139.792C141.395 136.402 142.798 133.208 145.052 130.651C147.306 128.094 150.299 126.302 153.617 125.523C158.231 124.375 162.996 123.957 167.74 124.284C172.159 124.672 176.273 126.703 179.269 129.977C182.264 133.25 183.923 137.528 183.919 141.965Z" fill="black"/>
<path d="M184.484 140.545C184.484 140.545 187.251 141.4 187.381 150.476L183.449 150.208C183.449 150.208 174.352 174.546 175.308 171.374C178.835 159.704 171.781 161.877 170.152 164.05C168.522 166.223 170.42 171.917 170.42 171.917C170.42 171.917 175.576 181.413 148.446 179.24C148.446 179.24 130.543 175.444 132.441 151.295C132.629 148.875 128.646 142.602 140.581 139.357C140.936 135.969 142.335 132.775 144.585 130.217C146.835 127.659 149.824 125.864 153.139 125.08C157.753 123.933 162.519 123.515 167.262 123.842C176.445 124.617 184.484 131.361 184.484 140.545Z" fill="#72351C"/>
<defs>
<linearGradient id="paint0_linear" x1="-24718.5" y1="19807.6" x2="-24718.5" y2="16007.7" gradientUnits="userSpaceOnUse">
<stop stop-color="#808080" stop-opacity="0.25"/>
<stop offset="0.54" stop-color="#808080" stop-opacity="0.12"/>
<stop offset="1" stop-color="#808080" stop-opacity="0.1"/>
</linearGradient>
<linearGradient id="paint1_linear" x1="-108278" y1="315034" x2="-108278" y2="101828" gradientUnits="userSpaceOnUse">
<stop stop-color="#808080" stop-opacity="0.25"/>
<stop offset="0.54" stop-color="#808080" stop-opacity="0.12"/>
<stop offset="1" stop-color="#808080" stop-opacity="0.1"/>
</linearGradient>
</defs>
</svg>
