<svg width="705" height="590" viewBox="0 0 705 590" fill="none" xmlns="http://www.w3.org/2000/svg">
<g clip-path="url(#clip0)">
<path opacity="0.1" d="M71.4477 17.6899C44.9369 22.4292 14.4943 30.8749 3.76967 56.842C-6.03066 80.5824 5.47152 107.326 13.2105 131.894C20.8371 156.15 24.7931 181.406 24.9475 206.829C25.1455 242.59 18.1694 280.299 32.3417 312.792C48.3333 349.454 87.9087 370.66 101.78 408.237C107.597 423.993 108.302 441.236 111.074 457.886C117.222 494.782 134.013 529.627 158.66 556.62C175.048 574.566 196.387 589.626 220.022 589.985C237.951 590.264 254.881 582.14 271.489 575.028C290.864 566.733 310.723 559.615 330.958 553.712C339.482 551.229 348.263 548.943 357.08 549.72C374.069 551.185 388.242 563.637 404.365 569.497C448.063 585.319 493.236 550.936 539.34 547.31C578.864 544.197 618.564 564.04 657.399 555.756C663.12 554.532 669.238 552.313 672.239 547.039C677.205 538.3 671.043 526.206 675.459 517.145C679.875 508.084 691.795 507.147 698.793 500.254C705.916 493.237 706.496 481.121 702.865 471.591C699.233 462.061 692.228 454.473 685.494 447.052C652.163 410.298 621.475 371.236 593.66 330.16C565.286 288.268 538.731 238.993 546.712 188.223C549.47 170.753 556.248 154.221 559.322 136.809C562.396 119.398 561.134 99.6787 549.859 86.5376C543.125 78.6852 533.677 74.151 524.507 69.8293C438.989 29.5198 347.361 -11.7567 254.771 3.50134C239.696 5.98451 224.776 9.96932 209.525 10.5114C187.452 11.3025 166.678 1.45033 145.119 4.65136C120.64 8.26259 95.9045 13.3168 71.4477 17.6899Z" fill="#FC6464"/>
<path d="M139.089 125.148C139.089 125.148 108.918 108.608 99.9685 83.2707C96.2857 72.6163 89.2405 63.4427 79.891 57.1278C75.4294 54.1632 70.7051 51.6132 65.7773 49.5098" stroke="#535461" stroke-width="2" stroke-miterlimit="10"/>
<path d="M60.0563 33.5778C62.9098 36.4419 65.9834 49.9126 65.9834 49.9126C65.9834 49.9126 52.5153 46.7628 49.6617 43.8914C48.4016 42.4941 47.7279 40.6663 47.7802 38.7866C47.8324 36.9068 48.6066 35.1192 49.9424 33.7938C51.2783 32.4683 53.0734 31.7067 54.9561 31.6665C56.8388 31.6263 58.6649 32.3106 60.0563 33.5778Z" fill="#F65252"/>
<path d="M84.4477 40.9248C85.284 44.8803 80.5379 57.8529 80.5379 57.8529C80.5379 57.8529 70.9503 47.8982 70.114 43.9354C69.8089 42.075 70.2339 40.1687 71.3005 38.6132C72.367 37.0577 73.9932 35.9727 75.8405 35.584C77.6878 35.1952 79.6141 35.5326 81.2186 36.526C82.8232 37.5194 83.9824 39.0923 84.4551 40.9175L84.4477 40.9248Z" fill="#F65252"/>
<path d="M111.075 68.4228C109.799 72.2538 99.1405 81.0658 99.1405 81.0658C99.1405 81.0658 95.8982 67.639 97.1746 63.8007C97.7884 61.9552 99.1113 60.4287 100.852 59.557C102.593 58.6854 104.609 58.5401 106.458 59.153C108.306 59.7659 109.835 61.0869 110.708 62.8253C111.58 64.5638 111.726 66.5772 111.112 68.4228H111.075Z" fill="#FC6464"/>
<path d="M126.56 93.7602C125.952 97.7523 116.936 108.234 116.936 108.234C116.936 108.234 111.464 95.5475 112.073 91.5554C112.174 90.5688 112.475 89.613 112.958 88.746C113.44 87.8791 114.094 87.1189 114.879 86.5117C115.664 85.9045 116.565 85.4629 117.526 85.2137C118.488 84.9644 119.49 84.9126 120.472 85.0616C121.453 85.2105 122.395 85.557 123.239 86.0801C124.083 86.6032 124.811 87.292 125.381 88.1046C125.95 88.9173 126.348 89.837 126.551 90.8079C126.754 91.7788 126.757 92.7807 126.56 93.7529V93.7602Z" fill="#FC6464"/>
<path d="M70.1802 69.2432C74.2294 69.1993 85.8783 61.7424 85.8783 61.7424C85.8783 61.7424 74.0607 54.5639 70.0115 54.6079C68.066 54.6302 66.209 55.4234 64.8491 56.8129C63.4893 58.2024 62.7379 60.0744 62.7603 62.0171C62.7826 63.9598 63.5769 65.8141 64.9684 67.172C66.36 68.5299 68.2347 69.2802 70.1802 69.2579V69.2432Z" fill="#F65252"/>
<path d="M88.628 98.6458C92.4718 97.3933 101.355 86.8013 101.355 86.8013C101.355 86.8013 87.9238 83.4831 84.0799 84.7357C82.2989 85.3906 80.8413 86.7094 80.0136 88.4149C79.1859 90.1205 79.0524 92.08 79.6412 93.8817C80.23 95.6835 81.4952 97.1872 83.171 98.077C84.8469 98.9668 86.8028 99.1733 88.628 98.6532V98.6458Z" fill="#F65252"/>
<path d="M110.489 124.767C114.494 124.181 125.042 115.244 125.042 115.244C125.042 115.244 112.367 109.707 108.369 110.293C107.384 110.394 106.43 110.693 105.564 111.173C104.699 111.652 103.939 112.301 103.331 113.081C102.723 113.861 102.28 114.756 102.028 115.712C101.775 116.667 101.719 117.664 101.863 118.642C102.006 119.62 102.347 120.559 102.863 121.402C103.38 122.245 104.062 122.975 104.869 123.548C105.675 124.121 106.59 124.525 107.557 124.736C108.524 124.946 109.524 124.96 110.496 124.774L110.489 124.767Z" fill="#FC6464"/>
<path d="M111.948 226.233C111.948 226.233 81.7772 209.693 72.8278 184.356C69.1451 173.702 62.0999 164.528 52.7504 158.213C48.2888 155.248 43.5644 152.698 38.6367 150.595" stroke="#535461" stroke-width="2" stroke-miterlimit="10"/>
<path d="M32.9156 134.663C35.7692 137.527 38.8428 150.998 38.8428 150.998C38.8428 150.998 25.3747 147.848 22.5211 144.976C21.261 143.579 20.5873 141.751 20.6395 139.872C20.6918 137.992 21.466 136.204 22.8018 134.879C24.1376 133.553 25.9328 132.792 27.8155 132.751C29.6982 132.711 31.5243 133.396 32.9156 134.663Z" fill="#F65252"/>
<path d="M57.3052 142.01C58.1414 145.965 53.3953 158.938 53.3953 158.938C53.3953 158.938 43.8077 148.983 42.9715 145.021C42.6663 143.16 43.0913 141.254 44.1579 139.698C45.2245 138.143 46.8506 137.058 48.6979 136.669C50.5452 136.28 52.4715 136.618 54.0761 137.611C55.6806 138.605 56.8398 140.178 57.3125 142.003L57.3052 142.01Z" fill="#F65252"/>
<path d="M83.9329 169.508C82.6565 173.339 71.9979 182.151 71.9979 182.151C71.9979 182.151 68.7556 168.724 70.032 164.886C70.3359 163.972 70.8171 163.127 71.4481 162.399C72.0791 161.671 72.8476 161.074 73.7096 160.642C74.5716 160.211 75.5103 159.953 76.4721 159.884C77.4339 159.814 78.4 159.935 79.3152 160.238C80.2303 160.542 81.0766 161.022 81.8058 161.652C82.535 162.282 83.1328 163.05 83.565 163.911C83.9972 164.771 84.2554 165.709 84.3248 166.669C84.3942 167.63 84.2735 168.594 83.9696 169.508H83.9329Z" fill="#F65252"/>
<path d="M99.4198 194.845C98.811 198.837 89.7955 209.319 89.7955 209.319C89.7955 209.319 84.3232 196.632 84.932 192.64C85.0335 191.654 85.3345 190.698 85.8169 189.831C86.2993 188.964 86.9529 188.204 87.7383 187.597C88.5236 186.99 89.4242 186.548 90.3856 186.299C91.3469 186.049 92.3489 185.998 93.3309 186.147C94.3128 186.295 95.2543 186.642 96.0981 187.165C96.942 187.688 97.6707 188.377 98.24 189.19C98.8094 190.002 99.2075 190.922 99.4103 191.893C99.6131 192.864 99.6163 193.866 99.4198 194.838V194.845Z" fill="#F65252"/>
<path d="M43.0376 170.328C47.0868 170.284 58.7357 162.828 58.7357 162.828C58.7357 162.828 46.9181 155.649 42.8689 155.693C40.9234 155.715 39.0664 156.509 37.7066 157.898C36.3467 159.288 35.5953 161.16 35.6177 163.102C35.64 165.045 36.4344 166.899 37.8259 168.257C39.2174 169.615 41.0921 170.365 43.0376 170.343V170.328Z" fill="#F65252"/>
<path d="M61.4858 199.731C65.3296 198.478 74.213 187.886 74.213 187.886C74.213 187.886 60.7815 184.568 56.9377 185.821C55.9892 186.091 55.1049 186.549 54.338 187.169C53.571 187.788 52.937 188.556 52.4739 189.426C52.0108 190.295 51.7281 191.249 51.6427 192.231C51.5574 193.212 51.6711 194.2 51.9771 195.137C52.2831 196.073 52.7751 196.938 53.4237 197.68C54.0723 198.423 54.8641 199.027 55.7517 199.456C56.6394 199.886 57.6047 200.132 58.59 200.18C59.5752 200.229 60.5601 200.078 61.4858 199.738V199.731Z" fill="#F65252"/>
<path d="M83.346 225.852C87.3513 225.266 97.8998 216.329 97.8998 216.329C97.8998 216.329 85.2239 210.792 81.2261 211.378C80.2414 211.479 79.2876 211.778 78.4218 212.257C77.5561 212.737 76.7964 213.386 76.1886 214.166C75.5808 214.946 75.1373 215.841 74.885 216.797C74.6326 217.752 74.5766 218.749 74.7202 219.727C74.8639 220.705 75.2043 221.644 75.7209 222.487C76.2375 223.33 76.9196 224.06 77.7262 224.633C78.5328 225.206 79.4472 225.61 80.4142 225.821C81.3813 226.031 82.3811 226.044 83.3534 225.859L83.346 225.852Z" fill="#F65252"/>
<path d="M461.707 3.10838e-05H120.919C116.819 -0.00574459 112.758 0.794907 108.968 2.35628C105.178 3.91764 101.733 6.20915 98.8296 9.09996C95.9264 11.9908 93.6219 15.4243 92.0476 19.2044C90.4733 22.9846 89.6601 27.0373 89.6543 31.1313V502.657C89.6591 506.751 90.4717 510.805 92.0455 514.586C93.6194 518.367 95.9238 521.801 98.827 524.693C101.73 527.584 105.176 529.876 108.966 531.438C112.757 533 116.818 533.801 120.919 533.795H461.707C465.807 533.801 469.868 533 473.658 531.439C477.448 529.878 480.893 527.586 483.796 524.695C486.699 521.805 489.004 518.371 490.578 514.591C492.152 510.811 492.966 506.758 492.971 502.664V31.124C492.958 22.8571 489.657 14.934 483.794 9.09737C477.931 3.2607 469.986 -0.0116346 461.707 3.10838e-05Z" fill="url(#paint0_linear)"/>
<path d="M473.505 6.39478H109.132C101.029 6.39478 94.4609 12.9538 94.4609 21.0448V514.34C94.4609 522.431 101.029 528.99 109.132 528.99H473.505C481.607 528.99 488.176 522.431 488.176 514.34V21.0448C488.176 12.9538 481.607 6.39478 473.505 6.39478Z" fill="#3A3768"/>
<path d="M468.172 55.8311H114.465V479.561H468.172V55.8311Z" fill="white"/>
<path d="M289.719 35.16C292.373 35.16 294.524 33.0119 294.524 30.3621C294.524 27.7123 292.373 25.5642 289.719 25.5642C287.065 25.5642 284.914 27.7123 284.914 30.3621C284.914 33.0119 287.065 35.16 289.719 35.16Z" fill="white"/>
<path d="M289.718 517.805C297.674 517.805 304.125 511.364 304.125 503.418C304.125 495.473 297.674 489.032 289.718 489.032C281.761 489.032 275.311 495.473 275.311 503.418C275.311 511.364 281.761 517.805 289.718 517.805Z" fill="white"/>
<path d="M217.338 110.871H165.769C160.968 110.871 157.076 114.758 157.076 119.551V171.046C157.076 175.84 160.968 179.726 165.769 179.726H217.338C222.139 179.726 226.031 175.84 226.031 171.046V119.551C226.031 114.758 222.139 110.871 217.338 110.871Z" fill="#FC6464"/>
<path opacity="0.2" d="M365.297 179.726H416.866C421.667 179.726 425.559 175.84 425.559 171.046V119.551C425.559 114.757 421.667 110.871 416.866 110.871L365.297 110.871C360.496 110.871 356.604 114.757 356.604 119.551V171.046C356.604 175.84 360.496 179.726 365.297 179.726Z" fill="#FC6464"/>
<path d="M317.102 110.871H265.533C260.732 110.871 256.84 114.758 256.84 119.551V171.046C256.84 175.84 260.732 179.726 265.533 179.726H317.102C321.902 179.726 325.794 175.84 325.794 171.046V119.551C325.794 114.758 321.902 110.871 317.102 110.871Z" fill="#FC6464"/>
<path d="M217.338 232.466H165.769C160.968 232.466 157.076 236.353 157.076 241.146V292.641C157.076 297.435 160.968 301.321 165.769 301.321H217.338C222.139 301.321 226.031 297.435 226.031 292.641V241.146C226.031 236.353 222.139 232.466 217.338 232.466Z" fill="#FC6464"/>
<path opacity="0.2" d="M365.297 301.322H416.866C421.667 301.322 425.559 297.435 425.559 292.641V241.147C425.559 236.353 421.667 232.466 416.866 232.466H365.297C360.496 232.466 356.604 236.353 356.604 241.147V292.641C356.604 297.435 360.496 301.322 365.297 301.322Z" fill="#FC6464"/>
<path opacity="0.2" d="M317.102 232.466H265.533C260.732 232.466 256.84 236.353 256.84 241.146V292.641C256.84 297.435 260.732 301.321 265.533 301.321H317.102C321.902 301.321 325.794 297.435 325.794 292.641V241.146C325.794 236.353 321.902 232.466 317.102 232.466Z" fill="#FC6464"/>
<path d="M217.338 354.062H165.769C160.968 354.062 157.076 357.948 157.076 362.742V414.236C157.076 419.03 160.968 422.917 165.769 422.917H217.338C222.139 422.917 226.031 419.03 226.031 414.236V362.742C226.031 357.948 222.139 354.062 217.338 354.062Z" fill="#FC6464"/>
<path d="M365.297 422.917H416.866C421.667 422.917 425.559 419.03 425.559 414.236V362.742C425.559 357.948 421.667 354.061 416.866 354.061H365.297C360.496 354.061 356.604 357.948 356.604 362.742V414.236C356.604 419.03 360.496 422.917 365.297 422.917Z" fill="#FC6464"/>
<path d="M317.102 354.062H265.533C260.732 354.062 256.84 357.948 256.84 362.742V414.236C256.84 419.03 260.732 422.917 265.533 422.917H317.102C321.902 422.917 325.794 419.03 325.794 414.236V362.742C325.794 357.948 321.902 354.062 317.102 354.062Z" fill="#FC6464"/>
<path d="M579.524 203.562C579.389 202.777 579.091 202.029 578.651 201.364C578.13 200.757 577.553 200.201 576.928 199.702C573.465 196.449 575.328 190.589 573.993 186.07C572.526 181.243 567.391 177.543 562.931 175.082C562.211 174.667 561.435 174.354 560.628 174.152C559.619 173.991 558.598 173.91 557.576 173.91C555.979 173.814 554.408 173.458 552.926 172.855C550.806 171.991 548.913 170.658 546.742 169.925C546.32 169.771 545.869 169.709 545.421 169.742C543.052 169.523 542.971 172.467 540.426 174.174C539.369 174.906 538.364 175.917 538.364 177.177C538.364 178.899 540.125 180.034 541.695 180.788C543.265 181.543 543.624 181.396 543.932 181.389H544.064C544.277 181.426 544.512 181.609 545.121 182.275C540.408 183.01 536.112 185.395 533 189.004C529.889 192.613 528.165 197.21 528.139 201.972C528.136 204.75 528.724 207.496 529.863 210.03C529.797 210.499 529.723 210.982 529.642 211.495C528.872 216.219 527.442 221.918 524.992 226.636C522.982 227.046 521.713 227.368 521.713 227.368C521.733 227.465 521.745 227.563 521.749 227.661L521.016 228.203L517.935 230.401C511.868 220.358 505.67 207.891 505.42 198.53C505.42 198.53 504.687 199.035 503.44 199.826V193.175L503.044 193.102L503.44 192.369L506.301 186.963C507.378 184.93 507.958 182.671 507.995 180.371C508.127 171.874 507.848 150.924 501.965 147.445C494.549 143.05 493.067 162.051 489.113 171.786C486.179 179.045 487.646 189.564 488.541 194.435C488.607 194.765 488.666 195.065 488.725 195.343C486.313 196.251 483.967 197.325 481.704 198.559C483.267 199.174 484.433 204.06 485.079 207.576C485.145 207.95 485.211 208.308 485.27 208.638C483.777 209.106 482.255 209.478 480.714 209.752L493.463 237.528C490.742 240.678 485.064 246.193 480.714 243.337C474.78 239.44 456.507 241.388 456.507 241.388C456.507 241.388 446.061 213.692 446.56 205.4C446.56 205.4 446.01 205.679 445.093 206.133V198.581C444.754 198.809 444.398 199.013 444.029 199.189L444.418 198.5L444.983 197.497C446.06 195.595 446.701 193.479 446.861 191.3C447.477 182.781 448.379 160.908 441.63 158.176C433.224 154.77 430.752 179.104 430.752 179.104L432.541 201.137L432.578 201.628C428.588 201.98 425.309 201.98 425.309 201.98C426.314 202.969 426.636 208.426 426.776 211.846C426.776 212.198 426.776 212.52 426.776 212.821C424.736 213.172 422.991 213.202 421.854 212.689L435.204 248.706C435.204 248.706 436.195 257.496 453.499 261.363C463.674 263.656 470.767 265.758 474.89 267.136C467.833 283.837 443.347 344.048 450.528 358.698C450.528 358.698 454.372 357.233 458.304 355.944C459.214 368.572 460.791 387.698 462.705 399.953C460.615 406.406 459.038 411.819 458.524 414.918C458.48 415.174 458.443 415.416 458.414 415.65C456.947 427.333 445.063 449.726 462.867 468.705C462.867 468.705 475.227 476.03 476.217 484.769C477.046 492.138 490.111 510.509 494.248 516.178C490.94 521.855 481.609 536.828 473.247 540.747C462.867 545.618 471.266 552.43 481.154 551.002C491.043 549.573 523.701 526.177 523.701 526.177C523.701 526.177 523.473 510.883 520.378 509.769L517.407 503.645C519.056 503.39 520.67 502.947 522.219 502.327C535.57 496.972 553.865 487.237 553.865 487.237C553.865 487.237 554.224 475.803 549.038 471.613C546.382 463.431 534.088 456.084 534.088 456.084C534.088 456.084 525.175 433.193 503.418 426.85C503.418 426.85 499.904 421.906 500.036 416.243C501.467 413.504 502.435 411.761 502.435 411.761L513.688 385.098C516.601 382.504 519.078 379.459 521.023 376.08C521.189 375.778 521.351 375.472 521.507 375.165C528.293 375.963 533.611 376.762 533.611 376.762L533.12 353.395C528.637 305.182 542.487 291.066 542.487 291.066C542.487 291.066 562.293 267.216 564.244 250.178C566.071 234.451 552.735 233.66 550.674 233.631C550.28 231.299 550.368 228.911 550.93 226.614L551.165 226.782C551.584 227.124 552.094 227.336 552.632 227.39C552.74 227.4 552.848 227.4 552.955 227.39H553.131C553.617 227.367 554.089 227.221 554.503 226.965C559.674 224.255 563.702 219.355 569.379 217.941C570.568 217.648 571.807 217.516 572.974 217.135C574.28 216.675 575.475 215.949 576.486 215.004C577.496 214.058 578.298 212.913 578.842 211.641C579.908 209.085 580.146 206.26 579.524 203.562ZM506.902 461.402C507.892 464.808 523.715 476.492 523.715 476.492L524.324 480.689C520.268 484.526 515.999 488.133 511.538 491.493L505.912 479.898C505.912 479.898 497.505 453.125 490.089 450.21C488.717 449.667 488.277 448.012 488.468 445.69C493.287 449.213 506.081 458.67 506.88 461.424L506.902 461.402Z" fill="url(#paint1_linear)"/>
<path d="M477.406 264.11C477.406 264.11 443.779 341.814 451.944 358.603C451.944 358.603 465.397 353.329 467.349 354.289C469.3 355.248 488.482 254.039 488.482 254.039L477.406 264.11Z" fill="#575988"/>
<path opacity="0.05" d="M477.406 264.11C477.406 264.11 443.779 341.814 451.944 358.603C451.944 358.603 465.397 353.329 467.349 354.289C469.3 355.248 488.482 254.039 488.482 254.039L477.406 264.11Z" fill="#CEDDF9"/>
<path d="M495.658 511.615C495.658 511.615 484.126 533.202 474.04 537.985C463.954 542.768 472.118 549.5 481.728 548.057C491.337 546.614 523.042 523.591 523.042 523.591C523.042 523.591 522.822 508.524 519.807 507.425C516.792 506.326 495.658 511.615 495.658 511.615Z" fill="#575988"/>
<path d="M525.923 476.602C525.923 476.602 509.594 492.907 502.383 494.35C495.172 495.793 508.626 505.382 521.595 500.108C534.564 494.834 552.339 485.238 552.339 485.238C552.339 485.238 552.815 469.855 544.651 468.449C536.486 467.042 525.923 476.602 525.923 476.602Z" fill="#575988"/>
<path d="M458.672 343.25C458.672 343.25 462.032 401.769 466.36 409.907C470.688 418.045 487.017 443.002 487.017 443.002C487.017 443.002 505.752 456.436 506.713 459.791C507.674 463.145 523.042 474.66 523.042 474.66L524.003 481.377C524.003 481.377 549.464 479.912 548.019 471.306C546.574 462.699 533.128 454.517 533.128 454.517C533.128 454.517 524.479 431.97 503.346 425.737C503.346 425.737 496.619 416.141 502.385 408.472C502.385 408.472 516.799 372.498 524.963 368.184C533.128 363.87 521.596 338.95 521.596 338.95L458.672 343.25Z" fill="#67647E"/>
<path d="M458.672 343.25C458.672 343.25 462.032 401.769 466.36 409.907C470.688 418.045 487.017 443.002 487.017 443.002C487.017 443.002 505.752 456.436 506.713 459.791C507.674 463.145 523.042 474.66 523.042 474.66L524.003 481.377C524.003 481.377 549.464 479.912 548.019 471.306C546.574 462.699 533.128 454.517 533.128 454.517C533.128 454.517 524.479 431.97 503.346 425.737C503.346 425.737 496.619 416.141 502.385 408.472C502.385 408.472 516.799 372.498 524.963 368.184C533.128 363.87 521.596 338.95 521.596 338.95L458.672 343.25Z" fill="#CEDDF9"/>
<path d="M505.744 478.037L521.149 510.172C518.75 518.325 495.687 515.446 495.687 515.446C495.687 515.446 477.913 491.464 476.952 482.828C475.991 474.192 463.983 466.998 463.983 466.998C446.693 448.29 458.217 426.227 459.662 414.713C459.662 414.493 459.728 414.251 459.765 413.98C461.041 406.259 468.817 384.05 474.862 367.415C478.94 356.208 482.234 347.535 482.234 347.535C482.234 347.535 514.415 349 521.113 360.486C524.193 365.76 522.814 371.246 520.416 375.641C518.539 378.962 516.141 381.962 513.315 384.526L502.377 410.852C502.377 410.852 483.173 445.895 490.406 448.781C497.639 451.667 505.744 478.037 505.744 478.037Z" fill="#DFEAFF"/>
<path d="M448.379 193.622C448.227 195.767 447.606 197.852 446.56 199.731L446.01 200.72L443.303 205.591H434.654L434.471 203.32L432.732 181.609C432.732 181.609 435.131 157.627 443.303 160.982C449.854 163.677 448.981 185.227 448.379 193.622Z" fill="#F7C4A7"/>
<path opacity="0.1" d="M446.01 200.713L443.303 205.584H434.654L434.471 203.313C438.498 202.961 443.288 202.229 446.01 200.713Z" fill="black"/>
<path d="M446.663 200.793V211.824L428.888 216.622C428.888 216.622 428.888 215.472 428.837 213.875C428.734 210.506 428.419 205.129 427.443 204.155C427.451 204.17 441.858 204.17 446.663 200.793Z" fill="#E6E6F0"/>
<path opacity="0.1" d="M446.663 207.261V211.824L428.889 216.622C428.889 216.622 428.889 215.472 428.838 213.875C434.758 212.843 443.304 208.894 446.663 207.261Z" fill="black"/>
<path d="M550.33 225.464C546.823 235.572 551.379 240.114 551.379 240.114C551.379 240.114 508.143 242.992 518.713 235.316C524.882 230.833 527.619 220.944 528.822 213.502C529.333 210.414 529.649 207.297 529.768 204.17C529.768 204.17 564.318 203.664 557.152 213.282C554.272 216.974 551.972 221.081 550.33 225.464Z" fill="#F7C4A7"/>
<path opacity="0.1" d="M557.16 213.26C553.638 217.992 552.487 218.688 551.291 222.102C550.21 222.284 549.116 222.375 548.019 222.373C539.782 222.373 531.764 220.68 528.822 213.509C529.334 210.419 529.65 207.3 529.769 204.17C529.769 204.17 564.312 203.643 557.16 213.26Z" fill="black"/>
<path d="M547.057 223.816C557.935 223.816 566.753 215.01 566.753 204.148C566.753 193.286 557.935 184.48 547.057 184.48C536.18 184.48 527.361 193.286 527.361 204.148C527.361 215.01 536.18 223.816 547.057 223.816Z" fill="#F7C4A7"/>
<path d="M448.101 207.503C448.101 207.503 429.366 217.099 424.084 214.696L437.053 250.193C437.053 250.193 438.014 258.829 454.827 262.646C471.64 266.462 479.805 269.839 479.805 269.839L511.025 232.906L495.173 237.22C495.173 237.22 487.008 248.735 481.235 244.897C475.462 241.059 457.71 242.993 457.71 242.993C457.71 242.993 447.624 215.663 448.101 207.503Z" fill="#575988"/>
<path d="M448.101 207.503C448.101 207.503 429.366 217.099 424.084 214.696L437.053 250.193C437.053 250.193 438.014 258.829 454.827 262.646C471.64 266.462 479.805 269.839 479.805 269.839L511.025 232.906L495.173 237.22C495.173 237.22 487.008 248.735 481.235 244.897C475.462 241.059 457.71 242.993 457.71 242.993C457.71 242.993 447.624 215.663 448.101 207.503Z" fill="#4D4981"/>
<path opacity="0.1" d="M521.119 230.152C521.119 230.152 546.515 222.9 549.185 236.371C549.185 236.371 537.448 230.657 520.635 240.766C519.373 241.498 518.141 242.326 516.967 243.168C502.171 253.518 491.835 269.538 487.683 287.734L476.951 334.687L475.99 347.308C475.99 347.308 460.586 350.34 457.739 345.792C454.893 341.243 456.778 326.095 461.099 321.048C465.42 316.001 472.124 294.267 472.124 294.267L476.328 281.668C479.846 271.071 485.439 261.279 492.781 252.859L493.794 251.636C500.121 244.053 508.144 238.062 517.216 234.144C519.674 233.082 521.456 231.741 521.119 230.152Z" fill="black"/>
<path d="M521.119 229.192C521.119 229.192 546.515 221.94 549.185 235.411C549.185 235.411 537.448 229.698 520.635 239.806C519.373 240.539 518.141 241.366 516.967 242.209C502.171 252.559 491.835 268.579 487.683 286.774L476.951 333.727L475.99 346.348C475.99 346.348 460.586 349.381 457.739 344.832C454.893 340.283 456.778 325.135 461.099 320.088C465.42 315.041 472.146 293.323 472.146 293.323L476.35 280.724C479.868 270.127 485.461 260.334 492.803 251.914L493.816 250.691C500.143 243.109 508.166 237.117 517.238 233.199C519.674 232.122 521.456 230.782 521.119 229.192Z" fill="#E6E6F0"/>
<path opacity="0.1" d="M457.256 325.882L457.469 334.145L464.195 329.83C464.195 329.83 476.174 286.298 484.61 274.431C485.601 273.032 486.077 270.945 487.009 270.593L521.354 237.499V229.807C521.354 229.807 503.822 242.758 502.377 245.19C501.761 246.208 492.555 251.233 486.972 259.107C482.001 266.357 477.587 273.972 473.768 281.888L462.237 307.789L457.256 325.882Z" fill="black"/>
<path d="M521.362 229.331V236.766L486.532 270.095C485.608 270.447 485.124 272.534 484.134 273.933C475.69 285.807 463.719 329.332 463.719 329.332L456.992 333.647L456.779 325.384L461.797 307.277L473.328 281.375C477.147 273.46 481.561 265.844 486.532 258.595C492.078 250.728 501.292 245.703 501.937 244.677C503.184 242.612 516.726 232.708 520.452 230.027L521.362 229.331Z" fill="#787C9C"/>
<path opacity="0.1" d="M540.501 183.272C538.982 182.539 537.266 181.404 537.266 179.712C537.266 178.474 538.241 177.448 539.268 176.782C542.012 174.914 541.799 171.537 544.953 172.592C547.066 173.324 548.907 174.635 550.961 175.485C552.399 176.079 553.926 176.431 555.48 176.525C556.463 176.525 557.444 176.604 558.414 176.76C559.187 176.962 559.927 177.27 560.615 177.675C564.994 180.122 568.246 184.176 569.682 188.978C570.987 193.431 570.855 198.705 574.215 201.906C574.822 202.397 575.382 202.944 575.887 203.54C576.318 204.206 576.605 204.955 576.731 205.737C577.336 208.396 577.106 211.177 576.071 213.7C575.545 214.95 574.764 216.077 573.778 217.009C572.791 217.941 571.621 218.658 570.342 219.113C569.205 219.486 568.009 219.611 566.85 219.904C561.334 221.296 557.424 226.13 552.392 228.797C551.99 229.048 551.53 229.192 551.056 229.214C550.538 229.156 550.048 228.947 549.648 228.613C547.704 227.229 546.105 225.075 546.156 222.688C546.313 221.196 546.748 219.748 547.44 218.417C548.493 215.926 549.299 213.337 549.846 210.689C550.02 210.081 550.038 209.438 549.897 208.821C549.531 207.657 548.24 207.115 547.345 206.287C545.643 204.712 545.437 202.031 546.068 199.797C546.699 197.563 548.02 195.592 549.003 193.49C549.341 192.859 549.539 192.161 549.582 191.446C549.582 188.641 545.782 187.117 544.183 185.264C542.1 182.73 543.471 184.737 540.501 183.272Z" fill="black"/>
<path d="M540.983 183.272C539.465 182.539 537.748 181.404 537.748 179.712C537.748 178.474 538.724 177.448 539.751 176.782C542.494 174.914 542.281 171.537 545.436 172.592C547.548 173.324 549.39 174.635 551.444 175.485C552.882 176.079 554.409 176.431 555.962 176.525C556.953 176.584 560.158 175.06 561.097 175.295C561.87 175.497 562.61 175.805 563.298 176.21C567.677 178.657 570.929 182.711 572.365 187.513C573.67 191.966 572.761 197.533 576.12 200.698C576.685 201.24 575.915 202.895 576.37 203.503C576.8 204.17 577.088 204.918 577.213 205.701C577.819 208.36 577.588 211.14 576.553 213.663C576.027 214.913 575.246 216.041 574.26 216.973C573.274 217.905 572.103 218.621 570.824 219.076C569.687 219.45 568.491 219.574 567.332 219.867C561.816 221.259 557.906 226.094 552.874 228.76C552.472 229.011 552.013 229.155 551.539 229.178C551.021 229.12 550.531 228.911 550.131 228.577C548.187 227.192 546.587 225.039 546.639 222.651C546.795 221.16 547.231 219.711 547.922 218.38C548.975 215.889 549.781 213.301 550.329 210.653C550.503 210.044 550.52 209.402 550.38 208.785C550.013 207.62 548.722 207.078 547.827 206.25C546.125 204.675 545.92 201.994 546.551 199.76C547.182 197.526 548.502 195.556 549.485 193.453C549.823 192.822 550.021 192.125 550.065 191.41C550.065 188.604 546.265 187.081 544.665 185.227C542.582 182.73 543.954 184.737 540.983 183.272Z" fill="#B96B6B"/>
<path opacity="0.1" d="M520.423 375.678C511.62 374.637 500.529 373.619 495.658 374.432C487.816 375.736 476.813 368.755 474.832 367.452C478.911 356.244 482.204 347.572 482.204 347.572C482.204 347.572 514.385 349.037 521.083 360.522C524.2 365.796 522.821 371.283 520.423 375.678Z" fill="black"/>
<path d="M562.432 251.636C560.51 268.425 541.299 291.923 541.299 291.923C541.299 291.923 527.845 305.841 532.173 353.322L532.65 376.344C532.65 376.344 504.305 372.03 495.664 373.465C487.023 374.901 474.53 366.272 474.53 366.272C474.53 366.272 469.718 283.28 490.404 266.03C492.943 262.102 495.706 258.323 498.679 254.712C504.225 248.01 511.765 240.458 518.822 238.597C519.73 238.353 520.663 238.21 521.603 238.173C521.603 238.173 543.22 226.182 548.986 235.294C548.979 235.33 564.347 234.847 562.432 251.636Z" fill="#4D4981"/>
<path opacity="0.1" d="M474.766 341.096C474.766 341.096 482.453 337.742 495.423 338.701C508.392 339.661 531.484 328.146 531.484 328.146" fill="black"/>
<path opacity="0.05" d="M488.696 448.093C488.696 448.093 489.173 449.558 482.93 451.447C476.688 453.337 474.766 455.286 474.766 455.286" fill="black"/>
<path d="M444.037 189.718H495.606C500.407 189.718 504.299 185.832 504.299 181.038V129.543C504.299 124.749 500.407 120.863 495.606 120.863L444.037 120.863C439.236 120.863 435.344 124.749 435.344 129.543V181.038C435.344 185.832 439.236 189.718 444.037 189.718Z" fill="#FC6464"/>
<path d="M507.761 182.869C507.728 185.135 507.165 187.362 506.118 189.373L503.345 194.706L501.423 198.368L489.415 199.328C489.415 199.328 489.165 198.339 488.857 196.706C487.962 191.908 486.546 181.543 489.415 174.386C493.258 164.79 494.696 146.082 501.885 150.404C507.621 153.847 507.893 174.496 507.761 182.869Z" fill="#F7C4A7"/>
<path opacity="0.1" d="M503.345 194.552V194.699L501.423 198.361L489.415 199.321C489.415 199.321 489.166 198.332 488.857 196.698C493.156 195.065 498.79 193.541 503.345 194.552Z" fill="black"/>
<path d="M503.345 195.512V204.17L486.055 213.282C486.055 213.282 485.857 211.722 485.49 209.7C484.859 206.236 483.729 201.416 482.211 200.815C482.211 200.793 494.696 193.593 503.345 195.512Z" fill="#E6E6F0"/>
<path opacity="0.05" d="M550.117 273.919C548.01 275.772 545.542 277.17 542.869 278.025C540.195 278.879 537.373 279.172 534.58 278.885C504.167 275.801 503.345 265.07 503.345 265.07L498.68 254.712C504.225 248.01 511.766 240.458 518.823 238.597C523.863 246.706 528.359 252.559 528.359 252.559C528.359 252.559 550.938 235.294 557.665 251.599C561.56 261.129 555.692 269.004 550.117 273.919Z" fill="black"/>
<path opacity="0.1" d="M503.345 200.801V204.17L486.055 213.282C486.055 213.282 485.857 211.722 485.49 209.7C492.943 207.29 500.315 202.771 503.345 200.801Z" fill="black"/>
<path d="M505.267 200.793C505.267 200.793 492.297 209.905 481.25 211.824L503.829 261.708C503.829 261.708 504.658 272.439 535.064 275.523C537.855 275.808 540.676 275.515 543.348 274.66C546.021 273.805 548.487 272.408 550.593 270.556C556.168 265.641 562.022 257.767 558.105 248.274C551.378 231.968 528.799 249.233 528.799 249.233C528.799 249.233 505.743 219.018 505.267 200.793Z" fill="#4D4981"/>
<path d="M692.5 523.262H581.982C580.9 523.262 580.023 524.137 580.023 525.218V531.561C580.023 532.641 580.9 533.517 581.982 533.517H692.5C693.581 533.517 694.458 532.641 694.458 531.561V525.218C694.458 524.137 693.581 523.262 692.5 523.262Z" fill="#FC6464"/>
<path d="M680.029 513.007H569.511C568.43 513.007 567.553 513.882 567.553 514.963V521.306C567.553 522.386 568.43 523.262 569.511 523.262H680.029C681.111 523.262 681.988 522.386 681.988 521.306V514.963C681.988 513.882 681.111 513.007 680.029 513.007Z" fill="#FC6464"/>
<path opacity="0.05" d="M680.029 513.007H569.511C568.43 513.007 567.553 513.882 567.553 514.963V521.306C567.553 522.386 568.43 523.262 569.511 523.262H680.029C681.111 523.262 681.988 522.386 681.988 521.306V514.963C681.988 513.882 681.111 513.007 680.029 513.007Z" fill="black"/>
</g>
<defs>
<linearGradient id="paint0_linear" x1="291.309" y1="533.788" x2="291.309" y2="0" gradientUnits="userSpaceOnUse">
<stop stop-color="#808080" stop-opacity="0.25"/>
<stop offset="0.54" stop-color="#808080" stop-opacity="0.12"/>
<stop offset="1" stop-color="#808080" stop-opacity="0.1"/>
</linearGradient>
<linearGradient id="paint1_linear" x1="127182" y1="323565" x2="127182" y2="100324" gradientUnits="userSpaceOnUse">
<stop stop-color="#808080" stop-opacity="0.25"/>
<stop offset="0.54" stop-color="#808080" stop-opacity="0.12"/>
<stop offset="1" stop-color="#808080" stop-opacity="0.1"/>
</linearGradient>
<clipPath id="clip0">
<rect width="705" height="590" fill="white"/>
</clipPath>
</defs>
</svg>
