<svg width="223" height="186" viewBox="0 0 223 186" fill="none" xmlns="http://www.w3.org/2000/svg">
<g clip-path="url(#clip0)">
<path opacity="0.1" d="M25.5849 18.6229C24.1873 19.2684 22.7529 20.0969 21.9849 21.5491C21.1715 23.0833 21.2688 24.9883 21.4203 26.7633C22.74 42.1576 26.2166 58.5298 20.2131 72.4744C17.2989 79.2395 12.4246 84.6608 8.54771 90.8046C4.6708 96.9483 1.74365 104.619 3.54364 111.847C5.74171 120.678 13.9455 125.574 19.4753 132.371C23.0948 136.814 25.6325 142.214 29.0097 146.889C32.3868 151.563 37.0144 155.682 42.4058 155.956C50.1596 156.353 56.4682 148.9 64.0706 147.173C71.859 145.405 79.7015 149.904 86.0167 155.289C92.3318 160.674 98.0757 167.198 105.434 170.561C113.56 174.277 122.72 173.708 131.274 175.941C139.062 177.976 146.232 182.304 153.964 184.611C161.696 186.918 170.759 186.779 176.75 180.885C184.558 173.178 183.943 159.451 188.93 149.256C193.562 139.784 202.629 134.129 208.732 125.755C219.714 110.683 219.355 87.6472 210.03 71.2557C200.706 54.8643 183.816 44.9393 166.545 42.3551C158.756 41.1919 150.736 41.3508 143.249 38.704C123.206 31.6234 111.279 6.25349 90.8174 0.974316C77.8107 -2.37574 65.161 3.42605 54.0819 10.5669C44.4654 16.7661 35.593 14.0013 25.5849 18.6229Z" fill="#FC6464"/>
<path d="M37.8921 68.3638C37.8921 68.3638 29.6715 76.1219 20.8487 76.3531C17.1438 76.4269 13.5628 77.7006 10.6434 79.9829C9.26345 81.0738 7.98636 82.2888 6.82812 83.6127" stroke="#3A3768" stroke-width="2" stroke-miterlimit="10"/>
<path d="M1.26416 83.8031C2.4492 83.201 6.97258 83.6008 6.97258 83.6008C6.97258 83.6008 4.62659 87.4907 3.44155 88.0929C3.15774 88.2611 2.84239 88.3693 2.51506 88.4106C2.18773 88.4519 1.8554 88.4256 1.53867 88.3332C1.22195 88.2407 0.927586 88.0843 0.673842 87.8734C0.420098 87.6625 0.212384 87.4017 0.06358 87.1073C-0.0852244 86.8128 -0.171947 86.4909 -0.191205 86.1615C-0.210464 85.8322 -0.161849 85.5024 -0.0483776 85.1926C0.065094 84.8828 0.241003 84.5996 0.468441 84.3606C0.695879 84.1216 0.969997 83.9318 1.27379 83.8031H1.26416Z" fill="#FC6464"/>
<path d="M6.02486 76.9264C7.34719 77.0661 10.9264 79.8601 10.9264 79.8601C10.9264 79.8601 6.83174 81.8496 5.52145 81.7123C4.90843 81.6197 4.35473 81.2943 3.97557 80.8037C3.59642 80.3132 3.42102 79.6954 3.48588 79.0788C3.55073 78.4622 3.85084 77.8944 4.32376 77.4935C4.79668 77.0926 5.40598 76.8894 6.02486 76.9264Z" fill="#FC6464"/>
<path d="M17.3146 71.3843C18.3841 72.1719 20.0653 76.3918 20.0653 76.3918C20.0653 76.3918 15.5347 76.0473 14.4652 75.2621C13.9832 74.8727 13.6698 74.3125 13.5903 73.6979C13.5107 73.0834 13.671 72.4618 14.038 71.9624C14.4049 71.463 14.9502 71.1243 15.5604 71.0166C16.1707 70.909 16.799 71.0406 17.3146 71.3843Z" fill="#FC6464"/>
<path d="M26.8051 69.1176C27.9925 69.7126 30.3626 73.588 30.3626 73.588C30.3626 73.588 25.8392 74.0143 24.6518 73.4194C24.3522 73.2886 24.0823 73.0981 23.8587 72.8597C23.6351 72.6212 23.4623 72.3397 23.351 72.0323C23.2397 71.7249 23.1921 71.3981 23.2111 71.0717C23.2302 70.7454 23.3155 70.4263 23.4618 70.1339C23.6081 69.8416 23.8125 69.5821 24.0623 69.3713C24.3122 69.1604 24.6023 69.0027 24.9151 68.9076C25.2279 68.8125 25.5568 68.7821 25.8817 68.8182C26.2066 68.8543 26.5208 68.9562 26.8051 69.1176Z" fill="#FC6464"/>
<path d="M13.4436 84.2462C13.8386 82.9768 12.6824 78.5835 12.6824 78.5835C12.6824 78.5835 9.24292 81.5509 8.84791 82.8203C8.7366 83.1266 8.68864 83.4524 8.70692 83.7779C8.7252 84.1033 8.80935 84.4217 8.95427 84.7136C9.09919 85.0056 9.30187 85.2651 9.55002 85.4765C9.79818 85.6878 10.0867 85.8466 10.398 85.9432C10.7093 86.0398 11.037 86.0722 11.3612 86.0384C11.6854 86.0047 11.9994 85.9055 12.2841 85.7468C12.5689 85.5881 12.8185 85.3733 13.0177 85.1154C13.217 84.8574 13.3619 84.5617 13.4436 84.2462Z" fill="#FC6464"/>
<path d="M24.5077 81.445C24.5077 80.1154 22.0871 76.2712 22.0871 76.2712C22.0871 76.2712 19.6929 80.125 19.6953 81.4594C19.6972 82.0982 19.9528 82.7101 20.4059 83.1605C20.8589 83.6108 21.4723 83.8627 22.1112 83.8608C22.75 83.8589 23.3618 83.6033 23.8122 83.1502C24.2625 82.6972 24.5145 82.0838 24.5125 81.445H24.5077Z" fill="#FC6464"/>
<path d="M34.8834 77.2636C35.1049 75.9533 33.3707 71.7551 33.3707 71.7551C33.3707 71.7551 30.3576 75.1561 30.1384 76.4664C30.0644 77.0811 30.2299 77.7007 30.6007 78.1966C30.9714 78.6925 31.5189 79.0265 32.1294 79.1294C32.74 79.2323 33.3667 79.0962 33.8795 78.7492C34.3923 78.4022 34.7518 77.8711 34.8834 77.266V77.2636Z" fill="#FC6464"/>
<path d="M48.5717 47.8182C48.5717 47.8182 38.6699 42.3795 35.7266 34.0481C34.5173 30.5447 32.2041 27.5282 29.1342 25.4517C27.6692 24.4769 26.118 23.6384 24.5 22.9468" stroke="#3A3768" stroke-width="2" stroke-miterlimit="10"/>
<path d="M22.6216 17.7081C23.5585 18.6499 24.5677 23.0794 24.5677 23.0794C24.5677 23.0794 20.1455 22.0437 19.2086 21.0995C18.7948 20.64 18.5736 20.039 18.5908 19.4209C18.6079 18.8028 18.8621 18.215 19.3007 17.7792C19.7394 17.3433 20.3288 17.0929 20.947 17.0797C21.5652 17.0664 22.1647 17.2915 22.6216 17.7081Z" fill="#FC6464"/>
<path d="M30.6308 20.1238C30.9054 21.4245 29.347 25.6901 29.347 25.6901C29.347 25.6901 26.199 22.4168 25.9244 21.1138C25.8429 20.7986 25.8261 20.4702 25.875 20.1484C25.924 19.8266 26.0377 19.5181 26.2092 19.2414C26.3807 18.9648 26.6065 18.7258 26.873 18.5389C27.1395 18.3519 27.4411 18.2209 27.7596 18.1538C28.0781 18.0867 28.4069 18.0848 28.7262 18.1483C29.0454 18.2118 29.3485 18.3394 29.617 18.5233C29.8856 18.7072 30.1141 18.9436 30.2888 19.2183C30.4634 19.493 30.5806 19.8002 30.6332 20.1214L30.6308 20.1238Z" fill="#FC6464"/>
<path d="M39.373 29.1778C38.9539 30.4375 35.4542 33.3351 35.4542 33.3351C35.4542 33.3351 34.3896 28.9201 34.8087 27.658C35.0102 27.0511 35.4446 26.5492 36.0162 26.2626C36.5878 25.976 37.2499 25.9282 37.8568 26.1297C38.4636 26.3313 38.9656 26.7656 39.2522 27.3373C39.5388 27.9089 39.5866 28.571 39.385 29.1778H39.373Z" fill="#FC6464"/>
<path d="M44.4522 37.4997C44.2523 38.8124 41.2921 42.2591 41.2921 42.2591C41.2921 42.2591 39.4953 38.0874 39.6952 36.7747C39.7285 36.4503 39.8274 36.136 39.9857 35.8509C40.1441 35.5658 40.3588 35.3159 40.6166 35.1162C40.8745 34.9166 41.1702 34.7713 41.4859 34.6894C41.8015 34.6074 42.1305 34.5904 42.453 34.6394C42.7754 34.6884 43.0845 34.8023 43.3616 34.9743C43.6386 35.1463 43.8779 35.3728 44.0649 35.64C44.2518 35.9072 44.3825 36.2096 44.4491 36.5289C44.5157 36.8481 44.5168 37.1776 44.4522 37.4973V37.4997Z" fill="#FC6464"/>
<path d="M25.9443 29.4358C27.2738 29.4213 31.0987 26.9694 31.0987 26.9694C31.0987 26.9694 27.2184 24.6089 25.8889 24.6234C25.2501 24.6307 24.6404 24.8915 24.1939 25.3484C23.7473 25.8053 23.5006 26.4209 23.508 27.0597C23.5153 27.6985 23.7761 28.3082 24.233 28.7547C24.6899 29.2012 25.3055 29.4479 25.9443 29.4406V29.4358Z" fill="#FC6464"/>
<path d="M32.0027 39.1039C33.2648 38.692 36.1816 35.2091 36.1816 35.2091C36.1816 35.2091 31.7715 34.118 30.5093 34.5299C30.1979 34.6188 29.9076 34.7696 29.6557 34.9733C29.4039 35.1769 29.1957 35.4293 29.0437 35.7153C28.8916 36.0013 28.7988 36.315 28.7708 36.6376C28.7427 36.9603 28.7801 37.2853 28.8805 37.5933C28.981 37.9012 29.1426 38.1856 29.3555 38.4297C29.5685 38.6737 29.8285 38.8723 30.1199 39.0136C30.4114 39.1548 30.7284 39.2358 31.0519 39.2518C31.3754 39.2677 31.6987 39.2182 32.0027 39.1063V39.1039Z" fill="#FC6464"/>
<path d="M39.182 47.6931C40.4971 47.5005 43.9607 44.5619 43.9607 44.5619C43.9607 44.5619 39.7986 42.741 38.4859 42.9337C38.1626 42.967 37.8494 43.0654 37.5651 43.223C37.2809 43.3806 37.0314 43.594 36.8318 43.8506C36.6323 44.1071 36.4867 44.4013 36.4038 44.7156C36.3209 45.0299 36.3026 45.3576 36.3497 45.6792C36.3969 46.0008 36.5087 46.3095 36.6783 46.5867C36.8479 46.8639 37.0719 47.104 37.3367 47.2924C37.6016 47.4808 37.9018 47.6136 38.2193 47.6829C38.5369 47.7522 38.8651 47.7565 39.1844 47.6956L39.182 47.6931Z" fill="#FC6464"/>
<path d="M116.5 171C159.854 171 195 135.854 195 92.5C195 49.1456 159.854 14 116.5 14C73.1456 14 38 49.1456 38 92.5C38 135.854 73.1456 171 116.5 171Z" fill="#FC6464"/>
<path d="M116.715 160.754C154.361 160.754 184.879 130.236 184.879 92.5896C184.879 54.9438 154.361 24.4258 116.715 24.4258C79.0688 24.4258 48.5508 54.9438 48.5508 92.5896C48.5508 130.236 79.0688 160.754 116.715 160.754Z" fill="white"/>
<path opacity="0.3" d="M118.643 36.469H114.789V96.6844H118.643V36.469Z" fill="#3A3768"/>
<g opacity="0.1">
<path opacity="0.1" d="M175.247 91.1445H120.812V95.9618H175.247V91.1445Z" fill="black"/>
<path opacity="0.1" d="M82.3793 73.1219L80.1445 77.3894L114.395 95.3258L116.63 91.0583L82.3793 73.1219Z" fill="black"/>
<path opacity="0.1" d="M116.718 100.779C120.709 100.779 123.944 97.5437 123.944 93.553C123.944 89.5623 120.709 86.3271 116.718 86.3271C112.727 86.3271 109.492 89.5623 109.492 93.553C109.492 97.5437 112.727 100.779 116.718 100.779Z" fill="black"/>
</g>
<path d="M175.243 90.1812H120.809V94.9984H175.243V90.1812Z" fill="#3A3768"/>
<path d="M116.645 90.1005L82.3945 72.1641L80.1597 76.4316L114.411 94.3679L116.645 90.1005Z" fill="#3A3768"/>
<path d="M116.714 99.8155C120.705 99.8155 123.94 96.5804 123.94 92.5896C123.94 88.5989 120.705 85.3638 116.714 85.3638C112.723 85.3638 109.488 88.5989 109.488 92.5896C109.488 96.5804 112.723 99.8155 116.714 99.8155Z" fill="#3A3768"/>
<g opacity="0.1">
<path opacity="0.1" d="M53.8459 100.779C53.8459 63.1323 84.3631 32.6151 122.01 32.6151C132.576 32.6057 143 35.0568 152.455 39.7743C161.91 44.4917 170.136 51.3459 176.483 59.7939C164.883 38.7137 142.483 24.4258 116.711 24.4258C79.0641 24.4258 48.547 54.943 48.547 92.5897C48.5248 107.379 53.3347 121.771 62.2448 133.575C56.7192 123.528 53.8296 112.245 53.8459 100.779Z" fill="black"/>
</g>
<path d="M179.696 42.447C178.887 41.669 172.075 46.7825 172.075 46.7825C172.075 46.7825 169.65 47.2257 170.228 48.89C170.806 50.5544 167.687 59.8757 167.687 59.8757L166.417 58.1006C166.54 56.0171 165.967 54.5406 165.408 53.6205C165.362 53.5459 165.317 53.4736 165.271 53.4062L165.493 53.3291C165.408 52.1922 163.59 50.4604 162.624 49.6126C162.624 49.4898 162.624 49.3717 162.624 49.2465C162.684 47.888 163.228 46.4549 162.624 45.2241C161.94 43.8199 159.938 43.1141 159.77 41.5726C159.669 40.6525 160.29 39.8216 160.565 38.9352C161.22 36.8156 159.859 34.6527 158.558 32.8269C158.118 32.1424 157.581 31.5244 156.966 30.9916C156.38 30.563 155.736 30.2192 155.054 29.9703C153.148 29.1996 151.2 28.8118 149.234 28.2843C147.348 27.7833 145.609 27.5448 143.695 28.1735C143.24 28.296 142.825 28.5342 142.49 28.8648C142.035 29.3754 141.975 30.1028 141.676 30.7122C141.194 31.6925 140.156 32.2778 139.239 32.9064C138.321 33.5351 137.401 34.3974 137.396 35.4812C137.396 37.0203 139.154 37.9886 139.742 39.4217C140.291 40.7561 139.742 42.2422 139.436 43.6489C139.308 44.1035 139.296 44.5828 139.4 45.0434C139.521 45.3867 139.704 45.7051 139.94 45.9828C140.303 46.4645 140.693 46.9125 141.081 47.3702L140.903 47.44C137.671 47.1076 135.592 51.2119 135.592 51.2119C135.741 51.2432 135.883 51.2794 136.023 51.3203L135.886 51.4985C134.909 52.767 134.111 54.1634 133.513 55.6486L130.864 59.1989C130.864 59.1989 130.286 50.3207 131.673 48.324C133.061 46.3272 130.404 45.1061 130.404 45.1061C130.404 45.1061 124.623 38.6702 123.821 39.2242C123.019 39.7782 125.784 46.7704 128.21 47.8808C128.21 47.8808 128.45 50.0991 127.969 51.5419C127.677 52.4548 126.121 62.0844 126.121 62.0844C126.121 62.0844 124.736 70.1846 131.088 66.1791C135.214 63.5826 137.88 59.1122 139.239 56.3037C139.333 56.1062 139.422 55.9175 139.506 55.7377C139.569 56.0356 139.611 56.3373 139.634 56.6409L139.874 65.9213C139.936 68.2168 139.434 70.4924 138.415 72.5499L135.585 78.2896L135.9 78.3859L135.71 78.6605C133.846 81.4039 130.676 87.5724 137.201 90.7156L145.872 91.826L145.41 94.0444C145.41 94.0444 141.83 100.813 140.79 105.473C140.143 108.327 139.134 111.087 137.786 113.684L138.054 113.826C137.998 113.889 137.94 113.954 137.885 114.021C137.359 114.613 137.012 115.341 136.883 116.122L135.708 117.789C135.708 117.789 135.245 124.668 136.17 126.334C136.676 127.245 138.355 127.823 139.783 128.16C141.903 128.663 143.613 126.474 142.488 124.67L142.473 124.646H142.452C142.211 123.526 141.474 120.05 141.715 118.73C141.782 118.355 141.845 117.981 141.876 117.601C141.934 117.101 142.086 116.616 142.324 116.172C142.363 116.098 142.404 116.025 142.444 115.953L142.57 116.006C142.958 116.172 143.341 116.329 143.704 116.466C143.141 116.979 142.741 118.041 143.222 120.226C143.222 120.226 143.268 125.691 143.685 126.551C144.102 127.411 148.765 128.548 149.574 127.661C150.383 126.775 149.054 123.721 149.054 123.721L149.013 123.75C148.745 121.98 148.415 118.81 149.227 117.562C149.555 117.059 149.873 116.538 150.157 116.052L150.333 115.751C151.841 116.502 153.435 117.068 154.307 116.676C154.307 116.676 158.117 107.798 157.886 106.69C157.655 105.582 163.775 93.04 163.775 93.04C163.775 93.04 168.971 87.2593 162.621 83.2754C160.605 82.0061 159.136 81.1534 158.069 80.5778L157.176 75.9051C156.716 73.4554 156.798 70.9348 157.416 68.5202L158.38 64.8447L158.459 64.5316C158.459 64.5316 160.885 59.5385 160.769 57.207C160.76 57.0258 160.781 56.8445 160.829 56.6698C160.856 56.7806 160.885 56.8962 160.916 57.0167C161.553 59.44 162.393 61.8055 163.426 64.0884C165.269 68.2457 168.002 67.9157 169.5 67.3256C169.821 67.2015 170.106 66.9996 170.329 66.738C170.552 66.4765 170.707 66.1636 170.779 65.8274C171.319 63.2406 172.8 55.993 172.894 53.9915C172.978 52.4263 173.171 50.869 173.472 49.3308C177.273 47.1076 180.505 43.2249 179.696 42.447Z" fill="url(#paint0_linear)"/>
<path d="M151.423 113.554C151.423 113.554 150.915 114.573 150.219 115.797C149.946 116.278 149.643 116.796 149.332 117.295C148.231 119.056 149.332 124.665 149.332 124.665L146.924 124.995L144.515 123.791L144.074 119.72V116.743L146.82 113.672L148.024 112.343L151.423 113.554Z" fill="#F8BDC5"/>
<g opacity="0.1">
<path opacity="0.1" d="M151.424 113.554C151.424 113.554 150.916 114.573 150.22 115.797C149.156 115.228 148.128 114.596 147.142 113.904L146.93 113.754L146.816 113.672L148.021 112.343L151.424 113.554Z" fill="black"/>
</g>
<path d="M163.196 92.9799C163.196 92.9799 157.365 105.411 157.587 106.511C157.808 107.612 154.176 116.413 154.176 116.413C153.347 116.803 151.825 116.242 150.39 115.498C149.307 114.921 148.261 114.277 147.258 113.571L147.046 113.422L146.919 113.33L156.491 86.8162L148.022 80.6044L147.396 80.1443L143.609 77.3503L155.171 79.441C155.171 79.441 155.573 79.3904 157.7 80.5803C158.721 81.1511 160.14 82.0062 162.1 83.2924C168.144 87.2594 163.196 92.9799 163.196 92.9799Z" fill="#5E52AD"/>
<g opacity="0.03">
<path opacity="0.03" d="M163.196 92.9799C163.196 92.9799 157.365 105.411 157.587 106.511C157.808 107.612 154.176 116.413 154.176 116.413C153.347 116.803 151.825 116.242 150.39 115.498C149.307 114.921 148.261 114.277 147.258 113.571L147.046 113.422L146.919 113.33L156.491 86.8162L148.022 80.6044L147.396 80.1443L143.609 77.3503L155.171 79.441C155.171 79.441 155.573 79.3904 157.7 80.5803C158.721 81.1511 160.14 82.0062 162.1 83.2924C168.144 87.2594 163.196 92.9799 163.196 92.9799Z" fill="black"/>
</g>
<path d="M145.481 115.753C145.481 115.753 142.619 115.312 143.611 119.935C143.611 119.935 143.655 125.354 144.052 126.197C144.45 127.04 148.894 128.177 149.662 127.298C150.43 126.419 149.166 123.393 149.166 123.393C149.166 123.393 145.921 125.759 145.04 123.227C144.158 120.696 145.481 115.753 145.481 115.753Z" fill="#5D3E53"/>
<path d="M143.502 114.874C143.19 115.171 142.936 115.524 142.753 115.915C142.526 116.357 142.381 116.837 142.327 117.331C142.298 117.707 142.237 118.08 142.175 118.451C141.9 120.019 142.953 124.665 142.953 124.665L138.771 125.325L137.232 123.675L136.902 120.045C137.313 118.801 137.536 117.502 137.562 116.192C137.562 115.245 138.044 114.4 138.526 113.783C138.852 113.372 139.227 113 139.641 112.677C139.641 112.677 144.384 114.103 143.502 114.874Z" fill="#F8BDC5"/>
<g opacity="0.1">
<path opacity="0.1" d="M143.498 114.874C143.186 115.171 142.932 115.524 142.749 115.915C141.036 115.141 139.237 114.166 138.582 113.805L138.531 113.778C138.858 113.367 139.232 112.996 139.646 112.673C139.646 112.673 144.379 114.103 143.498 114.874Z" fill="black"/>
</g>
<path d="M157.036 89.6801C157.036 89.6801 154.288 94.8514 152.525 99.1411C151.369 101.959 148.979 108.67 147.467 112.942L147.245 113.574C146.58 115.464 146.137 116.743 146.137 116.743C145.844 116.745 145.553 116.702 145.273 116.616C145.012 116.546 144.721 116.452 144.41 116.336L144.061 116.204C143.714 116.069 143.338 115.912 142.98 115.749C141.231 114.968 139.367 113.952 138.69 113.581L138.434 113.439C139.725 110.852 140.689 108.115 141.303 105.29C142.293 100.671 145.704 93.9698 145.704 93.9698L146.144 91.7683L137.893 90.6676C131.676 87.5605 134.696 81.4354 136.471 78.716C136.774 78.244 137.101 77.7881 137.452 77.3503L144.054 78.7955C144.054 78.7955 145.094 79.1279 147.407 80.1516L148.469 80.6333C149.765 81.2282 151.359 81.9942 153.286 82.9769C159.784 86.2622 157.036 89.6801 157.036 89.6801Z" fill="#5E52AD"/>
<path d="M142.91 124.335C143.145 124.732 143.258 125.189 143.234 125.65C143.21 126.11 143.05 126.554 142.774 126.924C142.498 127.293 142.119 127.573 141.685 127.728C141.25 127.883 140.78 127.906 140.332 127.794C138.981 127.459 137.379 126.886 136.898 125.983C136.019 124.333 136.457 117.511 136.457 117.511L137.613 115.806C137.613 115.806 137.009 123.343 138.439 123.995C139.87 124.648 142.895 124.301 142.895 124.301L142.91 124.335Z" fill="#5D3E53"/>
<path d="M144.08 28.6626C143.64 28.7848 143.241 29.0217 142.924 29.349C142.49 29.8548 142.442 30.5774 142.148 31.182C141.69 32.1454 140.703 32.7355 139.826 33.3497C138.949 33.9639 138.075 34.8286 138.07 35.9029C138.07 37.4299 139.756 38.3886 140.306 39.8072C140.828 41.132 140.306 42.6036 140.014 43.9982C139.893 44.4498 139.881 44.9238 139.98 45.3808C140.095 45.7197 140.27 46.0354 140.496 46.3129C141.558 47.7581 142.878 49.0395 143.588 50.6845C144.128 51.9346 144.277 53.3148 144.419 54.6708C144.624 56.6218 144.829 58.6089 144.458 60.5358C144.422 60.6511 144.422 60.7746 144.458 60.8899C144.521 61.0004 144.621 61.0855 144.74 61.1307C145.441 61.4712 146.203 61.6665 146.981 61.7049C147.76 61.7432 148.538 61.6238 149.269 61.3539C150 61.0839 150.669 60.6689 151.235 60.1338C151.802 59.5988 152.254 58.9547 152.565 58.2404C153.047 57.1493 153.233 55.8318 154.186 55.1236C154.298 55.0316 154.432 54.9709 154.574 54.9478C154.799 54.954 155.017 55.0269 155.2 55.1573C156.438 55.8269 157.939 55.8462 159.319 55.5716C160.153 55.4054 161.005 55.1092 161.557 54.4588C162.643 53.1678 162.038 51.2385 162.111 49.5549C162.169 48.2085 162.686 46.7874 162.111 45.5686C161.46 44.1765 159.55 43.478 159.391 41.9557C159.295 41.0453 159.888 40.2191 160.15 39.3424C160.774 37.2396 159.478 35.096 158.24 33.2871C157.824 32.6123 157.314 32.0001 156.725 31.4686C156.17 31.0458 155.557 30.705 154.904 30.457C153.09 29.6934 151.241 29.3081 149.364 28.7878C147.568 28.2748 145.913 28.0363 144.08 28.6626Z" fill="#85555C"/>
<path d="M153.292 60.0854H146.909V49.7428C147.099 48.7495 147.21 47.7428 147.242 46.732C147.242 46.3924 147.242 46.0456 147.242 45.6963C147.181 44.4631 146.926 43.2323 146.257 42.4808C144.496 40.5009 151.977 40.8309 151.977 40.8309C152.207 41.7401 152.505 42.6306 152.868 43.4949C153.41 44.8434 154.131 46.1129 155.012 47.2692C155.787 48.298 156.779 49.1427 157.919 49.7428C162.312 51.9443 153.292 60.0854 153.292 60.0854Z" fill="#F8BDC5"/>
<g opacity="0.1">
<path opacity="0.1" d="M152.86 43.4949C152.212 44.3399 151.346 44.9916 150.354 45.3796C149.362 45.7676 148.283 45.8772 147.234 45.6963C147.174 44.4631 146.918 43.2323 146.249 42.4808C144.488 40.5009 151.969 40.8309 151.969 40.8309C152.199 41.7401 152.497 42.6306 152.86 43.4949Z" fill="black"/>
</g>
<path d="M148.23 45.4555C151.45 45.4555 154.061 42.8447 154.061 39.6242C154.061 36.4037 151.45 33.793 148.23 33.793C145.009 33.793 142.398 36.4037 142.398 39.6242C142.398 42.8447 145.009 45.4555 148.23 45.4555Z" fill="#F8BDC5"/>
<path d="M172.434 49.6343C172.148 51.1602 171.964 52.7035 171.885 54.254C171.796 56.2363 170.384 63.4236 169.869 65.9888C169.804 66.3177 169.659 66.6255 169.446 66.8848C169.233 67.144 168.96 67.3468 168.65 67.4749C167.22 68.0602 164.618 68.3878 162.87 64.2666C161.884 61.999 161.084 59.6549 160.478 57.2576C160.263 56.4517 160.103 55.6326 159.996 54.8056L163.85 52.7149C164.213 53.0543 164.52 53.4485 164.76 53.8831C165.293 54.796 165.839 56.2604 165.724 58.3246L166.928 60.0853C166.928 60.0853 169.898 50.8434 169.337 49.1935C168.776 47.5436 171.097 47.1028 171.097 47.1028C171.097 47.1028 177.589 42.0447 178.359 42.8131C179.13 43.5814 176.064 47.4328 172.434 49.6343Z" fill="#F8BDC5"/>
<path d="M140.857 54.0349C140.557 54.8955 140.211 55.7396 139.821 56.5639C138.526 59.3507 135.987 63.7898 132.056 66.3574C126.006 70.3171 127.326 62.2868 127.326 62.2868C127.326 62.2868 128.807 52.739 129.086 51.8358C129.527 50.4051 129.305 48.206 129.305 48.206C126.996 47.1053 124.356 40.1757 125.124 39.6241C125.892 39.0726 131.387 45.4554 131.387 45.4554C131.387 45.4554 133.918 46.6597 132.591 48.6468C131.264 50.6339 131.82 59.4278 131.82 59.4278L134.366 55.9136C134.932 54.4472 135.693 53.0636 136.628 51.7997C137.109 51.1421 137.447 50.7447 137.447 50.7447L140.857 54.0349Z" fill="#F8BDC5"/>
<g opacity="0.1">
<path opacity="0.1" d="M164.764 53.883C163.954 54.1817 160.821 55.4462 160.474 57.2551C160.26 56.4492 160.099 55.6301 159.992 54.8031L163.846 52.7124C164.211 53.052 164.521 53.447 164.764 53.883Z" fill="black"/>
</g>
<g opacity="0.1">
<path opacity="0.1" d="M140.858 54.0349C140.558 54.8955 140.212 55.7397 139.823 56.564C139.673 55.4753 139.059 52.6909 136.629 51.7925C137.111 51.135 137.448 50.7375 137.448 50.7375L140.858 54.0349Z" fill="black"/>
</g>
<g opacity="0.1">
<path opacity="0.1" d="M153.293 60.0853H146.91V49.7427C147.1 48.7494 147.211 47.7427 147.243 46.7319C148.555 47.9989 148.23 49.9619 148.23 49.9619L151.641 57.6695L153.293 50.8555L152.744 49.9763L155.008 47.2835C155.783 48.3123 156.776 49.1571 157.915 49.7572C162.313 51.9442 153.293 60.0853 153.293 60.0853Z" fill="black"/>
</g>
<g opacity="0.1">
<path opacity="0.1" d="M157.8 81.2041C157.8 81.2041 152.8 80.8067 148.462 80.6188L148.026 80.5996C147.41 80.5755 146.822 80.5562 146.246 80.5418C142.036 80.4406 137.274 78.9689 136.465 78.7112C136.768 78.2408 137.096 77.7865 137.448 77.3503L144.05 78.7955C144.05 78.7955 145.09 79.1279 147.402 80.1516L143.609 77.3503L155.17 79.441C155.17 79.441 155.572 79.3904 157.699 80.5803L157.8 81.2041Z" fill="black"/>
</g>
<path d="M153.292 51.2844L152.743 50.4052L155.185 47.4836C155.185 47.4836 160.222 49.9524 161.542 49.4105C161.542 49.4105 164.733 52.06 164.842 53.5918C164.842 53.5918 160.222 55.1309 160.33 57.4456C160.439 59.7603 158.138 64.7052 158.138 64.7052L157.175 68.6601C156.582 71.057 156.5 73.5517 156.934 75.9823L157.813 80.879C157.813 80.879 150.881 80.3299 146.252 80.2191C141.623 80.1083 136.35 78.35 136.35 78.35L139.05 72.6681C140.024 70.6176 140.501 68.3665 140.442 66.0974L140.201 56.8989C140.201 56.8989 139.982 52.2791 136.348 51.5084C136.348 51.5084 138.328 47.4378 141.406 47.7678C141.406 47.7678 145.891 45.8963 147.223 47.1608C148.555 48.4254 148.227 50.4077 148.227 50.4077L151.638 58.1152L153.292 51.2844Z" fill="#ED677B"/>
<g opacity="0.1">
<path opacity="0.1" d="M144.023 38.4224C144.907 38.4224 145.601 37.4855 146.485 37.5336C146.942 37.5577 147.335 37.8492 147.713 38.1117C149.142 39.1012 150.732 39.8347 152.412 40.2795C153.065 40.4529 153.756 40.583 154.411 40.424C155.066 40.265 155.681 39.7496 155.755 39.0776C155.774 38.7814 155.734 38.4845 155.64 38.2032C154.898 35.6194 153.22 33.4046 150.933 31.9914C150.018 31.4302 148.9 31.0015 147.886 31.3531C146.971 31.6687 146.381 32.5261 145.719 33.2319C145.219 33.7603 144.652 34.2203 144.033 34.6C143.551 34.8914 142.828 35.0817 142.551 35.6164C142.029 36.6136 142.85 38.4128 144.023 38.4224Z" fill="black"/>
</g>
<path d="M144.023 38.2029C144.907 38.2029 145.601 37.266 146.485 37.3142C146.942 37.3382 147.335 37.6297 147.713 37.8922C149.142 38.8817 150.732 39.6152 152.412 40.06C153.065 40.2334 153.756 40.3635 154.411 40.2045C155.066 40.0455 155.681 39.5301 155.755 38.8581C155.774 38.5619 155.734 38.265 155.64 37.9838C154.898 35.3999 153.22 33.1852 150.933 31.7719C150.018 31.2107 148.9 30.782 147.886 31.1337C146.971 31.4492 146.381 32.3066 145.719 33.0124C145.219 33.5408 144.652 34.0008 144.033 34.3805C143.551 34.6719 142.828 34.8622 142.551 35.3969C142.029 36.4037 142.85 38.1909 144.023 38.2029Z" fill="#85555C"/>
<path opacity="0.05" d="M141.355 63.3298C141.355 63.3298 146.746 65.3097 150.267 63.7706L152.028 63.8814C152.028 63.8814 154.955 65.9336 158.05 65.0159" fill="black"/>
<path opacity="0.05" d="M166.88 60.03C166.88 60.03 166.001 62.1207 166.439 62.7807L166.88 60.03Z" fill="black"/>
<path opacity="0.05" d="M131.785 59.3701C131.785 59.3701 132.226 61.4608 131.785 62.1208V59.3701Z" fill="black"/>
<path d="M204.721 107.01C204.721 107.01 194.643 117.088 200.332 132.04C206.021 146.993 190.582 171.86 190.582 171.86C190.582 171.86 190.748 171.836 191.064 171.783C211.761 168.129 222.043 144.459 210.535 126.874C206.245 120.334 202.734 112.665 204.721 107.01Z" fill="#FC6464"/>
<path d="M204.723 107.01C204.723 107.01 199.034 119.361 204.723 129.439C210.412 139.517 205.686 167.796 190.582 171.86" stroke="white" stroke-miterlimit="10"/>
<path d="M222.669 147.769C222.669 147.769 211.17 145.938 210.122 156.242C209.074 166.546 188.004 167.975 188.004 167.975L188.399 168.237C205.789 179.654 222.416 175.509 219.908 160.349C218.984 154.715 219.061 149.055 222.669 147.769Z" fill="#FC6464"/>
<path d="M222.671 147.769C222.671 147.769 213.744 149.727 214.481 157.844C215.219 165.961 201.234 175.689 188.016 167.977" stroke="white" stroke-miterlimit="10"/>
<path d="M212.557 168.35C212.557 168.35 203.5 166.539 201.085 164.123C198.669 161.707 187.801 157.483 186.594 160.51C185.388 163.538 170.293 173.794 180.556 175.605C190.819 177.416 204.707 178.014 207.725 176.809C210.743 175.605 212.557 168.35 212.557 168.35Z" fill="#CEDDF9"/>
</g>
<defs>
<linearGradient id="paint0_linear" x1="42142.4" y1="59916.9" x2="42142.4" y2="18032.3" gradientUnits="userSpaceOnUse">
<stop stop-color="#808080" stop-opacity="0.25"/>
<stop offset="0.54" stop-color="#808080" stop-opacity="0.12"/>
<stop offset="1" stop-color="#808080" stop-opacity="0.1"/>
</linearGradient>
<clipPath id="clip0">
<rect width="223" height="186" fill="white"/>
</clipPath>
</defs>
</svg>
