<svg width="200" height="60" viewBox="0 0 200 60" fill="none" xmlns="http://www.w3.org/2000/svg">
<g clip-path="url(#clip0)">
<path d="M192.593 59.27H7.40741C3.25926 59.27 0 56.0107 0 51.8626V7.41815C0 3.27 3.25926 0.0107422 7.40741 0.0107422H192.593C196.741 0.0107422 200 3.27 200 7.41815V51.8626C200 56.0107 196.741 59.27 192.593 59.27Z" fill="#3A3768"/>
<path d="M192.593 1.19593C196 1.19593 198.815 4.01074 198.815 7.41815V51.8626C198.815 55.27 196 58.0848 192.593 58.0848H7.40741C4 58.0848 1.18519 55.27 1.18519 51.8626V7.41815C1.18519 4.01074 4 1.19593 7.40741 1.19593H192.593ZM192.593 0.0107422H7.40741C3.25926 0.0107422 0 3.41815 0 7.41815V51.8626C0 56.0107 3.25926 59.27 7.40741 59.27H192.593C196.741 59.27 200 56.0107 200 51.8626V7.41815C200 3.41815 196.741 0.0107422 192.593 0.0107422Z" fill="black"/>
<path d="M70.2209 15.1218C70.2209 16.307 69.9246 17.344 69.1839 18.0848C68.295 18.9736 67.258 19.4181 65.9246 19.4181C64.5913 19.4181 63.5543 18.9736 62.6654 18.0848C61.7765 17.1959 61.332 16.1588 61.332 14.8255C61.332 13.4922 61.7765 12.4551 62.6654 11.5662C63.5543 10.6774 64.5913 10.2329 65.9246 10.2329C66.5172 10.2329 67.1098 10.3811 67.7024 10.6774C68.295 10.9736 68.7394 11.2699 69.0357 11.7144L68.295 12.4551C67.7024 11.7144 66.9617 11.4181 65.9246 11.4181C65.0357 11.4181 64.1468 11.7144 63.5543 12.4551C62.8135 13.0477 62.5172 13.9366 62.5172 14.9736C62.5172 16.0107 62.8135 16.8996 63.5543 17.4922C64.295 18.0848 65.0357 18.5292 65.9246 18.5292C66.9617 18.5292 67.7024 18.2329 68.4431 17.4922C68.8876 17.0477 69.1839 16.4551 69.1839 15.7144H65.9246V14.5292H70.2209V15.1218ZM77.0357 11.4181H73.0357V14.2329H76.7394V15.2699H73.0357V18.0848H77.0357V19.2699H71.8505V10.3811H77.0357V11.4181ZM81.9246 19.2699H80.7394V11.4181H78.2209V10.3811H84.4431V11.4181H81.9246V19.2699ZM88.7394 19.2699V10.3811H89.9246V19.2699H88.7394ZM94.9617 19.2699H93.7765V11.4181H91.258V10.3811H97.332V11.4181H94.8135V19.2699H94.9617ZM109.036 18.0848C108.147 18.9736 107.11 19.4181 105.776 19.4181C104.443 19.4181 103.406 18.9736 102.517 18.0848C101.628 17.1959 101.184 16.1588 101.184 14.8255C101.184 13.4922 101.628 12.4551 102.517 11.5662C103.406 10.6774 104.443 10.2329 105.776 10.2329C107.11 10.2329 108.147 10.6774 109.036 11.5662C109.925 12.4551 110.369 13.4922 110.369 14.8255C110.369 16.1588 109.925 17.1959 109.036 18.0848ZM103.406 17.344C103.999 17.9366 104.888 18.381 105.776 18.381C106.665 18.381 107.554 18.0848 108.147 17.344C108.739 16.7514 109.184 15.8625 109.184 14.8255C109.184 13.7885 108.888 12.8996 108.147 12.307C107.554 11.7144 106.665 11.2699 105.776 11.2699C104.888 11.2699 103.999 11.5662 103.406 12.307C102.814 12.8996 102.369 13.7885 102.369 14.8255C102.369 15.8625 102.665 16.7514 103.406 17.344ZM111.999 19.2699V10.3811H113.332L117.628 17.344V10.3811H118.814V19.2699H117.628L113.036 12.0107V19.2699H111.999Z" fill="white"/>
<path d="M100.891 32.3067C97.3351 32.3067 94.5203 34.9734 94.5203 38.6771C94.5203 42.2326 97.3351 45.0475 100.891 45.0475C104.446 45.0475 107.261 42.3808 107.261 38.6771C107.261 34.8252 104.446 32.3067 100.891 32.3067ZM100.891 42.3808C98.9647 42.3808 97.3351 40.7512 97.3351 38.5289C97.3351 36.3067 98.9647 34.6771 100.891 34.6771C102.817 34.6771 104.446 36.1586 104.446 38.5289C104.446 40.7512 102.817 42.3808 100.891 42.3808ZM87.1129 32.3067C83.5573 32.3067 80.7425 34.9734 80.7425 38.6771C80.7425 42.2326 83.5573 45.0475 87.1129 45.0475C90.6684 45.0475 93.4832 42.3808 93.4832 38.6771C93.4832 34.8252 90.6684 32.3067 87.1129 32.3067ZM87.1129 42.3808C85.1869 42.3808 83.5573 40.7512 83.5573 38.5289C83.5573 36.3067 85.1869 34.6771 87.1129 34.6771C89.0388 34.6771 90.6684 36.1586 90.6684 38.5289C90.6684 40.7512 89.0388 42.3808 87.1129 42.3808ZM70.6684 34.2326V36.8993H77.0388C76.8906 38.3808 76.298 39.566 75.5573 40.3067C74.6684 41.1956 73.1869 42.2326 70.6684 42.2326C66.6684 42.2326 63.7054 39.1215 63.7054 35.1215C63.7054 31.1215 66.8166 28.0104 70.6684 28.0104C72.7425 28.0104 74.3721 28.8993 75.5573 29.9363L77.4832 28.0104C75.8536 26.5289 73.7795 25.3438 70.8166 25.3438C65.4832 25.3438 60.8906 29.7882 60.8906 35.1215C60.8906 40.4549 65.4832 44.8993 70.8166 44.8993C73.7795 44.8993 75.8536 44.0104 77.6314 42.0845C79.4092 40.3067 80.0018 37.7882 80.0018 35.8623C80.0018 35.2697 80.0018 34.6771 79.8536 34.2326H70.6684ZM137.928 36.3067C137.335 34.8252 135.854 32.3067 132.594 32.3067C129.335 32.3067 126.668 34.8252 126.668 38.6771C126.668 42.2326 129.335 45.0475 132.891 45.0475C135.706 45.0475 137.483 43.2697 138.076 42.2326L136.002 40.7512C135.261 41.7882 134.372 42.5289 132.891 42.5289C131.409 42.5289 130.52 41.9363 129.78 40.603L138.224 37.0475L137.928 36.3067ZM129.335 38.3808C129.335 36.0104 131.261 34.6771 132.594 34.6771C133.631 34.6771 134.668 35.2697 134.965 36.0104L129.335 38.3808ZM122.372 44.4549H125.187V25.9363H122.372V44.4549ZM117.928 33.64C117.187 32.8993 116.002 32.1586 114.52 32.1586C111.409 32.1586 108.446 34.9734 108.446 38.5289C108.446 42.0845 111.261 44.7512 114.52 44.7512C116.002 44.7512 117.187 44.0104 117.78 43.2697H117.928V44.1586C117.928 46.5289 116.594 47.8623 114.52 47.8623C112.891 47.8623 111.705 46.6771 111.409 45.64L109.039 46.6771C109.78 48.3067 111.557 50.3808 114.668 50.3808C117.928 50.3808 120.594 48.4549 120.594 43.8623V32.603H117.928V33.64ZM114.668 42.3808C112.743 42.3808 111.113 40.7512 111.113 38.5289C111.113 36.3067 112.743 34.6771 114.668 34.6771C116.594 34.6771 118.076 36.3067 118.076 38.5289C118.076 40.7512 116.594 42.3808 114.668 42.3808ZM150.817 25.9363H144.15V44.4549H146.965V37.4919H150.817C153.928 37.4919 156.891 35.2697 156.891 31.7141C156.891 28.1586 153.928 25.9363 150.817 25.9363ZM150.965 34.8252H146.965V28.4549H150.965C153.039 28.4549 154.224 30.2326 154.224 31.566C154.076 33.1956 152.891 34.8252 150.965 34.8252ZM168.002 32.1586C165.928 32.1586 163.854 33.0475 163.113 34.9734L165.631 36.0104C166.224 34.9734 167.113 34.6771 168.15 34.6771C169.631 34.6771 170.965 35.566 171.113 37.0475V37.1956C170.669 36.8993 169.483 36.4549 168.298 36.4549C165.631 36.4549 162.965 37.9363 162.965 40.603C162.965 43.1215 165.187 44.7512 167.557 44.7512C169.483 44.7512 170.372 43.8623 171.113 42.9734H171.261V44.4549H173.928V37.3438C173.631 34.0845 171.113 32.1586 168.002 32.1586ZM167.706 42.3808C166.817 42.3808 165.483 41.9363 165.483 40.7512C165.483 39.2697 167.113 38.8252 168.446 38.8252C169.631 38.8252 170.224 39.1215 170.965 39.4178C170.669 41.1956 169.187 42.3808 167.706 42.3808ZM183.261 32.603L180.15 40.603H180.002L176.743 32.603H173.78L178.669 43.8623L175.854 50.0845H178.669L186.224 32.603H183.261ZM158.372 44.4549H161.187V25.9363H158.372V44.4549Z" fill="white"/>
<path d="M20.1279 10.4906C19.1362 9.8936 17.9542 9.84022 16.9233 10.3372L34.2071 27.6579L39.8584 21.9803L20.1279 10.4906ZM15.3353 11.9403C15.1173 12.4019 15 12.9155 15 13.4441V45.1274C15 45.6582 15.118 46.1642 15.3384 46.6161L32.6154 29.2571L15.3353 11.9403ZM34.2095 30.8542L16.9535 48.1921C17.4114 48.4041 17.8986 48.4966 18.3851 48.4966C18.9859 48.4966 19.5851 48.353 20.128 48.0267L39.8622 36.5197L34.2095 30.8542ZM47.3729 26.3563C47.3661 26.3518 47.3586 26.3473 47.3518 26.3436L41.8735 23.1533L35.8005 29.2549L41.8773 35.3445C41.8773 35.3445 47.3661 32.1444 47.3729 32.1407C48.3917 31.5219 49 30.4406 49 29.2481C49 28.0556 48.3917 26.9744 47.3729 26.3563Z" fill="white"/>
<path opacity="0.2" d="M40.0028 35.7144L18.5213 47.8625C17.3361 48.6032 16.299 48.4551 15.5583 47.8625L15.4102 48.0106L15.5583 48.1588C16.299 48.7513 17.3361 48.8995 18.5213 48.1588L40.0028 35.7144Z" fill="black"/>
<path opacity="0.2" d="M15.409 47.8629C14.9646 47.4184 14.8164 46.6777 14.8164 45.7888V45.9369C14.8164 46.8258 15.1127 47.5666 15.5571 48.011V47.8629H15.409ZM47.409 31.5666L40.0016 35.7147L40.1498 35.8629L47.409 31.7147C48.4461 31.1221 48.8905 30.3814 48.8905 29.6406C48.8905 30.3814 48.2979 30.974 47.409 31.5666Z" fill="black"/>
<path opacity="0.2" d="M18.5201 11.2699L47.409 27.7144C48.2979 28.307 48.8905 28.8996 48.8905 29.6403C48.8905 28.8996 48.4461 28.1588 47.409 27.5662L18.5201 11.1218C16.446 9.93662 14.8164 10.8255 14.8164 13.1959V13.344C14.8164 11.1218 16.446 10.0848 18.5201 11.2699Z" fill="white"/>
</g>
<defs>
<clipPath id="clip0">
<rect width="200" height="59.28" fill="white"/>
</clipPath>
</defs>
</svg>
