<svg width="61" height="50" viewBox="0 0 61 50" fill="none" xmlns="http://www.w3.org/2000/svg">
<g clip-path="url(#clip0)">
<path d="M39.4062 27.0383H44.2795L52.8497 36.9385V27.0383H55.2023C57.807 27.0383 59.9916 24.9584 59.9916 22.2962V5.74045C59.9916 3.16141 57.807 0.998352 55.2023 0.998352H30.1638C27.5591 0.998352 25.3745 3.16141 25.3745 5.74045V9.40101" stroke="#FC6464" stroke-width="2.5" stroke-miterlimit="10" stroke-linejoin="round"/>
<path d="M8.15017 48.9185V39.0183H5.79756C3.19287 39.0183 1.0083 36.8553 1.0083 34.2762V17.8037C1.0083 15.2246 3.19287 13.0616 5.79756 13.0616H30.8361C33.4408 13.0616 35.6254 15.2246 35.6254 17.8037V34.3594C35.6254 36.9385 33.4408 39.1015 30.8361 39.1015H16.7204L8.15017 48.9185Z" stroke="#FC6464" stroke-width="2.5" stroke-miterlimit="10" stroke-linecap="round" stroke-linejoin="round"/>
<path d="M41.8431 14.6423C42.2143 14.6423 42.5153 14.3443 42.5153 13.9767C42.5153 13.6091 42.2143 13.3112 41.8431 13.3112C41.4718 13.3112 41.1709 13.6091 41.1709 13.9767C41.1709 14.3443 41.4718 14.6423 41.8431 14.6423Z" stroke="#FC6464" stroke-width="2.5" stroke-miterlimit="10"/>
<path d="M48.9007 14.6423C49.2719 14.6423 49.5729 14.3443 49.5729 13.9767C49.5729 13.6091 49.2719 13.3112 48.9007 13.3112C48.5295 13.3112 48.2285 13.6091 48.2285 13.9767C48.2285 14.3443 48.5295 14.6423 48.9007 14.6423Z" stroke="#FC6464" stroke-width="2.5" stroke-miterlimit="10"/>
<path d="M23.1063 21.797C23.4775 21.797 23.7784 21.499 23.7784 21.1314C23.7784 20.7639 23.4775 20.4659 23.1063 20.4659C22.735 20.4659 22.4341 20.7639 22.4341 21.1314C22.4341 21.499 22.735 21.797 23.1063 21.797Z" stroke="#FC6464" stroke-width="2.5" stroke-miterlimit="10"/>
<path d="M13.5276 21.797C13.8989 21.797 14.1998 21.499 14.1998 21.1314C14.1998 20.7639 13.8989 20.4659 13.5276 20.4659C13.1564 20.4659 12.8555 20.7639 12.8555 21.1314C12.8555 21.499 13.1564 21.797 13.5276 21.797Z" stroke="#FC6464" stroke-width="2.5" stroke-miterlimit="10"/>
<path d="M26.6349 28.619C24.9545 30.782 21.8456 32.1963 18.3167 32.1963C14.7878 32.1963 11.679 30.782 9.99854 28.619" stroke="#FC6464" stroke-width="2.5" stroke-miterlimit="10" stroke-linecap="round" stroke-linejoin="round"/>
</g>
<defs>
<clipPath id="clip0">
<rect width="61" height="50" fill="white"/>
</clipPath>
</defs>
</svg>
