<svg width="49" height="40" viewBox="0 0 49 40" fill="none" xmlns="http://www.w3.org/2000/svg">
<path d="M23.1966 1.70824C22.4004 1.25744 21.4563 1.27214 20.6731 1.74417C20.6355 1.76622 20.5996 1.79236 20.5669 1.82012L9.5011 11.1816H0.816667C0.36505 11.1816 0 11.5466 0 11.9982V27.5149C0 27.7321 0.08575 27.9396 0.239283 28.0923C0.392817 28.245 0.599433 28.3316 0.816667 28.3316L9.4815 28.3275L20.5416 38.4868C20.5824 38.5244 20.6265 38.5571 20.6731 38.5848C21.0749 38.8274 21.52 38.9491 21.9651 38.9491C22.3873 38.9482 22.8087 38.8396 23.1966 38.6208C24.0124 38.1602 24.5 37.319 24.5 36.37V3.95897C24.5 3.01082 24.0124 2.16966 23.1966 1.70824ZM22.8667 36.37C22.8667 36.722 22.6894 37.0315 22.3938 37.1989C22.2672 37.27 21.9463 37.4072 21.5772 37.2202L10.6167 27.1515L9.8 26.6974L8.98333 26.6942L1.63333 26.6974V12.8141H8.98333H9.90925L10.6167 12.3764L21.5641 3.11536C21.9406 2.91772 22.2672 3.05819 22.3938 3.13006C22.6894 3.29747 22.8667 3.60699 22.8667 3.95897V36.37Z" fill="#FC6464"/>
<path d="M36.3028 0.578004C35.8879 0.404054 35.4085 0.595154 35.2313 1.01084C35.0557 1.42652 35.2493 1.9059 35.665 2.0823C42.7732 5.09825 47.3662 12.0367 47.3662 19.7566C47.3662 27.7412 42.5527 34.7669 35.1039 37.653C34.6833 37.8164 34.4743 38.2892 34.6376 38.7098C34.7625 39.0332 35.0721 39.2317 35.3995 39.2317C35.4975 39.2317 35.5972 39.2145 35.6944 39.1769C43.7769 36.0434 48.9995 28.4206 48.9995 19.7566C48.9995 11.3792 44.0154 3.8512 36.3028 0.578004Z" fill="#FC6464"/>
<path d="M39.1378 19.7566C39.1378 14.8794 35.8638 10.5266 31.1761 9.17095C30.7433 9.04763 30.2908 9.29508 30.1651 9.72955C30.0401 10.1624 30.2892 10.6156 30.7237 10.7406C34.7163 11.8945 37.5053 15.6022 37.5053 19.7566C37.5053 23.911 34.7163 27.6186 30.7237 28.7726C30.29 28.8975 30.0401 29.3508 30.1651 29.7836C30.2688 30.1413 30.5946 30.3741 30.9499 30.3741C31.025 30.3741 31.101 30.3634 31.1761 30.3422C35.8646 28.9857 39.1378 24.6329 39.1378 19.7566Z" fill="#FC6464"/>
</svg>
