<svg width="52" height="49" viewBox="0 0 52 49" fill="none" xmlns="http://www.w3.org/2000/svg">
<path d="M46.6507 12.2348L48.2559 10.2076C48.3481 10.0911 48.4099 9.95343 48.4356 9.80707C48.4612 9.66071 48.45 9.51026 48.403 9.36932C48.3559 9.22838 48.2744 9.10139 48.1659 8.99983C48.0575 8.89828 47.9254 8.82536 47.7816 8.78767L14.3967 0.0292157C14.1673 -0.0308982 13.9234 0.00255122 13.7187 0.122209C13.514 0.241867 13.3652 0.437934 13.3051 0.667287L9.99239 13.2942C9.93228 13.5236 9.96573 13.7674 10.0854 13.9721C10.205 14.1769 10.4011 14.3257 10.6305 14.3858L20.8596 17.0697L26 32.5C26 32.5 21.9047 34 21.9047 39L6.89646 38.8779V35.7462C6.89476 34.2718 6.30832 32.8584 5.26581 31.8159C4.2233 30.7734 2.80985 30.1869 1.33551 30.1852H0.894158C0.657012 30.1852 0.429579 30.2794 0.261892 30.4471C0.094205 30.6148 0 30.8422 0 31.0794C0 31.3165 0.094205 31.544 0.261892 31.7117C0.429579 31.8793 0.657012 31.9735 0.894158 31.9735H1.3348C2.33496 31.9749 3.29377 32.3728 4.00099 33.08C4.70821 33.7872 5.1061 34.746 5.10743 35.7462V43.4388C5.1061 44.4389 4.70821 45.3978 4.00099 46.105C3.29377 46.8122 2.33496 47.2101 1.3348 47.2114H0.894158C0.657012 47.2114 0.429579 47.3056 0.261892 47.4733C0.094205 47.641 0 47.8684 0 48.1056C0 48.3427 0.094205 48.5702 0.261892 48.7378C0.429579 48.9055 0.657012 48.9997 0.894158 48.9997H1.3348C2.80913 48.998 4.22259 48.4116 5.2651 47.3691C6.30761 46.3266 6.89404 44.9131 6.89574 43.4388V40.6676L21.9047 40.7284C21.9047 40.7284 22.3063 41.8726 22.7252 42.5167C23.4935 43.6983 24.3266 44.3726 25.4304 44.9056C26.5342 45.4385 27.7635 45.6575 28.9834 45.5385C30.2034 45.4194 31.3671 44.967 32.3471 44.2307C33.3271 43.4944 34.0856 42.5027 34.5396 41.3641C34.9935 40.2255 35.1254 38.9839 34.9208 37.7753C34.7162 36.5667 34.183 35.4378 33.3795 34.512C32.5761 33.5863 31.5334 32.8995 30.3656 32.5268C29.1979 32.1541 28 32 28 32L22.8482 17.5919L25.2088 18.2114L27.1974 18.7329L38.4795 21.6929C38.6479 21.7374 38.8255 21.7318 38.9907 21.6768C39.1559 21.6217 39.3015 21.5197 39.4095 21.3831L41.5011 18.7414L46.6507 12.2348ZM33.1854 38.8779C33.1854 39.8429 32.8993 40.7862 32.3631 41.5886C31.827 42.391 31.0649 43.0164 30.1734 43.3857C29.2818 43.755 28.3008 43.8516 27.3543 43.6634C26.4078 43.4751 25.5384 43.0104 24.856 42.328C24.1737 41.6456 23.709 40.7762 23.5207 39.8298C23.3324 38.8833 23.429 37.9022 23.7983 37.0107C24.1676 36.1191 24.793 35.3571 25.5954 34.8209C26.3978 34.2848 27.3412 33.9986 28.3062 33.9986C29.5998 34 30.8401 34.5144 31.7549 35.4292C32.6696 36.3439 33.1841 37.5842 33.1854 38.8779ZM38.3687 19.8144L11.9488 12.8836L14.8101 1.98635L46.0041 10.1704L40.4538 17.1806L38.3687 19.8144Z" fill="#FC6464"/>
<path d="M45.5 12.5L51 13.5L46.5 20L41.5 18L46 12L45.5 12.5Z" stroke="#FC6464" stroke-linecap="round" stroke-linejoin="round"/>
</svg>
