<svg width="428" height="319" viewBox="0 0 428 319" fill="none" xmlns="http://www.w3.org/2000/svg">
    <path d="M182.917 56.4482L186.074 81.982C182.198 89.5672 178.093 98.1902 174.178 107.492L166.742 68.9894L166.367 69.3322C171.803 63.8315 177.522 59.3536 183.298 56.1406L182.917 56.4482Z" fill="#FC6464"/>
    <path d="M186.758 80.6526L183.699 55.9188C190.197 52.3719 196.762 50.4339 203.074 50.4687C203.402 50.4705 203.727 50.4819 204.051 50.4943C202.783 52.4322 195.418 63.8566 186.758 80.6526Z" fill="#FC6464"/>
    <path d="M136.221 120.491L135.88 120.95C137.01 117.514 138.256 114.147 139.617 110.851L158.793 153.81L158.957 153.606C158.472 155.72 158.025 157.813 157.616 159.886L136.221 120.491Z" fill="#FC6464"/>
    <path d="M149.208 91.9437L148.845 92.3528C153.647 84.1574 159.403 76.5597 165.992 69.7183L173.57 108.954C169.941 117.689 166.813 126.215 164.187 134.533L149.208 91.9437Z" fill="#FC6464"/>
    <path d="M234.162 89.9341C234.666 96.6808 234.488 103.461 233.629 110.172L166.748 128.952C169.171 121.783 171.779 115 174.373 108.779L234.081 90.4993L234.162 89.9341Z" fill="#FC6464"/>
    <path d="M232.419 117.948L232.51 117.382L164.651 135.407C165.202 133.635 165.766 131.882 166.344 130.15L233.471 111.301L233.559 110.734C233.258 113.099 232.878 115.504 232.419 117.948Z" fill="#FC6464"/>
    <path d="M140.234 109.78L139.883 110.217C142.372 104.253 145.261 98.4645 148.529 92.8896L163.711 136.055C161.991 141.611 160.505 147.053 159.251 152.381L140.234 109.78Z" fill="#FC6464"/>
    <path d="M154.515 183.798C153.823 196.124 154.72 207.509 157.207 217.828C151.935 210.282 131.406 178.794 131.41 146.145L154.515 183.798Z" fill="#FC6464"/>
    <path d="M223.914 144.093C221.116 149.634 217.949 154.982 214.435 160.1L214.499 159.478L155.373 182.674C155.825 175.78 156.691 168.92 157.964 162.13L223.914 144.093Z" fill="#FC6464"/>
    <path d="M187.357 80.9748C196.731 62.8051 204.563 50.9918 204.676 50.8225L204.459 50.5112C214.04 51.0125 221.632 56.1611 226.781 64.6218L187.357 80.9748Z" fill="#FC6464"/>
    <path d="M157.312 161.492C157.191 162.136 157.065 162.781 156.95 163.421C155.841 169.552 155.066 175.739 154.629 181.955L131.743 144.658L131.421 145.116C131.469 139.368 132.246 133.649 133.733 128.097C134.326 125.917 134.97 123.761 135.662 121.627L157.312 161.492Z" fill="#FC6464"/>
    <path d="M174.896 107.539C178.773 98.3459 182.832 89.8259 186.664 82.3297L226.993 65.6011L227.044 65.0469C230.855 71.4939 233.276 79.8042 234.117 89.4077L174.896 107.539Z" fill="#FC6464"/>
    <path d="M155.307 183.769L214 160.742C192.94 191.438 160.608 217.773 158.542 219.441C155.477 208.048 154.633 195.948 155.307 183.769Z" fill="#FC6464"/>
    <path d="M158.209 160.977L158.189 160.939C159.783 152.72 161.818 144.592 164.287 136.592L232.312 118.522C231.676 121.831 230.892 125.199 229.962 128.627C228.589 133.519 226.773 138.275 224.536 142.836L158.209 160.977Z" fill="#FC6464"/>
    <path d="M68.2442 164.088L86.962 181.74C88.8149 190.054 91.153 199.313 94.0703 208.974L63.7859 184.063L63.7152 184.567C64.3939 176.863 65.9424 169.766 68.3421 163.607L68.2442 164.088Z" fill="#FC6464"/>
    <path d="M86.6406 180.281L68.509 163.182C71.2516 156.306 75.0715 150.626 79.9555 146.627C80.2096 146.419 80.4667 146.221 80.7241 146.023C80.9837 148.325 82.5977 161.821 86.6406 180.281Z" fill="#FC6464"/>
    <path d="M73.1295 243.196L73.1603 243.767C71.8388 240.4 70.651 237.013 69.5968 233.606L111.766 254.461L111.762 254.2C112.737 256.137 113.727 258.035 114.734 259.892L73.1295 243.196Z" fill="#FC6464"/>
    <path d="M64.9241 212.928L64.9059 213.474C63.3773 204.099 62.9644 194.576 63.6758 185.104L94.5375 210.49C97.3131 219.532 100.342 228.094 103.625 236.175L64.9241 212.928Z" fill="#FC6464"/>
    <path d="M129.073 157.194C133.765 162.069 137.952 167.405 141.57 173.122L102.038 230.243C99.3316 223.176 97.0134 216.289 95.0444 209.843L129.371 157.681L129.073 157.194Z" fill="#FC6464"/>
    <path d="M145.598 179.882L145.307 179.388L104.539 236.552C103.833 234.835 103.15 233.125 102.49 231.423L142.169 174.09L141.875 173.599C143.151 175.612 144.392 177.707 145.598 179.882Z" fill="#FC6464"/>
    <path d="M69.3854 232.389L69.3935 232.95C67.5067 226.769 66.0391 220.468 65.0008 214.09L104.225 237.652C106.445 243.028 108.771 248.168 111.203 253.071L69.3854 232.389Z" fill="#FC6464"/>
    <path d="M127.597 280.289C134.925 290.223 142.878 298.42 151.375 304.781C142.502 302.332 106.607 291.174 85.7859 266.025L127.597 280.289Z" fill="#FC6464"/>
    <path d="M155.723 205.443C157.103 211.496 158.075 217.634 158.633 223.817L158.285 223.297L127.542 278.874C123.493 273.276 119.784 267.441 116.434 261.399L155.723 205.443Z" fill="#FC6464"/>
    <path d="M87.3081 180.147C82.9389 160.174 81.4364 146.08 81.4153 145.877L81.0501 145.776C88.7487 140.051 97.88 139.174 107.242 142.406L87.3081 180.147Z" fill="#FC6464"/>
    <path d="M115.523 261.324C115.84 261.898 116.155 262.475 116.474 263.041C119.53 268.471 122.88 273.731 126.508 278.796L85.0927 264.668L85.1368 265.227C81.5081 260.768 78.4589 255.868 76.062 250.643C75.1295 248.586 74.2495 246.515 73.4221 244.43L115.523 261.324Z" fill="#FC6464"/>
    <path d="M94.6517 208.556C91.7743 199.003 89.4668 189.851 87.6368 181.634L108.028 143.027L107.714 142.568C114.761 145.103 121.926 149.959 128.699 156.819L94.6517 208.556Z" fill="#FC6464"/>
    <path d="M128.189 279.76L158.707 224.59C162.065 261.664 153.96 302.568 153.433 305.171C143.806 298.351 135.438 289.57 128.189 279.76Z" fill="#FC6464"/>
    <path d="M115.888 260.354L115.849 260.338C111.834 252.991 108.218 245.433 105.016 237.697L145.884 180.392C147.504 183.346 149.049 186.44 150.518 189.674C152.581 194.317 154.216 199.138 155.402 204.078L115.888 260.354Z" fill="#FC6464"/>
    <path d="M224.643 164.967L219.754 190.226C213.723 196.242 207.154 203.174 200.556 210.81L205.385 171.895L204.921 172.105C211.792 168.554 218.615 166.063 225.102 164.792L224.643 164.967Z" fill="#FC6464"/>
    <path d="M220.814 189.173L225.55 164.705C232.826 163.34 239.668 163.526 245.661 165.511C245.973 165.614 246.278 165.725 246.582 165.837C244.777 167.288 234.241 175.876 220.814 189.173Z" fill="#FC6464"/>
    <path d="M160.437 211.44L159.972 211.772C162.108 208.853 164.333 206.036 166.647 203.322L171.605 250.105L171.824 249.962C170.709 251.822 169.637 253.674 168.608 255.519L160.437 211.44Z" fill="#FC6464"/>
    <path d="M181.613 188.305L181.142 188.582C188.242 182.272 196.064 176.826 204.445 172.356L199.525 212.013C193.373 219.198 187.763 226.34 182.694 233.438L181.613 188.305Z" fill="#FC6464"/>
    <path d="M263.027 212.653C261.421 219.225 259.156 225.618 256.265 231.735L186.854 228.923C191.374 222.854 195.951 217.208 200.341 212.095L262.776 213.165L263.027 212.653Z" fill="#FC6464"/>
    <path d="M252.709 238.757L252.971 238.246L182.864 234.414C183.936 232.898 185.014 231.406 186.099 229.938L255.765 232.76L256.023 232.248C255.006 234.405 253.901 236.574 252.709 238.757Z" fill="#FC6464"/>
    <path d="M167.564 202.494L167.095 202.801C171.305 197.898 175.842 193.286 180.673 188.994L181.77 234.738C178.417 239.491 175.321 244.207 172.481 248.886L167.564 202.494Z" fill="#FC6464"/>
    <path d="M158.266 277.301C153.797 288.809 151.131 299.914 150.307 310.496C147.626 301.69 137.834 265.399 147.931 234.35L158.266 277.301Z" fill="#FC6464"/>
    <path d="M236.539 260.992C232.165 265.397 227.5 269.504 222.577 273.285L222.83 272.713L159.429 276.498C161.99 270.081 164.933 263.825 168.243 257.761L236.539 260.992Z" fill="#FC6464"/>
    <path d="M221.283 189.665C235.815 175.283 246.915 166.469 247.074 166.343L246.965 165.98C255.921 169.418 261.55 176.661 263.832 186.299L221.283 189.665Z" fill="#FC6464"/>
    <path d="M167.82 256.951C167.505 257.526 167.186 258.101 166.88 258.674C163.929 264.162 161.28 269.807 158.943 275.583L148.706 233.038L148.258 233.375C150.081 227.923 152.587 222.725 155.717 217.903C156.956 216.014 158.234 214.162 159.552 212.347L167.82 256.951Z" fill="#FC6464"/>
    <path d="M201.219 211.076C207.748 203.532 214.242 196.684 220.204 190.739L263.729 187.295L263.948 186.784C265.58 194.093 265.314 202.745 263.145 212.138L201.219 211.076Z" fill="#FC6464"/>
    <path d="M159.028 277.519L221.965 273.762C192.448 296.445 153.559 311.496 151.079 312.444C151.685 300.662 154.623 288.893 159.028 277.519Z" fill="#FC6464"/>
    <path d="M168.833 256.74L168.825 256.697C172.881 249.373 177.33 242.273 182.15 235.427L252.43 239.27C250.802 242.219 249.015 245.18 247.071 248.153C244.253 252.38 241.056 256.342 237.519 259.989L168.833 256.74Z" fill="#FC6464"/>
    <path d="M217.777 318C217.777 318 119.216 278.947 0.19838 318H217.777Z" fill="#2F2E41"/>
    <path d="M207 9C228.207 13.583 251.361 21.4946 274.685 32.6603C291.579 40.6939 307.745 50.176 323 61" stroke="#2F2E41" stroke-miterlimit="10"/>
    <path d="M137 317H354" stroke="#3F3D56" stroke-miterlimit="10"/>
    <path d="M125.637 72C113.787 54.7135 109.716 38.381 115.804 25.7106C122.539 11.6967 140.565 4.52799 165 4" stroke="#2F2E41" stroke-miterlimit="10"/>
    <path d="M372.914 110C382.765 125.764 385.822 140.544 380.203 152.204C375.258 162.466 364.21 169.037 349 172" stroke="#2F2E41" stroke-miterlimit="10"/>
    <path d="M323 61C332.902 67.96 342.262 75.6483 351 84" stroke="#2F2E41" stroke-miterlimit="10"/>
    <path d="M403 110C411.447 122.636 416.642 134.864 418 146" stroke="#2F2E41" stroke-miterlimit="10"/>
    <path d="M312 32C320.759 37.1567 329.092 42.49 337 48" stroke="#2F2E41" stroke-miterlimit="10"/>
    <path d="M324.301 220C322.063 220.127 319.905 220.878 318.069 222.169C316.232 223.46 314.79 225.239 313.903 227.308C311.303 233.626 314.651 241.047 319.676 245.654C324.701 250.261 331.157 252.894 337.022 256.355C344.9 261.005 351.979 267.458 355.92 275.743C359.862 284.027 360.281 294.289 355.648 302.203C351.347 309.549 343.528 313.945 336.07 318" stroke="#3F3D56" stroke-miterlimit="10"/>
    <path d="M331 225C335.971 225 340 222.985 340 220.5C340 218.015 335.971 216 331 216C326.029 216 322 218.015 322 220.5C322 222.985 326.029 225 331 225Z" fill="#57B894"/>
    <path d="M338.5 255C343.747 255 348 252.985 348 250.5C348 248.015 343.747 246 338.5 246C333.253 246 329 248.015 329 250.5C329 252.985 333.253 255 338.5 255Z" fill="#57B894"/>
    <path d="M321.5 259C326.747 259 331 256.985 331 254.5C331 252.015 326.747 250 321.5 250C316.253 250 312 252.015 312 254.5C312 256.985 316.253 259 321.5 259Z" fill="#57B894"/>
    <path d="M348 284C352.971 284 357 281.985 357 279.5C357 277.015 352.971 275 348 275C343.029 275 339 277.015 339 279.5C339 281.985 343.029 284 348 284Z" fill="#57B894"/>
    <path d="M366 284C370.971 284 375 281.985 375 279.5C375 277.015 370.971 275 366 275C361.029 275 357 277.015 357 279.5C357 281.985 361.029 284 366 284Z" fill="#57B894"/>
    <path d="M300 171C275.842 167.021 248.512 158.373 220.943 145.177C189.553 130.152 162.953 111.674 144 93" stroke="#2F2E41" stroke-miterlimit="10"/>
    <path d="M202 154C180.407 142.682 160.858 130.1 144 117" stroke="#2F2E41" stroke-miterlimit="10"/>
    <path d="M412 55C420.284 55 427 48.2843 427 40C427 31.7157 420.284 25 412 25C403.716 25 397 31.7157 397 40C397 48.2843 403.716 55 412 55Z" stroke="#2F2E41" stroke-miterlimit="10"/>
</svg>
