<svg width="660" height="553" viewBox="0 0 660 553" fill="none" xmlns="http://www.w3.org/2000/svg">
<g clip-path="url(#clip0)">
<path opacity="0.1" d="M66.8869 16.5606C42.0683 20.9974 13.5689 28.904 3.5288 53.2137C-5.64597 75.4387 5.12202 100.475 12.3671 123.475C19.5069 146.182 23.2103 169.827 23.3548 193.627C23.5402 227.105 17.0094 262.407 30.2771 292.827C45.2479 327.148 82.2973 347.001 95.2834 382.179C100.729 396.93 101.388 413.072 103.984 428.659C109.739 463.2 125.459 495.821 148.533 521.091C163.874 537.892 183.852 551.991 205.978 552.327C222.762 552.587 238.612 544.982 254.159 538.324C272.298 530.559 290.89 523.895 309.833 518.368C317.813 516.044 326.033 513.904 334.288 514.631C350.192 516.003 363.46 527.66 378.555 533.146C419.463 547.958 461.752 515.77 504.914 512.375C541.915 509.461 579.081 528.037 615.437 520.282C620.793 519.137 626.521 517.059 629.329 512.121C633.979 503.94 628.21 492.619 632.344 484.136C636.478 475.653 647.638 474.776 654.189 468.323C660.857 461.753 661.4 450.411 658.001 441.49C654.601 432.568 648.043 425.464 641.739 418.517C610.535 384.108 581.806 347.54 555.766 309.086C529.203 269.868 504.344 223.738 511.815 176.209C514.397 159.854 520.743 144.377 523.62 128.077C526.498 111.776 525.317 93.3161 514.761 81.0138C508.457 73.6627 499.612 69.4179 491.028 65.372C410.968 27.6354 325.188 -11.0063 238.509 3.27774C224.396 5.60242 210.428 9.33288 196.151 9.84033C175.487 10.5809 156.039 1.35766 135.856 4.35436C112.939 7.73509 89.7827 12.4667 66.8869 16.5606Z" fill="#FC6464"/>
<path d="M130.21 117.16C130.21 117.16 101.965 101.676 93.5868 77.9556C90.1391 67.9813 83.5436 59.3932 74.7909 53.4814C70.6141 50.706 66.1913 48.3188 61.5781 46.3496" stroke="#535461" stroke-width="2" stroke-miterlimit="10"/>
<path d="M56.2217 31.4345C58.8931 34.1157 61.7705 46.7266 61.7705 46.7266C61.7705 46.7266 49.1621 43.7779 46.4907 41.0898C45.311 39.7816 44.6803 38.0705 44.7292 36.3107C44.7781 34.551 45.5029 32.8775 46.7535 31.6366C48.004 30.3958 49.6846 29.6828 51.4471 29.6451C53.2097 29.6075 54.9192 30.2482 56.2217 31.4345Z" fill="#F65252"/>
<path d="M79.056 38.3126C79.8388 42.0156 75.3957 54.1602 75.3957 54.1602C75.3957 54.1602 66.4201 44.8409 65.6372 41.131C65.3515 39.3894 65.7494 37.6048 66.7479 36.1486C67.7464 34.6924 69.2687 33.6766 70.9981 33.3127C72.7275 32.9488 74.5309 33.2646 76.033 34.1946C77.5351 35.1246 78.6203 36.5971 79.0628 38.3057L79.056 38.3126Z" fill="#F65252"/>
<path d="M103.984 64.0556C102.789 67.642 92.8105 75.8915 92.8105 75.8915C92.8105 75.8915 89.7751 63.3218 90.97 59.7285C91.5447 58.0007 92.7831 56.5717 94.4129 55.7557C96.0427 54.9397 97.9304 54.8037 99.6607 55.3775C101.391 55.9513 102.822 57.1879 103.639 58.8154C104.456 60.4428 104.593 62.3278 104.018 64.0556H103.984Z" fill="#FC6464"/>
<path d="M118.482 87.7754C117.912 91.5127 109.472 101.326 109.472 101.326C109.472 101.326 104.349 89.4486 104.919 85.7113C105.014 84.7876 105.296 83.8929 105.748 83.0812C106.199 82.2696 106.811 81.558 107.546 80.9896C108.282 80.4211 109.125 80.0077 110.025 79.7743C110.925 79.541 111.863 79.4925 112.782 79.632C113.701 79.7714 114.583 80.0958 115.373 80.5855C116.163 81.0752 116.845 81.72 117.378 82.4808C117.911 83.2416 118.284 84.1025 118.473 85.0115C118.663 85.9204 118.666 86.8584 118.482 87.7685V87.7754Z" fill="#FC6464"/>
<path d="M65.7007 64.8234C69.4915 64.7823 80.3968 57.8014 80.3968 57.8014C80.3968 57.8014 69.3335 51.0811 65.5427 51.1223C63.7214 51.1432 61.983 51.8857 60.7099 53.1865C59.4369 54.4873 58.7334 56.2399 58.7544 58.0586C58.7753 59.8773 59.5189 61.6132 60.8216 62.8844C62.1243 64.1557 63.8794 64.8581 65.7007 64.8372V64.8234Z" fill="#F65252"/>
<path d="M82.9707 92.3493C86.5692 91.1767 94.8856 81.2608 94.8856 81.2608C94.8856 81.2608 82.3114 78.1544 78.7129 79.327C77.0456 79.9401 75.6811 81.1748 74.9062 82.7714C74.1313 84.3681 74.0063 86.2025 74.5576 87.8893C75.1088 89.576 76.2932 90.9838 77.8621 91.8168C79.431 92.6497 81.2621 92.8431 82.9707 92.3562V92.3493Z" fill="#F65252"/>
<path d="M103.437 116.803C107.187 116.254 117.062 107.888 117.062 107.888C117.062 107.888 105.195 102.704 101.452 103.253C100.531 103.347 99.6375 103.628 98.8271 104.076C98.0166 104.525 97.3054 105.133 96.7364 105.863C96.1674 106.593 95.7522 107.431 95.516 108.326C95.2797 109.22 95.2273 110.154 95.3618 111.069C95.4963 111.985 95.8149 112.864 96.2985 113.653C96.7822 114.442 97.4208 115.126 98.1759 115.662C98.931 116.198 99.787 116.576 100.692 116.774C101.598 116.971 102.534 116.983 103.444 116.81L103.437 116.803Z" fill="#FC6464"/>
<path d="M104.804 211.792C104.804 211.792 76.5587 196.308 68.1806 172.588C64.7329 162.614 58.1374 154.026 49.3847 148.114C45.2078 145.339 40.7851 142.952 36.1719 140.982" stroke="#535461" stroke-width="2" stroke-miterlimit="10"/>
<path d="M30.8155 126.067C33.4869 128.749 36.3643 141.359 36.3643 141.359C36.3643 141.359 23.7558 138.411 21.0844 135.723C19.9047 134.414 19.274 132.703 19.323 130.944C19.3719 129.184 20.0967 127.51 21.3472 126.269C22.5978 125.029 24.2783 124.316 26.0409 124.278C27.8034 124.24 29.5129 124.881 30.8155 126.067Z" fill="#F65252"/>
<path d="M53.6458 132.945C54.4287 136.648 49.9855 148.793 49.9855 148.793C49.9855 148.793 41.0099 139.474 40.227 135.764C39.9414 134.022 40.3392 132.238 41.3377 130.781C42.3362 129.325 43.8585 128.309 45.588 127.946C47.3174 127.582 49.1207 127.897 50.6228 128.827C52.1249 129.757 53.2101 131.23 53.6527 132.939L53.6458 132.945Z" fill="#F65252"/>
<path d="M78.5774 158.688C77.3825 162.275 67.4042 170.524 67.4042 170.524C67.4042 170.524 64.3689 157.955 65.5638 154.361C65.8483 153.506 66.2988 152.715 66.8895 152.033C67.4803 151.351 68.1997 150.793 69.0067 150.389C69.8137 149.984 70.6924 149.743 71.5929 149.678C72.4933 149.613 73.3977 149.726 74.2544 150.01C75.1111 150.294 75.9034 150.744 76.5861 151.334C77.2687 151.924 77.8283 152.642 78.233 153.448C78.6376 154.254 78.8793 155.132 78.9443 156.031C79.0093 156.93 78.8963 157.833 78.6117 158.688H78.5774Z" fill="#F65252"/>
<path d="M93.0721 182.408C92.5021 186.145 84.0622 195.958 84.0622 195.958C84.0622 195.958 78.9391 184.081 79.5091 180.344C79.6041 179.42 79.8859 178.526 80.3375 177.714C80.7891 176.902 81.401 176.191 82.1362 175.622C82.8714 175.054 83.7145 174.64 84.6145 174.407C85.5145 174.174 86.4526 174.125 87.3718 174.265C88.2911 174.404 89.1725 174.729 89.9625 175.218C90.7525 175.708 91.4346 176.353 91.9676 177.114C92.5006 177.874 92.8734 178.735 93.0632 179.644C93.2531 180.553 93.2561 181.491 93.0721 182.401V182.408Z" fill="#F65252"/>
<path d="M40.2905 159.456C44.0813 159.415 54.9866 152.434 54.9866 152.434C54.9866 152.434 43.9234 145.714 40.1326 145.755C38.3112 145.776 36.5728 146.519 35.2998 147.819C34.0267 149.12 33.3233 150.873 33.3442 152.691C33.3652 154.51 34.1088 156.246 35.4115 157.517C36.7141 158.788 38.4692 159.491 40.2905 159.47V159.456Z" fill="#F65252"/>
<path d="M57.5608 186.982C61.1593 185.809 69.4757 175.894 69.4757 175.894C69.4757 175.894 56.9015 172.787 53.3031 173.96C52.415 174.213 51.5873 174.642 50.8692 175.222C50.1512 175.802 49.5577 176.52 49.1241 177.335C48.6906 178.149 48.426 179.042 48.3461 179.961C48.2662 180.879 48.3726 181.805 48.6591 182.681C48.9456 183.558 49.4062 184.368 50.0133 185.063C50.6205 185.757 51.3618 186.323 52.1928 186.725C53.0238 187.127 53.9275 187.358 54.8499 187.403C55.7722 187.448 56.6942 187.308 57.5608 186.989V186.982Z" fill="#F65252"/>
<path d="M78.0268 211.436C81.7764 210.887 91.6516 202.521 91.6516 202.521C91.6516 202.521 79.7849 197.337 76.0422 197.886C75.1204 197.98 74.2274 198.261 73.4169 198.709C72.6065 199.158 71.8953 199.766 71.3262 200.496C70.7572 201.226 70.3421 202.064 70.1058 202.959C69.8696 203.853 69.8171 204.787 69.9516 205.702C70.0861 206.618 70.4048 207.497 70.8884 208.286C71.372 209.075 72.0106 209.759 72.7657 210.295C73.5208 210.831 74.3768 211.209 75.2822 211.407C76.1875 211.604 77.1235 211.616 78.0337 211.443L78.0268 211.436Z" fill="#F65252"/>
<path d="M432.238 2.90997e-05H113.202C109.364 -0.00537791 105.562 0.744169 102.014 2.20588C98.4661 3.66758 95.2411 5.81282 92.5232 8.51911C89.8054 11.2254 87.648 14.4397 86.1742 17.9786C84.7003 21.5175 83.939 25.3115 83.9336 29.1442V470.572C83.9381 474.405 84.6988 478.2 86.1722 481.74C87.6456 485.28 89.8029 488.495 92.5208 491.202C95.2387 493.909 98.4641 496.055 102.013 497.517C105.561 498.979 109.363 499.729 113.202 499.723H432.238C436.077 499.729 439.878 498.979 443.426 497.517C446.975 496.056 450.2 493.91 452.917 491.204C455.635 488.498 457.793 485.284 459.267 481.745C460.74 478.206 461.502 474.412 461.507 470.579V29.1374C461.494 21.3981 458.404 13.9808 452.915 8.51668C447.426 3.05257 439.989 -0.010892 432.238 2.90997e-05Z" fill="url(#paint0_linear)"/>
<path d="M443.279 5.98657H102.164C94.5789 5.98657 88.4297 12.1269 88.4297 19.7015V481.51C88.4297 489.084 94.5789 495.225 102.164 495.225H443.279C450.865 495.225 457.014 489.084 457.014 481.51V19.7015C457.014 12.1269 450.865 5.98657 443.279 5.98657Z" fill="#3A3768"/>
<path d="M430.29 52.2676H115.16C110.742 52.2676 107.16 55.8493 107.16 60.2676V440.951C107.16 445.369 110.742 448.951 115.16 448.951H430.29C434.708 448.951 438.29 445.369 438.29 440.951V60.2676C438.29 55.8493 434.708 52.2676 430.29 52.2676Z" fill="white"/>
<path d="M271.225 32.9159C273.709 32.9159 275.723 30.9049 275.723 28.4242C275.723 25.9436 273.709 23.9326 271.225 23.9326C268.74 23.9326 266.727 25.9436 266.727 28.4242C266.727 30.9049 268.74 32.9159 271.225 32.9159Z" fill="white"/>
<path d="M271.226 484.753C278.675 484.753 284.713 478.724 284.713 471.285C284.713 463.847 278.675 457.817 271.226 457.817C263.777 457.817 257.738 463.847 257.738 471.285C257.738 478.724 263.777 484.753 271.226 484.753Z" fill="white"/>
<path d="M203.466 103.794H155.189C150.694 103.794 147.051 107.433 147.051 111.921V160.128C147.051 164.616 150.694 168.255 155.189 168.255H203.466C207.96 168.255 211.604 164.616 211.604 160.128V111.921C211.604 107.433 207.96 103.794 203.466 103.794Z" fill="#FC6464"/>
<path opacity="0.2" d="M341.979 168.255H390.257C394.751 168.255 398.395 164.616 398.395 160.129V111.921C398.395 107.433 394.751 103.795 390.257 103.795H341.979C337.485 103.795 333.841 107.433 333.841 111.921V160.129C333.841 164.616 337.485 168.255 341.979 168.255Z" fill="#FC6464"/>
<path d="M296.861 103.794H248.583C244.089 103.794 240.445 107.433 240.445 111.921V160.128C240.445 164.616 244.089 168.255 248.583 168.255H296.861C301.355 168.255 304.998 164.616 304.998 160.128V111.921C304.998 107.433 301.355 103.794 296.861 103.794Z" fill="#FC6464"/>
<path d="M203.466 217.628H155.189C150.694 217.628 147.051 221.266 147.051 225.754V273.962C147.051 278.45 150.694 282.088 155.189 282.088H203.466C207.96 282.088 211.604 278.45 211.604 273.962V225.754C211.604 221.266 207.96 217.628 203.466 217.628Z" fill="#FC6464"/>
<path opacity="0.2" d="M341.979 282.088H390.257C394.751 282.088 398.395 278.45 398.395 273.962V225.754C398.395 221.266 394.751 217.628 390.257 217.628H341.979C337.485 217.628 333.841 221.266 333.841 225.754V273.962C333.841 278.45 337.485 282.088 341.979 282.088Z" fill="#FC6464"/>
<path opacity="0.2" d="M296.861 217.628H248.583C244.089 217.628 240.445 221.266 240.445 225.754V273.962C240.445 278.45 244.089 282.088 248.583 282.088H296.861C301.355 282.088 304.998 278.45 304.998 273.962V225.754C304.998 221.266 301.355 217.628 296.861 217.628Z" fill="#FC6464"/>
<path d="M203.466 331.462H155.189C150.694 331.462 147.051 335.1 147.051 339.588V387.796C147.051 392.284 150.694 395.922 155.189 395.922H203.466C207.96 395.922 211.604 392.284 211.604 387.796V339.588C211.604 335.1 207.96 331.462 203.466 331.462Z" fill="#FC6464"/>
<path d="M341.979 395.922H390.257C394.751 395.922 398.395 392.284 398.395 387.796V339.588C398.395 335.1 394.751 331.462 390.257 331.462H341.979C337.485 331.462 333.841 335.1 333.841 339.588V387.796C333.841 392.284 337.485 395.922 341.979 395.922Z" fill="#FC6464"/>
<path d="M296.861 331.462H248.583C244.089 331.462 240.445 335.1 240.445 339.588V387.796C240.445 392.284 244.089 395.922 248.583 395.922H296.861C301.355 395.922 304.998 392.284 304.998 387.796V339.588C304.998 335.1 301.355 331.462 296.861 331.462Z" fill="#FC6464"/>
<path d="M542.533 190.569C542.405 189.834 542.127 189.133 541.715 188.511C541.227 187.943 540.687 187.422 540.102 186.955C536.86 183.91 538.604 178.424 537.355 174.193C535.981 169.674 531.174 166.211 526.999 163.907C526.324 163.518 525.598 163.225 524.842 163.036C523.898 162.885 522.942 162.809 521.985 162.81C520.49 162.72 519.019 162.386 517.632 161.822C515.647 161.013 513.875 159.765 511.842 159.079C511.447 158.935 511.026 158.876 510.606 158.908C508.388 158.702 508.313 161.459 505.93 163.057C504.941 163.742 504 164.689 504 165.868C504 167.48 505.648 168.542 507.118 169.249C508.587 169.955 508.924 169.818 509.212 169.811H509.336C509.535 169.845 509.755 170.017 510.325 170.641C505.913 171.328 501.891 173.561 498.978 176.94C496.065 180.319 494.452 184.622 494.427 189.081C494.424 191.681 494.975 194.252 496.041 196.624C495.979 197.063 495.91 197.515 495.835 197.995C495.114 202.418 493.774 207.753 491.481 212.17C489.599 212.554 488.411 212.855 488.411 212.855C488.43 212.946 488.441 213.037 488.445 213.13L487.759 213.637L484.874 215.694C479.195 206.293 473.392 194.621 473.159 185.858C473.159 185.858 472.472 186.331 471.304 187.071V180.845L470.934 180.776L471.304 180.09L473.983 175.03C474.991 173.126 475.535 171.011 475.569 168.858C475.693 160.903 475.432 141.291 469.924 138.034C462.981 133.919 461.594 151.707 457.892 160.821C455.146 167.617 456.519 177.464 457.357 182.024C457.419 182.333 457.474 182.614 457.529 182.875C455.27 183.724 453.074 184.73 450.956 185.885C452.419 186.461 453.511 191.035 454.115 194.327C454.177 194.676 454.239 195.012 454.294 195.321C452.896 195.759 451.472 196.107 450.029 196.363L461.965 222.367C459.417 225.315 454.102 230.479 450.029 227.805C444.474 224.156 427.367 225.981 427.367 225.981C427.367 225.981 417.588 200.052 418.055 192.29C418.055 192.29 417.54 192.55 416.682 192.976V185.906C416.364 186.12 416.031 186.31 415.686 186.475L416.05 185.83L416.579 184.891C417.587 183.11 418.187 181.129 418.337 179.089C418.913 171.114 419.758 150.638 413.44 148.08C405.57 144.891 403.256 167.672 403.256 167.672L404.932 188.299L404.966 188.758C401.23 189.087 398.16 189.087 398.16 189.087C399.101 190.013 399.403 195.122 399.534 198.324C399.534 198.654 399.534 198.955 399.534 199.236C397.625 199.566 395.99 199.593 394.926 199.113L407.424 232.831C407.424 232.831 408.351 241.06 424.552 244.681C434.077 246.827 440.717 248.795 444.577 250.084C437.97 265.719 415.047 322.088 421.77 335.803C421.77 335.803 425.369 334.431 429.05 333.224C429.901 345.046 431.378 362.951 433.17 374.424C431.213 380.465 429.736 385.533 429.256 388.434C429.214 388.674 429.18 388.9 429.153 389.119C427.779 400.057 416.654 421.02 433.321 438.788C433.321 438.788 444.893 445.645 445.82 453.826C446.596 460.725 458.826 477.923 462.7 483.231C459.602 488.546 450.867 502.562 443.038 506.231C433.321 510.791 441.184 517.168 450.441 515.831C459.699 514.494 490.272 492.591 490.272 492.591C490.272 492.591 490.059 478.273 487.161 477.231L484.38 471.498C485.924 471.258 487.435 470.844 488.885 470.264C501.383 465.251 518.511 456.137 518.511 456.137C518.511 456.137 518.847 445.433 513.992 441.51C511.506 433.85 499.996 426.972 499.996 426.972C499.996 426.972 491.652 405.543 471.284 399.604C471.284 399.604 467.994 394.976 468.118 389.675C469.457 387.11 470.364 385.478 470.364 385.478L480.898 360.517C483.625 358.089 485.944 355.238 487.765 352.075C487.921 351.792 488.072 351.506 488.219 351.218C494.571 351.966 499.55 352.713 499.55 352.713L499.09 330.838C494.894 285.702 507.859 272.488 507.859 272.488C507.859 272.488 526.401 250.16 528.228 234.209C529.938 219.486 517.453 218.746 515.523 218.718C515.155 216.535 515.237 214.3 515.764 212.149L515.983 212.307C516.375 212.627 516.853 212.825 517.357 212.876C517.457 212.886 517.559 212.886 517.659 212.876H517.824C518.279 212.855 518.721 212.718 519.108 212.478C523.95 209.941 527.72 205.353 533.035 204.03C534.147 203.756 535.308 203.632 536.4 203.275C537.622 202.845 538.742 202.165 539.688 201.28C540.633 200.395 541.385 199.323 541.894 198.132C542.892 195.739 543.115 193.095 542.533 190.569ZM474.546 431.951C475.473 435.14 490.286 446.077 490.286 446.077L490.856 450.007C487.058 453.599 483.062 456.976 478.886 460.121L473.619 449.266C473.619 449.266 465.749 424.202 458.806 421.473C457.522 420.965 457.11 419.415 457.288 417.242C461.8 420.54 473.777 429.393 474.525 431.972L474.546 431.951Z" fill="url(#paint1_linear)"/>
<path d="M446.935 247.252C446.935 247.252 415.455 319.996 423.099 335.713C423.099 335.713 435.693 330.776 437.52 331.674C439.347 332.573 457.305 237.823 457.305 237.823L446.935 247.252Z" fill="#575988"/>
<path opacity="0.05" d="M446.935 247.252C446.935 247.252 415.455 319.996 423.099 335.713C423.099 335.713 435.693 330.776 437.52 331.674C439.347 332.573 457.305 237.823 457.305 237.823L446.935 247.252Z" fill="#CEDDF9"/>
<path d="M464.02 478.959C464.02 478.959 453.224 499.168 443.782 503.646C434.339 508.124 441.982 514.426 450.979 513.075C459.975 511.724 489.656 490.171 489.656 490.171C489.656 490.171 489.45 476.065 486.627 475.036C483.805 474.008 464.02 478.959 464.02 478.959Z" fill="#575988"/>
<path d="M492.356 446.18C492.356 446.18 477.069 461.445 470.319 462.796C463.568 464.147 476.163 473.123 488.304 468.186C500.446 463.248 517.086 454.265 517.086 454.265C517.086 454.265 517.532 439.864 509.889 438.548C502.245 437.231 492.356 446.18 492.356 446.18Z" fill="#575988"/>
<path d="M429.395 321.34C429.395 321.34 432.54 376.124 436.591 383.743C440.643 391.362 455.93 414.725 455.93 414.725C455.93 414.725 473.469 427.302 474.369 430.442C475.268 433.583 489.656 444.363 489.656 444.363L490.555 450.651C490.555 450.651 514.392 449.28 513.039 441.222C511.686 433.165 499.098 425.505 499.098 425.505C499.098 425.505 491.002 404.398 471.217 398.562C471.217 398.562 464.919 389.579 470.317 382.399C470.317 382.399 483.811 348.722 491.455 344.683C499.098 340.644 488.303 317.315 488.303 317.315L429.395 321.34Z" fill="#67647E"/>
<path d="M429.395 321.34C429.395 321.34 432.54 376.124 436.591 383.743C440.643 391.362 455.93 414.725 455.93 414.725C455.93 414.725 473.469 427.302 474.369 430.442C475.268 433.583 489.656 444.363 489.656 444.363L490.555 450.651C490.555 450.651 514.392 449.28 513.039 441.222C511.686 433.165 499.098 425.505 499.098 425.505C499.098 425.505 491.002 404.398 471.217 398.562C471.217 398.562 464.919 389.579 470.317 382.399C470.317 382.399 483.811 348.722 491.455 344.683C499.098 340.644 488.303 317.315 488.303 317.315L429.395 321.34Z" fill="#CEDDF9"/>
<path d="M473.464 447.524L487.885 477.608C485.64 485.24 464.049 482.545 464.049 482.545C464.049 482.545 447.409 460.094 446.51 452.009C445.61 443.924 434.368 437.19 434.368 437.19C418.182 419.676 428.97 399.021 430.323 388.242C430.323 388.036 430.385 387.809 430.419 387.556C431.614 380.328 438.894 359.536 444.552 343.963C448.371 333.471 451.454 325.352 451.454 325.352C451.454 325.352 481.581 326.723 487.851 337.476C490.735 342.413 489.444 347.549 487.199 351.664C485.442 354.773 483.197 357.581 480.551 359.982L470.312 384.628C470.312 384.628 452.333 417.434 459.104 420.136C465.876 422.837 473.464 447.524 473.464 447.524Z" fill="#DFEAFF"/>
<path d="M419.761 181.263C419.619 183.271 419.038 185.223 418.058 186.982L417.543 187.908L415.009 192.468H406.913L406.741 190.342L405.113 170.017C405.113 170.017 407.359 147.566 415.009 150.706C421.142 153.23 420.324 173.404 419.761 181.263Z" fill="#F7C4A7"/>
<path opacity="0.1" d="M417.541 187.901L415.007 192.461H406.91L406.738 190.336C410.508 190.006 414.993 189.321 417.541 187.901Z" fill="black"/>
<path d="M418.153 187.977V198.304L401.513 202.796C401.513 202.796 401.513 201.719 401.465 200.224C401.369 197.07 401.074 192.036 400.16 191.124C400.167 191.138 413.655 191.138 418.153 187.977Z" fill="#E6E6F0"/>
<path opacity="0.1" d="M418.152 194.031V198.304L401.513 202.795C401.513 202.795 401.513 201.719 401.465 200.224C407.007 199.257 415.007 195.561 418.152 194.031Z" fill="black"/>
<path d="M515.203 211.072C511.921 220.536 516.185 224.787 516.185 224.787C516.185 224.787 475.709 227.482 485.605 220.296C491.381 216.099 493.942 206.841 495.068 199.874C495.547 196.984 495.843 194.066 495.954 191.138C495.954 191.138 528.299 190.665 521.59 199.669C518.894 203.125 516.741 206.97 515.203 211.072Z" fill="#F7C4A7"/>
<path opacity="0.1" d="M521.595 199.648C518.299 204.078 517.22 204.729 516.101 207.925C515.089 208.096 514.065 208.181 513.038 208.179C505.326 208.179 497.82 206.595 495.066 199.881C495.546 196.988 495.842 194.068 495.952 191.138C495.952 191.138 528.291 190.644 521.595 199.648Z" fill="black"/>
<path d="M512.138 209.529C522.322 209.529 530.577 201.286 530.577 191.117C530.577 180.948 522.322 172.705 512.138 172.705C501.955 172.705 493.699 180.948 493.699 191.117C493.699 201.286 501.955 209.529 512.138 209.529Z" fill="#F7C4A7"/>
<path d="M419.499 194.258C419.499 194.258 401.96 203.241 397.016 200.992L409.157 234.223C409.157 234.223 410.057 242.308 425.797 245.881C441.537 249.454 449.18 252.615 449.18 252.615L478.407 218.04L463.567 222.079C463.567 222.079 455.924 232.859 450.519 229.265C445.114 225.672 428.496 227.482 428.496 227.482C428.496 227.482 419.053 201.897 419.499 194.258Z" fill="#575988"/>
<path d="M419.499 194.258C419.499 194.258 401.96 203.241 397.016 200.992L409.157 234.223C409.157 234.223 410.057 242.308 425.797 245.881C441.537 249.454 449.18 252.615 449.18 252.615L478.407 218.04L463.567 222.079C463.567 222.079 455.924 232.859 450.519 229.265C445.114 225.672 428.496 227.482 428.496 227.482C428.496 227.482 419.053 201.897 419.499 194.258Z" fill="#4D4981"/>
<path opacity="0.1" d="M487.856 215.461C487.856 215.461 511.631 208.672 514.13 221.283C514.13 221.283 503.143 215.934 487.403 225.398C486.222 226.083 485.068 226.858 483.969 227.647C470.118 237.336 460.441 252.334 456.555 269.368L446.508 313.324L445.608 325.139C445.608 325.139 431.187 327.978 428.522 323.72C425.858 319.461 427.622 305.28 431.667 300.555C435.712 295.83 441.989 275.484 441.989 275.484L445.924 263.69C449.218 253.769 454.454 244.601 461.327 236.719L462.275 235.574C468.199 228.476 475.71 222.866 484.203 219.198C486.503 218.204 488.172 216.949 487.856 215.461Z" fill="black"/>
<path d="M487.856 214.563C487.856 214.563 511.631 207.774 514.13 220.385C514.13 220.385 503.143 215.036 487.403 224.499C486.222 225.185 485.068 225.96 483.969 226.749C470.118 236.438 460.441 251.435 456.555 268.469L446.508 312.426L445.608 324.241C445.608 324.241 431.187 327.08 428.522 322.822C425.858 318.563 427.622 304.382 431.667 299.657C435.712 294.932 442.01 274.6 442.01 274.6L445.945 262.805C449.239 252.885 454.474 243.717 461.348 235.835L462.296 234.69C468.219 227.591 475.73 221.982 484.223 218.314C486.503 217.306 488.172 216.051 487.856 214.563Z" fill="#E6E6F0"/>
<path opacity="0.1" d="M428.07 305.081L428.269 312.817L434.567 308.777C434.567 308.777 445.781 268.024 453.679 256.915C454.606 255.605 455.052 253.65 455.924 253.321L488.077 222.339V215.139C488.077 215.139 471.664 227.263 470.311 229.54C469.735 230.493 461.116 235.197 455.89 242.569C451.236 249.356 447.104 256.485 443.529 263.895L432.733 288.143L428.07 305.081Z" fill="black"/>
<path d="M488.081 214.693V221.653L455.475 252.855C454.61 253.184 454.157 255.138 453.229 256.448C445.325 267.564 434.118 308.311 434.118 308.311L427.82 312.35L427.621 304.615L432.318 287.663L443.114 263.415C446.689 256.005 450.821 248.875 455.475 242.089C460.667 234.724 469.292 230.02 469.896 229.059C471.064 227.126 483.741 217.854 487.23 215.345L488.081 214.693Z" fill="#787C9C"/>
<path opacity="0.1" d="M506.001 171.574C504.58 170.888 502.973 169.825 502.973 168.241C502.973 167.082 503.886 166.122 504.847 165.498C507.416 163.749 507.217 160.588 510.17 161.575C512.147 162.261 513.871 163.489 515.794 164.284C517.14 164.84 518.57 165.169 520.024 165.258C520.944 165.258 521.863 165.331 522.771 165.477C523.494 165.666 524.188 165.955 524.831 166.334C528.931 168.625 531.976 172.42 533.319 176.916C534.542 181.085 534.418 186.022 537.563 189.019C538.132 189.479 538.656 189.991 539.129 190.548C539.532 191.172 539.801 191.872 539.919 192.605C540.485 195.094 540.27 197.697 539.301 200.059C538.809 201.23 538.078 202.285 537.154 203.158C536.231 204.03 535.135 204.701 533.937 205.127C532.873 205.477 531.754 205.593 530.669 205.868C525.504 207.171 521.844 211.697 517.133 214.193C516.757 214.428 516.327 214.563 515.883 214.584C515.398 214.529 514.939 214.334 514.565 214.021C512.745 212.725 511.248 210.709 511.296 208.474C511.442 207.078 511.85 205.721 512.498 204.476C513.483 202.143 514.238 199.72 514.75 197.241C514.913 196.671 514.93 196.07 514.798 195.492C514.455 194.402 513.246 193.895 512.408 193.12C510.815 191.645 510.623 189.136 511.213 187.044C511.804 184.952 513.04 183.108 513.96 181.14C514.277 180.549 514.462 179.896 514.503 179.226C514.503 176.6 510.946 175.174 509.449 173.439C507.498 171.066 508.782 172.945 506.001 171.574Z" fill="black"/>
<path d="M506.454 171.574C505.033 170.888 503.426 169.825 503.426 168.241C503.426 167.082 504.339 166.122 505.301 165.498C507.869 163.749 507.67 160.588 510.623 161.575C512.601 162.261 514.324 163.489 516.247 164.284C517.594 164.84 519.023 165.169 520.477 165.258C521.405 165.313 524.406 163.886 525.285 164.106C526.008 164.295 526.701 164.583 527.345 164.963C531.445 167.253 534.489 171.049 535.833 175.544C537.055 179.713 536.204 184.925 539.349 187.887C539.878 188.395 539.157 189.945 539.582 190.514C539.985 191.138 540.254 191.838 540.372 192.571C540.939 195.06 540.723 197.663 539.754 200.025C539.262 201.196 538.531 202.251 537.607 203.123C536.684 203.996 535.588 204.667 534.391 205.093C533.326 205.443 532.207 205.559 531.122 205.833C525.958 207.136 522.297 211.662 517.586 214.158C517.21 214.394 516.78 214.528 516.336 214.549C515.851 214.495 515.393 214.3 515.018 213.987C513.198 212.691 511.701 210.675 511.749 208.439C511.896 207.043 512.303 205.687 512.951 204.441C513.936 202.109 514.691 199.686 515.203 197.207C515.366 196.637 515.383 196.036 515.251 195.458C514.908 194.368 513.699 193.86 512.862 193.085C511.268 191.611 511.076 189.101 511.667 187.01C512.257 184.918 513.493 183.074 514.414 181.105C514.73 180.514 514.916 179.862 514.956 179.192C514.956 176.566 511.399 175.139 509.902 173.405C507.951 171.066 509.236 172.945 506.454 171.574Z" fill="#B96B6B"/>
<path opacity="0.1" d="M487.204 351.698C478.963 350.725 468.58 349.771 464.02 350.532C456.679 351.753 446.378 345.218 444.523 343.997C448.342 333.505 451.425 325.386 451.425 325.386C451.425 325.386 481.552 326.758 487.822 337.51C490.741 342.448 489.45 347.584 487.204 351.698Z" fill="black"/>
<path d="M526.535 235.574C524.735 251.291 506.75 273.29 506.75 273.29C506.75 273.29 494.155 286.319 498.207 330.769L498.653 352.322C498.653 352.322 472.118 348.283 464.028 349.627C455.938 350.971 444.243 342.893 444.243 342.893C444.243 342.893 439.738 265.198 459.104 249.049C461.481 245.372 464.067 241.835 466.851 238.454C472.042 232.18 479.102 225.11 485.708 223.368C486.558 223.139 487.431 223.005 488.311 222.97C488.311 222.97 508.549 211.744 513.947 220.275C513.94 220.309 528.327 219.857 526.535 235.574Z" fill="#4D4981"/>
<path opacity="0.1" d="M444.461 319.324C444.461 319.324 451.658 316.183 463.799 317.082C475.941 317.98 497.559 307.2 497.559 307.2" fill="black"/>
<path opacity="0.05" d="M457.502 419.491C457.502 419.491 457.948 420.862 452.104 422.632C446.26 424.401 444.461 426.225 444.461 426.225" fill="black"/>
<path d="M415.694 177.608H463.972C468.466 177.608 472.109 173.97 472.109 169.482V121.274C472.109 116.786 468.466 113.148 463.972 113.148H415.694C411.2 113.148 407.556 116.786 407.556 121.274V169.482C407.556 173.97 411.2 177.608 415.694 177.608Z" fill="#FC6464"/>
<path d="M475.352 171.196C475.321 173.318 474.794 175.403 473.814 177.286L471.218 182.278L469.418 185.707L458.177 186.605C458.177 186.605 457.943 185.679 457.655 184.15C456.817 179.658 455.491 169.955 458.177 163.255C461.775 154.272 463.121 136.758 469.851 140.804C475.221 144.027 475.475 163.358 475.352 171.196Z" fill="#F7C4A7"/>
<path opacity="0.1" d="M471.215 182.134V182.271L469.416 185.7L458.174 186.598C458.174 186.598 457.941 185.672 457.652 184.143C461.677 182.614 466.951 181.188 471.215 182.134Z" fill="black"/>
<path d="M471.218 183.032V191.138L455.032 199.668C455.032 199.668 454.847 198.208 454.503 196.315C453.913 193.072 452.855 188.559 451.434 187.997C451.434 187.976 463.122 181.236 471.218 183.032Z" fill="#E6E6F0"/>
<path opacity="0.05" d="M515.002 256.435C513.029 258.17 510.719 259.478 508.216 260.278C505.713 261.079 503.071 261.353 500.456 261.084C471.984 258.197 471.215 248.151 471.215 248.151L466.848 238.454C472.039 232.18 479.099 225.11 485.705 223.368C490.423 230.959 494.633 236.438 494.633 236.438C494.633 236.438 515.771 220.275 522.068 235.54C525.715 244.461 520.221 251.833 515.002 256.435Z" fill="black"/>
<path opacity="0.1" d="M471.215 187.983V191.138L455.029 199.669C455.029 199.669 454.843 198.208 454.5 196.315C461.477 194.059 468.379 189.828 471.215 187.983Z" fill="black"/>
<path d="M473.015 187.977C473.015 187.977 460.873 196.507 450.531 198.304L471.669 245.003C471.669 245.003 472.445 255.049 500.91 257.936C503.523 258.204 506.164 257.929 508.666 257.129C511.168 256.329 513.477 255.021 515.448 253.287C520.667 248.686 526.148 241.314 522.48 232.427C516.183 217.162 495.045 233.325 495.045 233.325C495.045 233.325 473.461 205.038 473.015 187.977Z" fill="#4D4981"/>
<path d="M648.297 489.862H544.834C543.821 489.862 543 490.682 543 491.693V497.632C543 498.643 543.821 499.463 544.834 499.463H648.297C649.31 499.463 650.131 498.643 650.131 497.632V491.693C650.131 490.682 649.31 489.862 648.297 489.862Z" fill="#FC6464"/>
<path d="M636.625 480.262H533.162C532.149 480.262 531.328 481.081 531.328 482.093V488.031C531.328 489.042 532.149 489.862 533.162 489.862H636.625C637.638 489.862 638.459 489.042 638.459 488.031V482.093C638.459 481.081 637.638 480.262 636.625 480.262Z" fill="#FC6464"/>
<path opacity="0.05" d="M636.625 480.262H533.162C532.149 480.262 531.328 481.081 531.328 482.093V488.031C531.328 489.042 532.149 489.862 533.162 489.862H636.625C637.638 489.862 638.459 489.042 638.459 488.031V482.093C638.459 481.081 637.638 480.262 636.625 480.262Z" fill="black"/>
</g>
<defs>
<linearGradient id="paint0_linear" x1="272.717" y1="499.716" x2="272.717" y2="0" gradientUnits="userSpaceOnUse">
<stop stop-color="#808080" stop-opacity="0.25"/>
<stop offset="0.54" stop-color="#808080" stop-opacity="0.12"/>
<stop offset="1" stop-color="#808080" stop-opacity="0.1"/>
</linearGradient>
<linearGradient id="paint1_linear" x1="119064" y1="302912" x2="119064" y2="93920.8" gradientUnits="userSpaceOnUse">
<stop stop-color="#808080" stop-opacity="0.25"/>
<stop offset="0.54" stop-color="#808080" stop-opacity="0.12"/>
<stop offset="1" stop-color="#808080" stop-opacity="0.1"/>
</linearGradient>
<clipPath id="clip0">
<rect width="660" height="552.34" fill="white"/>
</clipPath>
</defs>
</svg>
