<svg width="660" height="506" viewBox="0 0 660 506" fill="none" xmlns="http://www.w3.org/2000/svg">
<g clip-path="url(#clip0)">
<path opacity="0.1" d="M153.181 407.251C162.029 407.834 171.381 410.903 179.431 407.187C181.508 406.23 183.392 404.85 185.548 404.081C190.5 402.312 195.942 404.031 200.93 405.684C239.983 418.612 280.126 427.979 320.867 433.671C329.263 434.843 338.025 435.828 346.025 433.096C351.876 431.104 356.943 427.258 362.737 425.102C372.211 421.586 382.676 422.895 392.761 423.448C419.175 424.888 445.602 420.862 470.39 411.622L471.691 411.126C477.851 408.747 484.512 407.96 491.057 408.84C497.602 409.72 503.819 412.237 509.133 416.158C513.345 419.248 517.813 421.973 522.488 424.304C530.049 428.116 535.825 434.728 538.588 442.733C541.352 450.738 540.885 459.505 537.288 467.172L537.115 467.546C533.004 476.51 529.575 486.546 521.518 492.24C513.92 497.61 503.95 497.833 494.649 497.854L437.556 497.991C431.633 497.991 425.638 497.991 419.888 496.596C414.72 495.324 409.911 492.937 405.145 490.565L379.6 477.891C369.314 472.779 358.036 467.517 346.78 469.868C335.279 472.269 326.991 481.938 316.972 488.034C301.424 497.502 280.752 497.876 264.874 488.962C257.269 484.691 250.663 478.466 242.368 475.784C228.668 471.349 214.113 477.488 200.017 480.428C172.588 486.151 140.279 478.322 119.261 459.393C92.1916 435.008 123.976 405.339 153.181 407.251Z" fill="#FC6464"/>
<path d="M430.159 3.59448H259.158C244.649 3.59448 232.887 15.3572 232.887 29.8673V431.668C232.887 446.178 244.649 457.941 259.158 457.941H430.159C444.668 457.941 456.43 446.178 456.43 431.668V29.8673C456.43 15.3572 444.668 3.59448 430.159 3.59448Z" fill="#3A3768"/>
<path d="M351.723 17.2537H325.38C323.921 17.2537 322.738 18.445 322.738 19.9146V21.0629C322.738 22.5324 323.921 23.7238 325.38 23.7238H351.723C353.182 23.7238 354.365 22.5324 354.365 21.0629V19.9146C354.365 18.445 353.182 17.2537 351.723 17.2537Z" fill="#E6E8EC"/>
<path d="M362.629 23.7237C364.812 23.7237 366.582 22.1144 366.582 20.1292C366.582 18.144 364.812 16.5347 362.629 16.5347C360.446 16.5347 358.676 18.144 358.676 20.1292C358.676 22.1144 360.446 23.7237 362.629 23.7237Z" fill="#E6E8EC"/>
<path d="M424.997 15.0969H399.353V18.1811C399.353 22.0652 397.811 25.7901 395.064 28.5366C392.318 31.283 388.593 32.826 384.709 32.826H303.013C301.09 32.8269 299.185 32.4487 297.408 31.713C295.631 30.9773 294.017 29.8986 292.657 28.5386C291.297 27.1785 290.218 25.5637 289.482 23.7865C288.747 22.0093 288.369 20.1046 288.369 18.1811V15.0969H264.325C259.609 15.0969 255.086 16.9705 251.751 20.3055C248.416 23.6404 246.543 28.1636 246.543 32.88V428.656C246.543 433.372 248.416 437.895 251.751 441.23C255.086 444.565 259.609 446.439 264.325 446.439H424.997C427.332 446.439 429.644 445.979 431.801 445.085C433.958 444.191 435.918 442.881 437.569 441.23C439.219 439.578 440.529 437.618 441.421 435.46C442.314 433.303 442.773 430.991 442.773 428.656V32.88C442.773 30.545 442.314 28.2327 441.421 26.0752C440.529 23.9177 439.219 21.9573 437.569 20.3059C435.918 18.6545 433.958 17.3445 431.801 16.4507C429.644 15.5569 427.332 15.0969 424.997 15.0969Z" fill="white"/>
<path d="M394.88 66.1392H295.157C293.715 66.1392 292.547 67.3186 292.547 68.7735V100.169C292.547 101.624 293.715 102.803 295.157 102.803H394.88C396.322 102.803 397.49 101.624 397.49 100.169V68.7735C397.49 67.3186 396.322 66.1392 394.88 66.1392Z" fill="#FC6464"/>
<path opacity="0.3" d="M409.978 312.723H280.78C279.339 312.723 278.172 313.902 278.172 315.357V322.31C278.172 323.765 279.339 324.944 280.78 324.944H409.978C411.418 324.944 412.586 323.765 412.586 322.31V315.357C412.586 313.902 411.418 312.723 409.978 312.723Z" fill="#FC6464"/>
<path opacity="0.3" d="M409.978 332.133H280.78C279.339 332.133 278.172 333.313 278.172 334.767V341.72C278.172 343.175 279.339 344.354 280.78 344.354H409.978C411.418 344.354 412.586 343.175 412.586 341.72V334.767C412.586 333.313 411.418 332.133 409.978 332.133Z" fill="#FC6464"/>
<path opacity="0.3" d="M409.978 350.824H280.78C279.339 350.824 278.172 352.004 278.172 353.459V360.411C278.172 361.866 279.339 363.046 280.78 363.046H409.978C411.418 363.046 412.586 361.866 412.586 360.411V353.459C412.586 352.004 411.418 350.824 409.978 350.824Z" fill="#FC6464"/>
<path opacity="0.3" d="M409.978 369.516H280.78C279.339 369.516 278.172 370.696 278.172 372.15V379.103C278.172 380.558 279.339 381.737 280.78 381.737H409.978C411.418 381.737 412.586 380.558 412.586 379.103V372.15C412.586 370.696 411.418 369.516 409.978 369.516Z" fill="#FC6464"/>
<path opacity="0.3" d="M326.601 388.208H280.777C279.338 388.208 278.172 389.387 278.172 390.842V397.794C278.172 399.249 279.338 400.429 280.777 400.429H326.601C328.039 400.429 329.206 399.249 329.206 397.794V390.842C329.206 389.387 328.039 388.208 326.601 388.208Z" fill="#FC6464"/>
<path opacity="0.3" d="M433.178 138.748H257.582C255.457 138.748 253.734 140.47 253.734 142.594V273.651C253.734 275.775 255.457 277.497 257.582 277.497H433.178C435.303 277.497 437.026 275.775 437.026 273.651V142.594C437.026 140.47 435.303 138.748 433.178 138.748Z" fill="#FC6464"/>
<path d="M49.4522 447.97C49.4522 447.97 28.5282 376.956 53.3768 324.635C63.8064 302.687 67.271 278.05 62.4479 254.233C60.1447 242.928 56.8099 231.859 52.4855 221.163" stroke="#535461" stroke-width="2" stroke-miterlimit="10"/>
<path d="M67.9402 188.144C67.9402 196.85 52.1771 222.098 52.1771 222.098C52.1771 222.098 36.4141 196.85 36.4141 188.144C36.4141 183.963 38.0748 179.953 41.031 176.996C43.9871 174.039 47.9965 172.378 52.1771 172.378C56.3577 172.378 60.3671 174.039 63.3233 176.996C66.2794 179.953 67.9402 183.963 67.9402 188.144Z" fill="#FC6464"/>
<path d="M93.9968 236.375C89.2671 243.687 62.3125 256.311 62.3125 256.311C62.3125 256.311 62.8013 226.548 67.5309 219.237C68.6561 217.499 70.1125 215.999 71.817 214.824C73.5216 213.649 75.4408 212.821 77.4652 212.388C79.4896 211.955 81.5795 211.925 83.6156 212.299C85.6517 212.674 87.594 213.446 89.3318 214.571C91.0696 215.696 92.5687 217.153 93.7436 218.858C94.9185 220.563 95.7462 222.482 96.1794 224.507C96.6126 226.532 96.6428 228.622 96.2683 230.658C95.8938 232.695 95.1219 234.637 93.9968 236.375Z" fill="#FC6464"/>
<path d="M92.8614 318.79C85.0913 322.708 55.4844 320.005 55.4844 320.005C55.4844 320.005 70.9312 294.556 78.7013 290.638C80.5515 289.685 82.5721 289.109 84.6463 288.941C86.7206 288.773 88.8074 289.018 90.7866 289.661C92.7658 290.305 94.598 291.333 96.1776 292.688C97.7573 294.043 99.053 295.698 99.9901 297.556C100.927 299.414 101.487 301.44 101.638 303.516C101.788 305.592 101.526 307.677 100.867 309.651C100.207 311.625 99.1634 313.449 97.7957 315.018C96.4279 316.586 94.7631 317.868 92.8974 318.79H92.8614Z" fill="#FC6464"/>
<path d="M77.9591 380.961C70.958 386.137 41.3008 388.481 41.3008 388.481C41.3008 388.481 52.2264 360.789 59.2202 355.613C62.5843 353.185 66.7698 352.181 70.8689 352.819C74.9681 353.457 78.6505 355.686 81.1175 359.022C83.5844 362.358 84.6371 366.532 84.0472 370.639C83.4573 374.746 81.2724 378.455 77.9662 380.961H77.9591Z" fill="#FC6464"/>
<path d="M29.2198 257.993C35.4661 264.06 64.5555 270.344 64.5555 270.344C64.5555 270.344 57.4323 241.444 51.186 235.376C48.1823 232.489 44.1579 230.908 39.9924 230.98C35.8269 231.051 31.8592 232.769 28.9563 235.758C26.0535 238.747 24.4517 242.763 24.5011 246.93C24.5505 251.096 26.247 255.074 29.2198 257.993Z" fill="#FC6464"/>
<path d="M12.7095 330.947C20.4796 334.865 50.0866 332.162 50.0866 332.162C50.0866 332.162 34.6398 306.713 26.8696 302.795C23.1568 301.078 18.9222 300.872 15.0603 302.22C11.1985 303.569 8.01187 306.365 6.17365 310.02C4.33544 313.675 3.98959 317.901 5.20917 321.806C6.42875 325.711 9.11824 328.989 12.7095 330.947Z" fill="#FC6464"/>
<path d="M6.389 404.002C13.39 409.178 43.0473 411.521 43.0473 411.521C43.0473 411.521 32.1217 383.829 25.1279 378.653C21.7638 376.225 17.5783 375.222 13.4791 375.86C9.37994 376.498 5.69758 378.727 3.23061 382.063C0.763637 385.398 -0.289044 389.572 0.300863 393.679C0.89077 397.787 3.0757 401.495 6.38182 404.002H6.389Z" fill="#FC6464"/>
<path opacity="0.25" d="M67.9402 188.144C67.9402 196.85 52.1771 222.098 52.1771 222.098C52.1771 222.098 36.4141 196.85 36.4141 188.144C36.4141 183.963 38.0748 179.953 41.031 176.996C43.9871 174.039 47.9965 172.378 52.1771 172.378C56.3577 172.378 60.3671 174.039 63.3233 176.996C66.2794 179.953 67.9402 183.963 67.9402 188.144Z" fill="black"/>
<path opacity="0.25" d="M93.9968 236.375C89.2671 243.687 62.3125 256.311 62.3125 256.311C62.3125 256.311 62.8013 226.548 67.5309 219.237C68.6561 217.499 70.1125 215.999 71.817 214.824C73.5216 213.649 75.4408 212.821 77.4652 212.388C79.4896 211.955 81.5795 211.925 83.6156 212.299C85.6517 212.674 87.594 213.446 89.3318 214.571C91.0696 215.696 92.5687 217.153 93.7436 218.858C94.9185 220.563 95.7462 222.482 96.1794 224.507C96.6126 226.532 96.6428 228.622 96.2683 230.658C95.8938 232.695 95.1219 234.637 93.9968 236.375Z" fill="black"/>
<path opacity="0.25" d="M92.8614 318.79C85.0913 322.708 55.4844 320.005 55.4844 320.005C55.4844 320.005 70.9312 294.556 78.7013 290.638C80.5515 289.685 82.5721 289.109 84.6463 288.941C86.7206 288.773 88.8074 289.018 90.7866 289.661C92.7658 290.305 94.598 291.333 96.1776 292.688C97.7573 294.043 99.053 295.698 99.9901 297.556C100.927 299.414 101.487 301.44 101.638 303.516C101.788 305.592 101.526 307.677 100.867 309.651C100.207 311.625 99.1634 313.449 97.7957 315.018C96.4279 316.586 94.7631 317.868 92.8974 318.79H92.8614Z" fill="black"/>
<path opacity="0.25" d="M77.9591 380.961C70.958 386.137 41.3008 388.481 41.3008 388.481C41.3008 388.481 52.2264 360.789 59.2202 355.613C62.5843 353.185 66.7698 352.181 70.8689 352.819C74.9681 353.457 78.6505 355.686 81.1175 359.022C83.5844 362.358 84.6371 366.532 84.0472 370.639C83.4573 374.746 81.2724 378.455 77.9662 380.961H77.9591Z" fill="black"/>
<path opacity="0.25" d="M29.2198 257.993C35.4661 264.06 64.5555 270.344 64.5555 270.344C64.5555 270.344 57.4323 241.444 51.186 235.376C48.1823 232.489 44.1579 230.908 39.9924 230.98C35.8269 231.051 31.8592 232.769 28.9563 235.758C26.0535 238.747 24.4517 242.763 24.5011 246.93C24.5505 251.096 26.247 255.074 29.2198 257.993Z" fill="black"/>
<path opacity="0.25" d="M12.7095 330.947C20.4796 334.865 50.0866 332.162 50.0866 332.162C50.0866 332.162 34.6398 306.713 26.8696 302.795C23.1568 301.078 18.9222 300.872 15.0603 302.22C11.1985 303.569 8.01187 306.365 6.17365 310.02C4.33544 313.675 3.98959 317.901 5.20917 321.806C6.42875 325.711 9.11824 328.989 12.7095 330.947Z" fill="black"/>
<path opacity="0.25" d="M6.389 404.002C13.39 409.178 43.0473 411.521 43.0473 411.521C43.0473 411.521 32.1217 383.829 25.1279 378.653C21.7638 376.225 17.5783 375.222 13.4791 375.86C9.37994 376.498 5.69758 378.727 3.23061 382.063C0.763637 385.398 -0.289044 389.572 0.300863 393.679C0.89077 397.787 3.0757 401.495 6.38182 404.002H6.389Z" fill="black"/>
<path d="M430.927 251.091C428.267 230.243 436.598 208.784 431.646 188.374C427.836 172.609 416.551 159.445 412.842 143.651C407.394 120.244 419.858 96.2035 435.764 78.231C446.704 65.8443 460.433 54.6006 476.8 52.3505C486.906 50.9127 497.293 53.1341 506.623 57.2534C516.11 61.5078 524.62 67.6722 531.619 75.362C538.619 83.0518 543.959 92.1019 547.306 101.948C549.463 108.346 550.706 115.039 553.358 121.243C557.923 131.933 566.297 140.56 571.508 150.955C574.981 157.997 576.945 165.687 577.274 173.532C577.604 181.377 576.291 189.204 573.42 196.512C567.389 211.566 554.731 224.161 552.862 240.272C551.504 251.882 555.86 264.599 550.203 274.829C545.933 282.55 537.142 286.447 528.819 289.366C509.455 296.123 482.385 307.051 462.978 296.648C446 287.554 433.385 270.336 430.927 251.091Z" fill="#FC6464"/>
<path d="M485.262 265.908C485.262 265.908 513.769 254.405 517.363 247.935C520.957 241.465 525.988 203.363 525.988 203.363" stroke="#333333" stroke-width="3" stroke-miterlimit="10"/>
<path d="M484.988 442.053V194.032" stroke="#333333" stroke-width="3" stroke-miterlimit="10"/>
<path d="M513.591 251.091C510.931 230.243 519.262 208.784 514.31 188.374C510.5 172.608 499.215 159.445 495.506 143.651C490.058 120.244 502.522 96.2035 518.428 78.231C529.368 65.8443 543.097 54.6006 559.464 52.3505C569.57 50.9127 579.957 53.1341 589.287 57.2534C598.774 61.5078 607.284 67.6722 614.283 75.362C621.283 83.0518 626.623 92.1019 629.97 101.948C632.127 108.346 633.37 115.039 636.023 121.243C640.587 131.933 648.961 140.56 654.172 150.955C657.646 158.002 659.608 165.698 659.934 173.548C660.26 181.398 658.941 189.23 656.062 196.541C650.032 211.595 637.374 224.19 635.505 240.3C634.146 251.911 638.502 264.628 632.845 274.858C628.576 282.579 619.785 286.476 611.461 289.394C592.119 296.123 565.049 307.051 545.642 296.648C528.664 287.554 516.049 270.336 513.591 251.091Z" fill="#FC6464"/>
<path opacity="0.2" d="M513.591 251.091C510.931 230.243 519.262 208.784 514.31 188.374C510.5 172.608 499.215 159.445 495.506 143.651C490.058 120.244 502.522 96.2035 518.428 78.231C529.368 65.8443 543.097 54.6006 559.464 52.3505C569.57 50.9127 579.957 53.1341 589.287 57.2534C598.774 61.5078 607.284 67.6722 614.283 75.362C621.283 83.0518 626.623 92.1019 629.97 101.948C632.127 108.346 633.37 115.039 636.023 121.243C640.587 131.933 648.961 140.56 654.172 150.955C657.646 158.002 659.608 165.698 659.934 173.548C660.26 181.398 658.941 189.23 656.062 196.541C650.032 211.595 637.374 224.19 635.505 240.3C634.146 251.911 638.502 264.628 632.845 274.858C628.576 282.579 619.785 286.476 611.461 289.394C592.119 296.123 565.049 307.051 545.642 296.648C528.664 287.554 516.049 270.336 513.591 251.091Z" fill="black"/>
<path d="M567.922 265.908C567.922 265.908 596.429 254.405 600.023 247.935C603.617 241.465 608.648 203.363 608.648 203.363" stroke="#333333" stroke-width="3" stroke-miterlimit="10"/>
<path d="M567.648 442.053V194.032" stroke="#333333" stroke-width="3" stroke-miterlimit="10"/>
<path d="M101.671 476.884C101.671 476.884 92.5277 445.835 103.381 422.966C107.997 413.412 109.389 402.618 107.349 392.204C106.341 387.267 104.883 382.433 102.993 377.762" stroke="#535461" stroke-width="2" stroke-miterlimit="10"/>
<path d="M109.752 363.341C109.752 367.144 102.866 378.179 102.866 378.179C102.866 378.179 95.9805 367.144 95.9805 363.341C95.9805 361.513 96.7063 359.76 97.9984 358.468C99.2904 357.176 101.043 356.45 102.87 356.45C104.697 356.45 106.45 357.176 107.742 358.468C109.034 359.76 109.76 361.513 109.76 363.341H109.752Z" fill="#FC6464"/>
<path d="M121.145 384.419C119.075 387.611 107.301 393.132 107.301 393.132C107.301 393.132 107.516 380.127 109.579 376.928C110.573 375.394 112.134 374.318 113.921 373.935C115.708 373.553 117.573 373.897 119.107 374.89C120.641 375.883 121.717 377.445 122.099 379.232C122.481 381.019 122.138 382.885 121.145 384.419Z" fill="#FC6464"/>
<path d="M120.642 420.436C117.242 422.147 104.289 420.968 104.289 420.968C104.289 420.968 111.038 409.846 114.438 408.135C115.246 407.728 116.126 407.484 117.028 407.417C117.93 407.349 118.836 407.46 119.695 407.743C120.554 408.026 121.349 408.476 122.034 409.066C122.72 409.656 123.282 410.376 123.689 411.184C124.096 411.991 124.341 412.871 124.408 413.773C124.475 414.675 124.364 415.582 124.081 416.441C123.798 417.3 123.349 418.095 122.759 418.781C122.168 419.466 121.449 420.029 120.642 420.436Z" fill="#FC6464"/>
<path d="M114.131 447.603C111.069 449.868 98.1094 450.889 98.1094 450.889C98.1094 450.889 102.882 438.79 105.944 436.511C107.413 435.424 109.253 434.965 111.06 435.235C112.867 435.506 114.493 436.483 115.58 437.952C116.666 439.421 117.125 441.262 116.855 443.069C116.584 444.876 115.607 446.502 114.138 447.589L114.131 447.603Z" fill="#FC6464"/>
<path d="M92.8046 393.872C95.536 396.525 108.244 399.271 108.244 399.271C108.244 399.271 105.132 386.64 102.4 383.987C101.752 383.357 100.985 382.861 100.144 382.527C99.3035 382.193 98.4053 382.028 97.5009 382.042C96.5965 382.055 95.7036 382.246 94.8731 382.605C94.0427 382.963 93.2909 383.482 92.6609 384.131C92.0308 384.78 91.5347 385.547 91.2009 386.388C90.8672 387.229 90.7022 388.127 90.7156 389.031C90.7289 389.936 90.9203 390.829 91.2787 391.66C91.6372 392.49 92.1557 393.242 92.8046 393.872Z" fill="#FC6464"/>
<path d="M85.6137 425.734C89.0136 427.445 101.966 426.266 101.966 426.266C101.966 426.266 95.2168 415.145 91.8169 413.434C90.186 412.611 88.2951 412.47 86.5603 413.041C84.8254 413.613 83.3886 414.851 82.566 416.482C81.7435 418.113 81.6024 420.004 82.174 421.739C82.7455 423.474 83.9828 424.911 85.6137 425.734Z" fill="#FC6464"/>
<path d="M82.8538 457.675C85.9159 459.94 98.8757 460.961 98.8757 460.961C98.8757 460.961 94.1029 448.861 91.0408 446.582C89.572 445.496 87.7317 445.037 85.9247 445.307C84.1177 445.578 82.4921 446.555 81.4055 448.024C80.3189 449.493 79.8602 451.334 80.1305 453.141C80.4008 454.948 81.3778 456.574 82.8466 457.661L82.8538 457.675Z" fill="#FC6464"/>
<path opacity="0.25" d="M109.752 363.341C109.752 367.144 102.866 378.179 102.866 378.179C102.866 378.179 95.9805 367.144 95.9805 363.341C95.9805 361.513 96.7063 359.76 97.9984 358.468C99.2904 357.176 101.043 356.45 102.87 356.45C104.697 356.45 106.45 357.176 107.742 358.468C109.034 359.76 109.76 361.513 109.76 363.341H109.752Z" fill="black"/>
<path opacity="0.25" d="M121.145 384.419C119.075 387.611 107.301 393.132 107.301 393.132C107.301 393.132 107.516 380.127 109.579 376.928C110.573 375.394 112.134 374.318 113.921 373.935C115.708 373.553 117.573 373.897 119.107 374.89C120.641 375.883 121.717 377.445 122.099 379.232C122.481 381.019 122.138 382.885 121.145 384.419Z" fill="black"/>
<path opacity="0.25" d="M120.642 420.436C117.242 422.147 104.289 420.968 104.289 420.968C104.289 420.968 111.038 409.846 114.438 408.135C115.246 407.728 116.126 407.484 117.028 407.417C117.93 407.349 118.836 407.46 119.695 407.743C120.554 408.026 121.349 408.476 122.034 409.066C122.72 409.656 123.282 410.376 123.689 411.184C124.096 411.991 124.341 412.871 124.408 413.773C124.475 414.675 124.364 415.582 124.081 416.441C123.798 417.3 123.349 418.095 122.759 418.781C122.168 419.466 121.449 420.029 120.642 420.436Z" fill="black"/>
<path opacity="0.25" d="M114.131 447.603C111.069 449.868 98.1094 450.889 98.1094 450.889C98.1094 450.889 102.882 438.79 105.944 436.511C107.413 435.424 109.253 434.965 111.06 435.235C112.867 435.506 114.493 436.483 115.58 437.952C116.666 439.421 117.125 441.262 116.855 443.069C116.584 444.876 115.607 446.502 114.138 447.589L114.131 447.603Z" fill="black"/>
<path opacity="0.25" d="M92.8046 393.872C95.536 396.525 108.244 399.271 108.244 399.271C108.244 399.271 105.132 386.64 102.4 383.987C101.752 383.357 100.985 382.861 100.144 382.527C99.3035 382.193 98.4053 382.028 97.5009 382.042C96.5965 382.055 95.7036 382.246 94.8731 382.605C94.0427 382.963 93.2909 383.482 92.6609 384.131C92.0308 384.78 91.5347 385.547 91.2009 386.388C90.8672 387.229 90.7022 388.127 90.7156 389.031C90.7289 389.936 90.9203 390.829 91.2787 391.66C91.6372 392.49 92.1557 393.242 92.8046 393.872Z" fill="black"/>
<path opacity="0.25" d="M85.6137 425.734C89.0136 427.445 101.966 426.266 101.966 426.266C101.966 426.266 95.2168 415.145 91.8169 413.434C90.186 412.611 88.2951 412.47 86.5603 413.041C84.8254 413.613 83.3886 414.851 82.566 416.482C81.7435 418.113 81.6024 420.004 82.174 421.739C82.7455 423.474 83.9828 424.911 85.6137 425.734Z" fill="black"/>
<path opacity="0.25" d="M82.8538 457.675C85.9159 459.94 98.8757 460.961 98.8757 460.961C98.8757 460.961 94.1029 448.861 91.0408 446.582C89.572 445.496 87.7317 445.037 85.9247 445.307C84.1177 445.578 82.4921 446.555 81.4055 448.024C80.3189 449.493 79.8602 451.334 80.1305 453.141C80.4008 454.948 81.3778 456.574 82.8466 457.661L82.8538 457.675Z" fill="black"/>
<path d="M608.217 459.314C608.217 459.314 596.889 420.853 610.374 392.542C616.088 380.707 617.81 367.338 615.283 354.441C614.034 348.326 612.227 342.339 609.885 336.554" stroke="#535461" stroke-width="2" stroke-miterlimit="10"/>
<path d="M618.24 318.639C618.24 323.355 609.708 337.022 609.708 337.022C609.708 337.022 601.176 323.362 601.176 318.639C601.176 316.375 602.075 314.204 603.676 312.603C605.277 311.002 607.448 310.102 609.711 310.102C611.975 310.102 614.146 311.002 615.747 312.603C617.348 314.204 618.247 316.375 618.247 318.639H618.24Z" fill="#FC6464"/>
<path d="M632.334 344.75C629.775 348.704 615.184 355.533 615.184 355.533C615.184 355.533 615.45 339.423 618.008 335.462C619.239 333.562 621.174 332.228 623.387 331.755C625.601 331.282 627.911 331.708 629.811 332.938C631.711 334.169 633.044 336.104 633.517 338.318C633.99 340.532 633.564 342.843 632.334 344.743V344.75Z" fill="#FC6464"/>
<path d="M631.724 389.372C627.519 391.529 611.469 390.026 611.469 390.026C611.469 390.026 619.828 376.252 624.04 374.124C626.061 373.105 628.404 372.931 630.553 373.639C632.703 374.348 634.483 375.881 635.502 377.902C636.52 379.923 636.695 382.266 635.987 384.416C635.278 386.566 633.745 388.346 631.724 389.365V389.372Z" fill="#FC6464"/>
<path d="M623.65 423.031C619.862 425.835 603.797 427.1 603.797 427.1C603.797 427.1 609.712 412.111 613.501 409.307C615.32 407.961 617.6 407.393 619.838 407.728C622.077 408.063 624.09 409.274 625.436 411.094C626.782 412.914 627.35 415.194 627.015 417.433C626.68 419.671 625.469 421.685 623.65 423.031Z" fill="#FC6464"/>
<path d="M597.265 356.461C600.644 359.746 616.4 363.147 616.4 363.147C616.4 363.147 612.54 347.496 609.161 344.218C607.524 342.731 605.374 341.939 603.163 342.007C600.953 342.075 598.856 342.999 597.313 344.584C595.771 346.168 594.903 348.29 594.895 350.502C594.886 352.713 595.736 354.842 597.265 356.439V356.461Z" fill="#FC6464"/>
<path d="M588.328 395.943C592.533 398.099 608.583 396.597 608.583 396.597C608.583 396.597 600.224 382.823 596.012 380.695C595.011 380.19 593.921 379.888 592.803 379.804C591.686 379.721 590.563 379.859 589.499 380.21C588.435 380.56 587.45 381.117 586.601 381.849C585.752 382.58 585.055 383.472 584.551 384.473C584.046 385.473 583.744 386.564 583.66 387.681C583.577 388.799 583.715 389.922 584.066 390.986C584.416 392.051 584.973 393.036 585.705 393.885C586.436 394.734 587.327 395.431 588.328 395.935V395.943Z" fill="#FC6464"/>
<path d="M584.908 435.504C588.696 438.308 604.761 439.573 604.761 439.573C604.761 439.573 598.846 424.584 595.058 421.78C593.238 420.434 590.958 419.866 588.72 420.201C586.482 420.536 584.468 421.747 583.122 423.567C581.776 425.387 581.208 427.667 581.543 429.905C581.878 432.144 583.089 434.158 584.908 435.504Z" fill="#FC6464"/>
<path opacity="0.5" d="M618.24 318.639C618.24 323.355 609.708 337.022 609.708 337.022C609.708 337.022 601.176 323.362 601.176 318.639C601.176 316.375 602.075 314.204 603.676 312.603C605.277 311.002 607.448 310.102 609.711 310.102C611.975 310.102 614.146 311.002 615.747 312.603C617.348 314.204 618.247 316.375 618.247 318.639H618.24Z" fill="white"/>
<path opacity="0.5" d="M632.334 344.75C629.775 348.704 615.184 355.533 615.184 355.533C615.184 355.533 615.45 339.423 618.008 335.462C619.239 333.562 621.174 332.228 623.387 331.755C625.601 331.282 627.911 331.708 629.811 332.938C631.711 334.169 633.044 336.104 633.517 338.318C633.99 340.532 633.564 342.843 632.334 344.743V344.75Z" fill="white"/>
<path opacity="0.5" d="M631.724 389.372C627.519 391.529 611.469 390.026 611.469 390.026C611.469 390.026 619.828 376.252 624.04 374.124C626.061 373.105 628.404 372.931 630.553 373.639C632.703 374.348 634.483 375.881 635.502 377.902C636.52 379.923 636.695 382.266 635.987 384.416C635.278 386.566 633.745 388.346 631.724 389.365V389.372Z" fill="white"/>
<path opacity="0.5" d="M623.65 423.031C619.862 425.835 603.797 427.1 603.797 427.1C603.797 427.1 609.712 412.111 613.501 409.307C615.32 407.961 617.6 407.393 619.838 407.728C622.077 408.063 624.09 409.274 625.436 411.094C626.782 412.914 627.35 415.194 627.015 417.433C626.68 419.671 625.469 421.685 623.65 423.031Z" fill="white"/>
<path opacity="0.5" d="M597.265 356.461C600.644 359.746 616.4 363.147 616.4 363.147C616.4 363.147 612.54 347.496 609.161 344.218C607.524 342.731 605.374 341.939 603.163 342.007C600.953 342.075 598.856 342.999 597.313 344.584C595.771 346.168 594.903 348.29 594.895 350.502C594.886 352.713 595.736 354.842 597.265 356.439V356.461Z" fill="white"/>
<path opacity="0.5" d="M588.328 395.943C592.533 398.099 608.583 396.597 608.583 396.597C608.583 396.597 600.224 382.823 596.012 380.695C595.011 380.19 593.921 379.888 592.803 379.804C591.686 379.721 590.563 379.859 589.499 380.21C588.435 380.56 587.45 381.117 586.601 381.849C585.752 382.58 585.055 383.472 584.551 384.473C584.046 385.473 583.744 386.564 583.66 387.681C583.577 388.799 583.715 389.922 584.066 390.986C584.416 392.051 584.973 393.036 585.705 393.885C586.436 394.734 587.327 395.431 588.328 395.935V395.943Z" fill="white"/>
<path opacity="0.5" d="M584.908 435.504C588.696 438.308 604.761 439.573 604.761 439.573C604.761 439.573 598.846 424.584 595.058 421.78C593.238 420.434 590.958 419.866 588.72 420.201C586.482 420.536 584.468 421.747 583.122 423.567C581.776 425.387 581.208 427.667 581.543 429.905C581.878 432.144 583.089 434.158 584.908 435.504Z" fill="white"/>
<path d="M248.063 194.255V198.41L230.539 187.339L232.386 185.031L233.242 185.535L246.805 165.657V154.097L251.973 154.557V152.709C265.63 137.023 267.003 154.557 264.193 159.632C261.382 164.708 256.207 168.396 256.207 168.396C253.332 170.811 248.3 189.072 247.086 193.651L248.063 194.255Z" fill="url(#paint0_linear)"/>
<path d="M115.192 230.48C115.192 230.48 128.569 256.656 124.415 282.831C123.02 291.63 123.602 297.007 124.997 300.286C124.612 303.829 123.641 307.284 122.122 310.508C117.047 321.12 117.047 332.191 123.502 345.109L125.349 411.967C125.349 411.967 127.656 443.333 125.349 449.796C123.042 456.259 126.269 487.179 126.269 487.179H125.809V504.246L160.368 505.173C160.368 505.173 168.469 501.327 169.907 498.451L187.273 503.793C187.273 503.793 206.385 500.5 195.179 495.942C186.834 492.549 184.764 487.696 184.247 485.453L211.561 406.906C211.561 406.906 206.486 340.048 188.035 316.95L186.166 303.348H186.424L190.342 223.931L190.665 223.974H190.572C200.671 225.588 210.975 225.43 221.02 223.507C224.032 222.971 226.986 222.146 229.839 221.041L230.364 220.833H230.422H230.472C232.61 219.956 234.625 218.806 236.467 217.411L247.967 199.79L230.443 187.713L224.448 196.268C224.448 196.268 205.666 192.299 195.352 188.115C190.55 186.155 185.44 185.057 180.257 184.873L168.994 184.485L163.38 181.113L165.134 176.577C165.306 176.498 165.479 176.419 165.651 176.325L165.81 175.355C172.733 173.635 178.689 169.237 182.37 163.126C186.052 157.015 187.156 149.692 185.44 142.767H185.806C185.648 133.421 182.787 132.508 182.787 132.508C182.787 123.004 174.485 116.053 165.026 115.255C160.128 114.917 155.207 115.349 150.442 116.534C147.023 117.35 143.943 119.208 141.625 121.851C139.308 124.493 137.868 127.79 137.504 131.286C125.148 134.686 129.288 141.157 129.094 143.637C128.145 155.714 131.969 162.853 136.21 167.016C138.005 168.891 140.114 170.438 142.442 171.588L139.746 176.987H138.956L136.756 183.457H136.648L134.248 185.01C126.998 189.918 121.336 196.833 117.952 204.908C114.568 212.983 113.609 221.869 115.192 230.48ZM152.088 487.179V466.424L160.85 405.073V373.7L176.541 406.432L159.65 477.431L158.765 477.186L154.877 491.162C153.609 490.108 152.648 488.732 152.095 487.179H152.088Z" fill="url(#paint1_linear)"/>
<path d="M244.545 160.229V171.307L231.348 190.646L244.545 199.237C244.545 199.237 250.41 176.634 253.573 173.974C253.573 173.974 258.54 170.43 261.242 165.556C263.945 160.682 262.593 143.838 249.504 158.906V160.682L244.545 160.229Z" fill="#FDA57D"/>
<path d="M139.473 186.656L144.699 176.203C144.851 175.896 145.083 175.635 145.369 175.446C145.656 175.258 145.988 175.15 146.33 175.132L166.176 174.118C166.499 174.101 166.82 174.165 167.112 174.304C167.403 174.444 167.655 174.654 167.844 174.915C168.034 175.177 168.155 175.482 168.196 175.802C168.237 176.123 168.198 176.448 168.081 176.749L162.963 189.984C162.812 190.376 162.537 190.708 162.18 190.93C161.824 191.152 161.405 191.251 160.986 191.214L141.04 189.438C140.727 189.411 140.425 189.308 140.16 189.137C139.896 188.967 139.677 188.735 139.522 188.461C139.368 188.186 139.283 187.879 139.274 187.564C139.266 187.25 139.334 186.938 139.473 186.656Z" fill="#FDA57D"/>
<path d="M140.941 182.17L137.57 192.055L172.187 190.811L158.89 182.831L140.941 182.17Z" fill="#EDEEF9"/>
<path d="M228.914 192.141L230.682 189.927L245.748 198.791V202.781L228.914 192.141Z" fill="#EDEEF9"/>
<path d="M127.106 290.199C128.496 297.039 127.678 304.143 124.769 310.487C119.896 320.681 119.896 331.335 126.099 343.729L127.875 407.999C127.875 407.999 130.089 438.142 127.875 444.347C125.661 450.551 128.744 480.256 128.744 480.256H153.564V460.306L161.981 401.356V371.205L177.076 402.679L159.825 475.374L182.424 484.684L210.787 403.125C210.787 403.125 205.87 338.855 188.145 316.698L184.81 292.536L127.106 290.199Z" fill="#CEDDF9"/>
<path d="M128.312 496.654V480.256H153.571C153.571 480.256 155.346 486.906 166.868 488.236C178.391 489.566 161.549 497.545 161.549 497.545L128.312 496.654Z" fill="#333333"/>
<path d="M155.598 486.446L159.997 470.63L184.335 477.409C184.335 477.409 184.256 484.289 195.002 488.66C205.748 493.031 187.383 496.201 187.383 496.201L155.598 486.446Z" fill="#333333"/>
<path opacity="0.1" d="M184.809 293.866L127.098 291.529C127.812 294.971 127.961 298.507 127.536 301.997C130.174 308.208 135.838 306.511 135.838 306.511L186.333 304.958L184.809 293.866Z" fill="black"/>
<path d="M138.728 188.374L136.428 189.934C129.467 194.649 124.03 201.289 120.779 209.043C117.528 216.797 116.604 225.33 118.12 233.6C118.12 233.6 130.972 258.762 126.983 283.923C122.994 309.085 135.846 305.203 135.846 305.203L186.592 303.643L190.359 227.331C190.359 227.331 220.936 231.681 234.679 221.041L245.756 204.111L228.914 192.486L223.164 200.71C223.164 200.71 205.115 196.9 195.203 192.874C190.58 190.988 185.659 189.934 180.669 189.762L138.728 188.374Z" fill="#4D4981"/>
<path opacity="0.1" d="M139.174 311.156C139.174 311.156 136.069 326.669 153.801 352.377L139.174 311.156Z" fill="black"/>
<path opacity="0.1" d="M190.559 227.382C190.559 227.382 211.828 220.293 221.136 220.293C230.444 220.293 228.892 224.312 228.892 224.312C228.892 224.312 214.07 230.926 190.559 227.382Z" fill="black"/>
<path opacity="0.1" d="M166.457 175.017L157.99 176.03C157.724 176.03 157.48 176.397 157.336 176.922C159.198 180.279 161.526 182.278 164.057 182.278C164.96 182.264 165.844 182.016 166.623 181.559L167.27 177.641C167.485 176.34 167.054 174.945 166.457 175.017Z" fill="black"/>
<path d="M160.547 181.386C174.822 181.386 186.395 169.812 186.395 155.535C186.395 141.257 174.822 129.683 160.547 129.683C146.272 129.683 134.699 141.257 134.699 155.535C134.699 169.812 146.272 181.386 160.547 181.386Z" fill="#FDA57D"/>
<path opacity="0.1" d="M182.537 140.898L181.214 142.091C180.66 142.598 180.243 143.237 180.001 143.949C179.759 144.66 179.7 145.421 179.829 146.161C179.959 146.901 180.273 147.596 180.743 148.183C181.212 148.77 181.822 149.229 182.515 149.517C182.515 149.517 170.935 161.099 169.325 163.248C167.715 165.398 169.591 171.056 169.591 171.056C169.591 171.056 174.709 180.48 147.783 178.324C147.783 178.324 130.015 174.557 131.898 150.588C132.085 148.187 128.131 141.962 139.977 138.741C140.332 135.377 141.724 132.206 143.962 129.668C146.199 127.131 149.17 125.352 152.463 124.579C157.042 123.439 161.771 123.025 166.479 123.349C170.865 123.734 174.948 125.75 177.921 128.999C180.894 132.248 182.541 136.494 182.537 140.898Z" fill="black"/>
<path d="M183.097 139.489C183.097 139.489 185.843 140.337 185.972 149.345L182.069 149.079C182.069 149.079 173.041 173.234 173.99 170.085C177.491 158.504 170.489 160.66 168.872 162.817C167.255 164.974 169.138 170.624 169.138 170.624C169.138 170.624 174.256 180.049 147.33 177.892C147.33 177.892 129.562 174.125 131.445 150.157C131.632 147.756 127.678 141.53 139.524 138.31C139.876 134.947 141.265 131.777 143.498 129.238C145.731 126.699 148.698 124.918 151.988 124.14C156.567 123.001 161.297 122.586 166.004 122.911C175.118 123.68 183.097 130.373 183.097 139.489Z" fill="#72351C"/>
</g>
<defs>
<linearGradient id="paint0_linear" x1="-24532.7" y1="19658.7" x2="-24532.7" y2="15887.4" gradientUnits="userSpaceOnUse">
<stop stop-color="#808080" stop-opacity="0.25"/>
<stop offset="0.54" stop-color="#808080" stop-opacity="0.12"/>
<stop offset="1" stop-color="#808080" stop-opacity="0.1"/>
</linearGradient>
<linearGradient id="paint1_linear" x1="-107464" y1="312665" x2="-107464" y2="101063" gradientUnits="userSpaceOnUse">
<stop stop-color="#808080" stop-opacity="0.25"/>
<stop offset="0.54" stop-color="#808080" stop-opacity="0.12"/>
<stop offset="1" stop-color="#808080" stop-opacity="0.1"/>
</linearGradient>
<clipPath id="clip0">
<rect width="660" height="505.173" fill="white"/>
</clipPath>
</defs>
</svg>
