<svg width="36" height="42" viewBox="0 0 36 42" fill="none" xmlns="http://www.w3.org/2000/svg">
    <path d="M29.2351 9.93599L32.1411 7.02999L34.9691 9.85799L32.0631 12.764C34.9346 16.3583 36.3209 20.9157 35.9373 25.5002C35.5536 30.0847 33.4291 34.3483 30.0001 37.4154C26.5711 40.4824 22.0978 42.1201 17.4991 41.9921C12.9003 41.8641 8.52515 39.9801 5.27208 36.727C2.01901 33.4739 0.134999 29.0988 0.00697766 24.5C-0.121043 19.9012 1.51664 15.428 4.58369 11.999C7.65075 8.57 11.9143 6.4455 16.4989 6.06183C21.0834 5.67816 25.6408 7.06445 29.2351 9.93599ZM15.9991 14V26H19.9991V14H15.9991ZM9.99913 0H25.9991V3.99999H9.99913V0Z" fill="black"/>
</svg>
