<svg width="36" height="53" viewBox="0 0 36 53" fill="none" xmlns="http://www.w3.org/2000/svg">
    <path d="M0 0H36V8L18 19L0 8V0Z" fill="black"/>
    <rect x="15" y="4" width="6" height="16" fill="black"/>
    <mask id="mask0" mask-type="alpha" maskUnits="userSpaceOnUse" x="0" y="17" width="36" height="36">
        <path d="M18 17L20.1246 28.4611L28.5801 20.4377L23.5623 30.9587L35.119 29.4377L24.8754 35L35.119 40.5623L23.5623 39.0413L28.5801 49.5623L20.1246 41.5389L18 53L15.8754 41.5389L7.41987 49.5623L12.4377 39.0413L0.880983 40.5623L11.1246 35L0.880983 29.4377L12.4377 30.9587L7.41987 20.4377L15.8754 28.4611L18 17Z" fill="black"/>
    </mask>
    <g mask="url(#mask0)">
        <rect x="-2" y="-1" width="40" height="36" fill="black"/>
    </g>
    <rect x="9" y="13" width="18" height="3" fill="white"/>
</svg>
