<svg width="49" height="51" viewBox="0 0 49 51" fill="none" xmlns="http://www.w3.org/2000/svg">
    <path d="M48.0833 6.79477H44.512V1.43346C44.512 1.18955 44.4151 0.95563 44.2426 0.783158C44.0702 0.610687 43.8362 0.513794 43.5923 0.513794C43.3484 0.513794 43.1145 0.610687 42.942 0.783158C42.7696 0.95563 42.6727 1.18955 42.6727 1.43346V6.79477H36.235V1.43346C36.235 1.18955 36.1381 0.95563 35.9656 0.783158C35.7931 0.610687 35.5592 0.513794 35.3153 0.513794C35.0714 0.513794 34.8375 0.610687 34.665 0.783158C34.4925 0.95563 34.3956 1.18955 34.3956 1.43346V6.79477H30.8192C30.5753 6.79477 30.3414 6.89166 30.1689 7.06414C29.9965 7.23661 29.8996 7.47053 29.8996 7.71444V15.2248C29.903 17.5976 30.7883 19.8843 32.3835 21.6409C33.9786 23.3974 36.1698 24.4984 38.5312 24.7298V49.0723H28.7842C28.7842 49.0723 27.6632 49.0723 26.9448 49.0723C17.1405 49.0723 1.83934 49.0723 1.83934 49.0723V20.6045L20.1842 10.9355L25.4079 13.6871C25.6237 13.8009 25.8759 13.8243 26.1089 13.7521C26.342 13.6799 26.5368 13.5182 26.6505 13.3024C26.7643 13.0865 26.7877 12.8344 26.7155 12.6013C26.6434 12.3683 26.4816 12.1735 26.2658 12.0597L20.6131 9.08512C20.4809 9.0154 20.3337 8.97896 20.1842 8.97896C20.0347 8.97896 19.8875 9.0154 19.7552 9.08512L0.487793 19.2383C0.340872 19.3164 0.217908 19.433 0.132005 19.5755C0.0461017 19.718 0.000479511 19.8812 0 20.0476V49.992C0 50.2359 0.0968928 50.4698 0.269364 50.6423C0.441836 50.8148 0.675759 50.9117 0.91967 50.9117H39.4509C39.6948 50.9117 39.9287 50.8148 40.1012 50.6423C40.2737 50.4698 40.3705 50.2359 40.3705 49.992V24.7298C42.7316 24.4979 44.9222 23.3967 46.5169 21.6402C48.1116 19.8837 48.9966 17.5972 49 15.2248V7.71444C49 7.47104 48.9035 7.23756 48.7317 7.06517C48.5598 6.89279 48.3267 6.79555 48.0833 6.79477ZM47.1607 15.2248C47.1408 17.2572 46.3195 19.1996 44.8753 20.6298C43.4311 22.0599 41.4808 22.8622 39.4483 22.8622C37.4158 22.8622 35.4655 22.0599 34.0213 20.6298C32.5771 19.1996 31.7558 17.2572 31.736 15.2248V8.63411H47.1607V15.2248Z" fill="#FC6464"/>
    <line x1="27.5" y1="49.5001" x2="27.5" y2="33.5001" stroke="#FC6464" stroke-linecap="round"/>
    <line x1="14.5" y1="33.5001" x2="27.5" y2="33.5001" stroke="#FC6464" stroke-linecap="round"/>
    <line x1="14.5" y1="49.5001" x2="14.5" y2="33.5001" stroke="#FC6464" stroke-linecap="round"/>
</svg>
