<svg width="667" height="555" viewBox="0 0 667 555" fill="none" xmlns="http://www.w3.org/2000/svg">
<g clip-path="url(#clip0)">
<path opacity="0.1" d="M387.532 73.635C344.771 72.1477 304.046 58.3395 265.157 43.2291C226.269 28.1187 187.75 11.3756 146.014 3.37092C119.17 -1.77825 88.4671 -2.50535 66.8425 11.8912C46.0239 25.7721 39.298 49.6672 35.684 71.8635C32.962 88.5603 31.3631 106.136 38.8157 121.762C43.9956 132.616 53.1793 141.738 59.5352 152.135C81.6487 188.305 66.0166 232.909 42.0597 268.226C30.8279 284.797 17.7791 300.615 9.10419 318.237C0.429238 335.859 -3.58119 356.079 4.01022 374.072C11.5289 391.918 29.4537 405.297 48.8715 414.716C88.3085 433.852 134.762 439.325 180.093 442.425C280.406 449.293 381.248 446.319 481.826 443.344C519.05 442.24 556.432 441.123 593.048 435.366C613.384 432.167 634.375 427.097 649.141 414.842C667.878 399.289 672.523 372.954 659.963 353.448C638.9 320.736 580.68 312.612 565.94 277.506C557.839 258.179 566.158 236.657 577.938 218.731C603.203 180.287 645.547 146.556 647.773 102.613C649.306 72.4319 628.95 42.2045 597.475 27.9204C564.486 12.9554 518.733 14.8326 494.406 39.6134C469.332 65.1279 425.29 74.9437 387.532 73.635Z" fill="#FC6464"/>
<path opacity="0.1" d="M319.44 543.413C430.357 543.413 520.273 531.244 520.273 516.232C520.273 501.221 430.357 489.052 319.44 489.052C208.524 489.052 118.608 501.221 118.608 516.232C118.608 531.244 208.524 543.413 319.44 543.413Z" fill="#FC6464"/>
<path d="M429.037 191.57H426.209C425.374 191.57 424.696 192.248 424.696 193.084V238.323C424.696 239.159 425.374 239.836 426.209 239.836H429.037C429.873 239.836 430.55 239.159 430.55 238.323V193.084C430.55 192.248 429.873 191.57 429.037 191.57Z" fill="#3A3768"/>
<path d="M231.938 153.755H231.68C230.844 153.755 230.167 154.432 230.167 155.268V168.131C230.167 168.967 230.844 169.645 231.68 169.645H231.938C232.773 169.645 233.451 168.967 233.451 168.131V155.268C233.451 154.432 232.773 153.755 231.938 153.755Z" fill="#3A3768"/>
<path d="M232.235 182.852H231.561C230.725 182.852 230.048 183.53 230.048 184.365V208.994C230.048 209.83 230.725 210.508 231.561 210.508H232.235C233.07 210.508 233.748 209.83 233.748 208.994V184.365C233.748 183.53 233.07 182.852 232.235 182.852Z" fill="#3A3768"/>
<path d="M232.116 220.185H231.62C230.785 220.185 230.107 220.863 230.107 221.699V246.565C230.107 247.401 230.785 248.079 231.62 248.079H232.116C232.952 248.079 233.629 247.401 233.629 246.565V221.699C233.629 220.863 232.952 220.185 232.116 220.185Z" fill="#3A3768"/>
<path d="M402.093 101.245H257.784C243.557 101.245 232.023 112.784 232.023 127.017V473.651C232.023 487.885 243.557 499.423 257.784 499.423H402.093C416.321 499.423 427.854 487.885 427.854 473.651V127.017C427.854 112.784 416.321 101.245 402.093 101.245Z" fill="#3A3768"/>
<path d="M400.23 111.59H377.766V114.293C377.766 115.976 377.435 117.642 376.791 119.197C376.147 120.751 375.203 122.164 374.014 123.354C372.824 124.543 371.412 125.487 369.858 126.13C368.303 126.773 366.638 127.104 364.955 127.103H293.514C291.832 127.104 290.167 126.773 288.612 126.13C287.058 125.487 285.646 124.543 284.456 123.354C283.266 122.164 282.323 120.751 281.679 119.197C281.035 117.642 280.703 115.976 280.703 114.293V111.59H259.673C255.549 111.59 251.593 113.229 248.676 116.147C245.759 119.065 244.121 123.023 244.121 127.149V473.492C244.121 477.619 245.759 481.577 248.676 484.495C251.593 487.413 255.549 489.052 259.673 489.052H400.23C404.355 489.052 408.311 487.413 411.228 484.495C414.144 481.577 415.783 477.619 415.783 473.492V127.176C415.786 125.13 415.387 123.104 414.607 121.213C413.827 119.322 412.681 117.604 411.237 116.156C409.792 114.709 408.077 113.56 406.188 112.777C404.299 111.993 402.275 111.59 400.23 111.59Z" fill="#FC6464"/>
<path d="M335.839 113.136H313.606C312.194 113.136 311.049 114.282 311.049 115.695V116.131C311.049 117.544 312.194 118.689 313.606 118.689H335.839C337.251 118.689 338.396 117.544 338.396 116.131V115.695C338.396 114.282 337.251 113.136 335.839 113.136Z" fill="#E6E8EC"/>
<path d="M345.683 119.065C347.424 119.065 348.835 117.654 348.835 115.912C348.835 114.171 347.424 112.76 345.683 112.76C343.943 112.76 342.532 114.171 342.532 115.912C342.532 117.654 343.943 119.065 345.683 119.065Z" fill="#E6E8EC"/>
<path d="M495.655 83.7815C495.655 83.7815 440.024 80.4236 446.578 119.422C446.578 119.422 445.257 126.317 451.52 129.443C451.52 129.443 451.619 126.555 457.229 127.54C459.226 127.871 461.254 127.968 463.274 127.83C465.998 127.651 468.591 126.591 470.661 124.81C470.661 124.81 486.299 118.345 492.378 92.7776C492.378 92.7776 496.877 87.1988 496.699 85.7644L487.31 89.7767C487.31 89.7767 490.521 96.5519 487.971 102.184C487.971 102.184 487.667 90.0213 485.863 90.2857C485.5 90.3386 480.987 92.6322 480.987 92.6322C480.987 92.6322 486.504 104.431 482.342 113.011C482.342 113.011 483.921 98.4688 479.263 93.4849L472.656 97.3451C472.656 97.3451 479.104 109.534 474.731 119.482C474.731 119.482 475.854 104.226 471.262 98.2837L465.276 102.957C465.276 102.957 471.335 114.967 467.641 123.217C467.641 123.217 467.159 105.462 463.981 104.12C463.981 104.12 458.742 108.747 457.942 110.638C457.942 110.638 462.091 119.363 459.515 123.964C459.515 123.964 457.936 112.132 456.641 112.066C456.641 112.066 451.421 119.905 450.879 125.285C450.879 125.285 451.104 117.294 455.379 111.325C455.379 111.325 450.331 112.191 447.384 115.463C447.384 115.463 448.197 109.924 456.667 109.435C456.667 109.435 460.981 103.486 462.131 103.129C462.131 103.129 453.714 102.422 448.607 104.689C448.607 104.689 453.099 99.4603 463.677 101.84L469.59 97.008C469.59 97.008 458.504 95.4943 453.8 97.1667C453.8 97.1667 459.211 92.5397 471.183 95.9108L477.618 92.0638C477.618 92.0638 468.163 90.0279 462.534 90.7418C462.534 90.7418 468.48 87.5359 479.507 91.0128L484.132 88.9439C484.132 88.9439 477.208 87.5822 475.18 87.3641C473.152 87.1459 473.046 86.5907 473.046 86.5907C477.433 85.8589 481.936 86.36 486.055 88.0383C486.055 88.0383 495.82 84.3962 495.655 83.7815Z" fill="#FC6464"/>
<path d="M438.591 66.4368C438.591 66.4368 413.484 64.9231 416.418 82.5453C416.418 82.5453 415.83 85.6586 418.651 87.0732C418.651 87.0732 418.697 85.7512 421.234 86.2073C422.135 86.359 423.051 86.4034 423.963 86.3395C425.195 86.2579 426.367 85.7751 427.299 84.9646C427.299 84.9646 434.369 82.043 437.117 70.4887C437.117 70.4887 439.146 67.9703 439.066 67.3226L434.825 69.1337C434.825 69.1337 436.272 72.1941 435.135 74.739C435.135 74.739 434.996 69.2461 434.184 69.3717C434.019 69.3717 431.977 70.4359 431.977 70.4359C431.977 70.4359 434.474 75.7701 432.591 79.6436C432.591 79.6436 433.305 73.0732 431.197 70.8192L428.211 72.5907C428.211 72.5907 431.125 78.0968 429.149 82.5916C429.149 82.5916 429.658 75.6974 427.583 73.0138L424.881 75.1289C424.881 75.1289 427.616 80.5557 425.951 84.2838C425.951 84.2838 425.727 76.2593 424.293 75.6511C424.293 75.6511 421.928 77.7399 421.564 78.5992C421.564 78.5992 423.441 82.5652 422.278 84.6209C422.278 84.6209 421.564 79.2734 420.957 79.247C420.957 79.247 418.598 82.7899 418.353 85.1959C418.471 82.9526 419.173 80.7789 420.388 78.89C419.027 79.148 417.771 79.7981 416.774 80.7606C416.774 80.7606 417.144 78.2555 420.97 78.0373C420.97 78.0373 422.952 75.3471 423.441 75.1818C423.441 75.1818 419.635 74.8645 417.329 75.8891C417.329 75.8891 419.358 73.5293 424.135 74.6001L426.777 72.4189C426.777 72.4189 421.763 71.7579 419.642 72.4916C419.642 72.4916 422.086 70.4028 427.498 71.9231L430.405 70.1847C430.405 70.1847 426.13 69.2659 423.586 69.5964C423.586 69.5964 426.275 68.1488 431.257 69.7154L433.338 68.7834C433.338 68.7834 430.206 68.1686 429.288 68.0695C428.37 67.9703 428.323 67.7192 428.323 67.7192C430.307 67.3891 432.343 67.618 434.204 68.3802C434.204 68.3802 438.67 66.7145 438.591 66.4368Z" fill="#FC6464"/>
<path opacity="0.1" d="M570.955 514.183C580.781 514.183 588.747 512.837 588.747 511.176C588.747 509.515 580.781 508.168 570.955 508.168C561.128 508.168 553.162 509.515 553.162 511.176C553.162 512.837 561.128 514.183 570.955 514.183Z" fill="#FC6464"/>
<path opacity="0.1" d="M60.1829 538.865C70.0095 538.865 77.9755 537.519 77.9755 535.858C77.9755 534.197 70.0095 532.85 60.1829 532.85C50.3564 532.85 42.3904 534.197 42.3904 535.858C42.3904 537.519 50.3564 538.865 60.1829 538.865Z" fill="#FC6464"/>
<path opacity="0.1" d="M129.008 555C138.834 555 146.8 553.653 146.8 551.992C146.8 550.331 138.834 548.985 129.008 548.985C119.181 548.985 111.215 550.331 111.215 551.992C111.215 553.653 119.181 555 129.008 555Z" fill="#FC6464"/>
<path d="M532.007 547.901C546.679 547.901 558.573 545.888 558.573 543.406C558.573 540.924 546.679 538.911 532.007 538.911C517.334 538.911 505.44 540.924 505.44 543.406C505.44 545.888 517.334 547.901 532.007 547.901Z" fill="#FC6464"/>
<path d="M542.994 536.056C544.205 535.065 545.087 533.731 545.524 532.229C545.855 530.715 545.207 528.924 543.754 528.335C542.128 527.714 540.391 528.844 539.076 529.981C537.761 531.118 536.248 532.42 534.524 532.176C535.411 531.373 536.075 530.353 536.452 529.217C536.828 528.08 536.904 526.866 536.671 525.691C536.594 525.204 536.386 524.748 536.07 524.369C535.171 523.404 533.533 523.814 532.456 524.581C529.02 526.993 528.062 531.667 528.042 535.864C527.692 534.35 527.989 532.771 527.976 531.237C527.963 529.704 527.547 527.932 526.232 527.119C525.421 526.684 524.509 526.469 523.589 526.498C522.043 526.438 520.325 526.597 519.268 527.727C517.947 529.129 518.304 531.482 519.44 533.015C520.576 534.549 522.314 535.534 523.913 536.598C525.192 537.361 526.283 538.402 527.104 539.645C527.203 539.819 527.283 540.003 527.342 540.194H536.995C539.171 539.091 541.189 537.699 542.994 536.056Z" fill="#FC6464"/>
<path d="M129.926 478.08C129.926 478.08 133.56 482.832 128.255 489.978C122.949 497.123 118.575 503.197 120.326 507.672C120.326 507.672 128.334 494.353 134.862 494.168C141.389 493.983 137.095 486.091 129.926 478.08Z" fill="#FC6464"/>
<path opacity="0.1" d="M129.926 478.08C130.243 478.54 130.492 479.043 130.666 479.573C137.022 487.043 140.411 494.016 134.3 494.188C128.611 494.353 121.786 504.533 120.148 507.104C120.201 507.302 120.267 507.494 120.339 507.692C120.339 507.692 128.347 494.373 134.875 494.188C141.402 494.003 137.095 486.091 129.926 478.08Z" fill="black"/>
<path d="M136.672 484.134C136.672 485.807 136.487 487.162 136.256 487.162C136.024 487.162 135.839 485.807 135.839 484.134C135.839 482.462 136.071 483.249 136.302 483.249C136.533 483.249 136.672 482.462 136.672 484.134Z" fill="#FFD037"/>
<path d="M138.991 486.131C137.524 486.93 136.242 487.413 136.137 487.208C136.031 487.003 137.121 486.19 138.588 485.39C140.055 484.59 139.48 485.172 139.586 485.39C139.691 485.608 140.458 485.331 138.991 486.131Z" fill="#FFD037"/>
<path d="M110.759 478.08C110.759 478.08 107.125 482.832 112.431 489.978C117.736 497.123 122.11 503.197 120.359 507.672C120.359 507.672 112.358 494.353 105.824 494.168C99.2895 493.983 103.577 486.091 110.759 478.08Z" fill="#FC6464"/>
<path opacity="0.1" d="M110.759 478.08C110.441 478.54 110.19 479.043 110.013 479.573C103.657 487.043 100.274 494.016 106.379 494.188C112.074 494.353 118.899 504.533 120.538 507.104C120.483 507.304 120.417 507.5 120.339 507.692C120.339 507.692 112.338 494.373 105.804 494.188C99.2697 494.003 103.577 486.091 110.759 478.08Z" fill="black"/>
<path d="M104.007 484.134C104.007 485.807 104.198 487.162 104.43 487.162C104.661 487.162 104.846 485.807 104.846 484.134C104.846 482.462 104.615 483.249 104.383 483.249C104.152 483.249 104.007 482.462 104.007 484.134Z" fill="#FFD037"/>
<path d="M101.694 486.131C103.161 486.93 104.436 487.413 104.549 487.208C104.661 487.003 103.558 486.19 102.091 485.39C100.624 484.59 101.205 485.172 101.093 485.39C100.981 485.608 100.228 485.331 101.694 486.131Z" fill="#FFD037"/>
<path d="M105.163 507.071C105.163 507.071 115.311 506.754 118.377 504.579C121.443 502.404 133.989 499.793 134.743 503.29C135.496 506.787 149.998 520.668 138.542 520.76C127.085 520.853 111.915 518.976 108.863 517.118C105.811 515.261 105.163 507.071 105.163 507.071Z" fill="#A8A8A8"/>
<path opacity="0.2" d="M138.74 519.544C127.283 519.637 112.114 517.759 109.061 515.902C106.742 514.481 105.811 509.398 105.5 507.058H105.163C105.163 507.058 105.824 515.241 108.856 517.105C111.889 518.969 127.078 520.84 138.535 520.747C141.838 520.747 142.981 519.544 142.922 517.799C142.459 518.87 141.198 519.524 138.74 519.544Z" fill="black"/>
<path d="M186.469 293.946C186.563 294.036 186.684 294.095 186.813 294.111C186.943 294.128 187.075 294.102 187.189 294.038C186.945 294.042 186.703 294.011 186.469 293.946Z" fill="url(#paint0_linear)"/>
<path d="M265.64 162.407C264.246 161.997 262.264 161.33 259.865 160.49C262.354 157.238 264.173 153.524 265.217 149.564L265.012 149.643C265.078 149.399 265.151 149.161 265.217 148.916C260.632 150.807 255.551 147.594 252.32 143.489C249.089 139.384 246.889 134.275 243.354 130.487C241.878 128.987 240.29 127.602 238.604 126.343C237.56 125.523 236.43 124.671 235.155 124.631C233.094 124.572 231.475 126.614 229.486 127.229C228.175 127.529 226.808 127.478 225.522 127.083C220.389 125.887 215.44 123.686 210.227 123.117C207.425 122.765 204.58 123.089 201.929 124.063C199.286 125.081 198.097 127.097 195.982 128.69C193.69 130.421 189.124 130.382 186.422 130.673C183.146 131.049 179.847 131.188 176.551 131.089C174.656 130.918 172.747 130.989 170.869 131.301C166.945 132.173 163.793 135.333 160.853 138.373C160.047 139.067 159.469 139.989 159.195 141.017C159.159 141.307 159.159 141.6 159.195 141.89C159.164 142.68 159.3 143.468 159.591 144.203C160.48 146.936 161.747 149.53 163.357 151.91C164.56 153.655 165.954 155.295 166.661 157.357C166.985 158.372 167.157 159.431 167.169 160.497C167.132 161.63 167.015 162.758 166.819 163.874C166.3 166.952 165.447 169.964 164.276 172.857C163.655 174.391 162.954 175.918 162.789 177.597C162.769 177.931 162.769 178.267 162.789 178.601C162.591 183.777 167.751 187.512 168.735 192.661C168.813 193.087 168.862 193.517 168.881 193.95C168.768 197.162 166.965 200.302 164.309 201.545C164.54 201.637 164.778 201.717 165.016 201.803C164.787 201.947 164.551 202.08 164.309 202.199C164.791 202.384 165.286 202.543 165.789 202.688C162.751 205.351 160.2 208.523 158.25 212.061C149.357 228.936 88.7448 262.039 88.7448 262.039C88.7448 262.039 89.0883 262.231 89.6433 262.561C89.4187 262.7 89.1808 262.859 88.9165 263.037C83.6706 266.58 71.3552 276.918 82.488 289.953C82.488 289.953 91.1761 276.039 97.2611 270.123C97.5386 269.859 97.8029 269.614 98.0606 269.383C98.1966 269.592 98.2879 269.826 98.3289 270.072C98.3698 270.318 98.3594 270.569 98.2984 270.811L138.158 248.092C138.158 248.092 152.324 238.032 156.275 235.758C157.636 234.978 161.104 232.81 165.253 231.851L164.791 232.056C166.28 231.64 167.817 231.418 169.363 231.395C176.419 231.508 184.057 236.749 186.581 257.511C189.957 285.313 188.391 290.323 187.308 291.011C187.173 291.001 187.04 290.976 186.911 290.938C186.943 290.968 186.979 290.995 187.017 291.017C186.869 291.008 186.723 290.981 186.581 290.938C186.657 291.01 186.75 291.062 186.852 291.087C186.954 291.113 187.061 291.112 187.162 291.083C187.236 291.105 187.313 291.111 187.389 291.102C187.465 291.093 187.538 291.069 187.605 291.031C187.757 291.031 187.935 291.031 188.14 291.031C188.14 291.282 188.1 291.546 188.081 291.804C188.028 291.804 187.763 291.956 188.081 291.976C188.001 293.542 188.008 295.281 188.081 297.032C184.572 297.231 181.071 297.442 177.998 297.634L178.276 296.16L178.401 295.499C181.09 295.281 183.647 294.481 183.945 292.26C184.605 287.395 177.998 284.797 172.415 284.473C166.833 284.15 133.216 286.423 133.216 286.423C133.216 286.423 128.175 293.033 144.157 295.089C144.633 295.34 145.129 295.618 145.631 295.909C151.888 299.531 160.384 306.194 164.447 309.479L165.016 309.935L163.192 311.409C173.103 313.683 182.63 351.981 187.896 369.504C193.161 387.027 204.697 386.379 214.251 383.788C223.203 381.349 224.346 354.982 224.452 351.671C224.452 351.446 224.452 351.333 224.452 351.333L240.368 371.236L241.577 372.75C242.046 372.994 242.502 373.226 242.951 373.444C255.009 379.267 268.329 368.11 264.536 355.418C260.711 342.595 254.765 323.644 250.8 315.633C247.497 308.924 243.196 297.786 240.593 290.793C240.93 290.654 241.259 290.495 241.577 290.317C241.577 290.317 241.518 290.006 241.412 289.431L241.577 289.345C241.577 289.345 237.745 269.152 237.534 254.815C237.534 254.563 237.534 254.312 237.534 254.061C237.534 253.81 237.534 253.75 237.534 253.592C240.414 252.931 242.238 252.666 242.238 252.666L242.291 252.045L241.954 252.118L243.553 233.517C243.553 233.517 249.433 220.833 244.934 215.545C243.564 213.992 242.649 212.091 242.291 210.052C241.538 205.187 242.291 197.09 252.776 190.354C268.917 179.97 275.18 171.529 275.18 171.529C275.18 171.529 275.524 165.329 265.64 162.407ZM233.583 175.31V166.717C236.576 166.571 239.635 166.922 242.641 166.717C244.119 166.613 245.584 166.365 247.015 165.976L247.741 166.485C243.343 169.914 238.598 172.871 233.583 175.31ZM187.823 310.028C189.006 310.861 190.195 311.726 191.364 312.592C192.091 316.829 192.732 319.824 192.778 320.029C191.442 316.547 189.783 313.199 187.823 310.028Z" fill="url(#paint1_linear)"/>
<path d="M213.696 304.601L212.982 308.474L212.434 311.436L211.436 316.856L201.764 323.631C201.764 323.631 200.891 322.884 199.451 321.707C195.487 318.442 187.156 311.793 181.038 308.223C179.464 307.22 177.761 306.435 175.977 305.89L213.696 304.601Z" fill="#FFBDC6"/>
<path opacity="0.1" d="M213.696 304.601L212.982 308.474C210.849 308.59 208.71 308.479 206.6 308.144L184.03 308.468C182.967 308.402 181.969 308.322 181.038 308.223C179.464 307.22 177.761 306.435 175.977 305.89L213.696 304.601Z" fill="black"/>
<path d="M206.6 307.483C206.6 307.483 217.878 309.42 218.539 304.601C219.199 299.782 212.731 297.178 207.254 296.854C201.777 296.53 168.887 298.791 168.887 298.791C168.887 298.791 163.086 306.531 184.037 307.827L206.6 307.483Z" fill="#474463"/>
<path opacity="0.1" d="M213.696 304.601L212.982 308.474L212.434 311.436L211.436 316.856L201.764 323.631C201.764 323.631 200.891 322.884 199.451 321.707C195.487 318.442 187.156 311.793 181.038 308.223C179.464 307.22 177.761 306.435 175.977 305.89L213.696 304.601Z" fill="black"/>
<path opacity="0.1" d="M213.696 304.601L212.982 308.474C210.849 308.59 208.71 308.479 206.6 308.144L184.03 308.468C182.967 308.402 181.969 308.322 181.038 308.223C179.464 307.22 177.761 306.435 175.977 305.89L213.696 304.601Z" fill="black"/>
<path opacity="0.1" d="M206.6 307.47C206.6 307.47 217.885 309.4 218.532 304.561C219.18 299.723 212.725 297.145 207.248 296.821C201.77 296.497 168.881 298.758 168.881 298.758C168.881 298.758 163.08 306.498 184.031 307.787L206.6 307.47Z" fill="black"/>
<path d="M231.264 148.473H172.263V218.466H231.264V148.473Z" fill="#474463"/>
<path opacity="0.1" d="M231.264 148.791H172.263V218.784H231.264V148.791Z" fill="black"/>
<path d="M103.115 268.292C102.144 268.537 100.902 269.476 99.5208 270.837C93.5745 276.727 85.0581 290.548 85.0581 290.548C74.1698 277.573 86.221 267.321 91.3546 263.798C92.6033 262.945 93.4424 262.476 93.4424 262.476L103.115 268.292Z" fill="#FFBDC6"/>
<path d="M213.048 170.564C213.048 170.564 215.949 190.883 225.945 195.721C235.942 200.56 213.048 209.602 213.048 209.602L181.778 197.982C181.778 197.982 199.511 192.172 195.963 175.078L213.048 170.564Z" fill="#FFBDC6"/>
<path d="M179.518 292.809L178.811 296.669L178.236 299.643L177.239 305.064L167.566 311.832C167.566 311.832 166.694 311.092 165.254 309.915C161.289 306.65 152.958 300 146.833 296.431C145.261 295.426 143.558 294.641 141.772 294.098L179.518 292.809Z" fill="#FFBDC6"/>
<path opacity="0.1" d="M179.518 292.809L178.811 296.669C176.678 296.785 174.539 296.674 172.429 296.338L149.859 296.662C148.796 296.596 147.791 296.517 146.86 296.418C145.287 295.413 143.584 294.628 141.799 294.084L179.518 292.809Z" fill="black"/>
<path d="M172.429 295.71C172.429 295.71 183.713 297.641 184.354 292.809C184.995 287.977 178.553 285.386 173.069 285.062C167.586 284.738 134.709 286.999 134.709 286.999C134.709 286.999 128.902 294.739 149.859 296.034L172.429 295.71Z" fill="#474463"/>
<path opacity="0.1" d="M178.236 299.643L177.238 305.064L167.566 311.832C167.566 311.832 166.694 311.092 165.253 309.915L178.045 299.419L178.236 299.643Z" fill="black"/>
<path d="M242.119 373.484C241.676 373.265 241.234 373.041 240.798 372.823L239.608 371.322L224.009 351.532C224.009 351.532 224.009 351.651 224.009 351.876C223.904 355.181 222.78 381.369 214.019 383.789C204.671 386.366 193.393 387.014 188.252 369.597C183.112 352.18 173.717 314.119 164.071 311.859L178.421 300.086C178.421 300.086 187.922 311.204 191.794 321.846C191.648 321.185 185.088 290.515 190.472 285.088H237.547C237.547 285.088 244.815 305.797 249.796 316.056C253.674 324.021 259.495 342.853 263.241 355.597C266.955 368.182 253.919 379.294 242.119 373.484Z" fill="#474463"/>
<path opacity="0.1" d="M240.778 290.872C233.51 295.175 201.605 293.423 191.226 292.723L188.398 292.518C188.094 292.518 188.444 292.346 188.444 292.346L188.735 289.418L196.471 269.747L237.897 245.713C237.058 248.244 236.781 252.118 236.847 256.553C237.038 270.804 240.778 290.872 240.778 290.872Z" fill="black"/>
<path d="M240.778 289.9C233.51 294.203 201.605 292.452 191.226 291.751L188.398 291.553L187.929 291.513L188.444 291.381L190.994 290.72L196.472 268.788L237.897 244.761C237.058 247.292 236.781 251.166 236.847 255.601C237.038 269.839 240.778 289.9 240.778 289.9Z" fill="#F2F1F2"/>
<path opacity="0.1" d="M236.82 255.588C228.396 257.531 209.857 263.236 202.735 277.004C197.984 286.172 193.987 290.105 191.199 291.751L188.371 291.553C188.39 291.496 188.405 291.439 188.418 291.381L190.968 290.72L196.445 268.788L237.871 244.761C237.038 247.279 236.754 251.153 236.82 255.588Z" fill="black"/>
<path opacity="0.1" d="M93.4423 262.489L103.115 268.292C102.144 268.537 100.902 269.476 99.5207 270.837C98.7147 268.484 93.6537 265.199 91.3545 263.798C92.6032 262.958 93.4423 262.489 93.4423 262.489Z" fill="black"/>
<path opacity="0.1" d="M186.647 291.93C186.541 291.985 186.42 292.006 186.302 291.989C186.183 291.973 186.073 291.919 185.986 291.837C186.201 291.9 186.423 291.931 186.647 291.93Z" fill="black"/>
<path d="M208.536 194.433C208.536 194.433 199.828 195.398 193.703 188.946C193.703 188.946 167.936 196.369 159.208 213.139C150.48 229.908 91.1562 262.813 91.1562 262.813C91.1562 262.813 101.476 268.616 100.505 271.518L139.519 248.938C139.519 248.938 153.394 238.944 157.246 236.684C161.098 234.423 182.398 220.555 186.911 258.292C191.424 296.028 186.911 291.513 186.911 291.513C186.911 291.513 193.359 293.774 202.708 275.709C212.057 257.644 241.068 253.453 241.068 253.453L242.68 234.43C242.68 234.43 248.435 221.818 244.002 216.583C242.659 215.033 241.765 213.144 241.419 211.123C240.685 206.291 241.419 198.24 251.686 191.551C267.483 181.226 273.608 172.844 273.608 172.844C273.608 172.844 273.931 166.71 264.259 163.809C254.586 160.907 215.255 145.102 215.255 145.102L213.934 150.589L244.966 172.501C244.966 172.501 229.493 185.06 217.217 184.756C217.217 184.756 219.497 194.109 208.536 194.433Z" fill="#FF748E"/>
<path opacity="0.1" d="M214.508 179.408C213.746 176.822 213.15 174.191 212.724 171.529L195.639 176.043C196.392 179.307 196.257 182.712 195.249 185.905C198.742 186.838 202.433 186.719 205.858 185.563C209.284 184.408 212.293 182.266 214.508 179.408Z" fill="black"/>
<path d="M200.317 185.562C210.465 185.562 218.691 177.332 218.691 167.179C218.691 157.027 210.465 148.797 200.317 148.797C190.169 148.797 181.943 157.027 181.943 167.179C181.943 177.332 190.169 185.562 200.317 185.562Z" fill="#FFBDC6"/>
<path opacity="0.1" d="M210.088 125.371C215.189 125.947 220.032 128.141 225.053 129.337C226.308 129.73 227.644 129.782 228.925 129.489C230.874 128.881 232.46 126.845 234.481 126.905C235.723 126.905 236.827 127.791 237.851 128.604C239.495 129.859 241.041 131.238 242.476 132.728C245.938 136.489 248.085 141.553 251.243 145.644C254.401 149.736 259.383 152.915 263.869 151.038C260.817 162.936 250.82 171.998 240.005 172.739C235.69 173.029 231.27 172.13 227.095 173.4C226.054 173.823 224.956 174.09 223.837 174.193C221.433 174.193 219.497 171.985 217.997 169.837C214.482 164.787 211.7 159.049 207.743 154.442C206.421 152.922 204.895 151.474 203.045 151.197C201.195 150.919 199.497 151.798 197.852 152.651C195.137 154.059 192.362 155.52 190.254 157.939C188.147 160.358 186.819 163.954 187.691 167.193C188.16 168.951 189.23 170.537 189.25 172.375C189.29 175.303 186.7 177.451 186.191 180.307C186.076 181.506 186.034 182.712 186.065 183.916C185.841 187.829 183.284 191.035 180.615 193.494C179.571 194.452 178.421 195.477 178.117 196.958C177.912 197.962 178.117 199.033 177.985 200.051C177.595 202.589 175.065 203.878 172.825 204.215C170.208 204.596 167.537 204.279 165.082 203.296C168.213 201.809 170.143 197.599 169.416 193.818C168.418 188.583 163.159 184.828 163.608 179.494C163.856 177.86 164.346 176.271 165.062 174.781C166.209 171.905 167.042 168.913 167.546 165.858C167.942 163.491 168.134 160.986 167.394 158.739C166.733 156.683 165.353 155.057 164.183 153.325C162.596 150.967 161.345 148.4 160.463 145.697C160.141 144.899 160.019 144.035 160.107 143.179C160.364 142.153 160.929 141.23 161.725 140.535C164.599 137.514 167.672 134.368 171.523 133.508C173.361 133.198 175.231 133.124 177.087 133.29C180.314 133.395 183.545 133.258 186.753 132.88C189.395 132.57 193.862 132.616 196.101 130.897C198.189 129.291 199.365 127.288 201.935 126.27C204.539 125.312 207.338 125.003 210.088 125.371Z" fill="black"/>
<path opacity="0.1" d="M220.303 315.223C220.303 315.223 230.94 336.19 227.716 342.635L220.303 315.223Z" fill="black"/>
<path opacity="0.1" d="M239.588 371.296L224.009 351.532C224.009 351.532 224.009 351.651 224.009 351.876C224.009 351.876 223.111 345.477 226.077 347.625C232.578 352.332 242.978 360.045 243.202 361.374C243.427 362.703 241.095 368.01 239.588 371.296Z" fill="black"/>
<g opacity="0.1">
<path opacity="0.1" d="M217.561 184.755C217.561 184.755 218.882 190.202 214.627 192.925C221.168 191.808 221.459 186.712 221.234 184.498C220.02 184.692 218.791 184.779 217.561 184.755Z" fill="black"/>
<path opacity="0.1" d="M95.0545 261.517C95.0545 261.517 154.372 228.619 163.106 211.85C169.35 199.813 184.401 192.595 192.395 189.475C186.568 191.458 166.932 198.934 159.558 213.139C150.857 229.908 91.5066 262.813 91.5066 262.813L95.0545 261.517Z" fill="black"/>
<path opacity="0.1" d="M229.11 182.191C239.205 179.051 248.851 171.212 248.851 171.212L217.878 149.266L218.585 146.265L215.618 145.076L214.33 150.562L245.284 172.494C240.323 176.396 234.888 179.654 229.11 182.191Z" fill="black"/>
<path opacity="0.1" d="M229.288 256.52C233.242 255.17 237.299 254.144 241.419 253.453L241.472 252.832C237.321 253.744 233.248 254.977 229.288 256.52Z" fill="black"/>
<path opacity="0.1" d="M191.774 290.31H191.49C191.383 290.364 191.263 290.385 191.145 290.368C191.027 290.351 190.916 290.299 190.829 290.218C191.044 290.28 191.266 290.311 191.49 290.31C192.547 289.695 194.133 284.877 190.829 256.996C187.275 227.251 173.288 229.571 165.637 232.995C173.459 230.84 184.222 232.704 187.281 258.285C190.618 286.166 189.025 290.984 187.942 291.599C189.317 291.548 190.647 291.1 191.774 290.31Z" fill="black"/>
<path opacity="0.1" d="M187.942 291.606C187.718 291.607 187.496 291.576 187.281 291.513C187.369 291.595 187.479 291.647 187.597 291.664C187.715 291.68 187.836 291.66 187.942 291.606Z" fill="black"/>
</g>
<path d="M210.088 124.724C215.189 125.305 220.032 127.493 225.053 128.69C226.308 129.08 227.644 129.13 228.925 128.835C230.874 128.233 232.46 126.191 234.481 126.25C235.723 126.29 236.827 127.136 237.851 127.949C239.493 129.207 241.039 130.585 242.476 132.074C245.938 135.835 248.085 140.898 251.243 144.99C254.401 149.081 259.383 152.261 263.869 150.383C260.817 162.281 250.82 171.344 240.005 172.084C235.69 172.381 231.27 171.483 227.095 172.745C226.055 173.172 224.957 173.439 223.838 173.538C221.433 173.538 219.497 171.33 217.997 169.182C214.482 164.132 211.701 158.401 207.743 153.794C206.422 152.267 204.895 150.82 203.045 150.542C201.195 150.264 199.497 151.15 197.852 152.003C195.137 153.411 192.362 154.865 190.254 157.291C188.147 159.717 186.819 163.299 187.691 166.545C188.16 168.303 189.23 169.89 189.25 171.727C189.29 174.662 186.7 176.804 186.191 179.659C186.076 180.858 186.034 182.064 186.065 183.268C185.841 187.181 183.284 190.38 180.615 192.846C179.571 193.798 178.421 194.829 178.117 196.303C177.912 197.314 178.117 198.379 177.985 199.403C177.595 201.941 175.065 203.23 172.825 203.561C170.208 203.948 167.535 203.631 165.082 202.642C168.213 201.161 170.143 196.944 169.416 193.17C168.418 187.935 163.159 184.174 163.608 178.846C163.856 177.211 164.346 175.623 165.062 174.133C166.208 171.254 167.041 168.26 167.546 165.203C167.943 162.843 168.134 160.338 167.394 158.084C166.733 156.035 165.353 154.402 164.183 152.671C162.598 150.314 161.346 147.749 160.463 145.049C160.143 144.249 160.021 143.382 160.107 142.524C160.372 141.511 160.936 140.601 161.725 139.913C164.599 136.893 167.672 133.753 171.524 132.887C173.362 132.582 175.231 132.51 177.087 132.675C180.314 132.777 183.545 132.64 186.753 132.266C189.395 131.955 193.862 131.995 196.101 130.283C198.189 128.683 199.365 126.673 201.935 125.656C204.538 124.69 207.335 124.371 210.088 124.724Z" fill="#474463"/>
<path d="M379.808 300.337C379.808 310.135 376.905 319.712 371.464 327.858C366.024 336.004 358.291 342.353 349.243 346.102C340.196 349.851 330.241 350.832 320.636 348.921C311.032 347.009 302.21 342.292 295.285 335.364C288.361 328.436 283.645 319.61 281.735 310.001C279.824 300.392 280.805 290.432 284.552 281.381C288.3 272.33 294.646 264.593 302.788 259.15C310.93 253.707 320.503 250.802 330.296 250.802C343.427 250.802 356.021 256.021 365.307 265.311C374.592 274.6 379.808 287.2 379.808 300.337ZM324.574 326.559L361.302 289.814C361.6 289.518 361.835 289.165 361.996 288.777C362.157 288.39 362.24 287.974 362.24 287.554C362.24 287.134 362.157 286.718 361.996 286.33C361.835 285.942 361.6 285.59 361.302 285.293L356.783 280.805C356.487 280.508 356.136 280.272 355.748 280.111C355.361 279.95 354.946 279.867 354.527 279.867C354.108 279.867 353.692 279.95 353.305 280.111C352.918 280.272 352.566 280.508 352.271 280.805L322.315 310.775L308.328 296.748C307.727 296.151 306.915 295.815 306.068 295.815C305.221 295.815 304.409 296.151 303.808 296.748L299.289 301.296C298.692 301.897 298.357 302.709 298.357 303.556C298.357 304.404 298.692 305.216 299.289 305.817L320.055 326.586C320.351 326.883 320.704 327.119 321.091 327.28C321.479 327.441 321.895 327.524 322.315 327.524C322.734 327.524 323.15 327.441 323.538 327.28C323.926 327.119 324.278 326.883 324.574 326.586V326.559Z" fill="white"/>
</g>
<defs>
<linearGradient id="paint0_linear" x1="186.832" y1="294.117" x2="186.832" y2="293.946" gradientUnits="userSpaceOnUse">
<stop stop-color="#808080" stop-opacity="0.25"/>
<stop offset="0.54" stop-color="#808080" stop-opacity="0.12"/>
<stop offset="1" stop-color="#808080" stop-opacity="0.1"/>
</linearGradient>
<linearGradient id="paint1_linear" x1="71565.9" y1="160791" x2="71565.9" y2="56813.9" gradientUnits="userSpaceOnUse">
<stop stop-color="#808080" stop-opacity="0.25"/>
<stop offset="0.54" stop-color="#808080" stop-opacity="0.12"/>
<stop offset="1" stop-color="#808080" stop-opacity="0.1"/>
</linearGradient>
<clipPath id="clip0">
<rect width="667" height="555" fill="white"/>
</clipPath>
</defs>
</svg>
