<svg width="650" height="454" viewBox="0 0 650 454" fill="none" xmlns="http://www.w3.org/2000/svg">
<g clip-path="url(#clip0)">
<path opacity="0.15" d="M259.223 58.0353C235.001 34.9261 203.889 20.3874 170.637 16.6394C137.386 12.8913 103.823 20.1399 75.073 37.2782C134.095 58.4271 199.219 59.2047 259.223 58.0353Z" fill="#FC6464"/>
<path opacity="0.15" d="M601.306 401.507L536.853 289.76C536.673 289.445 536.414 289.184 536.102 289.003C535.789 288.821 535.434 288.725 535.073 288.725C534.711 288.725 534.356 288.821 534.043 289.003C533.731 289.184 533.472 289.445 533.292 289.76L468.839 401.507C468.651 401.82 468.55 402.177 468.546 402.542C468.542 402.907 468.635 403.267 468.817 403.584C468.998 403.901 469.26 404.163 469.576 404.345C469.893 404.527 470.252 404.621 470.616 404.617H489.843C490.388 404.619 490.91 404.836 491.295 405.222C491.681 405.608 491.898 406.13 491.9 406.676V430.525C491.9 431.07 492.116 431.592 492.5 431.978C492.884 432.364 493.406 432.582 493.95 432.584H519.037C519.582 432.584 520.106 432.367 520.491 431.98C520.877 431.594 521.094 431.071 521.094 430.525V418.998C521.094 418.454 521.31 417.932 521.694 417.547C522.079 417.162 522.601 416.946 523.144 416.946H546.994C547.539 416.946 548.061 417.162 548.447 417.547C548.832 417.931 549.05 418.453 549.051 418.998V430.525C549.051 431.071 549.268 431.594 549.654 431.98C550.039 432.367 550.563 432.584 551.108 432.584H576.188C576.734 432.584 577.257 432.367 577.643 431.98C578.029 431.594 578.245 431.071 578.245 430.525V406.651C578.245 406.105 578.462 405.581 578.848 405.195C579.234 404.809 579.757 404.592 580.302 404.592H599.529C599.889 404.591 600.243 404.495 600.554 404.315C600.866 404.134 601.125 403.874 601.305 403.562C601.485 403.249 601.58 402.895 601.58 402.535C601.58 402.174 601.486 401.82 601.306 401.507ZM511.425 413.873C511.235 414.068 511.009 414.223 510.76 414.33C510.51 414.437 510.242 414.493 509.97 414.495H500.941C500.396 414.495 499.873 414.278 499.487 413.892C499.101 413.506 498.884 412.982 498.884 412.436C498.884 411.89 499.101 411.366 499.487 410.98C499.873 410.594 500.396 410.377 500.941 410.377H509.989C510.396 410.377 510.793 410.498 511.132 410.724C511.47 410.951 511.733 411.272 511.889 411.648C512.044 412.024 512.085 412.438 512.006 412.837C511.927 413.237 511.731 413.604 511.443 413.892L511.425 413.873ZM570.633 413.873C570.444 414.068 570.218 414.223 569.968 414.33C569.719 414.437 569.45 414.493 569.179 414.495H560.156C559.61 414.495 559.087 414.278 558.702 413.892C558.316 413.506 558.099 412.982 558.099 412.436C558.099 411.89 558.316 411.366 558.702 410.98C559.087 410.594 559.61 410.377 560.156 410.377H569.216C569.623 410.377 570.02 410.498 570.359 410.724C570.697 410.951 570.96 411.272 571.116 411.648C571.272 412.024 571.312 412.438 571.233 412.837C571.154 413.237 570.958 413.604 570.67 413.892L570.633 413.873Z" fill="#FC6464"/>
<path opacity="0.15" d="M202.923 402.49L138.47 290.742C138.289 290.43 138.03 290.17 137.717 289.99C137.405 289.81 137.05 289.715 136.689 289.715C136.329 289.715 135.974 289.81 135.662 289.99C135.349 290.17 135.09 290.43 134.909 290.742L79.2366 387.263C86.1919 396.036 93.9953 404.102 102.533 411.341H111.606C112.152 411.341 112.675 411.558 113.061 411.944C113.446 412.33 113.663 412.854 113.663 413.4C113.663 413.946 113.446 414.47 113.061 414.856C112.675 415.242 112.152 415.459 111.606 415.459H107.778C112.467 418.988 117.457 422.096 122.692 424.746V419.988C122.692 419.441 122.909 418.918 123.295 418.532C123.68 418.146 124.203 417.929 124.749 417.929H148.599C149.143 417.93 149.665 418.148 150.049 418.534C150.434 418.92 150.65 419.443 150.65 419.988V431.507C150.649 431.806 150.714 432.102 150.842 432.372C151.007 432.728 151.27 433.03 151.6 433.242C151.93 433.453 152.314 433.566 152.706 433.566H177.793C178.111 433.568 178.425 433.493 178.71 433.35C178.994 433.206 179.24 432.997 179.427 432.739C179.703 432.384 179.85 431.945 179.844 431.495V407.64C179.844 407.094 180.06 406.57 180.446 406.184C180.832 405.798 181.355 405.581 181.901 405.581H201.127C201.49 405.584 201.847 405.491 202.162 405.311C202.477 405.131 202.739 404.871 202.922 404.557C203.104 404.244 203.2 403.887 203.2 403.524C203.201 403.161 203.105 402.804 202.923 402.49ZM160.325 411.945C160.514 411.75 160.74 411.594 160.99 411.488C161.239 411.381 161.508 411.325 161.779 411.323H170.827C171.372 411.323 171.896 411.54 172.281 411.926C172.667 412.312 172.884 412.835 172.884 413.382C172.884 413.928 172.667 414.451 172.281 414.837C171.896 415.224 171.372 415.44 170.827 415.44H161.773C161.366 415.44 160.969 415.32 160.631 415.093C160.292 414.867 160.029 414.546 159.873 414.169C159.718 413.793 159.677 413.379 159.756 412.98C159.835 412.581 160.031 412.214 160.319 411.926L160.325 411.945ZM119.84 370.592C119.294 370.592 118.771 370.375 118.385 369.989C118 369.603 117.783 369.079 117.783 368.533V352.895C117.783 352.349 118 351.826 118.385 351.44C118.771 351.053 119.294 350.837 119.84 350.837H153.552C154.096 350.838 154.618 351.056 155.002 351.442C155.386 351.828 155.602 352.351 155.602 352.895V368.533C155.602 369.078 155.386 369.601 155.002 369.987C154.618 370.373 154.096 370.591 153.552 370.592H119.84Z" fill="#FC6464"/>
<path opacity="0.15" d="M457.691 201.749H377.932V184.481C377.932 183.386 377.497 182.335 376.724 181.561C375.95 180.786 374.9 180.351 373.806 180.351H350.385V161.958C350.385 161.268 350.111 160.607 349.624 160.119C349.137 159.631 348.476 159.358 347.787 159.358H317.618C316.929 159.358 316.268 159.631 315.781 160.119C315.294 160.607 315.02 161.268 315.02 161.958V180.345H287.485C286.391 180.345 285.341 180.78 284.568 181.555C283.794 182.329 283.359 183.38 283.359 184.475V201.743H207.304C207.083 201.744 206.871 201.833 206.715 201.991C206.559 202.148 206.471 202.361 206.471 202.582V431.818C206.471 432.04 206.559 432.253 206.715 432.41C206.871 432.567 207.083 432.657 207.304 432.658H257.85C258.073 432.658 258.286 432.57 258.443 432.412C258.601 432.255 258.689 432.041 258.689 431.818V400.978C258.691 400.756 258.779 400.543 258.936 400.386C259.093 400.229 259.306 400.14 259.528 400.139H280.88C281.102 400.14 281.314 400.229 281.471 400.386C281.628 400.543 281.717 400.756 281.719 400.978V431.818C281.719 432.04 281.806 432.253 281.962 432.41C282.118 432.567 282.33 432.657 282.551 432.658H382.444C382.666 432.657 382.878 432.568 383.035 432.41C383.192 432.253 383.281 432.041 383.283 431.818V400.978C383.283 400.757 383.37 400.544 383.526 400.387C383.682 400.229 383.894 400.14 384.115 400.139H405.467C405.69 400.139 405.903 400.227 406.06 400.385C406.218 400.542 406.306 400.756 406.306 400.978V431.818C406.308 432.041 406.397 432.253 406.554 432.41C406.711 432.568 406.923 432.657 407.145 432.658H457.691C457.913 432.657 458.125 432.568 458.282 432.41C458.439 432.253 458.528 432.041 458.53 431.818V202.589C458.528 202.366 458.439 202.154 458.282 201.997C458.125 201.839 457.913 201.75 457.691 201.749ZM249.641 389.427C249.641 389.648 249.553 389.86 249.397 390.017C249.241 390.173 249.029 390.261 248.808 390.261H217.589C217.479 390.262 217.37 390.241 217.268 390.199C217.166 390.158 217.074 390.096 216.996 390.019C216.918 389.941 216.856 389.849 216.814 389.748C216.771 389.646 216.75 389.537 216.75 389.427V378.772C216.75 378.549 216.838 378.336 216.995 378.178C217.153 378.021 217.366 377.932 217.589 377.932H248.808C249.03 377.934 249.242 378.023 249.398 378.18C249.554 378.338 249.641 378.55 249.641 378.772V389.427ZM249.641 361.846C249.642 361.956 249.621 362.066 249.58 362.167C249.538 362.269 249.477 362.362 249.399 362.44C249.322 362.518 249.23 362.58 249.129 362.622C249.027 362.664 248.918 362.686 248.808 362.686H217.589C217.478 362.687 217.369 362.666 217.267 362.624C217.164 362.582 217.072 362.52 216.994 362.442C216.915 362.364 216.854 362.271 216.812 362.169C216.77 362.067 216.749 361.957 216.75 361.846V351.179C216.749 351.068 216.77 350.959 216.812 350.856C216.854 350.754 216.915 350.661 216.994 350.583C217.072 350.505 217.164 350.443 217.267 350.401C217.369 350.359 217.478 350.338 217.589 350.339H248.808C248.918 350.339 249.027 350.361 249.129 350.403C249.23 350.445 249.322 350.507 249.399 350.585C249.477 350.663 249.538 350.756 249.58 350.858C249.621 350.96 249.642 351.069 249.641 351.179V361.846ZM249.641 334.272C249.641 334.494 249.554 334.706 249.398 334.864C249.242 335.021 249.03 335.11 248.808 335.112H217.589C217.478 335.112 217.369 335.09 217.268 335.048C217.166 335.006 217.073 334.944 216.995 334.866C216.917 334.788 216.856 334.695 216.813 334.593C216.771 334.491 216.75 334.382 216.75 334.272V323.598C216.75 323.375 216.838 323.162 216.995 323.004C217.153 322.847 217.366 322.758 217.589 322.758H248.808C249.03 322.76 249.242 322.849 249.398 323.006C249.554 323.164 249.641 323.376 249.641 323.598V334.272ZM249.641 306.691C249.642 306.801 249.621 306.91 249.58 307.012C249.538 307.114 249.477 307.207 249.399 307.285C249.322 307.363 249.23 307.425 249.129 307.467C249.027 307.509 248.918 307.531 248.808 307.531H217.589C217.478 307.532 217.369 307.511 217.267 307.469C217.164 307.427 217.072 307.365 216.994 307.287C216.915 307.209 216.854 307.116 216.812 307.014C216.77 306.911 216.749 306.802 216.75 306.691V296.042C216.749 295.932 216.77 295.822 216.812 295.72C216.854 295.618 216.915 295.525 216.994 295.446C217.072 295.368 217.164 295.307 217.267 295.265C217.369 295.223 217.478 295.202 217.589 295.202H248.808C248.918 295.202 249.027 295.224 249.129 295.266C249.23 295.309 249.322 295.371 249.399 295.449C249.477 295.527 249.538 295.619 249.58 295.721C249.621 295.823 249.642 295.932 249.641 296.042V306.691ZM249.641 279.117C249.641 279.338 249.554 279.551 249.398 279.708C249.242 279.866 249.03 279.955 248.808 279.956H217.589C217.366 279.956 217.153 279.868 216.995 279.71C216.838 279.553 216.75 279.339 216.75 279.117V268.443C216.75 268.333 216.771 268.224 216.814 268.122C216.856 268.021 216.918 267.929 216.996 267.851C217.074 267.774 217.166 267.712 217.268 267.671C217.37 267.629 217.479 267.608 217.589 267.609H248.808C249.029 267.609 249.241 267.697 249.397 267.853C249.553 268.01 249.641 268.222 249.641 268.443V279.117ZM249.641 251.542C249.641 251.763 249.553 251.975 249.397 252.132C249.241 252.288 249.029 252.376 248.808 252.376H217.589C217.479 252.376 217.37 252.356 217.268 252.314C217.166 252.273 217.074 252.211 216.996 252.134C216.918 252.056 216.856 251.964 216.814 251.863C216.771 251.761 216.75 251.652 216.75 251.542V240.868C216.75 240.645 216.838 240.432 216.995 240.274C217.153 240.117 217.366 240.028 217.589 240.028H248.808C249.03 240.03 249.242 240.119 249.398 240.277C249.554 240.434 249.641 240.647 249.641 240.868V251.542ZM249.641 223.961C249.642 224.071 249.621 224.18 249.58 224.282C249.538 224.384 249.477 224.477 249.399 224.555C249.322 224.633 249.23 224.695 249.129 224.737C249.027 224.779 248.918 224.801 248.808 224.801H217.589C217.478 224.802 217.369 224.781 217.267 224.739C217.164 224.697 217.072 224.635 216.994 224.557C216.915 224.479 216.854 224.386 216.812 224.284C216.77 224.181 216.749 224.072 216.75 223.961V213.312C216.749 213.202 216.77 213.092 216.812 212.99C216.854 212.888 216.915 212.795 216.994 212.717C217.072 212.639 217.164 212.577 217.267 212.535C217.369 212.493 217.478 212.472 217.589 212.473H248.808C248.918 212.473 249.027 212.494 249.129 212.537C249.23 212.579 249.322 212.641 249.399 212.719C249.477 212.797 249.538 212.89 249.58 212.991C249.621 213.093 249.642 213.202 249.641 213.312V223.961ZM323.658 389.421C323.658 389.531 323.636 389.64 323.594 389.741C323.552 389.843 323.49 389.935 323.412 390.013C323.334 390.09 323.241 390.151 323.14 390.193C323.038 390.234 322.929 390.255 322.819 390.255H291.599C291.378 390.255 291.165 390.167 291.008 390.011C290.851 389.855 290.762 389.643 290.76 389.421V378.772C290.762 378.55 290.851 378.337 291.008 378.18C291.165 378.023 291.377 377.934 291.599 377.932H322.819C323.041 377.932 323.255 378.021 323.412 378.178C323.569 378.336 323.658 378.549 323.658 378.772V389.421ZM323.658 361.84C323.659 361.951 323.638 362.06 323.596 362.163C323.554 362.265 323.492 362.358 323.414 362.436C323.336 362.514 323.243 362.576 323.141 362.618C323.039 362.66 322.929 362.681 322.819 362.68H291.599C291.489 362.68 291.38 362.658 291.278 362.616C291.176 362.574 291.084 362.512 291.006 362.434C290.928 362.356 290.866 362.264 290.824 362.162C290.782 362.06 290.76 361.951 290.76 361.84V351.179C290.76 351.068 290.782 350.959 290.824 350.857C290.866 350.755 290.928 350.663 291.006 350.585C291.084 350.507 291.176 350.445 291.278 350.403C291.38 350.361 291.489 350.339 291.599 350.339H322.819C322.929 350.338 323.039 350.359 323.141 350.401C323.243 350.443 323.336 350.505 323.414 350.583C323.492 350.661 323.554 350.754 323.596 350.856C323.638 350.959 323.659 351.068 323.658 351.179V361.84ZM323.658 334.266C323.658 334.488 323.569 334.702 323.412 334.86C323.255 335.017 323.041 335.105 322.819 335.105H291.599C291.377 335.104 291.165 335.015 291.008 334.858C290.851 334.701 290.762 334.488 290.76 334.266V323.598C290.762 323.376 290.851 323.163 291.008 323.006C291.165 322.849 291.377 322.76 291.599 322.758H322.819C323.041 322.758 323.255 322.847 323.412 323.004C323.569 323.162 323.658 323.375 323.658 323.598V334.266ZM323.658 306.685C323.659 306.795 323.638 306.905 323.596 307.007C323.554 307.11 323.492 307.202 323.414 307.281C323.336 307.359 323.243 307.421 323.141 307.462C323.039 307.504 322.929 307.526 322.819 307.525H291.599C291.489 307.525 291.38 307.503 291.278 307.461C291.176 307.419 291.084 307.357 291.006 307.279C290.928 307.201 290.866 307.108 290.824 307.006C290.782 306.904 290.76 306.795 290.76 306.685V296.042C290.76 295.932 290.782 295.823 290.824 295.721C290.866 295.619 290.928 295.526 291.006 295.448C291.084 295.37 291.176 295.308 291.278 295.266C291.38 295.224 291.489 295.202 291.599 295.202H322.819C322.929 295.202 323.039 295.223 323.141 295.265C323.243 295.307 323.336 295.368 323.414 295.446C323.492 295.525 323.554 295.618 323.596 295.72C323.638 295.822 323.659 295.932 323.658 296.042V306.685ZM323.658 279.11C323.658 279.333 323.569 279.547 323.412 279.704C323.255 279.862 323.041 279.95 322.819 279.95H291.599C291.377 279.949 291.165 279.86 291.008 279.702C290.851 279.545 290.762 279.333 290.76 279.11V268.443C290.762 268.221 290.851 268.009 291.008 267.853C291.165 267.697 291.378 267.609 291.599 267.609H322.819C322.929 267.608 323.038 267.629 323.14 267.671C323.241 267.712 323.334 267.774 323.412 267.851C323.49 267.929 323.552 268.021 323.594 268.122C323.636 268.224 323.658 268.333 323.658 268.443V279.11ZM323.658 251.536C323.658 251.646 323.636 251.755 323.594 251.856C323.552 251.958 323.49 252.05 323.412 252.128C323.334 252.205 323.241 252.266 323.14 252.308C323.038 252.349 322.929 252.37 322.819 252.369H291.599C291.378 252.369 291.165 252.282 291.008 252.126C290.851 251.97 290.762 251.758 290.76 251.536V240.868C290.762 240.646 290.851 240.433 291.008 240.276C291.165 240.119 291.377 240.03 291.599 240.028H322.819C323.041 240.028 323.255 240.117 323.412 240.274C323.569 240.432 323.658 240.645 323.658 240.868V251.536ZM323.658 223.955C323.659 224.066 323.638 224.175 323.596 224.278C323.554 224.38 323.492 224.473 323.414 224.551C323.336 224.629 323.243 224.691 323.141 224.733C323.039 224.775 322.929 224.796 322.819 224.795H291.599C291.489 224.795 291.38 224.773 291.278 224.731C291.176 224.689 291.084 224.627 291.006 224.549C290.928 224.471 290.866 224.378 290.824 224.277C290.782 224.175 290.76 224.065 290.76 223.955V213.312C290.76 213.202 290.782 213.093 290.824 212.991C290.866 212.889 290.928 212.796 291.006 212.719C291.084 212.641 291.176 212.579 291.278 212.536C291.38 212.494 291.489 212.473 291.599 212.473H322.819C322.929 212.472 323.039 212.493 323.141 212.535C323.243 212.577 323.336 212.639 323.414 212.717C323.492 212.795 323.554 212.888 323.596 212.99C323.638 213.092 323.659 213.202 323.658 213.312V223.955ZM374.235 389.415C374.235 389.525 374.213 389.634 374.171 389.735C374.129 389.837 374.067 389.929 373.989 390.006C373.911 390.084 373.818 390.145 373.716 390.187C373.615 390.228 373.506 390.249 373.396 390.248H342.176C341.955 390.248 341.742 390.161 341.585 390.005C341.428 389.848 341.339 389.636 341.337 389.415V378.772C341.339 378.55 341.428 378.337 341.585 378.18C341.742 378.023 341.954 377.934 342.176 377.932H373.396C373.618 377.932 373.832 378.021 373.989 378.178C374.146 378.336 374.235 378.549 374.235 378.772V389.415ZM374.235 361.834C374.236 361.945 374.214 362.054 374.173 362.156C374.131 362.259 374.069 362.352 373.991 362.43C373.913 362.508 373.82 362.57 373.718 362.612C373.616 362.653 373.506 362.675 373.396 362.674H342.176C342.066 362.674 341.957 362.652 341.855 362.61C341.753 362.568 341.661 362.506 341.583 362.428C341.505 362.35 341.443 362.257 341.401 362.155C341.359 362.054 341.337 361.944 341.337 361.834V351.179C341.337 351.068 341.359 350.959 341.401 350.857C341.443 350.755 341.505 350.663 341.583 350.585C341.661 350.507 341.753 350.445 341.855 350.403C341.957 350.361 342.066 350.339 342.176 350.339H373.396C373.506 350.338 373.616 350.359 373.718 350.401C373.82 350.443 373.913 350.505 373.991 350.583C374.069 350.661 374.131 350.754 374.173 350.856C374.214 350.959 374.236 351.068 374.235 351.179V361.834ZM374.235 334.26C374.235 334.482 374.146 334.696 373.989 334.853C373.832 335.011 373.618 335.099 373.396 335.099H342.176C341.954 335.098 341.742 335.009 341.585 334.852C341.428 334.694 341.339 334.482 341.337 334.26V323.598C341.339 323.376 341.428 323.163 341.585 323.006C341.742 322.849 341.954 322.76 342.176 322.758H373.396C373.618 322.758 373.832 322.847 373.989 323.004C374.146 323.162 374.235 323.375 374.235 323.598V334.26ZM374.235 306.679C374.236 306.789 374.214 306.899 374.173 307.001C374.131 307.103 374.069 307.196 373.991 307.274C373.913 307.353 373.82 307.414 373.718 307.456C373.616 307.498 373.506 307.519 373.396 307.519H342.176C342.066 307.519 341.957 307.497 341.855 307.455C341.753 307.412 341.661 307.351 341.583 307.273C341.505 307.195 341.443 307.102 341.401 307C341.359 306.898 341.337 306.789 341.337 306.679V296.042C341.337 295.932 341.359 295.823 341.401 295.721C341.443 295.619 341.505 295.526 341.583 295.448C341.661 295.37 341.753 295.308 341.855 295.266C341.957 295.224 342.066 295.202 342.176 295.202H373.396C373.506 295.202 373.616 295.223 373.718 295.265C373.82 295.307 373.913 295.368 373.991 295.446C374.069 295.525 374.131 295.618 374.173 295.72C374.214 295.822 374.236 295.932 374.235 296.042V306.679ZM374.235 279.104C374.235 279.327 374.146 279.541 373.989 279.698C373.832 279.856 373.618 279.944 373.396 279.944H342.176C341.954 279.942 341.742 279.853 341.585 279.696C341.428 279.539 341.339 279.326 341.337 279.104V268.443C341.339 268.221 341.428 268.009 341.585 267.853C341.742 267.697 341.955 267.609 342.176 267.609H373.396C373.506 267.608 373.615 267.629 373.716 267.671C373.818 267.712 373.911 267.774 373.989 267.851C374.067 267.929 374.129 268.021 374.171 268.122C374.213 268.224 374.235 268.333 374.235 268.443V279.104ZM374.235 251.53C374.235 251.64 374.213 251.749 374.171 251.85C374.129 251.952 374.067 252.044 373.989 252.121C373.911 252.199 373.818 252.26 373.716 252.302C373.615 252.343 373.506 252.364 373.396 252.363H342.176C341.955 252.363 341.742 252.276 341.585 252.119C341.428 251.963 341.339 251.751 341.337 251.53V240.868C341.339 240.646 341.428 240.433 341.585 240.276C341.742 240.119 341.954 240.03 342.176 240.028H373.396C373.618 240.028 373.832 240.117 373.989 240.274C374.146 240.432 374.235 240.645 374.235 240.868V251.53ZM374.235 223.949C374.236 224.059 374.214 224.169 374.173 224.271C374.131 224.374 374.069 224.466 373.991 224.545C373.913 224.623 373.82 224.685 373.718 224.726C373.616 224.768 373.506 224.79 373.396 224.789H342.176C342.066 224.789 341.957 224.767 341.855 224.725C341.753 224.683 341.661 224.621 341.583 224.543C341.505 224.465 341.443 224.372 341.401 224.27C341.359 224.168 341.337 224.059 341.337 223.949V213.312C341.337 213.202 341.359 213.093 341.401 212.991C341.443 212.889 341.505 212.796 341.583 212.719C341.661 212.641 341.753 212.579 341.855 212.536C341.957 212.494 342.066 212.473 342.176 212.473H373.396C373.506 212.472 373.616 212.493 373.718 212.535C373.82 212.577 373.913 212.639 373.991 212.717C374.069 212.795 374.131 212.888 374.173 212.99C374.214 213.092 374.236 213.202 374.235 213.312V223.949ZM448.252 389.409C448.25 389.63 448.161 389.842 448.004 389.998C447.847 390.154 447.634 390.242 447.413 390.242H416.193C416.083 390.243 415.974 390.222 415.872 390.18C415.77 390.139 415.678 390.078 415.6 390C415.522 389.923 415.46 389.831 415.418 389.729C415.376 389.627 415.354 389.519 415.354 389.409V378.772C415.354 378.549 415.442 378.336 415.6 378.178C415.757 378.021 415.97 377.932 416.193 377.932H447.419C447.641 377.934 447.853 378.023 448.01 378.18C448.167 378.337 448.256 378.55 448.258 378.772L448.252 389.409ZM448.252 361.828C448.252 362.051 448.163 362.264 448.006 362.422C447.848 362.579 447.635 362.668 447.413 362.668H416.193C416.082 362.668 415.973 362.647 415.871 362.605C415.769 362.563 415.676 362.502 415.598 362.423C415.52 362.345 415.458 362.252 415.416 362.15C415.374 362.048 415.353 361.938 415.354 361.828V351.179C415.353 351.068 415.374 350.959 415.416 350.856C415.458 350.754 415.52 350.661 415.598 350.583C415.676 350.505 415.769 350.443 415.871 350.401C415.973 350.359 416.082 350.338 416.193 350.339H447.419C447.641 350.339 447.855 350.427 448.012 350.585C448.169 350.742 448.258 350.956 448.258 351.179L448.252 361.828ZM448.252 334.253C448.25 334.476 448.161 334.688 448.004 334.845C447.847 335.002 447.635 335.091 447.413 335.093H416.193C415.97 335.093 415.757 335.005 415.6 334.847C415.442 334.69 415.354 334.476 415.354 334.253V323.598C415.354 323.375 415.442 323.162 415.6 323.004C415.757 322.847 415.97 322.758 416.193 322.758H447.419C447.641 322.76 447.853 322.849 448.01 323.006C448.167 323.163 448.256 323.376 448.258 323.598L448.252 334.253ZM448.252 306.673C448.252 306.895 448.163 307.109 448.006 307.266C447.848 307.424 447.635 307.512 447.413 307.512H416.193C416.082 307.513 415.973 307.492 415.871 307.45C415.769 307.408 415.676 307.346 415.598 307.268C415.52 307.19 415.458 307.097 415.416 306.995C415.374 306.893 415.353 306.783 415.354 306.673V296.042C415.353 295.932 415.374 295.822 415.416 295.72C415.458 295.618 415.52 295.525 415.598 295.446C415.676 295.368 415.769 295.307 415.871 295.265C415.973 295.223 416.082 295.202 416.193 295.202H447.419C447.641 295.202 447.855 295.291 448.012 295.448C448.169 295.606 448.258 295.819 448.258 296.042L448.252 306.673ZM448.252 279.098C448.25 279.32 448.161 279.533 448.004 279.69C447.847 279.847 447.635 279.936 447.413 279.938H416.193C415.97 279.938 415.757 279.849 415.6 279.692C415.442 279.534 415.354 279.321 415.354 279.098V268.443C415.354 268.333 415.376 268.224 415.418 268.122C415.46 268.021 415.522 267.929 415.6 267.851C415.678 267.774 415.77 267.712 415.872 267.671C415.974 267.629 416.083 267.608 416.193 267.609H447.419C447.64 267.609 447.853 267.697 448.01 267.853C448.167 268.009 448.256 268.221 448.258 268.443L448.252 279.098ZM448.252 251.523C448.253 251.634 448.233 251.744 448.192 251.847C448.151 251.95 448.09 252.044 448.012 252.123C447.935 252.202 447.843 252.265 447.741 252.309C447.639 252.352 447.53 252.375 447.419 252.376H416.193C416.083 252.376 415.974 252.356 415.872 252.314C415.77 252.273 415.678 252.211 415.6 252.134C415.522 252.056 415.46 251.964 415.418 251.863C415.376 251.761 415.354 251.652 415.354 251.542V240.868C415.354 240.645 415.442 240.432 415.6 240.274C415.757 240.117 415.97 240.028 416.193 240.028H447.419C447.641 240.03 447.853 240.119 448.01 240.276C448.167 240.433 448.256 240.646 448.258 240.868L448.252 251.523ZM448.252 223.943C448.252 224.165 448.163 224.379 448.006 224.537C447.848 224.694 447.635 224.783 447.413 224.783H416.193C416.082 224.783 415.973 224.762 415.871 224.72C415.769 224.678 415.676 224.617 415.598 224.538C415.52 224.46 415.458 224.367 415.416 224.265C415.374 224.163 415.353 224.053 415.354 223.943V213.312C415.353 213.202 415.374 213.092 415.416 212.99C415.458 212.888 415.52 212.795 415.598 212.717C415.676 212.639 415.769 212.577 415.871 212.535C415.973 212.493 416.082 212.472 416.193 212.473H447.419C447.641 212.473 447.855 212.561 448.012 212.719C448.169 212.876 448.258 213.09 448.258 213.312L448.252 223.943Z" fill="#FC6464"/>
<path opacity="0.1" d="M230.545 139.62C227.036 138.952 223.408 139.346 220.124 140.753C218.145 141.636 216.002 142.089 213.835 142.084C211.668 142.078 209.527 141.614 207.553 140.721C205.225 139.7 202.704 139.197 200.163 139.248C197.622 139.298 195.123 139.901 192.837 141.014C191.531 141.703 190.077 142.066 188.599 142.071C182.634 142.071 177.669 136.056 176.637 128.119C177.829 127.25 178.842 126.158 179.62 124.903C183.119 119.261 188.537 115.635 194.621 115.635C200.705 115.635 206.055 119.218 209.535 124.798C210.578 126.483 212.039 127.871 213.776 128.825C215.512 129.78 217.465 130.27 219.446 130.247H219.602C224.399 130.247 228.513 134.06 230.545 139.62Z" fill="#FC6464"/>
<path opacity="0.15" d="M248.69 114.708L239.046 120.829L244.9 110.174C243.241 108.848 241.187 108.115 239.064 108.09H238.909C238.239 108.1 237.569 108.05 236.908 107.941L233.652 110.018L235.056 107.468C232.739 106.657 230.738 105.133 229.339 103.114L223.486 106.846L227.171 100.103C223.747 95.9914 219.136 93.4722 214.065 93.4722C207.981 93.4722 202.563 97.0924 199.064 102.734C198.028 104.427 196.562 105.815 194.815 106.756C193.068 107.696 191.104 108.157 189.121 108.09H188.792C182.074 108.09 176.631 115.71 176.631 125.115C176.631 134.52 182.074 142.14 188.792 142.14C190.27 142.136 191.725 141.771 193.03 141.076C195.316 139.964 197.815 139.362 200.356 139.313C202.897 139.264 205.418 139.768 207.745 140.79C209.714 141.67 211.846 142.124 214.003 142.124C216.159 142.124 218.291 141.67 220.26 140.79C222.57 139.785 225.068 139.29 227.586 139.338C230.104 139.386 232.582 139.977 234.851 141.07C236.144 141.747 237.58 142.103 239.04 142.109C245.757 142.109 251.201 134.483 251.201 125.084C251.243 121.47 250.38 117.902 248.69 114.708Z" fill="#FC6464"/>
<path opacity="0.1" d="M517.017 253.122C514.561 252.656 512.022 252.931 509.722 253.912C508.344 254.529 506.851 254.848 505.341 254.848C503.831 254.848 502.338 254.529 500.96 253.912C499.33 253.197 497.565 252.845 495.786 252.88C494.007 252.916 492.257 253.338 490.657 254.117C489.743 254.6 488.726 254.854 487.693 254.858C483.517 254.858 480.043 250.646 479.322 245.092C480.155 244.481 480.864 243.717 481.41 242.84C483.859 238.89 487.624 236.352 491.906 236.352C496.188 236.352 499.916 238.84 502.364 242.765C503.094 243.945 504.116 244.917 505.331 245.585C506.546 246.253 507.913 246.595 509.299 246.578H509.411C512.705 246.566 515.582 249.234 517.017 253.122Z" fill="#FC6464"/>
<path opacity="0.15" d="M529.707 235.705L522.958 239.991L527.053 232.527C525.892 231.6 524.455 231.088 522.97 231.071H522.865C522.396 231.077 521.929 231.042 521.467 230.965L519.174 232.415L520.155 230.636C518.536 230.066 517.136 229.002 516.153 227.594L512.046 230.182L514.631 225.473C512.239 222.593 509.038 220.826 505.459 220.826C501.202 220.826 497.381 223.364 494.957 227.314C494.232 228.494 493.208 229.461 491.989 230.116C490.77 230.772 489.399 231.093 488.016 231.046H487.811C483.113 231.046 479.297 236.377 479.297 242.958C479.297 249.539 483.113 254.876 487.811 254.876C488.844 254.873 489.861 254.619 490.775 254.136C492.375 253.356 494.125 252.934 495.905 252.9C497.684 252.865 499.449 253.219 501.078 253.937C502.457 254.55 503.95 254.867 505.459 254.867C506.968 254.867 508.461 254.55 509.84 253.937C511.456 253.235 513.205 252.889 514.967 252.923C516.728 252.957 518.462 253.371 520.05 254.136C520.956 254.606 521.962 254.854 522.983 254.858C527.687 254.858 531.496 249.527 531.496 242.94C531.511 240.417 530.896 237.93 529.707 235.705Z" fill="#FC6464"/>
<path opacity="0.1" d="M148.282 213.312C150.738 212.847 153.277 213.122 155.577 214.102C156.955 214.719 158.446 215.038 159.955 215.038C161.464 215.038 162.956 214.719 164.333 214.102C165.963 213.387 167.728 213.035 169.507 213.071C171.286 213.106 173.036 213.528 174.636 214.307C175.55 214.79 176.567 215.044 177.6 215.048C181.776 215.048 185.256 210.837 185.977 205.282C185.143 204.673 184.434 203.908 183.889 203.03C181.453 199.068 177.644 196.517 173.375 196.517C169.106 196.517 165.371 199.006 162.923 202.931C162.191 204.112 161.167 205.085 159.95 205.755C158.733 206.425 157.364 206.77 155.975 206.756H155.869C152.564 206.756 149.68 209.425 148.282 213.312Z" fill="#FC6464"/>
<path opacity="0.15" d="M135.555 195.895L142.304 200.163L138.203 192.698C139.364 191.773 140.801 191.261 142.285 191.243H142.397C142.866 191.248 143.333 191.213 143.795 191.137L146.082 192.586L145.1 190.807C146.722 190.238 148.123 189.174 149.109 187.766L153.204 190.366L150.612 185.657C153.011 182.777 156.236 181.01 159.791 181.01C164.047 181.01 167.869 183.548 170.293 187.498C171.017 188.678 172.041 189.645 173.26 190.301C174.48 190.957 175.851 191.277 177.234 191.23H177.458C182.162 191.23 185.971 196.561 185.971 203.142C185.971 209.723 182.162 215.06 177.458 215.06C176.424 215.056 175.408 214.802 174.493 214.32C172.893 213.54 171.143 213.118 169.364 213.084C167.584 213.049 165.819 213.403 164.19 214.121C162.812 214.734 161.321 215.051 159.812 215.051C158.304 215.051 156.813 214.734 155.435 214.121C153.817 213.418 152.068 213.072 150.305 213.107C148.542 213.141 146.807 213.555 145.218 214.32C144.312 214.791 143.307 215.038 142.285 215.042C137.588 215.042 133.772 209.711 133.772 203.123C133.756 200.603 134.369 198.119 135.555 195.895Z" fill="#FC6464"/>
<path d="M135.891 435.457C144.305 440.807 156.429 435.395 164.899 440.664C167.086 442.02 168.851 444.016 171.113 445.248C173.828 446.735 177.022 447.002 180.111 447.114C205.974 448.116 232.272 440.894 257.489 446.729C264.542 448.358 271.44 451.008 278.667 451.394C291.151 452.072 303.114 445.976 315.61 445.64C334.563 445.13 353.187 457.825 371.476 452.818C377.491 451.17 383.009 447.655 389.217 447.064C396.133 446.442 402.782 449.459 409.506 451.22C433.35 457.44 458.182 447.363 482.833 446.61C498.909 446.119 514.83 449.627 530.893 450.436C542.315 451.008 553.761 450.206 565.171 449.409C569.52 449.105 574.075 448.731 577.717 446.343C581.358 443.954 583.596 438.823 581.346 435.09L135.891 435.457Z" fill="#3F3D56"/>
<path opacity="0.1" d="M135.891 435.457C144.305 440.807 156.429 435.395 164.899 440.664C167.086 442.02 168.851 444.016 171.113 445.248C173.828 446.735 177.022 447.002 180.111 447.114C205.974 448.116 232.272 440.894 257.489 446.729C264.542 448.358 271.44 451.008 278.667 451.394C291.151 452.072 303.114 445.976 315.61 445.64C334.563 445.13 353.187 457.825 371.476 452.818C377.491 451.17 383.009 447.655 389.217 447.064C396.133 446.442 402.782 449.459 409.506 451.22C433.35 457.44 458.182 447.363 482.833 446.61C498.909 446.119 514.83 449.627 530.893 450.436C542.315 451.008 553.761 450.206 565.171 449.409C569.52 449.105 574.075 448.731 577.717 446.343C581.358 443.954 583.596 438.823 581.346 435.09L135.891 435.457Z" fill="black"/>
<path d="M135.891 432.347C144.305 437.697 156.429 432.285 164.899 437.554C167.086 438.91 168.851 440.906 171.113 442.138C173.828 443.625 177.022 443.892 180.111 444.004C205.974 445.006 232.272 437.784 257.489 443.618C264.542 445.248 271.44 447.898 278.667 448.284C291.151 448.962 303.114 442.866 315.61 442.53C334.563 442.02 353.187 454.715 371.476 449.708C377.491 448.06 383.009 444.545 389.217 443.954C396.133 443.332 402.782 446.349 409.506 448.109C433.35 454.33 458.182 444.253 482.833 443.5C498.909 443.009 514.83 446.517 530.893 447.326C542.315 447.898 553.761 447.096 565.171 446.299C569.52 445.995 574.075 445.621 577.717 443.233C581.358 440.844 583.596 435.712 581.346 431.98L135.891 432.347Z" fill="#3F3D56"/>
<g opacity="0.1">
<path opacity="0.1" d="M76.0301 355.713C76.0558 358.413 75.363 361.071 74.0229 363.414C75.339 365.767 76.0301 368.418 76.0301 371.115C76.0301 373.811 75.339 376.463 74.0229 378.815C74.7036 379.981 75.2142 381.237 75.5392 382.548C68.7559 373.598 62.512 364.251 56.8408 354.556C56.9774 352.244 57.6497 349.995 58.8045 347.988C57.4645 345.645 56.7717 342.987 56.7973 340.287C56.7893 338.463 57.0963 336.651 57.7046 334.931C57.9941 334.116 58.3625 333.33 58.8045 332.586C60.5569 329.607 63.316 327.685 66.4106 327.685C69.5053 327.685 72.2705 329.607 74.0229 332.586C74.4492 333.309 74.8091 334.069 75.098 334.857C75.7212 336.599 76.0366 338.436 76.0301 340.287C76.0558 342.987 75.363 345.645 74.0229 347.988C75.3673 350.338 76.0602 353.005 76.0301 355.713Z" fill="#3F3D56"/>
<path opacity="0.1" d="M66.4107 337.519C71.7199 337.519 76.0239 331.877 76.0239 324.917C76.0239 317.957 71.7199 312.314 66.4107 312.314C61.1014 312.314 56.7974 317.957 56.7974 324.917C56.7974 331.877 61.1014 337.519 66.4107 337.519Z" fill="#3F3D56"/>
<path opacity="0.1" d="M66.4107 322.117C71.7199 322.117 76.0239 316.475 76.0239 309.515C76.0239 302.555 71.7199 296.913 66.4107 296.913C61.1014 296.913 56.7974 302.555 56.7974 309.515C56.7974 316.475 61.1014 322.117 66.4107 322.117Z" fill="#3F3D56"/>
<path opacity="0.1" d="M112.271 232.595C112.287 242.939 108.812 252.984 102.409 261.103C107.285 267.309 110.488 274.664 111.71 282.464C112.932 290.264 112.132 298.248 109.388 305.65C106.644 313.052 102.047 319.625 96.0373 324.739C90.0278 329.853 82.8071 333.337 75.0669 334.857C73.9608 335.081 72.8361 335.255 71.6989 335.392C68.1911 335.812 64.6469 335.83 61.1348 335.448C59.9666 335.323 58.8128 335.151 57.6735 334.931C52.65 334.002 47.8184 332.234 43.381 329.7C35.1102 312.787 27.8861 295.381 21.7495 277.58C23.3639 271.594 26.1733 265.997 30.0081 261.128C25.2676 255.099 22.1032 247.983 20.8012 240.423C19.4992 232.863 20.1007 225.097 22.5512 217.828L57.5244 229.578L24.7261 212.522C26.1706 209.539 27.931 206.719 29.9771 204.112C26.0655 199.136 23.2197 193.407 21.6169 187.282C20.0141 181.157 19.6887 174.767 20.6609 168.511C21.6332 162.254 23.8823 156.265 27.268 150.917C30.6538 145.569 35.1037 140.976 40.3404 137.424C45.5771 133.873 51.4884 131.439 57.7059 130.274C63.9235 129.11 70.314 129.239 76.4794 130.655C82.6447 132.071 88.4526 134.742 93.5413 138.503C98.63 142.264 102.89 147.034 106.057 152.515L72.2457 177.396L108.909 158.362C111.253 164.191 112.384 170.438 112.233 176.719C112.081 183.001 110.65 189.185 108.027 194.894L80.6845 194.689L105.951 198.844C104.879 200.683 103.681 202.445 102.366 204.119C108.777 212.224 112.267 222.257 112.271 232.595Z" fill="#FC6464"/>
<path opacity="0.1" d="M112.271 289.635C112.269 300.32 108.562 310.672 101.782 318.924C95.0023 327.176 85.5707 332.817 75.098 334.882C73.9919 335.105 72.8672 335.28 71.73 335.416C68.2222 335.836 64.678 335.855 61.1659 335.472C59.9977 335.348 58.8439 335.176 57.7046 334.956C52.6811 334.027 47.8495 332.259 43.4121 329.725C35.1298 312.805 27.8953 295.39 21.7496 277.58C23.364 271.594 26.1734 265.997 30.0082 261.128C23.6023 253.001 20.1272 242.947 20.1463 232.595C20.1463 227.42 108.586 253.259 102.409 261.103C108.817 269.228 112.293 279.283 112.271 289.635Z" fill="black"/>
</g>
<g opacity="0.1">
<path opacity="0.1" d="M630.674 343.721C628.872 349.481 626.945 355.197 624.969 360.783C624.42 359.137 624.143 357.412 624.149 355.676C624.149 350.121 626.883 345.406 630.674 343.721Z" fill="#3F3D56"/>
<path opacity="0.1" d="M650 244.47C650 255.386 647.8 272.635 643.786 292.366C640.27 309.694 635.883 326.834 630.643 343.721C628.841 349.481 626.914 355.197 624.938 360.783C622.67 367.127 620.277 373.298 617.773 379.201C610.927 376.685 604.772 372.584 599.811 367.232C594.85 361.88 591.225 355.43 589.23 348.407C587.236 341.385 586.93 333.99 588.336 326.826C589.742 319.663 592.822 312.934 597.322 307.189C592.581 301.143 589.417 294.011 588.115 286.436C586.813 278.861 587.415 271.08 589.865 263.796L624.839 275.571L592.04 258.478C593.485 255.488 595.245 252.663 597.291 250.049C592.923 244.474 589.891 237.968 588.431 231.035C586.971 224.102 587.121 216.925 588.869 210.059C590.618 203.192 593.918 196.82 598.515 191.432C603.113 186.044 608.885 181.785 615.387 178.982C629.503 188.622 640.13 202.571 645.681 218.749L639.622 223.265L646.122 219.887C648.302 226.593 649.575 233.562 649.907 240.607H648.08L649.944 240.912C650 242.087 650 243.269 650 244.47Z" fill="#FC6464"/>
<path opacity="0.1" d="M643.817 292.366C640.301 309.694 635.914 326.834 630.674 343.721C628.872 349.481 626.946 355.197 624.969 360.783C622.701 367.127 620.309 373.298 617.804 379.201C610.958 376.685 604.803 372.584 599.842 367.232C594.882 361.88 591.256 355.43 589.262 348.407C587.268 341.385 586.961 333.99 588.367 326.826C589.774 319.663 592.853 312.934 597.354 307.189C590.955 299.047 587.483 288.985 587.498 278.625C587.498 275.515 619.638 283.664 643.817 292.366Z" fill="black"/>
</g>
<path opacity="0.1" d="M649.919 240.899C649.919 240.806 649.919 240.706 649.919 240.607C649.588 233.562 648.315 226.593 646.135 219.887C646.011 219.508 645.886 219.122 645.756 218.749C640.204 202.571 629.578 188.622 615.462 178.982C599.639 168.191 580.431 163.536 561.429 165.887C542.426 168.239 524.929 177.435 512.208 191.759C510.876 184.208 508.771 176.814 505.925 169.696C485.19 172.32 464.264 173.1 443.392 172.028C456.182 177.932 469.444 182.753 483.038 186.441L482.554 188.244C467.297 184.098 452.46 178.538 438.234 171.636L433.94 169.553L438.7 169.864C460.875 171.317 483.137 170.678 505.192 167.954C500.42 156.562 493.802 146.037 485.605 136.803C449.836 133.195 414.347 125.681 381.207 110.783L381.971 109.085C414.229 123.597 448.798 131.055 483.697 134.725C471.884 122.05 457.289 112.297 441.064 106.237C424.839 100.177 407.429 97.9765 390.208 99.8087C372.987 101.641 356.428 107.456 341.838 116.794C327.248 126.132 315.027 138.738 306.14 153.616C302.834 121.53 289.52 91.3012 268.085 67.2164C249.002 74.8485 229.299 80.8234 209.193 85.0748C178.956 91.5079 148.01 93.9732 117.137 92.4085C129.927 98.312 143.189 103.133 156.783 106.821L156.298 108.625C141.046 104.477 126.213 98.9173 111.991 92.0167L107.697 89.9329L112.458 90.2439C165.082 93.7037 217.813 85.3407 266.792 65.767C264.949 63.7475 263.051 61.7736 261.1 59.8453C199.94 61.0894 133.331 60.4674 73.0288 38.4911C50.6832 52.2968 32.2405 71.5989 19.4572 94.5591C6.67385 117.519 -0.0245036 143.373 6.73552e-05 169.658C6.73552e-05 198.558 7.93554 238.299 21.7496 278.171C27.9053 296.016 35.1502 313.466 43.4432 330.422C47.6626 339.006 52.143 347.347 56.8471 355.334C62.5189 365.028 68.7627 374.375 75.5455 383.325C76.7635 384.93 77.9959 386.506 79.2429 388.053C86.1938 396.859 93.9951 404.957 102.534 412.231C104.261 413.674 105.999 415.049 107.747 416.355C112.433 419.9 117.424 423.023 122.661 425.685C131.777 430.257 141.186 432.938 150.811 433.324C151.582 433.355 152.359 433.374 153.129 433.374V433.691H570.72V433.374H571.031C573.437 433.364 575.825 432.944 578.09 432.129C592.855 426.886 606.451 405.83 617.755 379.22C620.241 373.317 622.652 367.146 624.92 360.801C626.921 355.203 628.822 349.499 630.624 343.739C635.865 326.853 640.251 309.713 643.767 292.385C647.751 272.654 649.981 255.405 649.981 244.488C650 243.269 650 242.087 649.919 240.899Z" fill="#FC6464"/>
<path d="M207.59 415.385L219.484 408.38C217.874 405.631 215.818 403.17 213.4 401.097L190.961 408.082L208.547 397.738C204.194 395.35 199.294 394.139 194.331 394.223C189.368 394.307 184.513 395.683 180.242 398.216C175.972 400.748 172.434 404.351 169.977 408.668C167.52 412.985 166.228 417.868 166.229 422.836C166.229 438.636 179.023 439.183 194.814 439.183C210.604 439.183 223.399 438.636 223.399 422.836C223.404 418.836 222.568 414.879 220.944 411.223L207.59 415.385Z" fill="#FC6464"/>
<path opacity="0.1" d="M210.616 430.742C209.35 429.473 207.936 428.362 206.403 427.433C204.241 425.996 202.01 424.528 199.462 424.043C197.225 423.614 194.919 423.975 192.626 423.844C188.671 423.602 184.947 421.895 182.18 419.054C180.558 417.375 179.278 415.322 177.327 414.022C175.22 412.641 172.548 412.343 170.05 412.685C169.325 412.788 168.607 412.936 167.9 413.127C166.778 416.24 166.206 419.526 166.21 422.836C166.21 438.636 179.005 439.183 194.795 439.183C202.457 439.183 209.411 439.053 214.544 437.118L213.686 435.513C212.867 433.8 211.835 432.198 210.616 430.742Z" fill="black"/>
<path d="M340.125 137.792C352.395 137.792 362.341 127.836 362.341 115.554C362.341 103.273 352.395 93.3167 340.125 93.3167C327.856 93.3167 317.91 103.273 317.91 115.554C317.91 127.836 327.856 137.792 340.125 137.792Z" fill="#3F3D56"/>
<path d="M327.237 288.54C329.53 304.645 326.734 321.066 322.378 336.735C321.563 339.652 320.687 342.595 319.165 345.213C317.642 347.832 315.523 350.084 313.734 352.547C310.005 357.685 307.818 363.744 305.773 369.74C300.137 386.332 295.403 403.218 291.593 420.323C291.363 421.024 291.363 421.781 291.593 422.482C292.133 423.726 293.774 423.888 295.122 423.881L312.559 423.788C313.181 422.594 312.031 421.3 311.316 420.155C308.831 416.286 311.217 411.26 313.41 407.211C318.742 397.376 322.869 386.934 325.702 376.11C326.895 371.55 327.865 366.891 329.803 362.593C332.146 357.38 335.819 352.895 338.802 348.019C342.269 342.352 344.798 336.2 347.309 330.023C350.813 321.452 354.349 312.775 355.729 303.618C357.028 295.022 356.388 286.264 355.542 277.611C355.582 277.354 355.559 277.091 355.477 276.844C355.395 276.597 355.255 276.373 355.069 276.191C354.883 276.008 354.657 275.873 354.409 275.796C354.16 275.718 353.897 275.701 353.641 275.745L330.245 274.539C325.422 274.29 324.279 273.232 325.012 277.972C325.522 281.511 326.727 284.957 327.237 288.54Z" fill="#3F3D56"/>
<path opacity="0.1" d="M327.237 288.54C329.53 304.645 326.734 321.066 322.378 336.735C321.563 339.652 320.687 342.595 319.165 345.213C317.642 347.832 315.523 350.084 313.734 352.547C310.005 357.685 307.818 363.744 305.773 369.74C300.137 386.332 295.403 403.218 291.593 420.323C291.363 421.024 291.363 421.781 291.593 422.482C292.133 423.726 293.774 423.888 295.122 423.881L312.559 423.788C313.181 422.594 312.031 421.3 311.316 420.155C308.831 416.286 311.217 411.26 313.41 407.211C318.742 397.376 322.869 386.934 325.702 376.11C326.895 371.55 327.865 366.891 329.803 362.593C332.146 357.38 335.819 352.895 338.802 348.019C342.269 342.352 344.798 336.2 347.309 330.023C350.813 321.452 354.349 312.775 355.729 303.618C357.028 295.022 356.388 286.264 355.542 277.611C355.582 277.354 355.559 277.091 355.477 276.844C355.395 276.597 355.255 276.373 355.069 276.191C354.883 276.008 354.657 275.873 354.409 275.796C354.16 275.718 353.897 275.701 353.641 275.745L330.245 274.539C325.422 274.29 324.279 273.232 325.012 277.972C325.522 281.511 326.727 284.957 327.237 288.54Z" fill="black"/>
<path d="M331.835 249.39C327.082 256.232 322.098 264.107 323.676 272.299C324.876 278.52 329.611 283.34 334.079 287.85C351.938 305.802 369.499 325.744 375.577 350.345C377.143 356.702 377.901 363.227 379.249 369.628C381.698 381.26 386.085 392.382 390.435 403.435L402.093 432.888C405.708 432.977 409.264 431.951 412.276 429.948C415.289 427.945 417.613 425.062 418.933 421.692C417.404 421.574 415.41 420.093 414.515 418.849C409.543 411.963 408.524 403.106 407.25 394.708C405.84 385.428 403.957 376.222 402.068 367.022L393.716 326.316C392.753 321.62 391.79 316.917 390.534 312.289C385.675 294.363 376.465 277.456 375.042 258.919C374.831 256.195 374.701 253.203 372.855 251.181C370.916 249.048 367.735 248.693 364.857 248.525C353.218 247.779 343.176 246.641 331.835 249.39Z" fill="#3F3D56"/>
<path d="M300.435 419.907C299.168 419.605 297.873 419.439 296.57 419.409C295.322 419.453 294.102 419.788 293.006 420.388C291.91 420.987 290.968 421.834 290.257 422.861C289.531 424.026 288.96 425.281 288.56 426.593L286.876 431.433C286.379 432.851 285.894 434.487 286.634 435.787C287.184 436.595 287.976 437.207 288.896 437.535C292.972 439.351 297.596 439.451 302.008 439.886C306.32 440.309 310.596 441.068 314.852 441.864C316.319 442.144 317.779 442.424 319.264 442.573C322.583 442.909 325.926 442.573 329.244 442.275L332.668 441.945C333.814 441.896 334.948 441.686 336.036 441.323C336.58 441.139 337.081 440.845 337.508 440.462C337.935 440.078 338.28 439.611 338.522 439.09C339.367 436.994 337.553 434.512 335.334 434.076C334.433 433.902 333.47 433.983 332.587 433.865C331.552 433.687 330.542 433.384 329.58 432.963C325.23 431.24 320.774 429.498 316.922 426.786C315.853 426.034 314.734 424.982 314.852 423.676C314.963 423.117 315.149 422.575 315.405 422.065C315.928 420.73 315.945 419.251 315.455 417.904C315.244 417.331 314.834 416.728 314.256 416.66C312.615 416.461 312.814 418.855 312.572 419.77C312.242 421.014 311.646 421.126 310.477 421.014C307.122 420.709 303.766 420.541 300.435 419.907Z" fill="#F2F2F2"/>
<path d="M398.538 436.62C398.568 439.051 399.403 441.403 400.912 443.307C401.373 443.875 401.949 444.34 402.602 444.67C403.585 445.075 404.65 445.243 405.709 445.161C408.668 445.097 411.59 444.505 414.341 443.413C415.31 442.974 416.306 442.598 417.324 442.287C418.604 442.025 419.899 441.838 421.201 441.727C426.34 440.987 430.852 437.952 435.817 436.415C437.301 436.047 438.755 435.569 440.167 434.985C442.131 434.058 443.721 432.496 445.281 430.985C446.201 430.169 446.993 429.219 447.63 428.167C448.544 426.469 448.6 424.435 448.637 422.513C448.67 422.212 448.619 421.908 448.488 421.636C448.346 421.44 448.152 421.287 447.928 421.194C446.418 420.448 444.629 420.821 442.957 421.113C436.917 422.189 430.734 421.99 424.601 421.791C424.019 421.871 423.427 421.757 422.916 421.466C422.406 421.174 422.007 420.722 421.779 420.18L419.449 416.448C418.784 415.378 417.728 414.153 416.522 414.52C415.559 414.812 415.167 415.994 415.205 417.008C415.242 418.022 415.553 419.03 415.36 420.019C415.223 420.563 414.975 421.073 414.633 421.518C414.291 421.963 413.862 422.334 413.372 422.606C412.393 423.139 411.348 423.541 410.264 423.8C406.834 424.771 402.845 425.872 400.191 428.397C398.24 430.189 398.42 434.201 398.538 436.62Z" fill="#F2F2F2"/>
<path d="M397.333 189.837C398.671 188.813 399.819 187.563 400.726 186.142C401.507 184.539 401.997 182.81 402.174 181.035L403.149 174.865C403.69 171.462 404.324 167.861 406.592 165.267C408.86 162.673 413.378 161.746 415.683 164.309C416.69 165.422 417.088 166.952 417.336 168.439C418.045 172.872 417.753 177.408 416.482 181.713C415.211 186.019 412.993 189.985 409.991 193.32C407.201 196.381 403.777 198.813 400.825 201.705C398.253 204.193 396.022 207.048 393.648 209.754C387.907 216.29 381.332 222.042 374.092 226.86C374.179 222.232 374.769 217.268 374.092 212.672C373.589 209.35 372.228 207.558 375.44 205.388C382.897 200.312 390.423 195.721 397.333 189.837Z" fill="#FBBEBE"/>
<path d="M334.669 144.317C334.427 147.626 333.054 151.01 330.319 152.919C338.062 155.632 345.699 158.621 353.231 161.889C351.777 160.49 351.336 158.344 351.267 156.328C351.075 151.06 352.895 145.878 355.555 141.337C355.978 140.761 356.222 140.073 356.257 139.359C356.17 137.891 354.43 137.213 353.001 136.871C348.125 135.687 343.148 134.964 338.137 134.713C335.993 134.644 333.451 133.966 333.936 136.697C334.396 139.247 334.862 141.735 334.669 144.317Z" fill="#FBBEBE"/>
<path d="M349.645 146.09C359.677 146.09 367.809 137.949 367.809 127.908C367.809 117.866 359.677 109.726 349.645 109.726C339.614 109.726 331.481 117.866 331.481 127.908C331.481 137.949 339.614 146.09 349.645 146.09Z" fill="#FBBEBE"/>
<path d="M367.629 177.017C366.995 175.652 366.222 174.355 365.324 173.148C362.03 168.414 358.65 163.687 354.424 159.768C351.223 156.911 347.759 154.363 344.077 152.161C342.091 150.798 339.907 149.749 337.602 149.05C336.235 148.747 334.844 148.558 333.445 148.484L328.729 148.099C328.315 148.044 327.895 148.056 327.486 148.136C326.206 148.46 325.621 150.052 325.895 151.34C326.168 152.627 327.138 153.672 327.995 154.649C328.207 164.284 323.925 173.789 323.347 183.411C322.334 200.237 332.594 215.887 333.414 232.726C333.499 233.487 333.418 234.257 333.178 234.984C333.041 235.332 332.836 235.649 332.681 235.991C332.196 237.049 332.215 238.249 332.128 239.413C331.789 243.561 329.974 247.45 327.013 250.373C327.783 251.329 328.772 252.084 329.897 252.575C331.879 253.439 334.247 253.514 336.353 254.117C341.847 255.722 347.477 257.339 353.187 256.997C353.897 255.452 354.336 253.796 354.486 252.102C355.294 251.598 356.226 252.674 356.35 253.62C356.475 254.565 356.294 255.666 356.972 256.35C357.649 257.035 358.507 256.929 359.333 256.823C362.819 256.381 366.169 255.206 369.587 254.416C373.004 253.626 376.658 253.246 379.983 254.379C380.654 253.526 380.368 252.264 379.821 251.331C379.274 250.398 378.498 249.576 378.187 248.538C378.031 247.939 377.964 247.321 377.988 246.703C377.988 241.384 379.082 236.01 378.044 230.791C377.739 229.261 377.255 227.768 376.944 226.232C376.323 223.252 376.416 220.179 376.497 217.138C376.577 214.096 376.211 210.805 376.149 207.72C376.147 206.445 376.064 205.172 375.9 203.907C375.689 202.582 375.279 201.288 375.167 199.951C374.831 196.555 376.198 193.183 375.993 189.775C375.652 184.599 369.642 181.788 367.629 177.017Z" fill="#FF6F61"/>
<path d="M326.635 174.579C322.235 186.26 320.085 198.651 317.935 210.955L312.963 239.854C311.553 248.021 310.136 256.238 310.192 264.524C310.192 266.85 310.341 269.22 309.732 271.466C308.937 274.414 306.961 276.871 305.463 279.552C302.424 285.027 301.412 291.399 302.605 297.547C303.114 300.129 304.506 303.059 307.122 303.357C309.272 303.593 311.13 301.883 312.386 300.116C315.269 296.067 316.698 291.178 317.978 286.363C322.099 270.629 324.981 254.596 326.597 238.411C326.751 236.362 327.04 234.326 327.461 232.315C328.01 230.242 328.712 228.213 329.562 226.244C331.463 221.525 333.367 216.806 335.272 212.087C339.666 201.183 344.084 190.229 350.118 180.139C344.152 178.423 337.944 176.407 331.979 174.709C330.257 174.199 328.412 174.504 326.635 174.579Z" fill="#FBBEBE"/>
<path d="M336.975 183.455C332.799 182.553 328.48 182.833 324.217 182.727C323.612 182.771 323.009 182.614 322.502 182.279C321.638 181.539 322.005 180.152 322.44 179.101L324.503 174.124C324.842 173.096 325.407 172.156 326.156 171.375C327.206 170.442 328.685 170.212 330.077 170.044C334.607 169.521 339.268 169.347 343.661 170.573C348.055 171.798 352.187 174.585 354.151 178.709C354.971 180.426 355.35 182.59 354.263 184.152C352.647 186.472 349.024 189.066 346.321 187.797C343.083 186.26 340.604 184.226 336.975 183.455Z" fill="#FF6F61"/>
<path d="M359.178 99.6677C355.589 99.6292 352.067 100.646 349.049 102.591C346.192 99.8811 342.666 97.9796 338.834 97.0812C335.002 96.1828 330.999 96.3198 327.237 97.4781C326.838 95.1848 325.817 93.0453 324.286 91.2931C322.755 89.541 320.772 88.2434 318.555 87.5422C316.337 86.8409 313.97 86.7628 311.711 87.3164C309.452 87.87 307.389 89.034 305.745 90.6815C304.102 92.329 302.943 94.3965 302.394 96.6585C301.845 98.9206 301.927 101.29 302.631 103.509C303.335 105.727 304.635 107.71 306.388 109.239C308.141 110.769 310.28 111.787 312.572 112.183C311.752 114.986 311.492 117.922 311.806 120.826C312.12 123.729 313.002 126.542 314.403 129.104C315.803 131.666 317.693 133.927 319.966 135.757C322.24 137.588 324.851 138.952 327.65 139.773C330.45 140.593 333.384 140.854 336.285 140.54C339.185 140.225 341.995 139.342 344.555 137.94C347.114 136.539 349.373 134.646 351.202 132.371C353.03 130.096 354.394 127.482 355.213 124.679C356.524 124.948 357.859 125.083 359.197 125.084C367.959 125.084 375.067 119.392 375.067 112.376C375.067 105.359 367.927 99.6677 359.178 99.6677Z" fill="#3F3D56"/>
<path opacity="0.1" d="M362.341 118.727C361.003 118.73 359.668 118.595 358.357 118.322C357.735 120.597 356.753 122.758 355.449 124.723C356.678 124.96 357.926 125.081 359.178 125.084C367.368 125.084 374.092 120.108 374.955 113.738C372.041 116.773 367.474 118.727 362.341 118.727Z" fill="black"/>
<path opacity="0.1" d="M336.95 134.613C333.474 134.608 330.047 133.788 326.945 132.218C323.843 130.648 321.152 128.373 319.087 125.574C317.022 122.775 315.641 119.531 315.054 116.102C314.468 112.672 314.692 109.153 315.71 105.826C312.769 105.308 310.105 103.769 308.186 101.481C306.266 99.1917 305.214 96.2989 305.214 93.3105C305.213 92.5469 305.281 91.7849 305.419 91.0339C303.869 92.71 302.799 94.7733 302.322 97.0067C301.844 99.24 301.977 101.561 302.706 103.725C303.434 105.89 304.732 107.817 306.463 109.306C308.194 110.794 310.293 111.788 312.541 112.183C310.83 117.806 311.413 123.878 314.162 129.072C316.911 134.267 321.603 138.16 327.212 139.901C332.82 141.642 338.89 141.09 344.092 138.365C349.295 135.639 353.209 130.963 354.977 125.357C352.923 128.223 350.216 130.557 347.081 132.167C343.946 133.777 340.473 134.615 336.95 134.613Z" fill="black"/>
<path d="M417.99 172.106C418.057 172.011 418.036 171.879 417.943 171.813C417.849 171.746 417.718 171.769 417.651 171.864L415.897 174.324C415.829 174.42 415.85 174.551 415.943 174.618C416.037 174.685 416.168 174.662 416.235 174.567L417.99 172.106Z" fill="#3A3768"/>
<path d="M408.169 161.656C408.206 161.603 408.194 161.529 408.141 161.491C408.088 161.453 408.014 161.465 407.976 161.519L407.457 162.248C407.419 162.301 407.431 162.375 407.484 162.413C407.537 162.45 407.611 162.438 407.649 162.385L408.169 161.656Z" fill="#3A3768"/>
<path d="M406.962 163.373C407.004 163.315 406.99 163.233 406.931 163.191C406.873 163.149 406.791 163.163 406.749 163.222L405.757 164.614C405.715 164.673 405.729 164.754 405.787 164.796C405.846 164.838 405.927 164.824 405.969 164.766L406.962 163.373Z" fill="#3A3768"/>
<path d="M405.42 165.533C405.46 165.477 405.447 165.4 405.391 165.36C405.335 165.32 405.258 165.333 405.218 165.389L404.207 166.806C404.167 166.862 404.18 166.94 404.236 166.98C404.292 167.02 404.37 167.007 404.41 166.951L405.42 165.533Z" fill="#3A3768"/>
<path d="M421.001 166.823L412.179 160.522C411.475 160.019 410.498 160.183 409.995 160.888L395.323 181.47C394.82 182.175 394.984 183.154 395.688 183.657L404.51 189.958C405.214 190.461 406.192 190.297 406.694 189.592L421.366 169.01C421.869 168.305 421.705 167.326 421.001 166.823Z" fill="#3A3768"/>
<path opacity="0.1" d="M421.001 166.823L412.179 160.522C411.475 160.019 410.498 160.183 409.995 160.888L395.323 181.47C394.82 182.175 394.984 183.154 395.688 183.657L404.51 189.958C405.214 190.461 406.192 190.297 406.694 189.592L421.366 169.01C421.869 168.305 421.705 167.326 421.001 166.823Z" fill="black"/>
<path d="M420.426 165.664L411.604 159.363C410.9 158.86 409.922 159.023 409.42 159.728L394.747 180.311C394.245 181.015 394.408 181.994 395.112 182.497L403.934 188.798C404.638 189.301 405.616 189.138 406.118 188.433L420.791 167.85C421.293 167.145 421.13 166.167 420.426 165.664Z" fill="#3A3768"/>
<path d="M419.629 166.038L418.33 165.105L418.218 165.261C418.08 165.451 417.873 165.58 417.641 165.621C417.409 165.662 417.17 165.61 416.976 165.478L412.825 162.511C412.628 162.37 412.495 162.156 412.455 161.917C412.416 161.678 412.472 161.433 412.613 161.236L412.725 161.08L411.482 160.21C411.364 160.124 411.23 160.063 411.088 160.03C410.946 159.997 410.799 159.992 410.656 160.015C410.512 160.039 410.374 160.091 410.251 160.168C410.127 160.245 410.02 160.346 409.935 160.465L395.593 180.587C395.422 180.827 395.353 181.124 395.401 181.414C395.449 181.705 395.609 181.964 395.847 182.136L404.013 187.965C404.131 188.05 404.266 188.11 404.408 188.143C404.55 188.176 404.697 188.18 404.841 188.156C404.985 188.132 405.122 188.079 405.246 188.002C405.369 187.924 405.476 187.823 405.56 187.703L419.902 167.587C419.987 167.467 420.047 167.332 420.078 167.19C420.11 167.047 420.114 166.899 420.088 166.755C420.063 166.611 420.009 166.474 419.93 166.351C419.852 166.228 419.749 166.121 419.629 166.038Z" fill="#FC6464"/>
<path d="M415.848 163.445L414.583 162.541C414.494 162.478 414.37 162.498 414.306 162.588C414.242 162.677 414.263 162.802 414.352 162.865L415.617 163.769C415.706 163.833 415.83 163.812 415.894 163.722C415.958 163.633 415.937 163.509 415.848 163.445Z" fill="#E6E8EC"/>
<path d="M416.286 164.265C416.409 164.265 416.509 164.165 416.509 164.041C416.509 163.918 416.409 163.817 416.286 163.817C416.162 163.817 416.062 163.918 416.062 164.041C416.062 164.165 416.162 164.265 416.286 164.265Z" fill="#E6E8EC"/>
<path d="M416.348 8.66486C405.306 8.66486 394.716 13.0557 386.908 20.8715C379.1 28.6872 374.713 39.2876 374.713 50.3408C374.713 73.3559 418.337 149.579 418.337 149.579C418.337 149.579 457.983 73.3869 457.983 50.3408C457.983 39.2876 453.596 28.6872 445.788 20.8715C437.98 13.0557 427.39 8.66486 416.348 8.66486ZM416.348 78.133C412.034 78.133 407.817 76.8525 404.23 74.4535C400.643 72.0544 397.848 68.6445 396.197 64.655C394.546 60.6655 394.114 56.2756 394.956 52.0404C395.797 47.8051 397.875 43.9148 400.925 40.8614C403.975 37.808 407.862 35.7286 412.093 34.8861C416.324 34.0437 420.71 34.4761 424.695 36.1286C428.681 37.7811 432.087 40.5795 434.484 44.1699C436.881 47.7604 438.16 51.9816 438.16 56.2998C438.163 59.1688 437.601 62.0103 436.507 64.6617C435.412 67.3132 433.806 69.7226 431.78 71.7521C429.754 73.7817 427.348 75.3915 424.7 76.4896C422.052 77.5877 419.214 78.1525 416.348 78.1517V78.133Z" fill="#FC6464"/>
</g>
<defs>
<clipPath id="clip0">
<rect width="650" height="454" fill="white"/>
</clipPath>
</defs>
</svg>
