<svg width="591" height="532" viewBox="0 0 591 532" fill="none" xmlns="http://www.w3.org/2000/svg">
<g clip-path="url(#clip0)">
<path d="M564.94 18.7789H303.454C289.062 18.7789 277.395 30.4401 277.395 44.8248V398.358C277.395 412.743 289.062 424.404 303.454 424.404H564.94C579.333 424.404 591 412.743 591 398.358V44.8248C591 30.4401 579.333 18.7789 564.94 18.7789Z" fill="#FC6464" fill-opacity="0.1"/>
<path d="M549.909 0.341431H288.423C274.031 0.341431 262.363 12.0026 262.363 26.3873V379.921C262.363 394.305 274.031 405.967 288.423 405.967H549.909C564.302 405.967 575.969 394.305 575.969 379.921V26.3873C575.969 12.0026 564.302 0.341431 549.909 0.341431Z" stroke="#3F3D56" stroke-miterlimit="10"/>
<path d="M557.18 42.3179H278.419V363.99H557.18V42.3179Z" stroke="#3F3D56" stroke-miterlimit="10"/>
<path d="M419.166 27.9977C422.939 27.9977 425.998 24.9404 425.998 21.169C425.998 17.3976 422.939 14.3403 419.166 14.3403C415.392 14.3403 412.333 17.3976 412.333 21.169C412.333 24.9404 415.392 27.9977 419.166 27.9977Z" stroke="#3F3D56" stroke-miterlimit="10"/>
<path d="M419.166 399.821C427.467 399.821 434.197 393.095 434.197 384.798C434.197 376.501 427.467 369.774 419.166 369.774C410.864 369.774 404.135 376.501 404.135 384.798C404.135 393.095 410.864 399.821 419.166 399.821Z" stroke="#3F3D56" stroke-miterlimit="10"/>
<path d="M410.619 77.5516C404.607 77.5516 398.653 78.7352 393.098 81.0348C387.544 83.3344 382.497 86.705 378.245 90.9541C373.994 95.2032 370.621 100.248 368.321 105.799C366.02 111.351 364.835 117.301 364.835 123.311C364.835 148.583 412.799 241.794 412.799 241.794C412.799 241.794 456.402 148.583 456.402 123.311C456.402 111.175 451.579 99.5356 442.993 90.9541C434.407 82.3727 422.762 77.5516 410.619 77.5516ZM410.619 153.817C405.876 153.817 401.239 152.411 397.295 149.777C393.352 147.143 390.278 143.4 388.463 139.02C386.647 134.64 386.173 129.821 387.098 125.172C388.023 120.522 390.307 116.251 393.661 112.899C397.015 109.547 401.288 107.264 405.94 106.339C410.592 105.414 415.414 105.889 419.796 107.703C424.179 109.517 427.924 112.589 430.559 116.531C433.194 120.473 434.601 125.107 434.601 129.848C434.601 136.205 432.074 142.301 427.577 146.796C423.079 151.291 416.979 153.817 410.619 153.817V153.817Z" fill="#FC6464"/>
<path d="M410.626 288.513C435.907 288.513 456.402 281.787 456.402 273.49C456.402 265.193 435.907 258.467 410.626 258.467C385.344 258.467 364.849 265.193 364.849 273.49C364.849 281.787 385.344 288.513 410.626 288.513Z" fill="#FC6464"/>
<path d="M247.25 65.5265C244.338 65.6909 241.529 66.6629 239.138 68.3336C236.747 70.0042 234.87 72.3074 233.715 74.9849C230.331 83.1615 234.689 92.7661 241.23 98.7285C247.772 104.691 256.175 108.099 263.81 112.579C274.065 118.596 283.28 126.948 288.411 137.67C293.543 148.392 294.088 161.673 288.057 171.916C282.459 181.423 272.279 187.113 262.571 192.361" stroke="#3F3D56" stroke-miterlimit="10"/>
<path d="M255.872 72.0429C262.476 72.0429 267.829 69.4442 267.829 66.2385C267.829 63.0328 262.476 60.4341 255.872 60.4341C249.269 60.4341 243.916 63.0328 243.916 66.2385C243.916 69.4442 249.269 72.0429 255.872 72.0429Z" fill="#57B894"/>
<path d="M265.438 110.284C272.041 110.284 277.394 107.685 277.394 104.479C277.394 101.274 272.041 98.6748 265.438 98.6748C258.834 98.6748 253.481 101.274 253.481 104.479C253.481 107.685 258.834 110.284 265.438 110.284Z" fill="#57B894"/>
<path d="M243.574 116.429C250.177 116.429 255.53 113.831 255.53 110.625C255.53 107.419 250.177 104.821 243.574 104.821C236.97 104.821 231.617 107.419 231.617 110.625C231.617 113.831 236.97 116.429 243.574 116.429Z" fill="#57B894"/>
<path d="M277.736 148.524C284.339 148.524 289.693 145.926 289.693 142.72C289.693 139.514 284.339 136.916 277.736 136.916C271.132 136.916 265.779 139.514 265.779 142.72C265.779 145.926 271.132 148.524 277.736 148.524Z" fill="#57B894"/>
<path d="M301.649 148.524C308.252 148.524 313.606 145.926 313.606 142.72C313.606 139.514 308.252 136.916 301.649 136.916C295.046 136.916 289.692 139.514 289.692 142.72C289.692 145.926 295.046 148.524 301.649 148.524Z" fill="#57B894"/>
<path d="M32.4478 531.659H277.394" stroke="#3F3D56" stroke-miterlimit="10"/>
<path d="M23.4646 413.357C20.7526 413.51 18.1368 414.415 15.9107 415.971C13.6845 417.527 11.9359 419.671 10.861 422.165C7.70947 429.779 11.7673 438.722 17.8589 444.275C23.9504 449.827 31.7754 453 38.885 457.172C48.4345 462.775 57.0154 470.553 61.7935 480.537C66.5717 490.521 67.0799 502.888 61.4634 512.426C56.2504 521.279 46.7713 526.578 37.7308 531.464" stroke="#3F3D56" stroke-miterlimit="10"/>
<path d="M31.4933 419.425C37.6424 419.425 42.6273 417.005 42.6273 414.02C42.6273 411.035 37.6424 408.615 31.4933 408.615C25.3442 408.615 20.3594 411.035 20.3594 414.02C20.3594 417.005 25.3442 419.425 31.4933 419.425Z" fill="#57B894"/>
<path d="M40.4001 455.035C46.5492 455.035 51.534 452.615 51.534 449.63C51.534 446.644 46.5492 444.224 40.4001 444.224C34.2509 444.224 29.2661 446.644 29.2661 449.63C29.2661 452.615 34.2509 455.035 40.4001 455.035Z" fill="#57B894"/>
<path d="M20.0412 460.758C26.1903 460.758 31.1751 458.338 31.1751 455.353C31.1751 452.367 26.1903 449.948 20.0412 449.948C13.8921 449.948 8.90723 452.367 8.90723 455.353C8.90723 458.338 13.8921 460.758 20.0412 460.758Z" fill="#57B894"/>
<path d="M51.8522 490.644C58.0013 490.644 62.9861 488.224 62.9861 485.239C62.9861 482.254 58.0013 479.834 51.8522 479.834C45.7031 479.834 40.7183 482.254 40.7183 485.239C40.7183 488.224 45.7031 490.644 51.8522 490.644Z" fill="#57B894"/>
<path d="M74.1203 490.644C80.2694 490.644 85.2542 488.224 85.2542 485.239C85.2542 482.254 80.2694 479.834 74.1203 479.834C67.9712 479.834 62.9863 482.254 62.9863 485.239C62.9863 488.224 67.9712 490.644 74.1203 490.644Z" fill="#57B894"/>
<path d="M50.4616 435.195C52.6764 435.32 54.8126 436.059 56.6306 437.329C58.4487 438.6 59.8767 440.351 60.7545 442.388C63.3283 448.606 60.0144 455.91 55.0396 460.444C50.0648 464.978 43.6744 467.57 37.8682 470.977C30.0695 475.552 23.0617 481.904 19.1596 490.058C15.2575 498.212 14.8424 508.312 19.4292 516.101C23.6865 523.331 31.4277 527.658 38.8109 531.649" stroke="#3F3D56" stroke-miterlimit="10"/>
<path d="M43.9047 440.15C48.9265 440.15 52.9975 438.174 52.9975 435.736C52.9975 433.298 48.9265 431.322 43.9047 431.322C38.883 431.322 34.812 433.298 34.812 435.736C34.812 438.174 38.883 440.15 43.9047 440.15Z" fill="#57B894"/>
<path d="M36.6308 469.231C41.6526 469.231 45.7235 467.255 45.7235 464.817C45.7235 462.379 41.6526 460.403 36.6308 460.403C31.609 460.403 27.5381 462.379 27.5381 464.817C27.5381 467.255 31.609 469.231 36.6308 469.231Z" fill="#57B894"/>
<path d="M53.2573 473.905C58.279 473.905 62.35 471.929 62.35 469.491C62.35 467.053 58.279 465.077 53.2573 465.077C48.2355 465.077 44.1646 467.053 44.1646 469.491C44.1646 471.929 48.2355 473.905 53.2573 473.905Z" fill="#57B894"/>
<path d="M27.2783 498.313C32.3 498.313 36.371 496.336 36.371 493.898C36.371 491.461 32.3 489.484 27.2783 489.484C22.2565 489.484 18.1855 491.461 18.1855 493.898C18.1855 496.336 22.2565 498.313 27.2783 498.313Z" fill="#57B894"/>
<path d="M9.09272 498.313C14.1145 498.313 18.1854 496.336 18.1854 493.898C18.1854 491.461 14.1145 489.484 9.09272 489.484C4.07095 489.484 0 491.461 0 493.898C0 496.336 4.07095 498.313 9.09272 498.313Z" fill="#57B894"/>
<path d="M88.7153 503.62C88.7153 503.62 95.0775 506.8 99.5311 507.435C103.985 508.071 106.49 503.569 105.555 502.005C104.621 500.441 108.438 501.712 110.983 507.435C110.983 507.435 121.799 520.153 128.161 520.789C134.523 521.425 134.573 530.034 131.342 530.327C127.843 530.645 121.799 532.871 114.164 530.327C106.53 527.784 99.5311 520.789 96.35 520.789C93.1689 520.789 82.353 515.702 85.5342 513.158C88.7153 510.615 88.7153 503.62 88.7153 503.62Z" fill="#3F3D56"/>
<path d="M151.422 517.987C154.67 518.237 157.936 518.036 161.129 517.392C165.501 516.33 166.155 511.22 164.706 510.114C163.258 509.008 167.275 508.773 171.763 513.143C171.763 513.143 186.53 520.94 192.674 519.17C198.817 517.4 202.061 525.375 199.17 526.846C194.267 529.533 188.818 531.07 183.233 531.341C175.199 531.811 166.089 529.791 163.135 530.971C160.181 532.151 148.249 531.44 150.258 527.898C152.267 524.356 151.422 517.987 151.422 517.987Z" fill="#3F3D56"/>
<path d="M140.606 214.67C154.309 214.67 165.419 203.567 165.419 189.871C165.419 176.175 154.309 165.071 140.606 165.071C126.902 165.071 115.793 176.175 115.793 189.871C115.793 203.567 126.902 214.67 140.606 214.67Z" fill="#FFC1C7"/>
<path d="M121.201 199.727C121.201 199.727 125.018 226.434 116.111 230.25C107.204 234.065 161.283 232.793 161.283 232.793C161.283 232.793 153.648 208.63 155.557 202.271C157.466 195.912 121.201 199.727 121.201 199.727Z" fill="#FFC1C7"/>
<path d="M112.294 351.703C112.294 351.703 110.385 400.031 108.476 405.118C106.568 410.205 104.659 444.542 104.659 444.542L88.1172 506.859L103.387 511.946C103.387 511.946 124.382 475.065 126.927 470.614C129.472 466.162 149.831 394.943 149.831 394.943C149.831 394.943 147.922 438.82 147.922 453.445C147.922 468.07 151.74 521.484 151.74 521.484L163.828 520.213L179.734 452.809C179.734 452.809 202.638 361.878 187.368 351.703C172.099 341.529 112.294 351.703 112.294 351.703Z" fill="#2F2E41"/>
<path d="M205.183 366.965C205.183 366.965 205.819 403.846 198.184 398.123C190.55 392.4 198.184 363.785 198.184 363.785L205.183 366.965Z" fill="#FFC1C7"/>
<path d="M99.5694 354.247C99.5694 354.247 100.206 391.128 92.5709 385.405C84.9362 379.682 92.5709 351.068 92.5709 351.068L99.5694 354.247Z" fill="#FFC1C7"/>
<path d="M193.094 246.782C193.094 246.782 180.37 232.157 169.554 234.065C158.738 235.972 99.5692 235.337 99.5692 235.337C99.5692 235.337 79.8462 260.136 84.936 265.223C90.0258 270.31 106.568 360.606 106.568 360.606C106.568 360.606 150.467 354.883 165.737 354.883C181.006 354.883 187.368 352.339 187.368 352.339C187.368 352.339 167.009 311.643 176.552 293.202C186.096 274.761 200.093 255.049 200.093 255.049L193.094 246.782Z" fill="#FC6464"/>
<path d="M189.277 251.234L200.093 255.049C200.093 255.049 206.455 277.305 206.455 295.11C206.455 312.915 207.091 321.817 209.636 328.176C212.181 334.535 220.452 364.421 215.999 370.78C213.54 374.4 210.535 377.617 207.091 380.318L192.458 379.046C192.458 379.046 191.822 358.062 188.005 356.155C184.187 354.247 179.097 342.165 179.097 342.165C179.097 342.165 167.009 303.376 174.644 290.659C182.279 277.941 189.277 251.234 189.277 251.234Z" fill="#FC6464"/>
<path d="M148.559 274.761C148.559 274.761 154.921 246.783 142.833 248.054C130.744 249.326 114.203 249.962 109.749 249.962C105.295 249.962 79.8464 246.782 76.029 263.315C72.2117 279.848 67.1219 300.197 77.9377 312.914C77.9377 312.914 81.755 368.872 96.3882 372.687C111.021 376.503 149.831 380.954 163.828 362.513C177.825 344.073 172.099 323.724 172.099 323.724H165.737L148.559 274.761Z" fill="#3F3D56"/>
<path d="M169.554 324.997L174.644 290.658L172.099 326.268L169.554 324.997Z" fill="#3F3D56"/>
<path opacity="0.1" d="M84.2998 317.366C84.2998 317.366 95.1156 322.453 117.384 319.273V328.812L84.2998 326.268V317.366Z" fill="black"/>
<path d="M142.515 247.737L159.056 238.834L145.06 250.916L142.515 247.737Z" fill="#3F3D56"/>
<path d="M177.825 238.516C177.825 238.516 190.55 242.967 190.55 238.516C190.55 234.065 179.098 230.25 172.099 227.706C165.101 225.162 132.017 221.347 126.927 219.439C121.837 217.532 97.6609 214.352 95.7522 221.983C93.8435 229.614 93.2073 245.511 102.751 247.418C112.294 249.326 137.107 244.239 149.831 245.511C162.556 246.783 177.825 238.516 177.825 238.516Z" fill="#FC6464"/>
<path opacity="0.1" d="M177.825 238.516C177.825 238.516 190.55 242.967 190.55 238.516C190.55 234.065 179.098 230.25 172.099 227.706C165.101 225.162 132.017 221.347 126.927 219.439C121.837 217.532 97.6609 214.352 95.7522 221.983C93.8435 229.614 93.2073 245.511 102.751 247.418C112.294 249.326 137.107 244.239 149.831 245.511C162.556 246.783 177.825 238.516 177.825 238.516Z" fill="black"/>
<path d="M89.0713 252.823L93.3955 243.745L94.1614 254.731L89.0713 252.823Z" fill="#3F3D56"/>
<path d="M136.306 215.468C149.135 215.468 159.536 203.391 159.536 188.494C159.536 173.597 149.135 161.521 136.306 161.521C123.476 161.521 113.076 173.597 113.076 188.494C113.076 203.391 123.476 215.468 136.306 215.468Z" fill="#2F2E41"/>
<path d="M140.405 188.836C153.235 188.836 163.635 182.262 163.635 174.154C163.635 166.045 153.235 159.472 140.405 159.472C127.576 159.472 117.175 166.045 117.175 174.154C117.175 182.262 127.576 188.836 140.405 188.836Z" fill="#2F2E41"/>
<path d="M158.511 200.444C159.832 200.444 160.902 198.61 160.902 196.347C160.902 194.084 159.832 192.25 158.511 192.25C157.19 192.25 156.12 194.084 156.12 196.347C156.12 198.61 157.19 200.444 158.511 200.444Z" fill="#FFC1C7"/>
<path d="M155.176 170.457C157.619 169.12 159.707 166.703 161.27 163.402C161.423 164.136 161.464 164.889 161.392 165.635C162.407 165.521 163.392 165.224 164.301 164.758L164.083 167.139C165.839 166.064 167.452 164.773 168.886 163.296C169.274 166.768 168.692 170.28 167.203 173.442C165.936 175.943 164.213 177.57 162.509 179.173" fill="#2F2E41"/>
</g>
<defs>
<clipPath id="clip0">
<rect width="591" height="532" fill="white"/>
</clipPath>
</defs>
</svg>
