<svg width="48" height="48" viewBox="0 0 48 48" fill="none" xmlns="http://www.w3.org/2000/svg">
<g clip-path="url(#clip0)">
<path d="M32.9441 38.7778C31.2283 38.7778 29.833 40.1732 29.833 41.8889C29.833 43.6047 31.2283 45.0001 32.9441 45.0001C34.6599 45.0001 36.0552 43.6047 36.0552 41.8889C36.0552 40.1732 34.6599 38.7778 32.9441 38.7778ZM32.9441 43.4445C32.0862 43.4445 31.3886 42.7468 31.3886 41.8889C31.3886 41.0311 32.0862 40.3334 32.9441 40.3334C33.802 40.3334 34.4997 41.0311 34.4997 41.8889C34.4997 42.7468 33.802 43.4445 32.9441 43.4445Z" fill="#FC6464"/>
<path d="M29.8334 4.55556H32.9446C33.3739 4.55556 33.7223 4.20789 33.7223 3.77778C33.7223 3.34767 33.3739 3 32.9446 3H29.8334C29.4041 3 29.0557 3.34767 29.0557 3.77778C29.0557 4.20789 29.4041 4.55556 29.8334 4.55556Z" fill="#FC6464"/>
<path d="M35.2778 4.55556H36.0556C36.4849 4.55556 36.8333 4.20789 36.8333 3.77778C36.8333 3.34767 36.4849 3 36.0556 3H35.2778C34.8484 3 34.5 3.34767 34.5 3.77778C34.5 4.20789 34.8484 4.55556 35.2778 4.55556Z" fill="#FC6464"/>
<path d="M42.7406 0.666504H23.1483C21.2591 0.666504 19.7222 2.20417 19.7222 4.09262V11.5079C15.6358 13.0783 12.7222 17.0333 12.7222 21.6665C12.7222 24.2005 13.5996 26.5299 15.0571 28.3818L2.07911 40.5439C1.76566 40.8379 1.74933 41.3303 2.04333 41.6429C2.19655 41.8063 2.40344 41.8887 2.61111 41.8887C2.80166 41.8887 2.993 41.8187 3.14311 41.6779L16.1032 29.5329C17.1377 30.5207 18.3642 31.3032 19.7222 31.8251V43.9071C19.7222 45.7963 21.2591 47.3332 23.1483 47.3332H42.7398C44.629 47.3332 46.1659 45.7955 46.1659 43.9071V4.09262C46.1667 2.20417 44.6298 0.666504 42.7406 0.666504ZM23.1483 2.22206H42.7398C43.7719 2.22206 44.6111 3.06128 44.6111 4.09262V5.33317H21.2778V4.09262C21.2778 3.06128 22.117 2.22206 23.1483 2.22206ZM14.2778 21.6665C14.2778 17.5139 17.0054 13.9898 20.7613 12.7819C20.8842 12.7423 21.0087 12.7119 21.1323 12.6777C21.2762 12.6381 21.4201 12.5984 21.5663 12.5657C21.6923 12.5369 21.8191 12.5136 21.9467 12.4903C22.1123 12.4599 22.2788 12.4343 22.4476 12.4133C22.5533 12.4001 22.6591 12.3853 22.7649 12.3759C23.0441 12.3503 23.3257 12.3332 23.6111 12.3332C28.7577 12.3332 32.9444 16.5199 32.9444 21.6665C32.9444 26.8131 28.7577 30.9998 23.6111 30.9998C23.3257 30.9998 23.0441 30.9827 22.7649 30.9571C22.6591 30.9469 22.5533 30.9329 22.4476 30.9197C22.2796 30.8987 22.1123 30.8731 21.9467 30.8427C21.8199 30.8194 21.6931 30.7953 21.5663 30.7673C21.4201 30.7346 21.2762 30.6949 21.1323 30.6553C21.0087 30.6211 20.8842 30.5907 20.7613 30.5511C17.0054 29.3432 14.2778 25.8191 14.2778 21.6665ZM22.2889 32.4667C22.3441 32.4737 22.3993 32.4862 22.4553 32.4924C22.8357 32.5328 23.2207 32.5554 23.6111 32.5554C29.6156 32.5554 34.5 27.6709 34.5 21.6665C34.5 15.6621 29.6156 10.7776 23.6111 10.7776C23.2207 10.7776 22.8357 10.8002 22.4553 10.8406C22.3993 10.8468 22.3449 10.8593 22.2889 10.8663C21.9607 10.9059 21.6356 10.9573 21.3167 11.0257C21.3034 11.0288 21.291 11.0296 21.2778 11.0319V6.88873H44.6111V36.4443H21.2778V32.3011C21.291 32.3034 21.3034 32.3042 21.3167 32.3073C21.6356 32.3765 21.9607 32.4271 22.2889 32.4667ZM42.7406 45.7776H23.1483C22.117 45.7776 21.2778 44.9384 21.2778 43.9071V37.9998H44.6111V43.9071C44.6111 44.9384 43.7719 45.7776 42.7406 45.7776Z" fill="#FC6464"/>
</g>
<defs>
<clipPath id="clip0">
<rect width="46.6667" height="46.6667" fill="white" transform="translate(0.666992 0.666504)"/>
</clipPath>
</defs>
</svg>
