<svg width="48" height="48" viewBox="0 0 48 48" fill="none" xmlns="http://www.w3.org/2000/svg">
<g clip-path="url(#clip0)">
<path d="M19.4427 4.3125C18.9396 4.3125 18.5312 4.72088 18.5312 5.22396C18.5312 5.72704 18.9396 6.13542 19.4427 6.13542C19.9458 6.13542 20.3542 5.72704 20.3542 5.22396C20.3542 4.72088 19.9458 4.3125 19.4427 4.3125Z" fill="#FC6464"/>
<path d="M12.1509 0.666504C10.6431 0.666504 9.4165 1.89306 9.4165 3.40088V44.5988C9.4165 46.1066 10.6431 47.3332 12.1509 47.3332H35.8488C37.3566 47.3332 38.5832 46.1066 38.5832 44.5988V3.40088C38.5832 1.89306 37.3566 0.666504 35.8488 0.666504H12.1509ZM36.7603 38.2186H26.4334L28.4489 34.4563C28.6006 34.1736 28.5924 33.8318 28.4272 33.557L26.5209 30.38L28.4272 27.2031C28.686 26.7716 28.5464 26.2115 28.1146 25.9527C27.6831 25.6935 27.123 25.8334 26.8642 26.2653L25.4582 28.6084L23.2397 24.9113L28.4272 16.2656C28.5945 15.9868 28.6006 15.6404 28.4436 15.3559L25.3624 9.78109H36.7603V38.2186ZM23.2799 9.78109L26.5939 15.7782L24.8707 18.65L23.239 16.2026C22.9598 15.7839 22.3937 15.6707 21.9747 15.9498C21.556 16.2289 21.4428 16.795 21.7223 17.2137L23.8329 20.3796L21.3954 24.4424C21.222 24.7311 21.222 25.0918 21.3954 25.3802C21.703 25.8932 25.8498 32.8043 26.5982 34.0515L24.3655 38.2186H11.2394V9.78109H23.2799ZM35.8488 45.5103H12.1509C11.6482 45.5103 11.2394 45.1015 11.2394 44.5988V40.0415H36.7603V44.5988C36.7603 45.1015 36.3515 45.5103 35.8488 45.5103ZM36.7603 3.40088V7.95817C35.4863 7.95817 12.2385 7.95817 11.2394 7.95817V3.40088C11.2394 2.89815 11.6482 2.48942 12.1509 2.48942H35.8488C36.3515 2.48942 36.7603 2.89815 36.7603 3.40088Z" fill="#FC6464"/>
<path d="M26.7342 41.8643H21.2655C20.762 41.8643 20.354 42.2723 20.354 42.7757C20.354 43.2792 20.762 43.6872 21.2655 43.6872H26.7342C27.2377 43.6872 27.6457 43.2792 27.6457 42.7757C27.6457 42.2723 27.2377 41.8643 26.7342 41.8643Z" fill="#FC6464"/>
<path d="M28.557 4.3125H23.0882C22.5848 4.3125 22.1768 4.72052 22.1768 5.22396C22.1768 5.7274 22.5848 6.13542 23.0882 6.13542H28.557C29.0604 6.13542 29.4684 5.7274 29.4684 5.22396C29.4684 4.72052 29.0604 4.3125 28.557 4.3125Z" fill="#FC6464"/>
</g>
<defs>
<clipPath id="clip0">
<rect width="46.6667" height="46.6667" fill="white" transform="translate(0.666504 0.666504)"/>
</clipPath>
</defs>
</svg>
