<svg width="54" height="38" viewBox="0 0 54 38" fill="none" xmlns="http://www.w3.org/2000/svg">
<path d="M40.7523 8.52832H5.24665C4.61958 8.52832 4.10938 9.03842 4.10938 9.66549V30.6547C4.10938 31.2817 4.61958 31.7918 5.24665 31.7918H40.7523C41.3792 31.7918 41.8894 31.2817 41.8894 30.6547V9.66559C41.8894 9.03852 41.3792 8.52832 40.7523 8.52832ZM40.9049 30.6547C40.9049 30.7388 40.8364 30.8073 40.7523 30.8073H5.24665C5.16247 30.8073 5.09394 30.7387 5.09394 30.6547V9.66559C5.09394 9.58141 5.16237 9.51298 5.24665 9.51298H40.7523C40.8363 9.51298 40.9049 9.58151 40.9049 9.66559V30.6547Z" fill="#FC6464"/>
<path d="M45.2616 32.5303H44.1053V9.1257C44.1053 7.57481 42.8436 6.31299 41.2926 6.31299H4.7075C3.15652 6.31299 1.8948 7.57471 1.8948 9.1257V32.5302H0.738424C0.330519 32.5302 0 32.8608 0 33.2686V35.2973C0 36.6151 1.07209 37.6871 2.38974 37.6871H43.6102C44.9279 37.6871 45.9999 36.615 45.9999 35.2973V33.2686C46 32.8609 45.6695 32.5303 45.2616 32.5303ZM3.37155 9.1257C3.37155 8.38914 3.97085 7.78984 4.70741 7.78984H41.2925C42.029 7.78984 42.6284 8.38904 42.6284 9.1257V32.5302H3.37155V9.1257ZM20.8339 34.0072H25.166V34.3933C25.166 34.5661 25.0254 34.7068 24.8525 34.7068H21.1473C20.9744 34.7068 20.8338 34.5662 20.8338 34.3933V34.0072H20.8339ZM44.5233 35.2974C44.5233 35.8008 44.1138 36.2103 43.6104 36.2103H2.38984C1.88643 36.2103 1.47695 35.8007 1.47695 35.2974V34.0072H2.63322H19.8494V34.3933C19.8494 35.1091 20.4317 35.6914 21.1475 35.6914H24.8527C25.5685 35.6914 26.1508 35.1091 26.1508 34.3933V34.0072H43.367H44.5233V35.2974Z" fill="#FC6464"/>
<path d="M45.4434 20.5806L52.6491 28.0003" stroke="#FC6464" stroke-width="2" stroke-linecap="round"/>
<path fill-rule="evenodd" clip-rule="evenodd" d="M48.9899 11.8663C48.9899 17.8679 44.067 22.7327 37.9946 22.7327C31.9222 22.7327 27 17.8679 27 11.8663C27 5.86481 31.9222 1 37.9946 1C44.067 1 48.9899 5.86481 48.9899 11.8663Z" fill="#F9FAFC" stroke="#FC6464" stroke-width="2" stroke-linecap="round"/>
</svg>
