<svg width="46" height="46" viewBox="0 0 46 46" fill="none" xmlns="http://www.w3.org/2000/svg">
<g clip-path="url(#clip0)">
<path d="M41.6219 30.2181L40.4224 23.8576C40.3953 22.3197 39.5855 20.9701 38.3748 20.1901L38.2909 19.324C38.24 18.7969 37.8021 18.3993 37.2725 18.3993H34.6669C34.1374 18.3993 33.6995 18.7968 33.6484 19.3239L33.5785 20.0461H23.6455L23.5756 19.3238C23.5244 18.7968 23.0866 18.3993 22.557 18.3993H19.9515C19.8636 18.3993 19.7787 18.4112 19.6973 18.4318V0.736393C19.6973 0.329708 19.3677 0 18.9609 0H14.1606C13.7538 0 13.4242 0.329708 13.4242 0.736393V1.81644H12.1258V0.736393C12.1258 0.329708 11.7962 0 11.3894 0H6.58942C6.18264 0 5.85303 0.329708 5.85303 0.736393V41.5276L4.36689 44.9718C4.26871 45.1994 4.29158 45.4611 4.42777 45.6682C4.56405 45.8753 4.79518 46 5.0431 46H20.5073C20.7552 46 20.9864 45.8753 21.1227 45.6682C21.2589 45.4612 21.2817 45.1994 21.1835 44.9718L19.6973 41.5275V34.3947C20.7397 34.2359 21.7622 33.6153 22.3381 32.3411L23.4217 29.9427C23.8741 30.2187 24.4053 30.3779 24.9729 30.3779C26.3664 30.3779 27.5398 29.419 27.8686 28.1265H29.3553C29.6841 29.419 30.8575 30.3779 32.2509 30.3779C32.8187 30.3779 33.3499 30.2186 33.8025 29.9425L34.8861 32.3411C35.5641 33.8419 36.8617 34.4383 38.0819 34.4383C38.4685 34.4383 38.8472 34.3784 39.1959 34.2686C40.6458 33.8118 42.0235 32.3493 41.6219 30.2181ZM35.1822 26.8128C34.9633 25.7001 34.125 24.8074 33.0423 24.5096C33.0058 24.3221 32.9871 24.1303 32.9871 23.9371C32.9871 22.2926 34.325 20.9548 35.9694 20.9548C37.6138 20.9548 38.9517 22.2926 38.9517 23.9371C38.9517 25.5816 37.6138 26.9195 35.9694 26.9195C35.7005 26.9195 35.4368 26.8827 35.1822 26.8128ZM34.6668 19.3813H37.2724C37.2939 19.3813 37.3114 19.3973 37.3136 19.4187L37.3408 19.6989C36.9085 19.5587 36.4479 19.482 35.9694 19.482C35.4912 19.482 35.0307 19.5586 34.5985 19.6988L34.6256 19.4188C34.6277 19.3974 34.6455 19.3813 34.6668 19.3813ZM22.0417 26.8128C21.7869 26.8827 21.5232 26.9195 21.2542 26.9195C19.6097 26.9195 18.2719 25.5816 18.2719 23.9371C18.2719 22.2926 19.6097 20.9548 21.2542 20.9548C22.8987 20.9548 24.2365 22.2926 24.2365 23.9371C24.2365 24.1304 24.2179 24.3222 24.1813 24.5097C23.0988 24.8076 22.2605 25.7001 22.0417 26.8128ZM18.2244 40.9434H14.8969V16.7898H18.2244V20.6749C17.3666 21.4721 16.8232 22.6022 16.801 23.8577L15.6022 30.2181C15.2004 32.349 16.5777 33.8115 18.0273 34.2686C18.0919 34.289 18.1579 34.307 18.2244 34.3239V40.9434ZM12.1258 40.9434V16.7898H13.4242V40.9434H12.1258ZM7.32582 16.7898H10.653V40.9434H7.32582V16.7898ZM19.9514 19.3813H22.5569C22.5784 19.3813 22.5961 19.3974 22.5982 19.4187L22.6253 19.6989C22.1931 19.5587 21.7325 19.4821 21.2541 19.4821C20.7758 19.4821 20.3152 19.5588 19.883 19.6989L19.9102 19.4186C19.9123 19.3973 19.93 19.3813 19.9514 19.3813ZM18.2244 1.47279V15.8079H14.8969V1.47279H18.2244ZM13.4242 3.28922V15.8079H12.1258V3.28922H13.4242ZM10.653 1.47279V15.8079H7.32582V1.47279H10.653ZM6.16281 44.5272L7.07377 42.4162H18.4766L19.3875 44.5272H6.16281ZM20.996 31.7348C20.4336 32.9788 19.284 33.1206 18.4702 32.8639C17.6568 32.6075 16.7966 31.8321 17.0494 30.491L17.7638 26.7009C18.5806 27.7302 19.8412 28.3923 21.2542 28.3923C21.5503 28.3923 21.8428 28.3626 22.1292 28.3055C22.1826 28.471 22.25 28.6301 22.3302 28.7817L20.996 31.7348ZM24.9729 29.3962C23.8669 29.3962 22.967 28.4963 22.967 27.3903C22.967 26.2842 23.8669 25.3843 24.9729 25.3843C26.079 25.3843 26.9789 26.2842 26.9789 27.3903C26.9789 28.4963 26.079 29.3962 24.9729 29.3962ZM29.3553 26.6538H27.8686C27.5968 25.5855 26.7477 24.7458 25.6747 24.4864C25.6971 24.3047 25.7093 24.1213 25.7093 23.9371C25.7093 23.046 25.4454 22.216 24.9931 21.519H32.2307C31.7784 22.216 31.5145 23.046 31.5145 23.9371C31.5145 24.1213 31.5266 24.3047 31.5491 24.4864C30.4759 24.7459 29.627 25.5856 29.3553 26.6538ZM30.245 27.3902C30.245 26.2841 31.1449 25.3842 32.2509 25.3842C33.357 25.3842 34.2569 26.2841 34.2569 27.3902C34.2569 28.4962 33.357 29.3961 32.2509 29.3961C31.1449 29.3961 30.245 28.4963 30.245 27.3902ZM38.7532 32.864C37.9395 33.1205 36.7901 32.9785 36.2282 31.7349L34.8939 28.7814C34.9739 28.63 35.0414 28.4709 35.0947 28.3056C35.381 28.3627 35.6734 28.3923 35.9694 28.3923C37.3825 28.3923 38.6431 27.7301 39.4599 26.7007L40.1747 30.491C40.4274 31.8323 39.5669 32.6077 38.7532 32.864Z" fill="#FC6464"/>
<path d="M24.9734 25.8896C24.1458 25.8896 23.4727 26.5629 23.4727 27.3904C23.4727 28.2179 24.1458 28.8912 24.9734 28.8912C25.801 28.8912 26.4742 28.2179 26.4742 27.3904C26.4742 26.5629 25.801 25.8896 24.9734 25.8896ZM24.9734 27.9094C24.6873 27.9094 24.4545 27.6766 24.4545 27.3905C24.4545 27.1044 24.6873 26.8716 24.9734 26.8716C25.2595 26.8716 25.4923 27.1044 25.4923 27.3905C25.4923 27.6766 25.2595 27.9094 24.9734 27.9094Z" fill="#FC6464"/>
<path d="M32.2508 25.8896C31.4232 25.8896 30.75 26.5629 30.75 27.3904C30.75 28.2179 31.4232 28.8912 32.2508 28.8912C33.0784 28.8912 33.7515 28.2179 33.7515 27.3904C33.7515 26.5629 33.0784 25.8896 32.2508 25.8896ZM32.2508 27.9094C31.9647 27.9094 31.7319 27.6766 31.7319 27.3905C31.7319 27.1044 31.9647 26.8716 32.2508 26.8716C32.5369 26.8716 32.7697 27.1044 32.7697 27.3905C32.7697 27.6766 32.5369 27.9094 32.2508 27.9094Z" fill="#FC6464"/>
<path d="M27.3741 23.4995H26.7898C26.5186 23.4995 26.2988 23.7193 26.2988 23.9904C26.2988 24.2615 26.5186 24.4814 26.7898 24.4814H27.3741C27.6453 24.4814 27.865 24.2615 27.865 23.9904C27.865 23.7193 27.6452 23.4995 27.3741 23.4995Z" fill="#FC6464"/>
<path d="M30.4327 23.4995H29.8484C29.5772 23.4995 29.3574 23.7193 29.3574 23.9904C29.3574 24.2615 29.5772 24.4814 29.8484 24.4814H30.4327C30.7038 24.4814 30.9236 24.2615 30.9236 23.9904C30.9236 23.7193 30.7038 23.4995 30.4327 23.4995Z" fill="#FC6464"/>
<path d="M35.9708 23.3966C36.1642 23.3966 36.3537 23.3181 36.4912 23.1816C36.6286 23.0441 36.7072 22.8546 36.7072 22.6612C36.7072 22.4668 36.6286 22.2773 36.4912 22.1398C36.3538 22.0034 36.1642 21.9248 35.9708 21.9248C35.7765 21.9248 35.5869 22.0034 35.4494 22.1398C35.3128 22.2773 35.2344 22.4668 35.2344 22.6612C35.2344 22.8546 35.3129 23.0441 35.4494 23.1816C35.5869 23.3181 35.7764 23.3966 35.9708 23.3966Z" fill="#FC6464"/>
<path d="M36.4912 25.7343C36.6286 25.5969 36.7072 25.4074 36.7072 25.2139C36.7072 25.0195 36.6286 24.83 36.4912 24.6926C36.3538 24.5561 36.1642 24.4766 35.9708 24.4766C35.7765 24.4766 35.5869 24.5561 35.4494 24.6926C35.3128 24.83 35.2344 25.0195 35.2344 25.2139C35.2344 25.4074 35.3129 25.5969 35.4494 25.7343C35.5868 25.8708 35.7764 25.9503 35.9708 25.9503C36.1642 25.9503 36.3537 25.8708 36.4912 25.7343Z" fill="#FC6464"/>
<path d="M35.2138 23.4162C35.0764 23.2797 34.8868 23.2012 34.6934 23.2012C34.4991 23.2012 34.3095 23.2797 34.1721 23.4162C34.0355 23.5537 33.957 23.7432 33.957 23.9376C33.957 24.131 34.0356 24.3205 34.1721 24.458C34.3094 24.5954 34.499 24.674 34.6934 24.674C34.8868 24.674 35.0763 24.5954 35.2138 24.458C35.3513 24.3205 35.4298 24.131 35.4298 23.9376C35.4298 23.7432 35.3513 23.5537 35.2138 23.4162Z" fill="#FC6464"/>
<path d="M36.7248 24.458C36.8622 24.5944 37.0517 24.673 37.2462 24.673C37.4396 24.673 37.6291 24.5944 37.7665 24.458C37.904 24.3205 37.9825 24.131 37.9825 23.9376C37.9825 23.7432 37.904 23.5537 37.7665 23.4162C37.6292 23.2797 37.4396 23.2002 37.2462 23.2002C37.0518 23.2002 36.8623 23.2797 36.7248 23.4162C36.5882 23.5537 36.5098 23.7432 36.5098 23.9376C36.5098 24.131 36.5883 24.3205 36.7248 24.458Z" fill="#FC6464"/>
<path d="M21.254 23.3966C21.4475 23.3966 21.6369 23.3181 21.7745 23.1816C21.9118 23.0441 21.9904 22.8546 21.9904 22.6612C21.9904 22.4668 21.9118 22.2773 21.7745 22.1398C21.637 22.0034 21.4475 21.9238 21.254 21.9238C21.0597 21.9238 20.8701 22.0034 20.7326 22.1398C20.5961 22.2773 20.5176 22.4668 20.5176 22.6612C20.5176 22.8546 20.5962 23.0441 20.7326 23.1816C20.8701 23.3181 21.0596 23.3966 21.254 23.3966Z" fill="#FC6464"/>
<path d="M21.254 24.4775C21.0597 24.4775 20.8701 24.5561 20.7326 24.6926C20.5961 24.83 20.5176 25.0195 20.5176 25.213C20.5176 25.4074 20.5962 25.5969 20.7326 25.7343C20.87 25.8718 21.0596 25.9503 21.254 25.9503C21.4475 25.9503 21.6369 25.8718 21.7745 25.7343C21.9118 25.5969 21.9904 25.4074 21.9904 25.213C21.9904 25.0195 21.9118 24.83 21.7745 24.6926C21.6369 24.5561 21.4474 24.4775 21.254 24.4775Z" fill="#FC6464"/>
<path d="M20.4991 23.4162C20.3616 23.2797 20.1721 23.2012 19.9776 23.2012C19.7842 23.2012 19.5937 23.2797 19.4572 23.4162C19.3207 23.5537 19.2422 23.7432 19.2422 23.9376C19.2422 24.131 19.3208 24.3205 19.4572 24.458C19.5946 24.5954 19.7842 24.674 19.9776 24.674C20.172 24.674 20.3615 24.5954 20.4991 24.458C20.6355 24.3205 20.714 24.131 20.714 23.9376C20.714 23.7432 20.6354 23.5537 20.4991 23.4162Z" fill="#FC6464"/>
<path d="M22.5313 23.2002C22.337 23.2002 22.1474 23.2797 22.0099 23.4162C21.8735 23.5537 21.7949 23.7432 21.7949 23.9366C21.7949 24.131 21.8736 24.3205 22.0099 24.458C22.1473 24.5954 22.3369 24.674 22.5313 24.674C22.7248 24.674 22.9142 24.5954 23.0518 24.458C23.1883 24.3205 23.2677 24.131 23.2677 23.9366C23.2677 23.7432 23.1882 23.5537 23.0518 23.4162C22.9142 23.2797 22.7247 23.2002 22.5313 23.2002Z" fill="#FC6464"/>
</g>
<defs>
<clipPath id="clip0">
<rect width="46" height="46" fill="white"/>
</clipPath>
</defs>
</svg>
