<svg width="47" height="48" viewBox="0 0 47 48" fill="none" xmlns="http://www.w3.org/2000/svg">
<g clip-path="url(#clip0)">
<path d="M27.639 3.77762H22.5554V0.666504H13.2221V3.77762H8.13856C6.653 3.77762 5.44434 4.98628 5.44434 6.47184V44.6382C5.44434 46.1237 6.653 47.3332 8.13856 47.3332H27.639C29.1246 47.3332 30.3332 46.1237 30.3332 44.6382V30.3745L28.8974 27.8887L30.3332 25.403V6.47184C30.3332 4.98628 29.1246 3.77762 27.639 3.77762ZM14.7777 2.22206H20.9999V3.77762H14.7777V2.22206ZM28.7777 24.9868L27.5511 27.1109H25.9886L24.111 25.2334V23.2221C24.111 22.7919 23.7633 22.4443 23.3332 22.4443C22.9031 22.4443 22.5554 22.7919 22.5554 23.2221V24.7776H20.9999C20.5698 24.7776 20.2221 25.1253 20.2221 25.5554C20.2221 25.9855 20.5698 26.3332 20.9999 26.3332H23.0112L24.6873 28.0093L22.893 30.9998H21.7777C21.3476 30.9998 20.9999 31.3475 20.9999 31.7776C20.9999 32.2077 21.3476 32.5554 21.7777 32.5554H22.5554V33.3332C22.5554 33.7633 22.9031 34.111 23.3332 34.111C23.7633 34.111 24.111 33.7633 24.111 33.3332V31.9931L26.1068 28.6665H27.5511L28.7777 30.7906V32.5554V37.2221V41.8887V44.6382C28.7777 45.2666 28.2674 45.7776 27.639 45.7776H8.13856C7.633 45.7776 7.20911 45.4447 7.06056 44.9874C7.46034 44.9555 7.77767 44.6304 7.77767 44.2221C7.77767 43.7927 7.42922 43.4443 6.99989 43.4443V40.3332C7.42922 40.3332 7.77767 39.9847 7.77767 39.5554C7.77767 39.1261 7.42922 38.7776 6.99989 38.7776V35.6665C7.42922 35.6665 7.77767 35.3181 7.77767 34.8887C7.77767 34.4594 7.42922 34.111 6.99989 34.111V30.9998C7.42922 30.9998 7.77767 30.6514 7.77767 30.2221C7.77767 29.7927 7.42922 29.4443 6.99989 29.4443V26.3332C7.42922 26.3332 7.77767 25.9847 7.77767 25.5554C7.77767 25.1261 7.42922 24.7776 6.99989 24.7776V21.6665C7.42922 21.6665 7.77767 21.3181 7.77767 20.8887C7.77767 20.4594 7.42922 20.1109 6.99989 20.1109V16.9998C7.42922 16.9998 7.77767 16.6514 7.77767 16.2221C7.77767 15.7927 7.42922 15.4443 6.99989 15.4443V6.47184C6.99989 5.84339 7.51011 5.33317 8.13856 5.33317H13.2221H22.5554H27.639C28.2674 5.33317 28.7777 5.84339 28.7777 6.47184V24.9868Z" fill="#FC6464"/>
<path d="M9.33344 19.3334C9.763 19.3334 10.1112 18.9852 10.1112 18.5556C10.1112 18.1261 9.763 17.7778 9.33344 17.7778C8.90389 17.7778 8.55566 18.1261 8.55566 18.5556C8.55566 18.9852 8.90389 19.3334 9.33344 19.3334Z" fill="#FC6464"/>
<path d="M11.6665 16.9999C12.096 16.9999 12.4442 16.6517 12.4442 16.2221C12.4442 15.7926 12.096 15.4443 11.6665 15.4443C11.2369 15.4443 10.8887 15.7926 10.8887 16.2221C10.8887 16.6517 11.2369 16.9999 11.6665 16.9999Z" fill="#FC6464"/>
<path d="M11.6665 21.6664C12.096 21.6664 12.4442 21.3182 12.4442 20.8886C12.4442 20.4591 12.096 20.1108 11.6665 20.1108C11.2369 20.1108 10.8887 20.4591 10.8887 20.8886C10.8887 21.3182 11.2369 21.6664 11.6665 21.6664Z" fill="#FC6464"/>
<path d="M13.9999 19.3334C14.4295 19.3334 14.7777 18.9852 14.7777 18.5556C14.7777 18.1261 14.4295 17.7778 13.9999 17.7778C13.5704 17.7778 13.2222 18.1261 13.2222 18.5556C13.2222 18.9852 13.5704 19.3334 13.9999 19.3334Z" fill="#FC6464"/>
<path d="M16.3334 21.6664C16.763 21.6664 17.1112 21.3182 17.1112 20.8886C17.1112 20.4591 16.763 20.1108 16.3334 20.1108C15.9039 20.1108 15.5557 20.4591 15.5557 20.8886C15.5557 21.3182 15.9039 21.6664 16.3334 21.6664Z" fill="#FC6464"/>
<path d="M9.33344 23.9999C9.763 23.9999 10.1112 23.6517 10.1112 23.2221C10.1112 22.7926 9.763 22.4443 9.33344 22.4443C8.90389 22.4443 8.55566 22.7926 8.55566 23.2221C8.55566 23.6517 8.90389 23.9999 9.33344 23.9999Z" fill="#FC6464"/>
<path d="M9.33344 28.6664C9.763 28.6664 10.1112 28.3182 10.1112 27.8886C10.1112 27.4591 9.763 27.1108 9.33344 27.1108C8.90389 27.1108 8.55566 27.4591 8.55566 27.8886C8.55566 28.3182 8.90389 28.6664 9.33344 28.6664Z" fill="#FC6464"/>
<path d="M11.6665 26.3334C12.096 26.3334 12.4442 25.9852 12.4442 25.5556C12.4442 25.1261 12.096 24.7778 11.6665 24.7778C11.2369 24.7778 10.8887 25.1261 10.8887 25.5556C10.8887 25.9852 11.2369 26.3334 11.6665 26.3334Z" fill="#FC6464"/>
<path d="M11.6665 30.9999C12.096 30.9999 12.4442 30.6517 12.4442 30.2221C12.4442 29.7926 12.096 29.4443 11.6665 29.4443C11.2369 29.4443 10.8887 29.7926 10.8887 30.2221C10.8887 30.6517 11.2369 30.9999 11.6665 30.9999Z" fill="#FC6464"/>
<path d="M13.9999 23.9999C14.4295 23.9999 14.7777 23.6517 14.7777 23.2221C14.7777 22.7926 14.4295 22.4443 13.9999 22.4443C13.5704 22.4443 13.2222 22.7926 13.2222 23.2221C13.2222 23.6517 13.5704 23.9999 13.9999 23.9999Z" fill="#FC6464"/>
<path d="M13.9999 28.6664C14.4295 28.6664 14.7777 28.3182 14.7777 27.8886C14.7777 27.4591 14.4295 27.1108 13.9999 27.1108C13.5704 27.1108 13.2222 27.4591 13.2222 27.8886C13.2222 28.3182 13.5704 28.6664 13.9999 28.6664Z" fill="#FC6464"/>
<path d="M18.6664 28.6664C19.096 28.6664 19.4442 28.3182 19.4442 27.8886C19.4442 27.4591 19.096 27.1108 18.6664 27.1108C18.2369 27.1108 17.8887 27.4591 17.8887 27.8886C17.8887 28.3182 18.2369 28.6664 18.6664 28.6664Z" fill="#FC6464"/>
<path d="M16.3334 26.3334C16.763 26.3334 17.1112 25.9852 17.1112 25.5556C17.1112 25.1261 16.763 24.7778 16.3334 24.7778C15.9039 24.7778 15.5557 25.1261 15.5557 25.5556C15.5557 25.9852 15.9039 26.3334 16.3334 26.3334Z" fill="#FC6464"/>
<path d="M32.6665 30.2221C33.096 30.2221 33.4442 29.8738 33.4442 29.4443C33.4442 29.0147 33.096 28.6665 32.6665 28.6665C32.2369 28.6665 31.8887 29.0147 31.8887 29.4443C31.8887 29.8738 32.2369 30.2221 32.6665 30.2221Z" fill="#FC6464"/>
<path d="M34.2221 35.6664C34.6517 35.6664 34.9999 35.3182 34.9999 34.8886C34.9999 34.4591 34.6517 34.1108 34.2221 34.1108C33.7926 34.1108 33.4443 34.4591 33.4443 34.8886C33.4443 35.3182 33.7926 35.6664 34.2221 35.6664Z" fill="#FC6464"/>
<path d="M34.2221 32.5556C34.6517 32.5556 34.9999 32.2073 34.9999 31.7778C34.9999 31.3482 34.6517 31 34.2221 31C33.7926 31 33.4443 31.3482 33.4443 31.7778C33.4443 32.2073 33.7926 32.5556 34.2221 32.5556Z" fill="#FC6464"/>
<path d="M35.7778 37.9999C36.2073 37.9999 36.5556 37.6517 36.5556 37.2221C36.5556 36.7926 36.2073 36.4443 35.7778 36.4443C35.3482 36.4443 35 36.7926 35 37.2221C35 37.6517 35.3482 37.9999 35.7778 37.9999Z" fill="#FC6464"/>
<path d="M36.5556 40.3334C36.9852 40.3334 37.3334 39.9852 37.3334 39.5556C37.3334 39.1261 36.9852 38.7778 36.5556 38.7778C36.1261 38.7778 35.7778 39.1261 35.7778 39.5556C35.7778 39.9852 36.1261 40.3334 36.5556 40.3334Z" fill="#FC6464"/>
<path d="M38.8886 43.4442C39.3182 43.4442 39.6664 43.096 39.6664 42.6664C39.6664 42.2369 39.3182 41.8887 38.8886 41.8887C38.4591 41.8887 38.1108 42.2369 38.1108 42.6664C38.1108 43.096 38.4591 43.4442 38.8886 43.4442Z" fill="#FC6464"/>
<path d="M37.3334 35.6664C37.763 35.6664 38.1112 35.3182 38.1112 34.8886C38.1112 34.4591 37.763 34.1108 37.3334 34.1108C36.9039 34.1108 36.5557 34.4591 36.5557 34.8886C36.5557 35.3182 36.9039 35.6664 37.3334 35.6664Z" fill="#FC6464"/>
<path d="M37.3334 32.5556C37.763 32.5556 38.1112 32.2073 38.1112 31.7778C38.1112 31.3482 37.763 31 37.3334 31C36.9039 31 36.5557 31.3482 36.5557 31.7778C36.5557 32.2073 36.9039 32.5556 37.3334 32.5556Z" fill="#FC6464"/>
<path d="M38.8886 38.7777C39.3182 38.7777 39.6664 38.4295 39.6664 37.9999C39.6664 37.5704 39.3182 37.2222 38.8886 37.2222C38.4591 37.2222 38.1108 37.5704 38.1108 37.9999C38.1108 38.4295 38.4591 38.7777 38.8886 38.7777Z" fill="#FC6464"/>
<path d="M36.5556 43.4442C36.9852 43.4442 37.3334 43.096 37.3334 42.6664C37.3334 42.2369 36.9852 41.8887 36.5556 41.8887C36.1261 41.8887 35.7778 42.2369 35.7778 42.6664C35.7778 43.096 36.1261 43.4442 36.5556 43.4442Z" fill="#FC6464"/>
<path d="M40.4443 41.1107C40.8738 41.1107 41.2221 40.7625 41.2221 40.333C41.2221 39.9034 40.8738 39.5552 40.4443 39.5552C40.0147 39.5552 39.6665 39.9034 39.6665 40.333C39.6665 40.7625 40.0147 41.1107 40.4443 41.1107Z" fill="#FC6464"/>
<path d="M39.6665 46.5556C40.096 46.5556 40.4442 46.2073 40.4442 45.7778C40.4442 45.3482 40.096 45 39.6665 45C39.2369 45 38.8887 45.3482 38.8887 45.7778C38.8887 46.2073 39.2369 46.5556 39.6665 46.5556Z" fill="#FC6464"/>
<path d="M16.3334 30.9999C16.763 30.9999 17.1112 30.6517 17.1112 30.2221C17.1112 29.7926 16.763 29.4443 16.3334 29.4443C15.9039 29.4443 15.5557 29.7926 15.5557 30.2221C15.5557 30.6517 15.9039 30.9999 16.3334 30.9999Z" fill="#FC6464"/>
<path d="M9.33344 33.3334C9.763 33.3334 10.1112 32.9852 10.1112 32.5556C10.1112 32.1261 9.763 31.7778 9.33344 31.7778C8.90389 31.7778 8.55566 32.1261 8.55566 32.5556C8.55566 32.9852 8.90389 33.3334 9.33344 33.3334Z" fill="#FC6464"/>
<path d="M9.33344 37.9999C9.763 37.9999 10.1112 37.6517 10.1112 37.2221C10.1112 36.7926 9.763 36.4443 9.33344 36.4443C8.90389 36.4443 8.55566 36.7926 8.55566 37.2221C8.55566 37.6517 8.90389 37.9999 9.33344 37.9999Z" fill="#FC6464"/>
<path d="M11.6665 35.6664C12.096 35.6664 12.4442 35.3182 12.4442 34.8886C12.4442 34.4591 12.096 34.1108 11.6665 34.1108C11.2369 34.1108 10.8887 34.4591 10.8887 34.8886C10.8887 35.3182 11.2369 35.6664 11.6665 35.6664Z" fill="#FC6464"/>
<path d="M11.6665 40.3334C12.096 40.3334 12.4442 39.9852 12.4442 39.5556C12.4442 39.1261 12.096 38.7778 11.6665 38.7778C11.2369 38.7778 10.8887 39.1261 10.8887 39.5556C10.8887 39.9852 11.2369 40.3334 11.6665 40.3334Z" fill="#FC6464"/>
<path d="M13.9999 33.3334C14.4295 33.3334 14.7777 32.9852 14.7777 32.5556C14.7777 32.1261 14.4295 31.7778 13.9999 31.7778C13.5704 31.7778 13.2222 32.1261 13.2222 32.5556C13.2222 32.9852 13.5704 33.3334 13.9999 33.3334Z" fill="#FC6464"/>
<path d="M18.6664 33.3334C19.096 33.3334 19.4442 32.9852 19.4442 32.5556C19.4442 32.1261 19.096 31.7778 18.6664 31.7778C18.2369 31.7778 17.8887 32.1261 17.8887 32.5556C17.8887 32.9852 18.2369 33.3334 18.6664 33.3334Z" fill="#FC6464"/>
<path d="M13.9999 37.9999C14.4295 37.9999 14.7777 37.6517 14.7777 37.2221C14.7777 36.7926 14.4295 36.4443 13.9999 36.4443C13.5704 36.4443 13.2222 36.7926 13.2222 37.2221C13.2222 37.6517 13.5704 37.9999 13.9999 37.9999Z" fill="#FC6464"/>
<path d="M18.6664 37.9999C19.096 37.9999 19.4442 37.6517 19.4442 37.2221C19.4442 36.7926 19.096 36.4443 18.6664 36.4443C18.2369 36.4443 17.8887 36.7926 17.8887 37.2221C17.8887 37.6517 18.2369 37.9999 18.6664 37.9999Z" fill="#FC6464"/>
<path d="M16.3334 35.6664C16.763 35.6664 17.1112 35.3182 17.1112 34.8886C17.1112 34.4591 16.763 34.1108 16.3334 34.1108C15.9039 34.1108 15.5557 34.4591 15.5557 34.8886C15.5557 35.3182 15.9039 35.6664 16.3334 35.6664Z" fill="#FC6464"/>
<path d="M20.9999 35.6664C21.4295 35.6664 21.7777 35.3182 21.7777 34.8886C21.7777 34.4591 21.4295 34.1108 20.9999 34.1108C20.5704 34.1108 20.2222 34.4591 20.2222 34.8886C20.2222 35.3182 20.5704 35.6664 20.9999 35.6664Z" fill="#FC6464"/>
<path d="M16.3334 40.3334C16.763 40.3334 17.1112 39.9852 17.1112 39.5556C17.1112 39.1261 16.763 38.7778 16.3334 38.7778C15.9039 38.7778 15.5557 39.1261 15.5557 39.5556C15.5557 39.9852 15.9039 40.3334 16.3334 40.3334Z" fill="#FC6464"/>
<path d="M20.9999 40.3334C21.4295 40.3334 21.7777 39.9852 21.7777 39.5556C21.7777 39.1261 21.4295 38.7778 20.9999 38.7778C20.5704 38.7778 20.2222 39.1261 20.2222 39.5556C20.2222 39.9852 20.5704 40.3334 20.9999 40.3334Z" fill="#FC6464"/>
<path d="M27.9999 33.3334C28.4295 33.3334 28.7777 32.9852 28.7777 32.5556C28.7777 32.1261 28.4295 31.7778 27.9999 31.7778C27.5704 31.7778 27.2222 32.1261 27.2222 32.5556C27.2222 32.9852 27.5704 33.3334 27.9999 33.3334Z" fill="#FC6464"/>
<path d="M23.3334 37.9999C23.763 37.9999 24.1112 37.6517 24.1112 37.2221C24.1112 36.7926 23.763 36.4443 23.3334 36.4443C22.9039 36.4443 22.5557 36.7926 22.5557 37.2221C22.5557 37.6517 22.9039 37.9999 23.3334 37.9999Z" fill="#FC6464"/>
<path d="M27.9999 37.9999C28.4295 37.9999 28.7777 37.6517 28.7777 37.2221C28.7777 36.7926 28.4295 36.4443 27.9999 36.4443C27.5704 36.4443 27.2222 36.7926 27.2222 37.2221C27.2222 37.6517 27.5704 37.9999 27.9999 37.9999Z" fill="#FC6464"/>
<path d="M25.6664 35.6664C26.096 35.6664 26.4442 35.3182 26.4442 34.8886C26.4442 34.4591 26.096 34.1108 25.6664 34.1108C25.2369 34.1108 24.8887 34.4591 24.8887 34.8886C24.8887 35.3182 25.2369 35.6664 25.6664 35.6664Z" fill="#FC6464"/>
<path d="M25.6664 40.3334C26.096 40.3334 26.4442 39.9852 26.4442 39.5556C26.4442 39.1261 26.096 38.7778 25.6664 38.7778C25.2369 38.7778 24.8887 39.1261 24.8887 39.5556C24.8887 39.9852 25.2369 40.3334 25.6664 40.3334Z" fill="#FC6464"/>
<path d="M9.33344 42.6664C9.763 42.6664 10.1112 42.3182 10.1112 41.8886C10.1112 41.4591 9.763 41.1108 9.33344 41.1108C8.90389 41.1108 8.55566 41.4591 8.55566 41.8886C8.55566 42.3182 8.90389 42.6664 9.33344 42.6664Z" fill="#FC6464"/>
<path d="M11.6665 44.9999C12.096 44.9999 12.4442 44.6517 12.4442 44.2221C12.4442 43.7926 12.096 43.4443 11.6665 43.4443C11.2369 43.4443 10.8887 43.7926 10.8887 44.2221C10.8887 44.6517 11.2369 44.9999 11.6665 44.9999Z" fill="#FC6464"/>
<path d="M13.9999 42.6664C14.4295 42.6664 14.7777 42.3182 14.7777 41.8886C14.7777 41.4591 14.4295 41.1108 13.9999 41.1108C13.5704 41.1108 13.2222 41.4591 13.2222 41.8886C13.2222 42.3182 13.5704 42.6664 13.9999 42.6664Z" fill="#FC6464"/>
<path d="M18.6664 42.6664C19.096 42.6664 19.4442 42.3182 19.4442 41.8886C19.4442 41.4591 19.096 41.1108 18.6664 41.1108C18.2369 41.1108 17.8887 41.4591 17.8887 41.8886C17.8887 42.3182 18.2369 42.6664 18.6664 42.6664Z" fill="#FC6464"/>
<path d="M16.3334 44.9999C16.763 44.9999 17.1112 44.6517 17.1112 44.2221C17.1112 43.7926 16.763 43.4443 16.3334 43.4443C15.9039 43.4443 15.5557 43.7926 15.5557 44.2221C15.5557 44.6517 15.9039 44.9999 16.3334 44.9999Z" fill="#FC6464"/>
<path d="M20.9999 44.9999C21.4295 44.9999 21.7777 44.6517 21.7777 44.2221C21.7777 43.7926 21.4295 43.4443 20.9999 43.4443C20.5704 43.4443 20.2222 43.7926 20.2222 44.2221C20.2222 44.6517 20.5704 44.9999 20.9999 44.9999Z" fill="#FC6464"/>
<path d="M23.3334 42.6664C23.763 42.6664 24.1112 42.3182 24.1112 41.8886C24.1112 41.4591 23.763 41.1108 23.3334 41.1108C22.9039 41.1108 22.5557 41.4591 22.5557 41.8886C22.5557 42.3182 22.9039 42.6664 23.3334 42.6664Z" fill="#FC6464"/>
<path d="M27.9999 42.6664C28.4295 42.6664 28.7777 42.3182 28.7777 41.8886C28.7777 41.4591 28.4295 41.1108 27.9999 41.1108C27.5704 41.1108 27.2222 41.4591 27.2222 41.8886C27.2222 42.3182 27.5704 42.6664 27.9999 42.6664Z" fill="#FC6464"/>
<path d="M25.6664 44.9999C26.096 44.9999 26.4442 44.6517 26.4442 44.2221C26.4442 43.7926 26.096 43.4443 25.6664 43.4443C25.2369 43.4443 24.8887 43.7926 24.8887 44.2221C24.8887 44.6517 25.2369 44.9999 25.6664 44.9999Z" fill="#FC6464"/>
</g>
<defs>
<clipPath id="clip0">
<rect width="46.6667" height="46.6667" fill="white" transform="translate(0 0.666504)"/>
</clipPath>
</defs>
</svg>
