<svg width="48" height="48" viewBox="0 0 48 48" fill="none" xmlns="http://www.w3.org/2000/svg">
<g clip-path="url(#clip0)">
<path d="M21.9136 32.7212H23.2836V47.333H21.9136V32.7212Z" fill="#FC6464"/>
<path d="M26.2969 16.0088H27.7581V17.3788H26.2969V16.0088Z" fill="#FC6464"/>
<path d="M23.3745 16.0088H24.8357V17.3788H23.3745V16.0088Z" fill="#FC6464"/>
<path d="M20.4521 16.0088H21.9133V17.3788H20.4521V16.0088Z" fill="#FC6464"/>
<path d="M29.95 7.97241H29.1282V2.76713C29.1282 1.58366 28.2111 0.666504 27.0276 0.666504H21.1829C19.9994 0.666504 18.9911 1.58366 18.9911 2.76713V7.97241H18.2605C17.4801 7.97241 16.7993 8.56166 16.7993 9.34245V22.7765L20.4523 26.4294V31.2602H24.8358V47.3332H26.2059V31.2602H27.667V26.4294L31.32 22.7765V9.34245C31.32 8.56166 30.7304 7.97241 29.95 7.97241ZM21.1829 2.03654H27.0276C27.4555 2.03654 27.8038 2.38475 27.8038 2.8127C27.8038 3.24066 27.4555 3.58887 27.0276 3.58887H21.1829C20.7549 3.58887 20.4067 3.24066 20.4067 2.8127C20.4067 2.38475 20.7549 2.03654 21.1829 2.03654ZM20.3611 4.76735C20.6349 4.86099 20.9091 4.9589 21.1829 4.9589H27.0276C27.3014 4.9589 27.5755 4.86099 27.7582 4.76735V7.97241H20.3611V4.76735ZM29.95 22.2093L26.297 25.8623V29.8901H21.8223V25.8623L18.1694 22.2093V9.34245C18.1694 9.31717 18.2352 9.34245 18.2605 9.34245H29.95V22.2093Z" fill="#FC6464"/>
</g>
<defs>
<clipPath id="clip0">
<rect width="46.6667" height="46.6667" fill="white" transform="translate(0.666504 0.666504)"/>
</clipPath>
</defs>
</svg>
