<svg width="29" height="49" viewBox="0 0 29 49" fill="none" xmlns="http://www.w3.org/2000/svg">
<g clip-path="url(#clip0)">
<path d="M19.3752 2.51685H9.62451V3.36902H19.3752V2.51685Z" fill="white"/>
<path d="M3.69855 49.0002H25.3014C27.3609 49.0002 29 47.2959 29 45.2507C29 40.3933 29 8.6072 29 3.74981C29 1.70459 27.3188 0.000244141 25.3014 0.000244141H3.69855C1.68116 0.000244141 0 1.70459 0 3.74981C0 8.86285 0 40.3933 0 45.2507C0 47.2959 1.68116 49.0002 3.69855 49.0002ZM27.3188 45.2507C27.3188 46.4011 26.3942 47.2959 25.3014 47.2959H3.69855C2.56377 47.2959 1.68116 46.3585 1.68116 45.2507C1.68116 39.2429 1.68116 14.2742 1.68116 8.26633H27.3188C27.3188 14.2742 27.3188 39.2429 27.3188 45.2507ZM1.68116 3.74981C1.68116 2.64198 2.6058 1.70459 3.69855 1.70459H25.3014C26.3942 1.70459 27.3188 2.64198 27.3188 3.74981C27.3188 5.36894 27.3188 5.70981 27.3188 8.26633H1.68116C1.68116 5.70981 1.68116 5.41155 1.68116 3.74981Z" fill="white"/>
</g>
<defs>
<clipPath id="clip0">
<rect width="29" height="49" fill="white" transform="translate(0 0.000244141)"/>
</clipPath>
</defs>
</svg>
