<svg width="61" height="41" viewBox="0 0 61 41" fill="none" xmlns="http://www.w3.org/2000/svg">
<g clip-path="url(#clip0)">
<path d="M38.9976 33.7963H38.3717L37.8421 34.1831L37.0237 34.8116H23.9763L23.1579 34.1831L22.6283 33.7963H22.0024H1.92581H0V35.7302V37.4708C0 39.4048 1.54065 40.9519 3.46646 40.9519H57.5335C59.4594 40.9519 61 39.4048 61 37.4708V35.7302V33.7963H59.0742H38.9976ZM59.0742 37.5191C59.0742 38.3894 58.4002 39.0663 57.5335 39.0663H3.46646C2.59984 39.0663 1.92581 38.3894 1.92581 37.5191V35.7786H22.0024L23.3504 36.7456H37.6496L38.9976 35.7786H59.0742V37.5191Z" fill="white"/>
<path d="M8.37747 36.8906H6.69238V37.4225H8.37747V36.8906Z" fill="white"/>
<path d="M12.3252 36.8906H10.6401V37.4225H12.3252V36.8906Z" fill="white"/>
<path d="M6.69222 6.28562H54.356V30.992H56.2818V3.23963C56.2818 1.45072 54.8374 0.000244141 53.0561 0.000244141H7.94399C6.16262 0.000244141 4.71826 1.45072 4.71826 3.23963V31.0403H6.64407V6.28562H6.69222ZM6.69222 3.23963C6.69222 2.51439 7.26996 1.93421 7.99214 1.93421H53.0561C53.7782 1.93421 54.356 2.51439 54.356 3.23963V5.31864H6.69222V3.23963Z" fill="white"/>
<path d="M31.583 2.70776H29.4165V4.64173H31.583V2.70776Z" fill="white"/>
</g>
<defs>
<clipPath id="clip0">
<rect width="61" height="41" fill="white" transform="translate(0 0.000244141)"/>
</clipPath>
</defs>
</svg>
