<svg width="28" height="28" viewBox="0 0 28 28" fill="none" xmlns="http://www.w3.org/2000/svg">
<path d="M14 28C12.712 28 11.4707 27.832 10.276 27.496C9.08133 27.1599 7.966 26.6887 6.93 26.082C5.894 25.4753 4.95133 24.7473 4.102 23.898C3.25267 23.0488 2.52467 22.106 1.918 21.07C1.31133 20.0339 0.84 18.9187 0.504 17.724C0.168 16.5293 0 15.288 0 14C0 12.712 0.168 11.4707 0.504 10.276C0.84 9.08133 1.31133 7.966 1.918 6.93C2.52467 5.894 3.25267 4.95133 4.102 4.102C4.95133 3.25267 5.894 2.52467 6.93 1.918C7.966 1.31133 9.08133 0.84 10.276 0.504C11.4707 0.168 12.712 0 14 0C15.9227 0 17.738 0.368667 19.446 1.106C21.154 1.84333 22.638 2.842 23.898 4.102C25.158 5.362 26.1567 6.846 26.894 8.554C27.6313 10.262 28 12.0773 28 14C28 15.288 27.832 16.5293 27.496 17.724C27.1599 18.9185 26.6887 20.0339 26.082 21.07C25.4753 22.106 24.7473 23.0487 23.898 23.898C23.0488 24.7473 22.106 25.4755 21.07 26.082C20.0339 26.6887 18.9187 27.16 17.7239 27.496C16.5293 27.832 15.288 28 14 28ZM20.748 8.232H7.476C7.34533 8.232 7.23333 8.274 7.14 8.358C7.04667 8.442 7 8.55867 7 8.708V10.192C7 10.2667 7.028 10.304 7.084 10.304L14.056 14.28L14.1121 14.308C14.1493 14.308 14.1775 14.2987 14.1961 14.28L20.9441 10.304C20.9813 10.2853 21.0095 10.276 21.0281 10.276C21.0467 10.276 21.0748 10.2667 21.1121 10.248C21.1868 10.248 21.2241 10.2107 21.2241 10.136V8.708C21.2241 8.55867 21.1774 8.442 21.084 8.358C20.9906 8.274 20.8787 8.232 20.748 8.232ZM11.228 14.196C11.2467 14.1773 11.256 14.1493 11.256 14.112C11.256 14.0559 11.2373 14.028 11.2 14.028L7.196 11.732C7.14 11.7133 7.09333 11.7133 7.056 11.732C7.01867 11.732 7 11.76 7 11.816V17.836C7 17.8921 7.028 17.9293 7.084 17.948H7.14C7.17733 17.948 7.196 17.9386 7.196 17.92L11.228 14.196ZM16.1 14.644C16.0813 14.5879 16.0345 14.5787 15.9599 14.616L14.4199 15.512C14.2332 15.624 14.0373 15.624 13.8319 15.512L12.4879 14.7561C12.4319 14.7188 12.3852 14.7188 12.3479 14.7561L7.22386 19.5161C7.2052 19.5347 7.19586 19.5721 7.19586 19.628C7.19586 19.6467 7.21453 19.6747 7.25186 19.712C7.36386 19.7493 7.43853 19.7681 7.47586 19.7681H20.6079C20.6452 19.7681 20.6827 19.7495 20.7199 19.712C20.7199 19.6373 20.7106 19.5908 20.6919 19.572L16.1 14.644ZM21.14 11.62H21.0281L17.2201 13.888C17.1829 13.888 17.1641 13.916 17.1641 13.972C17.1455 13.9907 17.1548 14.0187 17.192 14.0559L21 18.172C21.0373 18.2093 21.0653 18.2281 21.084 18.2281H21.14C21.1961 18.172 21.2241 18.1348 21.2241 18.1161V11.732C21.224 11.6947 21.196 11.6573 21.14 11.62Z" fill="#FC6464"/>
</svg>
