<svg width="36" height="33" viewBox="0 0 36 33" fill="none" xmlns="http://www.w3.org/2000/svg">
    <path d="M0 10.8H34.2C34.6774 10.8 35.1352 10.9896 35.4728 11.3272C35.8104 11.6648 36 12.1226 36 12.6V30.6C36 31.0774 35.8104 31.5352 35.4728 31.8728C35.1352 32.2104 34.6774 32.4 34.2 32.4H1.8C1.32261 32.4 0.864773 32.2104 0.527208 31.8728C0.189642 31.5352 0 31.0774 0 30.6V10.8ZM1.8 0H28.8V7.2H0V1.8C0 1.32261 0.189642 0.864773 0.527208 0.527208C0.864773 0.189642 1.32261 0 1.8 0ZM23.4 19.8V23.4H28.8V19.8H23.4Z" fill="black"/>
</svg>
