<svg width="40" height="40" viewBox="0 0 40 40" fill="none" xmlns="http://www.w3.org/2000/svg">
    <circle cx="20" cy="20" r="19.5" stroke="#111111"/>
    <path d="M20.8293 14.454L20.6313 23.454H19.2633L19.0653 14.454H20.8293ZM20.0193 27.108C19.7073 27.108 19.4433 27 19.2273 26.784C19.0113 26.568 18.9033 26.304 18.9033 25.992C18.9033 25.68 19.0113 25.416 19.2273 25.2C19.4433 24.984 19.7073 24.876 20.0193 24.876C20.3193 24.876 20.5713 24.984 20.7753 25.2C20.9913 25.416 21.0993 25.68 21.0993 25.992C21.0993 26.304 20.9913 26.568 20.7753 26.784C20.5713 27 20.3193 27.108 20.0193 27.108Z" fill="#111111"/>
</svg>
