<svg width="16" height="14" viewBox="0 0 16 14" fill="none" xmlns="http://www.w3.org/2000/svg">
<path d="M6.56445 7.46667H9.36445V8.40001H6.56445V7.46667Z" fill="#FC6464"/>
<path d="M12.9229 8.40001H10.2978V8.86668C10.2978 9.12456 10.089 9.33334 9.83111 9.33334H6.09778C5.8399 9.33334 5.63111 9.12456 5.63111 8.86668V8.40001H3.00599C2.4026 8.40001 1.86898 8.01537 1.67793 7.44298L0 2.40833V12.6C0 13.372 0.628056 14 1.4 14H14.5289C15.3008 14 15.9289 13.372 15.9289 12.6V2.40869L14.2508 7.44298C14.0599 8.01537 13.5263 8.40001 12.9229 8.40001Z" fill="#FC6464"/>
<path d="M9.83091 0H6.09758C5.32563 0 4.69758 0.628056 4.69758 1.4V1.86667H0.802734L2.56282 7.14766C2.62662 7.33858 2.80478 7.46667 3.00579 7.46667H5.63091V7C5.63091 6.74212 5.8397 6.53333 6.09758 6.53333H9.83091C10.0888 6.53333 10.2976 6.74212 10.2976 7V7.46667H12.9227C13.1237 7.46667 13.3019 7.33858 13.3657 7.14766L15.1259 1.86667H11.2309V1.4C11.2309 0.628056 10.6029 0 9.83091 0ZM5.63091 1.86667V1.4C5.63091 1.14248 5.84006 0.933333 6.09758 0.933333H9.83091C10.0884 0.933333 10.2976 1.14248 10.2976 1.4V1.86667H5.63091Z" fill="#FC6464"/>
</svg>
