<svg width="14" height="14" viewBox="0 0 14 14" fill="none" xmlns="http://www.w3.org/2000/svg">
<path d="M4.66704 7C4.66704 5.71138 5.71138 4.66648 7 4.66648C8.28862 4.66648 9.33352 5.71138 9.33352 7C9.33352 8.28862 8.28862 9.33352 7 9.33352C5.71138 9.33352 4.66704 8.28862 4.66704 7ZM3.40558 7C3.40558 8.9852 5.0148 10.5944 7 10.5944C8.9852 10.5944 10.5944 8.9852 10.5944 7C10.5944 5.0148 8.9852 3.40558 7 3.40558C5.0148 3.40558 3.40558 5.0148 3.40558 7ZM9.89671 3.26306C9.89664 3.4292 9.94584 3.59163 10.0381 3.7298C10.1303 3.86797 10.2615 3.97569 10.4149 4.03933C10.5684 4.10297 10.7373 4.11967 10.9003 4.08732C11.0632 4.05498 11.2129 3.97504 11.3304 3.85761C11.448 3.74018 11.528 3.59054 11.5605 3.42761C11.593 3.26467 11.5764 3.09577 11.5129 2.94226C11.4494 2.78874 11.3418 2.65751 11.2037 2.56515C11.0656 2.4728 10.9032 2.42347 10.737 2.4234H10.7367C10.514 2.4235 10.3005 2.51199 10.143 2.66943C9.98548 2.82686 9.8969 3.04037 9.89671 3.26306ZM4.172 12.6978C3.48953 12.6668 3.11858 12.5531 2.87207 12.457C2.54526 12.3298 2.31207 12.1783 2.0669 11.9334C1.82174 11.6886 1.66998 11.4556 1.5433 11.1288C1.44721 10.8824 1.33353 10.5114 1.3025 9.8289C1.26857 9.09104 1.26179 8.86939 1.26179 7.00006C1.26179 5.13072 1.26913 4.90969 1.3025 4.17122C1.33358 3.48874 1.4481 3.11842 1.5433 2.87129C1.67054 2.54447 1.82207 2.31129 2.0669 2.06612C2.31174 1.82095 2.5447 1.66919 2.87207 1.54252C3.11847 1.44642 3.48953 1.33274 4.172 1.30172C4.90986 1.26778 5.1315 1.26101 7 1.26101C8.86849 1.26101 9.09037 1.26834 9.82884 1.30172C10.5113 1.3328 10.8816 1.44732 11.1288 1.54252C11.4556 1.66919 11.6888 1.82129 11.9339 2.06612C12.1791 2.31095 12.3303 2.54447 12.4575 2.87129C12.5536 3.11769 12.6673 3.48874 12.6983 4.17122C12.7323 4.90969 12.739 5.13072 12.739 7.00006C12.739 8.86939 12.7323 9.09042 12.6983 9.8289C12.6673 10.5114 12.553 10.8823 12.4575 11.1288C12.3303 11.4556 12.1788 11.6888 11.9339 11.9334C11.6891 12.178 11.4556 12.3298 11.1288 12.457C10.8824 12.5531 10.5113 12.6668 9.82884 12.6978C9.09098 12.7318 8.86934 12.7385 7 12.7385C5.13066 12.7385 4.90963 12.7318 4.172 12.6978ZM4.11404 0.042392C3.36885 0.076328 2.85964 0.194488 2.41494 0.367528C1.9544 0.546224 1.56453 0.78596 1.17494 1.17494C0.785344 1.56391 0.546224 1.9544 0.367528 2.41494C0.194488 2.85992 0.076328 3.36885 0.042392 4.11404C0.007896 4.86041 0 5.09902 0 7C0 8.90098 0.007896 9.13959 0.042392 9.88596C0.076328 10.6312 0.194488 11.1401 0.367528 11.5851C0.546224 12.0453 0.7854 12.4363 1.17494 12.8251C1.56447 13.2139 1.9544 13.4533 2.41494 13.6325C2.86048 13.8055 3.36885 13.9237 4.11404 13.9576C4.8608 13.9915 5.09902 14 7 14C8.90098 14 9.13959 13.9921 9.88596 13.9576C10.6312 13.9237 11.1401 13.8055 11.5851 13.6325C12.0453 13.4533 12.4355 13.214 12.8251 12.8251C13.2147 12.4361 13.4533 12.0453 13.6325 11.5851C13.8055 11.1401 13.9242 10.6312 13.9576 9.88596C13.9915 9.13903 13.9994 8.90098 13.9994 7C13.9994 5.09902 13.9915 4.86041 13.9576 4.11404C13.9237 3.36879 13.8055 2.85964 13.6325 2.41494C13.4533 1.95468 13.214 1.56453 12.8251 1.17494C12.4361 0.785344 12.0453 0.546224 11.5856 0.367528C11.1401 0.194488 10.6312 0.075768 9.88652 0.042392C9.14015 0.008456 8.90154 0 7.00056 0C5.09958 0 4.8608 0.007896 4.11404 0.042392Z" fill="white"/>
<path d="M4.66704 7C4.66704 5.71138 5.71138 4.66648 7 4.66648C8.28862 4.66648 9.33352 5.71138 9.33352 7C9.33352 8.28862 8.28862 9.33352 7 9.33352C5.71138 9.33352 4.66704 8.28862 4.66704 7ZM3.40558 7C3.40558 8.9852 5.0148 10.5944 7 10.5944C8.9852 10.5944 10.5944 8.9852 10.5944 7C10.5944 5.0148 8.9852 3.40558 7 3.40558C5.0148 3.40558 3.40558 5.0148 3.40558 7ZM9.89671 3.26306C9.89664 3.4292 9.94584 3.59163 10.0381 3.7298C10.1303 3.86797 10.2615 3.97569 10.4149 4.03933C10.5684 4.10297 10.7373 4.11967 10.9003 4.08732C11.0632 4.05498 11.2129 3.97504 11.3304 3.85761C11.448 3.74018 11.528 3.59054 11.5605 3.42761C11.593 3.26467 11.5764 3.09577 11.5129 2.94226C11.4494 2.78874 11.3418 2.65751 11.2037 2.56515C11.0656 2.4728 10.9032 2.42347 10.737 2.4234H10.7367C10.514 2.4235 10.3005 2.51199 10.143 2.66943C9.98548 2.82686 9.8969 3.04037 9.89671 3.26306ZM4.172 12.6978C3.48953 12.6668 3.11858 12.5531 2.87207 12.457C2.54526 12.3298 2.31207 12.1783 2.0669 11.9334C1.82174 11.6886 1.66998 11.4556 1.5433 11.1288C1.44721 10.8824 1.33353 10.5114 1.3025 9.8289C1.26857 9.09104 1.26179 8.86939 1.26179 7.00006C1.26179 5.13072 1.26913 4.90969 1.3025 4.17122C1.33358 3.48874 1.4481 3.11842 1.5433 2.87129C1.67054 2.54447 1.82207 2.31129 2.0669 2.06612C2.31174 1.82095 2.5447 1.66919 2.87207 1.54252C3.11847 1.44642 3.48953 1.33274 4.172 1.30172C4.90986 1.26778 5.1315 1.26101 7 1.26101C8.86849 1.26101 9.09037 1.26834 9.82884 1.30172C10.5113 1.3328 10.8816 1.44732 11.1288 1.54252C11.4556 1.66919 11.6888 1.82129 11.9339 2.06612C12.1791 2.31095 12.3303 2.54447 12.4575 2.87129C12.5536 3.11769 12.6673 3.48874 12.6983 4.17122C12.7323 4.90969 12.739 5.13072 12.739 7.00006C12.739 8.86939 12.7323 9.09042 12.6983 9.8289C12.6673 10.5114 12.553 10.8823 12.4575 11.1288C12.3303 11.4556 12.1788 11.6888 11.9339 11.9334C11.6891 12.178 11.4556 12.3298 11.1288 12.457C10.8824 12.5531 10.5113 12.6668 9.82884 12.6978C9.09098 12.7318 8.86934 12.7385 7 12.7385C5.13066 12.7385 4.90963 12.7318 4.172 12.6978ZM4.11404 0.042392C3.36885 0.076328 2.85964 0.194488 2.41494 0.367528C1.9544 0.546224 1.56453 0.78596 1.17494 1.17494C0.785344 1.56391 0.546224 1.9544 0.367528 2.41494C0.194488 2.85992 0.076328 3.36885 0.042392 4.11404C0.007896 4.86041 0 5.09902 0 7C0 8.90098 0.007896 9.13959 0.042392 9.88596C0.076328 10.6312 0.194488 11.1401 0.367528 11.5851C0.546224 12.0453 0.7854 12.4363 1.17494 12.8251C1.56447 13.2139 1.9544 13.4533 2.41494 13.6325C2.86048 13.8055 3.36885 13.9237 4.11404 13.9576C4.8608 13.9915 5.09902 14 7 14C8.90098 14 9.13959 13.9921 9.88596 13.9576C10.6312 13.9237 11.1401 13.8055 11.5851 13.6325C12.0453 13.4533 12.4355 13.214 12.8251 12.8251C13.2147 12.4361 13.4533 12.0453 13.6325 11.5851C13.8055 11.1401 13.9242 10.6312 13.9576 9.88596C13.9915 9.13903 13.9994 8.90098 13.9994 7C13.9994 5.09902 13.9915 4.86041 13.9576 4.11404C13.9237 3.36879 13.8055 2.85964 13.6325 2.41494C13.4533 1.95468 13.214 1.56453 12.8251 1.17494C12.4361 0.785344 12.0453 0.546224 11.5856 0.367528C11.1401 0.194488 10.6312 0.075768 9.88652 0.042392C9.14015 0.008456 8.90154 0 7.00056 0C5.09958 0 4.8608 0.007896 4.11404 0.042392Z" fill="url(#paint0_linear)"/>
<defs>
<linearGradient id="paint0_linear" x1="1.83575e-07" y1="14" x2="12.656" y2="1.68051" gradientUnits="userSpaceOnUse">
<stop stop-color="#FEDA75"/>
<stop offset="0.270718" stop-color="#FA7E1E"/>
<stop offset="0.530387" stop-color="#D62976"/>
<stop offset="0.779006" stop-color="#962FBF"/>
<stop offset="1" stop-color="#4F5BD5"/>
</linearGradient>
</defs>
</svg>
