<svg width="15" height="12" viewBox="0 0 15 12" fill="none" xmlns="http://www.w3.org/2000/svg">
<path d="M14.3008 0H0.495141C0.35922 0 0.242716 0.0436892 0.14563 0.131067C0.0485437 0.218444 0 0.339801 0 0.495139V2.03881C0 2.11648 0.0291267 2.15531 0.0873784 2.15531L7.33972 6.29118L7.39811 6.32031C7.4368 6.32031 7.46607 6.3106 7.48549 6.29118L14.5048 2.15531C14.5435 2.1359 14.5728 2.12619 14.5922 2.12619C14.6115 2.12619 14.6407 2.11648 14.6796 2.09706C14.7572 2.09706 14.7961 2.05823 14.7961 1.98056V0.495139C14.7961 0.339801 14.7475 0.218444 14.6503 0.131067C14.5531 0.0436892 14.4367 0 14.3008 0ZM4.39801 6.20381C4.41742 6.18439 4.42713 6.15522 4.42713 6.11643C4.42713 6.05804 4.40771 6.02905 4.36888 6.02905L0.203881 3.64068C0.14563 3.62127 0.097086 3.62127 0.0582515 3.64068C0.019417 3.64068 0 3.66981 0 3.72806V9.99012C0 10.0485 0.0291267 10.0872 0.0873784 10.1066H0.14563C0.184464 10.1066 0.203881 10.0969 0.203881 10.0775L4.39801 6.20381ZM9.46591 6.66982C9.44649 6.61143 9.39781 6.60186 9.32014 6.6407L7.71821 7.57272C7.52404 7.68923 7.3203 7.68923 7.10657 7.57272L5.70853 6.78647C5.65028 6.74763 5.60173 6.74763 5.5629 6.78647L0.232865 11.7379C0.213448 11.7571 0.20374 11.7961 0.20374 11.8542C0.20374 11.8736 0.223157 11.9028 0.261991 11.9416C0.378494 11.9804 0.456163 12 0.494998 12H14.1551C14.1939 12 14.2329 11.9806 14.2716 11.9416C14.2716 11.8639 14.2619 11.8155 14.2425 11.796L9.46591 6.66982ZM14.7086 3.52423H14.5922L10.6311 5.88342C10.5924 5.88342 10.5728 5.91255 10.5728 5.9708C10.5534 5.99022 10.5631 6.01934 10.6018 6.05804L14.5629 10.3397C14.6018 10.3785 14.6309 10.3981 14.6503 10.3981H14.7086C14.767 10.3397 14.7961 10.301 14.7961 10.2816V3.64078C14.7959 3.6019 14.7668 3.56306 14.7086 3.52423Z" fill="#FC6464"/>
</svg>
