<svg width="15" height="14" viewBox="0 0 15 14" fill="none" xmlns="http://www.w3.org/2000/svg">
<path fill="#fc6464" d="M13.5737 12.7143L12.5772 13.711C12.3993 13.8887 11.8783 13.9996 11.8616 13.9996C8.70906 14.027 5.67366 12.7888 3.44343 10.5583C1.20709 8.32069 -0.0326403 5.27446 0.000653686 2.11132C0.000653686 2.10988 0.114746 1.60385 0.292502 1.42779L1.28896 0.431175C1.6536 0.0648375 2.35406 -0.100709 2.84475 0.0634523L3.05436 0.133375C3.54362 0.297383 4.05729 0.838347 4.19246 1.33673L4.69372 3.17647C4.8289 3.67629 4.64658 4.38737 4.28203 4.75201L3.61667 5.41749C4.26993 7.8359 6.16748 9.73381 8.5863 10.3887L9.25141 9.72304C9.61774 9.3567 10.3286 9.17453 10.8273 9.3095L12.6668 9.81256C13.1653 9.94953 13.7061 10.46 13.8701 10.9491L13.94 11.1617C14.1025 11.651 13.9383 12.3513 13.5737 12.7143Z"/>
</svg>
