<svg width="15" height="16" viewBox="0 0 15 16" fill="none" xmlns="http://www.w3.org/2000/svg">
<path d="M14.1672 2.66663C14.1672 3.86328 13.1973 4.83337 12.0006 4.83337C10.804 4.83337 9.83398 3.86328 9.83398 2.66663C9.83398 1.47009 10.804 0.5 12.0006 0.5C13.1973 0.5 14.1672 1.47009 14.1672 2.66663Z" fill="white"/>
<path d="M12.0006 5.33337C10.5299 5.33337 9.33398 4.13733 9.33398 2.66663C9.33398 1.19604 10.5299 0 12.0006 0C13.4713 0 14.6672 1.19604 14.6672 2.66663C14.6672 4.13733 13.4713 5.33337 12.0006 5.33337ZM12.0006 1C11.0813 1 10.334 1.74805 10.334 2.66663C10.334 3.58533 11.0813 4.33337 12.0006 4.33337C12.9199 4.33337 13.6672 3.58533 13.6672 2.66663C13.6672 1.74805 12.9199 1 12.0006 1Z" fill="white"/>
<path d="M14.1672 13.3334C14.1672 14.5299 13.1973 15.5 12.0006 15.5C10.804 15.5 9.83398 14.5299 9.83398 13.3334C9.83398 12.1367 10.804 11.1666 12.0006 11.1666C13.1973 11.1666 14.1672 12.1367 14.1672 13.3334Z" fill="white"/>
<path d="M12.0006 16C10.5299 16 9.33398 14.804 9.33398 13.3334C9.33398 11.8627 10.5299 10.6666 12.0006 10.6666C13.4713 10.6666 14.6672 11.8627 14.6672 13.3334C14.6672 14.804 13.4713 16 12.0006 16ZM12.0006 11.6666C11.0813 11.6666 10.334 12.4147 10.334 13.3334C10.334 14.252 11.0813 15 12.0006 15C12.9199 15 13.6672 14.252 13.6672 13.3334C13.6672 12.4147 12.9199 11.6666 12.0006 11.6666Z" fill="white"/>
<path d="M4.83337 8C4.83337 9.19666 3.86328 10.1666 2.66663 10.1666C1.47009 10.1666 0.5 9.19666 0.5 8C0.5 6.80334 1.47009 5.83337 2.66663 5.83337C3.86328 5.83337 4.83337 6.80334 4.83337 8Z" fill="white"/>
<path d="M2.66663 10.6666C1.19604 10.6666 0 9.4707 0 8C0 6.5293 1.19604 5.33337 2.66663 5.33337C4.13733 5.33337 5.33337 6.5293 5.33337 8C5.33337 9.4707 4.13733 10.6666 2.66663 10.6666ZM2.66663 6.33337C1.74731 6.33337 1 7.0813 1 8C1 8.9187 1.74731 9.66663 2.66663 9.66663C3.58606 9.66663 4.33337 8.9187 4.33337 8C4.33337 7.0813 3.58606 6.33337 2.66663 6.33337Z" fill="white"/>
<path d="M4.24155 7.68006C4.00949 7.68006 3.78415 7.55933 3.66147 7.34339C3.47947 7.02406 3.59153 6.61671 3.91086 6.43397L10.0968 2.90736C10.4161 2.72401 10.8235 2.83607 11.0062 3.15662C11.1882 3.47596 11.0761 3.88331 10.7568 4.06605L4.57077 7.59266C4.46677 7.65198 4.35349 7.68006 4.24155 7.68006Z" fill="white"/>
<path d="M10.4262 13.1801C10.3141 13.1801 10.2008 13.152 10.0968 13.0926L3.91077 9.56604C3.59143 9.38403 3.4795 8.97668 3.6615 8.65661C3.84278 8.33667 4.25074 8.224 4.5708 8.40735L10.7568 11.934C11.0762 12.116 11.1881 12.5233 11.0061 12.8434C10.8828 13.0593 10.6575 13.1801 10.4262 13.1801Z" fill="white"/>
</svg>
