<svg width="18" height="11" viewBox="0 0 18 11" fill="none" xmlns="http://www.w3.org/2000/svg">
<path d="M6.55227 0.781059C7.59366 1.82245 7.59366 3.51089 6.55227 4.55228C5.51087 5.59367 3.82244 5.59367 2.78104 4.55228C1.73965 3.51089 1.73965 1.82245 2.78104 0.781059C3.82244 -0.260353 5.51087 -0.260353 6.55227 0.781059Z" fill="white"/>
<path d="M8.75715 7.25524C6.32616 5.61267 3.00715 5.61267 0.576165 7.25524C0.215482 7.49874 0 7.91019 0 8.35616V10.6667H9.33332V8.35616C9.33332 7.91019 9.11782 7.49874 8.75715 7.25524Z" fill="white"/>
<rect x="13.5547" y="1.77777" width="1.77778" height="7.11111" fill="white"/>
<rect x="18" y="4.44446" width="1.77778" height="7.11111" transform="rotate(90 18 4.44446)" fill="white"/>
</svg>
