<svg width="15" height="14" viewBox="0 0 15 14" fill="none" xmlns="http://www.w3.org/2000/svg">
<path d="M6.65122 14V10.9966C5.89907 11.0253 5.15413 11.1313 4.44531 11.3071C4.55946 11.583 4.68439 11.8471 4.81966 12.0966C5.35958 13.0915 6.03057 13.7792 6.65122 14Z" fill="#FC6464"/>
<path d="M9.31007 12.0966C9.44535 11.8473 9.57028 11.583 9.68442 11.3071C8.9756 11.1313 8.23067 11.0253 7.47852 10.9966V14C8.09917 13.7792 8.77015 13.0915 9.31007 12.0966Z" fill="#FC6464"/>
<path d="M6.64939 10.1682V7.41382H3.63086C3.66859 8.48912 3.85204 9.55818 4.15924 10.526C4.95893 10.3209 5.80098 10.1983 6.64939 10.1682Z" fill="#FC6464"/>
<path d="M6.64939 6.58615V3.83181C5.80098 3.80163 4.95893 3.67908 4.15924 3.47406C3.85204 4.4419 3.66859 5.51085 3.63086 6.58615H6.64939Z" fill="#FC6464"/>
<path d="M10.4847 2.45942C10.9882 2.28966 11.4655 2.08302 11.9044 1.84276C11.1337 1.11896 10.2015 0.565135 9.16797 0.242737C9.47754 0.592513 9.7704 1.01677 10.0373 1.50861C10.2012 1.81053 10.3504 2.12851 10.4847 2.45942Z" fill="#FC6464"/>
<path d="M4.81966 1.90345C4.68439 2.15288 4.55946 2.41707 4.44531 2.6929C5.15413 2.8687 5.89907 2.97477 6.65122 3.00344V0C6.03057 0.22086 5.35958 0.908556 4.81966 1.90345Z" fill="#FC6464"/>
<path d="M7.47852 7.41382V10.1682C8.32703 10.1984 9.16898 10.3209 9.96866 10.526C10.2759 9.55818 10.4593 8.48912 10.4972 7.41382H7.47852Z" fill="#FC6464"/>
<path d="M7.47852 3.83181V6.58615H10.497C10.4593 5.51085 10.2759 4.4419 9.96866 3.47406C9.16898 3.67908 8.32703 3.80163 7.47852 3.83181Z" fill="#FC6464"/>
<path d="M3.36313 10.7627C3.03222 9.72083 2.83993 8.58053 2.80295 7.41382H0C0.0906508 8.97784 0.691469 10.407 1.63818 11.5373C2.16549 11.2313 2.7468 10.9715 3.36313 10.7627Z" fill="#FC6464"/>
<path d="M10.4847 11.5405C10.3503 11.8714 10.2011 12.1894 10.0373 12.4914C9.7704 12.9833 9.47754 13.4074 9.16797 13.7572C10.2015 13.4348 11.1337 12.881 11.9045 12.1572C11.4655 11.9169 10.9882 11.7103 10.4847 11.5405Z" fill="#FC6464"/>
<path d="M3.64235 11.5405C3.13887 11.7103 2.66157 11.9169 2.22266 12.1572C2.99335 12.8811 3.92562 13.4348 4.9591 13.7573C4.64964 13.4074 4.35678 12.9833 4.08978 12.4914C3.92584 12.1894 3.77665 11.8714 3.64235 11.5405Z" fill="#FC6464"/>
<path d="M10.7656 3.23723C11.0965 4.27913 11.2888 5.41943 11.3258 6.58614H14.1288C14.0381 5.02212 13.4373 3.59305 12.4906 2.46277C11.9633 2.76878 11.382 3.02845 10.7656 3.23723Z" fill="#FC6464"/>
<path d="M10.7656 10.7627C11.382 10.9715 11.9633 11.2312 12.4906 11.5372C13.4373 10.4069 14.0381 8.97773 14.1288 7.41382H11.3258C11.2888 8.58053 11.0965 9.72083 10.7656 10.7627Z" fill="#FC6464"/>
<path d="M7.47852 0V3.00344C8.23067 2.97477 8.9756 2.8687 9.68442 2.69301C9.57028 2.41707 9.44545 2.15288 9.31007 1.90345C8.77015 0.908556 8.09917 0.22086 7.47852 0Z" fill="#FC6464"/>
<path d="M3.36313 3.23723C2.7468 3.02845 2.16549 2.76878 1.63818 2.46277C0.691361 3.59305 0.0906508 5.02223 0 6.58614H2.80295C2.83993 5.41943 3.03222 4.27913 3.36313 3.23723Z" fill="#FC6464"/>
<path d="M3.64246 2.45942C3.77687 2.12851 3.92605 1.81053 4.08989 1.50861C4.35678 1.01666 4.64964 0.592513 4.95921 0.242737C3.92573 0.565135 2.99346 1.11896 2.22266 1.84276C2.66168 2.08302 3.13897 2.28966 3.64246 2.45942Z" fill="#FC6464"/>
</svg>
