<svg width="30" height="51" viewBox="0 0 30 51" fill="none" xmlns="http://www.w3.org/2000/svg">
<path d="M14.9586 20.1082C11.157 20.1082 8.09912 18.5676 8.09912 16.7028C8.09912 14.8379 11.157 13.2974 14.9586 13.2974C18.1818 13.2974 20.8264 14.3514 21.5702 15.892" stroke="#FC6464" stroke-width="2.5" stroke-miterlimit="10"/>
<path d="M14.9584 20.1082C18.76 20.1082 21.8179 21.6487 21.8179 23.5136C21.8179 25.3784 18.76 26.919 14.9584 26.919C11.5699 26.919 8.76003 25.7027 8.26416 24.0811" stroke="#FC6464" stroke-width="2.5" stroke-miterlimit="10"/>
<path d="M15.124 9.81079V30.4054" stroke="#FC6464" stroke-width="2.5" stroke-miterlimit="10"/>
<path d="M25.8678 2.02703C27.0248 2.02703 27.9339 2.91892 27.9339 4.05405V46.9459C27.9339 48.0811 27.0248 48.973 25.8678 48.973H4.13223C2.97521 48.973 2.06612 48.0811 2.06612 46.9459V4.05405C2.06612 2.91892 2.97521 2.02703 4.13223 2.02703H25.8678ZM25.8678 0H4.13223C1.90083 0 0 1.86486 0 4.05405V46.9459C0 49.2162 1.90083 51 4.13223 51H25.8678C28.0992 51 30 49.1351 30 46.9459V4.05405C30 1.86486 28.0992 0 25.8678 0Z" fill="#FC6464"/>
<path d="M1.65283 39.1621H28.347" stroke="#FC6464" stroke-width="2.5" stroke-miterlimit="10" stroke-linejoin="round"/>
<path d="M13.1406 44.4324H16.8596" stroke="#FC6464" stroke-width="2.5" stroke-miterlimit="10" stroke-linecap="round" stroke-linejoin="round"/>
</svg>
