<svg width="52" height="38" viewBox="0 0 52 38" fill="none" xmlns="http://www.w3.org/2000/svg">
<path d="M38.5889 9.5415L25.5889 28.4585" stroke="#FC6464" stroke-width="2.5" stroke-miterlimit="10" stroke-linecap="round"/>
<path d="M26.329 16.0961C28.1012 16.0961 29.5378 14.6474 29.5378 12.8603C29.5378 11.0732 28.1012 9.62451 26.329 9.62451C24.5568 9.62451 23.1201 11.0732 23.1201 12.8603C23.1201 14.6474 24.5568 16.0961 26.329 16.0961Z" stroke="#FC6464" stroke-width="2.5" stroke-miterlimit="10" stroke-linecap="round"/>
<path d="M37.8475 28.3757C39.6197 28.3757 41.0564 26.9269 41.0564 25.1399C41.0564 23.3528 39.6197 21.9041 37.8475 21.9041C36.0753 21.9041 34.6387 23.3528 34.6387 25.1399C34.6387 26.9269 36.0753 28.3757 37.8475 28.3757Z" stroke="#FC6464" stroke-width="2.5" stroke-miterlimit="10" stroke-linecap="round"/>
<path d="M47.8861 2.07424C49.038 2.07424 49.943 2.9869 49.943 4.14847V33.8515C49.943 35.0131 49.038 35.9258 47.8861 35.9258H4.11392C2.96203 35.9258 2.05696 35.0131 2.05696 33.8515V4.14847C2.05696 2.9869 2.96203 2.07424 4.11392 2.07424H47.8861ZM47.8861 0H4.11392C1.8924 0 0 1.9083 0 4.14847V33.8515C0 36.1747 1.8924 38 4.11392 38H47.8861C50.1899 38 52 36.0917 52 33.8515V4.14847C52 1.9083 50.1899 0 47.8861 0Z" fill="#FC6464"/>
<path d="M13.4111 0.912598V6.38858" stroke="#FC6464" stroke-width="2.5" stroke-miterlimit="10" stroke-linejoin="round"/>
<path d="M13.4111 9.37549V13.7729" stroke="#FC6464" stroke-width="2.5" stroke-miterlimit="10" stroke-linejoin="round"/>
<path d="M13.4111 16.8428V21.2402" stroke="#FC6464" stroke-width="2.5" stroke-miterlimit="10" stroke-linejoin="round"/>
<path d="M13.4111 24.2271V28.6244" stroke="#FC6464" stroke-width="2.5" stroke-miterlimit="10" stroke-linejoin="round"/>
<path d="M13.4111 31.6113V37.0873" stroke="#FC6464" stroke-width="2.5" stroke-miterlimit="10" stroke-linejoin="round"/>
</svg>
