<svg width="46" height="46" viewBox="0 0 46 46" fill="none" xmlns="http://www.w3.org/2000/svg">
<path d="M5.36641 7.66689C6.63657 7.66689 7.66641 6.63706 7.66641 5.36689C7.66641 4.09673 6.63657 3.06689 5.36641 3.06689C4.09624 3.06689 3.06641 4.09673 3.06641 5.36689C3.06641 6.63706 4.09624 7.66689 5.36641 7.66689ZM5.36641 4.60023C5.7898 4.60023 6.13307 4.94351 6.13307 5.36689C6.13307 5.79028 5.7898 6.13356 5.36641 6.13356C4.94302 6.13356 4.59974 5.79028 4.59974 5.36689C4.59974 4.94351 4.94302 4.60023 5.36641 4.60023Z" fill="#FC6464"/>
<path d="M5.36641 38.3335C4.09624 38.3335 3.06641 39.3633 3.06641 40.6335C3.06641 41.9037 4.09624 42.9335 5.36641 42.9335C6.63657 42.9335 7.66641 41.9037 7.66641 40.6335C7.66641 39.3633 6.63657 38.3335 5.36641 38.3335ZM5.36641 41.4002C4.94302 41.4002 4.59974 41.0569 4.59974 40.6335C4.59974 40.2101 4.94302 39.8668 5.36641 39.8668C5.7898 39.8668 6.13307 40.2101 6.13307 40.6335C6.13307 41.0569 5.7898 41.4002 5.36641 41.4002Z" fill="#FC6464"/>
<path d="M46 23C45.9858 14.4154 39.2411 7.35109 30.6667 6.93893V2.3C30.6667 1.02983 29.6368 0 28.3667 0H2.3C1.02983 0 0 1.02983 0 2.3V43.7C0 44.9702 1.02983 46 2.3 46H28.3667C29.6368 46 30.6667 44.9702 30.6667 43.7V39.0611C39.2411 38.6489 45.9858 31.5846 46 23ZM1.53333 43.7V2.3C1.53333 1.87661 1.87661 1.53333 2.3 1.53333H23V44.4667H2.3C1.87661 44.4667 1.53333 44.1234 1.53333 43.7ZM28.3667 44.4667H24.5333V1.53333H28.3667C28.7901 1.53333 29.1333 1.87661 29.1333 2.3V6.93818C28.6197 6.96289 28.1087 7.01156 27.6 7.08418V5.36667H26.0667V40.6333H27.6V38.9158C28.111 38.9884 28.6223 39.0371 29.1333 39.0618V43.7C29.1333 44.1234 28.7901 44.4667 28.3667 44.4667ZM29.9 37.5667C29.1292 37.5607 28.3603 37.494 27.6 37.3675V26.0468C28.2596 26.5541 29.0678 26.8303 29.9 26.8333C32.0169 26.8333 33.7333 25.1169 33.7333 23C33.7333 20.8831 32.0169 19.1667 29.9 19.1667C29.0678 19.1697 28.2596 19.4459 27.6 19.9532V8.63249C33.0101 7.76437 38.4494 10.0071 41.6755 14.4356C44.9013 18.8646 45.3677 24.7299 42.8817 29.6129C40.396 34.4955 35.3793 37.5693 29.9 37.5667ZM27.6 23C27.6 21.7298 28.6298 20.7 29.9 20.7C31.1702 20.7 32.2 21.7298 32.2 23C32.2 24.2702 31.1702 25.3 29.9 25.3C28.6298 25.3 27.6 24.2702 27.6 23Z" fill="#FC6464"/>
<path d="M29.9004 9.9668V11.5001C36.2486 11.5072 41.3933 16.6519 41.4004 23.0001H42.9337C42.9259 15.8055 37.095 9.97466 29.9004 9.9668Z" fill="#FC6464"/>
</svg>
