<svg width="46" height="46" viewBox="0 0 46 46" fill="none" xmlns="http://www.w3.org/2000/svg">
<path d="M19.9336 3.06689H21.4669V4.60023H19.9336V3.06689Z" fill="#FC6464"/>
<path d="M24.5332 3.06689H26.0665V4.60023H24.5332V3.06689Z" fill="#FC6464"/>
<path d="M22.2324 6.1333H23.7658V7.66663H22.2324V6.1333Z" fill="#FC6464"/>
<path d="M31.4332 9.2H29.1332V0.766667C29.1332 0.343278 28.7899 0 28.3665 0H17.6332C17.2098 0 16.8665 0.343278 16.8665 0.766667V9.2H14.5665C13.7198 9.2 13.0332 9.88656 13.0332 10.7333V42.1667C13.0358 44.2829 14.7503 45.9974 16.8665 46H29.1332C31.2494 45.9974 32.9639 44.2829 32.9665 42.1667V10.7333C32.9665 9.88656 32.28 9.2 31.4332 9.2ZM31.4332 36.8H14.5665V33.7333H31.4332V36.8ZM14.5665 32.2V21.4667H31.4332V32.2H14.5665ZM14.5665 18.4H31.4332V19.9333H14.5665V18.4ZM18.3999 1.53333H27.5999V9.2H18.3999V1.53333ZM31.4332 10.7333V16.8667H14.5665V10.7333H31.4332ZM29.1332 44.4667H16.8665C15.5964 44.4667 14.5665 43.4368 14.5665 42.1667V38.3333H31.4332V42.1667C31.4332 43.4368 30.4034 44.4667 29.1332 44.4667Z" fill="#FC6464"/>
</svg>
