<svg width="46" height="45" viewBox="0 0 46 45" fill="none" xmlns="http://www.w3.org/2000/svg">
<g clip-path="url(#clip0)">
<path d="M41.2444 39.468C40.7524 40.4588 39.6865 42.1102 37.3086 42.1102H11.9717" stroke="#FC6464" stroke-width="2.5" stroke-miterlimit="10"/>
<path d="M12.2998 18.4129C14.6777 17.6698 23.7793 14.2845 23.7793 3.71567C23.7793 3.71567 24.0253 1.07347 26.8952 1.07347C26.8952 1.07347 30.093 0.412921 30.503 4.45879C30.503 4.45879 31.323 11.5597 29.0271 16.1836H42.8025C42.8025 16.1836 44.1964 15.9359 44.8524 17.7524" stroke="#FC6464" stroke-width="2.5" stroke-miterlimit="10"/>
<path d="M0.655971 17.6699H7.54367V44.0094H0" stroke="#FC6464" stroke-width="2.5" stroke-miterlimit="10"/>
<path d="M40.1787 22.9541H41.4907" stroke="#FC6464" stroke-width="2.5" stroke-miterlimit="10" stroke-linecap="round"/>
<path d="M45.016 19.9817C44.77 21.3028 43.7861 22.9542 41.3262 22.8716" stroke="#FC6464" stroke-width="2.5" stroke-miterlimit="10"/>
<path d="M39.4404 29.3945H40.6704" stroke="#FC6464" stroke-width="2.5" stroke-miterlimit="10" stroke-linecap="round"/>
<path d="M44.1967 26.5046C43.9507 27.8257 42.9667 29.4771 40.5068 29.3946" stroke="#FC6464" stroke-width="2.5" stroke-miterlimit="10"/>
<path d="M37.8818 35.9175H39.1118" stroke="#FC6464" stroke-width="2.5" stroke-miterlimit="10" stroke-linecap="round"/>
<path d="M42.6381 33.0276C42.3921 34.3487 41.4081 36.0001 38.9482 35.9175" stroke="#FC6464" stroke-width="2.5" stroke-miterlimit="10"/>
</g>
<defs>
<clipPath id="clip0">
<rect width="46" height="45" fill="white"/>
</clipPath>
</defs>
</svg>
