<svg width="37" height="51" viewBox="0 0 37 51" fill="none" xmlns="http://www.w3.org/2000/svg">
<g clip-path="url(#clip0)">
<path d="M3.83059 51.0002H33.1694C35.3024 51.0002 37 49.2263 37 47.0976V3.90285C37 1.77416 35.2588 0.000244141 33.1694 0.000244141H3.83059C1.74118 0.000244141 0 1.77416 0 3.90285V47.0976C0 49.2263 1.74118 51.0002 3.83059 51.0002ZM1.74118 3.90285C1.74118 2.74981 2.69882 1.77416 3.83059 1.77416H33.1694C34.3012 1.77416 35.2588 2.74981 35.2588 3.90285V47.0976C35.2588 48.295 34.3012 49.2263 33.1694 49.2263H3.83059C2.65529 49.2263 1.74118 48.2507 1.74118 47.0976V3.90285Z" fill="white"/>
<path d="M33.5177 8.16028H3.48242V42.8403H33.5177V8.16028ZM32.6471 41.9533H4.35301V9.04723H32.6471V41.9533Z" fill="white"/>
<path d="M19.7625 4.03589H17.2378V5.8098H19.7625V4.03589Z" fill="white"/>
</g>
<defs>
<clipPath id="clip0">
<rect width="37" height="51" fill="white" transform="translate(0 0.000244141)"/>
</clipPath>
</defs>
</svg>
