<svg width="16" height="22" viewBox="0 0 16 22" fill="none" xmlns="http://www.w3.org/2000/svg">
<path d="M7.99979 0C3.60645 0 0.0322266 3.57423 0.0322266 7.96752C0.0322266 13.4197 7.16242 21.4239 7.46599 21.762C7.75113 22.0796 8.24897 22.079 8.53359 21.762C8.83717 21.4239 15.9674 13.4197 15.9674 7.96752C15.9673 3.57423 12.3931 0 7.99979 0ZM7.99979 11.9762C5.78939 11.9762 3.99115 10.1779 3.99115 7.96752C3.99115 5.75712 5.78944 3.95888 7.99979 3.95888C10.2101 3.95888 12.0084 5.75717 12.0084 7.96757C12.0084 10.178 10.2101 11.9762 7.99979 11.9762Z" fill="#FC6464"/>
</svg>
