<svg width="200" height="58" viewBox="0 0 200 58" fill="none" xmlns="http://www.w3.org/2000/svg">
<path d="M200 51.6274C200 52.3833 199.851 53.1317 199.562 53.8299C199.272 54.5281 198.848 55.1625 198.313 55.6966C197.778 56.2308 197.143 56.6544 196.444 56.9431C195.746 57.2318 194.997 57.38 194.241 57.3792H5.76678C4.23919 57.3808 2.77351 56.7757 1.69207 55.6971C0.610631 54.6185 0.00199081 53.1546 0 51.6274V5.75924C0.0019899 4.23137 0.61039 2.76673 1.69161 1.68692C2.77283 0.607108 4.23849 0.00039659 5.76678 0H194.239C194.996 -2.57233e-08 195.745 0.148978 196.444 0.438425C197.142 0.727873 197.777 1.15212 198.312 1.68693C198.847 2.22175 199.271 2.85665 199.561 3.55539C199.85 4.25412 199.999 5.003 199.999 5.75924L200 51.6274Z" fill="white"/>
<path d="M200 51.6274C200 52.3833 199.851 53.1317 199.562 53.8299C199.272 54.5281 198.848 55.1625 198.313 55.6966C197.778 56.2308 197.143 56.6544 196.444 56.9431C195.746 57.2318 194.997 57.38 194.241 57.3792H5.76678C4.23919 57.3808 2.77351 56.7757 1.69207 55.6971C0.610631 54.6185 0.00199081 53.1546 0 51.6274V5.75924C0.0019899 4.23137 0.61039 2.76673 1.69161 1.68692C2.77283 0.607108 4.23849 0.00039659 5.76678 0H194.239C194.996 -2.57233e-08 195.745 0.148978 196.444 0.438425C197.142 0.727873 197.777 1.15212 198.312 1.68693C198.847 2.22175 199.271 2.85665 199.561 3.55539C199.85 4.25412 199.999 5.003 199.999 5.75924L200 51.6274Z" fill="#3A3768"/>
<path d="M43.9204 28.3743C43.8769 23.5342 47.8846 21.1794 48.0679 21.0698C45.7981 17.7614 42.2801 17.3094 41.0438 17.2734C38.0891 16.9625 35.2229 19.0409 33.7178 19.0409C32.1826 19.0409 29.8647 17.3034 27.3667 17.3544C24.1521 17.404 21.1447 19.2647 19.4954 22.1541C16.0915 28.0455 18.6301 36.7031 21.8913 41.4652C23.5226 43.7989 25.4289 46.4014 27.924 46.3098C30.365 46.2107 31.2768 44.7555 34.2225 44.7555C37.1412 44.7555 37.9974 46.3098 40.5421 46.2513C43.1618 46.2107 44.8112 43.9085 46.3855 41.5553C48.2707 38.8837 49.0278 36.2496 49.0578 36.1144C48.9977 36.0934 43.9715 34.1741 43.9204 28.3743ZM39.1135 14.1407C40.4264 12.4993 41.3247 10.2662 41.0753 8C39.1751 8.0841 36.7987 9.31404 35.4302 10.9194C34.2195 12.3341 33.1379 14.6528 33.4173 16.8333C35.5519 16.9925 37.7436 15.7566 39.1135 14.1407Z" fill="white"/>
<path d="M79.2752 45.9746H75.8638L73.9951 40.1042H67.4998L65.7197 45.9746H62.3984L68.8352 25.9892H72.8099L79.2752 45.9746ZM73.4318 37.6413L71.7418 32.4227C71.5631 31.8896 71.2266 30.6341 70.7339 28.6578H70.6738C70.4755 29.5078 70.1586 30.7633 69.7244 32.4227L68.0631 37.6413H73.4318ZM95.7959 38.592C95.7959 41.0428 95.1304 42.9801 93.798 44.4023C92.6053 45.6682 91.1227 46.3005 89.3546 46.3005C87.4454 46.3005 86.0724 45.6202 85.2387 44.2566V51.8179H82.0361V36.3003C82.0361 34.761 81.9956 33.1826 81.9174 31.5637H84.734L84.9127 33.8479H84.9728C86.0409 32.1269 87.6617 31.2664 89.8368 31.2664C91.5373 31.2664 92.9568 31.9377 94.0924 33.2817C95.2265 34.6288 95.7959 36.3979 95.7959 38.592ZM92.5332 38.7091C92.5332 37.3065 92.2177 36.1501 91.5838 35.2385C90.8913 34.2909 89.9615 33.8164 88.7958 33.8164C88.0057 33.8164 87.2877 34.0807 86.6462 34.6018C86.0033 35.1274 85.5827 35.8137 85.3859 36.6637C85.2981 36.9816 85.2482 37.3087 85.2372 37.6383V40.0427C85.2372 41.0894 85.5587 41.9739 86.2016 42.6978C86.8445 43.4186 87.6797 43.7805 88.7072 43.7805C89.9134 43.7805 90.8523 43.3135 91.5237 42.3869C92.1967 41.4573 92.5332 40.2319 92.5332 38.7091ZM112.375 38.592C112.375 41.0428 111.71 42.9801 110.377 44.4023C109.183 45.6682 107.702 46.3005 105.932 46.3005C104.023 46.3005 102.65 45.6202 101.817 44.2566V51.8179H98.6139V36.3003C98.6139 34.761 98.5733 33.1826 98.4952 31.5637H101.312L101.491 33.8479H101.551C102.617 32.1269 104.238 31.2664 106.415 31.2664C108.114 31.2664 109.533 31.9377 110.672 33.2817C111.804 34.6288 112.375 36.3979 112.375 38.592ZM109.111 38.7091C109.111 37.3065 108.794 36.1501 108.16 35.2385C107.468 34.2909 106.541 33.8164 105.375 33.8164C104.585 33.8164 103.867 34.0807 103.223 34.6018C102.58 35.1274 102.16 35.8137 101.964 36.6637C101.866 37.0602 101.813 37.383 101.813 37.6383V40.0427C101.813 41.0894 102.136 41.9739 102.776 42.6978C103.419 43.4171 104.255 43.7805 105.285 43.7805C106.493 43.7805 107.432 43.3135 108.102 42.3869C108.774 41.4573 109.111 40.2319 109.111 38.7091ZM130.912 40.3685C130.912 42.07 130.317 43.4531 129.135 44.5209C127.834 45.6863 126.018 46.2704 123.689 46.2704C121.538 46.2704 119.814 45.856 118.513 45.0255L119.254 42.3569C120.658 43.1888 122.201 43.6033 123.88 43.6033C125.088 43.6033 126.027 43.33 126.697 42.7879C127.368 42.2442 127.708 41.5174 127.708 40.6103C127.708 39.7979 127.427 39.1176 126.875 38.5634C126.321 38.0108 125.405 37.4957 124.118 37.0226C120.617 35.7176 118.866 33.8089 118.866 31.2979C118.866 29.658 119.485 28.3154 120.72 27.2657C121.954 26.2175 123.592 25.6934 125.629 25.6934C127.448 25.6934 128.963 26.0102 130.167 26.6425L129.363 29.2525C128.23 28.6398 126.952 28.3334 125.522 28.3334C124.392 28.3334 123.506 28.6113 122.872 29.1639C122.339 29.658 122.069 30.2602 122.069 30.975C122.069 31.7635 122.377 32.4182 122.989 32.9318C123.521 33.4049 124.492 33.92 125.895 34.4726C127.616 35.1664 128.881 35.9744 129.691 36.9025C130.506 37.8306 130.912 38.9884 130.912 40.3685ZM141.527 33.9665H137.997V40.9632C137.997 42.7428 138.619 43.6304 139.866 43.6304C140.438 43.6304 140.913 43.5823 141.289 43.4817L141.377 45.913C140.746 46.1488 139.916 46.2674 138.887 46.2674C137.622 46.2674 136.633 45.8815 135.92 45.1096C135.209 44.3377 134.852 43.0447 134.852 41.2245V33.9605H132.749V31.5577H134.852V28.9191L137.997 27.97V31.5577H141.527V33.9665ZM157.423 38.6505C157.423 40.8656 156.789 42.6842 155.525 44.1064C154.201 45.5706 152.441 46.3005 150.246 46.3005C148.128 46.3005 146.444 45.5992 145.188 44.198C143.932 42.7939 143.305 41.0248 143.305 38.8908C143.305 36.6577 143.953 34.8286 145.247 33.4064C146.543 31.9827 148.289 31.2709 150.483 31.2709C152.598 31.2709 154.297 31.9737 155.583 33.3764C156.812 34.7369 157.423 36.494 157.423 38.6505ZM154.104 38.7241C154.104 37.4041 153.818 36.2717 153.246 35.3241C152.574 34.1798 151.613 33.6076 150.368 33.6076C149.085 33.6076 148.101 34.1798 147.431 35.3241C146.857 36.2717 146.572 37.4236 146.572 38.7842C146.572 40.1057 146.857 41.2411 147.431 42.1857C148.123 43.33 149.089 43.9022 150.341 43.9022C151.565 43.9022 152.525 43.318 153.219 42.1571C153.808 41.187 154.104 40.0472 154.104 38.7241ZM167.838 34.3795C167.505 34.3194 167.167 34.2897 166.828 34.2909C165.702 34.2909 164.83 34.7144 164.218 35.5674C163.686 36.3183 163.418 37.2674 163.418 38.4132V45.9746H160.216V36.102C160.219 34.5893 160.188 33.0766 160.123 31.5652H162.912L163.029 34.3225H163.118C163.457 33.3749 163.989 32.6105 164.719 32.0383C165.388 31.5383 166.199 31.2676 167.034 31.2664C167.33 31.2664 167.597 31.2874 167.835 31.325L167.838 34.3795ZM182.161 38.0874C182.169 38.5741 182.13 39.0604 182.044 39.5396H172.436C172.472 40.9632 172.938 42.0535 173.83 42.8044C174.64 43.4742 175.687 43.8106 176.972 43.8106C178.395 43.8106 179.693 43.5853 180.86 43.1303L181.362 45.3514C179.998 45.9461 178.387 46.2419 176.529 46.2419C174.294 46.2419 172.539 45.5841 171.263 44.2716C169.989 42.9576 169.35 41.1915 169.35 38.9794C169.35 36.8079 169.944 34.9982 171.132 33.5551C172.376 32.0143 174.057 31.2439 176.172 31.2439C178.249 31.2439 179.822 32.0143 180.89 33.5551C181.736 34.776 182.161 36.2898 182.161 38.0874ZM179.107 37.2569C179.129 36.3063 178.919 35.4878 178.485 34.7955C177.931 33.9035 177.078 33.4589 175.934 33.4589C174.887 33.4589 174.034 33.893 173.385 34.764C172.852 35.4563 172.535 36.2883 172.437 37.2539L179.107 37.2569Z" fill="white"/>
<path d="M66.5762 18.9236C65.6855 18.9236 64.9149 18.88 64.2734 18.8065V9.14414C65.1705 9.0056 66.0771 8.93731 66.9848 8.9399C70.6576 8.9399 72.349 10.7465 72.349 13.6915C72.349 17.0884 70.3512 18.9236 66.5762 18.9236ZM67.114 10.1789C66.6183 10.1789 66.1962 10.2089 65.8462 10.281V17.6261C66.0355 17.6561 66.399 17.6696 66.9097 17.6696C69.3162 17.6696 70.6861 16.3 70.6861 13.735C70.6861 11.4478 69.4469 10.1789 67.114 10.1789ZM77.6201 18.9972C75.5501 18.9972 74.2087 17.4519 74.2087 15.3539C74.2087 13.1674 75.5787 11.6085 77.7373 11.6085C79.7772 11.6085 81.1486 13.0802 81.1486 15.2383C81.1486 17.4519 79.7351 18.9972 77.6201 18.9972ZM77.6802 12.7589C76.543 12.7589 75.8145 13.8221 75.8145 15.3089C75.8145 16.7671 76.5581 17.8303 77.6652 17.8303C78.7722 17.8303 79.5158 16.6935 79.5158 15.2788C79.5158 13.8371 78.7873 12.7589 77.6802 12.7589ZM92.9526 11.7542L90.7369 18.8365H89.2933L88.3755 15.7609C88.1473 15.0086 87.9573 14.2452 87.8062 13.4737H87.7762C87.6605 14.2456 87.4412 15.019 87.2083 15.7609L86.232 18.8365H84.7734L82.6884 11.7542H84.3062L85.1083 15.1211C85.2976 15.9231 85.4568 16.68 85.589 17.3948H85.6191C85.7347 16.7986 85.924 16.0537 86.2019 15.1362L87.2083 11.7557H88.4912L89.4541 15.0641C89.6869 15.866 89.8762 16.6529 90.0234 17.3963H90.0654C90.1676 16.668 90.3283 15.8945 90.5461 15.0641L91.4069 11.7557L92.9526 11.7542ZM101.109 18.8365H99.535V14.7697C99.535 13.5173 99.0543 12.8895 98.1065 12.8895C97.1736 12.8895 96.5322 13.6915 96.5322 14.6241V18.8365H94.958V13.7786C94.958 13.1523 94.943 12.481 94.8994 11.7527H96.2844L96.358 12.846H96.4015C96.8252 12.0891 97.6844 11.6085 98.6473 11.6085C100.134 11.6085 101.111 12.7454 101.111 14.5955L101.109 18.8365ZM105.451 18.8365H103.875V8.50439H105.451V18.8365ZM111.19 18.9972C109.122 18.9972 107.779 17.4519 107.779 15.3539C107.779 13.1674 109.149 11.6085 111.306 11.6085C113.347 11.6085 114.717 13.0802 114.717 15.2383C114.719 17.4519 113.304 18.9972 111.19 18.9972ZM111.249 12.7589C110.112 12.7589 109.383 13.8221 109.383 15.3089C109.383 16.7671 110.128 17.8303 111.232 17.8303C112.341 17.8303 113.083 16.6935 113.083 15.2788C113.084 13.8371 112.357 12.7589 111.249 12.7589ZM120.924 18.8365L120.81 18.021H120.768C120.287 18.6773 119.586 18.9972 118.697 18.9972C117.427 18.9972 116.526 18.1081 116.526 16.9127C116.526 15.1647 118.042 14.2606 120.666 14.2606V14.13C120.666 13.1974 120.172 12.7303 119.195 12.7303C118.497 12.7303 117.884 12.906 117.345 13.256L117.025 12.2212C117.68 11.8128 118.497 11.6085 119.457 11.6085C121.307 11.6085 122.242 12.5847 122.242 14.5385V17.147C122.242 17.8618 122.273 18.416 122.344 18.838L120.924 18.8365ZM120.708 15.3089C118.959 15.3089 118.082 15.7324 118.082 16.737C118.082 17.4804 118.534 17.8438 119.162 17.8438C119.963 17.8438 120.708 17.2326 120.708 16.4021V15.3089ZM129.886 18.8365L129.812 17.6997H129.769C129.317 18.5587 128.557 18.9972 127.495 18.9972C125.787 18.9972 124.522 17.4954 124.522 15.3824C124.522 13.1674 125.833 11.607 127.624 11.607C128.572 11.607 129.243 11.9269 129.622 12.5697H129.653V8.50439H131.229V16.9278C131.229 17.6126 131.246 18.2538 131.288 18.8365H129.886ZM129.653 14.6691C129.653 13.678 128.997 12.8325 127.995 12.8325C126.828 12.8325 126.114 13.8672 126.114 15.3239C126.114 16.752 126.855 17.7297 127.963 17.7297C128.953 17.7297 129.653 16.8692 129.653 15.8495V14.6691ZM141.22 18.9972C139.151 18.9972 137.81 17.4519 137.81 15.3539C137.81 13.1674 139.18 11.6085 141.337 11.6085C143.378 11.6085 144.748 13.0802 144.748 15.2383C144.75 17.4519 143.336 18.9972 141.22 18.9972ZM141.278 12.7589C140.143 12.7589 139.414 13.8221 139.414 15.3089C139.414 16.7671 140.158 17.8303 141.263 17.8303C142.372 17.8303 143.114 16.6935 143.114 15.2788C143.117 13.8371 142.389 12.7589 141.278 12.7589ZM153.215 18.8365H151.639V14.7697C151.639 13.5173 151.158 12.8895 150.21 12.8895C149.277 12.8895 148.637 13.6915 148.637 14.6241V18.8365H147.062V13.7786C147.062 13.1523 147.047 12.481 147.003 11.7527H148.388L148.462 12.846H148.505C148.927 12.0891 149.788 11.607 150.75 11.607C152.237 11.607 153.215 12.7439 153.215 14.594V18.8365ZM163.806 12.9346H162.074V16.3736C162.074 17.2491 162.378 17.6861 162.991 17.6861C163.268 17.6861 163.501 17.6561 163.689 17.6126L163.733 18.808C163.428 18.9251 163.019 18.9837 162.511 18.9837C161.271 18.9837 160.529 18.2989 160.529 16.5058V12.9346H159.495V11.7542H160.529V10.4567L162.074 9.98963V11.7527H163.806V12.9346ZM172.14 18.8365H170.567V14.7998C170.567 13.5323 170.088 12.891 169.139 12.891C168.323 12.891 167.563 13.4452 167.563 14.567V18.8365H165.99V8.50439H167.563V12.7589H167.595C168.09 11.987 168.808 11.607 169.725 11.607C171.224 11.607 172.14 12.7724 172.14 14.6241V18.8365ZM180.678 15.6738H175.954C175.984 17.0149 176.872 17.7717 178.186 17.7717C178.885 17.7717 179.528 17.6546 180.096 17.4369L180.34 18.5301C179.671 18.8215 178.882 18.9671 177.964 18.9671C175.748 18.9671 174.437 17.5675 174.437 15.3975C174.437 13.2259 175.78 11.5935 177.787 11.5935C179.597 11.5935 180.733 12.9346 180.733 14.9605C180.743 15.1995 180.725 15.439 180.678 15.6738ZM179.235 14.552C179.235 13.4587 178.684 12.6868 177.677 12.6868C176.773 12.6868 176.058 13.4737 175.956 14.552H179.235Z" fill="white"/>
</svg>
