<svg width="247" height="247" viewBox="0 0 247 247" fill="none" xmlns="http://www.w3.org/2000/svg">
<g clip-path="url(#clip0)">
<path d="M58.817 129.391H70.5903V141.164H82.3553V152.929H23.5383V141.164H35.3034V117.626H58.8417V129.391H58.817ZM211.738 235.243H223.486V223.478H211.738V235.243ZM70.582 129.391H82.3471V117.626H70.582V129.391ZM235.235 235.243H247.008V223.478H235.235V235.243ZM94.1204 247H117.634V235.235H94.1204V247ZM199.965 247V235.235H188.191V247H199.965ZM152.921 247H164.686V223.47H152.921V247ZM58.817 94.1039V105.869H94.1039V94.1039H58.817ZM47.0684 105.861V94.0956H23.5301V117.626H35.2951V105.861H47.0684ZM82.3471 82.3306H0.0165008V0.00825038H82.3471V82.3306ZM70.582 11.7733H11.765V70.5738H70.582V11.7733ZM23.5301 223.478H58.8087V188.191H23.5301V223.478ZM141.148 211.705V223.478H152.929V211.705H141.148ZM58.817 23.5383H23.5383V58.8087H58.817V23.5383ZM247 0.00825038V82.3388H164.669V0.00825038H247ZM235.235 11.7733H176.434V70.5738H235.235V11.7733ZM0 164.653H82.3388V246.984H0V164.653ZM11.7733 235.243H70.5903V176.426H11.7733V235.243ZM11.7733 94.1039H0V152.921H11.7733V94.1039ZM164.669 152.904V164.653H176.434V152.904H164.669ZM129.383 199.956V188.191H117.626V199.965H94.1121V223.503H117.626V235.268H129.383V211.73H141.156V199.965H129.383V199.956ZM94.1204 47.0602H117.634V35.2786H94.1204V47.0602ZM188.2 141.156H211.746V152.921H223.503V117.642H211.746V94.1039H199.965V129.391H164.702V141.164H176.467V152.929H188.233V141.164H188.2V141.156ZM199.965 176.426H188.191V164.653H176.426V188.191H141.148V199.965H164.694V223.503H176.459V235.268H188.224V211.73H235.26V199.965H199.981V176.426H199.965ZM199.965 176.426H211.746V152.904H199.965V176.426ZM105.869 176.426V164.653H117.617V152.904H129.374V141.139H141.148V117.601H176.426V94.0626H164.661V105.828H152.896V58.784H141.131V35.2456H152.896V0H141.131V23.5301H129.366V0H94.0874V23.5301H105.852V11.765H117.601V35.2786H129.366V70.5655H141.131V82.3306H129.366V105.861H117.601V82.3306H105.852V70.5738H94.0874V94.1039H105.852V105.869H94.0874V141.164H105.852V117.626H117.601V141.164H105.852V152.929H94.0874V188.191H117.601V176.426H105.869ZM235.235 188.191V176.426H211.721V188.191H235.235ZM223.47 23.5383H188.2V58.8087H223.47V23.5383ZM129.383 176.426H152.929V164.653H141.148V152.904H129.374V176.426H129.383ZM152.921 152.904V141.139H141.139V152.904H152.921ZM223.47 105.861H247.008V94.0956H223.47V105.861ZM235.235 199.956H247.008V188.191H235.235V199.956ZM235.235 129.391H247.008V117.626H235.235V129.391ZM129.383 70.5738H117.626V82.3388H129.383V70.5738Z" fill="#3A3768"/>
</g>
<defs>
<clipPath id="clip0">
<rect width="247" height="247" fill="white"/>
</clipPath>
</defs>
</svg>
