<svg width="250" height="195" viewBox="0 0 250 195" fill="none" xmlns="http://www.w3.org/2000/svg">
<g clip-path="url(#clip0)">
<path d="M185.22 110.938L135.573 48.8969C133.318 50.9586 130.541 52.361 127.543 52.9512C118.197 54.7919 109.069 48.4092 107.156 38.695C105.803 31.8281 108.421 25.1384 113.372 21.1542L96.4433 0L0 82.4256L88.777 193.364L185.22 110.938Z" fill="#F4F8FB"/>
<path d="M80.3535 60.7042L38.9875 69.1572C37.8186 69.3961 36.718 69.8933 35.7662 70.6126C34.8144 71.3319 34.0356 72.2549 33.4867 73.3142C32.9378 74.3734 32.6329 75.542 32.5941 76.7344C32.5553 77.9267 32.7837 79.1127 33.2626 80.2053L80.4205 187.805C81.455 190.165 83.3208 192.063 85.6632 193.138C88.0056 194.213 90.6612 194.389 93.1251 193.633L140.788 178.96C142.052 178.571 143.215 177.907 144.192 177.016C145.17 176.125 145.939 175.03 146.444 173.807C146.949 172.584 147.178 171.265 147.113 169.944C147.049 168.623 146.694 167.332 146.073 166.164L92.902 66.187C91.6304 64.0913 89.7423 62.4397 87.496 61.4582C85.2498 60.4768 82.7551 60.2134 80.3535 60.7042Z" fill="#3F3D56"/>
<path d="M38.9318 70.2063L45.7332 68.8652C46.1908 69.8155 46.9471 70.5898 47.8865 71.0696C48.8258 71.5494 49.8965 71.7083 50.9347 71.522L75.5132 67.1104C75.7566 67.0667 75.9878 66.9712 76.1911 66.8302C76.3944 66.6893 76.5649 66.5062 76.6912 66.2935C76.8174 66.0808 76.8964 65.8435 76.9229 65.5975C76.9493 65.3516 76.9225 65.1029 76.8442 64.8682L76.1756 62.8624L82.9451 61.5276C84.3472 61.2511 85.801 61.4297 87.0944 62.0374C88.3879 62.645 89.4534 63.6499 90.1357 64.9056L145.2 166.242C145.673 167.113 145.947 168.079 146.001 169.069C146.055 170.06 145.888 171.049 145.512 171.967C145.136 172.885 144.56 173.707 143.827 174.375C143.094 175.043 142.221 175.539 141.272 175.827L94.3433 190.102C92.3876 190.696 90.2821 190.558 88.421 189.713C86.5598 188.867 85.0705 187.373 84.2318 185.508L35.4187 77.0093C35.1168 76.3381 34.9702 75.6073 34.9901 74.8715C35.0099 74.1357 35.1956 73.4139 35.5333 72.7599C35.871 72.1059 36.352 71.5366 36.9405 71.0945C37.5289 70.6523 38.2096 70.3487 38.9318 70.2063Z" fill="#FC6464"/>
<path d="M68.1984 65.7275L58.1484 67.7891" stroke="#2F2E41" stroke-width="2" stroke-miterlimit="10"/>
<path d="M55.5737 69.0775C56.143 69.0775 56.6045 68.6737 56.6045 68.1756C56.6045 67.6775 56.143 67.2737 55.5737 67.2737C55.0045 67.2737 54.543 67.6775 54.543 68.1756C54.543 68.6737 55.0045 69.0775 55.5737 69.0775Z" fill="#2F2E41"/>
<path d="M62.2734 77.8393L106.596 172.927L168.185 156.177V154.116L120.254 64.697L63.3042 77.0662L63.0336 77.2698L62.2734 77.8393Z" fill="white"/>
<path opacity="0.2" d="M62.2734 77.8393L106.596 172.927L168.185 156.177V154.116L106.854 171.381L63.0336 77.2698L62.2734 77.8393Z" fill="black"/>
<path d="M141.385 118.039L96.0312 129.635" stroke="#3A3768" stroke-width="2" stroke-miterlimit="10"/>
<path d="M143.963 122.935L98.3516 134.789" stroke="#3A3768" stroke-width="2" stroke-miterlimit="10"/>
<path d="M138.033 129.635L109.43 137.366" stroke="#3A3768" stroke-width="2" stroke-miterlimit="10"/>
<path d="M112.008 151.539L116.185 160.633L116.389 161.074L117.1 160.893L151.692 152.054V150.766L147.054 142.004L112.781 151.281L112.474 151.384L112.008 151.539Z" fill="#FC6464"/>
<path opacity="0.2" d="M112.008 151.539L116.185 160.633L116.389 161.074L117.1 160.893L151.692 152.054V150.766L116.904 160.043L112.474 151.384L112.008 151.539Z" fill="black"/>
<path d="M21.1719 193.929H250.002" stroke="#3F3D56" stroke-width="2" stroke-miterlimit="10"/>
<path d="M115.073 97.66C112.122 89.9481 103.973 85.5286 97.4318 87.6108C91.4355 89.5195 88.9723 96.2929 91.4924 102.879C94.0125 109.465 100.87 114.176 107.277 113.339C114.266 112.427 118.024 105.372 115.073 97.66Z" fill="#3F3D56" stroke="#3F3D56" stroke-width="2" stroke-miterlimit="10"/>
<path opacity="0.2" d="M115.073 97.66C112.122 89.9481 103.973 85.5286 97.4318 87.6108C91.4355 89.5195 88.9723 96.2929 91.4924 102.879C94.0125 109.465 100.87 114.176 107.277 113.339C114.266 112.427 118.024 105.372 115.073 97.66Z" fill="black"/>
<path d="M116.362 96.3717C113.411 88.6598 105.262 84.2403 98.7208 86.3225C92.7245 88.2312 90.2613 95.0046 92.7815 101.591C95.3016 108.177 102.159 112.887 108.566 112.051C115.555 111.138 119.313 104.084 116.362 96.3717Z" fill="#3A3768" stroke="#3A3768" stroke-width="2" stroke-miterlimit="10"/>
<path d="M159.623 18.469C161.723 18.469 163.425 16.7666 163.425 14.6666C163.425 12.5666 161.723 10.8643 159.623 10.8643C157.523 10.8643 155.82 12.5666 155.82 14.6666C155.82 16.7666 157.523 18.469 159.623 18.469Z" stroke="#3A3768" stroke-width="2" stroke-miterlimit="10"/>
<path d="M209.873 129.019C211.973 129.019 213.675 127.316 213.675 125.216C213.675 123.116 211.973 121.414 209.873 121.414C207.773 121.414 206.07 123.116 206.07 125.216C206.07 127.316 207.773 129.019 209.873 129.019Z" stroke="#3A3768" stroke-width="2" stroke-miterlimit="10"/>
<path d="M43.986 28.0037C46.086 28.0037 47.7883 26.3013 47.7883 24.2013C47.7883 22.1013 46.086 20.3989 43.986 20.3989C41.886 20.3989 40.1836 22.1013 40.1836 24.2013C40.1836 26.3013 41.886 28.0037 43.986 28.0037Z" stroke="#3A3768" stroke-width="2" stroke-miterlimit="10"/>
<path d="M123.532 50.0036C131.262 50.0036 137.528 43.7371 137.528 36.007C137.528 28.277 131.262 22.0105 123.532 22.0105C115.802 22.0105 109.535 28.277 109.535 36.007C109.535 43.7371 115.802 50.0036 123.532 50.0036Z" fill="#F4F8FB"/>
<path d="M178.569 70.019C183.806 70.019 188.052 65.7733 188.052 60.536C188.052 55.2987 183.806 51.053 178.569 51.053C173.332 51.053 169.086 55.2987 169.086 60.536C169.086 65.7733 173.332 70.019 178.569 70.019Z" fill="#3A3768"/>
<path d="M188.799 179.37L190.603 187.1H186.222L184.418 178.339L188.799 179.37Z" fill="#FFB8B8"/>
<path d="M167.67 179.37V186.585L163.289 187.1V179.37H167.67Z" fill="#FFB8B8"/>
<path d="M190.09 97.4237C190.09 97.4237 189.574 108.504 189.059 109.277C188.544 110.051 183.905 121.131 183.905 121.131L181.586 113.916C181.586 113.916 185.194 107.989 184.678 104.639C184.163 101.289 184.488 97.1667 184.488 97.1667L190.09 97.4237Z" fill="#FFB8B8"/>
<path d="M175.399 70.6238C179.384 70.6238 182.614 67.3934 182.614 63.4085C182.614 59.4235 179.384 56.1931 175.399 56.1931C171.414 56.1931 168.184 59.4235 168.184 63.4085C168.184 67.3934 171.414 70.6238 175.399 70.6238Z" fill="#FFB8B8"/>
<path d="M181.328 64.1814C181.328 64.1814 181.07 74.489 182.874 76.0352C184.678 77.5813 172.566 76.2929 172.566 76.2929C172.566 76.2929 175.143 69.0775 173.082 67.5314C171.02 65.9852 181.328 64.1814 181.328 64.1814Z" fill="#FFB8B8"/>
<path d="M171.793 75.7778C171.793 75.7778 173.339 72.9432 175.401 73.2009C177.462 73.4586 184.162 73.974 184.42 74.4893C184.678 75.0047 185.451 76.8086 185.966 77.3239C186.482 77.8393 190.347 78.6124 190.605 81.7047C190.862 84.797 181.328 103.608 181.328 103.608C181.328 103.608 182.616 107.989 182.359 109.02C182.101 110.051 183.647 113.143 183.389 114.431C183.132 115.72 187.255 123.451 185.193 133.501V149.735C185.193 149.735 192.151 177.824 190.089 179.885C188.028 181.947 181.07 180.658 179.782 179.885C178.493 179.112 173.082 140.201 173.082 140.201L170.505 127.058L170.247 155.92C170.247 155.92 170.762 180.143 168.959 180.916C167.155 181.689 160.197 181.947 159.682 180.4C159.28 179.195 157.31 147.11 156.463 133.045C156.169 128.191 156.551 123.319 157.598 118.569C158.67 113.705 160.227 107.99 162.001 105.67C165.351 101.289 167.413 87.3739 167.413 87.3739L163.032 79.3855C163.032 79.3855 165.609 76.8086 167.155 76.8086C168.701 76.8086 171.793 75.7778 171.793 75.7778Z" fill="#3A3768"/>
<path d="M189.056 79.9006L190.415 80.8256C190.415 80.8256 191.375 97.4236 190.602 98.4544C189.829 99.4852 184.454 98.9821 184.049 98.074C183.644 97.1659 189.056 79.9006 189.056 79.9006Z" fill="#3A3768"/>
<path d="M166.074 94.9919C166.828 100.225 167.489 104.883 163.632 109.097C159.756 113.362 155.384 117.149 150.61 120.377C150.137 121.63 143.192 130.832 142.839 127.161C142.486 123.491 144.885 120.613 148.295 117.509C151.705 114.405 156.475 107.67 159.166 103.975C161.858 100.28 160.75 97.9753 160.656 94.8886C160.563 91.8019 165.016 95.0292 166.074 94.9919Z" fill="#FFB8B8"/>
<path d="M163.286 182.41C163.286 182.41 163.028 185.297 162.255 186.07C161.482 186.843 159.421 187.873 159.678 190.708C159.936 193.543 161.611 193.671 161.611 193.671L161.482 193.027L162.255 193.285L162.384 193.671H169.599C169.599 193.671 169.728 190.966 169.471 189.677C169.213 188.389 169.213 182.204 168.44 182.462C167.667 182.72 165.605 182.977 165.09 184.008C164.575 185.039 163.028 184.678 163.286 182.41Z" fill="#3A3768"/>
<path d="M189.572 182.41C189.572 182.41 189.83 185.297 190.603 186.07C191.376 186.843 193.438 187.873 193.18 190.708C192.922 193.543 191.247 193.671 191.247 193.671L191.376 193.027L190.603 193.285L190.474 193.671H183.259C183.259 193.671 183.13 190.966 183.388 189.677C183.645 188.389 183.645 182.204 184.418 182.462C185.191 182.72 187.253 182.977 187.768 184.008C188.284 185.039 189.83 184.678 189.572 182.41Z" fill="#3A3768"/>
<path d="M166.637 78.6123L163.03 79.3854C163.03 79.3854 163.03 85.0546 161.999 87.3738C160.968 89.693 159.164 95.1045 159.937 95.3622C160.71 95.6199 167.926 99.2276 168.441 97.166C168.956 95.1045 170.245 78.6123 166.637 78.6123Z" fill="#3A3768"/>
<path d="M188.842 57.5331C194.08 57.5331 198.325 53.2874 198.325 48.0501C198.325 42.8128 194.08 38.5671 188.842 38.5671C183.605 38.5671 179.359 42.8128 179.359 48.0501C179.359 53.2874 183.605 57.5331 188.842 57.5331Z" fill="#3A3768"/>
<path d="M197.019 55.9027C195.792 56.7898 194.37 57.3701 192.872 57.595C191.375 57.8198 189.845 57.6828 188.411 57.1952C186.977 56.7077 185.681 55.8839 184.631 54.7927C183.581 53.7016 182.807 52.3748 182.375 50.9233C182.539 52.224 182.97 53.4767 183.642 54.6023C184.314 55.7278 185.212 56.7018 186.28 57.4627C187.347 58.2236 188.561 58.7549 189.844 59.0231C191.128 59.2913 192.453 59.2905 193.735 59.0208C195.018 58.7511 196.231 58.2183 197.298 57.4562C198.365 56.694 199.262 55.7189 199.932 54.5926C200.603 53.4662 201.033 52.2131 201.195 50.9122C201.357 49.6113 201.248 48.2909 200.874 47.0344C201.086 48.7225 200.84 50.4366 200.162 51.997C199.484 53.5573 198.398 54.9064 197.019 55.9027Z" fill="#3A3768"/>
<path d="M181.095 69.0705C184.936 69.0705 188.049 65.957 188.049 62.1163C188.049 58.2756 184.936 55.1621 181.095 55.1621C177.254 55.1621 174.141 58.2756 174.141 62.1163C174.141 65.957 177.254 69.0705 181.095 69.0705Z" fill="#3A3768"/>
<path d="M175.25 64.3293C178.654 64.3293 181.414 62.171 181.414 59.5087C181.414 56.8465 178.654 54.6882 175.25 54.6882C171.846 54.6882 169.086 56.8465 169.086 59.5087C169.086 62.171 171.846 64.3293 175.25 64.3293Z" fill="#3A3768"/>
<path d="M173.607 66.5179C174.253 66.5179 174.777 65.5913 174.777 64.4482C174.777 63.3051 174.253 62.3784 173.607 62.3784C172.961 62.3784 172.438 63.3051 172.438 64.4482C172.438 65.5913 172.961 66.5179 173.607 66.5179Z" fill="#A0616A"/>
</g>
<defs>
<clipPath id="clip0">
<rect width="250" height="194.187" fill="white"/>
</clipPath>
</defs>
</svg>
