<svg width="525" height="466" viewBox="0 0 525 466" fill="none" xmlns="http://www.w3.org/2000/svg">
<g clip-path="url(#clip0)">
<path opacity="0.1" d="M235.546 180.673C215.066 174.035 193.413 168.47 171.283 169.044C138.749 169.89 107.469 185.074 92.0408 207.516C79 226.533 77.2594 248.883 71.5668 270.03C64.5531 296.083 51.2402 320.807 37.0315 344.986C29.3998 357.973 21.3486 371.232 20.0218 385.502C18.2018 405.314 30.1879 425.121 49.0857 438.397C67.9834 451.674 93.1294 458.749 118.394 460.401C131.838 461.276 145.888 460.6 157.857 455.751C170.518 450.64 179.777 441.288 192.489 436.234C204.271 431.555 218.003 430.953 231.22 431.64C248.336 432.507 265.288 435.416 281.716 440.305C300.137 445.825 317.254 453.769 335.636 459.368C354.018 464.967 374.566 468.135 393.401 463.632C411.086 459.408 425.113 448.993 437.762 438.443C458.147 421.484 477.101 402.871 494.433 382.794C505.858 369.512 516.5 355.486 521.603 339.966C531.35 310.291 518.292 276.691 489.075 256.254C464.87 239.315 432.308 231.837 400.42 227.294C371.34 223.109 337.694 222.694 310.967 212.036C285.475 201.843 262.285 189.339 235.546 180.673Z" fill="#FC6464"/>
<path opacity="0.1" d="M496.599 281.802C503.836 281.802 509.702 280.996 509.702 280.001C509.702 279.007 503.836 278.201 496.599 278.201C489.363 278.201 483.496 279.007 483.496 280.001C483.496 280.996 489.363 281.802 496.599 281.802Z" fill="#FC6464"/>
<path opacity="0.1" d="M446.404 286.901C453.641 286.901 459.507 286.095 459.507 285.101C459.507 284.107 453.641 283.301 446.404 283.301C439.167 283.301 433.301 284.107 433.301 285.101C433.301 286.095 439.167 286.901 446.404 286.901Z" fill="#FC6464"/>
<path opacity="0.1" d="M387.277 280.001C394.514 280.001 400.38 279.196 400.38 278.201C400.38 277.207 394.514 276.401 387.277 276.401C380.04 276.401 374.174 277.207 374.174 278.201C374.174 279.196 380.04 280.001 387.277 280.001Z" fill="#FC6464"/>
<path opacity="0.1" d="M466.491 300.898C471.636 300.898 475.807 300.324 475.807 299.615C475.807 298.906 471.636 298.332 466.491 298.332C461.347 298.332 457.176 298.906 457.176 299.615C457.176 300.324 461.347 300.898 466.491 300.898Z" fill="#FC6464"/>
<path opacity="0.1" d="M414.398 299.615C419.543 299.615 423.713 299.04 423.713 298.332C423.713 297.623 419.543 297.048 414.398 297.048C409.253 297.048 405.082 297.623 405.082 298.332C405.082 299.04 409.253 299.615 414.398 299.615Z" fill="#FC6464"/>
<path d="M446.119 284.692C446.119 284.692 464.5 224.352 443.244 200.185C427.368 182.104 409.293 184.285 401.213 186.505C399.122 187.063 397.176 188.069 395.512 189.455C393.847 190.84 392.504 192.572 391.574 194.529C388.739 200.633 389.261 210.542 409.208 222.109C442.609 241.479 444.69 268.048 444.69 268.048L446.119 284.692Z" fill="#FC6464"/>
<path d="M404.09 195.063C404.09 195.063 458.271 212.03 446.121 284.692" stroke="#565987" stroke-miterlimit="10"/>
<path d="M435.726 201.145C435.726 201.145 428.264 206.181 430.623 213.745" stroke="#565987" stroke-miterlimit="10"/>
<path d="M409.525 205.625C409.525 205.625 414.061 200.98 419.635 203.541" stroke="#565987" stroke-miterlimit="10"/>
<path d="M430.941 228.992C430.941 228.992 438.947 224.926 441.017 230.02" stroke="#565987" stroke-miterlimit="10"/>
<path d="M450.756 237.475C450.756 237.475 444.741 236.998 444.633 239.877" stroke="#565987" stroke-miterlimit="10"/>
<path d="M446.862 285.175C446.862 285.175 425.316 241.32 419.425 242.279C416.59 242.734 415.32 245.505 414.736 248.282C414.011 251.876 414.421 255.607 415.91 258.957C418.966 265.976 427.17 279.303 446.862 285.175Z" fill="#FC6464"/>
<path d="M419.584 250.604C419.584 250.604 442.178 283.414 446.544 284.857" stroke="#565987" stroke-miterlimit="10"/>
<path d="M417.508 255.726H422.781" stroke="#565987" stroke-miterlimit="10"/>
<path d="M423.826 267.73L432.093 268.082" stroke="#565987" stroke-miterlimit="10"/>
<path d="M428.855 258.128L427.959 262.438" stroke="#565987" stroke-miterlimit="10"/>
<path d="M437.643 271.251L437.484 275.169" stroke="#565987" stroke-miterlimit="10"/>
<path d="M446.227 285.175C446.227 285.175 467.772 241.32 473.663 242.279C476.498 242.734 477.768 245.505 478.352 248.282C479.078 251.876 478.668 255.607 477.179 258.957C474.122 265.976 465.918 279.303 446.227 285.175Z" fill="#FC6464"/>
<path d="M473.505 250.604C473.505 250.604 450.911 283.414 446.545 284.857" stroke="#565987" stroke-miterlimit="10"/>
<path d="M475.58 255.726H470.307" stroke="#565987" stroke-miterlimit="10"/>
<path d="M469.265 267.73L460.998 268.082" stroke="#565987" stroke-miterlimit="10"/>
<path d="M464.234 258.128L465.13 262.438" stroke="#565987" stroke-miterlimit="10"/>
<path d="M455.441 271.251L455.606 275.169" stroke="#565987" stroke-miterlimit="10"/>
<path d="M409.266 295.419C408.681 294.939 408.254 294.294 408.041 293.568C407.946 293.202 407.98 292.815 408.136 292.471C408.291 292.127 408.56 291.846 408.897 291.677C409.685 291.376 410.524 291.921 411.165 292.477C411.806 293.034 412.532 293.653 413.365 293.539C412.937 293.15 412.617 292.655 412.436 292.105C412.255 291.555 412.22 290.967 412.333 290.399C412.368 290.163 412.466 289.942 412.617 289.757C413.053 289.292 413.847 289.496 414.369 289.86C416.03 291.035 416.495 293.295 416.506 295.328C416.587 294.573 416.587 293.812 416.506 293.057C416.474 292.68 416.534 292.302 416.681 291.955C416.828 291.607 417.058 291.301 417.351 291.063C417.745 290.847 418.189 290.741 418.638 290.757C419.009 290.704 419.387 290.73 419.747 290.832C420.108 290.935 420.443 291.112 420.73 291.353C421.36 292.034 421.195 293.176 420.645 293.925C420.027 294.612 419.296 295.188 418.485 295.629C417.864 295.997 417.334 296.502 416.937 297.105C416.893 297.189 416.855 297.277 416.824 297.367H412.14C411.099 296.85 410.132 296.195 409.266 295.419Z" fill="#FC6464"/>
<path d="M491.291 277.753C490.704 277.275 490.277 276.629 490.066 275.902C489.972 275.537 490.005 275.151 490.161 274.807C490.317 274.464 490.586 274.185 490.922 274.017C491.71 273.716 492.549 274.261 493.19 274.811C493.831 275.362 494.562 275.993 495.396 275.873C494.966 275.485 494.644 274.991 494.462 274.441C494.28 273.89 494.244 273.302 494.358 272.733C494.392 272.498 494.493 272.277 494.647 272.097C495.084 271.632 495.872 271.83 496.394 272.199C498.055 273.369 498.52 275.607 498.531 277.668C498.615 276.913 498.615 276.151 498.531 275.396C498.499 275.02 498.559 274.642 498.706 274.295C498.853 273.947 499.083 273.641 499.376 273.403C499.772 273.193 500.215 273.089 500.663 273.102C501.032 273.044 501.409 273.065 501.77 273.163C502.13 273.26 502.466 273.433 502.755 273.67C503.39 274.346 503.226 275.487 502.67 276.237C502.056 276.937 501.325 277.524 500.51 277.974C499.889 278.342 499.359 278.847 498.962 279.451C498.916 279.534 498.878 279.621 498.849 279.712H494.165C493.124 279.19 492.158 278.531 491.291 277.753Z" fill="#FC6464"/>
<path d="M463.951 295.419C463.367 294.939 462.94 294.294 462.727 293.568C462.632 293.202 462.665 292.815 462.821 292.471C462.977 292.127 463.246 291.846 463.583 291.677C464.371 291.376 465.21 291.921 465.851 292.477C466.491 293.034 467.217 293.653 468.051 293.539C467.622 293.15 467.301 292.656 467.12 292.106C466.938 291.556 466.901 290.968 467.013 290.399C467.052 290.164 467.152 289.943 467.302 289.757C467.739 289.292 468.533 289.496 469.054 289.86C470.715 291.035 471.18 293.295 471.192 295.328C471.282 294.574 471.292 293.813 471.22 293.057C471.188 292.68 471.248 292.302 471.395 291.955C471.542 291.607 471.772 291.301 472.065 291.063C472.459 290.847 472.903 290.741 473.352 290.757C473.723 290.704 474.101 290.73 474.461 290.832C474.822 290.935 475.157 291.112 475.444 291.353C476.073 292.034 475.909 293.176 475.359 293.925C474.741 294.612 474.01 295.188 473.199 295.629C472.578 295.997 472.048 296.502 471.651 297.105C471.606 297.189 471.568 297.277 471.538 297.367H466.854C465.803 296.852 464.826 296.197 463.951 295.419Z" fill="#FC6464"/>
<path d="M386.426 259.712C386.426 259.712 384.669 262.012 387.237 265.482C389.806 268.951 391.915 271.887 391.064 274.051C391.064 274.051 387.192 267.606 384.039 267.515C380.887 267.424 382.956 263.591 386.426 259.712Z" fill="#FC6464"/>
<path opacity="0.1" d="M386.426 259.712C386.271 259.934 386.149 260.177 386.064 260.434C382.991 264.051 381.352 267.429 384.306 267.515C387.062 267.594 390.367 272.523 391.155 273.761C391.155 273.858 391.098 273.954 391.064 274.045C391.064 274.045 387.192 267.6 384.039 267.509C380.887 267.418 382.956 263.591 386.426 259.712Z" fill="black"/>
<path d="M383.16 262.642C383.16 263.454 383.251 264.107 383.364 264.107C383.478 264.107 383.563 263.454 383.563 262.642C383.563 261.83 383.449 262.217 383.342 262.217C383.234 262.217 383.16 261.836 383.16 262.642Z" fill="#FFD037"/>
<path d="M382.04 263.608C382.748 264 383.372 264.232 383.423 264.136C383.474 264.039 382.947 263.642 382.238 263.256C381.529 262.87 381.807 263.148 381.751 263.256C381.694 263.364 381.331 263.222 382.04 263.608Z" fill="#FFD037"/>
<path d="M395.697 259.712C395.697 259.712 397.455 262.012 394.886 265.482C392.318 268.951 390.209 271.887 391.065 274.051C391.065 274.051 394.932 267.606 398.084 267.515C401.237 267.424 399.167 263.591 395.697 259.712Z" fill="#FC6464"/>
<path opacity="0.1" d="M395.697 259.712C395.853 259.934 395.975 260.177 396.06 260.434C399.133 264.051 400.772 267.429 397.818 267.515C395.062 267.594 391.757 272.523 390.969 273.761C390.995 273.858 391.027 273.952 391.065 274.045C391.065 274.045 394.932 267.6 398.084 267.509C401.237 267.418 399.167 263.591 395.697 259.712Z" fill="black"/>
<path d="M398.963 262.642C398.963 263.454 398.872 264.107 398.759 264.107C398.646 264.107 398.561 263.454 398.561 262.642C398.561 261.83 398.674 262.217 398.782 262.217C398.889 262.217 398.963 261.836 398.963 262.642Z" fill="#FFD037"/>
<path d="M400.086 263.608C399.377 264 398.754 264.232 398.703 264.136C398.652 264.039 399.179 263.642 399.888 263.256C400.596 262.87 400.319 263.148 400.375 263.256C400.432 263.364 400.795 263.222 400.086 263.608Z" fill="#FFD037"/>
<path d="M398.402 273.75C398.402 273.75 393.498 273.602 392.018 272.546C390.538 271.489 384.465 270.229 384.08 271.921C383.694 273.613 376.709 280.337 382.243 280.382C387.777 280.427 395.125 279.519 396.599 278.616C398.073 277.713 398.402 273.75 398.402 273.75Z" fill="#A8A8A8"/>
<path opacity="0.2" d="M382.163 279.792C387.703 279.837 395.039 278.928 396.519 278.026C397.653 277.344 398.09 274.88 398.22 273.744H398.379C398.379 273.744 398.073 277.719 396.593 278.61C395.113 279.502 387.782 280.422 382.237 280.376C380.638 280.376 380.088 279.809 380.116 278.951C380.36 279.468 380.972 279.786 382.163 279.792Z" fill="black"/>
<path opacity="0.1" d="M73.9319 47.4108C80.7052 47.4108 86.1959 41.9117 86.1959 35.1283C86.1959 28.3448 80.7052 22.8457 73.9319 22.8457C67.1587 22.8457 61.668 28.3448 61.668 35.1283C61.668 41.9117 67.1587 47.4108 73.9319 47.4108Z" fill="#FC6464"/>
<path opacity="0.1" d="M286.047 28.0244C292.82 28.0244 298.311 22.5253 298.311 15.7418C298.311 8.95832 292.82 3.45923 286.047 3.45923C279.274 3.45923 273.783 8.95832 273.783 15.7418C273.783 22.5253 279.274 28.0244 286.047 28.0244Z" fill="#FC6464"/>
<path opacity="0.1" d="M480.61 76.5471C487.383 76.5471 492.874 71.048 492.874 64.2645C492.874 57.481 487.383 51.9819 480.61 51.9819C473.836 51.9819 468.346 57.481 468.346 64.2645C468.346 71.048 473.836 76.5471 480.61 76.5471Z" fill="#FC6464"/>
<path opacity="0.1" d="M21.3483 168.334C32.6996 168.334 41.9016 159.118 41.9016 147.75C41.9016 136.381 32.6996 127.165 21.3483 127.165C9.99697 127.165 0.794922 136.381 0.794922 147.75C0.794922 159.118 9.99697 168.334 21.3483 168.334Z" fill="#FC6464"/>
<path opacity="0.1" d="M41.0514 269.979C52.4027 269.979 61.6048 260.763 61.6048 249.395C61.6048 238.026 52.4027 228.81 41.0514 228.81C29.7001 228.81 20.498 238.026 20.498 249.395C20.498 260.763 29.7001 269.979 41.0514 269.979Z" fill="#FC6464"/>
<path opacity="0.1" d="M425.991 180.321C437.342 180.321 446.544 171.105 446.544 159.737C446.544 148.368 437.342 139.152 425.991 139.152C414.64 139.152 405.438 148.368 405.438 159.737C405.438 171.105 414.64 180.321 425.991 180.321Z" fill="#FC6464"/>
<path d="M256.03 198.283C255.305 198.351 254.567 198.317 253.847 198.43C252.638 198.671 251.485 199.135 250.445 199.799C245.286 202.74 240.415 206.783 238.278 212.326C238.102 212.666 238.046 213.056 238.119 213.433C238.246 213.743 238.453 214.014 238.72 214.216L240.727 216.045C240.981 216.309 241.283 216.521 241.617 216.67C242.159 216.811 242.73 216.794 243.262 216.618C248.779 215.352 254.641 213.893 258.514 209.759C260.351 207.8 262.046 205.102 264.751 205.029C265.885 205.029 266.945 205.466 268.062 205.596C269.179 205.727 270.523 205.25 270.789 204.16C270.875 203.618 270.813 203.062 270.608 202.553L268.941 196.994C268.487 195.472 263.911 195.392 262.386 195.665C260.062 196.068 258.497 198.055 256.03 198.283Z" fill="#65617D"/>
<path d="M275.671 229.599C275.591 231.502 275.744 233.427 275.433 235.312C275.158 236.798 274.683 238.241 274.021 239.599C273.001 241.783 271.705 243.827 270.165 245.681C268.731 247.384 267.013 248.986 264.887 249.656C262.76 250.326 260.147 249.843 258.82 248.049C257.737 246.589 257.686 244.642 257.765 242.819C257.958 238.338 258.661 233.796 260.668 229.787C261.53 228.083 262.624 226.459 263.503 224.738C265.34 221.167 266.389 216.931 269.559 214.466C271.547 215.386 273.673 215.971 275.852 216.198C276.697 216.289 279.112 216.346 279.396 217.43C279.589 218.163 278.001 220.213 277.695 220.934C276.485 223.67 275.798 226.609 275.671 229.599Z" fill="#65617D"/>
<path d="M253.195 147.704C253.875 149.442 254.737 151.145 254.896 152.996C255.009 154.132 254.896 155.268 254.896 156.404C254.992 157.96 255.25 159.501 255.667 161.003L258.825 173.95C259.296 175.886 259.766 177.874 259.523 179.85C259.358 181.167 258.882 182.445 258.888 183.768C258.948 184.771 259.108 185.766 259.364 186.738C259.962 189.74 259.798 192.845 258.888 195.767C258.794 195.987 258.761 196.228 258.791 196.465C258.871 196.834 259.228 197.062 259.551 197.238C262.951 199.101 266.658 200.337 270.494 200.889C273.957 192.639 276.376 183.988 277.695 175.137C278.5 169.776 278.891 164.348 279.923 159.027C279.947 158.72 280.077 158.43 280.292 158.209C280.677 157.886 281.261 158.09 281.715 158.306C287.509 161.096 293.083 164.323 298.39 167.959C300.256 165.539 301.568 162.738 302.233 159.754C302.898 156.77 302.901 153.676 302.24 150.691C301.573 148.117 300.622 145.626 299.405 143.264C298.107 140.39 296.491 137.671 294.585 135.16C290.378 129.879 284.209 126.506 277.859 124.218C273.998 122.821 270.023 121.787 266.054 120.731C263.832 120.135 260.107 118.193 257.946 119.703C255.679 121.276 254.17 125.178 253.24 127.653C252.093 130.724 251.468 133.966 251.392 137.244C251.299 140.816 251.911 144.371 253.195 147.704Z" fill="#3F3D56"/>
<path d="M298.776 163.314C297.591 164.609 298.589 166.676 298.362 168.425C298.214 169.215 297.932 169.973 297.529 170.668L292.102 181.338C291.195 182.939 290.516 184.659 290.084 186.449C289.341 190.299 290.866 194.626 288.916 198.027C288.287 199.123 287.311 200.066 287.051 201.303C286.858 202.206 287.051 203.149 286.954 204.063C286.824 205.136 286.251 206.102 285.934 207.135C285.686 208.128 285.51 209.138 285.406 210.156C284.718 214.499 282.448 218.432 279.033 221.195C277.077 222.856 274.565 223.712 272.003 223.592C269.474 223.376 266.962 221.655 266.446 219.168C266.27 218.322 266.304 217.379 265.777 216.692C265.029 215.71 263.452 215.67 262.732 214.665L265.522 210.065C266.389 208.64 267.274 207.152 267.416 205.489C267.586 203.45 266.605 201.417 266.956 199.401C267.257 197.669 268.499 196.227 268.873 194.512C269.338 192.383 268.408 190.23 267.903 188.107C266.667 182.877 268.051 177.425 269.429 172.207C271.26 165.302 273.137 158.289 276.845 152.185C284.244 156.177 291.048 160.01 298.776 163.314Z" fill="#3F3D56"/>
<path d="M298.845 55.1506C299.287 56.3544 299.049 57.6889 298.964 58.9665C298.765 61.8058 299.366 64.645 299.23 67.524C299.094 70.403 298.21 73.1514 297.597 75.9509C295.857 83.9405 296.276 92.2652 294.7 100.289C292.755 110.226 287.783 119.482 286.802 129.567C286.49 132.77 286.53 136.2 284.778 138.903C274.367 134.313 264.525 128.523 255.453 121.651C257.449 106.825 259.422 91.9245 259.156 76.9673C259.026 75.1642 259.152 73.3519 259.53 71.5841C260.003 70.0992 260.682 68.6885 261.548 67.3934C263.743 63.8216 266.158 60.3918 268.568 56.9677C270.11 54.7758 271.777 52.476 274.237 51.4482C276.698 50.4204 279.613 50.8804 282.294 51.3687C285.522 51.9593 288.747 52.5499 291.967 53.1404C293.98 53.5095 297.983 52.8054 298.845 55.1506Z" fill="#FC6464"/>
<path d="M221.206 111.964C219.883 110.639 218.44 109.439 216.896 108.381C218.909 105.928 218.512 102.379 219.006 99.2383C219.41 97.1986 220.024 95.2062 220.837 93.2929C221.041 92.7535 221.33 92.1572 221.892 92.0153C222.236 91.9726 222.586 92.0277 222.901 92.1743C224.602 92.7762 228.151 92.7421 229.472 93.8437C231.066 95.1839 229.608 97.989 229.007 99.6642C228.582 100.789 222.05 112.816 221.206 111.964Z" fill="#BE6F72"/>
<path d="M226.145 218.01C226.999 219.394 227.557 220.941 227.783 222.552C227.919 224.165 227.33 225.931 225.958 226.783C224.586 227.635 222.618 227.351 220.985 226.84C217.522 225.712 214.335 223.864 211.633 221.418C208.932 218.971 206.776 215.981 205.308 212.643C204.792 211.451 204.344 210.185 203.431 209.265C202.753 208.668 202 208.162 201.192 207.76C198.963 206.499 196.814 204.841 195.782 202.49C194.751 200.139 195.215 196.999 197.353 195.602C198.019 195.217 198.755 194.968 199.519 194.871C200.282 194.773 201.057 194.829 201.798 195.034C203.276 195.455 204.691 196.072 206.005 196.869C208.205 198.067 210.893 199.1 212.809 200.696C214.51 202.098 216.035 203.995 217.487 205.648C219.149 207.549 220.707 209.539 222.153 211.61C222.618 212.218 226.536 217.459 226.145 218.01Z" fill="#65617D"/>
<path d="M184.585 206.09C184.393 208.948 183.889 211.775 183.083 214.523C182.624 216.067 182.017 217.675 180.741 218.657C179.662 219.358 178.439 219.806 177.163 219.969C176.718 220.089 176.254 220.118 175.797 220.054C175.015 219.889 174.459 219.213 173.977 218.572C172.083 216.062 170.241 213.41 169.441 210.366C168.307 205.954 169.441 201.224 171.409 197.101C172.116 195.439 173.147 193.936 174.442 192.678C176.042 191.361 177.964 190.496 180.01 190.174C182.102 189.753 184.67 188.856 184.823 191.406C185.047 196.301 184.968 201.205 184.585 206.09Z" fill="#65617D"/>
<path d="M215.955 99.3577C219.868 101.385 224.211 103.963 225.027 108.296C225.532 110.942 224.562 113.65 224.721 116.342C224.863 118.71 225.855 120.998 225.73 123.361C225.598 124.477 225.409 125.586 225.163 126.683C224.829 128.778 225.027 130.913 224.942 133.031C224.755 137.801 223.162 142.389 222.391 147.097C221.845 150.458 221.717 153.874 222.011 157.267C222.198 159.459 222.578 161.639 222.578 163.843C222.578 165.429 222.447 167.013 222.187 168.578C221.427 173.496 219.896 178.262 217.651 182.701C214.923 188.078 215.309 195.017 215.598 201.042C215.725 201.873 215.618 202.722 215.292 203.495C214.578 204.796 212.797 204.983 211.323 204.858C205.856 204.358 200.786 201.787 197.148 197.669C196.618 197.152 196.258 196.484 196.116 195.756C195.992 194.54 196.967 193.541 197.67 192.536C200.063 189.129 199.456 184.512 199.739 180.327C199.946 177.282 200.673 174.296 201.888 171.497C202.591 169.879 203.47 168.283 203.629 166.523C203.776 164.882 203.277 163.258 202.784 161.69L201.083 156.285C198.447 147.886 195.793 139.436 191.802 131.594C189.183 133.301 187.308 135.939 186.557 138.976C185.071 144.326 187.186 150.299 185.162 155.444C184.827 156.157 184.548 156.896 184.329 157.653C184.21 158.306 184.164 158.971 184.193 159.635C184.245 165.17 184.582 170.699 185.202 176.199C185.232 177.032 185.466 177.845 185.882 178.567C186.217 179.05 186.704 179.407 187.062 179.867C188.054 181.156 187.867 182.962 187.629 184.569L186.495 192.167C186.474 192.552 186.347 192.924 186.126 193.24C185.859 193.499 185.525 193.68 185.162 193.763C181.559 194.883 177.761 195.231 174.015 194.785C172.91 194.654 171.906 193.91 170.982 193.286C170.885 192.15 172.297 191.395 172.348 190.265C172.293 189.595 171.983 188.973 171.481 188.527C169.372 186.142 166.854 183.609 166.877 180.424C166.877 179.589 167.075 178.754 167.047 177.92C166.973 175.779 165.499 173.945 164.983 171.883C164.348 169.334 165.193 166.688 165.516 164.081C165.958 160.572 165.437 157.017 164.949 153.513L163.05 140.657C162.829 138.662 162.434 136.69 161.87 134.763C161.155 132.866 160.316 131.019 159.359 129.232C157.544 125.541 156.053 121.703 154.567 117.875C154.095 116.835 153.798 115.724 153.689 114.587C153.604 112.64 154.607 110.8 155.855 109.301C158.191 106.515 161.38 104.579 164.926 103.793C165.519 103.627 166.142 103.602 166.746 103.719C167.254 103.888 167.731 104.139 168.158 104.463C172.541 107.334 177.528 109.149 182.729 109.767C187.93 110.385 193.203 109.788 198.135 108.023C198.702 108.455 199.751 108.267 200.403 107.961C202.223 107.126 203.708 105.735 205.307 104.553C208.284 102.293 212.298 100.147 215.955 99.3577Z" fill="#3F3D56"/>
<path d="M98.4355 245.187C98.7365 246.057 99.1896 246.866 99.7736 247.577C101.826 250.258 104.689 252.398 106.01 255.527C106.288 256.197 106.492 256.901 106.748 257.583C107.523 259.639 108.788 261.476 110.433 262.932C111.687 263.975 113.05 264.879 114.498 265.629C117.004 266.998 119.715 268.236 122.561 268.162C123.133 268.15 123.703 268.081 124.262 267.957C125.148 267.774 126.002 267.46 126.796 267.026C128.628 266.015 130.198 264.039 129.835 261.978C129.762 261.585 129.638 261.203 129.467 260.842C129.166 260.268 128.819 259.719 128.429 259.201C127.471 257.872 126.484 256.51 125.084 255.658C123.508 254.693 121.523 254.454 120.106 253.262C119.546 252.755 119.063 252.169 118.671 251.524C117.387 249.546 116.429 247.374 115.836 245.09C115.405 243.387 115.116 241.518 113.875 240.269C112.633 239.02 110.926 238.736 109.271 238.452C108.711 238.337 108.141 238.281 107.57 238.287C106.759 238.316 105.92 238.549 105.16 238.168C104.4 237.788 104.145 237.248 103.227 237.322C102.495 237.421 101.806 237.722 101.236 238.191C99.0818 239.786 97.653 242.626 98.4355 245.187Z" fill="#3F3D56"/>
<path d="M118.581 247.771C118.949 249.696 119.516 251.745 121.002 253C121.949 253.818 123.27 254.329 123.74 255.482C124.211 256.635 123.604 258.083 122.822 259.139C121.823 260.474 120.584 261.612 119.17 262.495C117.968 263.239 116.534 263.807 115.156 263.477C114.022 263.21 113.126 262.393 112.281 261.603C110.342 259.803 108.358 257.935 107.269 255.522C106.135 252.978 106.079 250.031 104.842 247.526C104.122 246.067 103.011 244.789 102.575 243.222C102.379 242.656 102.379 242.04 102.575 241.473C102.786 241.068 103.106 240.729 103.498 240.496C103.891 240.262 104.341 240.142 104.797 240.15C105.71 240.181 106.61 240.373 107.456 240.718C110.016 241.632 112.636 242.366 115.298 242.915C116.358 243.114 116.999 243.108 117.566 244.136C118.09 245.288 118.432 246.514 118.581 247.771Z" fill="#FBBEBE"/>
<path d="M125.158 264.045C124.738 264.689 124.44 265.405 124.279 266.157C124.145 266.742 124.124 267.347 124.217 267.94C125.103 267.756 125.957 267.443 126.751 267.009C128.583 265.998 130.153 264.022 129.79 261.961C129.717 261.568 129.593 261.186 129.422 260.825C129.151 260.764 128.869 260.776 128.605 260.859C128.34 260.942 128.102 261.092 127.914 261.297C126.858 262.063 125.928 262.991 125.158 264.045Z" fill="#FBBEBE"/>
<path d="M104.838 220.9C104.591 221.432 104.518 222.028 104.628 222.603C104.889 223.739 106.051 224.392 107.1 224.909L117.073 229.792C117.765 230.113 118.439 230.471 119.092 230.866C120.793 231.91 122.131 233.387 123.583 234.738C125.034 236.09 126.65 237.356 128.572 237.833C130.491 238.254 132.496 237.991 134.242 237.089C135.183 236.62 136.056 236.026 136.839 235.323C137.516 234.728 138.142 234.076 138.71 233.376C139.197 232.86 139.547 232.229 139.725 231.541C139.912 230.502 139.396 229.48 138.795 228.623C138.449 228.128 138.07 227.658 137.661 227.214C133.879 223.029 127.682 220.86 122.352 220.008C120.232 219.668 118.219 218.873 116.178 218.225C114.136 217.578 111.976 217.09 109.856 217.391C107.735 217.692 105.649 218.912 104.838 220.9Z" fill="#3F3D56"/>
<path opacity="0.1" d="M104.838 220.9C104.591 221.432 104.518 222.028 104.628 222.603C104.889 223.739 106.051 224.392 107.1 224.909L117.073 229.792C117.765 230.113 118.439 230.471 119.092 230.866C120.793 231.91 122.131 233.387 123.583 234.738C125.034 236.09 126.65 237.356 128.572 237.833C130.491 238.254 132.496 237.991 134.242 237.089C135.183 236.62 136.056 236.026 136.839 235.323C137.516 234.728 138.142 234.076 138.71 233.376C139.197 232.86 139.547 232.229 139.725 231.541C139.912 230.502 139.396 229.48 138.795 228.623C138.449 228.128 138.07 227.658 137.661 227.214C133.879 223.029 127.682 220.86 122.352 220.008C120.232 219.668 118.219 218.873 116.178 218.225C114.136 217.578 111.976 217.09 109.856 217.391C107.735 217.692 105.649 218.912 104.838 220.9Z" fill="black"/>
<path d="M129.796 224.017C130.562 224.88 131.193 225.855 131.667 226.908C132.093 227.598 132.244 228.422 132.092 229.219C131.869 229.755 131.512 230.224 131.054 230.582L130.062 231.502C129.762 231.814 129.414 232.075 129.03 232.274C128.487 232.478 127.908 232.565 127.329 232.529C125.997 232.529 124.562 232.529 123.479 231.729C122 230.661 121.733 228.452 122.408 226.754C123.082 225.057 124.494 223.773 125.917 222.626C127.074 221.689 128.985 223.16 129.796 224.017Z" fill="#FBBEBE"/>
<path d="M135.851 229.889C135.668 230.831 135.756 231.806 136.106 232.7C136.356 233.551 136.6 234.403 136.843 235.272C136.843 235.272 136.843 235.272 136.843 235.306C137.521 234.711 138.147 234.059 138.714 233.358C139.202 232.843 139.551 232.212 139.729 231.524C139.916 230.485 139.4 229.463 138.799 228.606C138.453 228.111 138.075 227.641 137.665 227.197C137.399 227.544 137.166 227.884 136.974 228.106C136.478 228.614 136.095 229.222 135.851 229.889Z" fill="#FBBEBE"/>
<path d="M109.799 187.567C108.625 192.507 109.124 197.675 109.748 202.717C110.224 206.556 110.757 210.531 109.623 214.228C109.203 215.608 108.54 217.01 108.795 218.435C109.277 221.121 112.509 222.155 115.185 222.66C115.957 222.857 116.759 222.905 117.549 222.802C118.342 222.586 119.077 222.198 119.704 221.666C123.508 218.897 126.397 215.05 127.999 210.622C129.014 207.658 129.337 204.506 129.649 201.389C130.171 196.142 130.698 190.832 129.932 185.619C129.706 184.086 129.365 182.57 129.224 181.026C129.045 178.339 129.194 175.641 129.666 172.99C130.642 166.424 132.121 159.943 134.088 153.604C128.689 154.322 123.201 153.329 118.394 150.765C119.324 151.265 118.258 159.232 118.145 160.35C117.801 163.685 117.2 166.989 116.347 170.231C114.765 176.29 111.233 181.548 109.799 187.567Z" fill="#3F3D56"/>
<path d="M109.799 187.567C108.625 192.507 109.124 197.675 109.748 202.717C110.224 206.556 110.757 210.531 109.623 214.228C109.203 215.608 108.54 217.01 108.795 218.435C109.277 221.121 112.509 222.155 115.185 222.66C115.957 222.857 116.759 222.905 117.549 222.802C118.342 222.586 119.077 222.198 119.704 221.666C123.508 218.897 126.397 215.05 127.999 210.622C129.014 207.658 129.337 204.506 129.649 201.389C130.171 196.142 130.698 190.832 129.932 185.619C129.706 184.086 129.365 182.57 129.224 181.026C129.045 178.339 129.194 175.641 129.666 172.99C130.642 166.424 132.121 159.943 134.088 153.604C128.689 154.322 123.201 153.329 118.394 150.765C119.324 151.265 118.258 159.232 118.145 160.35C117.801 163.685 117.2 166.989 116.347 170.231C114.765 176.29 111.233 181.548 109.799 187.567Z" fill="#CEDDF9"/>
<path d="M139.237 158.618C141.505 165.2 141.006 172.389 140.025 179.282C139.044 186.176 137.598 193.07 138.024 200.014C138.188 202.74 138.63 205.54 137.837 208.146C137.395 209.418 136.811 210.635 136.096 211.774L118.003 243.108C117.542 243.922 116.886 244.607 116.094 245.103C115.302 245.598 114.399 245.889 113.467 245.948C111.534 246.084 109.635 245.448 107.831 244.738C106.633 244.34 105.52 243.722 104.549 242.915C104.067 242.514 103.69 242.001 103.449 241.422C103.208 240.842 103.111 240.213 103.165 239.588C103.976 234.148 105.195 228.577 106.096 223.12C106.71 219.417 108.047 215.873 110.031 212.689C111.432 210.417 113.155 208.379 114.363 206.016C117.833 199.248 116.631 190.991 113.955 183.87C111.279 176.75 107.293 170.14 105.167 162.86C104.536 160.834 104.176 158.734 104.095 156.614C104.069 154.424 104.474 152.251 105.287 150.218C106.101 148.186 107.306 146.334 108.835 144.768C109.281 144.262 109.844 143.873 110.474 143.633C111.21 143.462 111.978 143.475 112.708 143.672C122.783 145.631 135.909 148.897 139.237 158.618Z" fill="#CEDDF9"/>
<path d="M301.867 60.3633C302.195 62.8505 301.3 65.3661 300.024 67.5182C295.199 75.5817 284.075 79.1478 275.473 75.3943C271.93 73.8441 268.93 71.2887 265.993 68.7675C265.007 67.9157 263.98 67.0242 263.481 65.8204C262.603 63.6909 263.663 61.1526 265.392 59.6308C267.122 58.109 269.361 57.3594 271.589 56.6837C278.943 54.3896 300.115 47.1552 301.867 60.3633Z" fill="#FBBEBE"/>
<path d="M297.562 52.4702C304.258 57.8648 314.005 63.0038 321.591 67.0014C324.171 68.3643 327.034 69.8975 327.964 72.6799C328.463 74.1677 328.299 75.7861 328.134 77.3533C327.817 80.3686 327.488 83.4293 326.325 86.2288C324.959 89.5053 322.544 92.2083 320.604 95.1838C317.203 100.397 315.207 106.541 311.005 111.146C313.84 120.578 316.942 129.999 317.951 139.788C318.007 140.058 317.977 140.338 317.866 140.589C317.75 140.754 317.599 140.892 317.424 140.992L310.37 145.626C309.601 146.075 308.913 146.651 308.335 147.329C307.087 148.953 307.252 151.236 306.481 153.127C306.058 154.05 305.453 154.878 304.703 155.561C303.953 156.244 303.073 156.768 302.115 157.102C300.187 157.767 298.134 157.985 296.111 157.738C293.534 157.576 291.053 156.701 288.944 155.211C287.146 153.848 285.865 151.935 284.629 150.049C283.713 148.764 282.952 147.374 282.361 145.91C281.607 143.82 281.562 141.543 281.59 139.317C281.609 135.081 282.013 130.856 282.798 126.694C283.126 125.041 283.535 123.412 283.795 121.748C284.317 118.397 284.215 114.979 284.601 111.612C285.127 107.824 285.971 104.088 287.124 100.442C287.754 98.1839 288.247 95.8893 288.598 93.5711C289.261 89.4939 290.582 85.5587 291.903 81.6463L294.171 74.94C294.653 73.492 295.141 72.0496 295.714 70.6357C296.78 67.9952 298.152 65.4228 298.515 62.6063C298.917 59.5342 295.606 55.8886 296.723 53.004C296.814 52.686 297.307 52.2658 297.562 52.4702Z" fill="#3F3D56"/>
<path d="M326.15 71.0957C327.721 71.8055 328.588 73.4977 329.15 75.1331C330.415 78.8188 330.719 82.7671 330.034 86.6037C329.812 87.5681 329.661 88.5474 329.58 89.5338C329.592 90.6771 329.704 91.8171 329.915 92.9408C330.482 97.2849 329.915 101.697 330.102 106.081C330.295 111.01 331.366 116.217 329.303 120.697C327.93 123.673 325.334 125.887 322.771 127.898C313.23 135.345 302.702 141.43 291.49 145.978C293.424 143.65 293.458 140.146 292.17 137.403C290.883 134.661 288.491 132.599 285.934 130.998C289.188 130.274 292.34 129.146 295.317 127.642C301.259 124.621 306.351 120.198 311.38 115.819C312.122 115.285 312.699 114.553 313.047 113.707C313.557 112.004 312.151 110.385 311.176 108.892C308.222 104.349 308.908 98.4149 310.144 93.1566C311.522 87.393 313.546 81.652 317.237 77.0184C319.539 74.1223 322.544 71.8964 326.15 71.0957Z" fill="#3F3D56"/>
<path d="M290.99 146.12C290.481 146.952 289.819 147.68 289.04 148.266C287.339 149.402 285.003 148.971 283.103 148.164C281.338 147.414 279.71 146.376 278.284 145.092C277.671 144.44 276.947 143.901 276.146 143.502C274.661 142.934 272.586 143.36 271.752 141.992C271.655 141.848 271.608 141.677 271.616 141.503C271.667 141.009 272.314 140.873 272.813 140.845C275.127 140.691 277.374 139.997 279.373 138.817C278.734 138.355 278.188 137.777 277.762 137.114C277.586 136.882 277.49 136.599 277.49 136.307C277.56 135.991 277.733 135.707 277.984 135.501C279.806 133.779 282.099 132.638 284.571 132.226C287.043 131.813 289.582 132.147 291.863 133.184C292.309 133.365 292.7 133.658 292.997 134.036C293.207 134.384 293.348 134.77 293.411 135.172C293.78 136.762 295.112 139.147 294.63 140.754C294.097 142.599 292.085 144.558 290.99 146.12Z" fill="#FBBEBE"/>
<path d="M252.328 138.959C259.381 130.799 262.534 120.061 265.459 109.675L267.552 102.293L272.598 84.5139C273.341 81.8905 274.083 79.267 274.577 76.5924C275.421 71.9758 275.501 67.257 275.45 62.5666C275.378 60.6222 274.933 58.7098 274.14 56.9335C273.647 55.7069 273.409 54.4009 273.006 53.1346C272.494 51.3692 271.728 49.6878 270.732 48.1432C270.455 47.684 270.109 47.2703 269.706 46.9166C269.008 46.4417 268.218 46.1205 267.387 45.974C265.585 45.4373 263.717 45.1525 261.836 45.1279C259.954 45.1961 258.015 45.8491 256.802 47.2801C255.877 48.376 255.452 49.7956 254.721 51.0279C254.38 51.5324 254.072 52.0577 253.796 52.6008C253.485 53.4259 253.312 54.2971 253.286 55.1789C252.991 58.7563 252.74 62.3375 252.532 65.9225C252.436 67.5523 252.351 69.1934 252.413 70.8288C252.464 72.1007 252.6 73.367 252.736 74.6333L254.08 87.0352C254.392 89.9482 254.171 92.6739 254.431 95.5926C255.067 102.64 253.553 109.687 251.999 116.603C251.256 119.891 250.491 123.224 248.903 126.2C247.503 128.835 245.405 131.509 245.961 134.445C246.153 135.467 246.669 136.421 246.749 137.454C246.71 138.094 246.773 138.737 246.936 139.357C247.167 139.778 247.526 140.116 247.962 140.32C248.397 140.524 248.885 140.584 249.357 140.492C250.48 140.295 251.516 139.76 252.328 138.959Z" fill="#3F3D56"/>
<path d="M253.191 106.302C253.406 107.932 253.242 109.585 253.321 111.226C253.499 113.339 253.879 115.431 254.455 117.472C255.022 119.743 255.748 122.287 257.749 123.548C258.251 123.809 258.731 124.111 259.184 124.451C259.407 124.627 259.571 124.867 259.654 125.139C259.737 125.411 259.735 125.702 259.649 125.973L258.089 125.711C258.266 125.847 258.413 126.018 258.519 126.214C258.625 126.41 258.689 126.627 258.706 126.849C258.723 127.071 258.693 127.295 258.618 127.505C258.543 127.715 258.424 127.906 258.27 128.067C258.116 128.228 257.929 128.355 257.723 128.438C257.516 128.522 257.295 128.561 257.072 128.553C256.85 128.545 256.631 128.49 256.431 128.392C256.232 128.294 256.055 128.154 255.912 127.983C255.971 128.494 255.923 129.013 255.77 129.505C255.692 129.746 255.54 129.957 255.338 130.11C255.135 130.262 254.89 130.348 254.637 130.356C254.343 130.311 254.064 130.194 253.826 130.016L249.755 127.489C248.535 126.831 247.52 125.849 246.823 124.65L245.043 121.964C244.651 121.446 244.339 120.872 244.119 120.26C243.456 117.989 245.31 115.467 244.346 113.327C244.056 112.799 243.716 112.301 243.331 111.839C241.273 109 241.403 105.138 241.63 101.618C241.704 100.431 241.919 99.0226 242.991 98.5058C243.841 98.0913 244.862 98.4604 245.65 98.9771C246.438 99.4939 247.135 100.175 248.031 100.482C248.598 100.675 249.222 100.698 249.789 100.902C250.583 101.18 251.32 102.265 251.853 102.907C252.606 103.891 253.07 105.068 253.191 106.302Z" fill="#FBBEBE"/>
<path d="M203.506 55.2698C203.024 56.3769 202.348 57.3886 201.51 58.2567C201.088 58.6904 200.572 59.0192 200 59.2164C199.429 59.4137 198.82 59.4739 198.221 59.3924C196.962 59.1425 196.038 58.1033 195.205 57.121C193.028 54.56 190.822 51.9649 189.359 48.9326C187.125 44.316 186.768 39.0463 186.445 33.93C186.365 32.6126 186.297 31.2157 186.927 30.063C187.726 28.5922 189.421 27.8995 190.986 27.3146L199.633 24.0778C200.163 23.8265 200.749 23.7188 201.334 23.7655C202.689 23.9927 203.188 25.6281 203.557 26.9512C204.216 29.3287 205.312 31.5625 206.788 33.5382C208.727 36.1276 213.076 39.6142 210.593 42.8453C207.594 46.718 205.688 50.8974 203.506 55.2698Z" fill="#BE6F72"/>
<path d="M214.567 40.4945C218.355 44.0606 219.636 49.6142 219.455 54.81C219.273 60.0058 217.833 65.071 217.011 70.2044C216.189 75.3377 216.024 80.8175 218.253 85.5363C219.018 87.1547 220.061 88.6538 220.594 90.363C221.041 92.0523 221.193 93.8064 221.042 95.5475C221.033 97.3829 220.683 99.2006 220.01 100.908C218.803 103.588 216.319 105.451 213.944 107.154C209.096 110.664 204.152 114.23 198.459 116.064C194.604 117.307 190.521 117.716 186.484 117.938C183.751 118.156 181.002 118.078 178.286 117.705C173.534 116.912 169.167 114.596 165.84 111.107C165.261 110.544 164.783 109.885 164.428 109.159C164.082 108.214 163.915 107.212 163.935 106.206C163.799 102.477 163.822 98.7482 164.003 95.0194C164.107 91.4657 164.596 87.9339 165.46 84.4858C166.543 80.5108 168.42 76.7857 169.843 72.913C174.799 59.4493 174.3 44.1287 181.183 31.5566C182.668 28.8422 185.152 25.986 188.214 26.4175C188.803 26.453 189.357 26.7083 189.767 27.133C190.119 27.6499 190.316 28.2568 190.334 28.882C191.066 34.9921 192.103 41.2611 194.978 46.7749C196.112 48.9384 197.813 52.2319 200.427 52.8111C203.04 53.3904 204.583 50.8918 205.983 49.1201C208.444 45.8712 211.331 42.9698 214.567 40.4945Z" fill="white"/>
<path d="M232.694 31.3008C233.467 31.719 234.188 32.2259 234.843 32.8113C236.544 34.424 237.168 36.8941 237.157 39.2337C237.145 41.5732 236.59 43.8787 236.249 46.1955C235.337 52.4418 236.113 58.8358 236.476 65.1616C236.587 66.183 236.525 67.2157 236.295 68.2167C236.017 69.1707 235.444 70.0111 235.076 70.9367C233.993 73.6737 234.809 76.7969 234.174 79.6702C233.494 82.7309 231.163 85.5133 231.6 88.6195C231.776 89.8347 232.36 90.9533 232.609 92.1572C232.859 93.361 232.643 94.8147 231.606 95.4621C230.568 96.1094 229.06 95.6381 227.824 95.9958C227.322 96.1815 226.833 96.4016 226.361 96.6545C224.45 97.5177 222.171 97.2224 220.289 96.2798C218.444 95.2713 216.785 93.9537 215.384 92.3843C213.224 90.1697 211.132 87.745 210.185 84.7979C208.801 80.5276 210.032 75.877 211.534 71.6408C213.037 67.4047 214.829 63.1231 214.562 58.62C214.415 56.0988 213.621 53.6741 213.145 51.1983C212.555 47.768 212.344 44.2831 212.515 40.8066C212.589 38.2627 212.759 35.6392 213.853 33.3394C214.633 31.8053 215.786 30.4919 217.204 29.5196C218.623 28.5473 220.262 27.9473 221.973 27.7745C225.942 27.3429 229.343 29.3701 232.694 31.3008Z" fill="#3F3D56"/>
<path opacity="0.1" d="M221.971 86.1891C222.011 88.0061 222.336 89.8055 222.935 91.5212C223.95 89.2044 224.069 86.6036 224.205 84.0824C224.772 75.4 226.694 67.2116 228.741 58.8018C227.249 59.9375 226.41 62.7767 225.696 64.4802C222.861 71.3499 221.588 78.7656 221.971 86.1891Z" fill="black"/>
<path d="M183.75 25.6906C181.018 26.4117 178.648 28.0358 176 29.0977C173.25 30.2334 170.29 30.716 167.404 31.4145C160.725 33.0385 154.018 36.0538 149.986 41.6358C147.015 45.7413 145.785 50.8122 143.749 55.4629C142.048 59.364 139.78 63.0209 138.527 67.0811C136.889 72.3791 137.076 78.0576 137.478 83.5884C137.807 88.1312 138.306 92.7251 140.364 96.7512C141.442 98.8636 142.927 100.754 144.004 102.867C145.297 105.405 145.978 108.205 147.055 110.817C148.132 113.429 149.714 116.041 152.214 117.404L156.353 114.979C162.528 111.362 168.703 107.739 174.684 103.81C179.901 100.402 185.162 96.4899 187.94 90.891C190.401 85.945 190.645 80.1643 190.01 74.6732C189.375 69.1821 187.923 63.8102 187.175 58.3362C186.222 51.4464 186.365 44.4488 187.6 37.604C188.167 34.5149 189.675 31.3236 189.987 28.2459C190.333 24.958 186.115 25.0659 183.75 25.6906Z" fill="#3F3D56"/>
<path d="M158.163 115.961C161.332 118.965 165.891 119.84 169.854 121.64C172.799 123.009 175.45 124.938 177.661 127.318C178.88 128.658 180.06 130.481 179.447 132.185C178.931 133.65 177.349 134.399 175.898 134.945C174.095 135.626 172.082 136.228 170.285 135.541C169.23 135.138 168.38 134.331 167.41 133.758C165.034 132.344 162.041 132.338 159.603 131.032C156.167 129.192 154.454 125.144 151.223 122.957C149.454 121.765 147.01 120.788 146.828 118.659C146.82 117.889 146.983 117.126 147.305 116.427C147.957 114.689 149.068 108.721 151.551 108.88C154.256 109.056 156.15 114.525 158.163 115.961Z" fill="#FBBEBE"/>
<path d="M141.555 89.3465C142.593 93.0829 145.003 96.2685 147.503 99.2327C149.3 101.362 151.274 103.679 151.336 106.467C151.393 109.102 149.635 111.527 147.367 112.872C145.099 114.218 142.428 114.65 139.803 114.82C137.703 115.023 135.584 114.875 133.532 114.383C128.35 112.975 124.755 108.449 120.679 104.951C118.258 102.878 115.536 101.073 113.682 98.4775C111.828 95.8824 111.046 92.1573 112.871 89.5395C113.53 88.691 114.292 87.928 115.139 87.2681C118.236 84.5794 120.876 81.4056 122.958 77.8702C123.797 76.4449 124.602 74.9004 126.014 74.0429C128.038 72.8107 130.635 73.3729 132.926 73.9748C135.415 74.6278 142.428 75.9055 142.916 79.0854C143.115 80.3915 141.499 82.4244 141.255 83.827C140.945 85.6663 141.047 87.5518 141.555 89.3465Z" fill="#FBBEBE"/>
<path d="M154.374 96.4672C155.117 97.8154 155.728 99.2321 156.2 100.698C157.929 106.717 154.839 112.918 153.365 119.005C151.482 126.802 152.282 134.956 152.191 142.98C152.152 146.648 151.76 150.685 149.124 153.229C148.443 153.877 147.627 154.422 147.168 155.24C146.884 155.839 146.673 156.47 146.538 157.119C146.136 158.522 145.422 159.816 144.45 160.904C143.478 161.992 142.273 162.845 140.925 163.401C139.577 163.957 138.121 164.201 136.666 164.114C135.211 164.027 133.795 163.612 132.522 162.9C130.373 161.702 128.508 159.623 126.047 159.561C125.274 159.598 124.503 159.684 123.74 159.816C121.29 160.061 118.892 159.152 116.596 158.261C116.048 158.087 115.536 157.814 115.087 157.454C114.674 157.074 114.407 156.563 114.027 156.154C112.627 154.643 110.234 154.905 108.216 154.484C106.709 154.147 105.33 153.387 104.239 152.294C103.148 151.201 102.389 149.82 102.052 148.312C101.644 146.358 101.99 144.337 102.33 142.366L103.85 133.588C104.487 130.367 104.929 127.111 105.171 123.838C105.357 120.138 105.04 116.43 104.23 112.816C103.561 109.863 102.563 106.972 102.2 103.963C101.567 98.5691 102.984 93.1345 106.169 88.7388C106.957 87.6542 107.989 86.5696 109.327 86.4674C110.41 86.3709 111.425 86.9501 112.366 87.5066C120.542 92.3522 128.775 97.0976 137.064 101.743C139.332 103.02 141.651 104.304 144.18 104.934C144.939 105.127 146.028 105.047 146.136 104.275C146.149 103.981 146.072 103.689 145.915 103.44C144.497 100.709 142.445 98.3639 140.812 95.7631C139.179 93.1624 137.92 90.0846 138.402 87.0637C139.06 82.8843 142.938 80.1189 146.107 83.3954C149.662 87.1148 152.044 91.8961 154.374 96.4672Z" fill="#F86D70"/>
<path d="M128.986 149.465C135.636 149.89 142.435 150.345 148.592 152.9C150.571 153.718 152.669 154.774 154.75 154.269C155.785 153.953 156.749 153.436 157.585 152.747C160.148 150.864 162.57 148.795 164.831 146.557C164.604 145.314 162.92 145.143 161.661 145.155C158.592 145.173 155.564 144.444 152.839 143.031C151.943 142.491 150.993 142.048 150.004 141.708C147.311 140.964 144.567 142.383 141.862 143.076C137.859 144.098 133.641 143.502 129.553 142.9L118.519 141.271C117.493 141.123 116.336 141.004 115.52 141.64C114.974 142.156 114.6 142.828 114.448 143.565C113.099 148.107 113.745 148.488 118.236 148.772L128.986 149.465Z" fill="#FBBEBE"/>
<path opacity="0.1" d="M279.646 70.6243C289.666 70.6243 297.789 62.4888 297.789 52.4531C297.789 42.4175 289.666 34.282 279.646 34.282C269.625 34.282 261.502 42.4175 261.502 52.4531C261.502 62.4888 269.625 70.6243 279.646 70.6243Z" fill="black"/>
<path d="M279.515 69.8352C289.535 69.8352 297.658 61.6997 297.658 51.6641C297.658 41.6284 289.535 33.4929 279.515 33.4929C269.494 33.4929 261.371 41.6284 261.371 51.6641C261.371 61.6997 269.494 69.8352 279.515 69.8352Z" fill="#FBBEBE"/>
<path d="M294.829 28.5922C296.281 29.4894 297.8 30.4547 298.594 31.9652C299.021 32.9907 299.345 34.0558 299.563 35.1452C300.556 38.5523 303.198 41.5107 303.357 45.0598C303.532 48.9496 300.618 52.3283 297.318 54.3669C296.565 54.9228 295.657 55.2286 294.721 55.2413C293.763 55.1789 292.935 54.577 292.057 54.1908C288.331 52.5327 284.164 54.6337 280.218 55.5991C276.117 56.5909 271.814 56.3379 267.857 54.8722C265.731 54.0772 263.667 52.8848 262.335 51.0393C261.002 49.1938 260.526 46.61 261.66 44.6282C262.227 43.6175 263.168 42.7032 263.106 41.5505C263.072 40.8577 262.664 40.2331 262.539 39.5517C262.358 38.4671 262.925 37.4109 263.503 36.4853C266.127 32.2562 269.443 28.4995 273.312 25.3725C274.446 24.4412 275.756 23.5327 277.241 23.4645C280.223 23.3339 282.786 25.5599 285.854 25.5712C289.335 25.5826 291.835 26.741 294.829 28.5922Z" fill="#3F3D56"/>
<path opacity="0.1" d="M212.724 47.8254C223.058 47.8254 231.435 39.4357 231.435 29.0864C231.435 18.7372 223.058 10.3474 212.724 10.3474C202.391 10.3474 194.014 18.7372 194.014 29.0864C194.014 39.4357 202.391 47.8254 212.724 47.8254Z" fill="black"/>
<path d="M213.052 47.3652C223.386 47.3652 231.763 38.9755 231.763 28.6262C231.763 18.2769 223.386 9.88721 213.052 9.88721C202.719 9.88721 194.342 18.2769 194.342 28.6262C194.342 38.9755 202.719 47.3652 213.052 47.3652Z" fill="#BE6F72"/>
<path d="M223.049 39.2111C225.691 40.6932 228.951 40.5398 231.899 39.8641C233.572 39.5494 235.157 38.8794 236.549 37.8993C237.24 37.4046 237.81 36.7591 238.216 36.0115C238.621 35.2639 238.852 34.4337 238.89 33.5837C238.89 31.6814 237.643 29.9665 237.49 28.0642C237.303 25.6679 238.862 23.4533 239.026 21.0456C239.191 18.6379 238.006 16.4687 236.849 14.4018C234.859 10.8527 232.79 7.25822 229.762 4.5439C226.734 1.82959 222.538 0.0976483 218.569 1.01188C216.619 1.46049 214.81 2.51101 212.82 2.71543C211.051 2.88011 209.305 2.34633 207.542 2.11919C205.778 1.89205 203.799 2.03401 202.535 3.25489C201.843 3.93631 201.401 4.89597 200.59 5.39568C200.04 5.64966 199.472 5.8604 198.889 6.02599C196.842 6.84937 195.907 9.16051 195.181 11.2388L190.316 25.2022C191.944 26.3379 193.905 26.8547 195.686 27.7292C197.466 28.6037 199.195 30.0006 199.558 31.954C199.836 33.436 199.309 35.1396 200.171 36.3775C200.959 37.5132 202.563 37.7063 203.924 37.5132C205.285 37.3201 206.651 36.8488 208.012 37.0589C211.414 37.5757 212.678 39.6653 215.825 37.0589C218.972 34.4525 220.123 37.5643 223.049 39.2111Z" fill="#3F3D56"/>
<path opacity="0.1" d="M133.539 87.921C142.933 87.921 150.549 80.294 150.549 70.8856C150.549 61.4771 142.933 53.8501 133.539 53.8501C124.145 53.8501 116.529 61.4771 116.529 70.8856C116.529 80.294 124.145 87.921 133.539 87.921Z" fill="black"/>
<path d="M134.197 86.9955C143.591 86.9955 151.207 79.3685 151.207 69.96C151.207 60.5516 143.591 52.9246 134.197 52.9246C124.803 52.9246 117.188 60.5516 117.188 69.96C117.188 79.3685 124.803 86.9955 134.197 86.9955Z" fill="#FBBEBE"/>
<path d="M147.219 53.3049C143.17 50.1933 138.62 47.7966 133.765 46.2182C130.658 45.2074 127.278 44.5146 124.126 45.4459C119.851 46.6668 114.13 48.4896 111.482 52.0727C110.178 53.833 108.857 55.6445 108.228 57.7512C106.969 61.9873 108.761 66.5017 108.642 70.9196C108.5 76.07 105.773 80.7718 102.796 84.9738C99.8192 89.1759 99.2182 95.1951 97.4605 100.045C96.8595 101.708 96.6667 104.019 98.2146 104.854C99.5754 105.609 101.22 104.667 102.478 103.758L110.048 98.2785C110.636 97.7942 111.314 97.4313 112.043 97.211C113.603 96.8476 115.128 97.8243 116.432 98.7498L132.308 109.993C132.621 109.352 132.791 108.649 132.803 107.934C132.816 107.22 132.672 106.512 132.381 105.859C133.873 106.319 134.955 107.563 136.265 108.449C137.575 109.335 139.565 109.624 140.518 108.386C141.47 107.148 140.75 105.485 139.69 104.485C138.63 103.486 137.235 102.889 136.197 101.862C134.139 99.8117 133.929 96.575 132.631 93.9856C131.701 92.1685 130.198 90.6466 129.541 88.7103C128.469 85.5474 129.87 82.1403 131.242 79.0966C132.88 75.4851 134.734 71.6294 138.221 69.7441C139.395 69.1081 140.693 68.7334 141.895 68.1542C144.889 66.7175 148.626 63.3274 150.088 60.2895C151.37 57.5922 149.397 54.9857 147.219 53.3049Z" fill="#3F3D56"/>
<path opacity="0.1" d="M121.472 109.601C123.099 110.641 124.936 111.305 126.535 112.39C128.134 113.474 129.535 115.121 129.58 117.052C129.625 118.897 128.446 120.515 127.312 121.981L113.5 140.135L120.542 142.003C119.408 143.57 119.119 145.569 118.529 147.409C117.94 149.249 116.828 151.162 114.946 151.645C113.245 152.082 111.465 151.185 109.707 151.287C108.409 151.367 107.184 151.98 105.886 152.031C104.213 152.094 102.659 151.213 101.265 150.282C98.1576 148.198 95.0731 145.211 95.0958 141.463C95.1694 140.196 95.4233 138.945 95.8499 137.75C97.8854 131.1 99.9946 124.292 104.213 118.761C106.481 115.808 109.254 113.315 112.026 110.839C112.657 110.204 113.398 109.69 114.215 109.323C116.029 108.642 118.008 109.482 119.885 110.027C121.761 110.572 124.126 110.652 125.209 109.045" fill="black"/>
<path d="M120.877 108.483C122.504 109.516 124.341 110.187 125.94 111.271C127.539 112.356 128.939 114.002 128.99 115.927C129.041 117.852 127.856 119.397 126.722 120.862L112.905 138.999L119.947 140.867C118.813 142.435 118.524 144.428 117.934 146.273C117.344 148.119 116.233 150.027 114.351 150.509C112.65 150.947 110.869 150.049 109.112 150.152C107.813 150.226 106.589 150.844 105.29 150.89C103.618 150.952 102.064 150.072 100.669 149.141C97.5621 147.063 94.4777 144.07 94.5061 140.328C94.574 139.06 94.8261 137.809 95.2545 136.614C97.29 129.959 99.3992 123.15 103.618 117.625C105.886 114.667 108.664 112.174 111.431 109.675C112.064 109.043 112.805 108.53 113.619 108.159C115.434 107.478 117.412 108.318 119.289 108.869C121.166 109.42 123.53 109.494 124.613 107.887" fill="#F86D70"/>
<g opacity="0.1">
<path opacity="0.1" d="M262.925 47.2745C264.257 49.12 266.327 50.3181 268.447 51.1074C272.403 52.5789 276.707 52.832 280.807 51.8343C284.776 50.8689 288.921 48.7679 292.646 50.426C293.525 50.8178 294.347 51.4141 295.305 51.4822C296.243 51.4653 297.152 51.1578 297.908 50.6021C300.204 49.1824 302.313 47.1155 303.323 44.6794C303.323 44.8043 303.323 44.9293 303.357 45.0599C303.532 48.9496 300.618 52.3283 297.318 54.3669C296.565 54.9229 295.657 55.2287 294.721 55.2414C293.763 55.1789 292.935 54.577 292.057 54.1909C288.331 52.5327 284.164 54.6338 280.218 55.5991C276.117 56.591 271.814 56.338 267.857 54.8723C265.731 54.0773 263.667 52.8848 262.335 51.0393C261.002 49.1938 260.526 46.6101 261.66 44.6283L261.745 44.4863C261.929 45.4913 262.331 46.4433 262.925 47.2745Z" fill="black"/>
<path opacity="0.1" d="M263.68 37.7858C263.725 38.6603 263.198 39.3928 262.693 40.1367C262.623 39.9523 262.568 39.7624 262.529 39.5689C262.358 38.5524 262.846 37.5644 263.385 36.6729C263.539 37.0266 263.639 37.4019 263.68 37.7858Z" fill="black"/>
</g>
<path opacity="0.1" d="M196.508 9.38743L191.643 23.3452C193.27 24.4809 195.232 25.0033 197.012 25.8721C198.793 26.7409 200.522 28.1435 200.885 30.0969C201.163 31.579 200.635 33.2825 201.497 34.5261C202.285 35.6618 203.89 35.8492 205.251 35.6618C206.611 35.4744 207.978 34.9974 209.339 35.2075C212.74 35.7243 214.005 37.8139 217.152 35.2359C220.298 32.6579 221.438 35.7186 224.364 37.3653C227.006 38.8531 230.266 38.6998 233.214 38.0184C234.886 37.7054 236.471 37.0374 237.864 36.0593C238.062 35.8972 238.251 35.7247 238.431 35.5425C237.997 36.4732 237.343 37.284 236.526 37.9048C235.134 38.8849 233.548 39.5548 231.876 39.8696C228.928 40.5453 225.639 40.6986 223.026 39.2165C220.1 37.5698 218.898 34.5658 215.814 37.0871C212.729 39.6083 211.391 37.5754 208 37.0871C206.64 36.877 205.279 37.3483 203.912 37.5414C202.546 37.7344 200.947 37.5414 200.159 36.4057C199.297 35.1678 199.824 33.4642 199.547 31.9821C199.184 30.0287 197.454 28.6261 195.674 27.7573C193.894 26.8885 191.932 26.3604 190.305 25.2304L195.192 11.2329C195.759 9.69407 196.383 8.03027 197.517 6.93433C197.124 7.72756 196.787 8.54725 196.508 9.38743Z" fill="black"/>
<g opacity="0.1">
<path opacity="0.1" d="M133.645 106.473C134.898 107.041 136.48 107.126 137.274 106.064C138.164 104.928 137.507 103.168 136.446 102.163C135.386 101.158 133.991 100.567 132.954 99.5393C130.896 97.4951 130.686 94.2583 129.387 91.6689C128.457 89.8461 126.955 88.3243 126.297 86.3879C125.226 83.2307 126.626 79.8179 127.998 76.7799C129.637 73.1684 131.491 69.3127 134.978 67.4275C136.152 66.7915 137.45 66.4167 138.652 65.8375C141.646 64.4008 145.382 61.0051 146.845 57.9671C148.075 55.4061 146.34 52.9189 144.276 51.2324C145.28 51.8854 146.261 52.5725 147.213 53.3051C149.396 55.0086 151.364 57.5923 150.048 60.2782C148.586 63.3162 144.849 66.7063 141.855 68.143C140.653 68.7108 139.355 69.0969 138.181 69.7329C134.694 71.6182 132.84 75.4739 131.202 79.0854C129.824 82.1291 128.423 85.5362 129.501 88.6991C130.158 90.6354 131.661 92.1573 132.591 93.9744C133.906 96.5638 134.099 99.8005 136.157 101.85C137.195 102.878 138.59 103.469 139.65 104.474C140.71 105.479 141.351 107.217 140.478 108.375C139.604 109.533 137.529 109.295 136.225 108.438C135.346 107.841 134.547 107.058 133.645 106.473Z" fill="black"/>
<path opacity="0.1" d="M99.2583 101.436L106.828 95.9619C107.416 95.4759 108.094 95.1111 108.823 94.8887C110.383 94.5309 111.908 95.5076 113.212 96.4332L129.088 107.677C129.402 107.034 129.571 106.33 129.584 105.615C129.596 104.9 129.452 104.19 129.161 103.537C130.618 103.991 131.679 105.206 132.943 106.058C132.759 105.975 132.57 105.905 132.376 105.848C132.667 106.501 132.811 107.209 132.798 107.923C132.786 108.638 132.616 109.34 132.302 109.982L116.427 98.7387C115.123 97.8131 113.592 96.8364 112.038 97.1998C111.309 97.4202 110.631 97.783 110.042 98.2674L102.473 103.747C101.214 104.656 99.5701 105.598 98.2094 104.843C97.8372 104.614 97.5317 104.291 97.3237 103.906C97.1157 103.521 97.0124 103.089 97.0244 102.651C97.8275 102.365 98.5811 101.955 99.2583 101.436Z" fill="black"/>
</g>
<path d="M288.366 138.522C288.366 138.522 255.878 141.129 249.414 136.518L279.136 131.929L288.366 138.522Z" fill="#E3E8F4"/>
<path opacity="0.1" d="M288.366 138.522C288.366 138.522 255.878 141.129 249.414 136.518L279.136 131.929L288.366 138.522Z" fill="#CEDDF9"/>
<path d="M288.366 138.522L279.266 132.753C279.266 132.753 252.119 140.566 244.68 137.341L252.249 126.705L279.147 131.958L288.366 138.522Z" fill="white"/>
<path d="M247.996 62.0214C246.992 63.2909 246.187 64.7059 245.609 66.2178C245.348 67.0184 245.217 67.8532 244.996 68.6652C244.374 70.6874 243.416 72.5899 242.161 74.2926C239.366 78.3641 235.874 82.2936 235.17 87.1828C234.83 89.5961 235.204 92.0492 235.681 94.4399C235.939 96.0163 236.388 97.5552 237.019 99.0224C237.739 100.578 238.811 101.947 239.633 103.452C240.384 104.929 241.017 106.463 241.526 108.04C242.496 107.069 243.069 105.768 243.845 104.633C244.622 103.497 245.779 102.475 247.145 102.458C248.721 102.458 250.02 103.764 251.579 103.968C251.822 104.017 252.075 103.994 252.305 103.9C252.872 103.633 252.917 102.867 252.872 102.253C252.424 97.9662 249.975 93.7357 251.131 89.5791C252.197 85.7347 256.007 83.3327 258.009 79.8859C259.46 77.3817 259.891 74.4289 260.277 71.5556C260.759 68.1201 261.246 64.6562 261.031 61.198C260.923 59.4547 259.54 48.4384 257.011 49.5912C256.132 49.9887 255.367 51.6752 254.817 52.4304L252.549 55.6501L247.996 62.0214Z" fill="#3F3D56"/>
<path d="M180.133 133.088L161.893 147.96L138.426 143.758L154.228 131.333L180.133 133.088Z" fill="white"/>
<path opacity="0.1" d="M180.792 132.162L162.552 147.034L139.084 142.832L154.886 130.407L180.792 132.162Z" fill="black"/>
<path d="M180.661 131.373L162.421 146.239L138.947 142.043L154.755 129.613L180.661 131.373Z" fill="white"/>
<path opacity="0.1" d="M181.188 129.652L162.942 144.524L139.475 140.322L155.282 127.898L181.188 129.652Z" fill="black"/>
<path d="M181.051 128.863L162.811 143.735L139.344 139.533L155.146 127.108L181.051 128.863Z" fill="white"/>
<path d="M420.985 332.068C421.415 331.858 421.889 331.757 422.367 331.773C422.846 331.789 423.312 331.922 423.728 332.159C424.143 332.397 424.494 332.733 424.75 333.138C425.006 333.542 425.16 334.003 425.197 334.481L426.212 347.661L420.191 348.751L417.016 339.223L420.985 332.068Z" fill="#3F3D56"/>
<path d="M210.319 243.728L118.167 290.564C117.11 291.104 116.223 291.927 115.606 292.941C114.988 293.956 114.663 295.122 114.668 296.31C114.673 297.498 115.006 298.662 115.632 299.672C116.258 300.681 117.151 301.497 118.212 302.029L316.686 401.783C320.218 403.554 324.129 404.428 328.077 404.329C332.025 404.23 335.888 403.161 339.326 401.215L422.923 354.004C423.937 353.424 424.774 352.578 425.344 351.557C425.913 350.537 426.193 349.379 426.154 348.211C426.115 347.042 425.758 345.906 425.122 344.925C424.485 343.945 423.594 343.157 422.543 342.647L215.984 243.665C215.098 243.24 214.126 243.025 213.144 243.036C212.162 243.047 211.196 243.283 210.319 243.728Z" fill="#3A3768"/>
<path d="M117.549 282.415L114.663 284.562L114.437 294.84C114.418 295.641 114.626 296.431 115.035 297.12C115.444 297.809 116.038 298.369 116.75 298.735L318.615 402.481C319.073 402.718 319.584 402.832 320.1 402.814C320.615 402.796 321.116 402.645 321.557 402.376C321.997 402.108 322.361 401.73 322.613 401.28C322.865 400.83 322.998 400.323 322.998 399.806V384.878L117.549 282.415Z" fill="#3F3D56"/>
<path d="M210.32 231.814L118.167 278.645C117.11 279.183 116.222 280.005 115.603 281.018C114.983 282.032 114.657 283.197 114.66 284.386C114.663 285.574 114.995 286.738 115.619 287.748C116.243 288.759 117.135 289.576 118.196 290.109L316.687 389.863C320.219 391.633 324.13 392.507 328.078 392.408C332.025 392.309 335.888 391.24 339.327 389.296L422.924 342.079C423.938 341.499 424.775 340.654 425.344 339.633C425.914 338.612 426.194 337.454 426.155 336.286C426.116 335.117 425.759 333.981 425.123 333.001C424.486 332.02 423.595 331.232 422.544 330.722L215.984 231.746C215.098 231.322 214.126 231.108 213.144 231.12C212.162 231.131 211.196 231.369 210.32 231.814Z" fill="#CEDDF9"/>
<path d="M229.394 240.315L127.857 291.949L302.371 379.341L407.083 326.111L229.394 240.315Z" fill="white"/>
<path d="M366.23 363.453C372.145 363.453 376.94 360.608 376.94 357.098C376.94 353.589 372.145 350.744 366.23 350.744C360.315 350.744 355.52 353.589 355.52 357.098C355.52 360.608 360.315 363.453 366.23 363.453Z" fill="#3A3768"/>
<path d="M170.893 257.793C171.441 257.793 171.885 257.348 171.885 256.799C171.885 256.25 171.441 255.805 170.893 255.805C170.345 255.805 169.9 256.25 169.9 256.799C169.9 257.348 170.345 257.793 170.893 257.793Z" fill="#3F3D56"/>
<path d="M167.921 265.737C168.579 265.737 169.112 265.203 169.112 264.545C169.112 263.886 168.579 263.352 167.921 263.352C167.264 263.352 166.73 263.886 166.73 264.545C166.73 265.203 167.264 265.737 167.921 265.737Z" fill="#3F3D56"/>
<path d="M172.281 262.557L184.182 256.998" stroke="#3F3D56" stroke-miterlimit="10"/>
<path d="M277.708 288.405L244.112 307.831C239.231 310.653 237.558 316.905 240.376 321.793C243.195 326.682 249.436 328.357 254.318 325.535L287.914 306.108C292.795 303.286 294.468 297.035 291.649 292.146C288.831 287.257 282.589 285.582 277.708 288.405Z" fill="#FC6464"/>
<path d="M307.757 303.738L274.161 323.164C269.279 325.987 267.607 332.238 270.425 337.127C273.243 342.016 279.485 343.691 284.367 340.868L317.963 321.442C322.844 318.619 324.516 312.368 321.698 307.479C318.88 302.591 312.638 300.916 307.757 303.738Z" fill="#FC6464"/>
<path d="M250.491 270.803L216.895 290.229C212.014 293.052 210.341 299.303 213.16 304.192C215.978 309.081 222.22 310.756 227.101 307.933L260.697 288.507C265.578 285.684 267.251 279.433 264.433 274.544C261.614 269.656 255.373 267.981 250.491 270.803Z" fill="#FC6464"/>
</g>
<defs>
<clipPath id="clip0">
<rect width="524" height="465" fill="white" transform="translate(0.794922 0.761963)"/>
</clipPath>
</defs>
</svg>
