<svg width="598" height="514" viewBox="0 0 598 514" fill="none" xmlns="http://www.w3.org/2000/svg">
<g clip-path="url(#clip0)">
<path opacity="0.1" d="M545.135 278.911C521.9 318.493 525.065 371.716 534.115 413.537C537.139 427.538 540.66 442.286 537.525 458.116C533.692 477.446 520.81 492.83 507.897 501.736C484.361 517.976 457.849 518.092 438.868 502.042C422.466 488.169 411.971 463.603 395.201 450.495C367.14 428.566 327.801 443.044 293.434 464.814C269.12 480.217 242.321 499.65 220.34 489.435C204.874 482.247 195.555 461.242 191.465 438.255C189.488 427.159 188.404 415.011 183.536 406.625C180.64 401.639 176.593 398.349 172.387 395.669C133.954 371.202 80.8755 393.461 43.9 365.648C18.9251 346.863 5.28969 307.281 1.38948 264.719C-2.51074 222.158 2.27728 176.435 8.03882 131.372C12.135 99.3624 17.5046 65.0651 33.5953 38.7565C50.6167 10.9247 76.8467 -1.8962 99.3785 0.220239C121.91 2.33667 141.222 17.3475 157.759 35.8081C178.424 58.8932 196.89 88.5355 224.081 95.5515C242.603 100.329 263.059 93.9183 282.909 90.1137C316.088 83.7521 348.661 84.6941 380.996 86.1377C411.953 87.5201 443.087 89.4041 471.736 100.543C492.008 108.428 507.352 125.402 526.228 136.253C538.517 143.324 552.526 143.96 563.914 153.497C577.948 165.247 589.856 187.231 583.593 215.46C577.635 242.32 557.491 257.899 545.135 278.911Z" fill="#FC6464"/>
<path d="M99.6487 403.701C99.6487 403.701 58.7975 336.103 70.2593 275.449C75.078 249.99 71.9798 223.651 60.5486 200.395C55.1067 189.37 48.6652 178.866 41.3047 169.015" stroke="#535461" stroke-width="2" stroke-miterlimit="10"/>
<path d="M48.3341 130.754C50.6914 139.734 41.2623 170.036 41.2623 170.036C41.2623 170.036 18.1488 148.267 15.7854 139.287C14.6487 134.975 15.2732 130.388 17.5214 126.536C19.7697 122.684 23.4576 119.882 27.7738 118.747C32.0901 117.611 36.6811 118.235 40.5369 120.481C44.3927 122.727 47.1974 126.411 48.3341 130.723V130.754Z" fill="#FC6464"/>
<path d="M88.3025 173.437C85.4003 182.258 60.9949 202.572 60.9949 202.572C60.9949 202.572 53.4333 171.749 56.3416 162.929C57.0085 160.803 58.0916 158.831 59.528 157.128C60.9643 155.424 62.7254 154.022 64.7086 153.005C66.6919 151.987 68.8579 151.373 71.0807 151.199C73.3035 151.024 75.5389 151.293 77.6568 151.99C79.7746 152.686 81.7329 153.796 83.4176 155.255C85.1024 156.714 86.4801 158.493 87.4706 160.489C88.4612 162.484 89.0448 164.657 89.1876 166.88C89.3304 169.103 89.0296 171.332 88.3025 173.437Z" fill="#FC6464"/>
<path d="M109.456 258.737C102.495 264.854 71.1582 270.115 71.1582 270.115C71.1582 270.115 80.2077 239.695 87.1693 233.548C90.5231 230.669 94.8768 229.224 99.2885 229.527C103.7 229.83 107.815 231.855 110.743 235.166C113.672 238.476 115.178 242.805 114.936 247.217C114.694 251.628 112.723 255.766 109.45 258.737H109.456Z" fill="#FC6464"/>
<path d="M110.92 326.879C105.097 334.115 75.1016 344.557 75.1016 344.557C75.1016 344.557 78.8732 313.043 84.696 305.813C87.5006 302.364 91.5578 300.166 95.9805 299.697C100.403 299.229 104.832 300.529 108.298 303.314C111.763 306.098 113.985 310.14 114.476 314.556C114.968 318.972 113.689 323.402 110.92 326.879Z" fill="#FC6464"/>
<path d="M27.2824 213.271C35.3706 217.834 67.0805 216.439 67.0805 216.439C67.0805 216.439 51.896 188.565 43.8139 184.02C41.8869 182.868 39.7485 182.112 37.5247 181.799C35.301 181.485 33.0369 181.62 30.866 182.194C28.695 182.768 26.6611 183.771 24.8841 185.143C23.1072 186.515 21.6231 188.228 20.5195 190.182C19.4159 192.136 18.7149 194.291 18.4581 196.52C18.2012 198.749 18.3936 201.007 19.0239 203.16C19.6541 205.314 20.7096 207.319 22.1279 209.059C23.5463 210.799 25.2989 212.237 27.2824 213.289V213.271Z" fill="#FC6464"/>
<path d="M30.0016 292.943C39.0878 294.882 68.9548 284.061 68.9548 284.061C68.9548 284.061 46.129 262.004 37.0245 260.058C32.6603 259.128 28.105 259.968 24.3606 262.393C20.6161 264.818 17.9893 268.63 17.0581 272.989C16.1268 277.349 16.9673 281.9 19.3947 285.641C21.822 289.382 25.6375 292.006 30.0016 292.937V292.943Z" fill="#FC6464"/>
<path d="M43.2811 370.015C51.9081 373.459 83.1772 367.837 83.1772 367.837C83.1772 367.837 64.3986 342.238 55.7716 338.795C51.6695 337.323 47.156 337.5 43.1817 339.287C39.2073 341.074 36.0821 344.332 34.4641 348.375C32.8461 352.418 32.8616 356.931 34.5073 360.962C36.1531 364.994 39.3006 368.231 43.2872 369.99L43.2811 370.015Z" fill="#FC6464"/>
<path d="M48.3341 130.754C50.6914 139.734 41.2623 170.036 41.2623 170.036C41.2623 170.036 18.1488 148.267 15.7854 139.287C14.6487 134.975 15.2732 130.388 17.5214 126.536C19.7697 122.684 23.4576 119.882 27.7738 118.747C32.0901 117.611 36.6811 118.235 40.5369 120.481C44.3927 122.727 47.1974 126.411 48.3341 130.723V130.754Z" fill="#F65252"/>
<path d="M88.3025 173.437C85.4003 182.258 60.9949 202.572 60.9949 202.572C60.9949 202.572 53.4333 171.749 56.3416 162.929C57.0085 160.803 58.0916 158.831 59.528 157.128C60.9643 155.424 62.7254 154.022 64.7086 153.005C66.6919 151.987 68.8579 151.373 71.0807 151.199C73.3035 151.024 75.5389 151.293 77.6568 151.99C79.7746 152.686 81.7329 153.796 83.4176 155.255C85.1024 156.714 86.4801 158.493 87.4706 160.489C88.4612 162.484 89.0448 164.657 89.1876 166.88C89.3304 169.103 89.0296 171.332 88.3025 173.437Z" fill="#F65252"/>
<path d="M109.456 258.737C102.495 264.854 71.1582 270.115 71.1582 270.115C71.1582 270.115 80.2077 239.695 87.1693 233.548C90.5231 230.669 94.8768 229.224 99.2885 229.527C103.7 229.83 107.815 231.855 110.743 235.166C113.672 238.476 115.178 242.805 114.936 247.217C114.694 251.628 112.723 255.766 109.45 258.737H109.456Z" fill="#FC6681"/>
<path d="M110.92 326.879C105.097 334.115 75.1016 344.557 75.1016 344.557C75.1016 344.557 78.8732 313.043 84.696 305.813C87.5006 302.364 91.5578 300.166 95.9805 299.697C100.403 299.229 104.832 300.529 108.298 303.314C111.763 306.098 113.985 310.14 114.476 314.556C114.968 318.972 113.689 323.402 110.92 326.879Z" fill="#FC6681"/>
<path d="M27.2824 213.271C35.3706 217.834 67.0805 216.439 67.0805 216.439C67.0805 216.439 51.896 188.565 43.8139 184.02C41.8869 182.868 39.7485 182.112 37.5247 181.799C35.301 181.485 33.0369 181.62 30.866 182.194C28.695 182.768 26.6611 183.771 24.8841 185.143C23.1072 186.515 21.6231 188.228 20.5195 190.182C19.4159 192.136 18.7149 194.291 18.4581 196.52C18.2012 198.749 18.3936 201.007 19.0239 203.16C19.6541 205.314 20.7096 207.319 22.1279 209.059C23.5463 210.799 25.2989 212.237 27.2824 213.289V213.271Z" fill="#F65252"/>
<path d="M30.0016 292.943C39.0878 294.882 68.9548 284.061 68.9548 284.061C68.9548 284.061 46.129 262.004 37.0245 260.058C32.6603 259.128 28.105 259.968 24.3606 262.393C20.6161 264.818 17.9893 268.63 17.0581 272.989C16.1268 277.349 16.9673 281.9 19.3947 285.641C21.822 289.382 25.6375 292.006 30.0016 292.937V292.943Z" fill="#F65252"/>
<path d="M43.2811 370.015C51.9081 373.459 83.1772 367.837 83.1772 367.837C83.1772 367.837 64.3986 342.238 55.7716 338.795C51.6695 337.323 47.156 337.5 43.1817 339.287C39.2073 341.074 36.0821 344.332 34.4641 348.375C32.8461 352.418 32.8616 356.931 34.5073 360.962C36.1531 364.994 39.3006 368.231 43.2872 369.99L43.2811 370.015Z" fill="#FC6464"/>
<path opacity="0.1" d="M303.801 431.594C466.283 431.594 598.001 422.556 598.001 411.408C598.001 400.26 466.283 391.222 303.801 391.222C141.319 391.222 9.60156 400.26 9.60156 411.408C9.60156 422.556 141.319 431.594 303.801 431.594Z" fill="#FC6464"/>
<path d="M556.958 394.116C556.958 394.116 556.469 393.461 555.789 392.727L555.985 392.66C555.985 392.66 547.242 370.829 549.189 361.611C551.136 352.392 541.419 330.078 541.419 330.078C541.419 330.078 527.085 300.754 533.869 277.351C534.644 274.594 535.229 271.788 535.621 268.952C537.647 255.092 536.931 252.235 533.533 247.17L533.159 246.626C533.578 246.218 533.91 245.729 534.133 245.188C537.047 237.426 520.54 223.357 524.93 210.255C528.983 198.113 518.434 173.058 516.866 169.455L516.689 169.046L516.162 169.217C516.251 166.088 517.483 163.1 519.628 160.818L519.726 160.721C521.183 159.381 522.952 158.396 524.318 156.959L524.397 156.867C524.532 156.738 524.673 156.61 524.802 156.475C526.155 155.056 527.079 152.952 526.345 151.129C525.677 149.466 523.804 148.45 523.363 146.713C523.257 145.932 523.191 145.146 523.167 144.358C522.812 141.911 520.43 140.376 518.269 139.165C515.581 137.648 512.758 136.106 509.654 136.07C505.454 136.07 501.694 138.883 497.525 139.232C496.104 139.354 494.628 139.183 493.281 139.654C492.255 140.081 491.312 140.686 490.496 141.44C490.016 141.817 489.562 142.226 489.136 142.664C488.193 143.544 487.391 144.584 487.428 145.832C487.496 146.743 487.923 147.59 488.616 148.187C487.272 150.013 486.345 152.112 485.899 154.334C485.453 156.557 485.5 158.85 486.037 161.052C486.573 163.255 487.585 165.313 489.003 167.083C490.421 168.853 492.209 170.291 494.243 171.297C494.292 171.633 494.341 171.976 494.39 172.336C495.002 176.93 495.363 183.426 493.728 188.516C486.755 192.106 475.887 197.96 473.94 200.56C473.788 200.78 473.687 201.03 473.643 201.293C473.598 201.556 473.612 201.825 473.682 202.083C473.627 202.321 473.615 202.568 473.646 202.811C472.121 203.159 470.094 202.811 467.627 200.56C461.798 195.226 443.35 179.212 443.35 179.212C443.35 179.212 435.097 158.837 429.268 162.696C423.439 166.556 436.064 185.5 436.064 185.5L463.702 215.106C463.702 215.106 464.676 221.412 474.87 218.017C478.238 216.898 481.281 215.827 483.852 214.904L484.465 215.424C482.169 228.844 480.981 246.73 489.449 251.978C490.112 252.856 490.591 253.859 490.857 254.926C490.814 255.085 490.771 255.251 490.734 255.41C490.085 258.088 489.676 260.819 489.51 263.569C487.914 267.216 487.178 271.179 487.361 275.155L484.116 321.343C484.116 321.343 483.632 331.528 487.03 339.29C490.428 347.052 501.113 385.864 493.826 388.776L494.518 388.867C492.43 391.014 488.916 394.269 486.24 394.911C482.175 395.877 483.314 402.104 492.326 403.144C501.339 404.184 502.423 404.098 508.76 398.819C514.344 394.171 515.232 392.091 515.36 391.644L515.679 391.687C515.679 391.687 512.28 379.074 515.679 373.74C519.077 368.406 507.915 335.908 507.915 335.908C507.821 331.755 507.975 327.6 508.374 323.466C510.089 327.949 511.313 331.057 511.313 331.057C511.313 331.057 514.228 345.126 517.626 347.572C521.024 350.019 538.994 383.472 536.08 398.024L535.743 399.719L536.563 399.48H536.637C535.516 402.251 533.478 406.631 531.224 408.239C527.826 410.686 531.224 416.002 539.968 413.573C548.711 411.145 549.678 410.662 553.566 403.389C557.454 396.116 556.958 394.116 556.958 394.116Z" fill="url(#paint0_linear)"/>
<path d="M492.608 264.585L490.477 261.961C488.298 266.006 487.259 270.566 487.471 275.155L484.299 320.316C484.299 320.316 483.822 330.274 487.146 337.865C490.471 345.456 500.916 383.399 493.796 386.243L515.133 389.124C515.133 389.124 511.809 376.793 515.133 371.575C518.458 366.357 507.535 334.58 507.535 334.58C507.535 334.58 506.586 308.021 515.605 301.849C524.624 295.677 492.608 264.585 492.608 264.585Z" fill="#555388"/>
<path d="M496.209 384.463C496.209 384.463 490.35 391.302 486.382 392.25C482.415 393.198 483.523 399.278 492.334 400.3C501.144 401.321 502.204 401.236 508.406 396.073C514.608 390.91 514.884 388.971 514.884 388.971C514.884 388.971 513.659 384.384 512.178 384.286C510.696 384.188 496.209 384.463 496.209 384.463Z" fill="#603556"/>
<path d="M494.036 266.01L490.485 261.961C488.306 266.006 487.267 270.566 487.479 275.155L484.307 320.316C484.307 320.316 483.829 330.274 487.154 337.865C490.479 345.456 500.924 383.399 493.803 386.243L515.135 389.124C515.135 389.124 511.811 376.793 515.135 371.575C518.46 366.357 507.537 334.58 507.537 334.58C507.537 334.58 506.588 308.021 515.607 301.849C524.626 295.677 494.036 266.01 494.036 266.01Z" fill="#A1616A"/>
<path d="M515.171 327.907C515.171 327.907 509.238 211.558 484.882 170.379C484.882 170.379 467.021 137.788 452.094 128.283V124.527C427.738 107.681 397.767 124.527 397.767 124.527V126.191L391.521 131.39L363.399 131.292C362.127 129.76 360.531 128.527 358.727 127.681C356.922 126.835 354.953 126.397 352.96 126.399H224.639C222.763 126.397 220.908 126.784 219.19 127.536C217.472 128.288 215.929 129.388 214.659 130.766H185.453C185.453 130.766 183.733 128.766 179.208 126.754V124.527C154.851 107.681 124.88 124.527 124.88 124.527V129.047C124.168 129.517 123.536 130.097 123.007 130.766C123.007 130.766 98.3381 147.282 92.7174 167.883C92.7174 167.883 62.428 258.658 61.8034 329.778C61.1789 400.899 88.658 410.882 103.016 412.754C117.374 414.625 142.979 412.142 167.96 349.138L178.577 312.333C178.577 312.333 180.451 290.496 202.934 304.222C225.416 317.948 245.395 296.735 245.395 296.735H329.706C329.706 296.735 357.779 314.18 383.409 300.43C383.409 300.43 393.401 287.327 402.769 331.626C402.769 331.626 431.497 422.712 475.832 413.353C520.167 403.994 515.171 327.907 515.171 327.907Z" fill="url(#paint1_linear)"/>
<path d="M128.076 134.008V127.28C128.076 127.28 157.466 110.764 181.344 127.28V133.397L128.076 134.008Z" fill="#535461"/>
<path d="M395.643 134.008V127.28C395.643 127.28 425.032 110.764 448.911 127.28V133.397L395.643 134.008Z" fill="#535461"/>
<path d="M128.076 134.008V127.28C128.076 127.28 157.466 110.764 181.344 127.28V133.397L128.076 134.008Z" fill="#3A3768"/>
<path d="M395.643 134.008V127.28C395.643 127.28 425.032 110.764 448.911 127.28V133.397L395.643 134.008Z" fill="#3A3768"/>
<path d="M216.245 133.397H187.468C187.468 133.397 180.121 124.833 155.629 125.445C131.138 126.056 126.24 133.397 126.24 133.397C126.24 133.397 102.055 149.606 96.5446 169.792C96.5446 169.792 66.8491 258.792 66.2368 328.524C65.6245 398.257 92.5648 408.044 106.647 409.879C120.73 411.714 145.833 409.267 170.324 347.487L180.733 311.397C180.733 311.397 182.57 289.988 204.612 303.445C226.654 316.902 246.247 296.105 246.247 296.105H328.904C328.904 296.105 356.457 313.232 381.56 299.775C381.56 299.775 391.357 286.93 400.541 330.36C400.541 330.36 428.706 419.666 472.177 410.49C515.649 401.315 510.751 326.689 510.751 326.689C510.751 326.689 504.934 212.61 481.055 172.239C481.055 172.239 458.095 130.338 442.788 128.503C442.788 128.503 409.725 122.386 396.867 127.891L389.52 134.008L216.245 133.397Z" fill="#3A3768"/>
<path d="M149.506 246.558C178.926 246.558 202.775 222.732 202.775 193.342C202.775 163.951 178.926 140.125 149.506 140.125C120.087 140.125 96.2383 163.951 96.2383 193.342C96.2383 222.732 120.087 246.558 149.506 246.558Z" fill="#CEDDF9"/>
<path d="M427.481 246.558C456.9 246.558 480.749 222.732 480.749 193.342C480.749 163.951 456.9 140.125 427.481 140.125C398.062 140.125 374.213 163.951 374.213 193.342C374.213 222.732 398.062 246.558 427.481 246.558Z" fill="#CEDDF9"/>
<path d="M158.788 181.475L151.686 187.751C151.084 188.28 150.311 188.572 149.509 188.572C148.708 188.572 147.934 188.28 147.333 187.751L140.218 181.475C139.87 181.169 139.591 180.792 139.399 180.371C139.207 179.949 139.106 179.492 139.104 179.028V161.76C139.105 160.889 139.453 160.053 140.07 159.437C140.688 158.821 141.525 158.476 142.398 158.476H156.633C157.066 158.475 157.495 158.559 157.895 158.724C158.295 158.89 158.658 159.132 158.964 159.438C159.27 159.743 159.513 160.107 159.678 160.506C159.843 160.906 159.928 161.334 159.927 161.766V179.016C159.923 179.483 159.82 179.944 159.623 180.368C159.427 180.792 159.142 181.17 158.788 181.475Z" fill="white"/>
<path d="M158.788 205.202L151.686 198.933C151.084 198.404 150.311 198.112 149.509 198.112C148.708 198.112 147.934 198.404 147.333 198.933L140.218 205.209C139.87 205.515 139.591 205.891 139.399 206.313C139.207 206.735 139.106 207.192 139.104 207.655V224.905C139.103 225.337 139.187 225.766 139.353 226.165C139.518 226.565 139.76 226.928 140.067 227.234C140.373 227.539 140.736 227.782 141.136 227.947C141.536 228.112 141.965 228.197 142.398 228.196H156.633C157.065 228.197 157.494 228.112 157.893 227.947C158.293 227.783 158.656 227.541 158.962 227.236C159.268 226.931 159.511 226.568 159.676 226.169C159.842 225.77 159.927 225.343 159.927 224.911V207.661C159.923 207.194 159.82 206.733 159.623 206.309C159.427 205.885 159.142 205.508 158.788 205.202Z" fill="white"/>
<path d="M137.634 202.627L143.916 195.519C144.446 194.918 144.738 194.145 144.738 193.345C144.738 192.544 144.446 191.771 143.916 191.17L137.634 184.062C137.327 183.715 136.951 183.436 136.529 183.245C136.107 183.053 135.649 182.952 135.185 182.949H117.919C117.046 182.951 116.21 183.298 115.594 183.915C114.977 184.532 114.631 185.368 114.631 186.24V200.462C114.63 200.894 114.715 201.322 114.88 201.722C115.045 202.122 115.288 202.485 115.594 202.791C115.9 203.096 116.263 203.339 116.663 203.504C117.063 203.669 117.492 203.753 117.925 203.753H135.191C135.655 203.748 136.112 203.645 136.533 203.451C136.954 203.257 137.329 202.976 137.634 202.627Z" fill="white"/>
<path d="M161.384 202.627L155.115 195.513C154.584 194.913 154.291 194.14 154.291 193.339C154.291 192.538 154.584 191.764 155.115 191.164L161.397 184.056C161.703 183.709 162.08 183.43 162.502 183.238C162.924 183.046 163.382 182.946 163.846 182.943H181.112C181.545 182.942 181.974 183.027 182.374 183.192C182.774 183.357 183.137 183.599 183.443 183.905C183.749 184.211 183.992 184.574 184.157 184.974C184.322 185.373 184.407 185.802 184.406 186.234V200.456C184.407 200.888 184.322 201.315 184.158 201.715C183.993 202.114 183.751 202.477 183.445 202.782C183.14 203.088 182.777 203.33 182.378 203.496C181.978 203.661 181.55 203.747 181.118 203.747H163.852C163.385 203.746 162.923 203.646 162.497 203.453C162.072 203.26 161.692 202.978 161.384 202.627Z" fill="white"/>
<path d="M140.322 154.194H158.691L149.506 146.242L140.322 154.194Z" stroke="white" stroke-width="2" stroke-miterlimit="10"/>
<path d="M140.322 232.49H158.691L149.506 240.442L140.322 232.49Z" stroke="white" stroke-width="2" stroke-miterlimit="10"/>
<path d="M110.321 184.167V202.517L102.361 193.342L110.321 184.167Z" stroke="white" stroke-width="2" stroke-miterlimit="10"/>
<path d="M188.691 184.167V202.517L196.651 193.342L188.691 184.167Z" stroke="white" stroke-width="2" stroke-miterlimit="10"/>
<path d="M221.755 289.988C243.059 289.988 260.329 272.735 260.329 251.452C260.329 230.169 243.059 212.916 221.755 212.916C200.452 212.916 183.182 230.169 183.182 251.452C183.182 272.735 200.452 289.988 221.755 289.988Z" fill="#CEDDF9"/>
<path d="M220.53 271.026C234.733 271.026 246.246 259.524 246.246 245.335C246.246 231.146 234.733 219.644 220.53 219.644C206.328 219.644 194.814 231.146 194.814 245.335C194.814 259.524 206.328 271.026 220.53 271.026Z" fill="white"/>
<path d="M355.232 289.988C376.535 289.988 393.805 272.735 393.805 251.452C393.805 230.169 376.535 212.916 355.232 212.916C333.928 212.916 316.658 230.169 316.658 251.452C316.658 272.735 333.928 289.988 355.232 289.988Z" fill="#CEDDF9"/>
<path d="M354.007 271.026C368.209 271.026 379.722 259.524 379.722 245.335C379.722 231.146 368.209 219.644 354.007 219.644C339.804 219.644 328.291 231.146 328.291 245.335C328.291 259.524 339.804 271.026 354.007 271.026Z" fill="white"/>
<path opacity="0.1" d="M220.531 262.462C229.999 262.462 237.674 254.794 237.674 245.335C237.674 235.876 229.999 228.208 220.531 228.208C211.062 228.208 203.387 235.876 203.387 245.335C203.387 254.794 211.062 262.462 220.531 262.462Z" stroke="black" stroke-width="2" stroke-miterlimit="10"/>
<path opacity="0.1" d="M354.007 262.462C363.475 262.462 371.151 254.794 371.151 245.335C371.151 235.876 363.475 228.208 354.007 228.208C344.539 228.208 336.863 235.876 336.863 245.335C336.863 254.794 344.539 262.462 354.007 262.462Z" stroke="black" stroke-width="2" stroke-miterlimit="10"/>
<path d="M289.718 266.744C295.805 266.744 300.739 261.815 300.739 255.734C300.739 249.653 295.805 244.723 289.718 244.723C283.632 244.723 278.697 249.653 278.697 255.734C278.697 261.815 283.632 266.744 289.718 266.744Z" fill="#CEDDF9"/>
<path d="M272.873 221.388C274.202 221.388 275.279 220.311 275.279 218.984C275.279 217.656 274.202 216.58 272.873 216.58C271.544 216.58 270.467 217.656 270.467 218.984C270.467 220.311 271.544 221.388 272.873 221.388Z" fill="#CEDDF9"/>
<path d="M281.887 221.388C283.216 221.388 284.293 220.311 284.293 218.984C284.293 217.656 283.216 216.58 281.887 216.58C280.558 216.58 279.48 217.656 279.48 218.984C279.48 220.311 280.558 221.388 281.887 221.388Z" fill="#E2E2EC"/>
<path d="M280.688 232.795C282.016 232.795 283.094 231.719 283.094 230.391C283.094 229.064 282.016 227.988 280.688 227.988C279.359 227.988 278.281 229.064 278.281 230.391C278.281 231.719 279.359 232.795 280.688 232.795Z" fill="#E2E2EC"/>
<path d="M289.105 233.102C290.458 233.102 291.554 232.006 291.554 230.655C291.554 229.303 290.458 228.208 289.105 228.208C287.753 228.208 286.656 229.303 286.656 230.655C286.656 232.006 287.753 233.102 289.105 233.102Z" fill="#CEDDF9"/>
<path d="M297.512 232.795C298.841 232.795 299.918 231.719 299.918 230.391C299.918 229.064 298.841 227.988 297.512 227.988C296.183 227.988 295.105 229.064 295.105 230.391C295.105 231.719 296.183 232.795 297.512 232.795Z" fill="#CEDDF9"/>
<path d="M277.08 227.394C278.409 227.394 279.486 226.318 279.486 224.99C279.486 223.663 278.409 222.586 277.08 222.586C275.751 222.586 274.674 223.663 274.674 224.99C274.674 226.318 275.751 227.394 277.08 227.394Z" fill="#CEDDF9"/>
<path d="M284.82 227.596C286.173 227.596 287.269 226.501 287.269 225.149C287.269 223.798 286.173 222.703 284.82 222.703C283.468 222.703 282.371 223.798 282.371 225.149C282.371 226.501 283.468 227.596 284.82 227.596Z" fill="#CEDDF9"/>
<path d="M292.779 227.596C294.132 227.596 295.228 226.501 295.228 225.149C295.228 223.798 294.132 222.703 292.779 222.703C291.427 222.703 290.33 223.798 290.33 225.149C290.33 226.501 291.427 227.596 292.779 227.596Z" fill="#CEDDF9"/>
<path d="M301.119 227.394C302.448 227.394 303.525 226.318 303.525 224.99C303.525 223.663 302.448 222.586 301.119 222.586C299.79 222.586 298.713 223.663 298.713 224.99C298.713 226.318 299.79 227.394 301.119 227.394Z" fill="#CEDDF9"/>
<path d="M289.105 221.479C290.458 221.479 291.554 220.384 291.554 219.033C291.554 217.681 290.458 216.586 289.105 216.586C287.753 216.586 286.656 217.681 286.656 219.033C286.656 220.384 287.753 221.479 289.105 221.479Z" fill="#CEDDF9"/>
<path d="M297.678 221.479C299.03 221.479 300.127 220.384 300.127 219.033C300.127 217.681 299.03 216.586 297.678 216.586C296.325 216.586 295.229 217.681 295.229 219.033C295.229 220.384 296.325 221.479 297.678 221.479Z" fill="#CEDDF9"/>
<path d="M304.725 221.388C306.054 221.388 307.131 220.311 307.131 218.984C307.131 217.656 306.054 216.58 304.725 216.58C303.396 216.58 302.318 217.656 302.318 218.984C302.318 220.311 303.396 221.388 304.725 221.388Z" fill="#CEDDF9"/>
<path d="M201.244 137.678H198.183C195.309 137.678 192.979 140.006 192.979 142.878V155.723C192.979 158.594 195.309 160.922 198.183 160.922H201.244C204.119 160.922 206.449 158.594 206.449 155.723V142.878C206.449 140.006 204.119 137.678 201.244 137.678Z" fill="#CEDDF9"/>
<path d="M380.029 137.678H376.968C374.094 137.678 371.764 140.006 371.764 142.878V155.723C371.764 158.594 374.094 160.922 376.968 160.922H380.029C382.904 160.922 385.234 158.594 385.234 155.723V142.878C385.234 140.006 382.904 137.678 380.029 137.678Z" fill="#CEDDF9"/>
<path d="M428.093 175.603C436.209 175.603 442.788 169.03 442.788 160.922C442.788 152.815 436.209 146.242 428.093 146.242C419.977 146.242 413.398 152.815 413.398 160.922C413.398 169.03 419.977 175.603 428.093 175.603Z" fill="white"/>
<path d="M396.867 206.799C404.982 206.799 411.561 200.226 411.561 192.118C411.561 184.011 404.982 177.438 396.867 177.438C388.751 177.438 382.172 184.011 382.172 192.118C382.172 200.226 388.751 206.799 396.867 206.799Z" fill="white"/>
<path d="M460.544 204.964C468.66 204.964 475.239 198.391 475.239 190.283C475.239 182.175 468.66 175.603 460.544 175.603C452.429 175.603 445.85 182.175 445.85 190.283C445.85 198.391 452.429 204.964 460.544 204.964Z" fill="white"/>
<path d="M430.542 237.383C438.658 237.383 445.237 230.81 445.237 222.703C445.237 214.595 438.658 208.022 430.542 208.022C422.427 208.022 415.848 214.595 415.848 222.703C415.848 230.81 422.427 237.383 430.542 237.383Z" fill="white"/>
<path d="M351.711 129.115H225.887C218.533 129.115 212.57 135.071 212.57 142.419V197.165C212.57 204.513 218.533 210.469 225.887 210.469H351.711C359.065 210.469 365.028 204.513 365.028 197.165V142.419C365.028 135.071 359.065 129.115 351.711 129.115Z" fill="#CEDDF9"/>
<path d="M419.215 167.039L427.787 152.359L436.971 167.039H419.215Z" stroke="#3A3768" stroke-miterlimit="10"/>
<path d="M404.52 185.39H389.213V198.847H404.52V185.39Z" stroke="#3A3768" stroke-miterlimit="10"/>
<path d="M460.545 198.847C465.279 198.847 469.116 195.013 469.116 190.283C469.116 185.554 465.279 181.72 460.545 181.72C455.81 181.72 451.973 185.554 451.973 190.283C451.973 195.013 455.81 198.847 460.545 198.847Z" stroke="#3A3768" stroke-miterlimit="10"/>
<path d="M423.5 215.821L437.276 229.584" stroke="#3A3768" stroke-miterlimit="10"/>
<path d="M437.582 215.821L423.5 229.278" stroke="#3A3768" stroke-miterlimit="10"/>
<path d="M210.618 406.545C212.455 405.144 214.2 403.487 214.732 401.486C215.005 400.424 214.86 399.297 214.325 398.339C213.791 397.381 212.909 396.664 211.861 396.336C209.222 395.516 206.405 397.003 204.263 398.508C202.12 400.012 199.677 401.731 196.878 401.413C199.775 399.321 201.164 395.908 200.356 392.849C200.22 392.183 199.882 391.575 199.389 391.106C197.925 389.828 195.268 390.378 193.517 391.381C187.939 394.581 186.384 400.752 186.353 406.313C185.79 404.306 186.268 402.22 186.249 400.159C186.231 398.098 185.545 395.822 183.414 394.715C182.052 394.127 180.576 393.845 179.092 393.889C176.588 393.816 173.789 394.018 172.081 395.516C169.957 397.351 170.508 400.489 172.357 402.532C174.206 404.575 177.022 405.86 179.612 407.273C181.59 408.35 183.586 409.604 184.798 411.304C184.953 411.53 185.083 411.772 185.184 412.026H200.901C204.354 410.607 207.618 408.766 210.618 406.545Z" fill="#FC6464"/>
<path d="M536.527 394.317C536.527 394.317 533.68 402.881 530.356 405.23C527.031 407.579 530.356 412.821 538.927 410.448C547.499 408.074 548.424 407.603 552.22 400.489C556.016 393.375 555.545 391.479 555.545 391.479C555.545 391.479 552.698 387.687 551.259 388.158C549.82 388.629 536.527 394.317 536.527 394.317Z" fill="#603556"/>
<path d="M518.961 181.341C518.961 181.341 480.504 202.682 489.522 196.516C495.584 192.375 495.217 181.383 494.323 174.612C494.041 172.502 493.71 170.801 493.508 169.847C493.392 169.309 493.319 169.009 493.319 169.009C493.319 169.009 511.969 157.827 510.922 164.55C510.922 164.611 510.922 164.672 510.891 164.733C510.801 165.182 510.754 165.639 510.75 166.097C510.622 173.009 518.961 181.341 518.961 181.341Z" fill="#C87486"/>
<path d="M477.173 202.211C477.173 202.211 473.849 207.429 468.154 202.211C462.46 196.993 444.416 181.34 444.416 181.34C444.416 181.34 436.347 161.418 430.64 165.216C424.934 169.015 437.289 187.512 437.289 187.512L464.352 216.445C464.352 216.445 465.301 222.611 475.275 219.289C485.249 215.968 492.37 213.124 492.37 213.124L477.173 202.211Z" fill="#C87486"/>
<path d="M554.57 390.048L535.589 396.691L534.787 396.923L535.118 395.266C537.965 381.038 520.423 348.306 517.074 345.933C513.725 343.56 510.89 329.791 510.89 329.791C510.89 329.791 504.669 298.485 503.72 291.866C503.481 290.208 502.612 288.887 501.559 287.064C499.971 284.302 498.736 281.351 497.885 278.281C495.797 270.94 490.93 257.911 492.718 250.541C493.079 249.042 491.603 252.871 492.105 251.409L492.393 250.602L530.832 245.378C531.47 246.152 532.066 246.958 532.62 247.794C535.528 252.106 535.338 252.106 535.951 260.303C535.686 265.248 534.988 270.161 533.863 274.984C528.689 298.001 540.359 328.812 540.359 328.812C540.359 328.812 549.855 350.631 547.957 359.641C546.059 368.651 554.57 390.048 554.57 390.048Z" fill="#A1616A"/>
<path opacity="0.1" d="M532.62 247.788C526.932 254.914 490.496 260.45 490.949 258.187C491.085 257.406 491.026 256.603 490.777 255.85C491.14 254.347 491.577 252.863 492.088 251.403L492.375 250.596L530.833 245.378C531.47 246.15 532.067 246.954 532.62 247.788Z" fill="black"/>
<path d="M516.114 171.364C516.114 171.364 500.44 176.123 496.154 187.035C491.868 197.948 499.405 198.541 499.405 198.541C499.405 198.541 485.935 234.019 489.504 252.492C489.504 252.492 491.402 254.865 490.931 257.233C490.459 259.6 530.337 253.44 533.178 245.849C536.019 238.258 519.886 224.507 524.159 211.699C528.433 198.89 516.114 171.364 516.114 171.364Z" fill="white"/>
<path opacity="0.1" d="M510.891 165.687C510.864 165.83 510.816 165.968 510.75 166.097C510.101 167.321 508.037 165.981 508.754 167.816C505.999 170.581 505.129 176.117 500.923 176.117C498.635 176.124 496.376 175.611 494.316 174.618C494.035 172.508 493.704 170.807 493.502 169.853C495.339 168.764 510.033 160.262 510.915 164.556C510.984 164.931 510.975 165.316 510.891 165.687Z" fill="black"/>
<path d="M500.917 175.175C509.307 175.175 516.108 168.38 516.108 159.999C516.108 151.618 509.307 144.823 500.917 144.823C492.528 144.823 485.727 151.618 485.727 159.999C485.727 168.38 492.528 175.175 500.917 175.175Z" fill="#C87486"/>
<path opacity="0.1" d="M516.114 208.377L489.529 220.709C489.529 220.709 471.485 206.958 474.332 203.172C477.179 199.385 499.497 188.491 499.497 188.491C499.497 188.491 522.286 193.201 516.114 208.377Z" fill="black"/>
<path d="M516.113 207.453L489.528 219.785C489.528 219.785 471.484 206.028 474.337 202.236C477.19 198.443 499.502 187.555 499.502 187.555C499.502 187.555 522.285 192.253 516.113 207.453Z" fill="white"/>
<path opacity="0.1" d="M496.533 153.497C494.213 153.264 491.813 153.007 489.798 151.839C488.629 151.166 487.557 150.053 487.521 148.701C487.478 147.111 488.819 145.869 490.049 144.86C490.848 144.123 491.77 143.533 492.774 143.116C494.09 142.657 495.529 142.823 496.919 142.706C501.009 142.364 504.67 139.587 508.779 139.611C511.797 139.611 514.571 141.153 517.198 142.639C519.298 143.826 521.631 145.331 521.98 147.716C522.003 148.486 522.066 149.253 522.169 150.016C522.604 151.717 524.435 152.707 525.09 154.335C525.806 156.115 524.9 158.176 523.578 159.564C522.255 160.953 520.516 161.907 519.126 163.204C517.837 164.399 516.814 165.852 516.126 167.469C515.438 169.086 515.1 170.83 515.134 172.587C515.165 172.819 515.129 173.054 515.03 173.266C514.925 173.393 514.794 173.497 514.647 173.571C514.499 173.644 514.338 173.686 514.173 173.694C512.661 173.976 510.793 174.129 509.887 172.881C508.981 171.633 509.697 169.553 508.663 168.324C507.346 166.74 504.579 168 502.797 166.96C502.196 166.571 501.727 166.01 501.45 165.351C499.98 162.189 501.664 159.705 502.276 156.683C502.993 153.154 499.025 153.747 496.533 153.497Z" fill="black"/>
<path d="M497.012 153.013C494.691 152.781 492.291 152.524 490.277 151.356C489.107 150.683 488.036 149.57 487.999 148.218C487.956 146.627 489.297 145.386 490.528 144.376C491.326 143.64 492.249 143.049 493.252 142.633C494.569 142.174 496.008 142.339 497.398 142.223C501.488 141.881 505.149 139.104 509.257 139.128C512.276 139.128 515.049 140.67 517.676 142.156C519.776 143.343 522.109 144.847 522.458 147.233C522.481 148.002 522.545 148.77 522.648 149.533C523.083 151.233 524.913 152.224 525.568 153.851C526.285 155.631 525.379 157.693 524.056 159.081C522.734 160.47 520.995 161.424 519.605 162.721C518.311 163.918 517.285 165.375 516.596 166.997C515.907 168.618 515.57 170.367 515.607 172.129C515.638 172.36 515.601 172.596 515.503 172.808C515.397 172.934 515.267 173.038 515.119 173.112C514.972 173.186 514.81 173.228 514.645 173.236C513.133 173.517 511.266 173.67 510.359 172.422C509.453 171.174 510.17 169.095 509.135 167.865C507.818 166.281 505.051 167.541 503.269 166.501C502.669 166.112 502.199 165.552 501.922 164.892C500.441 161.724 502.13 159.222 502.743 156.17C503.465 152.677 499.498 153.276 497.012 153.013Z" fill="#603456"/>
</g>
<defs>
<linearGradient id="paint0_linear" x1="492.345" y1="414.142" x2="492.345" y2="136.045" gradientUnits="userSpaceOnUse">
<stop stop-color="#808080" stop-opacity="0.25"/>
<stop offset="0.54" stop-color="#808080" stop-opacity="0.12"/>
<stop offset="1" stop-color="#808080" stop-opacity="0.1"/>
</linearGradient>
<linearGradient id="paint1_linear" x1="264466" y1="210013" x2="264466" y2="65807.8" gradientUnits="userSpaceOnUse">
<stop stop-color="#808080" stop-opacity="0.25"/>
<stop offset="0.54" stop-color="#808080" stop-opacity="0.12"/>
<stop offset="1" stop-color="#808080" stop-opacity="0.1"/>
</linearGradient>
<clipPath id="clip0">
<rect width="598" height="514" fill="white"/>
</clipPath>
</defs>
</svg>
