<svg width="909" height="644" viewBox="0 0 909 644" fill="none" xmlns="http://www.w3.org/2000/svg">
<g clip-path="url(#clip0)">
<path opacity="0.1" d="M112.906 475.817C109.2 483.33 114.538 491.439 112.669 499.198C110.351 508.987 97.0539 516.606 82.7285 521.469C68.403 526.331 52.4043 529.284 38.438 534.521C32.3976 536.781 26.1042 540.95 29.2468 544.784C30.3325 546.114 32.3731 547.044 34.3567 547.916C75.0229 565.668 125.297 575.311 175.57 575.001C228.693 574.666 280.722 563.58 333.803 564.852C402.271 566.484 468.487 588.559 536.18 582.196C564.92 579.496 591.62 571.795 619.594 566.99C660.75 559.917 704.036 559.207 746.653 556.882C778.659 555.136 815.22 550.609 830.525 533.591C841.577 521.289 836.94 505.039 821.366 494.621C805.792 484.203 780.912 479.749 757.918 481.772C745.56 482.857 733.275 485.672 720.925 484.554C713.75 483.901 707.105 481.96 700.583 480.051C649.975 465.204 597.497 450.389 541.289 448.235C449.827 444.703 365.131 474.789 276.069 487.801C262.192 489.824 247.14 491.382 234.039 487.989C220.228 484.407 211.184 475.948 197.365 472.383C190.835 470.686 183.488 470.196 177.031 468.353C159.294 463.278 167.506 456.303 142.928 461.01C130.031 463.466 117.044 467.431 112.906 475.817Z" fill="#FC6464"/>
<path d="M584.707 225.223C584.707 225.223 645.502 129.71 652.849 88.9209C660.195 48.1315 674.072 10.6052 674.072 10.6052" stroke="#535461" stroke-width="2" stroke-miterlimit="10"/>
<path d="M687.946 92.1841L649.582 95.4472C649.582 95.4472 669.989 130.526 687.946 92.1841Z" fill="#F55050"/>
<path d="M621.015 70.9736L651.397 95.2923C651.397 95.2923 612.037 110.947 621.015 70.9736Z" fill="#F55050"/>
<path d="M692.845 58.7368L658.301 63.3623C658.301 63.3623 688.764 88.1052 692.845 58.7368Z" fill="#F55050"/>
<path d="M635.705 46.5L658.512 62.4976C658.512 62.4976 630.808 74.2368 635.705 46.5Z" fill="#F55050"/>
<path d="M666.977 31.9706C666.977 31.9706 695.293 24.4735 699.374 26.1051C703.455 27.7367 701.007 45.6841 689.579 46.4998C678.151 47.3156 666.977 31.9706 666.977 31.9706Z" fill="#F55050"/>
<path d="M647.95 10.6052C647.95 10.6052 665.908 27.7368 666.724 31.8157C667.54 35.8947 652.031 45.6841 643.868 31.8157C635.706 17.9473 647.95 10.6052 647.95 10.6052Z" fill="#F55050"/>
<path d="M133.101 504.614C133.101 504.614 107.127 436.48 127.542 383.266C136.113 360.929 137.631 336.488 131.085 313.475C127.957 302.574 123.836 291.981 118.775 281.831" stroke="#535461" stroke-width="2" stroke-miterlimit="10"/>
<path d="M131.435 248.187C132.097 256.737 118.547 282.72 118.547 282.72C118.547 282.72 101.136 259.143 100.475 250.594C100.155 246.49 101.48 242.427 104.158 239.299C106.837 236.171 110.648 234.234 114.755 233.915C118.862 233.596 122.927 234.92 126.057 237.597C129.187 240.274 131.124 244.083 131.444 248.187H131.435Z" fill="#F55050"/>
<path d="M165.881 374.512C158.534 378.95 129.23 378.591 129.23 378.591C129.23 378.591 142.462 352.437 149.792 347.999C151.537 346.944 153.472 346.241 155.488 345.933C157.504 345.625 159.561 345.717 161.542 346.203C163.523 346.689 165.388 347.561 167.031 348.768C168.675 349.975 170.065 351.493 171.121 353.237C172.178 354.98 172.88 356.915 173.188 358.93C173.497 360.944 173.405 363 172.918 364.98C172.432 366.959 171.56 368.823 170.352 370.466C169.145 372.109 167.625 373.497 165.881 374.553V374.512Z" fill="#F55050"/>
<path d="M155.989 436.667C149.508 442.28 120.547 446.84 120.547 446.84C120.547 446.84 129.167 418.826 135.64 413.213C137.181 411.878 138.969 410.859 140.904 410.215C142.839 409.57 144.882 409.313 146.917 409.458C148.951 409.602 150.937 410.146 152.761 411.058C154.585 411.97 156.212 413.231 157.548 414.771C158.884 416.312 159.904 418.099 160.549 420.033C161.193 421.967 161.451 424.009 161.306 426.042C161.161 428.075 160.617 430.06 159.705 431.883C158.793 433.706 157.53 435.332 155.989 436.667Z" fill="#FC6464"/>
<path d="M88.0833 392.533C96.0174 395.796 124.921 390.902 124.921 390.902C124.921 390.902 107.78 367.105 99.8783 363.85C96.0682 362.287 91.7927 362.3 87.9925 363.888C84.1923 365.475 81.1787 368.506 79.6146 372.314C78.0504 376.122 78.064 380.395 79.6522 384.193C81.2404 387.991 84.2731 391.003 88.0833 392.566V392.533Z" fill="#F55050"/>
<path d="M87.4547 464.739C94.7277 469.282 124.048 469.323 124.048 469.323C124.048 469.323 111.2 442.973 103.935 438.462C100.444 436.278 96.2282 435.569 92.2145 436.492C88.2008 437.414 84.7181 439.892 82.5327 443.381C80.3472 446.87 79.6381 451.084 80.5611 455.095C81.4842 459.106 83.9639 462.587 87.4547 464.771V464.739Z" fill="#FC6464"/>
<path d="M131.435 248.187C132.097 256.737 118.547 282.72 118.547 282.72C118.547 282.72 101.136 259.143 100.475 250.594C100.155 246.49 101.48 242.427 104.158 239.299C106.837 236.171 110.648 234.234 114.755 233.915C118.862 233.596 122.927 234.92 126.057 237.597C129.187 240.274 131.124 244.083 131.444 248.187H131.435Z" fill="#F55050"/>
<path d="M160.705 293.537C156.624 301.075 131.108 315.523 131.108 315.523C131.108 315.523 129.32 286.277 133.41 278.739C135.373 275.12 138.695 272.429 142.643 271.258C146.592 270.087 150.844 270.531 154.465 272.494C158.086 274.456 160.778 277.776 161.95 281.722C163.122 285.669 162.677 289.919 160.714 293.537H160.705Z" fill="#FC6464"/>
<path d="M165.881 374.512C158.534 378.95 129.23 378.591 129.23 378.591C129.23 378.591 142.462 352.437 149.792 347.999C151.537 346.944 153.472 346.241 155.488 345.933C157.504 345.625 159.561 345.717 161.542 346.203C163.523 346.689 165.388 347.561 167.031 348.768C168.675 349.975 170.065 351.493 171.121 353.237C172.178 354.98 172.88 356.915 173.188 358.93C173.497 360.944 173.405 363 172.918 364.98C172.432 366.959 171.56 368.823 170.352 370.466C169.145 372.109 167.625 373.497 165.881 374.553V374.512Z" fill="#F55050"/>
<path d="M155.989 436.667C149.508 442.28 120.547 446.84 120.547 446.84C120.547 446.84 129.167 418.826 135.64 413.213C137.181 411.878 138.969 410.859 140.904 410.215C142.839 409.57 144.882 409.313 146.917 409.458C148.951 409.602 150.937 410.146 152.761 411.058C154.585 411.97 156.212 413.231 157.548 414.771C158.884 416.312 159.904 418.099 160.549 420.033C161.193 421.967 161.451 424.009 161.306 426.042C161.161 428.075 160.617 430.06 159.705 431.883C158.793 433.706 157.53 435.332 155.989 436.667Z" fill="#FC6464"/>
<path d="M98.728 319.7C105.323 325.182 134.374 329.13 134.374 329.13C134.374 329.13 125.175 301.303 118.571 295.83C115.404 293.199 111.321 291.933 107.22 292.311C103.119 292.689 99.3362 294.679 96.7037 297.845C94.0712 301.01 92.8047 305.091 93.1828 309.189C93.5609 313.288 95.5526 317.069 98.7198 319.7H98.728Z" fill="#FC6464"/>
<path d="M88.0833 392.533C96.0174 395.796 124.921 390.902 124.921 390.902C124.921 390.902 107.78 367.105 99.8783 363.85C96.0682 362.287 91.7927 362.3 87.9925 363.888C84.1923 365.475 81.1787 368.506 79.6146 372.314C78.0504 376.122 78.064 380.395 79.6522 384.193C81.2404 387.991 84.2731 391.003 88.0833 392.566V392.533Z" fill="#F55050"/>
<path d="M87.4547 464.739C94.7277 469.282 124.048 469.323 124.048 469.323C124.048 469.323 111.2 442.973 103.935 438.462C100.444 436.278 96.2282 435.569 92.2145 436.492C88.2008 437.414 84.7181 439.892 82.5327 443.381C80.3472 446.87 79.6381 451.084 80.5611 455.095C81.4842 459.106 83.9639 462.587 87.4547 464.771V464.739Z" fill="#FC6464"/>
<path d="M160.705 293.537C156.624 301.075 131.108 315.523 131.108 315.523C131.108 315.523 129.32 286.277 133.41 278.739C135.373 275.12 138.695 272.429 142.643 271.258C146.592 270.087 150.844 270.531 154.465 272.494C158.086 274.456 160.778 277.776 161.95 281.722C163.122 285.669 162.677 289.919 160.714 293.537H160.705Z" fill="#F55050"/>
<path d="M184.312 492.345C184.312 492.345 164.607 489.971 159.008 485.207C153.408 480.443 129.451 473.198 127.361 479.863C125.272 486.528 94.6536 511.01 116.938 513.188C139.222 515.366 169.105 514.33 175.333 511.247C181.561 508.163 184.312 492.345 184.312 492.345Z" fill="#A8A8A8"/>
<path d="M98.728 319.7C105.323 325.182 134.374 329.13 134.374 329.13C134.374 329.13 125.175 301.303 118.571 295.83C115.404 293.199 111.321 291.933 107.22 292.311C103.119 292.689 99.3362 294.679 96.7037 297.845C94.0712 301.01 92.8047 305.091 93.1828 309.189C93.5609 313.288 95.5526 317.069 98.7198 319.7H98.728Z" fill="#F55050"/>
<path opacity="0.2" d="M116.782 510.782C139.075 512.952 168.917 511.932 175.186 508.848C179.961 506.499 182.647 496.774 183.659 492.263L184.32 492.345C184.32 492.345 181.643 508.155 175.341 511.247C169.04 514.338 139.23 515.326 116.938 513.18C110.505 512.552 108.481 510.064 108.906 506.654C109.648 508.816 111.991 510.317 116.782 510.782Z" fill="black"/>
<path opacity="0.1" d="M854.629 376.69C822.631 420.515 833.242 483.069 851.69 532.906C857.877 549.589 864.905 567.234 861.697 585.385C857.779 607.575 839.365 624.201 820.223 633.256C785.328 649.759 744.107 647.124 712.893 626.33C685.956 608.383 666.994 578.557 639.535 561.467C593.579 532.873 533.918 545.648 482.771 567.479C446.586 582.922 406.949 602.811 371.686 588.551C346.871 578.517 330.163 552.974 321.371 525.67C317.127 512.487 314.156 498.178 305.699 487.858C300.671 481.723 294.027 477.448 287.194 473.875C224.84 441.244 144.634 461.639 84.1813 425.23C43.3681 400.642 17.966 352.927 7.41166 302.764C-3.14264 252.601 -0.530591 199.648 3.67317 147.601C6.6607 110.613 11.3869 71.0878 33.6382 42.0212C57.1711 11.2823 96.613 -0.938196 131.884 3.88312C167.155 8.70443 198.768 28.3078 226.44 51.6394C261.041 80.812 292.876 117.416 335.909 128.462C365.221 136 396.362 130.665 426.833 128.307C477.768 124.375 528.523 128.903 578.968 134.018C627.258 138.912 675.883 144.378 721.618 160.425C753.983 171.781 779.638 193.244 810.11 207.912C829.969 217.473 851.821 219.692 870.513 232.043C893.581 247.257 914.428 274.211 907.661 306.557C901.27 337.304 871.607 353.432 854.629 376.69Z" fill="#FC6464"/>
<path d="M643.745 126.376C633.738 126.28 623.736 126.883 613.812 128.179C613.812 126.275 613.055 124.449 611.708 123.103C610.361 121.756 608.534 121 606.628 121C604.723 121 602.896 121.756 601.549 123.103C600.202 124.449 599.445 126.275 599.445 128.179C589.521 126.883 579.519 126.28 569.512 126.376C547.367 126.376 529.402 128.749 529.402 131.763C529.402 134.777 547.355 137.151 569.512 137.151C579.519 137.246 589.521 136.643 599.445 135.347C599.445 136.21 599.602 137.067 599.908 137.874C599.26 138.274 598.717 138.823 598.325 139.476C597.934 140.129 597.705 140.866 597.658 141.626C597.612 142.385 597.749 143.145 598.058 143.841C598.366 144.537 598.838 145.148 599.433 145.623C597.69 146.218 596.09 147.168 594.734 148.414C593.379 149.661 592.298 151.175 591.561 152.862C589.574 151.346 587.171 150.472 584.674 150.358L510.096 147.036C507.381 143.405 503.857 140.458 499.802 138.429C495.748 136.4 491.275 135.345 486.74 135.347H439.792C435.22 135.345 430.712 136.418 426.632 138.479C422.552 140.541 419.015 143.533 416.306 147.214L345.468 150.382C343.157 150.484 340.922 151.237 339.021 152.554C337.625 149.566 335.166 147.205 332.122 145.932C332.885 145.446 333.493 144.753 333.876 143.934C334.258 143.114 334.398 142.203 334.279 141.307C334.161 140.41 333.789 139.566 333.207 138.874C332.625 138.182 331.857 137.671 330.994 137.4C331.193 136.734 331.293 136.042 331.291 135.347C341.215 136.644 351.217 137.246 361.224 137.151C383.369 137.151 401.333 134.777 401.333 131.763C401.333 128.749 383.381 126.376 361.224 126.376C351.217 126.28 341.215 126.883 331.291 128.179C331.291 126.291 330.54 124.48 329.204 123.145C327.868 121.809 326.056 121.059 324.167 121.059C322.277 121.059 320.465 121.809 319.129 123.145C317.793 124.48 317.043 126.291 317.043 128.179C307.119 126.883 297.117 126.28 287.109 126.376C264.965 126.376 247 128.749 247 131.763C247 134.777 264.953 137.151 287.109 137.151C297.117 137.246 307.119 136.643 317.043 135.347C317.042 136.21 317.199 137.067 317.506 137.874C316.838 138.284 316.282 138.852 315.887 139.528C315.492 140.204 315.271 140.967 315.242 141.75C315.214 142.532 315.38 143.309 315.725 144.012C316.07 144.715 316.584 145.321 317.221 145.778C314.708 146.725 312.542 148.414 311.013 150.62C309.484 152.827 308.663 155.447 308.66 158.131V166.984C308.663 170.469 310.043 173.812 312.5 176.286C314.957 178.759 318.293 180.163 321.78 180.191H327.04C329.102 180.191 331.135 179.708 332.977 178.781C334.818 177.853 336.417 176.508 337.643 174.851C339.829 176.887 342.683 178.056 345.67 178.138L415.131 180.084C417.348 183.582 420.282 186.571 423.739 188.854C417.09 195.606 391.158 225.546 395.337 278.305C395.337 278.305 399.529 286.078 410.298 278.305C410.298 278.305 403.411 219.517 441.965 195.309C442.618 197.184 443.839 198.81 445.458 199.96C447.077 201.11 449.014 201.729 451.001 201.729H455.928C450.353 203.927 445.72 208 442.828 213.246C439.936 218.492 438.965 224.582 440.085 230.466C441.204 236.351 444.342 241.66 448.959 245.48C453.575 249.299 459.381 251.389 465.374 251.389C471.367 251.389 477.172 249.299 481.789 245.48C486.405 241.66 489.544 236.351 490.663 230.466C491.782 224.582 490.812 218.492 487.92 213.246C485.028 208 480.394 203.927 474.819 201.729H479.747C481.733 201.729 483.671 201.11 485.29 199.96C486.909 198.81 488.13 197.184 488.783 195.309C527.336 219.517 520.45 278.305 520.45 278.305C531.219 286.078 535.41 278.305 535.41 278.305C540.16 217.88 505.477 187.382 505.477 187.382H504.848C507.401 185.363 509.6 182.933 511.354 180.191L584.472 178.15C587.616 178.078 590.612 176.804 592.843 174.59C594.059 176.341 595.682 177.772 597.572 178.76C599.462 179.748 601.563 180.263 603.696 180.262H608.956C610.693 180.262 612.413 179.92 614.018 179.256C615.622 178.592 617.081 177.618 618.309 176.39C619.537 175.163 620.511 173.706 621.176 172.102C621.841 170.498 622.183 168.779 622.183 167.043V158.19C622.182 155.637 621.442 153.139 620.051 150.997C618.661 148.856 616.679 147.162 614.346 146.122C615.158 145.673 615.82 144.996 616.251 144.176C616.682 143.355 616.864 142.426 616.773 141.504C616.682 140.581 616.323 139.705 615.74 138.985C615.157 138.264 614.375 137.729 613.491 137.447C613.69 136.781 613.79 136.089 613.788 135.394C623.712 136.691 633.714 137.294 643.722 137.198C665.866 137.198 683.831 134.825 683.831 131.811C683.831 128.796 665.902 126.376 643.745 126.376Z" fill="url(#paint0_linear)"/>
<path d="M465.381 248.556C478.785 248.556 489.651 237.696 489.651 224.3C489.651 210.904 478.785 200.045 465.381 200.045C451.977 200.045 441.111 210.904 441.111 224.3C441.111 237.696 451.977 248.556 465.381 248.556Z" fill="#3A3768"/>
<path d="M465.378 240.664C474.421 240.664 481.751 233.337 481.751 224.299C481.751 215.262 474.421 207.935 465.378 207.935C456.335 207.935 449.004 215.262 449.004 224.299C449.004 233.337 456.335 240.664 465.378 240.664Z" fill="#FC6464"/>
<path d="M465.378 240.664C474.421 240.664 481.751 233.337 481.751 224.299C481.751 215.262 474.421 207.935 465.378 207.935C456.335 207.935 449.004 215.262 449.004 224.299C449.004 233.337 456.335 240.664 465.378 240.664Z" fill="#CEDDF9"/>
<path d="M465.382 235.016C471.304 235.016 476.104 230.218 476.104 224.3C476.104 218.382 471.304 213.585 465.382 213.585C459.461 213.585 454.66 218.382 454.66 224.3C454.66 230.218 459.461 235.016 465.382 235.016Z" fill="#CEDDF9"/>
<path d="M465.382 235.016C471.304 235.016 476.104 230.218 476.104 224.3C476.104 218.382 471.304 213.585 465.382 213.585C459.461 213.585 454.66 218.382 454.66 224.3C454.66 230.218 459.461 235.016 465.382 235.016Z" fill="white"/>
<path d="M427.549 188.19C427.549 188.19 394.813 216.979 399.325 273.939C399.325 273.939 403.279 281.272 413.443 273.939C413.443 273.939 404.977 201.718 461.424 188.178L427.549 188.19Z" fill="#DFEAFF"/>
<path d="M503.195 188.19C503.195 188.19 535.943 216.979 531.466 273.939C531.466 273.939 527.512 281.272 517.348 273.939C517.348 273.939 525.814 201.718 469.367 188.178L503.195 188.19Z" fill="#DFEAFF"/>
<path d="M485.554 139.097H441.242C426.041 139.097 413.719 151.412 413.719 166.604C413.719 181.795 426.041 194.111 441.242 194.111H485.554C500.755 194.111 513.077 181.795 513.077 166.604C513.077 151.412 500.755 139.097 485.554 139.097Z" fill="#3A3768"/>
<path d="M429.997 181.64L352.474 179.468C349.447 179.385 346.572 178.124 344.461 175.954C342.349 173.784 341.169 170.877 341.17 167.851V164.884C341.17 161.893 342.324 159.018 344.392 156.856C346.46 154.694 349.282 153.413 352.272 153.278L429.795 149.801C431.364 149.731 432.931 149.979 434.401 150.53C435.871 151.082 437.215 151.925 438.35 153.01C439.485 154.094 440.389 155.398 441.006 156.841C441.623 158.284 441.941 159.837 441.941 161.407V170.034C441.94 171.586 441.628 173.122 441.024 174.551C440.419 175.981 439.533 177.275 438.42 178.357C437.307 179.438 435.988 180.286 434.541 180.85C433.094 181.414 431.549 181.682 429.997 181.64Z" fill="#FC6464"/>
<path d="M500.195 181.64L577.718 179.468C580.745 179.385 583.62 178.124 585.731 175.954C587.842 173.784 589.023 170.877 589.021 167.851V164.884C589.021 161.893 587.867 159.018 585.799 156.856C583.732 154.694 580.909 153.413 577.92 153.278L500.397 149.801C498.828 149.731 497.261 149.979 495.791 150.53C494.32 151.082 492.977 151.925 491.842 153.01C490.706 154.094 489.803 155.398 489.186 156.841C488.568 158.284 488.25 159.837 488.25 161.407V170.034C488.251 171.586 488.563 173.122 489.168 174.551C489.773 175.981 490.658 177.275 491.772 178.357C492.885 179.438 494.204 180.286 495.651 180.85C497.097 181.414 498.643 181.682 500.195 181.64Z" fill="#FC6464"/>
<path d="M429.997 181.64L352.474 179.468C349.447 179.385 346.572 178.124 344.461 175.954C342.349 173.784 341.169 170.877 341.17 167.851V164.884C341.17 161.893 342.324 159.018 344.392 156.856C346.46 154.694 349.282 153.413 352.272 153.278L429.795 149.801C431.364 149.731 432.931 149.979 434.401 150.53C435.871 151.082 437.215 151.925 438.35 153.01C439.485 154.094 440.389 155.398 441.006 156.841C441.623 158.284 441.941 159.837 441.941 161.407V170.034C441.94 171.586 441.628 173.122 441.024 174.551C440.419 175.981 439.533 177.275 438.42 178.357C437.307 179.438 435.988 180.286 434.541 180.85C433.094 181.414 431.549 181.682 429.997 181.64Z" fill="#DFEAFF"/>
<path d="M500.195 181.64L577.718 179.468C580.745 179.385 583.62 178.124 585.731 175.954C587.842 173.784 589.023 170.877 589.021 167.851V164.884C589.021 161.893 587.867 159.018 585.799 156.856C583.732 154.694 580.909 153.413 577.92 153.278L500.397 149.801C498.828 149.731 497.261 149.979 495.791 150.53C494.32 151.082 492.977 151.925 491.842 153.01C490.706 154.094 489.803 155.398 489.186 156.841C488.568 158.284 488.25 159.837 488.25 161.407V170.034C488.251 171.586 488.563 173.122 489.168 174.551C489.773 175.981 490.658 177.275 491.772 178.357C492.885 179.438 494.204 180.286 495.651 180.85C497.097 181.414 498.643 181.682 500.195 181.64Z" fill="#DFEAFF"/>
<path d="M334.127 148.128H330.732C323.407 148.128 317.469 154.062 317.469 161.383V168.159C317.469 175.479 323.407 181.414 330.732 181.414H334.127C341.452 181.414 347.39 175.479 347.39 168.159V161.383C347.39 154.062 341.452 148.128 334.127 148.128Z" fill="#3A3768"/>
<path d="M600.026 148.128H596.63C589.305 148.128 583.367 154.062 583.367 161.383V168.159C583.367 175.479 589.305 181.414 596.63 181.414H600.026C607.351 181.414 613.289 175.479 613.289 168.159V161.383C613.289 154.062 607.351 148.128 600.026 148.128Z" fill="#3A3768"/>
<path d="M337.228 140.794H328.192C325.7 140.794 323.68 142.813 323.68 145.304V145.316C323.68 147.806 325.7 149.825 328.192 149.825H337.228C339.719 149.825 341.74 147.806 341.74 145.316V145.304C341.74 142.813 339.719 140.794 337.228 140.794Z" fill="#FC6464"/>
<path d="M338.925 132.333C338.925 128.59 335.892 125.557 332.151 125.557C328.41 125.557 325.377 128.59 325.377 132.333V139.097C325.377 142.839 328.41 145.872 332.151 145.872C335.892 145.872 338.925 142.839 338.925 139.097V132.333Z" fill="#3A3768"/>
<path d="M297.142 140.794C318.035 140.794 334.971 138.52 334.971 135.715C334.971 132.91 318.035 130.636 297.142 130.636C276.249 130.636 259.312 132.91 259.312 135.715C259.312 138.52 276.249 140.794 297.142 140.794Z" fill="#FC6464"/>
<path d="M367.15 140.794C388.042 140.794 404.979 138.52 404.979 135.715C404.979 132.91 388.042 130.636 367.15 130.636C346.257 130.636 329.32 132.91 329.32 135.715C329.32 138.52 346.257 140.794 367.15 140.794Z" fill="#FC6464"/>
<path d="M603.685 140.794H594.649C592.157 140.794 590.137 142.813 590.137 145.304V145.316C590.137 147.806 592.157 149.825 594.649 149.825H603.685C606.176 149.825 608.196 147.806 608.196 145.316V145.304C608.196 142.813 606.176 140.794 603.685 140.794Z" fill="#3A3768"/>
<path d="M605.38 132.333C605.38 128.59 602.347 125.557 598.606 125.557C594.865 125.557 591.832 128.59 591.832 132.333V139.097C591.832 142.839 594.865 145.872 598.606 145.872C602.347 145.872 605.38 142.839 605.38 139.097V132.333Z" fill="#3A3768"/>
<path d="M563.611 140.794C584.503 140.794 601.44 138.52 601.44 135.715C601.44 132.91 584.503 130.636 563.611 130.636C542.718 130.636 525.781 132.91 525.781 135.715C525.781 138.52 542.718 140.794 563.611 140.794Z" fill="#FC6464"/>
<path d="M633.607 140.794C654.499 140.794 671.436 138.52 671.436 135.715C671.436 132.91 654.499 130.636 633.607 130.636C612.714 130.636 595.777 132.91 595.777 135.715C595.777 138.52 612.714 140.794 633.607 140.794Z" fill="#FC6464"/>
<path d="M297.142 140.794C318.035 140.794 334.971 138.52 334.971 135.715C334.971 132.91 318.035 130.636 297.142 130.636C276.249 130.636 259.312 132.91 259.312 135.715C259.312 138.52 276.249 140.794 297.142 140.794Z" fill="#3A3768"/>
<path d="M367.15 140.794C388.042 140.794 404.979 138.52 404.979 135.715C404.979 132.91 388.042 130.636 367.15 130.636C346.257 130.636 329.32 132.91 329.32 135.715C329.32 138.52 346.257 140.794 367.15 140.794Z" fill="#3A3768"/>
<path d="M563.611 140.794C584.503 140.794 601.44 138.52 601.44 135.715C601.44 132.91 584.503 130.636 563.611 130.636C542.718 130.636 525.781 132.91 525.781 135.715C525.781 138.52 542.718 140.794 563.611 140.794Z" fill="#3A3768"/>
<path d="M633.607 140.794C654.499 140.794 671.436 138.52 671.436 135.715C671.436 132.91 654.499 130.636 633.607 130.636C612.714 130.636 595.777 132.91 595.777 135.715C595.777 138.52 612.714 140.794 633.607 140.794Z" fill="#3A3768"/>
<path d="M478.928 183.669H451.833C446.842 183.669 442.797 187.709 442.797 192.693C442.797 197.677 446.842 201.718 451.833 201.718H478.928C483.919 201.718 487.964 197.677 487.964 192.693C487.964 187.709 483.919 183.669 478.928 183.669Z" fill="#FC6464"/>
<path d="M478.928 183.669H451.833C446.842 183.669 442.797 187.709 442.797 192.693C442.797 197.677 446.842 201.718 451.833 201.718H478.928C483.919 201.718 487.964 197.677 487.964 192.693C487.964 187.709 483.919 183.669 478.928 183.669Z" fill="#3A3768"/>
<path d="M506.38 277.45H405.799V377.973H506.38H532.075V277.45H506.38Z" fill="#3A3768"/>
<path d="M532.085 277.45H506.379V377.973H532.085V277.45Z" fill="#DFEAFF"/>
<path opacity="0.25" d="M437.084 294.207H418.086V304.258H437.084V294.207Z" fill="black"/>
<path d="M744.212 441.358C744.212 441.358 748.105 446.448 742.416 454.133C736.726 461.818 732.033 468.303 733.927 473.1C733.927 473.1 742.514 458.824 749.509 458.628C756.505 458.432 751.909 449.94 744.212 441.358Z" fill="#FC6464"/>
<path opacity="0.1" d="M744.211 441.358C744.561 441.859 744.836 442.409 745.027 442.989C751.851 451.001 755.484 458.49 748.929 458.661C742.823 458.832 735.493 469.747 733.738 472.529C733.795 472.742 733.863 472.952 733.942 473.157C733.942 473.157 742.529 458.881 749.525 458.685C756.52 458.489 751.908 449.94 744.211 441.358Z" fill="black"/>
<path d="M751.453 447.844C751.453 449.638 751.249 451.107 751.004 451.107C750.759 451.107 750.555 449.655 750.555 447.844C750.555 446.033 750.808 446.897 751.053 446.897C751.297 446.897 751.453 446.049 751.453 447.844Z" fill="#FFD037"/>
<path d="M753.944 449.981C752.368 450.837 750.997 451.36 750.883 451.139C750.768 450.919 751.944 450.046 753.519 449.19C755.095 448.333 754.474 448.953 754.589 449.19C754.703 449.426 755.519 449.124 753.944 449.981Z" fill="#FFD037"/>
<path d="M723.644 441.358C723.644 441.358 719.75 446.448 725.44 454.133C731.129 461.818 735.823 468.303 733.929 473.1C733.929 473.1 725.342 458.824 718.347 458.628C711.351 458.432 715.955 449.94 723.644 441.358Z" fill="#FC6464"/>
<path opacity="0.1" d="M723.644 441.358C723.294 441.859 723.019 442.409 722.828 442.989C716.004 451.001 712.372 458.49 718.926 458.661C725.032 458.832 732.362 469.747 734.117 472.529C734.061 472.742 733.992 472.952 733.913 473.157C733.913 473.157 725.326 458.881 718.33 458.685C711.335 458.489 715.955 449.94 723.644 441.358Z" fill="black"/>
<path d="M716.402 447.844C716.402 449.638 716.606 451.107 716.851 451.107C717.096 451.107 717.3 449.655 717.3 447.844C717.3 446.033 717.047 446.897 716.802 446.897C716.557 446.897 716.402 446.049 716.402 447.844Z" fill="#FFD037"/>
<path d="M713.922 449.981C715.498 450.837 716.869 451.36 716.983 451.139C717.098 450.919 715.922 450.046 714.347 449.19C712.772 448.333 713.392 448.953 713.278 449.19C713.163 449.426 712.347 449.124 713.922 449.981Z" fill="#FFD037"/>
<path d="M760.595 474.259C760.595 474.259 749.885 472.121 747.029 469.266C744.172 466.411 731.315 461.418 729.887 464.983C728.459 468.548 710.607 480.687 722.745 482.824C734.883 484.962 751.314 485.68 754.881 484.252C758.448 482.824 760.595 474.259 760.595 474.259Z" fill="#A8A8A8"/>
<path opacity="0.2" d="M722.743 481.495C734.881 483.632 751.313 484.35 754.88 482.922C757.598 481.837 759.492 476.616 760.234 474.185L760.594 474.259C760.594 474.259 758.455 482.825 754.88 484.252C751.304 485.68 734.881 484.962 722.743 482.825C719.242 482.205 718.238 480.752 718.613 478.917C718.915 480.108 720.14 481.038 722.743 481.495Z" fill="black"/>
<path d="M651.584 256.409C651.584 256.093 651.554 255.791 651.494 255.503C651.434 255.215 651.38 254.883 651.331 254.508C651.211 253.855 651.078 253.224 650.931 252.615C650.855 252.311 650.776 252.012 650.694 251.718C649.799 248.347 648.187 245.208 645.968 242.516L645.585 242.075C645.329 241.792 645.078 241.521 644.834 241.259C644.589 240.998 644.347 240.765 644.107 240.558C643.87 240.338 643.634 240.134 643.413 239.946C642.964 239.571 642.548 239.261 642.173 239C641.797 238.739 641.642 238.641 641.422 238.51C640.886 238.184 640.283 237.984 639.658 237.923L635.773 237.531L630.516 237.009L611.53 229.52L610.779 229.79C610.225 228.236 609.756 226.654 609.375 225.05C609.952 224.796 610.465 224.417 610.877 223.94C611.326 223.583 611.679 223.121 611.906 222.594C612.379 221.477 611.465 219.078 611.652 217.7C611.954 215.505 613.081 213.384 613.987 211.393C615.938 207.119 617.358 202.485 617.13 197.794C616.901 193.103 614.795 188.339 610.893 185.721C608.877 184.366 606.502 183.64 604.412 182.4C602.78 181.438 601.343 180.181 599.784 179.096C595.98 176.516 591.564 174.982 586.979 174.648C582.393 174.314 577.801 175.193 573.663 177.196C569.721 179.17 566.358 182.09 562.636 184.489C558.914 186.887 554.53 188.674 550.18 187.98C550.118 188.158 550.075 188.341 550.049 188.527L549.682 188.478C548.931 190.558 550.767 192.606 552.465 194.025C555.681 196.717 559.322 199.401 563.517 199.499C565.15 199.499 566.848 199.189 568.325 199.866C568.647 200.019 568.949 200.211 569.223 200.437C568.279 204.223 568.384 208.194 569.529 211.924C570.674 215.654 572.815 219.002 575.721 221.607L566.031 218.067C566.031 218.067 565.623 218.279 565.003 218.678L551.543 209.582C551.543 209.582 524.565 199.581 517.072 215.081C509.579 230.581 549.551 222.545 549.551 222.545L558.106 227.318C557.822 229.109 558.153 230.943 559.044 232.522L582.365 247.166C577.655 248.642 569.909 251 568.537 251C566.538 251 561.044 252.999 557.542 260.985C554.041 268.972 541.552 307.926 530.565 314.411C519.578 320.897 490.568 364.346 490.568 364.346L490.698 364.688C490.181 364.824 489.675 364.977 489.18 365.145C481.932 367.544 477.051 372.593 474.12 376.689C473.623 377.379 473.315 378.186 473.225 379.032C473.135 379.877 473.268 380.731 473.609 381.51C473.95 382.289 474.488 382.965 475.17 383.473C475.852 383.981 476.655 384.302 477.499 384.406C488.927 385.874 495.188 380.523 498.192 376.476C498.388 376.215 498.567 375.954 498.739 375.71C499.632 376.099 500.638 376.146 501.563 375.84L515.57 364.37C515.57 364.37 504.657 375.302 511.04 385.279L510.55 385.972C499.699 401.708 491.754 419.258 487.091 437.791C487.091 437.791 481.091 442.286 480.56 460.258C480.03 478.23 474.03 507.198 474.03 507.198C474.03 507.198 470.031 541.649 472.528 552.14C472.528 552.14 472.814 552.556 473.345 553.193C473.157 553.421 472.953 553.658 472.724 553.911C470.545 556.301 466.61 559.621 462.031 558.626C455.036 557.125 455.036 569.614 465.027 570.61C471.459 571.254 484.111 574.175 492.298 576.173C493.2 576.395 494.142 576.396 495.044 576.177C495.946 575.958 496.782 575.524 497.481 574.914C498.18 574.303 498.722 573.533 499.06 572.669C499.398 571.805 499.523 570.872 499.424 569.949C498.935 565.478 498.045 560.062 496.429 556.211C496.331 555.974 496.225 555.738 496.118 555.509C496.412 555.232 496.706 554.947 497 554.637C497 554.637 497 532.667 500.494 526.671C500.494 526.671 509.987 481.232 509.473 469.746C509.081 460.772 534.099 425.766 544.988 411.009L544.898 410.446C547.78 406.628 549.551 404.344 549.551 404.344L558.048 458.773C558.048 458.773 562.048 470.757 567.027 477.251C567.027 477.251 588.511 518.693 591.009 531.68C592.903 541.527 596.805 547.343 598.584 549.587C598.38 549.799 598.16 550.011 597.931 550.223C595.662 552.344 592.299 554.465 588.511 553.658C581.516 552.157 581.516 564.646 591.507 565.642C597.939 566.286 610.591 569.207 618.778 571.205C619.68 571.427 620.622 571.428 621.524 571.209C622.426 570.989 623.262 570.556 623.961 569.945C624.66 569.335 625.202 568.565 625.54 567.701C625.878 566.836 626.003 565.903 625.904 564.981C625.341 559.784 624.223 553.323 622.068 549.481C621.883 549.16 621.693 548.858 621.497 548.575C622.26 548.263 622.939 547.777 623.48 547.156C623.48 547.156 610.493 515.699 610.493 507.182C610.493 507.182 605 474.722 586.512 462.738C586.512 462.738 588.258 422.144 593.523 399.555C593.654 399.011 593.787 398.467 593.923 397.924C598.832 397.144 603.698 396.114 608.502 394.84L609 379.862L611.497 391.846L639.479 374.372C639.479 374.372 639.234 371.223 638.761 366.393C638.524 363.946 638.23 361.148 637.879 358.072C637.601 355.625 637.283 353.006 636.932 350.339C636.845 349.67 636.755 349.001 636.663 348.332C636.295 345.64 635.896 342.915 635.463 340.255C635.3 339.255 635.131 338.265 634.957 337.286C634.728 335.981 634.492 334.7 634.247 333.46C634.121 332.84 633.996 332.228 633.871 331.624C633.746 331.021 633.618 330.428 633.487 329.846C633.357 329.264 633.224 328.696 633.088 328.141L632.883 327.325C632.747 326.781 632.609 326.254 632.467 325.743C631.882 323.613 631.543 321.423 631.455 319.216C631.422 318.335 631.422 317.457 631.455 316.581C631.488 315.706 631.569 314.83 631.7 313.954C631.76 313.519 631.831 313.084 631.912 312.649C632.235 310.911 632.71 309.205 633.332 307.551C633.643 306.718 633.991 305.903 634.377 305.103C635.283 303.219 636.255 301.171 637.25 299.017C637.751 297.93 638.257 296.828 638.769 295.713C639.28 294.598 639.792 293.456 640.303 292.287C645.201 281.282 649.968 269.013 651.249 260.953C651.388 260.137 651.478 259.321 651.535 258.554C651.598 257.841 651.615 257.124 651.584 256.409Z" fill="url(#paint1_linear)"/>
<path d="M568.103 225.686L551.623 214.543C551.623 214.543 525.454 204.859 518.156 219.87C510.859 234.88 549.656 227.139 549.656 227.139L566.136 236.341L568.103 225.686Z" fill="#F7BBC3"/>
<path d="M616.852 565.274C608.902 563.341 596.642 560.502 590.397 559.882C580.708 558.911 580.708 546.829 587.491 548.257C591.173 549.073 594.429 546.984 596.633 544.929C597.32 544.286 597.963 543.6 598.56 542.873C599.359 541.9 600.463 541.224 601.694 540.956C605.327 540.14 612.893 538.965 617.546 541.47C618.62 542.137 619.487 543.089 620.052 544.219C622.142 547.923 623.227 554.188 623.774 559.229C623.871 560.126 623.751 561.033 623.423 561.873C623.095 562.713 622.568 563.461 621.889 564.054C621.21 564.648 620.397 565.068 619.52 565.281C618.643 565.493 617.728 565.491 616.852 565.274Z" fill="#3A3768"/>
<path d="M494.247 570.121C486.296 568.187 474.036 565.348 467.792 564.728C458.103 563.757 458.103 551.676 464.886 553.103C469.326 554.058 473.146 550.852 475.26 548.535C475.513 548.249 475.75 547.98 475.954 547.719C476.754 546.746 477.858 546.07 479.089 545.802C482.721 544.986 490.288 543.811 494.941 546.316C496.304 547.05 497.389 548.665 498.263 550.746C499.83 554.482 500.712 559.719 501.169 564.076C501.266 564.972 501.145 565.879 500.817 566.719C500.489 567.559 499.963 568.307 499.284 568.901C498.604 569.494 497.792 569.915 496.915 570.127C496.038 570.339 495.123 570.337 494.247 570.121Z" fill="#3A3768"/>
<path opacity="0.1" d="M498.248 550.745C486.674 562.664 476.756 550.525 475.254 548.518C475.507 548.232 475.744 547.963 475.948 547.702C476.747 546.729 477.851 546.054 479.082 545.785C482.715 544.969 490.281 543.795 494.934 546.299C496.289 547.05 497.383 548.665 498.248 550.745Z" fill="black"/>
<path opacity="0.1" d="M620.043 544.219C615.031 547.645 598.151 546.797 598.151 546.797C597.6 546.209 597.093 545.582 596.633 544.921C597.319 544.278 597.963 543.592 598.559 542.865C599.358 541.892 600.463 541.216 601.694 540.948C605.326 540.132 612.893 538.957 617.546 541.462C618.617 542.132 619.482 543.087 620.043 544.219Z" fill="black"/>
<path d="M620.924 541.959C617.529 546.315 598.151 545.353 598.151 545.353C598.151 545.353 592.339 539.544 589.914 526.949C587.49 514.353 566.692 474.151 566.692 474.151C561.843 467.853 557.966 456.203 557.966 456.203L549.73 403.414C549.73 403.414 509.953 455.738 510.435 466.89C510.916 478.042 501.709 522.103 501.709 522.103C498.313 527.911 498.313 549.228 498.313 549.228C485.71 562.28 475.05 546.78 475.05 546.78C472.601 536.608 476.503 503.193 476.503 503.193C476.503 503.193 482.314 475.105 482.804 457.664C483.294 440.222 489.147 435.89 489.147 435.89C493.674 417.922 501.381 400.909 511.904 385.654C514.834 381.461 516.802 379.226 516.802 379.226L595.261 388.428C593.754 391.757 592.621 395.243 591.882 398.821C586.78 420.733 585.082 460.111 585.082 460.111C603.04 471.736 608.346 503.217 608.346 503.217C608.321 511.449 620.924 541.959 620.924 541.959Z" fill="#A1616A"/>
<g opacity="0.05">
<path opacity="0.05" d="M545.365 409.891L544.361 403.438C544.361 403.438 504.658 455.738 505.107 466.89C505.556 478.042 496.381 522.103 496.381 522.103C492.985 527.911 492.985 549.228 492.985 549.228C490.958 551.527 488.333 553.221 485.402 554.123C489.222 555.126 493.859 554.392 498.805 549.228C498.805 549.228 498.805 527.919 502.201 522.103C502.201 522.103 511.409 478.05 510.927 466.89C510.543 458.186 534.811 424.225 545.365 409.891Z" fill="black"/>
<path opacity="0.05" d="M608.814 503.209C608.814 503.209 603.484 471.728 585.551 460.103C585.551 460.103 587.249 420.733 592.35 398.813C593.09 395.234 594.223 391.749 595.73 388.42L517.221 379.218L516.707 379.838L589.918 388.42C588.411 391.749 587.278 395.234 586.538 398.813C581.437 420.725 579.739 460.103 579.739 460.103C597.697 471.728 603.002 503.209 603.002 503.209C603.002 511.441 615.606 541.959 615.606 541.959C613.606 544.529 606.047 545.222 600.186 545.402C604.839 545.524 618.618 545.565 621.409 541.959C621.385 541.959 608.814 511.449 608.814 503.209Z" fill="black"/>
</g>
<path d="M502.207 372.438C501.623 373.871 500.852 375.221 499.913 376.452C496.999 380.376 490.934 385.564 479.841 384.145C479.025 384.038 478.251 383.722 477.593 383.228C476.935 382.734 476.417 382.078 476.088 381.324C475.76 380.57 475.632 379.743 475.717 378.925C475.803 378.107 476.099 377.326 476.576 376.656C479.425 372.691 484.159 367.788 491.187 365.463C493.192 364.798 495.269 364.376 497.375 364.207L502.207 372.438Z" fill="#F7BBC3"/>
<path d="M604.542 236.993L565.68 222.79C565.68 222.79 554.53 228.598 558.897 236.838L596.698 260.569L604.542 236.993Z" fill="#D9D9EA"/>
<path d="M604.542 236.993L565.68 222.79C565.68 222.79 554.53 228.598 558.897 236.838L596.698 260.569L604.542 236.993Z" fill="white"/>
<path d="M605.871 213.58C605.871 213.58 605.389 236.34 615.56 244.09C625.73 251.84 585.995 256.197 585.995 256.197C585.995 256.197 592.296 232.947 585.995 220.84C579.693 208.734 605.871 213.58 605.871 213.58Z" fill="#F7BBC3"/>
<path opacity="0.1" d="M595.26 388.428C593.753 391.757 592.62 395.243 591.881 398.821C545.011 405.976 512.393 386.486 512.393 386.486C512.213 386.209 512.042 385.923 511.887 385.671C514.817 381.477 516.784 379.242 516.784 379.242L595.26 388.428Z" fill="black"/>
<path opacity="0.1" d="M502.207 372.438C501.623 373.871 500.852 375.221 499.914 376.452C495.424 375.709 491.841 367.135 491.18 365.463C493.184 364.798 495.262 364.376 497.367 364.207L502.207 372.438Z" fill="black"/>
<path d="M609.785 233.926L592.341 240.224L585.068 249.907C585.068 249.907 570.049 254.753 568.106 254.753C566.164 254.753 560.833 256.686 557.446 264.436C554.058 272.186 541.937 309.965 531.276 316.263C520.616 322.561 492.504 364.697 492.504 364.697C492.504 364.697 497.353 377.749 503.164 375.84L516.739 364.697C516.739 364.697 506.078 375.351 512.38 385.042C512.38 385.042 552.116 408.774 606.879 394.245L607.36 379.715L609.809 391.34L636.893 374.38C636.893 374.38 634.444 343.119 630.085 327.203C628.271 320.515 628.935 313.397 631.954 307.159C638.991 292.475 649.847 268.001 648.525 259.101C646.966 248.585 641.015 244.017 638.73 242.63C638.21 242.318 637.627 242.126 637.024 242.067L628.2 241.186L609.785 233.926Z" fill="white"/>
<path opacity="0.05" d="M579.982 282.596C579.982 282.596 570.284 327.66 559.624 334.904C548.964 342.149 520.37 365.415 519.398 369.29" fill="black"/>
<path d="M579.614 283.159C579.614 283.159 569.925 328.191 559.265 335.451C548.604 342.712 520.01 365.962 519.039 369.837" fill="#DFEAFF"/>
<path opacity="0.1" d="M584.82 249.662C584.82 249.662 618.287 238.518 627.952 241.431L584.82 249.662Z" fill="black"/>
<g opacity="0.05">
<path opacity="0.05" d="M631.993 307.167C639.029 292.483 649.886 268.009 648.563 259.109C647.004 248.594 641.054 244.025 638.768 242.638C638.249 242.326 637.666 242.134 637.062 242.075L633.291 241.7C633.685 241.795 634.062 241.949 634.409 242.157C636.679 243.544 642.629 248.104 644.205 258.628C645.527 267.553 634.671 292.026 627.634 306.686C624.615 312.924 623.951 320.042 625.765 326.73C630.14 342.638 632.573 373.907 632.573 373.907L609.203 388.501L609.799 391.34L636.891 374.38C636.891 374.38 634.442 343.119 630.083 327.203C628.284 320.513 628.962 313.398 631.993 307.167Z" fill="black"/>
<path opacity="0.05" d="M623.837 240.705L628.033 241.129L609.781 233.926L608.148 234.513L623.837 240.705Z" fill="black"/>
</g>
<path opacity="0.05" d="M575.613 328.125C575.613 328.125 590.633 319.894 595.481 321.827C600.33 323.761 618.255 321.346 618.255 321.346" fill="black"/>
<path opacity="0.05" d="M604.239 219.633C603.684 214.739 605.937 215.554 605.937 215.554C605.937 215.554 579.751 210.676 586.037 222.782C587.632 226.12 588.548 229.742 588.73 233.436H588.975C596.24 233.436 600.484 225.311 604.239 219.633Z" fill="black"/>
<path d="M588.945 231.503C600.454 231.503 609.784 222.178 609.784 210.676C609.784 199.173 600.454 189.849 588.945 189.849C577.435 189.849 568.105 199.173 568.105 210.676C568.105 222.178 577.435 231.503 588.945 231.503Z" fill="#F7BBC3"/>
<path opacity="0.1" d="M611.683 216.834C613.577 212.69 614.948 208.195 614.728 203.643C614.507 199.091 612.458 194.474 608.679 191.928C606.72 190.615 604.418 189.905 602.394 188.706C600.81 187.768 599.415 186.552 597.904 185.5C594.211 182.991 589.921 181.5 585.467 181.176C581.013 180.852 576.553 181.708 572.535 183.656C568.707 185.573 565.45 188.429 561.842 190.729C558.234 193.03 553.981 194.808 549.753 194.115C549.027 196.13 550.806 198.12 552.455 199.499C555.573 202.109 559.107 204.72 563.172 204.81C564.748 204.81 566.437 204.508 567.833 205.169C568.798 205.699 569.616 206.458 570.217 207.379C572.173 209.978 573.829 212.788 575.155 215.758C575.702 216.973 576.249 218.295 577.367 219.021C579.236 220.22 581.669 219.225 583.897 219.135C587.35 219.004 590.427 221.174 593.007 223.491C595.586 225.808 597.994 228.468 601.218 229.691C603.667 230.605 608.442 230.572 609.667 227.701C610.132 226.616 609.242 224.291 609.422 222.969C609.708 220.791 610.769 218.768 611.683 216.834Z" fill="black"/>
<path d="M612.167 216.353C614.061 212.209 615.432 207.714 615.212 203.162C614.992 198.61 612.943 193.993 609.164 191.447C607.204 190.134 604.903 189.424 602.878 188.225C601.295 187.287 599.899 186.071 598.389 185.019C594.695 182.51 590.406 181.018 585.952 180.695C581.498 180.371 577.037 181.227 573.019 183.175C569.191 185.092 565.934 187.948 562.326 190.248C558.718 192.549 554.466 194.327 550.237 193.634C549.511 195.649 551.29 197.639 552.939 199.018C556.057 201.628 559.592 204.239 563.657 204.329C565.232 204.329 566.922 204.027 568.318 204.687C569.282 205.217 570.101 205.977 570.701 206.898C572.668 209.493 574.335 212.3 575.672 215.268C576.219 216.484 576.766 217.805 577.884 218.531C579.754 219.731 582.186 218.735 584.414 218.646C587.867 218.515 590.944 220.685 593.524 223.002C596.103 225.319 598.511 227.978 601.735 229.202C604.184 230.116 608.959 230.083 610.184 227.211C610.649 226.126 609.759 223.801 609.939 222.48C610.192 220.334 611.286 218.279 612.167 216.353Z" fill="#A1616A"/>
</g>
<defs>
<linearGradient id="paint0_linear" x1="465.38" y1="281.77" x2="465.38" y2="120.988" gradientUnits="userSpaceOnUse">
<stop stop-color="#808080" stop-opacity="0.25"/>
<stop offset="0.54" stop-color="#808080" stop-opacity="0.12"/>
<stop offset="1" stop-color="#808080" stop-opacity="0.1"/>
</linearGradient>
<linearGradient id="paint1_linear" x1="186568" y1="284144" x2="186568" y2="86300.2" gradientUnits="userSpaceOnUse">
<stop stop-color="#808080" stop-opacity="0.25"/>
<stop offset="0.54" stop-color="#808080" stop-opacity="0.12"/>
<stop offset="1" stop-color="#808080" stop-opacity="0.1"/>
</linearGradient>
<clipPath id="clip0">
<rect width="909" height="644" fill="white"/>
</clipPath>
</defs>
</svg>
