<svg width="61" height="41" viewBox="0 0 61 41" fill="none" xmlns="http://www.w3.org/2000/svg">
<g clip-path="url(#clip0)">
<path d="M52.2798 5.92202H50.5444V11.5725H46.336C42.9953 11.5725 41.8673 10.3972 40.4355 8.90549C38.6567 7.05212 36.661 5.01794 30.5437 5.01794C24.4263 5.01794 22.4306 7.09733 20.6951 8.90549C19.3068 10.3972 18.1788 11.5725 14.7947 11.5725H10.4128V5.92202H8.67737V11.5725H4.90283V18.4887H8.67737L11.7144 21.5174H17.8317L15.0117 27.4391V40.0962C15.0117 40.5935 15.4021 41.0003 15.8794 41.0003C16.3566 41.0003 16.7471 40.5935 16.7471 40.0962V27.8912L19.7841 21.5626H19.8708L21.8666 25.7214C22.6475 27.3487 24.166 28.3432 25.9014 28.3432H29.7193V29.5637C27.1162 30.0157 25.1639 32.3211 25.1639 35.169C25.1639 38.2881 27.5934 40.8195 30.587 40.8195C33.5806 40.8195 36.0102 38.2881 36.0102 35.169C36.0102 32.3663 34.0145 30.0157 31.4547 29.5637V28.3432H35.2727C37.0081 28.3432 38.57 27.3487 39.3075 25.7214L41.3032 21.5626H41.39L44.427 27.6651V40.1414C44.427 40.6387 44.8175 41.0455 45.2947 41.0455C45.772 41.0455 46.1624 40.6387 46.1624 40.1414V27.2131L43.3424 21.5626H49.4163L52.4533 18.5339H56.2279V11.5725H52.2798V5.92202ZM30.587 39.9154C28.0707 39.9154 26.0316 37.7908 26.0316 35.169C26.0316 32.5472 28.0707 30.4226 30.587 30.4226C33.1034 30.4226 35.1425 32.5472 35.1425 35.169C35.1425 37.7456 33.1034 39.9154 30.587 39.9154ZM54.4924 16.6806H51.7592L48.7222 19.7092H43.3424V19.664H19.437V19.7092H18.6994H12.4519L9.41492 16.6806H6.68164V13.3807H14.8815C18.9597 13.3807 20.5216 11.7533 21.9967 10.1712C23.5586 8.49865 25.2072 6.7809 30.6304 6.7809C36.0536 6.7809 37.7023 8.49865 39.3075 10.1712C40.826 11.7533 42.3879 13.3355 46.4227 13.3355H54.5792V16.6806H54.4924ZM35.2293 26.535H25.9014C24.8168 26.535 23.8623 25.9022 23.4284 24.9077L21.3459 20.5681H39.8281L37.7456 24.9077C37.2684 25.9022 36.3139 26.535 35.2293 26.535Z" fill="white"/>
<path d="M52.2794 0.000244141H50.5439V1.89881H52.2794V0.000244141Z" fill="white"/>
<path d="M60.1759 3.70696C59.9155 3.66176 59.6119 3.57135 59.2214 3.52615C59.0478 3.48094 58.8309 3.48094 58.6574 3.43574C58.4404 3.39054 58.2235 3.43574 58.0066 3.43574C56.2278 3.43574 53.8416 3.43574 51.4554 3.43574C49.0692 3.43574 46.683 3.43574 44.9042 3.43574C44.6872 3.43574 44.4703 3.39054 44.2534 3.43574C44.0365 3.48094 43.8629 3.52615 43.6894 3.52615C43.2555 3.61656 42.9518 3.66176 42.6915 3.70696C42.1709 3.79737 41.8672 3.88778 41.8672 3.88778C41.8672 3.88778 42.1709 3.97819 42.6915 4.0686C42.9518 4.1138 43.2555 4.159 43.646 4.24941C43.8195 4.29462 44.0365 4.29462 44.21 4.33982C44.4269 4.38502 44.6439 4.33982 44.8608 4.33982C46.6396 4.33982 49.0258 4.33982 51.412 4.33982C53.7982 4.33982 56.1844 4.33982 57.9632 4.33982C58.1801 4.33982 58.3971 4.38502 58.614 4.33982C58.8309 4.29462 59.0045 4.24941 59.178 4.24941C59.5251 4.20421 59.8722 4.1138 60.1325 4.0686C60.6531 3.97819 60.9568 3.88778 60.9568 3.88778C60.9568 3.88778 60.6965 3.84258 60.1759 3.70696Z" fill="white"/>
<path d="M10.4127 0.000244141H8.67725V1.89881H10.4127V0.000244141Z" fill="white"/>
<path d="M16.1394 4.33978C16.3563 4.33978 16.5733 4.38498 16.7902 4.33978C17.0071 4.29458 17.1807 4.24937 17.3542 4.24937C17.7013 4.20417 18.0484 4.11376 18.3087 4.06856C18.8293 3.97815 19.0896 3.88774 19.0896 3.88774C19.0896 3.88774 18.7859 3.79733 18.2653 3.70693C18.005 3.66172 17.7013 3.61652 17.3542 3.57131C17.1807 3.52611 16.9637 3.52611 16.7902 3.48091C16.5733 3.4357 16.3563 3.48091 16.1394 3.48091C14.3606 3.48091 11.9744 3.48091 9.58819 3.48091C7.20199 3.48091 4.81579 3.48091 3.03698 3.48091C2.82006 3.48091 2.60313 3.4357 2.3862 3.48091C2.12589 3.48091 1.95235 3.52611 1.7788 3.57131C1.38834 3.61652 1.08464 3.66172 0.824324 3.70693C0.303698 3.84254 0 3.88774 0 3.88774C0 3.88774 0.303698 3.97815 0.824324 4.06856C1.08464 4.11376 1.38834 4.15896 1.7788 4.24937C1.95235 4.29458 2.16927 4.29458 2.34282 4.33978C2.55974 4.38498 2.77667 4.33978 2.9936 4.33978C4.7724 4.33978 7.15861 4.33978 9.54481 4.33978C11.931 4.33978 14.3172 4.33978 16.1394 4.33978Z" fill="white"/>
<path d="M31.6279 35.1237C31.6279 35.7114 31.1507 36.2086 30.5867 36.2086C30.0227 36.2086 29.5454 35.7114 29.5454 35.1237C29.5454 34.5361 30.0227 34.0388 30.5867 34.0388V33.1348C29.5454 33.1348 28.6777 34.0388 28.6777 35.1237C28.6777 36.2086 29.5454 37.1127 30.5867 37.1127C31.6279 37.1127 32.4957 36.2086 32.4957 35.1237H31.6279Z" fill="white"/>
</g>
<defs>
<clipPath id="clip0">
<rect width="61" height="41" fill="white" transform="translate(0 0.000244141)"/>
</clipPath>
</defs>
</svg>
