<svg width="57" height="46" viewBox="0 0 57 46" fill="none" xmlns="http://www.w3.org/2000/svg">
<g clip-path="url(#clip0)">
<path d="M19.8835 25.9822C17.3152 23.531 14.167 24.103 13.1728 24.103H13.0899C9.94169 24.1847 6.79343 23.1225 4.39081 20.7531C1.07686 17.3214 0.165524 12.3374 1.90535 8.17047L8.03616 14.2166C9.77599 15.9325 12.6757 15.9325 14.4155 14.2166L14.4984 14.1349C16.2382 12.4191 16.2382 9.55946 14.4984 7.84365L8.28471 1.87917C12.51 0.163363 17.4809 1.06212 20.9606 4.41203C23.3632 6.78148 24.5231 9.88628 24.3574 12.9911V13.0728C24.3574 14.0532 23.8603 17.158 26.2629 19.6909" stroke="#FC6464" stroke-width="2.5" stroke-miterlimit="10" stroke-linejoin="round"/>
<path d="M38.276 31.4565L43.4955 36.604C45.6496 38.7283 46.3952 41.4246 44.2411 43.4672L44.1583 43.5489C42.0042 45.6732 39.2702 45.0196 37.1161 42.8953L31.9795 37.8295" stroke="#FC6464" stroke-width="2.5" stroke-miterlimit="10" stroke-linejoin="round"/>
<path d="M37.6963 20.2626L45.6498 12.4189" stroke="#FC6464" stroke-width="2.5" stroke-miterlimit="10" stroke-linejoin="round"/>
<path d="M55.6745 5.71922L51.035 13.2361L45.9812 12.6642L45.4012 12.0922L44.8213 7.1082L52.4434 2.53271L55.6745 5.71922Z" stroke="#FC6464" stroke-width="2.5" stroke-miterlimit="10"/>
<path d="M21.7065 43.5488C19.801 45.428 16.5699 45.428 14.6644 43.5488L14.0844 42.9769C12.1789 41.0977 12.1789 37.9112 14.0844 36.0319L30.4056 19.936C32.3112 18.0568 35.5423 18.0568 37.4478 19.936L38.0277 20.508C39.9333 22.3872 39.9333 25.5737 38.0277 27.4529L21.7065 43.5488Z" stroke="#FC6464" stroke-width="2.5" stroke-miterlimit="10" stroke-linejoin="round"/>
<path d="M32.8916 25.0017L19.1387 38.5648" stroke="#FC6464" stroke-width="2.5" stroke-miterlimit="10" stroke-linecap="round" stroke-linejoin="round"/>
</g>
<defs>
<clipPath id="clip0">
<rect width="57" height="46" fill="white"/>
</clipPath>
</defs>
</svg>
