<svg width="47" height="52" viewBox="0 0 47 52" fill="none" xmlns="http://www.w3.org/2000/svg">
<g clip-path="url(#clip0)">
<path d="M23.5421 12.136C26.5959 12.136 29.0715 9.64566 29.0715 6.57363C29.0715 3.5016 26.5959 1.01123 23.5421 1.01123C20.4883 1.01123 18.0127 3.5016 18.0127 6.57363C18.0127 9.64566 20.4883 12.136 23.5421 12.136Z" stroke="#FC6464" stroke-width="2.5" stroke-miterlimit="10"/>
<path d="M27.982 52V37.8412C30.3278 37.8412 32.2547 35.9028 32.2547 33.4587V21.5754C32.2547 19.2156 30.3278 17.1929 27.8982 17.1929H19.1014C16.7556 17.1929 14.7449 19.1313 14.8287 21.5754V33.5429C14.8287 35.9028 16.7556 37.9254 19.1852 37.8412V51.9157" stroke="#FC6464" stroke-width="2.5" stroke-miterlimit="10"/>
<path d="M39.4601 17.7828C42.5139 17.7828 44.9895 15.2924 44.9895 12.2204C44.9895 9.14833 42.5139 6.65796 39.4601 6.65796C36.4063 6.65796 33.9307 9.14833 33.9307 12.2204C33.9307 15.2924 36.4063 17.7828 39.4601 17.7828Z" stroke="#FC6464" stroke-width="2.5" stroke-miterlimit="10"/>
<path d="M41.6384 52V40.5381C43.9842 40.5381 45.9949 38.5997 45.9949 36.1556V27.3063C45.9949 24.9465 44.068 22.9238 41.6384 22.9238H36.3604" stroke="#FC6464" stroke-width="2.5" stroke-miterlimit="10"/>
<path d="M7.54015 17.7828C10.594 17.7828 13.0696 15.2924 13.0696 12.2204C13.0696 9.14833 10.594 6.65796 7.54015 6.65796C4.48634 6.65796 2.01074 9.14833 2.01074 12.2204C2.01074 15.2924 4.48634 17.7828 7.54015 17.7828Z" stroke="#FC6464" stroke-width="2.5" stroke-miterlimit="10"/>
<path d="M5.36217 52V40.5381C3.01636 40.5381 1.00566 38.5997 1.08944 36.1556V27.3063C1.08944 24.9465 3.01636 22.9238 5.44595 22.9238H10.724" stroke="#FC6464" stroke-width="2.5" stroke-miterlimit="10"/>
</g>
<defs>
<clipPath id="clip0">
<rect width="47" height="52" fill="white"/>
</clipPath>
</defs>
</svg>
