<svg width="835" height="736" viewBox="0 0 835 736" fill="none" xmlns="http://www.w3.org/2000/svg">
<g clip-path="url(#clip0)">
<path opacity="0.1" d="M676.87 696.525C735.839 696.525 783.643 688.293 783.643 678.14C783.643 667.986 735.839 659.755 676.87 659.755C617.901 659.755 570.097 667.986 570.097 678.14C570.097 688.293 617.901 696.525 676.87 696.525Z" fill="#FC6464"/>
<path opacity="0.1" d="M353.587 671.352C440.89 671.352 511.663 666.341 511.663 660.16C511.663 653.978 440.89 648.967 353.587 648.967C266.284 648.967 195.511 653.978 195.511 660.16C195.511 666.341 266.284 671.352 353.587 671.352Z" fill="#FC6464"/>
<path d="M258.337 25.7762C286.647 0.523013 331.088 -4.61931 371.505 -2.60554C498.541 3.68752 613.209 65.0988 712.401 134.529C748.328 159.701 783.661 186.753 806.969 221.373C854.418 291.838 840.344 389.488 774.365 447.501C751.911 467.279 724.706 482.391 696.764 495.814C647.096 519.682 593.476 538.84 537.126 544.288C496.924 548.181 456.22 545.016 416.252 539.595C304.593 524.438 194.99 490.914 103.145 433.566C62.8532 408.394 24.8701 377.145 8.26315 336.473C-8.3438 295.802 2.2904 244.217 43.4261 220.133C60.4911 210.172 80.7894 205.677 100.711 201.451C130.026 195.23 159.818 189.099 186.278 176.459C213.618 163.387 245.952 138.134 240.563 109.24C234.725 78.2153 230.063 50.9933 258.337 25.7762Z" fill="#FB5252"/>
<g opacity="0.1">
<path opacity="0.1" d="M365.236 581.065C368.685 586.935 374.092 590.72 380.182 590.72C390.582 590.72 399.043 579.689 399.043 566.069C399.043 552.449 390.555 541.508 380.182 541.508C375.287 541.508 370.823 543.954 367.473 547.972C366.202 549.51 365.125 551.198 364.266 552.998L364.087 554.068C364.087 554.068 360.072 557.502 354.602 554.346V474.496H276.714C276.084 473.671 275.668 472.701 275.503 471.675C275.339 470.649 275.431 469.599 275.771 468.617C276.352 466.792 277.609 465.258 279.282 464.329C285.147 460.876 288.938 455.464 288.938 449.369C288.938 438.959 277.908 430.49 264.31 430.49C250.712 430.49 239.683 438.932 239.683 449.369C239.683 454.269 242.135 458.746 246.149 462.099C247.684 463.366 249.367 464.441 251.161 465.3L251.269 465.479C252.447 466.62 253.228 468.109 253.498 469.727C253.768 471.345 253.512 473.007 252.769 474.469H217.642V622.338C217.642 631.637 221.332 640.555 227.901 647.13C234.47 653.706 243.38 657.4 252.67 657.4H354.629V578.934C355.46 578.145 356.493 577.601 357.614 577.363C358.735 577.125 359.899 577.202 360.979 577.586C362.79 578.159 364.313 579.404 365.236 581.065Z" fill="black"/>
<path opacity="0.1" d="M234.15 471.386H246.347C243.382 469.105 240.974 466.179 239.308 462.828C237.641 459.478 236.759 455.791 236.728 452.048C236.728 438.033 248.943 426.678 264.005 426.678C279.067 426.678 291.291 438.033 291.291 452.048C291.26 455.791 290.378 459.478 288.711 462.828C287.044 466.179 284.637 469.105 281.672 471.386H354.782V392.606C355.617 391.824 356.65 391.285 357.769 391.048C358.888 390.81 360.051 390.882 361.132 391.257C362.96 391.835 364.497 393.093 365.425 394.772C368.865 400.643 374.272 404.428 380.37 404.428C390.771 404.428 399.231 393.397 399.231 379.786C399.231 366.175 390.807 355.135 380.37 355.135C375.466 355.135 371.002 357.589 367.652 361.599C366.386 363.139 365.309 364.826 364.446 366.624L364.275 366.732C363.071 367.99 361.476 368.801 359.75 369.031C358.025 369.262 356.273 368.898 354.782 368V288.168H279.794C279.164 287.342 278.749 286.373 278.584 285.347C278.42 284.321 278.511 283.27 278.851 282.288C279.429 280.461 280.686 278.926 282.363 278C288.228 274.557 292.009 269.136 292.009 263.041C292.009 252.63 280.989 244.161 267.391 244.161C253.793 244.161 242.763 252.603 242.763 263.041C242.763 267.949 245.215 272.417 249.221 275.771C250.76 277.038 252.446 278.116 254.242 278.98L254.35 279.151C255.527 280.292 256.309 281.78 256.579 283.399C256.849 285.017 256.593 286.679 255.849 288.141H234.15V284.095H250.173C247.214 281.818 244.811 278.897 243.146 275.553C241.481 272.209 240.597 268.53 240.563 264.794C240.563 250.778 252.778 239.415 267.849 239.415C282.92 239.415 295.126 250.778 295.126 264.794C295.09 268.538 294.202 272.225 292.529 275.574C290.856 278.924 288.442 281.847 285.471 284.122H354.719V204.38C355.552 203.592 356.587 203.049 357.709 202.811C358.831 202.573 359.996 202.649 361.078 203.032C362.902 203.613 364.435 204.87 365.362 206.547C368.802 212.417 374.218 216.202 380.307 216.202C390.708 216.202 399.169 205.171 399.169 191.551C399.169 177.932 390.744 166.91 380.307 166.91C375.403 166.91 370.939 169.355 367.589 173.374C366.319 174.911 365.242 176.599 364.383 178.399L364.212 179.469C364.212 179.469 360.197 182.903 354.719 179.748V105.373H252.805C243.515 105.373 234.605 109.067 228.036 115.642C221.467 122.217 217.777 131.135 217.777 140.434V178.39H217.247C216.701 178.39 216.178 178.607 215.792 178.993C215.407 179.379 215.19 179.903 215.19 180.449V198.429C215.192 198.974 215.41 199.496 215.795 199.882C216.18 200.268 216.702 200.485 217.247 200.488H217.777V218.845H217.085C216.539 218.845 216.015 219.062 215.627 219.448C215.24 219.834 215.022 220.357 215.019 220.904V255.237C215.022 255.784 215.24 256.308 215.627 256.694C216.015 257.079 216.539 257.296 217.085 257.296H217.777V270.781H217.211C216.665 270.781 216.142 270.998 215.756 271.384C215.371 271.77 215.154 272.294 215.154 272.84V283.898H214.705V307.2C214.704 307.471 214.756 307.739 214.859 307.989C214.962 308.239 215.113 308.467 215.305 308.658C215.496 308.85 215.723 309.001 215.973 309.104C216.223 309.207 216.491 309.26 216.762 309.259H217.372V471.386H234.15Z" fill="black"/>
<path opacity="0.1" d="M500.66 232.699C500.66 232.152 500.444 231.628 500.059 231.24C499.673 230.853 499.15 230.634 498.604 230.631H497.364V228.375H496.691V138.699C496.692 134.271 495.821 129.887 494.129 125.796C492.437 121.705 489.956 117.988 486.828 114.858C483.701 111.727 479.987 109.244 475.9 107.55C471.813 105.856 467.433 104.985 463.01 104.986H361.967V173.311C364.275 170.245 367.258 167.753 370.686 166.03C374.113 164.307 377.891 163.399 381.726 163.377C395.836 163.377 407.279 175.612 407.279 190.698C407.279 205.783 395.836 218.018 381.726 218.018C377.891 217.997 374.112 217.09 370.685 215.367C367.257 213.643 364.274 211.151 361.967 208.084V283.898H443.699C440.738 281.611 438.335 278.68 436.671 275.327C435.008 271.974 434.128 268.286 434.098 264.542C434.098 250.509 446.286 239.136 461.33 239.136C468.017 239.099 474.5 241.437 479.626 245.735C482.439 247.985 484.711 250.84 486.272 254.089C487.833 257.338 488.644 260.897 488.644 264.502C488.644 268.107 487.833 271.665 486.272 274.914C484.711 278.163 482.439 281.018 479.626 283.268V283.871H497.364V283.808H500.66V232.699Z" fill="black"/>
<path opacity="0.1" d="M473.527 467.349V458.359C473.898 457.819 474.236 457.257 474.542 456.678C475.745 454.488 476.381 452.031 476.392 449.531C476.39 447.865 476.104 446.211 475.548 444.64C475.058 443.241 474.378 441.916 473.527 440.703C469.387 434.742 461.205 430.679 451.774 430.679C438.167 430.679 427.146 439.12 427.146 449.558C427.146 454.466 429.598 458.935 433.604 462.288C435.143 463.556 436.829 464.633 438.625 465.497L438.733 465.668C439.909 466.81 440.69 468.298 440.96 469.916C441.23 471.534 440.975 473.196 440.233 474.658H360.997V548.377C363.272 545.33 366.222 542.851 369.614 541.135C373.006 539.42 376.749 538.514 380.55 538.488C394.552 538.488 405.896 550.714 405.896 565.791C405.896 580.867 394.552 593.103 380.55 593.103C376.749 593.077 373.006 592.171 369.614 590.455C366.222 588.739 363.272 586.261 360.997 583.213V642.719H451.918C457.64 642.719 463.128 640.447 467.179 636.403C471.23 632.358 473.513 626.87 473.527 621.143V474.685V621.044C473.527 626.78 471.251 632.282 467.198 636.338C463.145 640.395 457.649 642.674 451.918 642.674H360.997V657.058H455.304C464.594 657.058 473.503 653.364 480.072 646.789C486.641 640.213 490.332 631.296 490.332 621.997V474.685V470.819H473.527V467.349Z" fill="black"/>
</g>
<path d="M256.954 639.375C251.223 639.375 245.727 637.096 241.674 633.039C237.621 628.983 235.345 623.481 235.345 617.745V470.901H218.54V618.742C218.54 628.041 222.23 636.959 228.8 643.535C235.369 650.11 244.278 653.804 253.568 653.804H355.527V639.42L256.954 639.375Z" fill="#3A3768"/>
<path d="M361.814 573.99C363.641 574.565 365.176 575.825 366.098 577.505C369.547 583.375 374.954 587.16 381.044 587.16C391.444 587.16 399.905 576.129 399.905 562.509C399.905 548.889 391.453 537.913 381.08 537.913C376.185 537.913 371.721 540.358 368.371 544.376C367.1 545.914 366.023 547.602 365.164 549.402L364.985 550.472C364.985 550.472 360.97 553.906 355.5 550.75V470.9H277.612C276.982 470.075 276.566 469.105 276.402 468.079C276.237 467.054 276.329 466.003 276.669 465.021C277.251 463.196 278.507 461.662 280.181 460.733C286.046 457.281 289.836 451.868 289.836 445.773C289.836 435.363 278.806 426.894 265.208 426.894C251.61 426.894 240.581 435.336 240.581 445.773C240.581 450.673 243.033 455.15 247.047 458.503C248.582 459.77 250.265 460.845 252.059 461.704L252.167 461.883C253.345 463.024 254.126 464.513 254.396 466.131C254.666 467.749 254.411 469.411 253.667 470.873H235.344V617.744C235.344 623.481 237.621 628.983 241.674 633.039C245.726 637.096 251.223 639.375 256.954 639.375H355.527V575.338C356.352 574.56 357.374 574.023 358.483 573.785C359.591 573.548 360.743 573.618 361.814 573.99Z" fill="#FFA9A9"/>
<path d="M218.243 280.23H215.576V284.581H218.243V280.23Z" fill="#3A3768"/>
<path d="M235.048 280.23H220.471V284.581H235.048V280.23Z" fill="#3A3768"/>
<path d="M220.471 280.23H218.243V284.581H220.471V280.23Z" fill="#3A3768"/>
<path d="M217.633 305.591H218.244V284.572H215.549V303.532C215.548 303.805 215.601 304.076 215.706 304.328C215.81 304.58 215.964 304.808 216.158 305C216.352 305.192 216.583 305.343 216.836 305.444C217.089 305.546 217.36 305.596 217.633 305.591Z" fill="#3A3768"/>
<path d="M235.048 284.572H220.471V303.532C220.471 303.803 220.417 304.072 220.313 304.322C220.21 304.572 220.057 304.8 219.865 304.991C219.673 305.182 219.446 305.334 219.195 305.437C218.944 305.54 218.676 305.592 218.405 305.591H218.243V467.79H235.048V284.572Z" fill="#3A3768"/>
<path d="M218.243 305.591H218.405C218.676 305.592 218.944 305.54 219.195 305.437C219.446 305.334 219.673 305.182 219.865 304.991C220.057 304.8 220.21 304.572 220.313 304.322C220.417 304.072 220.471 303.803 220.471 303.532V284.572H218.243V305.591Z" fill="#3A3768"/>
<path d="M237.626 448.416C237.626 434.401 249.841 423.046 264.903 423.046C279.965 423.046 292.189 434.401 292.189 448.416C292.164 452.165 291.284 455.859 289.617 459.216C287.95 462.574 285.54 465.506 282.57 467.79H355.68V389.01C356.516 388.228 357.549 387.69 358.667 387.452C359.786 387.214 360.949 387.287 362.03 387.661C363.858 388.239 365.395 389.497 366.323 391.176C369.763 397.047 375.17 400.832 381.268 400.832C391.669 400.832 400.13 389.801 400.13 376.19C400.13 362.579 391.705 351.539 381.268 351.539C376.364 351.539 371.901 353.994 368.55 358.003C367.284 359.543 366.207 361.231 365.344 363.029L365.173 363.136C363.969 364.395 362.374 365.205 360.648 365.436C358.923 365.666 357.171 365.302 355.68 364.404V284.572H280.693C280.063 283.746 279.647 282.777 279.482 281.751C279.318 280.725 279.41 279.674 279.749 278.693C280.327 276.865 281.584 275.33 283.261 274.404C289.126 270.961 292.907 265.54 292.907 259.445C292.907 249.034 281.887 240.566 268.289 240.566C254.691 240.566 243.661 249.007 243.661 259.445C243.661 264.353 246.113 268.822 250.119 272.175C251.658 273.443 253.344 274.52 255.14 275.384L255.248 275.555C256.426 276.696 257.207 278.185 257.477 279.803C257.747 281.421 257.491 283.083 256.748 284.545H235.048V467.79H247.245C244.275 465.506 241.865 462.574 240.198 459.216C238.531 455.859 237.651 452.165 237.626 448.416Z" fill="white"/>
<path d="M220.92 268.875C220.92 268.604 220.867 268.336 220.763 268.085C220.659 267.835 220.506 267.608 220.314 267.416C220.123 267.225 219.895 267.074 219.644 266.971C219.394 266.868 219.125 266.815 218.854 266.817H218.693V280.23H220.92V268.875Z" fill="#3A3768"/>
<path d="M218.612 174.776H218.163C217.893 174.776 217.625 174.829 217.376 174.933C217.126 175.036 216.899 175.188 216.708 175.379C216.517 175.57 216.366 175.797 216.263 176.047C216.159 176.297 216.106 176.564 216.106 176.835V194.815C216.108 195.36 216.326 195.883 216.711 196.268C217.096 196.654 217.618 196.871 218.163 196.874H218.693V174.785L218.612 174.776Z" fill="#3A3768"/>
<path d="M218.001 215.214C217.455 215.214 216.931 215.43 216.544 215.816C216.156 216.202 215.938 216.726 215.935 217.272V251.605C215.938 252.152 216.156 252.676 216.544 253.062C216.931 253.448 217.455 253.664 218.001 253.664H218.693V215.214H218.001Z" fill="#3A3768"/>
<path d="M218.693 267.113H218.109C217.563 267.113 217.04 267.33 216.654 267.716C216.269 268.102 216.052 268.626 216.052 269.172V280.526H218.746L218.693 267.113Z" fill="#3A3768"/>
<path d="M218.693 136.829V174.785C219.223 174.804 219.726 175.028 220.094 175.411C220.463 175.793 220.669 176.304 220.668 176.835V194.815C220.667 195.346 220.46 195.855 220.092 196.237C219.724 196.619 219.222 196.844 218.693 196.865V215.223H219.007C219.277 215.223 219.544 215.276 219.794 215.379C220.044 215.483 220.27 215.635 220.461 215.826C220.652 216.017 220.804 216.244 220.907 216.494C221.01 216.743 221.064 217.011 221.064 217.281V251.615C221.064 252.161 220.847 252.684 220.461 253.07C220.076 253.456 219.552 253.673 219.007 253.673H218.675V267.158H218.836C219.383 267.158 219.907 267.375 220.294 267.761C220.681 268.147 220.9 268.67 220.902 269.217V280.527H235.479V137.854C235.479 132.119 237.755 126.619 241.805 122.562C245.856 118.506 251.35 116.226 257.08 116.224H286.369V119.982C286.369 124.705 288.243 129.235 291.58 132.575C294.917 135.915 299.442 137.791 304.161 137.791H355.689V126.032H331.968C331.051 126.027 330.172 125.662 329.522 125.014C328.872 124.367 328.502 123.489 328.492 122.571V121.816C328.495 120.894 328.862 120.01 329.513 119.358C330.164 118.706 331.047 118.339 331.968 118.337H355.644V101.777H253.703C244.417 101.782 235.514 105.476 228.949 112.049C222.384 118.622 218.695 127.535 218.693 136.829Z" fill="#3A3768"/>
<path d="M220.669 194.806V176.826C220.669 176.294 220.463 175.784 220.094 175.401C219.726 175.019 219.223 174.795 218.693 174.776V196.847C219.221 196.826 219.721 196.602 220.089 196.222C220.457 195.842 220.664 195.335 220.669 194.806Z" fill="#3A3768"/>
<path d="M221.082 251.605V217.272C221.082 217.002 221.029 216.734 220.925 216.485C220.822 216.235 220.67 216.008 220.479 215.817C220.288 215.625 220.062 215.474 219.812 215.37C219.562 215.267 219.295 215.214 219.025 215.214H218.693V253.664H219.007C219.279 253.667 219.548 253.615 219.8 253.513C220.051 253.41 220.28 253.259 220.473 253.068C220.666 252.876 220.819 252.648 220.923 252.397C221.028 252.147 221.082 251.877 221.082 251.605Z" fill="#3A3768"/>
<path d="M241.461 261.198C241.461 247.182 253.676 235.819 268.747 235.819C283.818 235.819 296.024 247.182 296.024 261.198C295.988 264.942 295.1 268.629 293.427 271.978C291.754 275.328 289.34 278.251 286.369 280.526H355.617V200.784C356.45 199.996 357.485 199.453 358.607 199.215C359.729 198.977 360.894 199.053 361.976 199.436C363.8 200.017 365.333 201.274 366.26 202.951C369.7 208.822 375.116 212.606 381.205 212.606C391.606 212.606 400.067 201.576 400.067 187.956C400.067 174.336 391.642 163.314 381.205 163.314C376.301 163.314 371.838 165.759 368.487 169.778C367.217 171.315 366.14 173.003 365.281 174.803L365.11 175.873C365.11 175.873 361.096 179.307 355.617 176.152V137.764H304.116C299.405 137.752 294.891 135.87 291.564 132.532C288.237 129.193 286.369 124.67 286.369 119.955V116.197H257.098C254.258 116.198 251.447 116.759 248.825 117.848C246.202 118.938 243.82 120.534 241.814 122.545C239.808 124.556 238.217 126.943 237.133 129.57C236.05 132.197 235.494 135.012 235.497 137.854V280.526H251.071C248.108 278.247 245.703 275.321 244.038 271.972C242.373 268.623 241.491 264.939 241.461 261.198Z" fill="white"/>
<path d="M331.968 118.31C331.047 118.312 330.164 118.679 329.513 119.331C328.862 119.983 328.495 120.867 328.492 121.789V122.571C328.495 123.494 328.861 124.378 329.513 125.032C330.164 125.685 331.046 126.054 331.968 126.059H355.644V118.337L331.968 118.31Z" fill="#E6E8EC"/>
<path d="M492.2 226.928V280.293H498.263V224.779H494.985C493.449 224.779 492.2 225.741 492.2 226.928Z" fill="#3A3768"/>
<path d="M370.051 101.39H362.865V117.572H370.051V101.39Z" fill="#3A3768"/>
<path d="M370.051 125.663H362.865V137.35H370.051V125.663Z" fill="#3A3768"/>
<path d="M370.051 117.572H362.865V125.663H370.051V117.572Z" fill="#E6E8EC"/>
<path d="M499.502 227.035H497.813V280.23H501.559V229.103C501.559 228.556 501.342 228.032 500.957 227.644C500.571 227.257 500.048 227.038 499.502 227.035Z" fill="#3A3768"/>
<path d="M370.042 117.572C371.955 118.004 373.634 121.492 373.634 121.492V122.247C373.634 122.247 371.946 125.726 370.042 125.663V137.35H410.629C415.349 137.348 419.875 135.47 423.211 132.128C426.548 128.787 428.422 124.256 428.422 119.532V115.774H458.959C464.68 115.786 470.163 118.069 474.204 122.123C478.245 126.176 480.515 131.669 480.515 137.395V242.139C483.329 244.389 485.6 247.244 487.162 250.493C488.723 253.742 489.533 257.301 489.533 260.906C489.533 264.511 488.723 268.069 487.162 271.318C485.6 274.567 483.329 277.422 480.515 279.672V280.275H493.089V227.512C493.089 227.477 493.096 227.442 493.11 227.41C493.124 227.378 493.143 227.349 493.169 227.324C493.194 227.3 493.224 227.281 493.256 227.268C493.289 227.256 493.324 227.25 493.359 227.251H497.58V135.103C497.581 130.675 496.711 126.291 495.019 122.2C493.326 118.109 490.846 114.393 487.718 111.262C484.59 108.131 480.877 105.648 476.79 103.954C472.703 102.26 468.322 101.389 463.899 101.39H369.152V117.572H370.042ZM383.64 117.491C384.505 117.491 385.35 117.748 386.07 118.229C386.789 118.71 387.35 119.394 387.681 120.194C388.012 120.994 388.098 121.874 387.93 122.724C387.761 123.573 387.344 124.353 386.733 124.965C386.121 125.578 385.341 125.995 384.493 126.164C383.644 126.333 382.765 126.246 381.966 125.914C381.167 125.583 380.483 125.022 380.003 124.302C379.522 123.582 379.266 122.735 379.266 121.87C379.266 120.708 379.726 119.595 380.547 118.774C381.367 117.953 382.48 117.491 383.64 117.491Z" fill="#3A3768"/>
<path d="M382.58 159.772C396.69 159.772 408.132 172.007 408.132 187.092C408.132 202.178 396.69 214.413 382.58 214.413C378.744 214.392 374.966 213.485 371.538 211.762C368.111 210.038 365.127 207.546 362.82 204.479V280.293H444.553C441.591 278.006 439.188 275.075 437.525 271.722C435.861 268.369 434.981 264.681 434.951 260.937C434.951 246.904 447.139 235.531 462.184 235.531C468.887 235.486 475.387 237.828 480.524 242.139V137.395C480.524 131.669 478.254 126.176 474.213 122.123C470.172 118.069 464.689 115.786 458.968 115.774H428.431V119.532C428.431 124.256 426.557 128.787 423.22 132.128C419.884 135.47 415.358 137.348 410.638 137.35H362.865V169.715C365.168 166.653 368.144 164.164 371.563 162.439C374.982 160.715 378.751 159.802 382.58 159.772Z" fill="white"/>
<path d="M370.041 125.663C370.964 125.664 371.851 125.31 372.52 124.674C373.189 124.038 373.588 123.169 373.634 122.247V121.492C373.53 120.541 373.125 119.648 372.479 118.943C371.833 118.238 370.979 117.758 370.041 117.572H369.143V125.663H370.041Z" fill="#E6E8EC"/>
<path d="M384.341 126.172C386.725 125.784 388.344 123.535 387.957 121.149C387.57 118.762 385.324 117.141 382.939 117.528C380.555 117.916 378.935 120.165 379.322 122.552C379.709 124.938 381.956 126.559 384.341 126.172Z" fill="#E6E8EC"/>
<path d="M491.23 467.224H474.425V471.089H491.23V467.224Z" fill="#3A3768"/>
<path d="M467.644 460.912C465.969 461.84 464.713 463.375 464.133 465.201C463.791 466.184 463.698 467.236 463.863 468.264C464.028 469.291 464.444 470.262 465.076 471.089H474.425V467.223H470.833C472.135 466.18 473.338 465.019 474.425 463.753V454.763C472.638 457.281 470.324 459.379 467.644 460.912Z" fill="#FC6464"/>
<path d="M470.814 467.224H474.407V463.753C473.319 465.019 472.117 466.181 470.814 467.224Z" fill="#FC6464"/>
<path d="M491.23 471.089V618.446C491.23 627.745 487.539 636.663 480.97 643.238C474.401 649.813 465.492 653.507 456.202 653.507H361.895V639.123H452.816C458.547 639.123 464.043 636.844 468.096 632.788C472.149 628.731 474.425 623.229 474.425 617.493V471.089H491.23Z" fill="#3A3768"/>
<path d="M464.132 465.201C464.713 463.375 465.969 461.84 467.644 460.913C470.323 459.382 472.636 457.287 474.425 454.772C474.425 454.772 476.5 449.426 476.5 445.98C476.5 442.534 474.425 437.125 474.425 437.125C470.285 431.164 462.103 427.101 452.672 427.101C439.065 427.101 428.044 435.543 428.044 445.98C428.044 450.889 430.496 455.357 434.502 458.71C436.041 459.978 437.727 461.055 439.523 461.919L439.631 462.09C440.807 463.232 441.588 464.721 441.858 466.338C442.128 467.956 441.873 469.618 441.131 471.08H361.895V544.799C364.17 541.752 367.12 539.273 370.512 537.557C373.904 535.842 377.647 534.936 381.448 534.91C395.45 534.91 406.794 547.136 406.794 562.213C406.794 577.289 395.45 589.525 381.448 589.525C377.647 589.499 373.904 588.593 370.512 586.877C367.12 585.161 364.17 582.683 361.895 579.635V639.141H452.816C458.538 639.141 464.026 636.869 468.077 632.825C472.128 628.78 474.411 623.292 474.425 617.565V471.089H465.102C464.466 470.265 464.045 469.295 463.876 468.267C463.706 467.24 463.795 466.186 464.132 465.201Z" fill="#FFA9A9"/>
<path d="M635.016 241.959C640.028 239.703 643.737 235.9 645.004 231.027C645.157 230.436 645.271 229.835 645.345 229.229C645.569 228.668 645.761 228.095 645.92 227.512C647.186 222.621 645.794 217.56 642.489 213.236L635.923 238.408L635.016 241.959Z" fill="url(#paint0_linear)"/>
<path d="M786.571 232.51C785.548 226.496 766.578 213.469 766.578 213.469C766.578 213.469 758.199 208.974 753.762 203.778C750.924 200.47 750.034 200.506 749.765 200.955C749.581 200.838 749.371 200.767 749.154 200.748C748.975 200.623 748.804 200.506 748.642 200.371C748.668 200.117 748.614 199.861 748.487 199.64C748.359 199.419 748.165 199.244 747.933 199.139C747.717 199.013 747.502 198.852 747.286 198.699C745.849 196.28 745.337 192.855 745.166 189.871C744.951 186.104 740.676 187.048 739.212 187.47C738.206 185.582 737.227 183.622 736.302 181.663C736.711 181.026 737.051 180.348 737.316 179.64C739.957 173.895 739.382 167.305 740.532 161.228C741.358 156.832 743.083 152.238 742.741 147.959C742.741 147.86 742.741 147.752 742.741 147.644C742.741 147.644 742.741 147.689 742.741 147.707C742.648 146.635 742.403 145.582 742.014 144.578C741.25 142.655 739.921 140.982 739.319 138.996C738.358 136.092 738.969 132.891 738.17 129.952C737.173 126.23 734.029 123.353 730.473 121.708C726.916 120.063 722.955 119.496 719.057 119.011C709.312 117.788 698.956 117.06 690.064 121.159C689.249 121.643 688.317 121.895 687.37 121.888C686.492 121.645 685.661 121.259 684.909 120.746C682.52 119.559 679.52 120.314 677.382 121.896C675.245 123.479 673.79 125.762 672.38 127.974C670.97 130.185 669.425 132.469 667.215 133.916C664.62 135.651 661.189 136.236 659.132 138.573C658.216 139.681 657.636 141.029 657.461 142.457C657.461 142.457 657.461 142.412 657.461 142.394C657.452 142.565 657.452 142.736 657.461 142.906C657.461 143.041 657.461 143.185 657.461 143.32C657.461 143.455 657.461 143.545 657.461 143.652C657.461 144.039 657.461 144.417 657.461 144.794C657.749 146.99 658.332 149.138 659.195 151.177C659.609 152.699 660.422 154.083 661.548 155.187C664.673 157.731 669.631 155.331 673.403 156.751C673.736 156.868 674.05 157.021 674.365 157.165C674.365 157.308 674.266 157.452 674.221 157.605C673.413 160.352 673.005 163.201 673.008 166.065C673.008 182.948 687.011 196.631 704.282 196.631C704.929 196.631 705.567 196.631 706.204 196.559C706.294 196.892 706.393 197.233 706.474 197.557C707.435 201.288 707.739 205.157 707.372 208.992L707.183 207.32C706.764 207.119 706.328 206.954 705.881 206.826C704.631 206.409 703.318 206.209 702.001 206.232C697.753 206.179 691.358 207.887 684.532 216.175C684.532 216.175 675.82 221.021 673.26 222.19C673.05 222.317 672.884 222.505 672.784 222.729C672.784 222.729 661.135 240.341 659.931 247.038C658.728 253.736 657.237 261.423 657.237 261.423C657.237 261.423 654.327 270.107 652.449 273.955C650.572 277.803 648.857 281.47 648.695 283.143C648.533 284.815 649.378 288.483 645.785 290.82C642.192 293.158 641.294 299.505 641.294 299.505C641.294 299.505 639.498 301.195 636.956 303.334H636.866L646.252 267.311L647.932 267.734C648.334 267.833 648.756 267.815 649.147 267.681C649.539 267.547 649.884 267.303 650.141 266.978C650.315 266.758 650.44 266.504 650.509 266.232L652.405 258.932L653.168 256.029L653.321 255.435L654.425 251.201L650.689 250.302L646.315 249.214L633.956 246.094L635.034 241.959L635.932 238.453L641.582 216.751L642.48 213.254C638.887 208.597 633.166 204.812 626.133 203.059C612.571 199.688 599.44 205.172 596.8 215.303C596.643 215.894 596.526 216.495 596.449 217.101C596.222 217.657 596.033 218.228 595.883 218.81C595.426 220.569 595.304 222.399 595.524 224.204C595.56 224.497 595.605 224.797 595.659 225.103C596.197 227.902 597.375 230.539 599.099 232.807C600.312 234.428 601.721 235.893 603.293 237.167L603.356 237.365C604.023 238.456 604.426 239.687 604.533 240.961C604.533 241.141 604.533 241.33 604.533 241.519C604.231 242.061 603.87 242.567 603.455 243.029L520.591 222.415L519.693 225.912L501.029 297.698C503.462 295.826 506.195 294.381 509.112 293.427C510.258 293.048 511.428 292.747 512.615 292.528L513.037 292.456C516.378 291.913 519.794 292.054 523.079 292.87C533.551 295.477 540.79 304.404 542.138 314.905C542.312 316.231 542.387 317.568 542.362 318.905C542.336 320.611 542.156 322.311 541.823 323.985C537.332 337.632 523.537 345.875 510.136 342.54C506.381 341.592 502.895 339.788 499.951 337.27C497.006 334.751 494.682 331.586 493.161 328.021L492.263 331.527L473.006 405.201L546.395 423.469L547.185 419.936H547.302C545.128 417.241 543.552 414.114 542.679 410.763C541.806 407.412 541.655 403.913 542.236 400.499C542.236 400.382 542.308 400.274 542.353 400.158C542.443 399.897 542.542 399.645 542.641 399.393C543.143 398.163 543.744 396.976 544.437 395.842C544.796 395.258 545.173 394.692 545.578 394.143C545.829 393.802 546.089 393.469 546.359 393.145C547.651 391.579 549.126 390.173 550.751 388.956L551.272 388.578C551.865 388.156 552.475 387.751 553.068 387.374C553.436 387.158 553.814 386.942 554.191 386.744C558.538 384.446 563.395 383.286 568.31 383.373C570.672 383.405 573.022 383.706 575.316 384.272C582.396 385.975 588.58 390.277 592.641 396.328C593.178 397.139 593.67 397.979 594.114 398.845C595.437 401.413 596.297 404.195 596.656 407.062C596.937 409.351 596.876 411.668 596.476 413.939C594.73 418.967 591.394 423.288 586.974 426.247L586.076 429.627H586.174L586.04 429.726L585.141 433.097L601.901 437.269L625.639 346.424C632.043 345.678 635.322 342.828 635.322 342.414C635.322 342.001 643.019 337.73 647.285 336.562C649.405 335.986 651.857 335.573 653.806 335.159C651.506 346.586 649.315 357.634 649.512 358.282C649.575 358.533 649.988 358.138 650.617 357.275C650.555 357.607 650.528 357.944 650.536 358.282C650.536 358.453 650.779 358.327 651.093 357.976L651.048 358.192C651.048 358.192 637.72 384.002 636.678 386.96C635.636 389.918 636.929 397.487 641.034 399.996C641.83 400.499 642.539 401.128 643.136 401.857L642.651 402.819C641.124 405.92 639.767 409.372 640.01 411.521C640.331 414.24 639.696 416.987 638.214 419.288C638.214 419.288 626.672 454.988 626.933 465.264C627.193 475.539 622.828 498.086 622.828 498.086C622.828 498.086 618.086 512.614 620.906 516.75C623.726 520.885 626.933 538.928 626.933 538.928C626.933 538.928 629.115 543.064 628.981 546.57C628.846 550.076 631.037 556.459 631.037 556.459L638.223 582.386C638.223 582.386 637.45 589.282 640.145 594.164C642.839 599.045 642.579 597.544 641.294 606.066C640.01 614.589 642.839 622.473 647.447 624.946C649.243 625.916 649.333 627.4 648.776 628.847C647.599 628.389 646.62 630.825 646.037 632.794L645.444 633.36L645.839 633.459C645.588 634.358 645.444 635.113 645.444 635.113C645.444 635.113 633.4 645.137 632.627 648.769C631.855 652.401 623.394 654.28 623.394 654.28C623.394 654.28 610.577 657.786 607.227 659.539C606.268 659.976 605.439 660.653 604.819 661.505C604.199 662.357 603.809 663.356 603.688 664.403C603.538 666.054 603.696 667.719 604.155 669.312C605.431 674.445 623.376 674.948 631.998 673.573C640.621 672.197 658.395 667.181 658.395 667.181C658.395 667.181 677.113 665.383 682.646 663.171C688.178 660.96 683.795 655.152 683.795 655.152C683.795 655.152 683.795 654.963 683.795 654.613C683.93 652.518 684.316 644.922 682.987 642.926C681.99 641.379 682.017 637.532 682.161 635.086C685.906 628.344 677.867 608.116 677.867 608.116C677.867 608.116 679.403 588.338 678.379 585.443C677.355 582.548 672.99 558.005 672.99 558.005C672.99 558.005 670.296 546.858 671.329 544.979C672.362 543.1 670.682 537.706 670.682 537.706C670.682 537.706 666.29 531.709 666.685 529.821C667.08 527.934 665.401 524.562 665.401 524.562C665.401 524.562 678.478 505.018 677.319 501.386C676.161 497.754 677.84 491.865 677.84 491.865C677.84 491.865 679.484 489.096 681.433 485.779C683.858 481.716 686.822 476.852 687.792 475.333C689.049 473.4 692.076 465.174 693.765 460.436C694.483 458.422 694.968 457.038 694.968 457.038C694.968 457.038 697.016 493.897 698.812 497.628C700.609 501.359 703.303 531.08 703.303 531.08C704.3 533.718 704.737 536.535 704.588 539.351C704.336 543.981 708.692 564.155 708.692 564.155C708.692 564.155 710.614 578.431 709.33 582.189C708.045 585.947 709.078 613.654 709.078 613.654C709.078 613.654 702.028 619.048 700.231 623.175C698.435 627.301 700.483 638.583 700.483 638.583L701.309 638.97C700.648 640.537 700.158 642.171 699.845 643.843C699.594 646.225 695.741 657.004 696.127 658.506C696.513 660.007 694.465 664.646 694.205 667.019C693.944 669.393 690.747 672.908 690.486 674.166C690.081 675.293 689.61 676.394 689.076 677.466C688.379 679.111 687.823 680.814 687.415 682.554C686.13 687.822 701.381 688.694 701.381 688.694C723.943 692.83 728.047 675.919 728.047 675.919C728.047 675.919 730.868 660.888 731.892 659.737C732.017 659.524 732.097 659.286 732.126 659.04C732.155 658.794 732.134 658.545 732.062 658.308C731.477 655.75 730.37 653.342 728.811 651.233C728.092 650.396 728.047 648.248 728.164 646.324C728.817 646.26 729.463 646.14 730.095 645.964C739.194 643.339 735.484 628.173 735.484 628.173C735.484 628.173 741.637 618.158 741.637 614.274C741.637 610.391 743.819 598.488 743.819 598.488C751.642 584.454 748.561 550.382 749.846 547.622C751.13 544.862 747.151 534.595 743.945 529.956C740.738 525.317 742.023 512.794 743.945 509.162C745.867 505.53 742.023 492.98 742.023 492.98C742.023 492.98 745.741 468.707 745.615 464.913C745.49 461.119 748.822 450.007 748.822 450.007C748.822 450.007 752.154 444.245 751.382 442.492C750.609 440.739 753.941 436.199 753.052 434.221C752.163 432.243 753.816 426.076 755.486 422.444C756.339 420.583 757.399 415.459 758.181 410.901C758.271 410.397 758.36 409.894 758.441 409.399C762.177 411.764 765.626 413.526 766.848 413.049C769.138 412.15 765.492 400.463 762.995 393.181C763.426 392.858 763.606 392.615 763.426 392.507C761.89 391.5 763.597 386.987 763.597 386.987C772.659 381.647 769.578 377.637 766.677 375.3C763.776 372.963 765.653 366.31 764.791 363.613C763.929 360.916 765.824 348.752 767.36 339.897C767.678 337.973 767.663 336.008 767.315 334.089C768.959 331.581 770.656 328.956 772.147 326.529C777.267 318.177 788.206 278.423 788.206 278.423L788.134 278.216C789.203 276.103 790.002 274.386 790.434 273.245C793.748 264.614 787.595 238.543 786.571 232.51ZM706.923 209.622L707.156 209.514C707.156 209.577 707.156 209.64 707.156 209.703L706.923 209.622ZM657.192 636.066C656.633 636.07 656.08 635.96 655.566 635.743L657.192 636.066Z" fill="url(#paint1_linear)"/>
<path d="M562.238 346.325C569.63 349.13 586.812 349.435 594.446 349.435C596.763 349.435 598.2 349.435 598.2 349.435L603.095 339.456L598.2 331.141C598.2 331.141 593.71 329.9 587.746 328.821C578.944 327.239 566.9 325.998 561.16 329.558C551.532 335.519 552.61 342.666 562.238 346.325Z" fill="#FEC2BE"/>
<path opacity="0.1" d="M594.437 349.436C596.755 349.436 598.192 349.436 598.192 349.436L603.087 339.457L598.201 331.141C598.201 331.141 593.71 329.9 587.746 328.821C592.587 332.381 604.227 340.131 594.437 349.436Z" fill="black"/>
<path d="M675.514 226.964L673.359 224.464C673.359 224.464 662.231 242.085 661.063 248.738C659.895 255.39 658.368 263.032 658.368 263.032C658.368 263.032 655.548 271.68 653.716 275.501C651.884 279.322 650.231 282.981 650.069 284.644C649.908 286.307 650.734 289.966 647.24 292.295C643.746 294.623 642.929 300.943 642.929 300.943C642.929 300.943 630.301 313.241 623.655 313.529C617.008 313.817 597.913 317.188 598.578 320.514C599.243 323.841 590.611 325.828 587.118 326.664C583.624 327.5 609.572 337.452 594.429 350.272C594.429 350.272 604.057 352.267 605.054 354.587C606.051 356.906 616.182 353.265 616.182 353.265C616.182 353.265 618.347 348.105 625.819 347.772C633.292 347.44 637.109 344.113 637.109 343.619C637.109 343.124 644.582 338.962 648.785 337.802C652.989 336.643 658.413 336.139 658.584 334.97C658.755 333.802 683.499 226.919 683.499 226.919L675.514 226.964Z" fill="#4C4981"/>
<path opacity="0.05" d="M675.514 226.964L673.359 224.464C673.359 224.464 662.231 242.085 661.063 248.738C659.895 255.39 658.368 263.032 658.368 263.032C658.368 263.032 655.548 271.68 653.716 275.501C651.884 279.322 650.231 282.981 650.069 284.644C649.908 286.307 650.734 289.966 647.24 292.295C643.746 294.623 642.929 300.943 642.929 300.943C642.929 300.943 630.301 313.241 623.655 313.529C617.008 313.817 597.913 317.188 598.578 320.514C599.243 323.841 590.611 325.828 587.118 326.664C583.624 327.5 609.572 337.452 594.429 350.272C594.429 350.272 604.057 352.267 605.054 354.587C606.051 356.906 616.182 353.265 616.182 353.265C616.182 353.265 618.347 348.105 625.819 347.772C633.292 347.44 637.109 344.113 637.109 343.619C637.109 343.124 644.582 338.962 648.785 337.802C652.989 336.643 658.413 336.139 658.584 334.97C658.755 333.802 683.499 226.919 683.499 226.919L675.514 226.964Z" fill="black"/>
<path d="M701.381 688.29C723.305 692.407 727.293 675.569 727.293 675.569C727.293 675.569 730.032 660.609 731.029 659.485C731.153 659.273 731.233 659.037 731.262 658.793C731.291 658.549 731.27 658.301 731.2 658.065C730.625 655.529 729.55 653.133 728.039 651.017C726.673 649.399 727.787 642.665 727.787 642.665L702.378 636.183C702.378 636.183 700.133 641.289 699.89 643.663C699.648 646.036 695.902 656.752 696.298 658.254C696.693 659.755 694.681 664.358 694.43 666.731C694.178 669.105 691.07 672.593 690.837 673.834C690.446 674.957 689.987 676.056 689.463 677.124C688.788 678.765 688.248 680.457 687.846 682.185C686.562 687.418 701.381 688.29 701.381 688.29Z" fill="#CA8496"/>
<path opacity="0.1" d="M701.381 688.29C723.305 692.407 727.293 675.569 727.293 675.569C727.293 675.569 730.032 660.609 731.029 659.485C731.153 659.273 731.232 659.037 731.262 658.793C731.291 658.549 731.27 658.301 731.2 658.065L725.919 673.204C725.919 673.204 721.562 682.302 705.369 680.936C696.154 680.154 691.618 678.445 689.417 677.115C688.743 678.756 688.202 680.448 687.801 682.176C686.561 687.418 701.381 688.29 701.381 688.29Z" fill="black"/>
<path opacity="0.1" d="M718.446 664.601C718.446 664.601 712.967 664.727 712.59 660.241L718.446 664.601Z" fill="black"/>
<path d="M548.011 419.9L551.487 420.79L550.724 424.323L547.5 423.505L548.011 419.9Z" fill="#FC6464"/>
<path opacity="0.1" d="M548.011 419.9L551.487 420.79L550.724 424.323L547.5 423.505L548.011 419.9Z" fill="black"/>
<path d="M651.17 255.399L650.098 259.616L653.727 260.541L654.799 256.324L651.17 255.399Z" fill="#3A3768"/>
<path d="M634.875 251.243L633.803 255.46L645.84 258.527L646.913 254.31L634.875 251.243Z" fill="#3A3768"/>
<path d="M646.906 254.32L645.834 258.537L650.09 259.621L651.163 255.404L646.906 254.32Z" fill="#3A3768"/>
<path d="M635.061 250.698C634.774 250.832 634.495 250.976 634.217 251.093L634.917 251.273L633.84 255.489L628.514 254.132C628.11 253.176 627.948 252.134 628.044 251.101C628.139 250.067 628.489 249.073 629.061 248.207C630.076 246.569 631.686 245.39 633.552 244.917C634.693 244.589 635.807 244.174 636.884 243.676L635.061 250.698Z" fill="#FC6464"/>
<path d="M647.77 268.902L649.396 269.325C649.658 269.392 649.931 269.407 650.199 269.368C650.468 269.33 650.726 269.239 650.958 269.1C651.191 268.961 651.394 268.778 651.556 268.56C651.718 268.343 651.835 268.095 651.902 267.832L653.716 260.568L650.123 259.669L647.77 268.902Z" fill="#3A3768"/>
<path d="M646.53 232.798C645.291 237.653 641.689 241.438 636.821 243.676L643.198 218.594C646.432 222.9 647.788 227.943 646.53 232.798Z" fill="#3A3768"/>
<path d="M645.507 268.327C644.979 268.192 644.528 267.852 644.25 267.384C643.972 266.915 643.891 266.356 644.025 265.828L645.875 258.555L633.84 255.489L597.132 399.816C599.801 405.017 600.479 411.014 599.038 416.68C597.597 422.346 594.137 427.29 589.309 430.58L588.456 433.942L604.739 438.123L647.77 268.938L645.507 268.327Z" fill="#3A3768"/>
<path d="M644.025 265.828C643.891 266.356 643.972 266.915 644.25 267.384C644.528 267.852 644.98 268.191 645.507 268.327L647.77 268.902L650.123 259.642L645.875 258.555L644.025 265.828Z" fill="#3A3768"/>
<path d="M629.052 248.207C630.072 246.574 631.68 245.396 633.543 244.917C634.68 244.586 635.791 244.171 636.866 243.676L643.252 218.594C639.255 213.511 633.654 209.936 627.364 208.453C614.188 205.091 601.416 210.548 598.856 220.635C597.644 225.39 598.919 230.326 601.982 234.569C603.155 236.178 604.521 237.637 606.05 238.911L606.113 239.109C606.979 240.511 607.371 242.153 607.232 243.795C607.093 245.436 606.43 246.99 605.341 248.225L524.812 227.701L506.642 299.154C509.589 296.765 513.047 295.089 516.747 294.256C520.447 293.424 524.289 293.457 527.974 294.353C541.545 297.814 549.529 312.468 545.811 327.077C542.093 341.686 528.117 350.739 514.546 347.323C510.868 346.353 507.465 344.544 504.603 342.037C501.74 339.531 499.496 336.395 498.047 332.876L479.392 406.199L550.724 424.368C548.41 421.428 546.797 417.999 546.006 414.341C545.216 410.683 545.269 406.893 546.161 403.259C549.619 389.684 564.25 381.683 578.854 385.405C582.753 386.36 586.401 388.141 589.554 390.627C592.707 393.113 595.291 396.246 597.132 399.816L633.839 255.489L628.567 254.132C628.154 253.181 627.982 252.142 628.067 251.108C628.151 250.075 628.49 249.078 629.052 248.207Z" fill="#FC6464"/>
<path d="M634.908 251.273L635.061 250.698C634.783 250.832 634.504 250.976 634.217 251.102L634.908 251.273Z" fill="#FC6464"/>
<g opacity="0.1">
<path opacity="0.1" d="M651.192 255.426L646.944 254.338L634.917 251.273L635.07 250.697L636.866 243.676C635.789 244.174 634.675 244.589 633.534 244.917C631.668 245.39 630.058 246.569 629.043 248.207C628.779 248.66 628.557 249.135 628.379 249.628C628.554 249.135 628.773 248.66 629.034 248.207C630.054 246.574 631.662 245.396 633.525 244.917C634.662 244.586 635.773 244.171 636.848 243.676L643.234 218.594C639.237 213.511 633.636 209.936 627.346 208.453C614.17 205.091 601.398 210.548 598.838 220.635C597.626 225.39 598.901 230.326 601.964 234.569C603.137 236.178 604.503 237.637 606.032 238.911L606.095 239.109C606.961 240.511 607.353 242.153 607.214 243.795C607.075 245.436 606.412 246.99 605.323 248.225L524.794 227.701L506.624 299.154C509.573 296.762 513.034 295.085 516.737 294.252C520.441 293.419 524.286 293.454 527.973 294.353C541.545 297.814 549.529 312.468 545.811 327.077C542.093 341.686 528.117 350.739 514.546 347.323C510.868 346.353 507.465 344.544 504.603 342.037C501.74 339.531 499.496 336.395 498.047 332.876L479.392 406.199L550.724 424.368C548.41 421.428 546.797 417.999 546.006 414.341C545.215 410.683 545.269 406.893 546.161 403.259C549.619 389.684 564.25 381.683 578.854 385.405C582.753 386.36 586.401 388.141 589.554 390.627C592.707 393.113 595.291 396.246 597.132 399.816C599.801 405.016 600.479 411.014 599.038 416.68C597.597 422.346 594.137 427.29 589.309 430.58L588.456 433.942L604.739 438.123L647.77 268.938L649.396 269.361C649.658 269.428 649.931 269.443 650.199 269.404C650.468 269.366 650.725 269.275 650.958 269.136C651.191 268.997 651.394 268.814 651.556 268.596C651.718 268.379 651.835 268.131 651.901 267.868L653.716 260.569L654.784 256.352L651.192 255.426ZM634.63 250.931C634.495 250.994 634.36 251.066 634.226 251.12L634.63 250.931ZM628.522 254.159L633.848 255.516L628.522 254.159Z" fill="black"/>
<path opacity="0.1" d="M646.53 232.798C647.761 227.943 646.405 222.909 643.198 218.594L636.821 243.676C641.716 241.438 645.318 237.644 646.53 232.798Z" fill="black"/>
</g>
<path d="M652.052 251.923L650.979 256.14L654.609 257.064L655.681 252.848L652.052 251.923Z" fill="#3A3768"/>
<path d="M635.757 247.767L634.685 251.984L646.722 255.05L647.795 250.834L635.757 247.767Z" fill="#3A3768"/>
<path d="M647.79 250.826L646.718 255.043L650.974 256.127L652.046 251.91L647.79 250.826Z" fill="#3A3768"/>
<path d="M635.95 247.209L635.106 247.614L635.797 247.785L634.729 252.028L629.403 250.671C628.993 249.716 628.827 248.675 628.921 247.64C629.015 246.605 629.366 245.611 629.942 244.746C630.959 243.111 632.568 241.933 634.432 241.456C635.57 241.128 636.681 240.713 637.755 240.215L635.95 247.209Z" fill="#FC6464"/>
<path d="M648.65 265.423L650.285 265.837C650.549 265.908 650.825 265.926 651.096 265.89C651.367 265.853 651.628 265.762 651.864 265.623C652.1 265.484 652.306 265.3 652.47 265.08C652.633 264.86 652.752 264.61 652.817 264.344L654.668 257.08L651.075 256.181L648.65 265.423Z" fill="#3A3768"/>
<path d="M647.428 229.319C646.198 234.165 642.596 237.95 637.719 240.188L644.105 215.106C647.321 219.412 648.677 224.455 647.428 229.319Z" fill="#3A3768"/>
<path d="M646.396 264.848C646.134 264.781 645.887 264.662 645.671 264.5C645.455 264.338 645.273 264.134 645.135 263.901C644.997 263.668 644.907 263.41 644.869 263.142C644.831 262.874 644.846 262.602 644.914 262.339L646.71 255.075L634.728 252.028L598.03 396.337C600.704 401.535 601.385 407.533 599.944 413.199C598.503 418.865 595.039 423.807 590.207 427.092L589.354 430.454L605.646 434.607L648.668 265.423L646.396 264.848Z" fill="#3A3768"/>
<path d="M644.914 262.34C644.846 262.602 644.831 262.875 644.869 263.143C644.907 263.411 644.997 263.668 645.135 263.901C645.273 264.134 645.455 264.338 645.671 264.5C645.888 264.663 646.134 264.781 646.396 264.848L648.65 265.423L651.021 256.154L646.764 255.076L644.914 262.34Z" fill="#3A3768"/>
<path d="M629.941 244.719C630.959 243.084 632.568 241.906 634.432 241.429C635.57 241.1 636.681 240.686 637.755 240.188L644.132 215.106C640.138 210.024 634.54 206.449 628.253 204.965C615.068 201.612 602.305 207.06 599.736 217.155C598.533 221.902 599.799 226.838 602.871 231.081C604.044 232.693 605.41 234.154 606.94 235.432L607.002 235.621C607.865 237.023 608.256 238.666 608.116 240.306C607.977 241.947 607.316 243.5 606.23 244.737L525.692 224.222L507.495 295.666C510.448 293.27 513.914 291.591 517.622 290.76C521.33 289.929 525.181 289.968 528.872 290.874C542.434 294.326 550.427 308.98 546.709 323.598C542.991 338.216 529.006 347.251 515.399 343.799C511.727 342.822 508.329 341.009 505.472 338.502C502.614 335.994 500.374 332.86 498.927 329.343L480.281 402.666L551.604 420.844C549.292 417.903 547.68 414.474 546.891 410.816C546.102 407.158 546.156 403.368 547.05 399.735C550.499 386.151 565.139 378.159 579.743 381.881C583.649 382.836 587.304 384.622 590.459 387.116C593.614 389.61 596.196 392.755 598.03 396.337L634.729 252.028L629.402 250.67C628.992 249.711 628.827 248.665 628.921 247.627C629.015 246.588 629.366 245.589 629.941 244.719Z" fill="white"/>
<path d="M635.797 247.794L635.941 247.209C635.663 247.344 635.384 247.488 635.106 247.614L635.797 247.794Z" fill="#FC6464"/>
<path d="M623.178 517.235C625.873 521.344 629.034 539.306 629.034 539.306C629.034 539.306 631.154 543.415 631.028 546.912C630.902 550.409 633.022 556.801 633.022 556.801L640.001 582.611C640.001 582.611 639.246 589.471 641.869 594.298C644.492 599.126 644.231 597.661 642.992 606.138C641.752 614.616 644.483 622.473 648.964 625.017C653.446 627.562 646.97 633.369 646.97 633.369C646.97 633.369 675.622 641.101 681.603 636.363C687.585 631.625 678.487 608.179 678.487 608.179C678.487 608.179 679.987 588.482 678.99 585.614C677.993 582.746 673.754 558.311 673.754 558.311C673.754 558.311 671.14 547.208 672.137 545.338C673.134 543.468 671.517 538.146 671.517 538.146C671.517 538.146 667.278 532.159 667.655 530.289C668.032 528.419 666.407 525.057 666.407 525.057C666.407 525.057 679.089 505.548 677.966 501.889C676.843 498.23 678.46 492.414 678.46 492.414L681.999 486.354C684.361 482.309 687.217 477.463 688.178 475.953C689.4 474.029 692.346 465.848 693.989 461.128L695.157 457.748C695.157 457.748 697.151 494.41 698.893 498.149C700.635 501.889 703.249 531.413 703.249 531.413C704.218 534.042 704.643 536.84 704.498 539.639C704.246 544.251 708.485 564.325 708.485 564.325C708.485 564.325 710.354 578.539 709.105 582.306C707.857 586.072 708.854 613.609 708.854 613.609C708.854 613.609 702.001 619.003 700.258 623.085C698.516 627.166 700.51 638.368 700.51 638.368C700.51 638.368 720.44 648.347 729.251 645.731C738.062 643.115 734.478 628.02 734.478 628.02C734.478 628.02 740.46 618.05 740.46 614.184C740.46 610.319 742.633 598.515 742.633 598.515C750.232 584.553 747.241 550.643 748.489 547.901C749.738 545.159 745.867 534.928 742.759 530.316C739.652 525.704 740.891 513.235 742.759 509.639C744.627 506.043 740.837 493.538 740.837 493.538C740.837 493.538 744.43 469.345 744.322 465.605C744.214 461.865 747.439 450.772 747.439 450.772C747.439 450.772 750.672 445.036 749.926 443.283C749.181 441.53 752.414 437.053 751.543 435.057C750.672 433.061 752.298 426.966 753.914 423.37C754.741 421.518 755.773 416.412 756.609 411.89C757.372 407.583 757.938 403.799 757.938 403.799L737.379 387.212L686.058 373.727L666.757 367.497L647.941 397.164C646.61 399.327 645.39 401.557 644.285 403.843C642.803 406.927 641.483 410.361 641.716 412.501C642.03 415.201 641.415 417.928 639.974 420.232C639.974 420.232 628.756 455.761 629.007 465.992C629.259 476.223 625.019 498.653 625.019 498.653C625.019 498.653 620.412 513.109 623.178 517.235Z" fill="#CEDDF9"/>
<path d="M699.037 228.204C699.827 227.881 754.013 205.477 746.55 201.027C742.122 198.384 736.67 187.182 732.933 178.417C730.329 172.295 728.559 167.359 728.559 167.359C728.559 167.359 685.071 159.628 700.636 186.31C703.089 190.403 704.938 194.831 706.123 199.454C710.56 217.632 699.396 227.872 699.037 228.204Z" fill="#FEC2BE"/>
<path opacity="0.1" d="M700.636 186.31C703.089 190.404 704.938 194.831 706.123 199.454C711.641 199.07 716.949 197.184 721.474 194.001C726 190.818 729.571 186.459 731.802 181.393C732.233 180.422 732.611 179.429 732.933 178.417C730.329 172.295 728.559 167.359 728.559 167.359C728.559 167.359 685.071 159.628 700.636 186.31Z" fill="black"/>
<path d="M673.601 168.106C673.604 175.803 676.522 183.212 681.768 188.841C687.013 194.469 694.196 197.897 701.867 198.434C709.538 198.971 717.127 196.576 723.104 191.733C729.081 186.89 733.001 179.959 734.073 172.337C735.146 164.715 733.292 156.97 728.884 150.663C724.477 144.355 717.844 139.955 710.323 138.35C702.802 136.745 694.953 138.053 688.358 142.012C681.764 145.971 676.914 152.285 674.787 159.682C673.999 162.42 673.6 165.256 673.601 168.106Z" fill="#FEC2BE"/>
<path opacity="0.1" d="M644.285 403.835C647.465 406.729 648.686 412.24 648.686 412.24C648.686 412.24 663.64 422.462 662.644 415.98C661.647 409.498 670.368 383.31 670.368 383.31L669.371 418.974C669.371 418.974 717.198 416.726 720.691 413.238C724.185 409.75 744.609 403.061 744.609 403.061C744.609 403.061 750.897 408.087 756.609 411.899C757.372 407.592 757.938 403.808 757.938 403.808L737.379 387.221L686.058 373.736L666.757 367.506L647.941 397.173C646.611 399.331 645.391 401.554 644.285 403.835Z" fill="black"/>
<path d="M642.713 401.02C646.701 403.511 648.192 410.244 648.192 410.244C648.192 410.244 663.137 420.466 662.14 413.984C661.144 407.502 669.865 381.314 669.865 381.314L668.868 416.978C668.868 416.978 716.704 414.748 720.18 411.242C723.655 407.736 744.097 401.02 744.097 401.02C744.097 401.02 761.791 415.234 765.025 413.984C768.258 412.735 759.294 388.551 759.294 388.551L750.088 246.912C750.088 246.912 752.576 204.767 748.84 203.266C748.263 203.032 747.731 202.701 747.268 202.286C744.807 200.074 744.071 195.579 743.855 191.803C743.612 187.308 737.631 189.556 737.631 189.556L741.116 194.051L710.246 212.84L709.976 213.002C708.774 212.368 707.536 211.807 706.267 211.321C703.573 210.269 699.899 209.28 697.519 210.26C696.188 210.937 695.06 211.954 694.25 213.209C692.489 215.857 691.076 218.722 690.046 221.731L678.864 240.673C678.864 240.673 673.134 265.846 673.134 266.861C673.134 267.877 671.392 290.802 669.398 293.292C667.404 295.783 665.41 308.252 666.155 311.992C666.901 315.732 664.907 329.702 664.907 329.702C656.689 336.436 652.458 359.369 652.458 359.369C652.458 359.369 639.471 385.081 638.447 388.048C637.423 391.015 638.725 398.566 642.713 401.02Z" fill="white"/>
<path opacity="0.1" d="M710.246 213.829C713.272 218.324 722.02 224.617 722.02 224.617L747.268 203.266C744.807 201.054 744.07 196.559 743.855 192.774C743.612 188.279 737.63 190.536 737.63 190.536L738.358 191.435C738.705 191.883 738.953 192.399 739.087 192.95C739.221 193.501 739.237 194.074 739.135 194.631C739.032 195.189 738.813 195.718 738.492 196.185C738.171 196.652 737.755 197.046 737.271 197.341L710.246 213.829Z" fill="black"/>
<path d="M710.246 212.831C713.272 217.326 722.02 223.619 722.02 223.619L747.268 202.268C744.807 200.056 744.07 195.561 743.855 191.785C743.612 187.29 737.63 189.538 737.63 189.538L738.358 190.437C738.705 190.884 738.953 191.4 739.087 191.95C739.221 192.5 739.237 193.073 739.134 193.629C739.032 194.186 738.813 194.715 738.492 195.181C738.17 195.647 737.755 196.04 737.271 196.334L710.246 212.831Z" fill="white"/>
<path opacity="0.1" d="M698.57 216.193C701.83 220.095 706.456 224.527 706.24 222.307C706.025 220.086 708.998 215.187 710.893 212.993C707.933 212.054 704.743 212.143 701.839 213.245C700.507 213.919 699.378 214.937 698.57 216.193Z" fill="black"/>
<path d="M698.076 214.692C701.336 218.603 705.952 223.026 705.737 220.814C705.521 218.603 708.189 214.998 710.084 212.804C707.39 211.752 703.725 210.763 701.336 211.752C700.007 212.424 698.881 213.439 698.076 214.692Z" fill="white"/>
<path d="M706.24 235.441C707.341 235.441 708.234 234.548 708.234 233.446C708.234 232.343 707.341 231.45 706.24 231.45C705.139 231.45 704.246 232.343 704.246 233.446C704.246 234.548 705.139 235.441 706.24 235.441Z" fill="#FF718D"/>
<path d="M691.124 289.301C692.225 289.301 693.118 288.407 693.118 287.305C693.118 286.203 692.225 285.309 691.124 285.309C690.023 285.309 689.13 286.203 689.13 287.305C689.13 288.407 690.023 289.301 691.124 289.301Z" fill="#FF718D"/>
<path d="M674.023 343.835C675.124 343.835 676.017 342.941 676.017 341.839C676.017 340.737 675.124 339.843 674.023 339.843C672.922 339.843 672.029 340.737 672.029 341.839C672.029 342.941 672.922 343.835 674.023 343.835Z" fill="#FF718D"/>
<path d="M673.52 403.178C674.621 403.178 675.514 402.285 675.514 401.182C675.514 400.08 674.621 399.187 673.52 399.187C672.419 399.187 671.526 400.08 671.526 401.182C671.526 402.285 672.419 403.178 673.52 403.178Z" fill="#FF718D"/>
<path d="M697.438 260.874C698.539 260.874 699.432 259.981 699.432 258.878C699.432 257.776 698.539 256.883 697.438 256.883C696.337 256.883 695.444 257.776 695.444 258.878C695.444 259.981 696.337 260.874 697.438 260.874Z" fill="#FF718D"/>
<path d="M683.984 316.235C685.085 316.235 685.978 315.341 685.978 314.239C685.978 313.137 685.085 312.243 683.984 312.243C682.882 312.243 681.99 313.137 681.99 314.239C681.99 315.341 682.882 316.235 683.984 316.235Z" fill="#FF718D"/>
<path d="M670.862 370.598C671.963 370.598 672.855 369.705 672.855 368.602C672.855 367.5 671.963 366.606 670.862 366.606C669.76 366.606 668.868 367.5 668.868 368.602C668.868 369.705 669.76 370.598 670.862 370.598Z" fill="#FF718D"/>
<path d="M673.852 409.831C674.953 409.831 675.846 408.937 675.846 407.835C675.846 406.733 674.953 405.839 673.852 405.839C672.751 405.839 671.858 406.733 671.858 407.835C671.858 408.937 672.751 409.831 673.852 409.831Z" fill="#FF718D"/>
<path opacity="0.1" d="M747.268 203.482C747.268 203.482 746.936 200.488 751.247 205.648C755.558 210.808 763.704 215.286 763.704 215.286C763.704 215.286 782.143 228.258 783.14 234.237C784.137 240.215 790.11 266.16 786.958 274.8C783.805 283.439 759.698 324.848 759.698 324.848C759.698 324.848 765.986 332.336 764.522 341.147C763.058 349.957 761.198 362.094 762.025 364.755C762.851 367.416 761.028 374.059 763.821 376.388C766.614 378.716 769.632 382.681 760.83 388.021C760.83 388.021 759.169 392.516 760.659 393.514C762.15 394.512 738.574 404.814 729.224 399.33C719.874 393.847 703.177 349.957 702.818 340.149C702.459 330.341 707.964 297.895 710.955 290.272C713.946 282.648 722.919 252.864 726.736 246.22C730.553 239.577 747.268 203.482 747.268 203.482Z" fill="black"/>
<path d="M748.256 203.482C748.256 203.482 747.924 200.488 752.244 205.648C756.564 210.808 764.701 215.286 764.701 215.286C764.701 215.286 783.141 228.258 784.138 234.237C785.135 240.215 791.107 266.16 787.955 274.8C784.802 283.439 760.714 324.848 760.714 324.848C760.714 324.848 767.001 332.336 765.537 341.147C764.073 349.957 762.213 362.094 763.04 364.755C763.866 367.416 762.043 374.059 764.836 376.388C767.629 378.716 770.647 382.681 761.845 388.021C761.845 388.021 760.184 392.516 761.675 393.514C763.166 394.512 739.589 404.814 730.239 399.33C720.889 393.847 704.192 349.957 703.833 340.149C703.474 330.341 708.98 297.895 711.97 290.272C714.961 282.648 723.934 252.864 727.751 246.22C731.568 239.577 748.256 203.482 748.256 203.482Z" fill="#4C4981"/>
<path opacity="0.1" d="M754.902 231.782C754.902 231.782 740.622 247.578 741.116 258.051C741.116 258.051 740.954 241.087 754.902 231.782Z" fill="black"/>
<path opacity="0.1" d="M735.143 257.719C735.143 258.213 725.505 294.12 726.008 298.615C726.511 303.11 723.179 316.397 723.179 316.397L718.688 315.237C718.688 315.237 722.173 296.781 722.838 289.966C723.503 283.152 735.143 257.719 735.143 257.719Z" fill="black"/>
<path opacity="0.1" d="M731.316 360.125C731.649 360.619 754.076 386.052 747.762 387.886C741.448 389.72 731.316 360.125 731.316 360.125Z" fill="black"/>
<path opacity="0.1" d="M749.756 353.616C750.25 353.948 758.737 371.902 759.716 367.101C760.695 362.3 752.414 380.235 751.085 366.939L749.756 353.616Z" fill="black"/>
<path opacity="0.1" d="M706.707 209.172C706.707 209.172 697.447 203.517 685.816 217.983C685.816 217.983 677.346 222.801 674.859 223.97C672.371 225.139 669.541 256.056 669.541 256.056C669.541 256.056 664.063 269.352 665.554 277.002C667.045 284.653 661.242 310.913 661.242 310.913C661.242 310.913 651.596 358.111 651.92 359.459C652.243 360.808 661.718 344.662 661.557 336.679C661.395 328.695 669.524 303.766 670.691 302.265C671.859 300.763 679.825 258.051 679.825 258.051C679.825 258.051 686.301 239.927 690.451 233.94C694.6 227.953 699.755 216.652 701.911 214.656C703.463 213.312 705.195 212.192 707.058 211.33L706.707 209.172Z" fill="black"/>
<path d="M706.824 209.172C706.824 209.172 696.441 203.517 684.819 217.983C684.819 217.983 676.34 222.801 673.852 223.97C671.364 225.139 668.535 256.056 668.535 256.056C668.535 256.056 663.056 269.352 664.547 277.002C666.038 284.653 660.236 310.913 660.236 310.913C660.236 310.913 650.599 358.129 650.931 359.459C651.264 360.79 660.73 344.662 660.568 336.679C660.407 328.695 668.535 303.766 669.703 302.265C670.87 300.763 678.864 258.051 678.864 258.051C678.864 258.051 685.34 239.927 689.489 233.94C693.639 227.953 698.794 216.652 700.95 214.656C703.105 212.66 707.093 211.33 707.093 211.33L706.824 209.172Z" fill="#4C4981"/>
<path d="M661.233 313.071C661.233 313.071 641.474 300.107 631.917 306.508C622.361 312.909 606.769 321.971 622.118 328.534C637.468 335.096 658.736 333.838 658.736 333.838L661.233 313.071Z" fill="#FEC2BE"/>
<path opacity="0.1" d="M674.975 438.177C677.921 444.47 680.364 476.277 681.999 486.355C684.361 482.309 687.217 477.463 688.178 475.953C689.399 474.029 692.345 465.848 693.989 461.128C692.112 456.561 686.929 443.472 686.929 438.653C686.929 432.792 677.463 425.438 677.463 425.438C677.463 425.438 671.49 430.697 674.975 438.177Z" fill="black"/>
<path opacity="0.1" d="M738.502 535.8C738.502 535.8 716.578 526.45 710.102 533.103C703.626 539.756 738.502 535.8 738.502 535.8Z" fill="black"/>
<path opacity="0.1" d="M726.17 539.54C726.17 539.54 748.346 552.009 740.748 554.095C733.149 556.18 726.17 539.54 726.17 539.54Z" fill="black"/>
<path opacity="0.1" d="M659.904 528.698C659.904 528.698 669.371 529.318 665.76 531.188C662.15 533.058 659.904 528.698 659.904 528.698Z" fill="black"/>
<path opacity="0.1" d="M648.066 531.566C648.192 532.186 675.595 541.041 670.242 545.051C664.889 549.06 648.066 531.566 648.066 531.566Z" fill="black"/>
<path opacity="0.1" d="M735.259 607.873C731.155 607.244 708.234 596.645 717.197 604.277C726.161 611.91 735.259 607.873 735.259 607.873Z" fill="black"/>
<path opacity="0.1" d="M723.925 616.225C723.925 616.225 721.931 623.956 714.333 622.959C706.734 621.961 723.925 616.225 723.925 616.225Z" fill="black"/>
<path opacity="0.1" d="M730.284 631.931C728.909 631.562 712.59 624.082 712.222 627.57C711.853 631.059 727.787 637.172 729.035 635.302C729.751 634.313 730.183 633.147 730.284 631.931Z" fill="black"/>
<path opacity="0.1" d="M677.463 622.959C675.469 622.833 656.806 616.845 653.051 622.204L677.463 622.959Z" fill="black"/>
<path opacity="0.1" d="M660.524 626.447C660.524 626.447 657.281 623.579 654.048 625.072C650.815 626.564 660.524 626.447 660.524 626.447Z" fill="black"/>
<path opacity="0.1" d="M701.884 657.373C701.674 658.432 701.162 659.408 700.41 660.182C699.657 660.956 698.697 661.494 697.645 661.733L701.884 657.373Z" fill="black"/>
<path d="M606.832 669.087C608.08 674.202 625.523 674.697 633.866 673.33C642.21 671.964 659.527 666.965 659.527 666.965C659.527 666.965 677.714 665.221 683.067 662.983C688.42 660.744 684.19 654.999 684.19 654.999C684.19 654.999 684.19 654.802 684.19 654.46C684.316 652.374 684.693 644.814 683.409 642.773C681.918 640.399 682.789 632.668 682.789 632.668C682.789 632.668 657.003 637.657 656.5 635.293C655.997 632.929 652.009 629.557 650.15 628.811C648.291 628.065 646.908 635.041 646.908 635.041C646.908 635.041 635.232 645.02 634.45 648.634C633.669 652.248 625.469 654.118 625.469 654.118C625.469 654.118 613.011 657.606 609.769 659.351C608.828 659.793 608.017 660.472 607.416 661.321C606.815 662.171 606.444 663.161 606.338 664.196C606.202 665.843 606.369 667.501 606.832 669.087Z" fill="#CA8496"/>
<path opacity="0.1" d="M606.832 669.087C608.08 674.202 625.523 674.697 633.867 673.33C642.21 671.964 659.527 666.965 659.527 666.965C659.527 666.965 677.715 665.221 683.068 662.983C688.421 660.744 684.19 654.999 684.19 654.999C684.19 654.999 684.19 654.802 684.19 654.46L658.144 660.241C658.144 660.241 645.309 665.724 637.091 665.724C629.906 665.724 613.829 668.664 606.374 664.205C606.227 665.847 606.382 667.501 606.832 669.087Z" fill="black"/>
<path opacity="0.1" d="M642.084 649.39C642.084 649.39 643.333 657.616 648.318 660.358L642.084 649.39Z" fill="black"/>
<path opacity="0.1" d="M674.787 159.682C675.261 159.933 675.757 160.141 676.269 160.302C678.604 160.932 680.885 159.349 682.96 158.091C685.035 156.832 687.9 155.897 689.696 157.533C692.04 159.664 690.343 164.213 692.759 166.272C694.286 167.575 696.711 167.126 698.408 168.196C700.106 169.265 700.618 171.612 701.049 173.635C701.48 175.657 702.342 177.968 704.318 178.561C706.294 179.154 708.135 177.851 710.084 177.923C710.488 177.923 710.982 177.986 711.234 177.698C711.412 177.435 711.48 177.112 711.422 176.799C711.179 174.383 711.395 171.942 712.06 169.607C712.86 167.305 714.755 165.229 717.126 164.86C720.62 164.321 723.557 167.386 725.613 170.254C727.776 173.291 729.743 176.462 731.505 179.748C731.617 179.96 731.716 180.18 731.802 180.404C733.489 176.589 734.374 172.467 734.403 168.295C734.431 164.123 733.601 159.99 731.966 156.152C730.33 152.314 727.924 148.854 724.895 145.987C721.867 143.12 718.282 140.907 714.363 139.486C710.444 138.065 706.275 137.466 702.115 137.726C697.955 137.986 693.892 139.1 690.181 140.998C686.469 142.896 683.187 145.539 680.538 148.761C677.89 151.983 675.932 155.715 674.787 159.727V159.682Z" fill="black"/>
<path d="M725.613 169.751C723.556 166.856 720.619 163.799 717.117 164.357C714.719 164.725 712.868 166.802 712.06 169.095C711.394 171.43 711.181 173.871 711.431 176.287C711.481 176.601 711.411 176.922 711.234 177.186C710.955 177.482 710.488 177.437 710.084 177.419C708.135 177.347 706.195 178.615 704.318 178.058C702.441 177.5 701.48 175.154 701.049 173.131C700.617 171.108 700.15 168.798 698.408 167.692C696.666 166.586 694.285 167.072 692.759 165.759C690.343 163.709 692.049 159.152 689.696 157.021C687.9 155.394 685.034 156.329 682.96 157.587C680.885 158.846 678.604 160.419 676.259 159.79C675.469 159.574 674.76 159.125 673.987 158.828C670.296 157.416 665.508 159.808 662.473 157.273C661.371 156.169 660.578 154.796 660.173 153.29C659.34 151.253 658.776 149.117 658.494 146.934C658.226 144.728 658.832 142.504 660.182 140.74C662.158 138.411 665.499 137.827 668.023 136.11C670.17 134.636 671.616 132.397 673.035 130.194C674.454 127.992 675.828 125.699 677.903 124.144C679.978 122.589 682.888 121.816 685.205 122.993C685.936 123.504 686.746 123.89 687.603 124.135C688.537 124.147 689.456 123.895 690.253 123.407C698.893 119.334 708.952 120.054 718.428 121.267C722.218 121.753 726.062 122.319 729.52 123.964C732.978 125.61 736.032 128.459 737.002 132.163C737.774 135.094 737.181 138.286 738.116 141.153C738.744 143.113 740.038 144.749 740.81 146.718C742.831 151.977 740.415 157.749 739.391 163.287C738.277 169.337 738.834 175.873 736.265 181.609C735.762 182.733 735.197 184.701 733.93 183.964C733.032 183.416 732.08 180.224 731.541 179.226C729.769 175.944 727.789 172.779 725.613 169.751Z" fill="#9A5E7F"/>
<path opacity="0.1" d="M780.356 267.194L784.847 279.996C784.847 279.996 774.213 319.552 769.228 327.868C764.243 336.184 756.941 346.819 756.941 346.819C756.941 346.819 744.654 352.977 730.365 350.146C716.075 347.314 674.373 339.843 674.373 339.843C674.373 339.843 670.879 340.508 669.056 337.847C667.233 335.186 657.739 333.838 657.739 333.838C657.739 333.838 646.782 317.88 660.236 311.228C660.236 311.228 661.898 314.887 669.038 312.396C676.179 309.906 678.334 314.383 678.334 314.383C678.334 314.383 690.01 316.711 696.441 315.884C702.872 315.057 719.03 314.716 720.691 313.385C721.113 313.016 721.662 312.826 722.222 312.858C722.781 312.89 723.306 313.141 723.682 313.556C723.682 313.556 727.661 312.064 728.99 310.562C730.32 309.061 732.152 312.225 732.152 312.225C732.152 312.225 734.478 310.895 733.813 309.232C733.149 307.569 735.969 301.258 735.969 301.258C735.969 301.258 737.298 297.095 736.472 293.769C735.646 290.442 740.622 278.486 740.622 278.486C740.686 276.468 740.463 274.452 739.957 272.498C739.122 269.514 746.244 263.508 746.244 263.508C746.244 263.508 753.214 229.589 767.997 240.727C782.781 251.866 780.356 267.194 780.356 267.194Z" fill="black"/>
<path d="M781.308 267.194L785.799 279.996C785.799 279.996 775.165 319.552 770.18 327.868C765.195 336.184 757.902 346.819 757.902 346.819C757.902 346.819 745.615 352.977 731.326 350.146C717.036 347.314 675.352 339.843 675.352 339.843C675.352 339.843 671.868 340.508 670.044 337.847C668.221 335.186 658.736 333.838 658.736 333.838C658.736 333.838 647.779 317.88 661.233 311.228C661.233 311.228 662.895 314.887 670.035 312.396C677.176 309.906 679.331 314.383 679.331 314.383C679.331 314.383 691.007 316.711 697.438 315.884C703.869 315.057 720.027 314.716 721.688 313.385C722.11 313.016 722.659 312.826 723.219 312.858C723.778 312.89 724.303 313.141 724.679 313.556C724.679 313.556 728.658 312.064 729.987 310.562C731.317 309.061 733.149 312.225 733.149 312.225C733.149 312.225 735.475 310.895 734.81 309.232C734.146 307.569 736.966 301.258 736.966 301.258C736.966 301.258 738.295 297.095 737.46 293.769C736.625 290.442 741.619 278.486 741.619 278.486C741.683 276.468 741.46 274.452 740.954 272.498C740.119 269.514 747.241 263.508 747.241 263.508C747.241 263.508 754.211 229.589 768.994 240.727C783.778 251.866 781.308 267.194 781.308 267.194Z" fill="#4C4981"/>
<path opacity="0.1" d="M673.358 320.721C673.52 321.89 677.175 326.538 675.846 327.374C674.517 328.21 672.361 327.706 674.355 330.368C676.349 333.029 676.151 337.011 674.849 336.517C673.547 336.022 671.364 330.035 671.364 327.706C671.364 325.378 673.358 320.721 673.358 320.721Z" fill="black"/>
<path opacity="0.1" d="M722.686 318.06C722.686 318.06 723.683 329.702 731.856 333.029C740.029 336.355 722.686 318.06 722.686 318.06Z" fill="black"/>
<path opacity="0.1" d="M739.625 314.06C740.119 314.23 751.247 320.218 746.271 323.706C741.295 327.194 739.625 314.06 739.625 314.06Z" fill="black"/>
<path opacity="0.1" d="M740.289 305.762C740.289 305.762 756.564 309.088 751.067 311.911C745.57 314.734 740.289 305.762 740.289 305.762Z" fill="black"/>
<g opacity="0.1">
<path opacity="0.1" d="M712.096 166.245C712.904 163.952 714.79 161.875 717.152 161.507C720.655 160.967 723.592 164.033 725.649 166.901C727.811 169.938 729.779 173.109 731.541 176.394C732.08 177.392 732.996 180.575 733.93 181.123C735.196 181.869 735.726 179.901 736.265 178.777C738.834 173.059 738.277 166.505 739.391 160.455C740.046 156.922 741.259 153.263 741.528 149.757C741.915 154.108 740.208 158.684 739.391 163.107C738.277 169.157 738.834 175.693 736.265 181.438C735.762 182.562 735.196 184.53 733.93 183.784C733.032 183.236 732.08 180.053 731.541 179.056C729.779 175.77 727.811 172.599 725.649 169.562C723.592 166.676 720.655 163.611 717.152 164.168C714.754 164.537 712.904 166.613 712.096 168.906C711.695 170.114 711.471 171.373 711.431 172.646C711.253 170.489 711.479 168.318 712.096 166.245Z" fill="black"/>
<path opacity="0.1" d="M660.173 150.44C660.576 151.95 661.369 153.326 662.473 154.432C665.508 156.967 670.296 154.576 673.987 155.987C674.759 156.275 675.469 156.733 676.259 156.949C678.603 157.569 680.894 155.996 682.96 154.737C685.025 153.479 687.908 152.553 689.696 154.18C692.049 156.311 690.342 160.86 692.758 162.918C694.285 164.222 696.71 163.817 698.408 164.851C700.105 165.885 700.617 168.258 701.049 170.245C701.48 172.232 702.333 174.578 704.318 175.172C706.303 175.765 708.135 174.471 710.084 174.542C710.488 174.542 710.982 174.605 711.234 174.309C711.292 174.233 711.338 174.148 711.368 174.057C711.368 174.731 711.368 175.397 711.431 176.062C711.48 176.376 711.41 176.697 711.234 176.961C710.955 177.249 710.488 177.204 710.084 177.186C708.135 177.123 706.195 178.381 704.318 177.824C702.441 177.266 701.48 174.929 701.049 172.897C700.617 170.866 700.15 168.564 698.408 167.503C696.665 166.442 694.285 166.874 692.758 165.57C690.342 163.512 692.049 158.954 689.696 156.832C687.899 155.196 685.034 156.131 682.96 157.389C680.885 158.648 678.603 160.221 676.259 159.601C675.469 159.385 674.759 158.927 673.987 158.639C670.296 157.228 665.508 159.619 662.473 157.084C661.371 155.977 660.578 154.601 660.173 153.092C659.341 151.058 658.777 148.925 658.494 146.745C658.431 146.002 658.449 145.255 658.548 144.516C658.86 146.546 659.406 148.534 660.173 150.44Z" fill="black"/>
</g>
<path d="M89.6183 653.201C89.6183 653.201 51.6441 650.909 56.117 677.537C56.117 677.537 55.2188 682.248 59.494 684.388C59.494 684.388 59.5569 682.41 63.3921 683.075C64.7536 683.303 66.137 683.373 67.5146 683.282C69.3759 683.153 71.1447 682.421 72.5533 681.196C72.5533 681.196 83.2324 676.782 87.3819 659.315C87.3819 659.315 90.4536 655.512 90.3278 654.532L83.924 657.229C83.924 657.229 86.1155 661.859 84.391 665.707C84.391 665.707 84.1844 657.4 82.9539 657.615C82.7025 657.615 79.6218 659.216 79.6218 659.216C79.6218 659.216 83.394 667.307 80.5199 673.141C80.5199 673.141 81.5977 663.207 78.4182 659.8L73.9274 662.434C73.9274 662.434 78.3284 670.759 75.3465 677.555C75.3465 677.555 76.11 667.136 72.9754 663.081L68.8888 666.273C68.8888 666.273 73.0293 674.472 70.5055 680.109C70.5055 680.109 70.1731 667.981 68.0086 667.064C68.0086 667.064 64.4159 670.22 63.886 671.559C63.886 671.559 66.7152 677.519 64.9548 680.666C64.9548 680.666 63.8771 672.575 62.9969 672.575C62.9969 672.575 59.4042 677.924 59.0629 681.565C59.0629 681.565 59.2156 676.108 62.1346 672.027C60.0799 672.417 58.1844 673.401 56.6828 674.858C56.6828 674.858 57.2307 671.074 63.0148 670.741C63.0148 670.741 65.9608 666.677 66.7422 666.435C66.7422 666.435 60.994 665.949 57.5091 667.496C57.5091 667.496 60.5808 663.899 67.802 665.554L71.8347 662.254C71.8347 662.254 64.2633 661.22 61.0568 662.362C61.0568 662.362 64.7483 659.207 72.9215 661.508L77.3135 658.874C77.3135 658.874 70.8647 657.481 67.0206 657.975C67.0206 657.975 71.0713 655.79 78.6068 658.164L81.7414 656.752C81.7414 656.752 77.0171 655.853 75.6339 655.674C74.2508 655.494 74.17 655.143 74.17 655.143C77.1652 654.643 80.2404 654.986 83.0527 656.132C83.0527 656.132 89.7261 653.615 89.6183 653.201Z" fill="#FC6464"/>
<path opacity="0.1" d="M63.464 691.256C78.3055 691.256 90.3369 689.22 90.3369 686.707C90.3369 684.195 78.3055 682.158 63.464 682.158C48.6225 682.158 36.5911 684.195 36.5911 686.707C36.5911 689.22 48.6225 691.256 63.464 691.256Z" fill="#FC6464"/>
<path d="M162.423 583.016C162.423 583.016 141.011 581.721 143.562 596.744C143.433 597.505 143.548 598.288 143.89 598.981C144.231 599.673 144.783 600.24 145.466 600.6C145.466 600.6 145.466 599.486 147.666 599.863C148.435 599.988 149.215 600.027 149.992 599.98C151.04 599.901 152.035 599.489 152.831 598.802C152.831 598.802 158.83 596.348 161.201 586.459C161.201 586.459 162.935 584.31 162.863 583.762L159.27 585.299C159.27 585.299 160.501 587.915 159.531 590.082C159.531 590.082 159.414 585.398 158.723 585.506C158.579 585.506 156.845 586.405 156.845 586.405C156.845 586.405 158.965 590.9 157.366 594.253C157.366 594.253 157.968 588.653 156.181 586.729L153.621 588.257C153.621 588.257 156.1 592.95 154.42 596.78C154.42 596.78 154.852 590.9 153.082 588.617L150.783 590.415C150.783 590.415 153.109 595.045 151.681 598.218C151.681 598.218 151.492 591.377 150.271 590.864C149.399 591.605 148.618 592.447 147.945 593.372C147.945 593.372 149.543 596.735 148.555 598.506C148.555 598.506 147.945 593.948 147.451 593.93C147.451 593.93 145.439 596.941 145.232 599.018C145.325 597.1 145.92 595.24 146.957 593.624C145.8 593.849 144.733 594.405 143.885 595.224C143.885 595.224 144.199 593.085 147.478 592.905C147.478 592.905 149.13 590.612 149.579 590.478C149.579 590.478 146.337 590.199 144.37 591.071C144.37 591.071 146.103 589.057 150.172 589.974L152.444 588.113C152.444 588.113 148.178 587.529 146.373 588.176C146.373 588.176 148.457 586.378 153.064 587.691L155.534 586.216C153.631 585.794 151.68 585.625 149.732 585.713C149.732 585.713 152.022 584.472 156.262 585.812L158.058 585.021C158.058 585.021 155.363 584.49 154.618 584.409C153.873 584.328 153.792 584.113 153.792 584.113C155.482 583.831 157.216 584.024 158.803 584.67C158.803 584.67 162.522 583.25 162.423 583.016Z" fill="#FC6464"/>
<path opacity="0.1" d="M147.711 604.466C156.079 604.466 162.863 603.319 162.863 601.904C162.863 600.489 156.079 599.342 147.711 599.342C139.343 599.342 132.559 600.489 132.559 601.904C132.559 603.319 139.343 604.466 147.711 604.466Z" fill="#FC6464"/>
<path d="M36.0971 596.051C36.0971 596.051 10.2481 594.487 13.3287 612.62C13.1723 613.54 13.3105 614.486 13.7235 615.322C14.1364 616.159 14.8031 616.843 15.628 617.277C15.628 617.277 15.628 615.929 18.2776 616.378C19.2059 616.535 20.1497 616.58 21.0888 616.513C22.357 616.428 23.5625 615.929 24.5198 615.092C24.5198 615.092 31.7859 612.09 34.6151 600.205C34.6151 600.205 36.6988 597.616 36.618 596.95L32.1901 598.82C32.1901 598.82 33.672 601.967 32.5044 604.583C32.5044 604.583 32.3607 598.937 31.5254 599.072C31.3548 599.072 29.2621 600.16 29.2621 600.16C29.2621 600.16 31.8218 605.644 29.8908 609.636C29.8908 609.636 30.6183 602.875 28.4537 600.555L25.391 602.354C25.391 602.354 28.3819 608.017 26.352 612.638C26.352 612.638 26.873 605.545 24.7443 602.749L21.96 604.925C21.96 604.925 24.7713 610.508 23.0558 614.346C23.0558 614.346 22.8313 606.084 21.3583 605.464C21.3583 605.464 18.9243 607.613 18.547 608.494C18.547 608.494 20.4781 612.548 19.2835 614.688C19.2835 614.688 18.547 609.186 17.9453 609.159C17.9453 609.159 15.5202 612.809 15.2508 615.308C15.371 612.999 16.0925 610.761 17.3435 608.817C15.9423 609.08 14.6492 609.749 13.6251 610.741C13.6251 610.741 14.0024 608.161 17.9453 607.936C17.9453 607.936 19.9482 605.176 20.4781 605.006C20.4781 605.006 16.5711 604.673 14.191 605.725C14.191 605.725 16.2837 603.297 21.1966 604.403L23.945 602.156C23.945 602.156 18.7895 601.454 16.607 602.237C16.607 602.237 19.1219 600.079 24.6904 601.652L27.6813 599.854C27.6813 599.854 23.2893 598.901 20.6757 599.243C20.6757 599.243 23.433 597.751 28.5615 599.369L30.6991 598.407C30.6991 598.407 27.4837 597.778 26.5407 597.679C25.5976 597.58 25.5437 597.319 25.5437 597.319C27.5812 596.973 29.6746 597.204 31.5883 597.984C31.5883 597.984 36.1779 596.348 36.0971 596.051Z" fill="#FC6464"/>
<path opacity="0.1" d="M18.2955 621.952C28.3998 621.952 36.591 620.567 36.591 618.859C36.591 617.151 28.3998 615.767 18.2955 615.767C8.19117 615.767 0 617.151 0 618.859C0 620.567 8.19117 621.952 18.2955 621.952Z" fill="#FC6464"/>
<path opacity="0.1" d="M545.829 736C560.67 736 572.702 733.963 572.702 731.451C572.702 728.939 560.67 726.902 545.829 726.902C530.987 726.902 518.956 728.939 518.956 731.451C518.956 733.963 530.987 736 545.829 736Z" fill="#FC6464"/>
<path d="M527.785 710.324C527.785 710.324 543.117 709.848 547.733 706.557C552.35 703.267 571.31 699.365 572.46 704.616C573.609 709.866 595.497 730.876 578.19 731.02C560.882 731.163 537.979 728.322 533.363 725.509C528.746 722.695 527.785 710.324 527.785 710.324Z" fill="#A8A8A8"/>
<path opacity="0.2" d="M578.495 729.177C561.187 729.32 538.284 726.48 533.677 723.675C530.165 721.526 528.764 713.848 528.288 710.306H527.776C527.776 710.306 528.746 722.677 533.353 725.491C537.961 728.305 560.873 731.136 578.18 731.002C583.174 731.002 584.899 729.204 584.809 726.507C584.126 728.152 582.213 729.15 578.495 729.177Z" fill="black"/>
</g>
<defs>
<linearGradient id="paint0_linear" x1="640.701" y1="241.959" x2="640.701" y2="213.254" gradientUnits="userSpaceOnUse">
<stop stop-color="#808080" stop-opacity="0.25"/>
<stop offset="0.54" stop-color="#808080" stop-opacity="0.12"/>
<stop offset="1" stop-color="#808080" stop-opacity="0.1"/>
</linearGradient>
<linearGradient id="paint1_linear" x1="267631" y1="461403" x2="267631" y2="98346.2" gradientUnits="userSpaceOnUse">
<stop stop-color="#808080" stop-opacity="0.25"/>
<stop offset="0.54" stop-color="#808080" stop-opacity="0.12"/>
<stop offset="1" stop-color="#808080" stop-opacity="0.1"/>
</linearGradient>
<clipPath id="clip0">
<rect width="835" height="736" fill="white"/>
</clipPath>
</defs>
</svg>
