<svg width="46" height="46" viewBox="0 0 46 46" fill="none" xmlns="http://www.w3.org/2000/svg">
<g clip-path="url(#clip0)">
<path d="M40.7523 9.52832H5.24665C4.61958 9.52832 4.10938 10.0384 4.10938 10.6655V31.6547C4.10938 32.2817 4.61958 32.7918 5.24665 32.7918H40.7523C41.3792 32.7918 41.8894 32.2817 41.8894 31.6547V10.6656C41.8894 10.0385 41.3792 9.52832 40.7523 9.52832ZM40.9049 31.6547C40.9049 31.7388 40.8364 31.8073 40.7523 31.8073H5.24665C5.16247 31.8073 5.09394 31.7387 5.09394 31.6547V10.6656C5.09394 10.5814 5.16237 10.513 5.24665 10.513H40.7523C40.8363 10.513 40.9049 10.5815 40.9049 10.6656V31.6547Z" fill="#FC6464"/>
<path d="M45.2616 33.5303H44.1053V10.1257C44.1053 8.57481 42.8436 7.31299 41.2926 7.31299H4.7075C3.15652 7.31299 1.8948 8.57471 1.8948 10.1257V33.5302H0.738424C0.330519 33.5302 0 33.8608 0 34.2686V36.2973C0 37.6151 1.07209 38.6871 2.38974 38.6871H43.6102C44.9279 38.6871 45.9999 37.615 45.9999 36.2973V34.2686C46 33.8609 45.6695 33.5303 45.2616 33.5303ZM3.37155 10.1257C3.37155 9.38914 3.97085 8.78984 4.70741 8.78984H41.2925C42.029 8.78984 42.6284 9.38904 42.6284 10.1257V33.5302H3.37155V10.1257ZM20.8339 35.0072H25.166V35.3933C25.166 35.5661 25.0254 35.7068 24.8525 35.7068H21.1473C20.9744 35.7068 20.8338 35.5662 20.8338 35.3933V35.0072H20.8339ZM44.5233 36.2974C44.5233 36.8008 44.1138 37.2103 43.6104 37.2103H2.38984C1.88643 37.2103 1.47695 36.8007 1.47695 36.2974V35.0072H2.63322H19.8494V35.3933C19.8494 36.1091 20.4317 36.6914 21.1475 36.6914H24.8527C25.5685 36.6914 26.1508 36.1091 26.1508 35.3933V35.0072H43.367H44.5233V36.2974Z" fill="#FC6464"/>
</g>
<defs>
<clipPath id="clip0">
<rect width="46" height="46" fill="white"/>
</clipPath>
</defs>
</svg>
