<svg width="46" height="46" viewBox="0 0 46 46" fill="none" xmlns="http://www.w3.org/2000/svg">
<g clip-path="url(#clip0)">
<path d="M41.6233 1.97656H11.341C10.9637 1.97656 10.6577 2.28259 10.6577 2.65987C10.6577 3.03714 10.9637 3.34282 11.341 3.34282H41.6233C43.2833 3.34282 44.6337 4.69328 44.6337 6.35294V30.6637C44.6337 32.3237 43.2833 33.6739 41.6233 33.6739H4.37637C2.71672 33.6739 1.36626 32.3237 1.36626 30.6637V6.35294C1.36626 4.69328 2.71672 3.34282 4.37637 3.34282H8.60815C8.98543 3.34282 9.29146 3.03714 9.29146 2.65987C9.29146 2.28259 8.98543 1.97656 8.60815 1.97656H4.37637C1.96323 1.97656 0 3.93979 0 6.35294V30.6637C0 33.0769 1.96323 35.0401 4.37637 35.0401H15.3619L14.0237 39.4126H11.5151C10.2341 39.4126 9.19249 40.4546 9.19249 41.7352C9.19249 43.0162 10.2341 44.0578 11.5151 44.0578H34.4849C35.7655 44.0578 36.8075 43.0162 36.8075 41.7352C36.8075 40.4546 35.7655 39.4126 34.4849 39.4126H31.9763L30.6381 35.0401H41.6233C44.0368 35.0401 46 33.0769 46 30.6637V6.35294C46 3.93979 44.0368 1.97656 41.6233 1.97656ZM35.4413 41.7356C35.4413 42.2627 35.012 42.6919 34.4849 42.6919H11.5151C10.9876 42.6919 10.5587 42.2627 10.5587 41.7356C10.5587 41.2081 10.9876 40.7792 11.5151 40.7792H34.4849C35.012 40.7792 35.4413 41.2081 35.4413 41.7356ZM30.5472 39.4126H15.4528L16.7906 35.0405H29.2094L30.5472 39.4126Z" fill="#FC6464"/>
<path d="M41.6721 24.2155C42.0497 24.2155 42.3554 23.9095 42.3554 23.5322V6.35312C42.3554 5.94847 42.0266 5.61963 41.6219 5.61963H4.37466C3.97107 5.61963 3.64258 5.94847 3.64258 6.35312V28.6189C3.64258 28.9962 3.94826 29.3019 4.32553 29.3019H41.6721C42.0497 29.3019 42.3554 28.9962 42.3554 28.6189V26.2651C42.3554 25.8878 42.0497 25.5821 41.6721 25.5821C41.2948 25.5821 40.9892 25.8878 40.9892 26.2651V27.9356H5.00883V6.98589H40.9892V23.5322C40.9892 23.9098 41.2948 24.2155 41.6721 24.2155Z" fill="#FC6464"/>
<path d="M23.5689 30.9865C23.4194 30.7591 23.1337 30.6426 22.8673 30.6959C22.576 30.7542 22.3497 31.0033 22.3216 31.2995C22.2626 31.9172 23.0263 32.2889 23.4745 31.8586C23.711 31.6312 23.7489 31.2595 23.5689 30.9865Z" fill="#FC6464"/>
</g>
<defs>
<clipPath id="clip0">
<rect width="46" height="46" fill="white" transform="matrix(-1 0 0 1 46 0)"/>
</clipPath>
</defs>
</svg>
