<svg width="55" height="48" viewBox="0 0 55 48" fill="none" xmlns="http://www.w3.org/2000/svg">
<path d="M41.6233 4.97656H11.341C10.9637 4.97656 10.6577 5.28259 10.6577 5.65987C10.6577 6.03714 10.9637 6.34282 11.341 6.34282H41.6233C43.2833 6.34282 44.6337 7.69328 44.6337 9.35294V33.6637C44.6337 35.3237 43.2833 36.6739 41.6233 36.6739H4.37637C2.71672 36.6739 1.36626 35.3237 1.36626 33.6637V9.35294C1.36626 7.69328 2.71672 6.34282 4.37637 6.34282H8.60815C8.98543 6.34282 9.29146 6.03714 9.29146 5.65987C9.29146 5.28259 8.98543 4.97656 8.60815 4.97656H4.37637C1.96323 4.97656 0 6.93979 0 9.35294V33.6637C0 36.0769 1.96323 38.0401 4.37637 38.0401H15.3619L14.0237 42.4126H11.5151C10.2341 42.4126 9.19249 43.4546 9.19249 44.7352C9.19249 46.0162 10.2341 47.0578 11.5151 47.0578H34.4849C35.7655 47.0578 36.8075 46.0162 36.8075 44.7352C36.8075 43.4546 35.7655 42.4126 34.4849 42.4126H31.9763L30.6381 38.0401H41.6233C44.0368 38.0401 46 36.0769 46 33.6637V9.35294C46 6.93979 44.0368 4.97656 41.6233 4.97656ZM35.4413 44.7356C35.4413 45.2627 35.012 45.6919 34.4849 45.6919H11.5151C10.9876 45.6919 10.5587 45.2627 10.5587 44.7356C10.5587 44.2081 10.9876 43.7792 11.5151 43.7792H34.4849C35.012 43.7792 35.4413 44.2081 35.4413 44.7356ZM30.5472 42.4126H15.4528L16.7906 38.0405H29.2094L30.5472 42.4126Z" fill="#FC6464"/>
<path d="M41.6721 27.2155C42.0497 27.2155 42.3554 26.9095 42.3554 26.5322V9.35312C42.3554 8.94847 42.0266 8.61963 41.6219 8.61963H4.37466C3.97107 8.61963 3.64258 8.94847 3.64258 9.35312V31.6189C3.64258 31.9962 3.94826 32.3019 4.32553 32.3019H41.6721C42.0497 32.3019 42.3554 31.9962 42.3554 31.6189V29.2651C42.3554 28.8878 42.0497 28.5821 41.6721 28.5821C41.2948 28.5821 40.9892 28.8878 40.9892 29.2651V30.9356H5.00883V9.98589H40.9892V26.5322C40.9892 26.9098 41.2948 27.2155 41.6721 27.2155Z" fill="#FC6464"/>
<path d="M23.5689 33.9865C23.4194 33.7591 23.1337 33.6426 22.8673 33.6959C22.576 33.7542 22.3497 34.0033 22.3216 34.2995C22.2626 34.9172 23.0263 35.2889 23.4745 34.8586C23.711 34.6312 23.7489 34.2595 23.5689 33.9865Z" fill="#FC6464"/>
<path d="M46.4434 20.5806L53.6491 28.0003" stroke="#FC6464" stroke-width="2" stroke-linecap="round"/>
<path fill-rule="evenodd" clip-rule="evenodd" d="M49.9899 11.8663C49.9899 17.8679 45.067 22.7327 38.9946 22.7327C32.9222 22.7327 28 17.8679 28 11.8663C28 5.86481 32.9222 1 38.9946 1C45.067 1 49.9899 5.86481 49.9899 11.8663Z" fill="#F9FAFC" stroke="#FC6464" stroke-width="2" stroke-linecap="round"/>
</svg>
