<svg width="775" height="447" viewBox="0 0 775 447" fill="none" xmlns="http://www.w3.org/2000/svg">
<g clip-path="url(#clip0)">
<path opacity="0.1" d="M192.321 292.746C145.463 276.544 91.8877 262.83 48.1092 286.112C42.5607 289.063 37.0934 292.778 34.1039 298.306C26.2077 312.85 38.7588 331.71 32.6417 347.082C26.5245 362.455 3.50199 370.194 5.38668 386.615C5.88223 390.908 8.2056 394.793 10.9433 398.143C28.0924 419.108 59.5311 421.23 86.1037 416.027C112.676 410.824 138.664 400.037 165.716 401.394C191.712 402.736 215.628 415.214 239.446 425.717C279.602 443.472 326.5 456.211 366.623 438.367C385.007 430.189 400.206 416.263 417.802 406.54C441.515 393.558 468.772 388.553 495.546 392.265C513.418 394.785 530.478 401.126 547.968 405.5C587.693 415.426 629.156 415.1 670.091 414.71C677.711 414.637 685.453 414.548 692.756 412.369C703.569 409.117 712.489 401.63 721.076 394.306C732.359 384.689 744.244 374.12 747.884 359.74C752.181 342.668 743.286 324.523 730.093 312.923C716.9 301.322 700.035 294.981 683.577 288.868C679.515 287.372 675.177 285.852 671.017 286.982C668.288 287.73 665.989 289.551 663.95 291.51C652.268 302.761 642.398 321.792 626.467 318.735C620.781 317.646 616.126 313.687 611.625 310.029C587.595 290.518 555.271 275.455 526.27 286.234C505.059 294.12 490.087 314.37 468.591 321.515C453.303 326.604 436.69 324.401 420.605 325.393C397.208 326.824 374.438 335.1 351.009 334.596C291.267 333.311 241.494 276.146 181.996 281.592C177.333 282.015 172.247 283.088 169.388 286.779" fill="#FC6464"/>
<path d="M116.981 238.369C116.981 238.369 67.3375 268.358 158.883 314.549C158.883 314.549 179.054 277.072 156.755 246.514C152.428 240.56 146.068 236.401 138.882 234.825C131.695 233.249 124.18 234.365 117.761 237.962L116.981 238.369Z" fill="#FC6464"/>
<path d="M117.574 237.743C117.574 237.743 160.077 270.26 158.891 314.524" stroke="#535461" stroke-miterlimit="10"/>
<path d="M745.064 213.387C755.122 250.189 712.22 355.033 712.22 355.033C712.22 355.033 621.95 286.641 611.885 249.839C609.252 241.015 608.408 231.754 609.403 222.599C610.397 213.445 613.211 204.581 617.677 196.53C622.144 188.479 628.173 181.402 635.412 175.716C642.65 170.03 650.951 165.849 659.827 163.419C668.703 160.989 677.975 160.359 687.098 161.565C696.221 162.772 705.011 165.791 712.951 170.446C720.891 175.1 727.822 181.296 733.335 188.669C738.848 196.042 742.834 204.443 745.056 213.379L745.064 213.387Z" fill="#FC6464"/>
<path opacity="0.1" d="M745.064 213.387C755.122 250.189 712.22 355.033 712.22 355.033C712.22 355.033 621.95 286.641 611.885 249.839C609.252 241.015 608.408 231.754 609.403 222.599C610.397 213.445 613.211 204.581 617.677 196.53C622.144 188.479 628.173 181.402 635.412 175.716C642.65 170.03 650.951 165.849 659.827 163.419C668.703 160.989 677.975 160.359 687.098 161.565C696.221 162.772 705.011 165.791 712.951 170.446C720.891 175.1 727.822 181.296 733.335 188.669C738.848 196.042 742.834 204.443 745.056 213.379L745.064 213.387Z" fill="black"/>
<path d="M660.627 165.188C660.627 165.188 716.819 250.075 712.619 355.236" stroke="#535461" stroke-miterlimit="10"/>
<path d="M759.402 280.649C759.402 280.649 708.45 252.912 714.9 355.301C714.9 355.301 757.404 353.781 772.489 319.085C775.439 312.337 775.812 304.74 773.538 297.736C771.263 290.731 766.499 284.804 760.149 281.08L759.402 280.649Z" fill="#FC6464"/>
<path d="M760.239 280.828C760.239 280.828 753.659 333.978 714.9 355.301" stroke="#535461" stroke-miterlimit="10"/>
<path d="M13.4521 269.236C13.4521 269.236 -36.2161 299.217 55.3379 345.383C55.3379 345.383 75.509 307.907 53.2095 277.349C48.882 271.395 42.5227 267.236 35.3362 265.66C28.1496 264.083 20.635 265.2 14.2158 268.797L13.4521 269.236Z" fill="#FC6464"/>
<path d="M14.0215 268.61C14.0215 268.61 56.5246 301.127 55.3386 345.391" stroke="#535461" stroke-miterlimit="10"/>
<path d="M633.184 308.265H580.989C582.19 305.847 582.813 303.184 582.809 300.485V62.6527C582.809 58.0151 580.968 53.5674 577.691 50.2881C574.414 47.0088 569.969 45.1665 565.335 45.1665H161.319C156.685 45.1665 152.24 47.0088 148.963 50.2881C145.686 53.5674 143.845 58.0151 143.845 62.6527V300.493C143.841 303.192 144.464 305.856 145.665 308.273H91.6263C91.0173 308.273 90.4142 308.393 89.8518 308.627C89.2894 308.861 88.7787 309.204 88.3492 309.636C87.9196 310.068 87.5797 310.581 87.3488 311.145C87.118 311.709 87.0008 312.313 87.004 312.923V316.654C87.004 323.515 89.7274 330.094 94.5751 334.945C99.4229 339.796 105.998 342.522 112.854 342.522H611.957C618.813 342.522 625.388 339.796 630.235 334.945C635.083 330.094 637.806 323.515 637.806 316.654V312.923C637.811 312.312 637.694 311.707 637.464 311.142C637.234 310.578 636.894 310.064 636.464 309.631C636.034 309.198 635.523 308.854 634.961 308.62C634.398 308.385 633.794 308.265 633.184 308.265ZM311.575 323.06L307.075 317.979H418.191L413.235 323.068L311.575 323.06Z" fill="url(#paint0_linear)"/>
<path d="M558.926 48.5322H167.689C157.253 48.5322 148.793 56.998 148.793 67.4411V296.258C148.793 306.701 157.253 315.167 167.689 315.167H558.926C569.361 315.167 577.821 306.701 577.821 296.258V67.4411C577.821 56.998 569.361 48.5322 558.926 48.5322Z" fill="#3A3768"/>
<path d="M567.888 87.3987H157.828V305.224H567.888V87.3987Z" fill="white"/>
<path d="M362.861 72.0342C364.858 72.0342 366.476 70.4146 366.476 68.4166C366.476 66.4187 364.858 64.7991 362.861 64.7991C360.865 64.7991 359.246 66.4187 359.246 68.4166C359.246 70.4146 360.865 72.0342 362.861 72.0342Z" fill="white"/>
<path d="M426.169 305.671L412.083 320.133H312.762L300.033 305.671H97.7609C96.563 305.671 95.4141 306.148 94.5671 306.995C93.72 307.843 93.2441 308.993 93.2441 310.191V313.833C93.2441 320.538 95.9059 326.969 100.644 331.71C105.382 336.452 111.808 339.115 118.509 339.115H606.304C609.622 339.115 612.907 338.462 615.972 337.191C619.037 335.92 621.823 334.058 624.169 331.71C626.515 329.363 628.376 326.576 629.645 323.508C630.915 320.441 631.569 317.153 631.569 313.833V310.191C631.569 308.993 631.093 307.843 630.246 306.995C629.398 306.148 628.25 305.671 627.052 305.671H426.169Z" fill="#DFEAFF"/>
<path d="M210.217 100.958V286.242H516.399" stroke="#535461" stroke-width="2" stroke-miterlimit="10"/>
<path opacity="0.5" d="M268.918 230.207H237.309V279.015H268.918V230.207Z" fill="#FC6464"/>
<path opacity="0.7" d="M323.111 186.82H291.502V279.015H323.111V186.82Z" fill="#FC6464"/>
<path opacity="0.5" d="M377.305 213.03H345.695V279.007H377.305V213.03Z" fill="#FC6464"/>
<path opacity="0.8" d="M431.498 172.358H399.889V279.015H431.498V172.358Z" fill="#FC6464"/>
<path d="M485.691 134.394H454.082V279.007H485.691V134.394Z" fill="#FC6464"/>
<path d="M252.662 200.38L307.757 150.669L361.95 197.665L415.241 140.727L469.435 118.127" stroke="#535461" stroke-width="2" stroke-miterlimit="10"/>
<path d="M252.662 206.705C256.153 206.705 258.982 203.873 258.982 200.38C258.982 196.887 256.153 194.055 252.662 194.055C249.171 194.055 246.342 196.887 246.342 200.38C246.342 203.873 249.171 206.705 252.662 206.705Z" fill="#FC6464"/>
<path d="M361.049 203.087C364.539 203.087 367.369 200.256 367.369 196.763C367.369 193.27 364.539 190.438 361.049 190.438C357.558 190.438 354.729 193.27 354.729 196.763C354.729 200.256 357.558 203.087 361.049 203.087Z" fill="#FC6464"/>
<path d="M416.144 147.052C419.635 147.052 422.465 144.22 422.465 140.727C422.465 137.234 419.635 134.402 416.144 134.402C412.654 134.402 409.824 137.234 409.824 140.727C409.824 144.22 412.654 147.052 416.144 147.052Z" fill="#FC6464"/>
<path d="M307.758 156.083C311.248 156.083 314.078 153.252 314.078 149.759C314.078 146.266 311.248 143.434 307.758 143.434C304.267 143.434 301.438 146.266 301.438 149.759C301.438 153.252 304.267 156.083 307.758 156.083Z" fill="#FC6464"/>
<path d="M469.435 124.452C472.926 124.452 475.756 121.621 475.756 118.128C475.756 114.635 472.926 111.803 469.435 111.803C465.945 111.803 463.115 114.635 463.115 118.128C463.115 121.621 465.945 124.452 469.435 124.452Z" fill="#FC6464"/>
<path d="M704.576 313.589C701.245 312.492 696.306 311.224 692.391 311.671C688.662 310.313 679.896 306.793 673.909 301.493C674.082 296.281 673.949 291.064 673.511 285.868C670.449 251.018 677.337 228.044 677.337 228.044C677.337 228.044 682.748 210.518 682.155 195.974C682.504 196.633 682.699 197.023 682.699 197.023C683.17 184.479 687.443 171.497 690.644 163.408C690.766 163.373 690.886 163.33 691.001 163.278L694.576 154.791C694.861 154.296 695.087 153.769 695.25 153.222L695.827 151.881L695.656 151.807C695.713 151.588 695.77 151.352 695.827 151.116C698.11 141.451 699.889 118.526 699.889 118.526C706.014 94.398 691.473 79.505 691.473 79.505L666.793 58.2549C666.916 58.5315 666.998 58.8245 667.037 59.1248L666.833 58.9459C666.484 57.946 666.102 56.751 665.729 55.3853C666.599 54.7598 667.415 54.0608 668.166 53.296C670.972 50.6441 672.902 47.1981 673.698 43.4189C674.177 40.4634 674.299 37.4613 674.064 34.4766L673.657 24.2255C673.639 22.2192 673.435 20.219 673.048 18.2504C671.188 10.1211 662.861 4.43054 654.502 4.05659C651.842 4.04109 649.184 4.18225 646.541 4.47932C644.379 4.65701 642.209 4.70316 640.042 4.61751C639.795 4.6306 639.55 4.56515 639.343 4.43054C639.155 4.24277 639.047 3.98914 639.042 3.72328C639 3.2475 639.054 2.76801 639.202 2.31386C639.35 1.85971 639.589 1.44036 639.904 1.08125C640.23 0.794253 640.612 0.575871 641.025 0.439033L640.432 0.57723C640.724 0.346514 641.054 0.167782 641.406 0.0488281C639.24 0.430077 637.156 1.1866 635.249 2.2844C634.723 2.62986 634.241 3.03645 633.811 3.49566C632.675 4.49308 631.936 5.86698 631.731 7.36524C630.713 6.5053 629.954 5.37963 629.538 4.1135C629.408 3.59577 629.408 3.05414 629.538 2.5364C629.391 2.71525 629.251 2.89951 629.115 3.08919C629.115 3.03229 629.115 2.97539 629.115 2.91848C627.545 4.84956 626.434 7.11223 625.866 9.53577C625.647 9.27333 625.483 8.97 625.382 8.64342C625.282 8.31685 625.247 7.97355 625.281 7.63351C625.159 8.01558 625.045 8.39765 624.94 8.77973C624.903 8.52635 624.903 8.26896 624.94 8.01557C623.983 10.9463 623.551 14.0231 623.664 17.1042C623.664 20.1771 625.029 24.9653 628.319 26.0465C628.49 26.1034 628.66 26.144 628.839 26.1847C626.989 29.061 625.881 32.3518 625.614 35.7621C625.347 39.1724 625.931 42.5956 627.311 45.7249C628.692 48.8541 630.827 51.5916 633.525 53.6919C636.224 55.7922 639.4 57.1897 642.771 57.759C642.825 58.133 642.877 58.5259 642.925 58.9378H643.055C643.145 59.7507 643.218 60.6449 643.267 61.5554C642.436 62.3695 641.527 63.0993 640.553 63.7341C637.791 65.368 634.711 66.3882 631.52 66.7257C627.71 67.0248 624.007 68.1334 620.658 69.9774C616.718 72.1805 612.372 75.3916 611.008 79.2936C608.733 85.7971 596.206 95.9181 587.806 97.1782L584.817 97.0075L584.597 96.9425V96.9994L583.866 96.9587H583.826H583.631V96.9994L582.875 96.9587C582.875 96.9587 582.802 97.3083 582.696 97.9261C578.472 96.4709 569.495 92.4388 557.814 81.83C544.816 70.0181 527.228 72.3431 520.445 73.8307C520.214 73.8817 520.004 74.0018 519.843 74.1752C519.683 74.3485 519.579 74.5668 519.545 74.8009C519.511 75.035 519.55 75.2738 519.656 75.4853C519.761 75.6969 519.929 75.8712 520.136 75.985C522.874 77.4889 527.114 79.6757 529.072 79.9196C529.072 79.9196 525.01 84.1713 529.332 86.4231C529.85 86.674 530.428 86.7771 531.001 86.7211C531.574 86.6652 532.121 86.4524 532.581 86.106C534.677 84.5696 540.502 88.0489 548.943 89.8618C548.943 89.8618 572.761 114.526 584.589 118.314C584.862 118.853 585.163 119.377 585.491 119.883L586.222 119.827V119.883H586.531L586.62 120.696C586.62 120.696 605.012 119.729 610.991 113.047C611.415 112.667 611.803 112.251 612.153 111.803L605.76 192.283H605.816L605.76 193.048H610.463C610.866 202.946 610.439 212.86 609.188 222.687V275.154C609.188 275.154 608.944 279.771 618.53 286.535C628.581 293.537 638.266 301.05 647.548 309.045L648.71 310.053C646.947 326.109 643.259 356.033 640.18 357.146L642.081 357.48C638.831 361.601 629.603 372.925 626.792 373.226C623.347 373.608 621.048 378.974 626.792 380.12C638.26 382.106 650.052 380.943 660.911 376.754C661.994 376.327 662.903 375.548 663.492 374.543C664.081 373.538 664.317 372.365 664.161 371.21L663.048 362.756C663.259 362.873 663.429 363.052 663.535 363.268C664.299 365.568 663.535 360.203 663.535 360.203C666.682 350.081 669.155 339.761 670.936 329.312L682.309 339.148C682.309 339.148 682.537 338.864 682.935 338.335C685.721 344.66 690.693 357.602 689.58 367.081C688.053 380.087 702.578 368.609 701.059 360.951C699.824 354.756 705.348 328.499 707.501 318.678C707.733 317.618 707.562 316.509 707.021 315.569C706.48 314.628 705.609 313.922 704.576 313.589Z" fill="url(#paint1_linear)"/>
<path d="M585.719 101.145C585.719 101.145 574.882 99.2755 558.813 84.6914C546.1 73.1559 528.951 75.424 522.338 76.8791C522.113 76.9279 521.908 77.0445 521.75 77.2132C521.593 77.382 521.491 77.5948 521.459 77.8232C521.426 78.0516 521.464 78.2845 521.567 78.4907C521.671 78.6968 521.835 78.8664 522.037 78.9765C524.71 80.4398 528.853 82.5778 530.795 82.8217C530.795 82.8217 526.79 86.9676 531.047 89.187C531.556 89.4375 532.125 89.5412 532.691 89.4867C533.256 89.4321 533.795 89.2214 534.247 88.878C536.294 87.3822 541.981 90.7803 550.227 92.5444C550.227 92.5444 582.364 125.826 589.838 120.184L585.719 101.145Z" fill="#FEC3BE"/>
<path d="M641.049 55.8975C641.049 55.8975 644.038 68.6118 641.049 77.5866L654.502 79.4563L666.46 73.4731V65.6201C666.46 65.6201 660.854 53.6538 662.349 39.8176L641.049 55.8975Z" fill="#FEC3BE"/>
<path d="M679.141 331.482C679.141 331.482 688.889 350.554 687.362 363.268C685.835 375.982 700.067 364.764 698.572 357.285C697.362 351.236 702.756 325.58 704.86 316.036C705.088 315.005 704.925 313.926 704.403 313.008C703.88 312.09 703.036 311.399 702.033 311.069C697.541 309.59 690.018 307.777 686.241 310.549C680.66 314.654 679.141 331.482 679.141 331.482Z" fill="#8B416F"/>
<path d="M642.17 352.423C642.17 352.423 629.465 368.877 626.102 369.251C622.739 369.625 620.496 374.86 626.102 375.982C637.294 377.931 648.804 376.807 659.409 372.73C660.47 372.316 661.362 371.557 661.94 370.575C662.519 369.594 662.752 368.446 662.601 367.316L660.457 351.301L642.17 352.423Z" fill="#8B416F"/>
<path d="M621.242 177.797L609.057 179.423C610.729 193.665 610.68 208.058 608.911 222.289V273.504C608.911 273.504 608.675 278.015 618.034 284.576C627.847 291.403 637.305 298.729 646.369 306.525L680.277 335.921C680.277 335.921 693.73 319.467 691.862 309.744C691.862 309.744 669.44 302.639 666.451 291.047C664.737 284.413 656.044 278.853 648.928 275.357C644.454 273.183 640.859 269.543 638.738 265.042C636.618 260.54 636.1 255.448 637.271 250.611C637.686 248.931 638.328 247.314 639.18 245.807C645.159 235.336 653.753 211.778 653.753 211.778L637.311 180.415L621.242 177.797Z" fill="#4D4981"/>
<path opacity="0.05" d="M621.242 177.797L609.057 179.423C610.729 193.665 610.68 208.058 608.911 222.289V273.504C608.911 273.504 608.675 278.015 618.034 284.576C627.847 291.403 637.305 298.729 646.369 306.525L680.277 335.921C680.277 335.921 693.73 319.467 691.862 309.744C691.862 309.744 669.44 302.639 666.451 291.047C664.737 284.413 656.044 278.853 648.928 275.357C644.454 273.183 640.859 269.543 638.738 265.042C636.618 260.54 636.1 255.448 637.271 250.611C637.686 248.931 638.328 247.314 639.18 245.807C645.159 235.336 653.753 211.778 653.753 211.778L637.311 180.415L621.242 177.797Z" fill="black"/>
<path d="M639.179 353.569C639.179 353.569 661.227 357.309 661.975 359.553C662.722 361.796 661.975 356.561 661.975 356.561C661.975 356.561 674.68 318.044 671.723 284.023C668.766 250.002 675.46 227.557 675.46 227.557C675.46 227.557 683.307 202.128 678.823 187.544C674.339 172.96 627.254 179.317 627.254 179.317C627.254 179.317 643.696 217.834 643.323 236.157C643.323 236.157 645.191 291.502 648.554 297.859C648.522 297.827 643.29 352.049 639.179 353.569Z" fill="#4D4981"/>
<path d="M641.771 65.6201C641.771 65.6201 644.013 79.44 666.435 73.4731L651.52 187.146C651.52 187.146 608.172 188.641 608.545 183.406L617.481 114.608L641.771 65.6201Z" fill="#CEDDF9"/>
<path opacity="0.1" d="M642.357 64.8721C639.438 67.7485 635.634 69.5557 631.561 70.0017C627.841 70.287 624.224 71.3623 620.952 73.1559C617.109 75.3101 612.828 78.4399 611.528 82.2526C608.912 89.7316 592.47 102.072 584.996 99.4543L587.612 121.891C587.612 121.891 608.912 120.769 612.649 112.543L606.305 192.608H611.91C611.91 192.608 614.899 170.919 617.142 166.432C619.384 161.945 623.868 137.264 624.242 131.281C624.615 125.297 630.221 90.8941 635.079 84.9434L642.39 67.1808L642.357 64.8721Z" fill="black"/>
<path opacity="0.1" d="M642.356 65.9939C639.017 68.608 635.024 70.2532 630.813 70.7496C627.094 71.041 623.48 72.1218 620.211 73.92C616.369 76.0743 612.088 79.2041 610.788 83.0167C608.172 90.4957 591.73 102.836 584.256 100.218L586.872 122.655C586.872 122.655 608.172 121.534 611.909 113.307L605.556 193.324H611.162C611.162 193.324 614.151 171.635 616.393 167.147C618.635 162.66 623.12 137.979 623.493 131.996C623.867 126.013 629.472 91.6095 634.33 85.6588L642.356 68.2295V65.9939Z" fill="black"/>
<path d="M642.357 65.2461C639.017 67.8602 635.024 69.5053 630.813 70.0018C627.093 70.2871 623.476 71.3623 620.203 73.1559C616.361 75.3102 612.08 78.44 610.78 82.2527C608.164 89.7317 591.722 102.072 584.248 99.4544L586.864 121.891C586.864 121.891 608.164 120.77 611.901 112.543L605.556 192.608H611.162C611.162 192.608 614.151 170.919 616.393 166.432C618.636 161.945 623.12 137.264 623.494 131.281C623.867 125.298 629.473 90.8942 634.331 84.9435L642.365 67.5548L642.357 65.2461Z" fill="white"/>
<path opacity="0.1" d="M661.415 50.8491C660.928 47.3047 661.902 45.0935 662.349 40.9395L641.049 57.0193C641.049 57.0193 641.561 59.1898 641.951 62.3684C643.025 62.5421 644.112 62.6291 645.2 62.6285C652.593 62.6285 657.914 56.8486 661.415 50.8491Z" fill="black"/>
<path d="M645.16 61.5147C656.304 61.5147 665.339 52.4739 665.339 41.3215C665.339 30.169 656.304 21.1282 645.16 21.1282C634.015 21.1282 624.98 30.169 624.98 41.3215C624.98 52.4739 634.015 61.5147 645.16 61.5147Z" fill="#FEC3BE"/>
<path opacity="0.1" d="M623.136 21.5264C623.006 18.121 623.559 14.7241 624.76 11.5354C624.427 12.0371 624.285 12.6428 624.363 13.2405C624.441 13.8382 624.732 14.3876 625.183 14.7872C625.833 11.312 627.616 8.15028 630.252 5.79613C628.814 6.03188 628.075 7.81221 628.432 9.22671C628.918 10.6083 629.782 11.8253 630.926 12.7386C630.804 10.6006 632.218 8.60076 634.005 7.43014C635.867 6.35979 637.902 5.62252 640.017 5.25146C639.291 5.50909 638.672 5.99971 638.254 6.64676C637.837 7.29381 637.645 8.06091 637.71 8.82837C637.716 9.08912 637.824 9.33708 638.01 9.51937C638.213 9.64933 638.452 9.71192 638.693 9.69822C640.797 9.77939 642.905 9.73325 645.005 9.56002C647.586 9.26932 650.182 9.13088 652.779 9.14543C660.903 9.48686 669.067 15.0392 670.887 22.9653C671.264 24.8885 671.462 26.8424 671.48 28.8022L671.878 38.8094C672.109 41.7289 671.989 44.6657 671.52 47.5566C670.958 50.2254 669.813 52.737 668.169 54.9123C666.525 57.0876 664.421 58.8729 662.007 60.1408C659.075 55.8891 658.815 50.4262 657.799 45.3616C657.639 44.1929 657.205 43.0786 656.532 42.1099C656.185 41.6309 655.697 41.2719 655.137 41.0825C654.576 40.8932 653.971 40.8829 653.405 41.0531C652.308 41.4921 651.837 43.1667 652.747 43.9146C651.934 44.8739 650.415 44.1585 649.497 43.3049C646.933 40.8713 645.169 37.7162 644.436 34.257C644.07 32.5173 643.705 30.3711 641.999 29.7777C641.412 29.6163 640.799 29.5748 640.195 29.6558C636.637 29.8996 631.073 31.371 627.628 30.2411C624.468 29.2086 623.136 24.5261 623.136 21.5264Z" fill="black"/>
<path d="M623.509 21.1526C623.379 17.7472 623.932 14.3503 625.133 11.1617C624.8 11.6633 624.658 12.269 624.736 12.8667C624.814 13.4644 625.105 14.0138 625.556 14.4134C626.206 10.9382 627.989 7.7765 630.625 5.42235C629.187 5.6581 628.448 7.43843 628.805 8.85293C629.291 10.2345 630.155 11.4515 631.299 12.3648C631.177 10.2268 632.591 8.22697 634.378 7.05634C636.24 5.986 638.275 5.24874 640.39 4.87769C639.664 5.13531 639.045 5.62593 638.627 6.27298C638.21 6.92004 638.019 7.68713 638.083 8.45459C638.089 8.71534 638.197 8.9633 638.383 9.14559C638.586 9.27556 638.825 9.33813 639.066 9.32442C641.17 9.4056 643.278 9.35945 645.378 9.18623C647.959 8.89553 650.555 8.75709 653.152 8.77164C661.276 9.11307 669.44 14.6654 671.26 22.5915C671.637 24.5147 671.835 26.4686 671.853 28.4284L672.251 38.4356C672.482 41.3551 672.362 44.2919 671.893 47.1828C671.331 49.8516 670.186 52.3632 668.542 54.5385C666.898 56.7138 664.794 58.4991 662.381 59.767C659.448 55.5154 659.188 50.0524 658.172 44.9879C658.012 43.8191 657.578 42.7048 656.905 41.7361C656.558 41.2571 656.07 40.8981 655.51 40.7087C654.949 40.5194 654.344 40.5091 653.778 40.6793C652.681 41.1183 652.21 42.7929 653.119 43.5408C652.307 44.5001 650.788 43.7847 649.87 42.9311C647.306 40.4975 645.542 37.3424 644.809 33.8832C644.443 32.1435 644.078 29.9974 642.372 29.4039C641.785 29.2425 641.172 29.201 640.568 29.282C637.01 29.5258 631.446 30.9973 628.001 29.8673C624.841 28.8267 623.509 24.1523 623.509 21.1526Z" fill="#784F69"/>
<path opacity="0.1" d="M583.281 99.4624C583.281 99.4624 580.291 113.282 585.897 121.899L589.073 121.639L587.343 99.69L583.281 99.4624Z" fill="black"/>
<path d="M584.093 99.4624C584.093 99.4624 581.104 113.282 586.709 121.899L589.885 121.639L588.155 99.69L584.093 99.4624Z" fill="#FD6F8D"/>
<path opacity="0.1" d="M664.403 61.7261L688.506 82.4803C688.506 82.4803 702.707 97.0643 696.728 120.623C696.728 120.623 694.112 155.027 691.122 156.522C691.122 156.522 680.659 177.464 679.912 197.283C679.912 197.283 665.898 169.05 659.545 186.251C653.193 203.453 638.424 205.884 638.424 205.884L646.645 104.137C646.645 104.137 667.393 68.0507 664.403 61.7261Z" fill="black"/>
<path d="M665.151 61.7261L689.254 82.4803C689.254 82.4803 703.455 97.0643 697.476 120.623C697.476 120.623 694.86 155.027 691.87 156.522C691.87 156.522 681.407 177.464 680.66 197.283C680.66 197.283 665.899 167.554 659.538 184.756C653.177 201.957 639.172 205.892 639.172 205.892L647.393 104.186C647.393 104.186 668.141 68.0507 665.151 61.7261Z" fill="white"/>
<path d="M676.175 149.385C676.175 149.385 682.154 145.271 691.87 156.49L667.954 199.868L659.92 187.731C659.92 187.731 676.923 154.246 676.175 149.385Z" fill="#FEC3BE"/>
<path opacity="0.1" d="M670.383 151.815C670.383 151.815 683.608 166.676 688.767 164.294L693.543 153.165L675.614 145.458L670.383 151.815Z" fill="black"/>
<path d="M670.383 151.068C670.383 151.068 683.608 165.928 688.767 163.546L693.543 152.417L675.614 144.71L670.383 151.068Z" fill="#FD6F8D"/>
<path opacity="0.1" d="M660.732 184.894C660.732 184.894 667.027 197.803 670.383 198.551L665.508 204.16L658.408 190.698L660.732 184.894Z" fill="black"/>
<path d="M660.359 185.292C660.359 185.292 666.655 198.201 670.01 198.949L665.136 204.559L658.02 191.072L660.359 185.292Z" fill="#4D4981"/>
<path opacity="0.1" d="M672.252 105.446C672.252 105.446 672.999 132.37 670.01 142.467L672.252 105.446Z" fill="black"/>
<path opacity="0.1" d="M611.715 110.681C611.715 110.681 616.199 109.185 616.199 105.446L611.715 110.681Z" fill="black"/>
<path d="M67.1745 115.185C67.1745 115.185 45.8742 159.278 59.8632 211.46C73.8522 263.643 69.4086 326.084 55.4602 341.53" stroke="#535461" stroke-width="2" stroke-miterlimit="10"/>
<path d="M67.1742 121.07C70.418 121.07 73.0476 118.439 73.0476 115.193C73.0476 111.947 70.418 109.315 67.1742 109.315C63.9304 109.315 61.3008 111.947 61.3008 115.193C61.3008 118.439 63.9304 121.07 67.1742 121.07Z" fill="#FC6464"/>
<path d="M58.3203 143.548C58.3203 143.548 80.4005 147.531 86.2739 139.483" stroke="#535461" stroke-width="2" stroke-miterlimit="10"/>
<path d="M56.2248 156.352C56.2248 156.352 42.9425 141.646 43.6736 132.825" stroke="#535461" stroke-width="2" stroke-miterlimit="10"/>
<path d="M55.0957 183.292C55.0957 183.292 67.1756 186.479 78.1995 162.969" stroke="#535461" stroke-width="2" stroke-miterlimit="10"/>
<path d="M58.3207 202.884C58.3207 202.884 28.2631 183.528 31.9268 171.041" stroke="#535461" stroke-width="2" stroke-miterlimit="10"/>
<path d="M63.0156 225.037C63.0156 225.037 84.0722 206.339 81.8707 187.942" stroke="#535461" stroke-width="2" stroke-miterlimit="10"/>
<path d="M65.3069 238.06C65.3069 238.06 38.4987 230.564 39.3111 218.809" stroke="#535461" stroke-width="2" stroke-miterlimit="10"/>
<path d="M67.1758 253.578C67.1758 253.578 84.0649 237.921 86.2664 228.377" stroke="#535461" stroke-width="2" stroke-miterlimit="10"/>
<path d="M68.3522 280.202C68.3522 280.202 51.0244 259.96 50.2852 249.677" stroke="#535461" stroke-width="2" stroke-miterlimit="10"/>
<path d="M68.3535 296.957C68.3535 296.957 87.7448 275.398 89.207 265.114" stroke="#535461" stroke-width="2" stroke-miterlimit="10"/>
<path d="M43.6723 140.174C46.9161 140.174 49.5457 137.543 49.5457 134.297C49.5457 131.051 46.9161 128.419 43.6723 128.419C40.4285 128.419 37.7988 131.051 37.7988 134.297C37.7988 137.543 40.4285 140.174 43.6723 140.174Z" fill="#FC6464"/>
<path d="M37.0687 224.687C40.3125 224.687 42.9422 222.055 42.9422 218.809C42.9422 215.563 40.3125 212.932 37.0687 212.932C33.8249 212.932 31.1953 215.563 31.1953 218.809C31.1953 222.055 33.8249 224.687 37.0687 224.687Z" fill="#FC6464"/>
<path d="M31.9262 176.919C35.17 176.919 37.7996 174.287 37.7996 171.041C37.7996 167.795 35.17 165.164 31.9262 165.164C28.6824 165.164 26.0527 167.795 26.0527 171.041C26.0527 174.287 28.6824 176.919 31.9262 176.919Z" fill="#FC6464"/>
<path d="M86.2738 145.32C89.5176 145.32 92.1472 142.689 92.1472 139.443C92.1472 136.197 89.5176 133.565 86.2738 133.565C83.03 133.565 80.4004 136.197 80.4004 139.443C80.4004 142.689 83.03 145.32 86.2738 145.32Z" fill="#FC6464"/>
<path d="M86.2738 235.71C89.5176 235.71 92.1472 233.079 92.1472 229.833C92.1472 226.587 89.5176 223.955 86.2738 223.955C83.03 223.955 80.4004 226.587 80.4004 229.833C80.4004 233.079 83.03 235.71 86.2738 235.71Z" fill="#FC6464"/>
<path d="M76.7289 168.838C79.9727 168.838 82.6023 166.207 82.6023 162.961C82.6023 159.715 79.9727 157.083 76.7289 157.083C73.4851 157.083 70.8555 159.715 70.8555 162.961C70.8555 166.207 73.4851 168.838 76.7289 168.838Z" fill="#FC6464"/>
<path d="M88.475 274.666C91.7188 274.666 94.3484 272.035 94.3484 268.789C94.3484 265.543 91.7188 262.911 88.475 262.911C85.2312 262.911 82.6016 265.543 82.6016 268.789C82.6016 272.035 85.2312 274.666 88.475 274.666Z" fill="#FC6464"/>
<path d="M48.8148 259.228C52.0586 259.228 54.6883 256.597 54.6883 253.351C54.6883 250.105 52.0586 247.473 48.8148 247.473C45.571 247.473 42.9414 250.105 42.9414 253.351C42.9414 256.597 45.571 259.228 48.8148 259.228Z" fill="#FC6464"/>
<path d="M82.6019 193.82C85.8457 193.82 88.4754 191.188 88.4754 187.942C88.4754 184.696 85.8457 182.065 82.6019 182.065C79.3581 182.065 76.7285 184.696 76.7285 187.942C76.7285 191.188 79.3581 193.82 82.6019 193.82Z" fill="#FC6464"/>
</g>
<defs>
<linearGradient id="paint0_linear" x1="362.405" y1="342.489" x2="362.405" y2="45.1584" gradientUnits="userSpaceOnUse">
<stop stop-color="#808080" stop-opacity="0.25"/>
<stop offset="0.54" stop-color="#808080" stop-opacity="0.12"/>
<stop offset="1" stop-color="#808080" stop-opacity="0.1"/>
</linearGradient>
<linearGradient id="paint1_linear" x1="165706" y1="245286" x2="165706" y2="66704.3" gradientUnits="userSpaceOnUse">
<stop stop-color="#808080" stop-opacity="0.25"/>
<stop offset="0.54" stop-color="#808080" stop-opacity="0.12"/>
<stop offset="1" stop-color="#808080" stop-opacity="0.1"/>
</linearGradient>
<clipPath id="clip0">
<rect width="775" height="447" fill="white"/>
</clipPath>
</defs>
</svg>
