<svg width="29" height="50" viewBox="0 0 29 50" fill="none" xmlns="http://www.w3.org/2000/svg">
<g clip-path="url(#clip0)">
<path d="M19.3752 5.03064H9.62451V5.88281H19.3752V5.03064Z" fill="white"/>
<path d="M15.7189 43.9324H13.2812V45.6367H15.7189V43.9324Z" fill="white"/>
<path d="M3.69855 49.5142H25.3014C27.3609 49.5142 29 47.8098 29 45.7646C29 40.9072 29 9.12112 29 4.26373C29 2.21851 27.3188 0.51416 25.3014 0.51416H3.69855C1.68116 0.51416 0 2.21851 0 4.26373C0 9.37677 0 40.9072 0 45.7646C0 47.8098 1.68116 49.5142 3.69855 49.5142ZM27.3188 45.7646C27.3188 46.915 26.3942 47.8098 25.3014 47.8098H3.69855C2.56377 47.8098 1.68116 46.8724 1.68116 45.7646C1.68116 39.7568 1.68116 47.2559 1.68116 41.2481H27.3188C27.3188 47.2559 27.3188 39.7568 27.3188 45.7646ZM1.68116 9.63242H27.3188C27.3188 12.5298 27.3188 37.0724 27.3188 39.9698V40.3959H1.68116C1.68116 38.1802 1.68116 14.0637 1.68116 9.63242ZM1.68116 4.26373C1.68116 3.1559 2.6058 2.21851 3.69855 2.21851H25.3014C26.3942 2.21851 27.3188 3.1559 27.3188 4.26373C27.3188 5.88286 27.3188 6.22373 27.3188 8.78025H1.68116C1.68116 6.22373 1.68116 5.92546 1.68116 4.26373Z" fill="white"/>
</g>
<defs>
<clipPath id="clip0">
<rect width="29" height="49" fill="white" transform="translate(0 0.51416)"/>
</clipPath>
</defs>
</svg>
