<svg width="44" height="44" viewBox="0 0 44 44" fill="none" xmlns="http://www.w3.org/2000/svg">
<g clip-path="url(#clip0)">
<path d="M29.4118 35.3405C27.9295 35.3405 26.3693 34.7164 25.2771 33.5462C22.9366 31.2058 22.9366 27.3051 25.2771 24.9646C27.6175 22.6242 31.5182 22.6242 33.8586 24.9646C35.0288 26.1349 35.5749 27.6171 35.6529 29.0994L43.0643 21.6881L35.809 14.4327C37.4473 14.5107 39.0076 13.8866 40.2558 12.6384C42.5962 10.298 42.5962 6.39727 40.2558 4.05685C37.9154 1.71642 34.0146 1.71642 31.6742 4.05685C30.426 5.30507 29.8799 6.94337 29.8799 8.50365L22.3125 0.936279L14.9012 8.34763C16.3834 8.34763 17.8657 8.97174 19.0359 10.142C21.3764 12.4824 21.3764 16.3831 19.0359 18.7235C16.6955 21.0639 12.7948 21.0639 10.4544 18.7235C9.28415 17.5533 8.66004 14.5888 8.66004 14.5888L1.01465 22.2342L8.58202 29.8015C6.94373 29.7235 5.38344 30.3476 4.13522 31.5959C1.79479 33.9363 1.79479 37.837 4.13522 40.1774C6.47564 42.5178 10.3763 42.5178 12.7168 40.1774C13.965 38.9292 14.5111 37.3689 14.5111 35.7306L21.7664 42.9859L29.4118 35.3405Z" stroke="#FC6464" stroke-width="2.5" stroke-miterlimit="10" stroke-linecap="round" stroke-linejoin="round"/>
</g>
<defs>
<clipPath id="clip0">
<rect width="44" height="44" fill="white"/>
</clipPath>
</defs>
</svg>
