<svg width="40" height="40" viewBox="0 0 40 40" fill="none" xmlns="http://www.w3.org/2000/svg">
<rect width="40" height="40" rx="20" fill="white"/>
<path d="M25.9173 15H14.4126C14.2994 15 14.2023 15.0364 14.1214 15.1092C14.0405 15.182 14 15.2832 14 15.4126V16.699C14 16.7637 14.0243 16.7961 14.0728 16.7961L20.1164 20.2427L20.1651 20.2669C20.1973 20.2669 20.2217 20.2588 20.2379 20.2427L26.0874 16.7961C26.1196 16.7799 26.144 16.7718 26.1602 16.7718C26.1762 16.7718 26.2006 16.7637 26.233 16.7476C26.2977 16.7476 26.3301 16.7152 26.3301 16.6505V15.4126C26.3301 15.2832 26.2896 15.182 26.2086 15.1092C26.1276 15.0364 26.0306 15 25.9173 15ZM17.665 20.1698C17.6812 20.1537 17.6893 20.1293 17.6893 20.097C17.6893 20.0484 17.6731 20.0242 17.6407 20.0242L14.1699 18.0339C14.1214 18.0177 14.0809 18.0177 14.0485 18.0339C14.0162 18.0339 14 18.0582 14 18.1067V23.3251C14 23.3738 14.0243 23.406 14.0728 23.4222H14.1214C14.1537 23.4222 14.1699 23.4141 14.1699 23.3979L17.665 20.1698ZM21.8883 20.5582C21.8721 20.5095 21.8315 20.5016 21.7668 20.5339L20.4318 21.3106C20.27 21.4077 20.1003 21.4077 19.9221 21.3106L18.7571 20.6554C18.7086 20.623 18.6681 20.623 18.6357 20.6554L14.1941 24.7816C14.1779 24.7976 14.1698 24.8301 14.1698 24.8785C14.1698 24.8947 14.186 24.919 14.2183 24.9513C14.3154 24.9837 14.3801 25 14.4125 25H25.7959C25.8283 25 25.8607 24.9838 25.893 24.9513C25.893 24.8866 25.8849 24.8463 25.8687 24.83L21.8883 20.5582ZM26.2571 17.9369H26.1602L22.8592 19.9029C22.827 19.9029 22.8107 19.9271 22.8107 19.9757C22.7945 19.9918 22.8026 20.0161 22.8348 20.0484L26.1358 23.6164C26.1681 23.6488 26.1924 23.6651 26.2086 23.6651H26.2571C26.3058 23.6164 26.3301 23.5842 26.3301 23.568V18.034C26.33 18.0016 26.3057 17.9692 26.2571 17.9369Z" fill="#3A3768"/>
</svg>
