<svg width="40" height="40" viewBox="0 0 40 40" fill="none" xmlns="http://www.w3.org/2000/svg">
<rect width="40" height="40" rx="20" fill="#FC6464"/>
<path d="M26.9981 20.8903C26.9881 20.7856 26.9492 20.6849 26.8851 20.5922L24.0222 16.4559C23.9035 16.2843 23.7078 16.1818 23.499 16.1818H21.5905C21.4146 16.1818 21.2724 16.3241 21.2724 16.5V17.1363C21.2724 17.3122 21.4146 17.4545 21.5905 17.4545H23.1654L25.3678 20.6363H23.8172C23.1157 20.6363 22.5448 21.2071 22.5448 21.9091C22.5448 22.2599 22.2596 22.5454 21.9086 22.5454H18.0914C17.7404 22.5454 17.4552 22.2599 17.4552 21.9091C17.4552 21.2072 16.8843 20.6363 16.1828 20.6363H14.6322L16.8346 17.4545H18.4095C18.5853 17.4545 18.7276 17.3122 18.7276 17.1363V16.5C18.7276 16.3241 18.5853 16.1818 18.4095 16.1818H16.5009C16.2922 16.1818 16.0965 16.2843 15.9778 16.4559L13.1149 20.5922C13.0508 20.6849 13.0119 20.7913 13.0018 20.896C12.9977 20.9165 13.0018 25.7273 13.0018 25.7273C13.0018 26.4292 13.5728 27 14.2742 27H25.7258C26.4272 27 26.9981 26.4292 26.9981 25.7273C26.9981 25.7273 27.0023 20.9108 26.9981 20.8903Z" fill="white"/>
<path d="M17.8672 18.3706L17.4174 18.8205C17.2932 18.9447 17.2932 19.1462 17.4174 19.2704L19.5509 21.4045C19.6751 21.5288 19.8379 21.5909 20.0007 21.5909C20.1635 21.5909 20.3262 21.5288 20.4505 21.4045L22.5839 19.2704C22.7082 19.1462 22.7082 18.9447 22.5839 18.8205L22.1342 18.3706C22.0099 18.2463 21.8086 18.2463 21.6843 18.3706L20.6368 19.4183V13.3182C20.6369 13.1424 20.4945 13 20.3188 13H19.6826C19.5069 13 19.3645 13.1424 19.3645 13.3182V19.4183L18.3171 18.3706C18.1928 18.2463 17.9914 18.2463 17.8672 18.3706Z" fill="white"/>
</svg>
