<svg width="40" height="40" viewBox="0 0 40 40" fill="none" xmlns="http://www.w3.org/2000/svg">
<rect width="40" height="40" rx="20" fill="#1DA1F2"/>
<path d="M26.2754 16.9952C26.2754 17.1304 26.2754 17.2657 26.2754 17.3816C26.2754 21.3816 23.2222 26 17.657 26C15.9372 26 14.3527 25.4976 13 24.6473C13.2319 24.6667 13.4831 24.686 13.715 24.686C15.1256 24.686 16.4396 24.2029 17.4831 23.3913C16.1498 23.372 15.029 22.4831 14.6618 21.285C14.8551 21.3237 15.029 21.343 15.2415 21.343C15.5121 21.343 15.7826 21.3043 16.0338 21.2271C14.6425 20.9565 13.599 19.7391 13.599 18.2705C13.599 18.2512 13.599 18.2512 13.599 18.2319C14.0048 18.4638 14.4686 18.599 14.971 18.6184C14.1594 18.0773 13.6184 17.1498 13.6184 16.087C13.6184 15.5266 13.7729 15.0048 14.0242 14.5604C15.5121 16.3961 17.7536 17.5942 20.2657 17.7295C20.2077 17.5169 20.1884 17.2657 20.1884 17.0338C20.1884 15.3527 21.5411 14 23.2222 14C24.0918 14 24.8841 14.3671 25.4251 14.9469C26.1208 14.8116 26.7585 14.5604 27.3575 14.2126C27.1256 14.9275 26.6425 15.5072 26.0242 15.8937C26.6425 15.8164 27.2222 15.6618 27.7633 15.4106C27.3768 16.029 26.8744 16.57 26.2754 16.9952Z" fill="white"/>
</svg>
