<svg width="40" height="40" viewBox="0 0 40 40" fill="none" xmlns="http://www.w3.org/2000/svg">
<rect width="40" height="40" rx="20" fill="#0DC143"/>
<path d="M25.6894 14.3351C24.2071 12.8216 22.158 12 20.0654 12C15.6185 12 12.0436 15.5892 12.0872 19.9568C12.0872 21.3405 12.4796 22.6811 13.1335 23.8919L12 28L16.2289 26.9189C17.406 27.5676 18.7139 27.8703 20.0218 27.8703C24.4251 27.8703 28 24.2811 28 19.9135C28 17.7946 27.1717 15.8054 25.6894 14.3351ZM20.0654 26.5297C18.8883 26.5297 17.7112 26.227 16.7084 25.6216L16.4469 25.4919L13.9183 26.1405L14.5722 23.6757L14.3978 23.4162C12.4796 20.3459 13.3951 16.2811 16.5341 14.3784C19.673 12.4757 23.7275 13.3838 25.6458 16.4973C27.564 19.6108 26.6485 23.6324 23.5095 25.5351C22.5068 26.1838 21.2861 26.5297 20.0654 26.5297ZM23.9019 21.7297L23.4223 21.5135C23.4223 21.5135 22.7248 21.2108 22.2888 20.9946C22.2452 20.9946 22.2016 20.9514 22.158 20.9514C22.0272 20.9514 21.9401 20.9946 21.8529 21.0378C21.8529 21.0378 21.8093 21.0811 21.1989 21.773C21.1553 21.8595 21.0681 21.9027 20.9809 21.9027H20.9373C20.8937 21.9027 20.8065 21.8595 20.7629 21.8162L20.545 21.7297C20.0654 21.5135 19.6294 21.2541 19.2807 20.9081C19.1935 20.8216 19.0627 20.7351 18.9755 20.6486C18.6703 20.3459 18.3651 20 18.1471 19.6108L18.1035 19.5243C18.0599 19.4811 18.0599 19.4378 18.0163 19.3514C18.0163 19.2649 18.0163 19.1784 18.0599 19.1351C18.0599 19.1351 18.2343 18.9189 18.3651 18.7892C18.4523 18.7027 18.4959 18.573 18.5831 18.4865C18.6703 18.3568 18.7139 18.1838 18.6703 18.0541C18.6267 17.8378 18.1035 16.6703 17.9728 16.4108C17.8856 16.2811 17.7984 16.2378 17.6676 16.1946H17.5368C17.4496 16.1946 17.3188 16.1946 17.188 16.1946C17.1008 16.1946 17.0136 16.2378 16.9264 16.2378L16.8828 16.2811C16.7956 16.3243 16.7084 16.4108 16.6213 16.4541C16.5341 16.5405 16.4905 16.627 16.4033 16.7135C16.0981 17.1027 15.9237 17.5784 15.9237 18.0541C15.9237 18.4 16.0109 18.7459 16.1417 19.0486L16.1853 19.1784C16.5777 20 17.1008 20.7351 17.7984 21.3838L17.9728 21.5568C18.1035 21.6865 18.2343 21.773 18.3215 21.9027C19.2371 22.6811 20.2834 23.2432 21.4605 23.5459C21.5913 23.5892 21.7657 23.5892 21.8965 23.6324C22.0272 23.6324 22.2016 23.6324 22.3324 23.6324C22.5504 23.6324 22.812 23.5459 22.9864 23.4595C23.1172 23.373 23.2044 23.373 23.2916 23.2865L23.3787 23.2C23.4659 23.1135 23.5531 23.0703 23.6403 22.9838C23.7275 22.8973 23.8147 22.8108 23.8583 22.7243C23.9455 22.5514 23.9891 22.3351 24.0327 22.1189C24.0327 22.0324 24.0327 21.9027 24.0327 21.8162C24.0327 21.8162 23.9891 21.773 23.9019 21.7297Z" fill="white"/>
</svg>
