<svg width="625" height="415" viewBox="0 0 625 415" fill="none" xmlns="http://www.w3.org/2000/svg">
<g clip-path="url(#clip0)">
<path opacity="0.2" d="M512.308 346.922C508.122 349.439 503.853 351.881 499.501 354.247C498.825 354.612 498.15 354.978 497.474 355.354C494.2 357.108 490.878 358.813 487.508 360.47C487.534 360.204 487.567 359.939 487.607 359.673C487.993 356.922 488.851 354.259 490.143 351.8C490.75 350.623 491.474 349.51 492.303 348.478C495.625 344.364 500.171 342.066 504.844 342.736C507.756 343.183 510.408 344.67 512.308 346.922Z" fill="#3F3D56"/>
<path opacity="0.2" d="M519.985 340.604C519.902 341.197 519.797 341.778 519.67 342.354C517.252 343.904 514.799 345.427 512.311 346.922C508.125 349.439 503.856 351.881 499.504 354.247C498.829 354.612 498.153 354.978 497.478 355.354C496.665 354.758 495.922 354.073 495.263 353.311C494.024 351.88 493.031 350.255 492.323 348.5C490.843 344.669 490.371 340.523 490.953 336.458C491.534 332.393 493.15 328.546 495.645 325.284C498.967 321.171 503.513 318.873 508.186 319.543C512.859 320.213 516.602 323.706 518.606 328.579C520.125 332.394 520.601 336.544 519.985 340.604Z" fill="#3F3D56"/>
<path opacity="0.2" d="M523.334 317.408C524.842 306.918 519.567 297.479 511.552 296.327C503.537 295.175 495.817 302.746 494.309 313.236C492.801 323.727 498.076 333.165 506.091 334.317C514.106 335.469 521.826 327.899 523.334 317.408Z" fill="#3F3D56"/>
<path d="M607.006 123.407C605.58 133.441 601.991 143.046 596.486 151.555L555.274 145.349L592.505 157.092C590.488 159.638 588.299 162.042 585.954 164.29C593.829 177.925 596.893 193.811 594.653 209.396C592.414 224.982 585.002 239.363 573.607 250.229C580.268 261.721 583.516 274.873 582.97 288.144C565.457 308.525 544.09 326.807 519.667 342.404C517.249 343.954 514.796 345.477 512.308 346.971C508.122 349.489 503.853 351.93 499.501 354.296C498.067 354.02 496.655 353.704 495.26 353.339C493.527 352.901 491.827 352.392 490.161 351.827C478.724 347.938 468.484 341.164 460.43 332.161C452.377 323.158 446.782 312.229 444.187 300.432C441.591 288.634 442.083 276.367 445.615 264.815C449.147 253.264 455.599 242.818 464.347 234.489C463.639 233.263 462.969 232.021 462.338 230.763C462.149 230.397 461.972 230.032 461.784 229.655C456.667 218.987 454.343 207.195 455.029 195.383L455.112 194.16C455.162 193.501 455.223 192.837 455.289 192.178C455.389 191.247 455.505 190.312 455.638 189.376V189.288C456.722 181.736 459.037 174.413 462.493 167.612L512.718 192.903L466.95 160.076C469.774 155.891 473.042 152.023 476.695 148.538C471.87 140.189 468.816 130.936 467.724 121.356C466.632 111.775 467.524 102.072 470.346 92.8518C473.169 83.6314 477.859 75.091 484.127 67.7627C490.394 60.4345 498.103 54.4755 506.775 50.257C515.446 46.0386 524.893 43.6511 534.527 43.2435C544.162 42.8358 553.777 44.4166 562.774 47.8874C571.77 51.3582 579.956 56.6446 586.82 63.4172C593.684 70.1898 599.079 78.3035 602.67 87.2525L546.266 117.422L605.71 96.6759C607.857 105.42 608.297 114.496 607.006 123.407Z" fill="#CEDDF9"/>
<path opacity="0.2" d="M176.585 377.971C174.259 377.17 171.95 376.343 169.658 375.491C164.321 373.527 159.066 371.451 153.895 369.262C154.943 368.411 156.133 367.752 157.41 367.313C162.023 365.73 167.089 367.241 171.214 370.884C173.44 372.882 175.263 375.288 176.585 377.971Z" fill="#3F3D56"/>
<path opacity="0.2" d="M171.213 370.884C170.9 372.481 170.377 374.03 169.658 375.491C164.32 373.527 159.066 371.451 153.894 369.262C149.394 367.368 144.965 365.392 140.605 363.332C140.415 362.01 140.33 360.676 140.351 359.34C140.369 357.949 140.518 356.563 140.794 355.199C141.901 349.756 145.035 345.421 149.653 343.838C154.271 342.254 159.331 343.766 163.456 347.414C164.455 348.299 165.371 349.274 166.192 350.327C168.01 352.668 169.411 355.305 170.333 358.122C171.731 362.227 172.034 366.626 171.213 370.884Z" fill="#3F3D56"/>
<path opacity="0.2" d="M154.305 358.862C162.271 356.344 165.998 345.664 162.63 335.008C159.261 324.351 150.073 317.753 142.107 320.271C134.141 322.788 130.414 333.468 133.783 344.125C137.151 354.781 146.339 361.379 154.305 358.862Z" fill="#3F3D56"/>
<path opacity="0.2" d="M146.52 335.38C154.486 332.863 158.213 322.183 154.844 311.526C151.476 300.869 142.288 294.271 134.322 296.789C126.356 299.307 122.629 309.987 125.997 320.643C129.366 331.3 138.554 337.898 146.52 335.38Z" fill="#3F3D56"/>
<path d="M166.163 350.327C164.623 351.227 163.044 352.071 161.423 352.857C158.811 354.126 156.124 355.235 153.378 356.179C150.872 357.044 148.319 357.766 145.732 358.344C143.934 358.75 142.134 359.08 140.333 359.335C138.096 359.656 135.865 359.866 133.639 359.966C106.885 346.678 82.8655 330.422 62.3679 311.858C62.0745 311.072 61.8142 310.28 61.5319 309.477C56.2773 293.723 56.3668 276.675 61.7866 260.976C48.08 251.773 37.8441 238.252 32.7067 222.563C30.151 214.885 28.8425 206.847 28.8309 198.755H86.8189L29.3957 189.575C30.0335 184.296 31.2288 179.1 32.9614 174.073C19.2531 164.872 9.01673 151.35 3.88164 135.659C-8.99719 96.8419 11.2513 54.8242 49.107 41.7909C74.4494 33.0762 101.254 39.5763 120.074 56.4631L82.3395 111.697L127.266 63.9043C133.345 71.1616 137.989 79.5075 140.953 88.4981C144.332 98.6532 145.518 109.41 144.43 120.057L103.662 133.722L143.362 127.116C142.7 130.466 141.81 133.766 140.698 136.994C154.405 146.194 164.641 159.714 169.778 175.401C172.267 182.875 173.575 190.691 173.654 198.567V198.628C173.654 199.237 173.654 199.846 173.654 200.455C173.654 200.715 173.654 200.97 173.654 201.23C173.461 208.963 172.077 216.619 169.551 223.93C175.122 227.662 180.152 232.143 184.501 237.246C184.612 237.368 184.717 237.49 184.817 237.617C190.949 244.902 195.63 253.293 198.609 262.338C209.943 296.499 195.597 333.168 166.163 350.327Z" fill="#CEDDF9"/>
<path d="M338.979 61.9552C339.279 61.5236 339.444 61.0132 339.455 60.4879C339.455 57.3099 332.971 54.7354 324.976 54.7354C316.981 54.7354 310.497 57.3099 310.497 60.4879C310.507 61.0926 310.717 61.6768 311.095 62.1489C302.197 63.14 296.195 65.0058 296.195 67.1319C296.195 70.3155 309.484 72.89 325.845 72.89C342.207 72.89 355.501 70.3155 355.501 67.1319C355.501 64.8564 348.763 62.8964 338.979 61.9552Z" fill="#CEDDF9"/>
<path d="M441.369 25.9887C441.847 25.3061 442.109 24.4962 442.122 23.6633C442.122 18.6194 431.835 14.5278 419.144 14.5278C406.454 14.5278 396.166 18.6194 396.166 23.6633C396.191 24.6097 396.526 25.5218 397.119 26.26C382.988 27.838 373.465 30.7945 373.465 34.183C373.465 39.2269 394.538 43.3184 420.529 43.3184C446.519 43.3184 467.592 39.2269 467.592 34.183C467.592 30.5897 456.906 27.4836 441.369 25.9887Z" fill="#CEDDF9"/>
<path d="M256.99 25.9887C257.468 25.3061 257.73 24.4962 257.744 23.6633C257.744 18.6194 247.456 14.5278 234.765 14.5278C222.075 14.5278 211.787 18.6194 211.787 23.6633C211.812 24.6097 212.147 25.5218 212.74 26.26C198.609 27.838 189.086 30.7945 189.086 34.183C189.086 39.2269 210.159 43.3184 236.15 43.3184C262.14 43.3184 283.213 39.2269 283.213 34.183C283.213 30.5897 272.527 27.4836 256.99 25.9887Z" fill="#CEDDF9"/>
<path opacity="0.1" d="M198.734 73.6874C200.024 72.94 201.769 73.6542 202.654 74.8557C203.54 76.0571 203.79 77.624 204.011 79.0801C204.504 82.3523 204.864 86.1117 202.654 88.581C206.265 77.6351 216.646 69.247 228.124 68.0234" stroke="#FC6464" stroke-width="3" stroke-miterlimit="10"/>
<path opacity="0.1" d="M343.512 19.417C344.342 18.9353 345.461 19.417 346.031 20.1645C346.537 20.987 346.837 21.9196 346.906 22.883C347.221 24.9869 347.46 27.4009 346.031 28.9733C347.253 25.4663 349.434 22.3721 352.326 20.0419C355.218 17.7117 358.706 16.2389 362.393 15.7905" stroke="#FC6464" stroke-width="3" stroke-miterlimit="10"/>
<path opacity="0.1" d="M490.238 4.46782C491.069 3.98613 492.187 4.46782 492.758 5.21527C493.264 6.03776 493.564 6.97037 493.632 7.93376C493.948 10.0377 494.186 12.4517 492.758 14.0241C493.98 10.5171 496.161 7.42286 499.053 5.09268C501.945 2.7625 505.432 1.28966 509.119 0.841309" stroke="#FC6464" stroke-width="3" stroke-miterlimit="10"/>
<path opacity="0.2" d="M322.13 415C489.4 415 624.999 403.97 624.999 390.362C624.999 376.755 489.4 365.724 322.13 365.724C154.861 365.724 19.2617 376.755 19.2617 390.362C19.2617 403.97 154.861 415 322.13 415Z" fill="#FC6464"/>
<path d="M551.099 107.716H86.5196C80.8716 107.716 76.293 112.294 76.293 117.942V375.43C76.293 381.078 80.8716 385.656 86.5196 385.656H551.099C556.747 385.656 561.326 381.078 561.326 375.43V117.942C561.326 112.294 556.747 107.716 551.099 107.716Z" fill="white"/>
<path d="M561.33 117.942V132.614H76.2969V117.942C76.2947 116.598 76.5576 115.266 77.0706 114.024C77.5835 112.781 78.3365 111.652 79.2863 110.7C80.2362 109.749 81.3643 108.994 82.6061 108.479C83.848 107.964 85.1792 107.699 86.5235 107.699H551.103C552.447 107.699 553.778 107.964 555.02 108.479C556.262 108.994 557.39 109.749 558.34 110.7C559.29 111.652 560.043 112.781 560.556 114.024C561.069 115.266 561.332 116.598 561.33 117.942Z" fill="#3A3768"/>
<path d="M219.009 172.771H141.349C136.19 172.771 132.008 176.953 132.008 182.112V228.764C132.008 233.922 136.19 238.104 141.349 238.104H219.009C224.168 238.104 228.35 233.922 228.35 228.764V182.112C228.35 176.953 224.168 172.771 219.009 172.771Z" fill="#FC6464"/>
<path d="M191.855 198.519L190.132 196.785C190.047 196.7 189.946 196.632 189.835 196.585C189.723 196.539 189.604 196.515 189.483 196.515C189.363 196.515 189.243 196.539 189.132 196.585C189.02 196.632 188.919 196.7 188.834 196.785L178.017 207.497L173.443 202.885C173.359 202.8 173.259 202.733 173.148 202.686C173.038 202.64 172.919 202.617 172.799 202.617C172.68 202.617 172.561 202.64 172.451 202.686C172.34 202.733 172.24 202.8 172.156 202.885L170.415 204.605C170.244 204.778 170.148 205.012 170.148 205.256C170.148 205.499 170.244 205.733 170.415 205.906L177.36 212.905C177.533 213.076 177.767 213.172 178.01 213.172C178.254 213.172 178.488 213.076 178.661 212.905L191.855 199.806C192.026 199.635 192.121 199.404 192.121 199.163C192.121 198.921 192.026 198.69 191.855 198.519Z" fill="white"/>
<path d="M354.337 172.771H276.677C271.518 172.771 267.336 176.953 267.336 182.112V228.764C267.336 233.922 271.518 238.104 276.677 238.104H354.337C359.496 238.104 363.678 233.922 363.678 228.764V182.112C363.678 176.953 359.496 172.771 354.337 172.771Z" fill="#FC6464"/>
<path d="M327.105 198.74L325.382 197.006C325.297 196.92 325.196 196.852 325.085 196.806C324.973 196.759 324.854 196.735 324.733 196.735C324.613 196.735 324.493 196.759 324.382 196.806C324.27 196.852 324.169 196.92 324.084 197.006L313.267 207.717L308.693 203.106C308.609 203.021 308.509 202.953 308.398 202.907C308.288 202.861 308.169 202.837 308.049 202.837C307.93 202.837 307.811 202.861 307.701 202.907C307.59 202.953 307.49 203.021 307.406 203.106L305.665 204.826C305.494 204.999 305.398 205.233 305.398 205.476C305.398 205.72 305.494 205.953 305.665 206.127L312.61 213.126C312.783 213.297 313.017 213.392 313.26 213.392C313.504 213.392 313.738 213.297 313.911 213.126L327.105 200.027C327.276 199.856 327.371 199.625 327.371 199.383C327.371 199.142 327.276 198.911 327.105 198.74Z" fill="white"/>
<path opacity="0.2" d="M496.689 172.771H419.028C413.87 172.771 409.688 176.953 409.688 182.112V228.764C409.688 233.922 413.87 238.104 419.028 238.104H496.689C501.848 238.104 506.03 233.922 506.03 228.764V182.112C506.03 176.953 501.848 172.771 496.689 172.771Z" fill="#FC6464"/>
<path opacity="0.2" d="M354.04 270.183H276.38C271.221 270.183 267.039 274.364 267.039 279.523V326.175C267.039 331.333 271.221 335.515 276.38 335.515H354.04C359.199 335.515 363.381 331.333 363.381 326.175V279.523C363.381 274.364 359.199 270.183 354.04 270.183Z" fill="#FC6464"/>
<path opacity="0.2" d="M219.005 270.183H141.345C136.186 270.183 132.004 274.364 132.004 279.523V326.175C132.004 331.333 136.186 335.515 141.345 335.515H219.005C224.164 335.515 228.346 331.333 228.346 326.175V279.523C228.346 274.364 224.164 270.183 219.005 270.183Z" fill="#FC6464"/>
<path d="M549.71 389.304C549.711 389.769 549.638 390.23 549.494 390.672C549.289 391.098 548.995 391.476 548.632 391.779C548.269 392.083 547.846 392.306 547.39 392.432C546.499 392.743 545.552 392.842 544.622 393.108C544.222 393.198 543.852 393.389 543.547 393.662C542.761 394.453 543.226 395.915 544.168 396.513C545.109 397.111 546.305 397.067 547.423 397.017C549.795 396.878 552.15 396.542 554.466 396.015C555.302 395.821 556.277 395.428 556.41 394.586C556.437 394.317 556.414 394.045 556.343 393.783C555.773 390.907 555.473 387.984 555.446 385.052C555.446 384.864 550.779 384.742 550.341 385.019C549.394 385.639 549.765 388.313 549.71 389.304Z" fill="#FFB8B8"/>
<path d="M570.489 379.067C571.259 380.346 571.984 381.647 572.665 382.981C574.007 385.261 574.466 387.954 573.955 390.55C573.861 391.375 573.745 392.211 573.612 393.014C573.479 393.817 573.263 394.73 572.576 395.195C572.883 395.376 573.226 395.486 573.58 395.518C573.935 395.55 574.292 395.502 574.625 395.378C575.289 395.121 575.9 394.746 576.43 394.271C579.874 391.43 582.476 387.3 582.587 382.832C582.627 382.485 582.561 382.134 582.399 381.824C582.239 381.599 582.033 381.411 581.795 381.271C579.225 379.52 576.838 377.515 574.669 375.285C574.623 375.202 574.559 375.129 574.482 375.072C574.405 375.016 574.317 374.976 574.223 374.957C574.129 374.938 574.032 374.94 573.939 374.962C573.846 374.985 573.759 375.027 573.684 375.086C572.361 375.751 570.151 376.697 569.598 378.198C569.974 378.393 570.284 378.696 570.489 379.067Z" fill="#FFB8B8"/>
<path d="M554.467 393.972C551.571 395.19 548.421 395.633 545.309 396.026C545.121 396.08 544.923 396.09 544.731 396.054C544.539 396.018 544.358 395.939 544.202 395.821C544.098 395.69 544.036 395.531 544.023 395.364C544.01 395.198 544.047 395.031 544.13 394.886C544.301 394.596 544.529 394.344 544.8 394.144L546.882 392.405C545.059 392.008 543.153 392.333 541.566 393.313C541.317 393.437 541.095 393.61 540.914 393.821C540.732 394.032 540.594 394.277 540.509 394.542C540.443 395.047 540.576 395.557 540.88 395.965C541.77 397.246 543.087 398.169 544.595 398.567C546.09 398.961 547.628 399.173 549.174 399.199L552.003 399.365C551.909 399.525 551.875 399.715 551.91 399.898C551.945 400.082 552.045 400.246 552.192 400.361C552.498 400.578 552.858 400.706 553.232 400.732C554.392 400.898 555.568 400.915 556.732 400.782C557.023 400.775 557.305 400.674 557.535 400.494C557.588 400.447 557.63 400.389 557.659 400.324C557.689 400.259 557.704 400.189 557.704 400.118C557.704 400.047 557.689 399.976 557.659 399.911C557.63 399.846 557.588 399.788 557.535 399.741C557.704 399.738 557.868 399.683 558.006 399.584C558.143 399.485 558.247 399.347 558.304 399.188C558.415 398.866 558.45 398.523 558.409 398.185C558.332 396.884 558.216 394.985 557.529 393.834C556.843 392.682 555.397 393.568 554.467 393.972Z" fill="#3A3768"/>
<path d="M584.294 382.478C583.377 381.798 582.376 381.24 581.316 380.817C581.273 380.781 581.222 380.756 581.168 380.744C581.114 380.732 581.058 380.732 581.004 380.746C580.95 380.759 580.9 380.785 580.858 380.822C580.816 380.858 580.783 380.904 580.762 380.955C578.863 383.531 577.382 386.39 576.371 389.426C575.818 391.154 575.341 392.992 574.156 394.409C574.001 394.592 573.763 394.78 573.547 394.675C573.331 394.57 573.431 394.033 573.265 393.739C573.099 393.446 572.484 393.54 572.158 393.795C571.584 394.222 571.112 394.77 570.773 395.4C570.585 395.701 570.498 396.054 570.524 396.408C570.574 396.621 570.671 396.82 570.806 396.991C570.942 397.163 571.115 397.302 571.311 397.399C572.8 398.263 574.671 397.643 576.294 397C576.734 396.844 577.154 396.636 577.545 396.38C578.326 395.827 578.785 394.869 579.583 394.315C580.01 394.083 580.423 393.825 580.817 393.54C581.559 392.87 581.637 391.74 582.163 390.893C583.065 389.432 585.075 389.055 585.861 387.505C586.731 385.761 585.667 383.596 584.294 382.478Z" fill="#3A3768"/>
<path d="M561.857 302.185C565.018 304.561 566.347 308.774 566.209 312.705C566.07 316.636 564.675 320.456 563.302 324.144C561.331 329.437 559.363 334.734 557.4 340.034C557.627 340.612 557.768 341.22 557.82 341.839C557.881 342.148 557.876 342.466 557.804 342.772C557.733 343.079 557.597 343.366 557.405 343.616C557.222 343.832 556.99 343.993 556.802 344.203C556.55 344.556 556.374 344.957 556.285 345.381C556.195 345.805 556.194 346.242 556.281 346.667C556.46 347.514 556.483 348.386 556.348 349.241C556.253 349.601 556.087 349.939 556.021 350.304C555.976 350.484 555.98 350.673 556.031 350.851C556.083 351.028 556.18 351.19 556.314 351.318C556.73 351.633 557.505 351.534 557.638 352.037C563.043 356.689 567.577 362.267 571.026 368.509C572.327 370.851 573.645 373.453 576.07 374.599C573.704 376.478 571.434 378.476 569.271 380.584C565.871 377.611 564.177 373.282 561.403 369.721C559.644 367.514 557.525 365.619 555.135 364.118C556.453 366.056 556.796 368.708 556.674 371.045C556.556 372.219 556.371 373.385 556.12 374.538C555.5 378.198 555.567 382.19 557.527 385.335C555.423 386.442 553.003 387.239 550.65 386.913C549.175 386.706 547.835 385.941 546.907 384.776C546.237 376.963 544.51 369.517 542.566 361.915C542.128 360.411 541.815 358.874 541.63 357.319C541.348 354.086 542.184 350.526 541.309 347.558C540.859 346.121 540.589 344.633 540.506 343.129C540.506 342.974 540.506 342.813 540.506 342.653C540.476 341.557 540.348 340.465 540.124 339.392L538.408 331.762C537.66 328.44 536.913 324.974 537.721 321.669C537.333 321.525 536.962 321.339 536.614 321.115C535.961 320.739 536.06 319.764 536.365 319.072C536.669 318.38 537.062 317.594 536.725 316.924C536.547 316.648 536.343 316.39 536.116 316.154C535.733 315.523 535.541 314.794 535.562 314.056L535.352 311.155C536.567 311.635 537.578 312.521 538.214 313.663C536.631 311.21 537.417 307.711 538.58 305.037C538.796 304.216 539.273 303.487 539.939 302.96C540.605 302.433 541.424 302.136 542.273 302.113C548.751 300.978 556.624 298.249 561.857 302.185Z" fill="#3A3768"/>
<path opacity="0.1" d="M558.925 318.69C558.925 318.69 555.753 320.805 555.753 322.388C555.753 323.972 554.961 338.229 554.961 338.229V348.261C554.961 348.261 555.515 353.543 554.961 354.861C554.407 356.179 554.961 362.252 554.961 363.044C554.961 363.836 555.753 354.861 555.753 354.861V345.354L556.544 323.706L558.925 318.69Z" fill="black"/>
<path d="M541.256 245.473L539.407 244.737C535.641 243.225 531.865 241.708 528.211 239.937C525.559 238.647 522.873 237.135 521.218 234.688C520.664 233.902 520.282 233.027 519.75 232.252C519.15 231.405 518.482 230.609 517.752 229.871L512.818 224.6C512.447 225.303 512.929 226.134 513.311 226.815C513.715 227.547 514.022 228.329 514.225 229.14C514.321 229.403 514.311 229.693 514.197 229.948C514.059 230.187 513.765 230.286 513.521 230.419C513.073 230.696 512.73 231.114 512.547 231.607C512.363 232.101 512.35 232.641 512.508 233.143C512.685 233.639 512.988 234.08 513.387 234.424C513.786 234.767 514.267 235.001 514.784 235.103C515.133 235.143 515.475 235.227 515.803 235.352C516.395 235.64 516.677 236.31 517.104 236.819C517.879 237.739 519.125 238.087 520.288 238.386C522.109 240.463 524.008 242.456 525.824 244.532C528.593 247.677 531.406 250.872 535.005 253.003C536.286 253.787 537.689 254.348 539.157 254.664C539.64 251.555 540.341 248.484 541.256 245.473Z" fill="#A1616A"/>
<path d="M541.256 245.473L539.407 244.737C535.641 243.225 531.865 241.708 528.211 239.937C525.559 238.647 522.873 237.135 521.218 234.688C520.664 233.902 520.282 233.027 519.75 232.252C519.15 231.405 518.482 230.609 517.752 229.871L512.818 224.6C512.447 225.303 512.929 226.134 513.311 226.815C513.715 227.547 514.022 228.329 514.225 229.14C514.321 229.403 514.311 229.693 514.197 229.948C514.059 230.187 513.765 230.286 513.521 230.419C513.073 230.696 512.73 231.114 512.547 231.607C512.363 232.101 512.35 232.641 512.508 233.143C512.685 233.639 512.988 234.08 513.387 234.424C513.786 234.767 514.267 235.001 514.784 235.103C515.133 235.143 515.475 235.227 515.803 235.352C516.395 235.64 516.677 236.31 517.104 236.819C517.879 237.739 519.125 238.087 520.288 238.386C522.109 240.463 524.008 242.456 525.824 244.532C528.593 247.677 531.406 250.872 535.005 253.003C536.286 253.787 537.689 254.348 539.157 254.664C539.64 251.555 540.341 248.484 541.256 245.473Z" fill="#FFB8B8"/>
<path d="M537.854 255.971C537.554 255.958 537.259 255.884 536.987 255.754C536.716 255.623 536.474 255.439 536.276 255.212C536.066 254.783 536.006 254.295 536.105 253.828C536.423 250.808 537.092 247.835 538.098 244.969C538.995 246.63 540.761 247.594 542.434 248.468C543.924 249.299 545.48 250.009 547.084 250.589C546.702 250.462 545.7 256.646 545.147 257.028C544.443 257.521 542.76 256.862 541.985 256.724L537.854 255.971Z" fill="#FF6F61"/>
<path d="M542.152 254.143C546.819 254.143 550.602 250.361 550.602 245.695C550.602 241.028 546.819 237.246 542.152 237.246C537.486 237.246 533.703 241.028 533.703 245.695C533.703 250.361 537.486 254.143 542.152 254.143Z" fill="#A1616A"/>
<path d="M540.441 252.693C540.441 252.693 545.978 257.443 543.609 260.61C541.239 263.777 539.91 265.892 543.083 266.147C546.255 266.402 556.808 260.865 556.808 260.865C556.808 260.865 547.041 252.942 548.625 248.192C550.208 243.441 540.441 252.693 540.441 252.693Z" fill="#FBBEBE"/>
<path d="M545.755 260.129C544.574 260.413 543.496 261.02 542.639 261.881C541.783 262.742 541.182 263.824 540.905 265.007C540.284 267.858 541.608 271.019 540.351 273.66C539.764 274.906 538.69 275.836 537.942 276.982C537.214 278.199 536.885 279.613 536.999 281.026C537.113 282.44 537.665 283.782 538.579 284.867C539.133 285.492 539.836 286.101 539.897 286.932C539.889 287.303 539.852 287.674 539.786 288.039C539.72 288.936 540.14 289.783 540.34 290.652C540.456 291.009 540.497 291.386 540.459 291.758C540.421 292.131 540.305 292.492 540.118 292.817C539.693 293.424 539.496 294.161 539.565 294.899C539.764 296.006 539.293 297.141 539.216 298.276C539.177 298.769 539.216 299.262 539.172 299.755C539.112 300.22 539.014 300.679 538.878 301.128L538.175 303.741C542.001 305.312 546.118 306.046 550.251 305.895C553.966 305.823 557.626 305.053 561.258 304.289C562.366 304.057 563.473 303.824 564.58 303.525C562.283 300.513 562.033 296.532 561.973 292.751C561.872 286.454 561.401 280.168 560.561 273.926C561.668 271.822 562.166 269.497 562.626 267.144C562.834 266.203 562.921 265.239 562.886 264.276C562.77 262.244 561.851 260.361 560.943 258.534C560.118 256.873 559.215 255.118 557.371 254.404C556.924 254.21 556.433 254.135 555.948 254.188C555.462 254.24 554.999 254.418 554.603 254.703C553.202 255.755 553.623 257.571 553.263 259.132C552.792 261.137 550.943 262.582 548.966 263.169C547.493 263.552 545.967 263.695 544.448 263.589C544.3 263.58 544.157 263.53 544.036 263.444C543.915 263.358 543.82 263.239 543.762 263.102C543.705 262.965 543.686 262.815 543.71 262.668C543.733 262.521 543.797 262.384 543.895 262.272C544.553 261.541 545.207 260.81 545.755 260.129Z" fill="#FF6F61"/>
<path d="M552.308 292.79C549.18 295.347 546.018 297.928 542.403 299.738C540.288 300.796 538.034 301.582 535.963 302.722C535.444 302.946 535.014 303.336 534.74 303.83C534.579 304.318 534.558 304.841 534.679 305.341L535.598 311.659C535.847 313.369 537.491 314.46 538.826 315.534C538.677 315.03 538.706 314.491 538.909 314.006C539.004 313.846 539.107 313.69 539.219 313.541C539.717 312.637 539.875 311.584 539.662 310.573C539.45 309.571 539.333 308.552 539.313 307.528C539.302 307.356 539.335 307.185 539.41 307.029C539.485 306.874 539.598 306.741 539.739 306.642C544.23 304.483 549.063 302.828 553.582 300.773C554.784 300.29 555.916 299.647 556.948 298.863C557.986 298.07 558.685 296.912 558.903 295.624C558.94 295.454 558.911 295.275 558.82 295.126C558.728 295.029 558.611 294.959 558.482 294.927C556.477 294.201 554.335 293.52 552.308 292.79Z" fill="#FFB8B8"/>
<path opacity="0.1" d="M543.62 266.274C542.065 266.534 540.437 267.337 539.905 268.827C539.718 269.475 539.648 270.152 539.7 270.825C539.658 271.771 539.817 272.714 540.165 273.594C540.432 274.08 540.75 274.536 541.112 274.956C544.828 279.717 546.688 285.697 550.309 290.53C550.63 290.957 551.217 291.51 551.034 292.014C550.969 292.138 550.912 292.265 550.863 292.396C550.846 292.526 550.862 292.658 550.908 292.781C550.955 292.903 551.03 293.013 551.129 293.099C551.322 293.274 551.472 293.492 551.566 293.736C551.632 293.991 551.466 294.323 551.206 294.29C551.638 295.635 552.972 296.416 554.229 297.058C556.328 298.116 558.659 298.946 560.99 298.719C561.427 296.964 562.042 294.982 561.793 293.182C561.537 291.817 561.084 290.497 560.447 289.262L558.875 285.83C557.535 282.901 556.184 279.95 554.318 277.325C553.653 276.492 553.095 275.579 552.657 274.607C552.181 273.367 550.863 272.497 550.071 271.429C548.886 269.84 547.674 268.223 546.073 267.055C545.414 266.601 544.396 266.141 543.62 266.274Z" fill="black"/>
<path d="M543.617 265.494C542.061 265.754 540.433 266.557 539.901 268.046C539.714 268.695 539.644 269.372 539.697 270.045C539.654 270.99 539.813 271.934 540.162 272.813C540.429 273.299 540.746 273.756 541.108 274.175C544.824 278.937 546.684 284.917 550.305 289.75C550.626 290.176 551.213 290.73 551.031 291.234C550.966 291.358 550.908 291.485 550.859 291.616C550.843 291.746 550.858 291.878 550.904 292C550.951 292.123 551.026 292.232 551.125 292.319C551.319 292.494 551.468 292.712 551.562 292.956C551.629 293.21 551.462 293.543 551.202 293.509C551.634 294.855 552.968 295.635 554.225 296.278C556.324 297.335 558.655 298.166 560.986 297.939C561.423 296.184 562.038 294.201 561.789 292.402C561.533 291.037 561.08 289.717 560.443 288.482L558.871 285.049C557.531 282.121 556.18 279.169 554.314 276.54C553.648 275.709 553.09 274.797 552.653 273.827C552.177 272.586 550.859 271.717 550.067 270.649C548.882 269.06 547.67 267.443 546.07 266.275C545.411 265.826 544.392 265.35 543.617 265.494Z" fill="#FF6F61"/>
<path d="M540.069 231.814C538.94 231.846 537.826 232.08 536.78 232.506C536.26 232.727 535.809 233.084 535.474 233.539C535.139 233.993 534.932 234.53 534.875 235.092C534.875 235.745 535.113 236.393 535.03 237.046C534.886 238.12 533.89 238.846 533.369 239.815C532.472 241.476 533.17 243.58 534.338 245.058C535.506 246.536 537.106 247.649 538.28 249.1C539.225 250.264 539.908 251.617 540.285 253.068C540.661 254.519 540.721 256.034 540.462 257.51C540.311 258.082 540.238 258.673 540.246 259.265C540.34 260.322 541.071 261.192 541.757 262C545.201 266.022 548.386 270.259 551.292 274.684C552.165 275.965 552.95 277.305 553.64 278.693C554.326 280.133 554.841 281.672 555.799 282.945C556.673 284.041 557.745 284.961 558.961 285.658C562.023 287.548 565.498 288.668 569.088 288.925L567.017 283.792C566.574 282.909 566.361 281.928 566.397 280.941C566.624 279.097 568.49 277.879 569.099 276.124C569.422 274.961 569.383 273.727 568.988 272.586C568.257 269.984 566.773 267.642 566.003 265.062C565.316 262.795 565.163 260.4 565.555 258.063C565.812 257.051 565.922 256.007 565.882 254.963C565.5 251.824 561.812 250.323 560.107 247.655C558.999 245.944 558.794 243.834 558.446 241.83C557.892 238.907 556.956 235.989 555.123 233.658C553.291 231.327 550.445 229.655 547.472 229.782C545.891 229.927 544.343 230.315 542.881 230.934L539.006 232.34" fill="#3A3768"/>
<g opacity="0.1">
<path opacity="0.1" d="M557.375 238.364C557.707 240.169 557.929 242.063 558.765 243.674C558.648 243.048 558.549 242.417 558.432 241.797C558.158 240.222 557.723 238.678 557.137 237.19C557.236 237.6 557.303 237.988 557.375 238.364Z" fill="black"/>
<path opacity="0.1" d="M564.501 254.614C564.109 256.951 564.262 259.346 564.95 261.613C565.141 262.227 565.362 262.831 565.614 263.423C565.275 261.649 565.256 259.828 565.559 258.047C565.815 257.035 565.925 255.991 565.885 254.947C565.762 254.067 565.4 253.238 564.839 252.549C564.778 253.236 564.617 253.928 564.501 254.614Z" fill="black"/>
<path opacity="0.1" d="M568.996 272.57C568.779 271.815 568.515 271.076 568.204 270.355C568.342 271.131 568.289 271.929 568.049 272.68C567.446 274.435 565.574 275.654 565.347 277.497C565.313 278.485 565.528 279.466 565.973 280.349L566.388 281.378C566.377 281.229 566.377 281.079 566.388 280.93C566.615 279.086 568.481 277.868 569.09 276.113C569.42 274.95 569.387 273.714 568.996 272.57Z" fill="black"/>
<path opacity="0.1" d="M557.909 282.209C556.693 281.512 555.621 280.592 554.747 279.496C553.795 278.223 553.274 276.684 552.588 275.25C551.899 273.859 551.115 272.517 550.24 271.235C547.334 266.81 544.149 262.573 540.705 258.551L540.346 258.119C540.264 258.482 540.232 258.855 540.251 259.226C540.346 260.284 541.076 261.153 541.763 261.962C545.207 265.984 548.391 270.22 551.298 274.646C552.171 275.927 552.955 277.266 553.645 278.655C554.332 280.094 554.847 281.633 555.805 282.907C556.678 284.002 557.751 284.923 558.966 285.62C562.029 287.509 565.504 288.63 569.093 288.886L567.698 285.426C564.229 285.132 560.876 284.03 557.909 282.209Z" fill="black"/>
<path opacity="0.1" d="M537.229 245.65C536.033 244.199 534.46 243.092 533.287 241.614C533.181 241.475 533.082 241.331 532.982 241.188C532.95 242.602 533.434 243.98 534.344 245.063C535.507 246.547 537.113 247.654 538.286 249.105C538.751 249.672 539.152 250.289 539.482 250.943C539.241 249.003 538.461 247.169 537.229 245.65Z" fill="black"/>
</g>
</g>
<defs>
<clipPath id="clip0">
<rect width="625" height="415" fill="white"/>
</clipPath>
</defs>
</svg>
