<svg width="250" height="195" viewBox="0 0 250 195" fill="none" xmlns="http://www.w3.org/2000/svg">
<path opacity="0.1" d="M196.182 72.422C185.668 31.078 149.338 1.23347 106.695 0.0364326C84.1511 -0.596412 60.4284 6.88048 43.1565 33.0449C12.2811 79.8165 45.0539 112.137 67.9022 127.495C78.9407 134.93 88.887 143.87 97.453 154.055C112.886 172.369 142.576 195.127 177.936 159.469C203.565 133.624 203.186 99.9612 196.182 72.422Z" fill="#FC6464"/>
<path d="M249.998 81.6278C249.998 92.358 241.3 109.484 230.569 109.484C219.839 109.484 211.141 92.358 211.141 81.6278C211.141 76.475 213.188 71.5332 216.831 67.8895C220.475 64.2459 225.417 62.199 230.569 62.199C235.722 62.199 240.664 64.2459 244.308 67.8895C247.951 71.5332 249.998 76.475 249.998 81.6278Z" fill="#FC6464"/>
<path d="M231.289 110.175C228.848 111.015 228.263 114.345 229.103 116.787C229.943 119.229 231.721 121.254 232.616 123.676C233.025 124.898 233.318 126.155 233.492 127.431C234.003 130.47 234.516 133.562 234.122 136.618C233.748 139.517 232.574 142.25 231.263 144.863C228.726 149.922 225.639 154.686 222.059 159.07" stroke="#3A3768" stroke-width="2"/>
<path d="M232.445 111.356C231.196 110.555 229.948 110.555 228.699 111.356V107.611H232.445V111.356Z" fill="#FF6584"/>
<path d="M228.707 109.405C229.289 109.699 229.933 109.851 230.585 109.849C231.237 109.846 231.879 109.689 232.459 109.389" stroke="#3A3768" stroke-width="2"/>
<path opacity="0.4" d="M238.647 78.3508C240.91 78.3508 242.744 76.1499 242.744 73.435C242.744 70.7201 240.91 68.5193 238.647 68.5193C236.385 68.5193 234.551 70.7201 234.551 73.435C234.551 76.1499 236.385 78.3508 238.647 78.3508Z" fill="white"/>
<path d="M0 78.5846C0 89.3149 8.69859 106.44 19.4288 106.44C30.1591 106.44 38.8577 89.3149 38.8577 78.5846C38.8577 73.4318 36.8107 68.49 33.1671 64.8463C29.5235 61.2027 24.5817 59.1558 19.4288 59.1558C14.276 59.1558 9.33419 61.2027 5.69058 64.8463C2.04696 68.49 0 73.4318 0 78.5846Z" fill="#FC6464"/>
<path d="M18.7107 107.132C21.1523 107.972 21.7368 111.302 20.897 113.744C20.0572 116.186 18.2785 118.211 17.3835 120.633C16.9752 121.855 16.682 123.112 16.5079 124.388C15.9967 127.427 15.484 130.519 15.8779 133.575C16.2516 136.474 17.4262 139.207 18.7365 141.82C21.2743 146.879 24.3611 151.643 27.9413 156.027" stroke="#3A3768" stroke-width="2"/>
<path d="M17.5547 108.313C18.8031 107.512 20.0516 107.512 21.3 108.313V104.568H17.5547V108.313Z" fill="#FF6584"/>
<path d="M21.2911 106.361C20.7091 106.656 20.0655 106.808 19.4132 106.806C18.7609 106.803 18.1186 106.645 17.5391 106.346" stroke="#3A3768" stroke-width="2"/>
<path opacity="0.4" d="M11.3543 75.3075C13.6167 75.3075 15.4507 73.1067 15.4507 70.3918C15.4507 67.6769 13.6167 65.4761 11.3543 65.4761C9.09185 65.4761 7.25781 67.6769 7.25781 70.3918C7.25781 73.1067 9.09185 75.3075 11.3543 75.3075Z" fill="white"/>
<path d="M235.956 163.908C235.956 174.961 183.974 183.922 119.851 183.922C55.7278 183.922 9.83203 154.947 9.83203 143.894C9.83203 132.84 55.7278 143.894 119.851 143.894C183.974 143.894 235.956 152.854 235.956 163.908Z" fill="#DFEAFF"/>
<path d="M102.106 132.759L99.7548 147.771C99.7548 147.771 88.1792 153.92 96.3183 154.101C104.457 154.282 142.801 154.101 142.801 154.101C142.801 154.101 150.217 154.101 138.46 147.59L136.109 131.854L102.106 132.759Z" fill="white"/>
<path d="M190.137 28.1267H47.7144C44.7396 28.1267 42.3281 30.5382 42.3281 33.513V129.452C42.3281 132.427 44.7396 134.839 47.7144 134.839H190.137C193.112 134.839 195.523 132.427 195.523 129.452V33.513C195.523 30.5382 193.112 28.1267 190.137 28.1267Z" fill="#3A3768"/>
<path d="M187.37 33.8242H50.4844C48.8275 33.8242 47.4844 35.1674 47.4844 36.8242V110.768C47.4844 112.425 48.8275 113.768 50.4844 113.768H187.37C189.027 113.768 190.37 112.425 190.37 110.768V36.8242C190.37 35.1674 189.027 33.8242 187.37 33.8242Z" fill="white"/>
<path d="M118.928 32.1964C119.427 32.1964 119.832 31.7915 119.832 31.292C119.832 30.7926 119.427 30.3877 118.928 30.3877C118.428 30.3877 118.023 30.7926 118.023 31.292C118.023 31.7915 118.428 32.1964 118.928 32.1964Z" fill="#F2F2F2"/>
<path d="M195.523 120.098V129.452C195.523 130.16 195.384 130.86 195.113 131.514C194.843 132.167 194.446 132.761 193.946 133.261C193.446 133.761 192.852 134.158 192.198 134.429C191.545 134.699 190.844 134.839 190.137 134.839H47.7144C47.007 134.839 46.3066 134.699 45.653 134.429C44.9995 134.158 44.4057 133.761 43.9055 133.261C43.4053 132.761 43.0086 132.167 42.7379 131.514C42.4673 130.86 42.328 130.16 42.3281 129.452V120.098H195.523Z" fill="white"/>
<path d="M158.897 163.868V165.677H61.5898V164.23L61.7237 163.868L64.1219 157.357H156.907L158.897 163.868Z" fill="white"/>
<path d="M196.342 162.097C196.164 162.855 195.495 163.655 193.983 164.411C188.557 167.124 177.524 163.687 177.524 163.687C177.524 163.687 169.023 162.24 169.023 158.442C169.262 158.279 169.511 158.131 169.769 157.999C172.05 156.792 179.614 153.814 193.025 158.125C194.013 158.435 194.896 159.014 195.575 159.796C196.118 160.432 196.544 161.239 196.342 162.097Z" fill="white"/>
<path d="M196.343 162.097C189.701 164.642 183.781 164.832 177.706 160.612C174.642 158.485 171.859 157.959 169.77 157.999C172.051 156.792 179.615 153.814 193.026 158.125C194.014 158.435 194.897 159.014 195.576 159.796C196.119 160.432 196.545 161.239 196.343 162.097Z" fill="white"/>
<path d="M188.015 160.612C189.314 160.612 190.367 160.289 190.367 159.889C190.367 159.489 189.314 159.166 188.015 159.166C186.717 159.166 185.664 159.489 185.664 159.889C185.664 160.289 186.717 160.612 188.015 160.612Z" fill="#CEDDF9"/>
<path d="M118.925 130.95C120.823 130.95 122.361 129.412 122.361 127.514C122.361 125.616 120.823 124.077 118.925 124.077C117.027 124.077 115.488 125.616 115.488 127.514C115.488 129.412 117.027 130.95 118.925 130.95Z" fill="#F2F2F2"/>
<path d="M158.897 163.868V165.677H61.5898V164.23L61.7237 163.868H158.897Z" fill="white"/>
<path d="M203.902 71.3169C201.461 72.1576 200.876 75.4871 201.716 77.9289C202.556 80.3708 204.335 82.3963 205.23 84.8185C205.638 86.0401 205.931 87.2973 206.105 88.5735C206.617 91.6121 207.129 94.7042 206.735 97.7602C206.362 100.659 205.187 103.392 203.877 106.005C201.339 111.064 198.252 115.828 194.672 120.212" stroke="#3A3768" stroke-width="2"/>
<path d="M222.612 42.7701C222.612 53.5004 213.913 70.6259 203.183 70.6259C192.452 70.6259 183.754 53.5004 183.754 42.7701C183.754 37.6173 185.801 32.6755 189.444 29.0319C193.088 25.3883 198.03 23.3413 203.183 23.3413C208.336 23.3413 213.277 25.3883 216.921 29.0319C220.565 32.6755 222.612 37.6173 222.612 42.7701Z" fill="#FC6464"/>
<path d="M205.058 72.4985C203.809 71.6973 202.561 71.6973 201.312 72.4985V68.7532H205.058V72.4985Z" fill="#FC6464"/>
<path d="M201.32 70.5466C201.902 70.8413 202.546 70.9935 203.198 70.9908C203.85 70.9882 204.493 70.8307 205.072 70.5312" stroke="#3A3768" stroke-width="2"/>
<path opacity="0.4" d="M211.261 39.4929C213.523 39.4929 215.357 37.292 215.357 34.5771C215.357 31.8622 213.523 29.6614 211.261 29.6614C208.998 29.6614 207.164 31.8622 207.164 34.5771C207.164 37.292 208.998 39.4929 211.261 39.4929Z" fill="white"/>
<path d="M141.292 67.5449V87.8038L135.937 98.6088V98.61L135.767 98.9511L121.588 98.0147L116.138 97.6542L103.488 96.8186V72.5854L116.138 72.9422L121.795 73.102L136.106 73.5063L141.292 67.5449Z" fill="#FC6464"/>
<path opacity="0.1" d="M141.293 68.7402V87.8039L139.985 90.4434V90.4444L138.643 93.1499V93.1508L135.938 98.6089L136.24 78.35L136.301 74.2634L138.874 71.4174V71.4165L139.995 70.1759L141.293 68.7402Z" fill="black"/>
<path d="M142.021 62.1653V69.2414L141.294 70.3996L139.995 72.4691L138.844 74.3022L136.302 78.353L136.24 78.35L102.375 76.6082V69.629L102.46 69.537L106.504 65.1604L107.967 63.5766L110.614 60.7112L142.021 62.1653Z" fill="#FC6464"/>
<path opacity="0.1" d="M136.302 71.3739V78.3531L102.375 76.6083V69.6291L102.46 69.5371L136.302 71.3739Z" fill="black"/>
<path opacity="0.15" d="M142.02 62.1653V69.2414L136.301 78.353V71.3738L142.02 62.1653Z" fill="black"/>
<path d="M139.999 65.421L139.996 70.1757L139.995 72.469L139.985 90.4432V90.4442L138.644 93.1497L138.845 74.3021L138.874 71.4172V71.4163L138.92 67.1581L106.504 65.1602L107.967 63.5764L139.999 65.421Z" fill="white"/>
<path d="M124.089 65.6548L121.818 70.5876L121.797 73.1021L121.591 98.0148L116.141 97.6543V70.2592L119.049 65.6548H124.089Z" fill="white"/>
<path d="M116.609 65.9867C115.296 66.4233 113.886 66.4729 112.546 66.1293C112.286 66.0788 112.041 65.9654 111.834 65.7989C111.611 65.5528 111.459 65.2511 111.393 64.9256C111.156 64.2532 111.025 63.5481 111.004 62.8354C111.02 62.1239 111.292 61.3812 111.873 60.9694C111.991 60.8981 112.102 60.815 112.203 60.7215C112.324 60.5687 112.411 60.3917 112.459 60.2026C112.856 59.018 113.626 57.7671 114.86 57.5775C116 57.4025 117.037 58.1982 117.915 58.9453L119.841 60.5849C120.055 60.0103 120.438 59.5137 120.939 59.1604C121.44 58.8071 122.036 58.6136 122.649 58.6052C123.262 58.5969 123.863 58.7741 124.374 59.1136C124.884 59.4531 125.28 59.9391 125.51 60.5077C126.677 59.1925 128.149 58.1828 129.796 57.5667C130.161 57.4307 130.59 57.32 130.922 57.5225C131.128 57.6742 131.284 57.8834 131.371 58.1238C131.895 59.2718 132.179 60.5149 132.206 61.7767C132.341 61.7307 132.487 61.7308 132.621 61.7772C132.756 61.8237 132.871 61.9137 132.949 62.033C133.098 62.2762 133.183 62.5533 133.196 62.8383C133.247 63.2786 133.273 63.7216 133.273 64.165C133.273 64.6325 133.229 65.1375 132.925 65.4921C132.531 65.9503 131.851 65.9987 131.247 66.0131C131.538 66.2712 131.396 66.7911 131.074 67.0095C130.753 67.228 130.337 67.232 129.948 67.2283C128.449 67.2137 126.854 67.1711 125.607 66.3389C125.115 66.0103 124.702 65.5728 124.209 65.2461C122.999 64.4455 121.48 64.4072 120.079 64.4735C118.816 64.5333 117.812 65.5837 116.609 65.9867Z" fill="#CEDDF9"/>
<path d="M116.331 65.6548C116.331 65.6548 103.827 67.3996 102.082 74.9603L104.699 74.5726L106.541 77.8683C106.541 77.8683 108.48 70.5014 114.199 68.7566C119.918 67.0118 121.953 66.7211 121.953 66.7211C121.953 66.7211 125.927 67.6904 129.514 79.2254L131.55 76.4143L135.136 77.1898C135.136 77.1898 132.519 68.175 125.443 65.6548L116.331 65.6548Z" fill="white"/>
</svg>
