<svg width="697" height="494" viewBox="0 0 697 494" fill="none" xmlns="http://www.w3.org/2000/svg">
<g clip-path="url(#clip0)">
<path opacity="0.1" d="M565.81 494C608.166 494 642.502 489.578 642.502 484.123C642.502 478.668 608.166 474.246 565.81 474.246C523.454 474.246 489.117 478.668 489.117 484.123C489.117 489.578 523.454 494 565.81 494Z" fill="#FC6464"/>
<path opacity="0.1" d="M8.72992 213.444H72.7444V300.746H13.4164C13.2587 301.642 13.1073 302.545 12.9433 303.447H72.7444V373.854C72.6372 373.823 72.5425 373.785 72.4416 373.747C70.7512 373.078 69.0734 372.371 67.3956 371.614L66.3234 371.128C64.6414 370.333 62.9594 369.491 61.2774 368.604C60.6908 368.294 60.1042 367.972 59.5239 367.644C50.1863 362.411 41.7035 355.779 34.3698 347.979C34.1553 347.77 33.9535 347.55 33.739 347.348C32.7172 346.237 31.7143 345.113 30.743 343.965L29.6707 342.703C28.5227 341.295 27.4126 339.85 26.3341 338.386C26.1764 338.171 26.025 337.957 25.861 337.755C21.4745 331.669 17.8322 325.079 15.0122 318.127C14.9239 317.919 14.8482 317.691 14.7662 317.496C13.8999 315.266 13.1325 313.015 12.4639 310.743C12.1738 309.79 11.8963 308.849 11.6566 307.859C11.5683 307.568 11.4926 307.284 11.4232 307C7.84057 293.008 7.41797 278.474 7.41797 264.04C7.41797 262.355 7.41797 260.664 7.41797 258.991C7.41797 253.153 7.48735 247.278 7.58827 241.408C7.58827 239.887 7.65134 238.373 7.68288 236.845C7.77119 232.97 7.89734 229.095 8.06133 225.22C8.09918 224.141 8.14963 223.068 8.2064 221.995C8.2064 221.377 8.23794 220.758 8.30101 220.14C8.45239 217.893 8.57854 215.665 8.72992 213.444Z" fill="#FC6464"/>
<path opacity="0.1" d="M72.7445 116.239H37.6309C43.3388 107.3 49.5753 98.7095 56.3073 90.5145C61.5235 84.1024 67.03 77.8543 72.7445 71.8335V116.239Z" fill="#FC6464"/>
<path opacity="0.1" d="M72.7442 118.94V210.742H8.93164C8.93164 210.477 8.97579 210.206 8.99471 209.941C9.05148 209.215 9.10825 208.489 9.17132 207.77C9.2407 206.924 9.31639 206.072 9.39839 205.245C9.48039 204.419 9.56869 203.409 9.66331 202.494C9.75792 201.579 9.84622 200.651 9.95345 199.736C10.0607 198.821 10.1553 197.905 10.2688 196.997C10.3824 196.088 10.4833 195.166 10.6031 194.258C10.6977 193.5 10.7986 192.749 10.8996 191.992C11.0446 190.925 11.196 189.852 11.36 188.792C11.36 188.634 11.4042 188.47 11.4294 188.319C12.5806 180.557 14.1493 172.863 16.1285 165.27C18.2002 157.306 20.8457 149.501 24.0443 141.919C27.4438 133.987 31.4241 126.317 35.9528 118.972L72.7442 118.94Z" fill="#FC6464"/>
<path opacity="0.1" d="M88.0273 213.437V300.746H224.754V213.437H88.0273ZM88.0273 303.441V378.417C88.8095 378.581 89.5853 378.739 90.3548 378.872C91.4018 379.074 92.4426 379.257 93.5085 379.414C93.7104 379.446 93.9185 379.478 94.1393 379.496C94.5556 379.566 94.9845 379.623 95.4008 379.679C96.4541 379.825 97.5012 379.945 98.5545 380.039C99.0528 380.09 99.5574 380.134 100.062 380.172L101.279 380.266C101.942 380.317 102.598 380.355 103.247 380.374C103.651 380.374 104.055 380.412 104.471 380.424C104.786 380.424 105.102 380.424 105.43 380.424C105.758 380.424 106.224 380.424 106.622 380.424C107.164 380.424 107.707 380.424 108.243 380.424H108.968C109.511 380.424 110.053 380.424 110.589 380.374H110.627C110.999 380.374 111.378 380.374 111.756 380.323C111.861 380.329 111.966 380.329 112.071 380.323C112.387 380.323 112.702 380.323 113.005 380.279H113.226L115.339 380.115C116.032 380.052 116.733 379.97 117.439 379.894L118.877 379.724C124.728 378.903 130.513 377.672 136.191 376.038C148.945 372.478 161.421 367.499 174.168 363.851C190.65 359.149 208.859 356.839 224.786 362.589V303.441H88.0273ZM224.754 116.239V0.00617079C209.785 -0.156104 194.856 1.59575 180.331 5.21919C145.709 13.9223 114.645 32.799 88.0273 56.9076V116.233H94.8899V118.927H88.0273V210.742H224.754V118.934H123.065V116.239H224.754ZM400.373 76.9771C391.807 76.6742 383.292 73.9604 375.591 69.7698C360.863 61.7546 349.1 49.3784 335.955 38.9334C308.644 17.1788 274.772 4.05163 240.025 0.795066V116.239H435.209L435.695 115.728L400.373 76.9771ZM418.154 73.8215L437.007 94.5222V68.3939C430.693 69.1765 425.161 71.0383 418.179 73.7963L418.154 73.8215ZM437.007 397.035V303.441H396.834C396.727 303.043 396.62 302.639 396.494 302.235C396.614 302.639 396.715 303.043 396.828 303.441H240.05V371.128C241.538 372.232 243.008 373.394 244.465 374.574C246.036 375.836 247.587 377.168 249.145 378.474L250.716 379.774C251.466 380.405 252.223 381.036 252.986 381.63C254.5 382.858 256.029 384.07 257.572 385.265C258.335 385.896 259.117 386.464 259.893 387.057C272.21 396.48 285.202 404.983 298.766 412.498C301.806 414.18 304.874 415.823 307.969 417.427C310.031 418.48 312.106 419.528 314.188 420.544C317.316 422.072 320.47 423.544 323.649 424.962C352.957 438.126 383.949 447.159 415.738 451.803C422.798 452.847 429.886 453.667 437 454.265V397.029H437.631L437.007 397.035ZM240.05 118.934V210.742H437.032V118.934H240.05ZM240.05 213.437V300.746H437.032V213.437H240.05ZM452.321 68.2803V97.4253L476.384 71.0068C468.412 69.7193 460.391 68.8 452.321 68.2488V68.2803ZM452.321 213.469V300.746H643.91V213.437L452.321 213.469ZM643.21 403.965L643.885 303.441H452.321V455.268C464.662 455.787 477.021 455.64 489.346 454.827H489.561C495.447 454.456 501.307 453.918 507.139 453.211H507.272C538.387 449.587 568.812 441.464 597.595 429.096L643.21 403.965ZM680.853 227.814C680.134 226.116 679.384 224.431 678.62 222.765C677.195 219.609 675.687 216.542 674.136 213.475H659.187V300.746H696.981C696.963 276.031 690.712 250.787 680.872 227.782L680.853 227.814ZM659.187 303.472V389.935C669.834 379.724 678.829 368.042 685.306 354.687C693.096 338.606 696.66 321.194 696.95 303.46L659.187 303.472ZM659.187 188.028V210.749H672.736C668.637 202.927 664.121 195.332 659.206 187.997L659.187 188.028ZM529.253 85.4088C528.257 85.0302 527.26 84.6452 526.257 84.2728C515.68 80.3645 504.872 77.1144 493.894 74.541L457.071 114.977L456.364 115.728L456.837 116.245H587.894C569.641 103.674 549.963 93.312 529.272 85.3773L529.253 85.4088ZM591.735 118.965H455.008L452.321 121.427V210.742H475.873H475.911H643.936V167.479C628.736 149.086 611.193 132.765 591.754 118.934L591.735 118.965Z" fill="#FC6464"/>
<path opacity="0.1" d="M72.7442 165.245V210.742H8.93164C8.93164 210.477 8.97579 210.206 8.99471 209.941C9.05148 209.215 9.10825 208.489 9.17132 207.77C9.2407 206.924 9.31639 206.072 9.39839 205.245C9.48039 204.418 9.56869 203.409 9.66331 202.494C9.75792 201.578 9.84622 200.651 9.95345 199.736C10.0607 198.82 10.1553 197.905 10.2688 196.997C10.3824 196.088 10.4833 195.166 10.6031 194.258C10.6977 193.5 10.7986 192.749 10.8996 191.992C11.0446 190.925 11.196 189.852 11.36 188.792C11.36 188.634 11.4042 188.47 11.4294 188.319C12.5806 180.557 14.1493 172.863 16.1285 165.27L72.7442 165.245Z" fill="#FC6464"/>
<path opacity="0.1" d="M8.72992 213.444H72.7444V300.746H13.4164C13.2587 301.642 13.1073 302.545 12.9433 303.447H72.7444V373.854C72.6372 373.823 72.5425 373.785 72.4416 373.747C70.7512 373.078 69.0734 372.371 67.3956 371.614L66.3234 371.128C64.6414 370.333 62.9594 369.491 61.2774 368.604C60.6908 368.294 60.1042 367.972 59.5239 367.644C50.1863 362.411 41.7035 355.779 34.3698 347.979C34.1553 347.77 33.9535 347.55 33.739 347.348C32.7172 346.237 31.7143 345.113 30.743 343.965L29.6707 342.703C28.5227 341.295 27.4126 339.85 26.3341 338.386C26.1764 338.171 26.025 337.957 25.861 337.755C21.4745 331.669 17.8322 325.079 15.0122 318.127C14.9239 317.919 14.8482 317.691 14.7662 317.496C13.8999 315.266 13.1325 313.015 12.4639 310.743C12.1738 309.79 11.8963 308.849 11.6566 307.859C11.5683 307.568 11.4926 307.284 11.4232 307C7.84057 293.008 7.41797 278.474 7.41797 264.04C7.41797 262.355 7.41797 260.664 7.41797 258.991C7.41797 253.153 7.48735 247.278 7.58827 241.408C7.58827 239.887 7.65134 238.373 7.68288 236.845C7.77119 232.97 7.89734 229.095 8.06133 225.22C8.09918 224.141 8.14963 223.068 8.2064 221.995C8.2064 221.377 8.23794 220.758 8.30101 220.14C8.45239 217.893 8.57854 215.665 8.72992 213.444Z" fill="#FC6464"/>
<path opacity="0.1" d="M136.16 132.08V210.742H88.0273V132.08H94.8899V105.447H123.059V132.08H136.16Z" fill="#FC6464"/>
<path opacity="0.1" d="M136.159 213.437H88.0332V300.74H136.159V213.437Z" fill="#FC6464"/>
<path opacity="0.1" d="M88.0273 303.447H136.16V376.025C130.482 377.658 124.696 378.887 118.846 379.705L117.407 379.882C116.701 379.964 116.001 380.033 115.307 380.102C114.613 380.172 113.894 380.222 113.194 380.266H112.973C112.671 380.266 112.343 380.304 112.046 380.311H111.724C111.346 380.311 110.968 380.349 110.589 380.361C110.053 380.393 109.517 380.399 108.968 380.405C108.735 380.405 108.514 380.405 108.281 380.405C107.738 380.405 107.202 380.405 106.66 380.405H105.467C105.146 380.405 104.837 380.405 104.502 380.405L103.285 380.361C102.654 380.361 101.973 380.292 101.317 380.248L100.106 380.159L98.5986 380.02C97.539 379.926 96.4856 379.806 95.4449 379.661L94.1834 379.484L93.5527 379.396C92.4993 379.231 91.4586 379.055 90.3989 378.853C89.6231 378.72 88.8536 378.556 88.0715 378.398L88.0273 303.447Z" fill="#FC6464"/>
<path opacity="0.1" d="M437.032 122.79H397.346V210.736H437.032V122.79Z" fill="#FC6464"/>
<path opacity="0.1" d="M437.037 213.437V300.746H240.049V263.087H344.973V285.302H397.344V213.437H437.037Z" fill="#FC6464"/>
<path opacity="0.1" d="M437.662 397.054H437.031V454.328C429.925 453.726 422.839 452.908 415.775 451.873C383.97 447.214 352.966 438.162 323.648 424.975C315.183 421.163 306.891 417.002 298.771 412.491C285.208 404.973 272.213 396.47 259.892 387.051C256.797 384.678 253.742 382.25 250.727 379.768C248.64 378.045 246.564 376.278 244.464 374.561C243.007 373.381 241.537 372.22 240.049 371.109V303.447H396.821C396.714 303.043 396.606 302.639 396.493 302.242C396.613 302.639 396.726 303.043 396.833 303.447H437.031V397.016C437.245 397.023 437.454 397.042 437.662 397.054Z" fill="#FC6464"/>
<path opacity="0.1" d="M540.536 116.239H514.676V108.199H526.269V84.2478C527.274 84.6139 528.275 84.9904 529.271 85.3775V108.199H540.536V116.239Z" fill="#FC6464"/>
<path opacity="0.1" d="M602.842 210.742H475.885C475.885 210.742 475.885 210.742 475.929 210.774L475.872 210.742H452.32V122.796H458.994V187.801H489.49V149.303H514.682V118.94H540.543V149.328H565.735V187.827H602.842V210.742Z" fill="#FC6464"/>
<path opacity="0.1" d="M452.32 213.437V300.746H602.842V213.437H452.32ZM643.702 403.517L643.91 334.41H602.842V303.485H452.32V455.268C464.661 455.787 477.02 455.64 489.345 454.827H489.56C495.447 454.456 501.306 453.918 507.139 453.211H507.271C538.386 449.588 568.811 441.465 597.594 429.096" fill="#FC6464"/>
<path opacity="0.1" d="M661.86 303.447H696.974C696.665 321.175 693.107 338.588 685.324 354.668C678.846 368.029 669.845 379.711 659.211 389.916V334.378H661.86V303.447Z" fill="#FC6464"/>
<path opacity="0.1" d="M696.994 300.746H661.861V227.782H680.872C690.712 250.787 696.962 276.031 696.994 300.746Z" fill="#FC6464"/>
<path opacity="0.1" d="M437.038 147.24H415.775V174.813H437.038V147.24Z" fill="#FC6464"/>
<path opacity="0.1" d="M437.038 204.393H415.775V210.742H437.038V204.393Z" fill="#FC6464"/>
<path opacity="0.1" d="M437.038 213.437H415.775V231.961H437.038V213.437Z" fill="#FC6464"/>
<path opacity="0.1" d="M437.038 261.547H415.775V289.121H437.038V261.547Z" fill="#FC6464"/>
<path opacity="0.1" d="M437.038 318.701H415.775V346.275H437.038V318.701Z" fill="#FC6464"/>
<path opacity="0.1" d="M437.032 397.016C437.246 397.016 437.454 397.016 437.662 397.054H437.032V403.46H415.775V375.855H437.032V397.016Z" fill="#FC6464"/>
<path opacity="0.1" d="M437.032 432.996V454.296C429.925 453.695 422.84 452.876 415.775 451.841V432.996H437.032Z" fill="#FC6464"/>
<path opacity="0.1" d="M331.173 298.72H240.049V300.746H331.173V298.72Z" fill="#FC6464"/>
<path opacity="0.1" d="M331.173 303.441H240.049V311.203H331.173V303.441Z" fill="#FC6464"/>
<path opacity="0.1" d="M331.173 336.65H240.049V349.134H331.173V336.65Z" fill="#FC6464"/>
<path opacity="0.1" d="M331.168 374.58V387.064H259.893C256.798 384.699 253.741 382.271 250.722 379.78C248.635 378.058 246.566 376.29 244.459 374.58H331.168Z" fill="#FC6464"/>
<path opacity="0.1" d="M331.167 412.504V424.975H323.642C315.186 421.159 306.895 416.995 298.771 412.485L331.167 412.504Z" fill="#FC6464"/>
<path opacity="0.1" d="M507.29 221.9H489.352V239.849H507.29V221.9Z" fill="#FC6464"/>
<path opacity="0.1" d="M118.89 138.271H100.951V156.22H118.89V138.271Z" fill="#FC6464"/>
<path opacity="0.1" d="M118.89 179.963H100.951V197.912H118.89V179.963Z" fill="#FC6464"/>
<path opacity="0.1" d="M118.89 221.654H100.951V239.603H118.89V221.654Z" fill="#FC6464"/>
<path opacity="0.1" d="M118.89 263.34H100.951V281.288H118.89V263.34Z" fill="#FC6464"/>
<path opacity="0.1" d="M118.89 305.031H100.951V322.98H118.89V305.031Z" fill="#FC6464"/>
<path opacity="0.1" d="M118.89 346.723H100.951V364.672H118.89V346.723Z" fill="#FC6464"/>
<path opacity="0.1" d="M575.77 221.9H557.832V239.849H575.77V221.9Z" fill="#FC6464"/>
<path opacity="0.1" d="M507.29 266.173H489.352V284.122H507.29V266.173Z" fill="#FC6464"/>
<path opacity="0.1" d="M575.77 266.173H557.832V284.122H575.77V266.173Z" fill="#FC6464"/>
<path opacity="0.1" d="M507.29 310.44H489.352V328.389H507.29V310.44Z" fill="#FC6464"/>
<path opacity="0.1" d="M575.77 310.44H557.832V328.389H575.77V310.44Z" fill="#FC6464"/>
<path opacity="0.1" d="M507.29 354.713H489.352V372.662H507.29V354.713Z" fill="#FC6464"/>
<path opacity="0.1" d="M575.77 354.713H557.832V372.662H575.77V354.713Z" fill="#FC6464"/>
<path opacity="0.1" d="M507.29 398.986H489.352V416.935H507.29V398.986Z" fill="#FC6464"/>
<path opacity="0.1" d="M575.77 398.986H557.832V416.935H575.77V398.986Z" fill="#FC6464"/>
<path opacity="0.1" d="M489.352 454.827V443.252H507.284V453.179L489.352 454.827Z" fill="#FC6464"/>
<path opacity="0.1" d="M11.3535 188.306V198.574H72.7441V188.306H11.3535ZM17.4718 197.931H12.4636V188.937H17.5096L17.4718 197.931ZM23.5837 197.931H18.5377V188.937H23.5837V197.931ZM29.683 197.931H24.637V188.937H29.683V197.931ZM35.7949 197.931H30.7553V188.937H35.8012L35.7949 197.931ZM41.9006 197.931H36.8546V188.937H41.9006V197.931ZM48.0125 197.931H42.9665V188.937H48.0125V197.931ZM54.1244 197.931H49.0785V188.937H54.1244V197.931ZM60.23 197.931H55.1841V188.937H60.23V197.931ZM66.3357 197.931H61.2897V188.937H66.3357V197.931ZM72.4413 197.931H67.3953V188.937H72.4413V197.931Z" fill="#FC6464"/>
<path opacity="0.1" d="M11.3535 218.183V228.452H72.7441V218.183H11.3535ZM17.4718 227.802H12.4636V218.833H17.5096L17.4718 227.802ZM23.5837 227.802H18.5377V218.833H23.5837V227.802ZM29.683 227.802H24.637V218.833H29.683V227.802ZM35.7949 227.802H30.7553V218.833H35.8012L35.7949 227.802ZM41.9006 227.802H36.8546V218.833H41.9006V227.802ZM48.0125 227.802H42.9665V218.833H48.0125V227.802ZM54.1244 227.802H49.0785V218.833H54.1244V227.802ZM60.23 227.802H55.1841V218.833H60.23V227.802ZM66.3357 227.802H61.2897V218.833H66.3357V227.802ZM72.4413 227.802H67.3953V218.833H72.4413V227.802Z" fill="#FC6464"/>
<path opacity="0.1" d="M11.3535 248.073V258.36H72.7441V248.073H11.3535ZM17.4718 257.691H12.4636V248.716H17.5096L17.4718 257.691ZM23.5837 257.691H18.5377V248.716H23.5837V257.691ZM29.683 257.691H24.637V248.716H29.683V257.691ZM35.7949 257.691H30.7553V248.716H35.8012L35.7949 257.691ZM41.9006 257.691H36.8546V248.716H41.9006V257.691ZM48.0125 257.691H42.9665V248.716H48.0125V257.691ZM54.1244 257.691H49.0785V248.716H54.1244V257.691ZM60.23 257.691H55.1841V248.716H60.23V257.691ZM66.3357 257.691H61.2897V248.716H66.3357V257.691ZM72.4413 257.691H67.3953V248.716H72.4413V257.691Z" fill="#FC6464"/>
<path opacity="0.1" d="M11.3535 277.963V288.218H72.7441V277.963H11.3535ZM17.4718 287.581H12.4636V278.6H17.5096L17.4718 287.581ZM23.5837 287.581H18.5377V278.6H23.5837V287.581ZM29.683 287.581H24.637V278.6H29.683V287.581ZM35.7949 287.581H30.7553V278.6H35.8012L35.7949 287.581ZM41.9006 287.581H36.8546V278.6H41.9006V287.581ZM48.0125 287.581H42.9665V278.6H48.0125V287.581ZM54.1244 287.581H49.0785V278.6H54.1244V287.581ZM60.23 287.581H55.1841V278.6H60.23V287.581ZM66.3357 287.581H61.2897V278.6H66.3357V287.581ZM72.4413 287.581H67.3953V278.6H72.4413V287.581Z" fill="#FC6464"/>
<path opacity="0.1" d="M11.6191 307.846C11.8651 308.812 12.1427 309.777 12.4328 310.73V308.49H17.4788V317.464H14.7792C14.8612 317.672 14.9432 317.9 15.0252 318.095H72.7448V307.846H11.6191ZM23.6033 317.464H18.5574V308.49H23.6033V317.464ZM29.7026 317.464H24.6567V308.49H29.7026V317.464ZM35.8146 317.464H30.756V308.49H35.802L35.8146 317.464ZM41.9202 317.464H36.8742V308.49H41.9202V317.464ZM48.0321 317.464H42.9862V308.49H48.0321V317.464ZM54.1441 317.464H49.0981V308.49H54.1441V317.464ZM60.2497 317.464H55.2037V308.49H60.2497V317.464ZM66.3553 317.464H61.3093V308.49H66.3553V317.464ZM72.4609 317.464H67.415V308.49H72.4609V317.464Z" fill="#FC6464"/>
<path opacity="0.1" d="M25.873 337.736C26.0307 337.938 26.1821 338.165 26.3461 338.367H29.6828V342.677C30.0423 343.106 30.3955 343.536 30.7613 343.939V338.341H35.8073V347.348H33.7637C33.9655 347.556 34.1611 347.777 34.3944 347.979H72.7627V337.736H25.873ZM41.9003 347.348H36.8543V338.379H41.9003V347.348ZM48.0122 347.348H42.9663V338.379H48.0122V347.348ZM54.1242 347.348H49.0782V338.379H54.1242V347.348ZM60.2298 347.348H55.1838V338.379H60.2298V347.348ZM66.3354 347.348H61.2895V338.379H66.3354V347.348ZM72.4411 347.348H67.3951V338.379H72.4411V347.348Z" fill="#FC6464"/>
<path opacity="0.1" d="M59.5488 367.619C60.1228 367.947 60.7094 368.25 61.3023 368.578V368.263H66.3483V371.103L67.4206 371.601V368.263H72.4665V373.722C72.5633 373.77 72.6647 373.808 72.7693 373.835V367.619H59.5488Z" fill="#FC6464"/>
<path opacity="0.1" d="M475.885 210.743H475.923H475.885ZM437.031 397.01H437.662H437.031ZM396.493 302.235C396.613 302.639 396.714 303.043 396.827 303.441C396.726 303.043 396.619 302.639 396.493 302.235ZM475.885 210.724H475.923H475.885ZM94.9141 116.22V118.915H123.09V116.22H94.9141ZM437.031 397.01H437.662H437.031ZM396.493 302.235C396.613 302.639 396.714 303.043 396.827 303.441C396.726 303.043 396.619 302.639 396.493 302.235ZM475.885 210.724H475.923H475.885ZM437.031 396.991H437.662H437.031ZM396.493 302.235C396.613 302.639 396.714 303.043 396.827 303.441C396.726 303.043 396.619 302.639 396.493 302.235Z" fill="#FC6464"/>
<path d="M216.012 484.836C216.012 484.836 205.92 488.547 198.981 489.014C195.298 489.26 193.362 487.001 192.365 484.823C191.821 483.613 191.469 482.325 191.324 481.005L192.226 471.002L192.706 465.675L207.446 461.844L209.534 468.231L209.729 468.717C210.568 470.851 213.93 479.528 213.829 481.34C213.825 481.803 213.915 482.263 214.092 482.692C214.27 483.12 214.532 483.508 214.864 483.833C215.202 484.215 215.588 484.552 216.012 484.836Z" fill="white"/>
<path d="M284.946 479.749C284.971 480.053 284.941 480.359 284.857 480.652C284.857 480.652 263.273 484.255 258.858 480.652C257.613 479.599 256.162 478.818 254.598 478.36C253.034 477.901 251.391 477.775 249.775 477.989C249.775 477.989 241.424 478.216 240.03 475.464C239.45 474.309 239.601 472.069 239.961 469.86C240.328 467.79 240.816 465.744 241.424 463.732L241.759 463.467L243.745 461.87L267.007 461.182H267.184C267.07 465.941 275.081 471.4 275.081 471.4C283.59 474.555 284.845 478.121 284.946 479.749Z" fill="white"/>
<g opacity="0.1">
<path opacity="0.1" d="M206.039 136.851C204.588 135.255 202.608 134.188 201.277 132.497C200.156 130.999 199.516 129.197 199.441 127.328C199.243 129.664 199.895 131.992 201.277 133.885C202.608 135.583 204.588 136.649 206.039 138.246C207.432 139.808 208.268 141.788 208.417 143.876C208.513 142.605 208.352 141.328 207.944 140.121C207.535 138.914 206.887 137.802 206.039 136.851Z" fill="black"/>
<path opacity="0.1" d="M256.228 117.798C255.856 119.344 255.194 120.815 254.891 122.374C254.712 123.415 254.646 124.473 254.696 125.529C254.717 124.928 254.782 124.329 254.891 123.737C255.194 122.172 255.856 120.707 256.228 119.161C256.445 118.308 256.516 117.425 256.436 116.548C256.397 116.969 256.328 117.387 256.228 117.798Z" fill="black"/>
</g>
<path opacity="0.1" d="M83.7197 480.021C117.663 480.021 145.18 475.599 145.18 470.144C145.18 464.689 117.663 460.267 83.7197 460.267C49.7763 460.267 22.2598 464.689 22.2598 470.144C22.2598 475.599 49.7763 480.021 83.7197 480.021Z" fill="#FC6464"/>
<path d="M85.6989 280.935H81.7441V370.03H85.6989V280.935Z" fill="#535461"/>
<path d="M110.551 369.759L110.305 373.772L109.951 379.452L109.806 381.813L109.459 387.493L109.308 389.853L108.955 395.533L104.968 459.951C104.795 462.723 103.573 465.324 101.55 467.226C99.528 469.128 96.8572 470.187 94.0818 470.188H73.3555C70.5807 470.187 67.9107 469.128 65.8892 467.226C63.8677 465.324 62.6468 462.722 62.4751 459.951L58.5077 395.489L58.1545 389.809L58.0094 387.449L57.6562 381.769L57.5111 379.408L57.1579 373.728L56.9056 369.714C56.8618 368.942 56.9762 368.168 57.2418 367.442C57.5074 366.715 57.9186 366.05 58.4501 365.488C58.9817 364.926 59.6224 364.479 60.333 364.173C61.0436 363.868 61.809 363.711 62.5823 363.712H104.975C105.745 363.719 106.506 363.884 107.21 364.196C107.915 364.508 108.548 364.962 109.07 365.528C109.593 366.095 109.994 366.762 110.248 367.49C110.503 368.218 110.606 368.99 110.551 369.759Z" fill="#3F3D56"/>
<path d="M110.305 373.772L109.952 379.434H57.486L57.1328 373.772H110.305Z" fill="#9D9CB5"/>
<path d="M109.806 381.794L109.459 387.461H57.9841L57.6309 381.794H109.806Z" fill="#9D9CB5"/>
<path d="M109.308 389.828L108.961 395.489H58.4821L58.1289 389.828H109.308Z" fill="#9D9CB5"/>
<path d="M51.0974 314.328C74.1259 331.002 83.7385 357.079 83.7385 357.079C83.7385 357.079 55.9856 356.126 32.9508 339.452C9.91592 322.778 0.322266 296.707 0.322266 296.707C0.322266 296.707 28.0625 297.653 51.0974 314.328Z" fill="#FC6464"/>
<path d="M0.302734 296.707C0.302734 296.707 29.1152 312.706 38.3557 325.953C47.5961 339.2 83.7379 357.079 83.7379 357.079" stroke="#535461" stroke-width="2" stroke-miterlimit="10"/>
<path d="M65.9635 280.739C78.4965 289.809 83.738 304.002 83.738 304.002C83.738 304.002 68.6316 303.485 56.0923 294.416C43.5531 285.347 38.3242 271.146 38.3242 271.146C38.3242 271.146 53.4243 271.664 65.9635 280.739Z" fill="#FC6464"/>
<path d="M38.3242 271.146C38.3242 271.146 54.0046 279.856 59.0316 287.063C64.0587 294.271 83.738 304.002 83.738 304.002" stroke="#535461" stroke-width="2" stroke-miterlimit="10"/>
<path d="M101.935 303.283C87.5348 319.118 84.4883 339.812 84.4883 339.812C84.4883 339.812 104.792 334.826 119.179 318.985C133.567 303.144 136.626 282.456 136.626 282.456C136.626 282.456 116.335 287.448 101.935 303.283Z" fill="#FC6464"/>
<path d="M136.638 282.462C136.638 282.462 117.88 298.695 113.112 309.878C108.343 321.061 84.4883 339.812 84.4883 339.812" stroke="#535461" stroke-width="2" stroke-miterlimit="10"/>
<path d="M630.537 297.71C630.537 297.71 620.124 245.87 624.11 239.42C624.11 239.42 624.255 233.425 624.015 225.782C624.015 225.492 624.015 225.201 624.015 224.905C624.717 225.373 625.448 225.794 626.204 226.167C629.877 228.055 634.094 228.6 638.125 227.707L634.972 224.192C634.215 223.352 633.426 222.443 633.262 221.333C633.098 220.222 633.552 219.231 633.943 218.24C636.94 210.667 637.097 201.143 631.326 195.362C626.45 190.503 625.264 184.229 619.972 179.793C616.106 176.542 613.98 171.777 611.975 167.17C610.278 163.276 608.569 159.351 607.597 155.223C606.84 151.998 606.538 148.66 605.497 145.51C604.456 142.361 602.507 139.3 599.461 137.893C598.376 137.394 597.171 137.11 596.181 136.447C594.881 135.57 594.099 134.144 593.159 132.894C588.385 126.583 572.395 130.3 564.826 132.863C562.769 133.508 560.863 134.564 559.225 135.968L559.295 135.854C559.351 135.76 559.421 135.665 559.484 135.57C558.655 136.241 557.94 137.04 557.365 137.937C556.261 139.685 555.8 141.724 554.879 143.617C553.769 145.857 547.594 152.112 550.25 154.63C550.436 154.799 550.649 154.936 550.88 155.034C551.877 155.449 552.975 155.559 554.034 155.349L553.921 155.621C553.014 157.842 552.549 160.22 552.552 162.62C552.552 172.989 561.099 181.396 571.651 181.396C573.635 181.397 575.607 181.093 577.498 180.493C577.542 180.733 577.58 180.973 577.624 181.213C577.624 181.307 577.656 181.402 577.668 181.497L577.334 181.964C577.317 181.935 577.298 181.907 577.277 181.882L567.374 195.728C565.861 196.795 557.144 203.106 556.652 207.839C556.135 213.021 555.617 219.086 555.617 219.086L555.548 220.386C555.115 220.748 554.609 221.011 554.065 221.158C553.52 221.306 552.95 221.333 552.394 221.238C549.304 220.733 549.304 232.598 549.304 232.598C549.304 232.598 547.247 234.491 545.834 232.85C544.422 231.21 540.688 236.77 540.688 236.77L517.287 237.779L516.751 237.811L515.489 233.904C515.353 233.492 515.061 233.151 514.675 232.953C514.288 232.756 513.84 232.719 513.427 232.85C513.329 232.883 513.234 232.923 513.143 232.97L513.055 233.021L512.891 233.134L512.809 233.21C512.763 233.251 512.721 233.296 512.682 233.343L512.607 233.431L512.569 233.469C512.423 233.67 512.327 233.903 512.287 234.149C512.248 234.394 512.267 234.646 512.342 234.883L513.427 238.234C508.911 239.143 504.293 241.705 508.059 248.761L488.973 245.233L495.148 250.421L527.026 257.003C526.603 257.761 526.881 258.859 528.199 260.405C533.876 267.076 544.22 268.887 548.383 269.354C549.482 271.815 550.855 274.144 552.476 276.297L552.117 282.942C552.117 282.942 541.577 333.596 539.647 336.164C540.621 335.06 541.513 333.885 542.315 332.649C539.256 343.056 534.979 357.3 533.857 359.433C532.053 362.842 530.381 376.631 532.437 377.515C533.068 377.786 534.872 377.654 537.446 377.458V378.6L537.332 421.889C537.332 421.889 537.849 448.44 536.43 450.971C535.011 453.501 534.632 458.809 534.632 458.809C534.632 458.809 528.956 469.279 524.458 473.489C524.428 473.522 524.394 473.551 524.358 473.577L524.219 472.593C524.219 472.593 518.813 479.421 506.854 479.036C506.854 479.036 499.658 483.719 510.33 483.972C521.002 484.224 534.632 483.593 534.632 483.593C534.632 483.593 544.15 469.077 552.123 470.971V481.971H554.564V470.794C555.696 470.048 556.665 469.08 557.412 467.949C558.159 466.817 558.669 465.546 558.91 464.211C559.119 462.836 558.966 461.43 558.466 460.132C557.966 458.833 557.136 457.688 556.059 456.808C555.575 456.371 555.187 455.837 554.918 455.242C554.65 454.647 554.508 454.003 554.501 453.35L554.413 453.426C554.413 453.205 554.356 452.978 554.331 452.744C553.631 447.064 552.754 435.344 555.851 426.673C560.096 414.782 561.382 398.222 558.292 388.364C557.294 385.213 556.475 382.008 555.838 378.765C555.762 378.354 555.693 377.963 555.63 377.597C557.743 377.883 559.835 378.305 561.893 378.859C569.052 380.835 584.714 381.201 598.086 381.093C598.117 381.459 598.155 381.844 598.199 382.229C598.437 384.905 598.936 387.552 599.688 390.131C601.365 395.18 602.135 417.439 602.135 417.439C602.135 417.439 604.298 435.742 603.119 443.189C602.488 447.329 601.857 451.488 601.498 455.666V455.748C601.498 455.748 597.953 465.846 595.361 471.33C595.298 471.469 595.228 471.608 595.165 471.741C594.474 471.804 593.794 471.954 593.14 472.189C593.14 472.189 589.665 479.131 586.202 480.28C582.739 481.428 583.887 485.209 591.728 483.82C599.568 482.432 611.407 481.296 611.407 481.296L611.918 474.215L614.327 471.198L613.697 478.26L616.264 477.755L615.923 469.166L619.865 464.23C619.865 464.23 624.627 459.989 617.55 451.646V451.829C617.475 451.709 617.405 451.583 617.323 451.463V451.425C616.15 449.607 615.217 446.218 616.926 440.204C620.017 429.336 621.814 419.472 621.814 419.472C621.814 419.472 628.715 393.047 620.42 380.544H620.786C619.936 378.785 619.335 376.916 619.001 374.99C618.959 374.763 618.921 374.53 618.887 374.29C625.025 373.937 631.048 372.826 635.962 370.428C635.943 370.402 632.985 307.695 630.537 297.71ZM552.621 253.974V254.1L551.36 254.163L552.621 253.974ZM548.294 254.573C548.087 254.619 547.893 254.712 547.727 254.845C547.184 255.613 546.844 256.505 546.736 257.439L544.769 256.997C544.769 256.997 543.387 256.7 541.4 256.366L540.46 255.419C543.047 255.205 545.734 254.889 548.294 254.573Z" fill="url(#paint0_linear)"/>
<path d="M613.407 469.254L612.656 478.197L615.173 477.692L614.795 467.992L613.407 469.254Z" fill="#1D2366"/>
<path d="M555.991 426.792C552.957 435.439 553.815 447.108 554.496 452.776C554.748 454.871 554.981 456.146 554.981 456.146C554.981 456.146 550.446 466.483 550.068 466.875C549.69 467.266 536.721 475.186 536.721 475.186L527.658 480.482C527.658 480.482 518.461 476.449 522.87 475.06C523.771 474.699 524.582 474.145 525.248 473.438C529.663 469.241 535.208 458.809 535.208 458.809C535.208 458.809 535.586 453.514 536.974 450.996C538.361 448.478 537.857 422.015 537.857 422.015L537.964 378.878V373.255L555.215 373.381C555.324 375.29 555.572 377.189 555.959 379.061C556.578 382.293 557.381 385.488 558.362 388.629C561.402 398.468 560.141 414.946 555.991 426.792Z" fill="#FFB0B1"/>
<path opacity="0.1" d="M554.981 456.146C554.981 456.146 550.446 466.483 550.068 466.875C549.689 467.266 536.721 475.186 536.721 475.186L527.658 480.481C527.658 480.481 518.461 476.449 522.87 475.06C523.771 474.698 524.582 474.145 525.248 473.438L525.639 476.196L528.66 476.07L554.521 452.788C554.748 454.871 554.981 456.146 554.981 456.146Z" fill="black"/>
<path d="M554.667 453.375L528.661 476.815L525.64 476.941L525.009 472.523C525.009 472.523 519.723 479.326 507.979 478.948C507.979 478.948 500.927 483.612 511.378 483.864C521.83 484.117 535.176 483.486 535.176 483.486C535.176 483.486 544.499 468.97 552.301 470.863V481.826H554.698V470.762C555.812 470.012 556.764 469.043 557.494 467.915C558.225 466.787 558.72 465.523 558.949 464.199C559.157 462.834 559.01 461.44 558.523 460.149C558.036 458.858 557.225 457.714 556.168 456.827C555.696 456.384 555.319 455.85 555.061 455.256C554.803 454.663 554.669 454.022 554.667 453.375Z" fill="#1D2366"/>
<path d="M615.803 440.273C614.126 446.269 615.04 449.645 616.188 451.456V451.494C617.661 453.731 618.685 456.232 619.203 458.859L619.304 459.427L607.471 476.688L601.05 479.213C601.05 479.213 590.725 475.685 592.611 474.675C593.084 474.429 593.822 473.116 594.667 471.305C597.19 465.846 600.672 455.773 600.672 455.773V455.691C601.038 451.532 601.618 447.386 602.261 443.258C603.416 435.83 601.296 417.597 601.296 417.597C601.296 417.597 600.539 395.426 598.9 390.383C598.159 387.819 597.667 385.19 597.43 382.532C597.089 379.377 597.014 376.776 597.014 376.776C597.014 376.776 603.813 367.31 616.277 377.534C617.273 378.349 618.15 379.301 618.882 380.361C627.491 392.617 620.559 419.617 620.559 419.617C620.559 419.617 618.825 429.437 615.803 440.273Z" fill="#FFB0B1"/>
<path opacity="0.1" d="M619.324 459.428L607.491 476.689L601.07 479.213C601.07 479.213 590.745 475.685 592.631 474.675C593.104 474.429 593.842 473.117 594.687 471.305C599.058 471.267 601.322 475.433 601.322 475.433L606.86 474.549C606.86 474.549 614.164 460.185 615.804 459.308C617.444 458.431 616.056 452.75 616.056 452.75V451.305C616.101 451.356 616.138 451.412 616.189 451.463V451.501C617.661 453.737 618.685 456.239 619.204 458.866L619.324 459.428Z" fill="black"/>
<path d="M601.701 475.805C601.701 475.805 598.548 470.011 592.505 472.151C592.505 472.151 589.105 479.093 585.706 480.217C582.306 481.34 583.441 485.127 591.124 483.744C598.806 482.362 610.387 481.22 610.387 481.22L610.891 474.158L618.7 464.205C618.7 464.205 623.355 459.983 616.429 451.671V453.116C616.429 453.116 617.817 458.796 616.177 459.674C614.537 460.551 607.258 474.921 607.258 474.921L601.701 475.805Z" fill="#1D2366"/>
<path opacity="0.1" d="M555.233 373.368C555.342 375.277 555.59 377.176 555.977 379.048C548.875 378.007 542.284 378.525 537.963 378.865V373.242L555.233 373.368Z" fill="black"/>
<path opacity="0.1" d="M619.582 381.933C619.582 381.933 609.49 382.425 597.455 382.526C597.115 379.37 597.039 376.77 597.039 376.77C597.039 376.77 603.839 367.304 616.302 377.528C617.299 378.343 618.176 379.295 618.907 380.355C619.103 380.893 619.328 381.42 619.582 381.933Z" fill="black"/>
<path d="M619.583 380.797C619.583 380.797 575.38 382.936 561.907 379.156C548.435 375.375 535.082 378.651 533.07 377.774C531.058 376.896 532.691 363.157 534.457 359.755C536.224 356.353 545.912 321.951 545.912 321.951L555.234 273.317L565.055 270.61L565.749 270.414L582.861 265.694L595.4 262.229C595.4 262.229 620.333 359.629 618.195 366.811C617.419 369.561 617.293 372.455 617.829 375.262C618.156 377.179 618.746 379.041 619.583 380.797Z" fill="#1D2366"/>
<path d="M522.738 240.058C522.738 240.058 513.908 249.524 520.594 254.8C527.28 260.077 531.676 255.305 531.676 255.305L522.738 240.058Z" fill="#C7DAF5"/>
<path opacity="0.1" d="M522.738 240.058C522.738 240.058 513.908 249.524 520.594 254.8C527.28 260.077 531.676 255.305 531.676 255.305L522.738 240.058Z" fill="black"/>
<path d="M594.08 177.817C594.08 177.817 593.046 178.801 591.488 180.253C589.268 182.329 585.982 185.365 583.068 187.908C579.031 191.424 575.7 194.005 576.892 191.802C578.085 189.6 577.858 185.763 577.265 182.172C577.22 181.932 577.183 181.692 577.138 181.458C576.648 178.821 575.997 176.216 575.189 173.658C575.189 173.658 581.711 165.226 585.319 161.9C586.663 160.638 587.603 160.12 587.659 160.998C587.722 162.178 588.605 164.784 589.703 167.549C589.735 167.637 589.766 167.719 589.804 167.807C590.536 169.701 591.362 171.645 592.087 173.323C593.197 175.898 594.08 177.817 594.08 177.817Z" fill="#FFB0B1"/>
<path opacity="0.1" d="M589.804 167.808C589.191 171.106 587.704 174.179 585.498 176.706C583.292 179.233 580.449 181.121 577.265 182.172C576.763 179.291 576.07 176.447 575.189 173.658C575.189 173.658 587.47 157.785 587.659 160.998C587.703 162.216 588.662 164.917 589.804 167.808Z" fill="black"/>
<path opacity="0.1" d="M576.041 186.413L577.63 184.172C577.63 184.172 578.684 190.597 582.557 187.763C586.429 184.93 586.619 209.089 586.619 209.089L582.462 271.273L552.426 269.474L553.277 239.427L556.677 224.28L565.085 202.26L570.087 194.983L576.041 186.413Z" fill="black"/>
<path d="M586.619 209.474L582.835 265.7L582.437 271.658L565.691 270.654L565.06 270.616L552.445 269.859L553.297 239.805L556.697 224.659L565.104 202.639L570.106 195.362L576.061 186.76L577.65 184.526C577.65 184.526 578.703 190.951 582.576 188.117L582.658 188.06C586.443 185.662 586.619 209.474 586.619 209.474Z" fill="#1D2366"/>
<path d="M557.119 219.395C557.119 219.395 555.611 222.551 552.584 222.039C549.556 221.528 549.562 233.399 549.562 233.399C549.562 233.399 547.55 235.293 546.163 233.652C544.775 232.011 541.117 237.559 541.117 237.559L518.195 238.568C518.195 238.568 528.394 243.232 526.395 257.344C526.395 257.344 561.023 255.198 562.158 251.923C563.294 248.647 557.119 219.395 557.119 219.395Z" fill="white"/>
<path opacity="0.03" d="M557.119 219.395C557.119 219.395 555.611 222.551 552.584 222.039C549.556 221.528 549.562 233.399 549.562 233.399C549.562 233.399 547.55 235.293 546.163 233.652C544.775 232.011 541.117 237.559 541.117 237.559L518.195 238.568C518.195 238.568 528.394 243.232 526.395 257.344C526.395 257.344 561.023 255.198 562.158 251.923C563.294 248.647 557.119 219.395 557.119 219.395Z" fill="black"/>
<path d="M490.506 245.984L496.548 251.146L546.289 261.604L540.12 255.305L490.506 245.984Z" fill="white"/>
<path d="M576.136 188.401C575.31 189.663 572.945 196.126 570.97 201.768C569.324 206.47 567.949 210.604 567.949 210.604C567.949 210.604 564.739 231.519 563.099 235.299C561.459 239.08 562.348 253.822 562.348 253.822L556.236 290.232C556.236 290.232 553.467 309.007 549.191 320.222C544.971 331.26 540.272 336.436 540.127 336.6C542.019 334.037 552.332 283.586 552.332 283.586L555.738 219.957C555.738 219.957 556.236 213.911 556.741 208.742C557.245 203.573 567.464 196.517 567.464 196.517L577.316 182.5C578.306 183.825 577.644 186.135 576.136 188.401Z" fill="white"/>
<path d="M550.446 270.175C550.446 270.175 535.939 269.544 528.912 261.099C521.885 252.655 545.154 257.729 545.154 257.729L551.203 259.117L550.446 270.175Z" fill="#FFB0B1"/>
<path opacity="0.1" d="M618.195 366.817C617.418 369.567 617.293 372.461 617.829 375.268C602.004 376.391 585.075 372.112 585.075 372.112C581.921 375.015 573.614 379.294 573.614 379.294L569.085 323.125C566.19 315.552 565.055 275.873 565.055 275.873C565.055 275.873 565.313 273.797 565.685 270.686C565.685 270.61 565.685 270.528 565.717 270.452C566.846 261.762 569.085 245.447 570.183 243.245C571.696 240.215 565.528 232.156 565.528 232.156L568.335 208.205L568.675 205.315C574.592 202.67 579.127 194.226 579.127 194.226L582.608 188.123C586.393 185.693 586.588 209.505 586.588 209.505L582.804 265.731L595.343 262.267C595.343 262.267 620.333 359.635 618.195 366.817Z" fill="black"/>
<path d="M634.436 370.699C617.185 379.269 585.83 371.33 585.83 371.33C582.677 374.233 574.37 378.512 574.37 378.512L569.835 322.343C566.946 314.769 565.811 275.091 565.811 275.091C565.811 275.091 569.456 245.485 570.97 242.462C571.412 241.579 571.197 240.266 570.674 238.852C568.1 232.124 567.153 224.881 567.911 217.716L569.122 207.423L569.456 204.539C575.379 201.888 579.914 193.444 579.914 193.444L583.068 187.915L588.871 177.729L591.621 172.907L592.087 173.33L595.651 176.561C595.651 176.561 597.165 177.823 599.436 179.717C604.374 183.882 612.908 191.216 617.311 195.703C621.184 199.654 622.407 215.021 622.761 226.59C622.994 234.207 622.855 240.178 622.855 240.178C618.951 246.609 629.163 298.24 629.163 298.24C631.541 308.218 634.436 370.699 634.436 370.699Z" fill="white"/>
<path opacity="0.03" d="M601.322 193.317C601.322 193.317 589.483 215.867 590.858 224.438C592.233 233.008 596.144 242.708 594.258 244.974C593.61 245.832 592.772 246.529 591.81 247.01C590.849 247.491 589.789 247.742 588.714 247.745C586.821 247.871 581.775 251.399 581.775 251.778C581.775 252.156 577.114 252.156 572.945 253.923C568.776 255.69 562.62 256.694 562.62 256.694C562.62 256.694 550.635 256.315 549.519 257.451C548.403 258.587 547.255 265.384 549.645 270.806C552.036 276.227 554.691 280.272 556.697 281.011C558.703 281.749 571.431 277.483 581.756 276.473C592.082 275.463 603.29 267.278 603.29 267.278C603.29 267.278 615.634 262.86 617.797 255.432C619.961 248.003 615.155 207.176 615.155 207.176C615.155 207.176 611.521 188.148 601.322 193.317Z" fill="black"/>
<path opacity="0.03" d="M599.808 191.424C599.808 191.424 587.969 213.98 589.356 222.544C590.744 231.108 594.642 240.815 592.75 243.087C592.104 243.946 591.268 244.644 590.307 245.125C589.346 245.606 588.286 245.856 587.212 245.858C585.319 245.984 580.274 249.512 580.274 249.89C580.274 250.269 575.612 250.269 571.443 252.03C567.274 253.791 561.118 254.801 561.118 254.801C561.118 254.801 549.134 254.422 548.023 255.558C546.913 256.694 545.753 263.497 548.15 268.912C550.546 274.327 553.196 278.379 555.201 279.117C557.207 279.856 569.936 275.59 580.261 274.586C590.586 273.583 601.795 265.384 601.795 265.384C601.795 265.384 614.132 260.967 616.27 253.545C618.408 246.123 613.627 205.283 613.627 205.283C613.627 205.283 610.007 186.261 599.808 191.424Z" fill="black"/>
<path d="M600.95 192.181C600.95 192.181 589.111 214.737 590.499 223.302C591.886 231.866 595.784 241.572 593.898 243.838C593.253 244.699 592.416 245.399 591.454 245.881C590.491 246.363 589.43 246.614 588.354 246.615C586.462 246.741 581.416 250.269 581.416 250.642C581.416 251.014 576.761 251.02 572.585 252.787C568.41 254.554 562.26 255.558 562.26 255.558C562.26 255.558 550.276 255.179 549.16 256.315C548.043 257.451 546.895 264.255 549.286 269.67C551.676 275.085 554.332 279.136 556.337 279.875C558.343 280.613 571.072 276.347 581.397 275.337C591.722 274.327 602.931 266.142 602.931 266.142C602.931 266.142 615.274 261.724 617.438 254.296C619.601 246.867 614.827 206.041 614.827 206.041C614.827 206.041 611.143 187.044 600.95 192.181Z" fill="white"/>
<path opacity="0.1" d="M600.691 252.68C600.691 252.68 591.229 250.787 594.522 253.942C597.814 257.098 597.796 259.862 601.826 259.736C605.857 259.61 600.691 252.68 600.691 252.68Z" fill="black"/>
<path opacity="0.1" d="M616.68 320.576C616.68 320.576 612.403 323.472 620.584 330.15C628.765 336.827 616.68 320.576 616.68 320.576Z" fill="black"/>
<path opacity="0.1" d="M608.52 344.388C608.52 344.766 607.006 358.272 612.67 361.649C618.334 365.025 608.52 344.388 608.52 344.388Z" fill="black"/>
<path d="M518.586 238.537C514.02 238.694 504.155 240.089 509.27 249.638C513.792 258.089 521.393 252.44 525.669 248.155C524.626 244.16 522.091 240.717 518.586 238.537Z" fill="#FFB0B1"/>
<path d="M525.727 248.079L525.916 247.884L525.727 248.079Z" fill="#FFB0B1"/>
<path opacity="0.1" d="M599.435 180.102C594.591 183.415 590.529 186.211 589.734 186.792C587.564 188.401 583.426 197.849 580.758 202.67C578.633 206.552 571.726 207.549 569.121 207.795L569.455 204.911C575.378 202.26 579.913 193.816 579.913 193.816L591.62 173.279L595.65 176.946C595.65 176.946 597.164 178.208 599.435 180.102Z" fill="black"/>
<path d="M599.435 179.723C594.591 183.036 590.529 185.832 589.734 186.419C587.564 188.022 583.426 197.47 580.758 202.292C578.633 206.173 571.726 207.17 569.121 207.416L569.455 204.532C575.378 201.881 579.913 193.437 579.913 193.437L591.62 172.901L595.65 176.555C595.65 176.555 597.164 177.804 599.435 179.723Z" fill="#DCE7FF"/>
<path d="M590.113 163.642C590.116 167.431 588.967 171.131 586.821 174.251C584.285 177.941 580.512 180.599 576.185 181.743C571.858 182.887 567.265 182.441 563.239 180.487C559.213 178.532 556.02 175.198 554.24 171.09C552.461 166.981 552.212 162.371 553.539 158.094C554.866 153.818 557.681 150.159 561.474 147.782C565.266 145.405 569.785 144.467 574.209 145.138C578.634 145.809 582.671 148.045 585.589 151.44C588.507 154.835 590.112 159.164 590.113 163.642Z" fill="#FFB0B1"/>
<path opacity="0.1" d="M622.762 226.596C620.2 225.019 618.114 222.777 616.726 220.108C615.672 218.025 614.972 215.621 613.175 214.144C611.554 212.819 609.39 212.497 607.372 211.903C600.736 209.941 595.173 203.882 594.965 196.965C594.864 193.708 595.879 190.458 595.419 187.233C595.157 185.408 594.432 183.68 593.312 182.216C592.756 181.515 592.147 180.859 591.489 180.253C590.606 179.42 589.679 178.612 588.872 177.729C588.363 177.181 587.919 176.578 587.547 175.93C587.247 175.399 587.004 174.839 586.822 174.257C585.56 170.395 586.708 165.813 585.321 161.906L585.245 161.692C584.722 160.303 583.656 158.915 582.173 158.808C580.691 158.7 579.423 159.931 578.01 160.48C575.052 161.629 571.861 159.672 569.394 157.678C566.928 155.684 564.147 153.405 561.012 153.847C558.937 154.144 557.297 155.557 555.386 156.29C554.954 156.457 554.509 156.586 554.055 156.675C555.672 152.639 558.644 149.292 562.459 147.21C566.274 145.129 570.695 144.441 574.962 145.266C579.229 146.092 583.075 148.378 585.84 151.732C588.605 155.087 590.117 159.3 590.114 163.648C590.117 164.961 589.979 166.271 589.704 167.555C589.736 167.643 589.768 167.725 589.805 167.814C590.537 169.707 591.363 171.651 592.089 173.33L595.652 176.561C595.652 176.561 597.166 177.823 599.437 179.717C604.376 183.882 612.91 191.215 617.312 195.703C621.185 199.666 622.396 215.028 622.762 226.596Z" fill="black"/>
<path d="M555.163 144.759C556.065 142.923 556.513 140.865 557.592 139.123C559.175 136.599 561.938 134.983 564.776 134.005C572.187 131.449 587.849 127.738 592.529 134.005C593.45 135.267 594.213 136.668 595.487 137.539C596.458 138.202 597.631 138.486 598.697 138.984C601.681 140.385 603.586 143.44 604.601 146.558C605.617 149.675 605.919 153.02 606.664 156.233C607.616 160.354 609.288 164.261 610.953 168.142C612.914 172.724 614.996 177.476 618.78 180.714C623.946 185.132 625.088 191.386 629.882 196.233C635.558 201.989 635.375 211.487 632.449 219.029C632.064 220.02 631.629 221.055 631.78 222.109C631.931 223.163 632.714 224.122 633.452 224.961L636.555 228.464C629.213 230.238 620.906 226.4 617.487 219.666C616.434 217.584 615.734 215.185 613.93 213.702C612.315 212.377 610.146 212.061 608.133 211.468C601.498 209.499 595.935 203.434 595.727 196.517C595.626 193.267 596.641 190.016 596.181 186.798C595.925 184.96 595.197 183.221 594.068 181.749C592.333 179.483 589.716 177.962 588.303 175.438C585.912 171.215 587.729 165.731 586.007 161.2C585.477 159.811 584.417 158.423 582.935 158.315C581.453 158.208 580.185 159.439 578.766 159.988C575.814 161.137 572.622 159.186 570.156 157.186C567.69 155.185 564.908 152.913 561.767 153.361C559.692 153.652 558.058 155.065 556.147 155.804C554.734 156.346 551.871 156.832 550.635 155.64C548.023 153.235 554.072 147.006 555.163 144.759Z" fill="#591D4B"/>
<path opacity="0.1" d="M619.242 217.584C618.182 215.501 617.489 213.103 615.685 211.626C614.07 210.3 611.9 209.979 609.882 209.385C603.253 207.423 597.689 201.358 597.475 194.441C597.374 191.19 598.39 187.934 597.935 184.715C597.671 182.889 596.944 181.162 595.822 179.698C594.082 177.432 591.464 175.911 590.057 173.386C587.667 169.171 589.483 163.686 587.755 159.148C587.232 157.766 586.166 156.378 584.69 156.264C583.214 156.151 581.933 157.394 580.521 157.943C577.569 159.092 574.371 157.135 571.911 155.141C569.451 153.147 566.657 150.868 563.522 151.31C561.447 151.607 559.807 153.02 557.902 153.752C556.489 154.295 553.619 154.787 552.383 153.595C549.784 151.07 555.833 144.854 556.918 142.62C557.82 140.777 558.268 138.726 559.353 136.984C559.409 136.889 559.473 136.794 559.536 136.7C558.724 137.372 558.024 138.169 557.46 139.06C556.382 140.802 555.934 142.847 555.032 144.696C553.941 146.93 547.892 153.166 550.497 155.671C551.759 156.87 554.597 156.378 556.01 155.835C557.902 155.097 559.555 153.683 561.63 153.393C564.783 152.945 567.559 155.223 570.019 157.217C572.479 159.212 575.695 161.168 578.635 160.019C580.047 159.47 581.284 158.233 582.798 158.347C584.311 158.461 585.321 159.843 585.869 161.231C587.591 165.763 585.775 171.247 588.165 175.469C589.578 177.949 592.196 179.502 593.93 181.78C595.059 183.252 595.787 184.992 596.043 186.829C596.504 190.048 595.488 193.298 595.589 196.548C595.797 203.491 601.36 209.531 607.996 211.5C609.995 212.093 612.178 212.408 613.792 213.734C615.603 215.217 616.315 217.615 617.35 219.698C620.768 226.432 629.075 230.269 636.417 228.496L634.954 226.842C628.59 226.937 622.15 223.314 619.242 217.584Z" fill="black"/>
<path opacity="0.1" d="M575.758 188.779C574.932 190.042 572.567 196.504 570.592 202.147C568.744 201.427 567.066 196.839 567.066 196.839L576.919 182.815C577.928 184.204 577.266 186.507 575.758 188.779Z" fill="black"/>
<path d="M576.137 188.401C575.311 189.663 572.945 196.126 570.971 201.768C569.123 201.055 567.445 196.46 567.445 196.46L577.298 182.443C578.307 183.825 577.644 186.135 576.137 188.401Z" fill="#DCE7FF"/>
<path d="M518.852 252.876L513.389 235.64C513.325 235.438 513.3 235.225 513.318 235.014C513.336 234.803 513.395 234.597 513.492 234.409C513.59 234.221 513.723 234.054 513.885 233.917C514.047 233.781 514.234 233.678 514.436 233.614C514.843 233.487 515.283 233.526 515.661 233.722C516.039 233.918 516.324 234.256 516.455 234.662L521.917 251.878L521.375 255.482L518.852 252.876Z" fill="#BE8B87"/>
<path opacity="0.1" d="M513.907 234.125C514.314 233.996 514.756 234.034 515.135 234.231C515.515 234.427 515.801 234.766 515.931 235.173L521.393 252.39L520.983 255.091L521.381 255.508L521.923 251.904L516.43 234.687C516.299 234.281 516.014 233.944 515.636 233.747C515.258 233.551 514.818 233.512 514.411 233.639C514.069 233.75 513.774 233.972 513.572 234.27C513.679 234.213 513.791 234.164 513.907 234.125Z" fill="white"/>
<path d="M518.852 252.876L521.917 251.904L521.469 254.857L521.375 255.507L520.479 254.573L518.852 252.876Z" fill="#EFC8C4"/>
<path d="M520.48 254.573C520.534 254.506 520.6 254.45 520.676 254.409C520.72 254.381 520.772 254.366 520.824 254.366C520.877 254.366 520.928 254.381 520.973 254.409C521.015 254.461 521.051 254.519 521.08 254.58C521.121 254.649 521.178 254.709 521.246 254.754C521.314 254.798 521.39 254.827 521.471 254.839L521.376 255.47L520.48 254.573Z" fill="#727A9C"/>
<path d="M513.357 241.762C513.357 241.762 524.313 241.699 521.734 246.363C519.154 251.027 515.124 251.588 515.124 251.588L513.357 241.762Z" fill="#FFB0B1"/>
<path d="M479.063 51.1855H478.806C468.591 51.1855 459.556 56.6238 454.36 64.6486C449.163 56.6238 440.128 51.1855 429.913 51.1855H429.656C421.989 51.259 414.662 54.3734 409.265 59.8519C403.868 65.3304 400.838 72.7302 400.834 80.4434C400.834 90.0215 405.004 103.612 413.134 114.795C428.626 136.104 454.36 154.747 454.36 154.747C454.36 154.747 480.094 136.107 495.581 114.795C503.715 103.612 507.882 90.0215 507.882 80.4434C507.878 72.7308 504.848 65.3315 499.452 59.8531C494.056 54.3747 486.729 51.2599 479.063 51.1855ZM475.39 116.435C474.226 116.43 473.091 116.072 472.134 115.407C471.177 114.742 470.442 113.801 470.025 112.708H463.918C463.516 112.705 463.124 112.577 462.798 112.34C462.472 112.102 462.228 111.769 462.1 111.385L460.224 105.699L454.288 126.567C454.172 126.969 453.93 127.322 453.598 127.574C453.266 127.825 452.862 127.961 452.446 127.962H452.326C451.892 127.941 451.479 127.771 451.155 127.48C450.831 127.189 450.616 126.795 450.546 126.364L444.428 89.3465L439.957 111.251C439.855 111.667 439.616 112.037 439.281 112.301C438.945 112.565 438.531 112.708 438.105 112.708H429.502C429.244 112.719 428.987 112.677 428.745 112.586C428.504 112.494 428.283 112.354 428.097 112.174C427.91 111.995 427.762 111.779 427.661 111.54C427.559 111.301 427.507 111.044 427.507 110.784C427.507 110.525 427.559 110.268 427.661 110.029C427.762 109.79 427.91 109.574 428.097 109.395C428.283 109.215 428.504 109.075 428.745 108.983C428.987 108.892 429.244 108.85 429.502 108.861H436.599L442.932 79.4102C443.036 78.9747 443.287 78.5892 443.642 78.3194C443.998 78.0496 444.435 77.9123 444.88 77.931C445.324 77.9497 445.749 78.1233 446.081 78.422C446.412 78.7207 446.63 79.126 446.698 79.5686L452.946 117.33L458.266 98.6594C458.376 98.2662 458.611 97.9195 458.933 97.6712C459.256 97.423 459.65 97.2863 460.056 97.2817H460.094C460.496 97.2819 460.888 97.4098 461.214 97.6473C461.54 97.8848 461.783 98.2197 461.908 98.6043L465.301 108.871H469.95C470.28 107.861 470.882 106.962 471.688 106.274C472.494 105.586 473.474 105.135 474.519 104.972C475.563 104.809 476.633 104.939 477.608 105.348C478.584 105.758 479.428 106.43 480.048 107.292C480.668 108.154 481.039 109.171 481.121 110.231C481.202 111.292 480.991 112.354 480.51 113.301C480.029 114.249 479.297 115.044 478.396 115.599C477.494 116.154 476.457 116.448 475.4 116.448L475.39 116.435Z" fill="#FC6464"/>
<path d="M377.889 175.429H375.016C374.167 175.429 373.479 176.098 373.479 176.922V221.55C373.479 222.375 374.167 223.044 375.016 223.044H377.889C378.737 223.044 379.426 222.375 379.426 221.55V176.922C379.426 176.098 378.737 175.429 377.889 175.429Z" fill="#3A3768"/>
<path d="M182.715 137.338H182.435C181.527 137.338 180.791 138.048 180.791 138.925V152.415C180.791 153.292 181.527 154.003 182.435 154.003H182.715C183.623 154.003 184.359 153.292 184.359 152.415V138.925C184.359 138.048 183.623 137.338 182.715 137.338Z" fill="#3A3768"/>
<path d="M182.9 165.906H182.25C181.444 165.906 180.791 166.577 180.791 167.405V191.786C180.791 192.614 181.444 193.285 182.25 193.285H182.9C183.706 193.285 184.359 192.614 184.359 191.786V167.405C184.359 166.577 183.706 165.906 182.9 165.906Z" fill="#3A3768"/>
<path d="M182.826 203.998H182.324C181.477 203.998 180.791 204.663 180.791 205.484V229.89C180.791 230.711 181.477 231.376 182.324 231.376H182.826C183.673 231.376 184.359 230.711 184.359 229.89V205.484C184.359 204.663 183.673 203.998 182.826 203.998Z" fill="#3A3768"/>
<path d="M351.379 85.7061H208.299C194.193 85.7061 182.758 97.1503 182.758 111.267V455.065C182.758 469.182 194.193 480.626 208.299 480.626H351.379C365.485 480.626 376.921 469.182 376.921 455.065V111.267C376.921 97.1503 365.485 85.7061 351.379 85.7061Z" fill="#3F3D56"/>
<path d="M285.69 97.5H263.646C262.246 97.5 261.111 98.6359 261.111 100.037V100.47C261.111 101.871 262.246 103.007 263.646 103.007H285.69C287.09 103.007 288.225 101.871 288.225 100.47V100.037C288.225 98.6359 287.09 97.5 285.69 97.5Z" fill="#E6E8EC"/>
<path d="M295.443 103.381C297.169 103.381 298.568 101.981 298.568 100.254C298.568 98.5265 297.169 97.1265 295.443 97.1265C293.717 97.1265 292.318 98.5265 292.318 100.254C292.318 101.981 293.717 103.381 295.443 103.381Z" fill="#E6E8EC"/>
<path d="M349.486 95.9922H327.279V98.6735C327.279 102.043 325.942 105.275 323.561 107.658C321.18 110.04 317.951 111.379 314.584 111.379H243.718C240.351 111.379 237.122 110.04 234.742 107.658C232.361 105.275 231.023 102.043 231.023 98.6735V95.9922H210.166C208.141 95.9922 206.136 96.3914 204.266 97.167C202.395 97.9427 200.696 99.0795 199.264 100.513C197.833 101.946 196.698 103.647 195.923 105.519C195.149 107.392 194.751 109.398 194.752 111.425V454.907C194.751 456.934 195.149 458.94 195.923 460.813C196.698 462.685 197.833 464.386 199.264 465.819C200.696 467.253 202.395 468.389 204.266 469.165C206.136 469.941 208.141 470.34 210.166 470.34H349.486C353.576 470.34 357.498 468.714 360.39 465.82C363.282 462.926 364.906 459 364.906 454.907V111.425C364.906 107.332 363.282 103.406 360.39 100.512C357.498 97.6181 353.576 95.9922 349.486 95.9922Z" fill="#FC6464"/>
<path opacity="0.1" d="M299.492 157.624H201.887V173.358H299.492V157.624Z" fill="black" stroke="#FC6464" stroke-miterlimit="10"/>
<path opacity="0.1" d="M225.468 265.141C237.045 265.141 246.43 255.748 246.43 244.162C246.43 232.575 237.045 223.183 225.468 223.183C213.891 223.183 204.506 232.575 204.506 244.162C204.506 255.748 213.891 265.141 225.468 265.141Z" fill="black" stroke="#FC6464" stroke-miterlimit="10"/>
<path d="M219.572 240.228V248.095H224.813L231.364 254.946V233.371L224.813 240.228H219.572Z" fill="white"/>
<path opacity="0.1" d="M281.15 265.141C292.727 265.141 302.112 255.748 302.112 244.162C302.112 232.575 292.727 223.183 281.15 223.183C269.573 223.183 260.188 232.575 260.188 244.162C260.188 255.748 269.573 265.141 281.15 265.141Z" fill="black" stroke="#FC6464" stroke-miterlimit="10"/>
<path d="M281.15 252.92C280.654 252.918 280.169 253.062 279.756 253.336C279.343 253.61 279.02 254 278.829 254.457C278.637 254.915 278.586 255.419 278.681 255.905C278.776 256.392 279.013 256.839 279.363 257.191C279.712 257.542 280.158 257.782 280.644 257.88C281.129 257.978 281.633 257.929 282.091 257.74C282.549 257.551 282.941 257.23 283.216 256.817C283.492 256.405 283.639 255.921 283.639 255.425C283.639 254.763 283.377 254.128 282.911 253.659C282.444 253.189 281.811 252.924 281.15 252.92ZM273.813 230.394C273.317 230.39 272.832 230.534 272.417 230.807C272.003 231.08 271.68 231.469 271.487 231.927C271.295 232.384 271.242 232.888 271.337 233.375C271.431 233.862 271.668 234.31 272.017 234.662C272.366 235.015 272.812 235.255 273.298 235.353C273.784 235.452 274.288 235.403 274.746 235.214C275.205 235.025 275.597 234.704 275.873 234.292C276.148 233.88 276.296 233.395 276.296 232.899C276.296 232.238 276.035 231.604 275.57 231.135C275.105 230.666 274.473 230.4 273.813 230.394ZM273.813 237.907C273.317 237.904 272.831 238.047 272.417 238.32C272.003 238.593 271.679 238.984 271.487 239.441C271.294 239.899 271.242 240.403 271.337 240.891C271.432 241.378 271.669 241.826 272.019 242.178C272.369 242.53 272.816 242.77 273.302 242.867C273.788 242.965 274.293 242.915 274.751 242.725C275.209 242.535 275.601 242.213 275.876 241.8C276.151 241.387 276.297 240.902 276.296 240.405C276.296 239.745 276.035 239.112 275.569 238.644C275.104 238.176 274.473 237.911 273.813 237.907ZM273.813 245.414C273.317 245.41 272.832 245.554 272.417 245.826C272.003 246.099 271.68 246.489 271.487 246.946C271.295 247.403 271.242 247.908 271.337 248.395C271.431 248.882 271.668 249.33 272.017 249.682C272.366 250.034 272.812 250.275 273.298 250.373C273.784 250.471 274.288 250.423 274.746 250.234C275.205 250.045 275.597 249.724 275.873 249.312C276.148 248.899 276.296 248.414 276.296 247.918C276.296 247.257 276.035 246.623 275.57 246.154C275.105 245.685 274.473 245.419 273.813 245.414ZM288.487 235.403C288.982 235.406 289.467 235.261 289.88 234.987C290.294 234.714 290.616 234.324 290.808 233.866C290.999 233.409 291.051 232.905 290.956 232.418C290.861 231.932 290.623 231.484 290.274 231.133C289.924 230.781 289.479 230.541 288.993 230.444C288.507 230.346 288.003 230.395 287.545 230.584C287.087 230.773 286.696 231.094 286.42 231.506C286.144 231.918 285.997 232.403 285.997 232.899C285.997 233.227 286.06 233.552 286.185 233.855C286.309 234.158 286.493 234.434 286.724 234.667C286.955 234.899 287.23 235.084 287.532 235.21C287.835 235.337 288.159 235.402 288.487 235.403ZM281.15 245.414C280.654 245.411 280.169 245.556 279.756 245.83C279.343 246.103 279.02 246.493 278.829 246.951C278.637 247.408 278.586 247.912 278.681 248.399C278.776 248.885 279.013 249.333 279.363 249.684C279.712 250.036 280.158 250.276 280.644 250.373C281.129 250.471 281.633 250.422 282.091 250.233C282.549 250.044 282.941 249.723 283.216 249.311C283.492 248.899 283.639 248.414 283.639 247.918C283.639 247.256 283.377 246.621 282.911 246.152C282.444 245.683 281.811 245.417 281.15 245.414ZM288.487 245.414C287.991 245.411 287.506 245.556 287.093 245.83C286.68 246.103 286.357 246.493 286.165 246.951C285.974 247.408 285.923 247.912 286.018 248.399C286.113 248.885 286.35 249.333 286.699 249.684C287.049 250.036 287.495 250.276 287.981 250.373C288.466 250.471 288.97 250.422 289.428 250.233C289.886 250.044 290.278 249.723 290.553 249.311C290.829 248.899 290.976 248.414 290.976 247.918C290.976 247.256 290.714 246.621 290.248 246.152C289.781 245.683 289.148 245.417 288.487 245.414ZM288.487 237.907C287.991 237.905 287.506 238.05 287.092 238.324C286.679 238.597 286.356 238.988 286.165 239.446C285.974 239.904 285.923 240.408 286.018 240.895C286.114 241.382 286.352 241.829 286.702 242.18C287.052 242.532 287.498 242.771 287.985 242.868C288.471 242.965 288.975 242.915 289.433 242.725C289.891 242.535 290.282 242.213 290.556 241.8C290.831 241.387 290.977 240.901 290.976 240.405C290.976 239.744 290.714 239.11 290.247 238.641C289.781 238.173 289.147 237.909 288.487 237.907ZM281.15 237.907C280.654 237.905 280.169 238.05 279.755 238.324C279.342 238.597 279.019 238.988 278.828 239.446C278.637 239.904 278.586 240.408 278.681 240.895C278.777 241.382 279.015 241.829 279.365 242.18C279.715 242.532 280.162 242.771 280.648 242.868C281.134 242.965 281.638 242.915 282.096 242.725C282.554 242.535 282.945 242.213 283.22 241.8C283.494 241.387 283.64 240.901 283.639 240.405C283.639 239.744 283.377 239.11 282.91 238.641C282.444 238.173 281.811 237.909 281.15 237.907ZM281.15 230.394C280.654 230.392 280.169 230.536 279.756 230.81C279.343 231.084 279.02 231.474 278.829 231.931C278.637 232.389 278.586 232.893 278.681 233.379C278.776 233.866 279.013 234.313 279.363 234.665C279.712 235.016 280.158 235.256 280.644 235.354C281.129 235.452 281.633 235.403 282.091 235.214C282.549 235.025 282.941 234.704 283.216 234.291C283.492 233.879 283.639 233.395 283.639 232.899C283.639 232.237 283.377 231.602 282.911 231.133C282.444 230.663 281.811 230.398 281.15 230.394Z" fill="white"/>
<g opacity="0.4">
<path opacity="0.1" d="M225.468 328.077C237.045 328.077 246.43 318.685 246.43 307.098C246.43 295.512 237.045 286.119 225.468 286.119C213.891 286.119 204.506 295.512 204.506 307.098C204.506 318.685 213.891 328.077 225.468 328.077Z" fill="black" stroke="#FC6464" stroke-miterlimit="10"/>
<path opacity="0.4" d="M235.295 308.409H226.779V316.932H224.158V308.409H215.643V305.787H224.158V297.264H226.779V305.787H235.295V308.409Z" fill="white"/>
</g>
<path opacity="0.1" d="M336.831 265.141C348.409 265.141 357.794 255.748 357.794 244.162C357.794 232.575 348.409 223.183 336.831 223.183C325.254 223.183 315.869 232.575 315.869 244.162C315.869 255.748 325.254 265.141 336.831 265.141Z" fill="black" stroke="#FC6464" stroke-miterlimit="10"/>
<path d="M336.829 231.371C335.26 231.392 333.711 231.721 332.269 232.341C330.827 232.961 329.521 233.859 328.426 234.984C327.331 236.109 326.469 237.439 325.887 238.898C325.306 240.357 325.017 241.916 325.038 243.486V252.907C325.031 253.431 325.127 253.95 325.321 254.437C325.515 254.923 325.803 255.366 326.168 255.741C326.533 256.116 326.968 256.416 327.448 256.622C327.929 256.829 328.446 256.939 328.969 256.946H332.899V246.122H327.658V243.499C327.658 241.065 328.625 238.731 330.345 237.009C332.064 235.288 334.397 234.321 336.829 234.321C339.262 234.321 341.594 235.288 343.314 237.009C345.034 238.731 346 241.065 346 243.499V246.122H340.76V256.939H344.69C345.214 256.933 345.731 256.824 346.212 256.617C346.693 256.411 347.128 256.112 347.493 255.736C347.858 255.361 348.146 254.918 348.339 254.431C348.533 253.944 348.628 253.424 348.621 252.901V243.486C348.641 241.916 348.353 240.357 347.772 238.898C347.19 237.439 346.327 236.109 345.233 234.984C344.138 233.859 342.832 232.961 341.39 232.341C339.948 231.721 338.399 231.392 336.829 231.371Z" fill="white"/>
<g opacity="0.4">
<path opacity="0.1" d="M281.15 328.077C292.727 328.077 302.112 318.685 302.112 307.098C302.112 295.512 292.727 286.119 281.15 286.119C269.573 286.119 260.188 295.512 260.188 307.098C260.188 318.685 269.573 328.077 281.15 328.077Z" fill="black" stroke="#FC6464" stroke-miterlimit="10"/>
<path opacity="0.4" d="M289.011 304.849V299.605C289.008 299.406 288.966 299.209 288.888 299.027C288.809 298.844 288.696 298.678 288.553 298.54C288.411 298.401 288.243 298.291 288.058 298.218C287.874 298.144 287.676 298.107 287.478 298.11H268.913C268.513 298.106 268.128 298.262 267.841 298.542C267.555 298.822 267.392 299.204 267.387 299.605V314.559C267.394 314.959 267.558 315.34 267.843 315.62C268.129 315.899 268.513 316.055 268.913 316.053H287.471C287.872 316.057 288.258 315.902 288.545 315.622C288.832 315.342 288.997 314.96 289.004 314.559V309.314L294.9 315.293V298.87L289.011 304.849Z" fill="white"/>
</g>
<path opacity="0.1" d="M336.831 328.077C348.409 328.077 357.794 318.685 357.794 307.098C357.794 295.512 348.409 286.119 336.831 286.119C325.254 286.119 315.869 295.512 315.869 307.098C315.869 318.685 325.254 328.077 336.831 328.077Z" fill="black" stroke="#FC6464" stroke-miterlimit="10"/>
<path d="M335.796 312.5C334.668 313.14 333.394 313.477 332.098 313.477C330.802 313.477 329.527 313.14 328.4 312.5C325.505 313.385 323.729 316.316 323.074 318.892H341.121C340.466 316.316 338.698 313.385 335.796 312.5ZM332.101 298.733C330.814 298.732 329.555 299.112 328.485 299.827C327.414 300.542 326.579 301.559 326.086 302.749C325.593 303.938 325.464 305.248 325.714 306.511C325.965 307.775 326.585 308.935 327.495 309.846C328.405 310.757 329.565 311.377 330.827 311.628C332.09 311.879 333.398 311.75 334.587 311.256C335.776 310.763 336.792 309.927 337.506 308.856C338.22 307.784 338.601 306.524 338.599 305.236C338.599 303.512 337.915 301.857 336.696 300.638C335.477 299.418 333.825 298.733 332.101 298.733ZM332.101 310.193C331.123 310.174 330.172 309.871 329.364 309.319C328.556 308.766 327.928 307.99 327.555 307.085H336.641C336.269 307.99 335.642 308.767 334.836 309.321C334.029 309.874 333.079 310.179 332.101 310.199V310.193Z" fill="white"/>
<path d="M340.916 314.959H350.585C350.284 313.598 349.635 312.339 348.701 311.305C347.768 310.27 346.582 309.496 345.26 309.058C344.131 309.698 342.856 310.035 341.558 310.035C340.688 310.043 339.823 309.897 339.004 309.603C338.547 310.405 337.968 311.13 337.287 311.753C338.786 312.44 340.049 313.556 340.916 314.959ZM339.934 303.65H346.105C345.73 304.552 345.1 305.326 344.293 305.876C343.485 306.425 342.535 306.727 341.558 306.744C341.027 306.74 340.5 306.647 339.999 306.469C339.919 306.995 339.785 307.511 339.6 308.009C340.495 308.295 341.441 308.384 342.373 308.269C343.305 308.154 344.202 307.838 345.001 307.343C345.799 306.848 346.482 306.186 347 305.403C347.519 304.619 347.862 303.732 348.006 302.803C348.149 301.874 348.09 300.925 347.832 300.021C347.574 299.117 347.124 298.279 346.512 297.566C345.9 296.853 345.141 296.281 344.287 295.889C343.433 295.498 342.504 295.296 341.565 295.298C340.472 295.299 339.396 295.576 338.438 296.103C337.48 296.63 336.669 297.39 336.082 298.313C337.064 298.88 337.916 299.649 338.579 300.568C339.243 301.488 339.705 302.538 339.934 303.65Z" fill="white"/>
<path d="M281.15 411.993C292.727 411.993 302.112 402.6 302.112 391.014C302.112 379.427 292.727 370.035 281.15 370.035C269.573 370.035 260.188 379.427 260.188 391.014C260.188 402.6 269.573 411.993 281.15 411.993Z" fill="#FF6F61"/>
<path d="M270.387 396.193C271.533 395.109 272.839 394.207 274.258 393.518C274.478 393.42 274.664 393.26 274.793 393.057C274.923 392.854 274.989 392.618 274.985 392.377L275.097 388.3C279.103 387.108 283.384 387.223 287.32 388.627L287.209 392.705C287.206 392.942 287.265 393.175 287.38 393.382C287.494 393.589 287.662 393.763 287.864 393.885C289.287 394.627 290.576 395.602 291.677 396.77C291.795 396.895 291.937 396.996 292.094 397.067C292.251 397.137 292.42 397.176 292.593 397.181C292.765 397.186 292.936 397.156 293.097 397.095C293.258 397.033 293.405 396.941 293.53 396.822L296.858 393.662C297.109 393.424 297.256 393.095 297.266 392.749C297.275 392.402 297.148 392.066 296.911 391.813C294.899 389.688 292.489 387.98 289.818 386.787C287.146 385.594 284.266 384.939 281.342 384.86C278.418 384.781 275.507 385.279 272.776 386.326C270.044 387.372 267.545 388.948 265.421 390.961C265.297 391.08 265.196 391.222 265.126 391.38C265.057 391.537 265.018 391.707 265.014 391.879C265.01 392.052 265.04 392.223 265.102 392.384C265.164 392.545 265.257 392.692 265.376 392.817L268.526 396.147C268.645 396.272 268.787 396.372 268.945 396.442C269.102 396.512 269.272 396.55 269.444 396.555C269.616 396.559 269.787 396.529 269.948 396.467C270.109 396.405 270.256 396.312 270.38 396.193H270.387Z" fill="white"/>
<path opacity="0.1" d="M339.451 187.126C348.496 187.126 355.828 179.788 355.828 170.736C355.828 161.684 348.496 154.346 339.451 154.346C330.406 154.346 323.074 161.684 323.074 170.736C323.074 179.788 330.406 187.126 339.451 187.126Z" fill="black" stroke="#FC6464" stroke-miterlimit="10"/>
<path d="M343.152 174.414C342.023 175.054 340.748 175.39 339.451 175.39C338.153 175.39 336.878 175.054 335.75 174.414C332.854 175.299 331.079 178.229 330.424 180.812H348.478C347.822 178.229 346.047 175.299 343.152 174.414ZM339.451 160.646C338.164 160.645 336.906 161.026 335.835 161.74C334.764 162.455 333.93 163.471 333.436 164.661C332.943 165.85 332.813 167.159 333.063 168.422C333.314 169.686 333.933 170.846 334.842 171.757C335.752 172.669 336.911 173.289 338.173 173.541C339.435 173.793 340.743 173.664 341.932 173.172C343.121 172.679 344.137 171.845 344.852 170.774C345.567 169.703 345.949 168.444 345.949 167.156C345.947 165.432 345.262 163.778 344.044 162.557C342.826 161.337 341.174 160.65 339.451 160.646ZM339.451 172.113C338.473 172.093 337.523 171.788 336.715 171.237C335.908 170.685 335.279 169.909 334.904 169.005H343.997C343.622 169.91 342.993 170.685 342.186 171.238C341.379 171.791 340.429 172.097 339.451 172.119V172.113Z" fill="white"/>
</g>
<defs>
<linearGradient id="paint0_linear" x1="140792" y1="293016" x2="140792" y2="93672.1" gradientUnits="userSpaceOnUse">
<stop stop-color="#808080" stop-opacity="0.25"/>
<stop offset="0.54" stop-color="#808080" stop-opacity="0.12"/>
<stop offset="1" stop-color="#808080" stop-opacity="0.1"/>
</linearGradient>
<clipPath id="clip0">
<rect width="697" height="494" fill="white"/>
</clipPath>
</defs>
</svg>
