<svg width="660" height="476" viewBox="0 0 660 476" fill="none" xmlns="http://www.w3.org/2000/svg">
<g clip-path="url(#clip0)">
<path opacity="0.1" d="M383.465 72.8279C341.155 71.3618 300.854 57.7004 262.376 42.7541C223.897 27.8077 185.775 11.261 144.481 3.33511C117.918 -1.75798 87.5401 -2.50559 66.1397 11.7633C45.5396 25.4656 38.887 49.1438 35.3125 71.0756C32.6199 87.5932 31.0371 104.952 38.4081 120.435C43.5304 131.165 52.6243 140.189 58.9148 150.468C80.7882 186.249 65.3396 230.363 41.6146 265.291C30.5173 281.68 17.5918 297.31 9.01177 314.756C0.431772 332.202 -3.53991 352.183 3.9654 369.974C11.4123 387.613 29.1447 400.836 48.3606 410.181C87.3824 429.105 133.366 434.525 178.205 437.592C277.462 444.379 377.251 441.441 476.771 438.497C513.602 437.405 550.591 436.301 586.827 430.606C606.943 427.446 627.712 422.429 642.314 410.31C660.858 394.925 665.455 368.876 653.026 349.566C632.186 317.215 574.556 309.178 559.989 274.455C551.97 255.344 560.205 234.055 571.857 216.328C596.856 178.299 638.757 144.943 640.965 101.477C642.483 71.6247 622.339 41.7261 591.196 27.6033C558.546 12.7971 513.281 14.6602 489.194 39.1679C464.406 64.4114 420.823 74.1245 383.465 72.8279Z" fill="#FC6464"/>
<path d="M482.792 78.3064H205.709C199.322 78.3064 194.145 83.484 194.145 89.871V428.264C194.145 434.651 199.322 439.829 205.709 439.829H482.792C489.179 439.829 494.357 434.651 494.357 428.264V89.871C494.357 83.484 489.179 78.3064 482.792 78.3064Z" fill="#3A3768"/>
<path d="M462.46 112.574H226.043C222.729 112.574 220.043 115.26 220.043 118.574V395.157C220.043 398.471 222.729 401.157 226.043 401.157H462.46C465.774 401.157 468.46 398.471 468.46 395.157V118.574C468.46 115.26 465.774 112.574 462.46 112.574Z" fill="white" stroke="white" stroke-miterlimit="10"/>
<path d="M344.251 432.96C350.09 432.96 354.823 428.227 354.823 422.388C354.823 416.55 350.09 411.817 344.251 411.817C338.413 411.817 333.68 416.55 333.68 422.388C333.68 428.227 338.413 432.96 344.251 432.96Z" fill="white"/>
<path d="M344.254 104.438C343.267 104.432 342.304 104.134 341.486 103.581C340.668 103.028 340.033 102.246 339.66 101.332C339.287 100.418 339.193 99.4147 339.389 98.4476C339.586 97.4805 340.065 96.5935 340.766 95.8984C341.467 95.2034 342.358 94.7316 343.326 94.5426C344.295 94.3536 345.298 94.4559 346.209 94.8365C347.119 95.2171 347.897 95.859 348.443 96.6811C348.989 97.5032 349.279 98.4687 349.277 99.4556C349.274 100.113 349.143 100.763 348.889 101.369C348.635 101.975 348.264 102.525 347.798 102.988C347.331 103.451 346.778 103.817 346.17 104.066C345.562 104.314 344.911 104.441 344.254 104.438Z" fill="white"/>
<path d="M344.251 94.7422C345.183 94.7364 346.096 95.008 346.874 95.5224C347.651 96.0368 348.258 96.7708 348.618 97.6311C348.977 98.4914 349.073 99.4392 348.893 100.354C348.712 101.269 348.264 102.109 347.604 102.768C346.945 103.428 346.105 103.876 345.19 104.057C344.275 104.237 343.327 104.142 342.467 103.782C341.607 103.423 340.873 102.815 340.358 102.038C339.844 101.26 339.572 100.347 339.578 99.4147C339.587 98.1783 340.082 96.9951 340.957 96.1209C341.831 95.2466 343.014 94.7513 344.251 94.7422ZM344.251 94.1581C343.204 94.1581 342.181 94.4689 341.311 95.051C340.441 95.6331 339.764 96.4604 339.364 97.4279C338.965 98.3955 338.862 99.4598 339.069 100.486C339.275 101.512 339.781 102.454 340.523 103.192C341.266 103.93 342.21 104.431 343.237 104.632C344.265 104.832 345.328 104.724 346.294 104.319C347.259 103.914 348.083 103.232 348.66 102.359C349.237 101.486 349.542 100.461 349.536 99.4147C349.529 98.0179 348.968 96.6809 347.978 95.6959C346.987 94.711 345.647 94.1581 344.251 94.1581Z" fill="white"/>
<path d="M340.398 167.909V157.629H348.108V167.909H355.946V152.495H360.958L344.253 137.076L327.555 152.495H332.56V167.909H340.398Z" fill="#FC6464"/>
<path d="M257.828 215.686V204.588C257.828 203.963 257.579 203.364 257.137 202.922C256.695 202.48 256.096 202.232 255.471 202.232C254.846 202.232 254.246 202.48 253.804 202.922C253.362 203.364 253.114 203.963 253.114 204.588V215.686C252.184 216.207 251.454 217.022 251.037 218.003C250.62 218.984 250.539 220.075 250.809 221.106C251.078 222.138 251.682 223.051 252.526 223.702C253.369 224.354 254.405 224.707 255.471 224.707C256.537 224.707 257.573 224.354 258.416 223.702C259.26 223.051 259.864 222.138 260.133 221.106C260.402 220.075 260.322 218.984 259.905 218.003C259.488 217.022 258.757 216.207 257.828 215.686ZM254.656 204.588C254.673 204.387 254.765 204.2 254.914 204.063C255.063 203.927 255.257 203.851 255.459 203.851C255.661 203.851 255.856 203.927 256.004 204.063C256.153 204.2 256.245 204.387 256.262 204.588V207.076H254.656V204.588Z" fill="#3A3768"/>
<path opacity="0.3" d="M428.286 212.649H288.109V214.208H428.286V212.649Z" fill="#FC6464"/>
<path d="M331.396 217.128C333.438 217.128 335.094 215.473 335.094 213.431C335.094 211.389 333.438 209.734 331.396 209.734C329.355 209.734 327.699 211.389 327.699 213.431C327.699 215.473 329.355 217.128 331.396 217.128Z" fill="#FC6464"/>
<path d="M331.395 212.649H288.109V214.208H331.395V212.649Z" fill="#FC6464"/>
<path d="M256.284 269.911C256.258 269.702 256.155 269.511 255.995 269.375C255.835 269.239 255.63 269.167 255.42 269.175C255.228 269.17 255.041 269.229 254.887 269.343C254.734 269.458 254.623 269.621 254.573 269.806L253.72 274.443C253.697 274.561 253.685 274.68 253.685 274.8C253.685 275.264 253.87 275.71 254.199 276.039C254.527 276.367 254.973 276.552 255.438 276.552C255.902 276.552 256.348 276.367 256.677 276.039C257.005 275.71 257.19 275.264 257.19 274.8C257.188 274.656 257.168 274.512 257.131 274.373L256.284 269.911ZM262.919 271.903C262.829 271.829 262.734 271.763 262.633 271.704L259.176 269.321C259.045 269.223 258.884 269.175 258.72 269.183C258.557 269.192 258.402 269.257 258.282 269.368C258.175 269.462 258.106 269.593 258.089 269.735C258.071 269.877 258.107 270.021 258.188 270.139L260.852 273.439C260.903 273.516 260.962 273.588 261.027 273.655C261.289 273.881 261.624 274.006 261.97 274.006C262.317 274.006 262.652 273.881 262.914 273.655C263.038 273.545 263.137 273.41 263.206 273.259C263.274 273.108 263.309 272.944 263.309 272.779C263.309 272.613 263.274 272.449 263.206 272.298C263.137 272.147 263.038 272.012 262.914 271.903H262.919ZM265.256 268.497L262.014 268.381C261.917 268.365 261.817 268.388 261.737 268.445C261.656 268.502 261.6 268.587 261.582 268.684C261.57 268.776 261.588 268.87 261.635 268.95C261.681 269.03 261.753 269.093 261.839 269.128L264.975 270.016C265.431 270.115 265.939 269.905 265.939 269.432C265.939 268.848 265.77 268.55 265.256 268.492V268.497ZM249.147 269.128C249.233 269.093 249.305 269.03 249.351 268.95C249.398 268.87 249.416 268.776 249.404 268.684C249.384 268.587 249.328 268.501 249.246 268.445C249.164 268.388 249.064 268.365 248.966 268.381L245.73 268.497C245.21 268.556 245.059 268.842 245.059 269.432C245.059 269.899 245.555 270.115 246.005 270.016L249.141 269.122L249.147 269.128ZM251.793 269.315L248.335 271.692C248.236 271.75 248.142 271.816 248.055 271.891C247.931 272 247.831 272.135 247.763 272.286C247.695 272.437 247.659 272.601 247.659 272.767C247.659 272.933 247.695 273.097 247.763 273.248C247.831 273.399 247.931 273.533 248.055 273.643C248.312 273.877 248.647 274.007 248.995 274.007C249.343 274.007 249.678 273.877 249.936 273.643C250.005 273.582 250.066 273.511 250.117 273.433L252.78 270.144C252.862 270.027 252.897 269.883 252.88 269.741C252.863 269.599 252.794 269.468 252.687 269.373C252.566 269.256 252.407 269.186 252.239 269.175C252.071 269.164 251.904 269.214 251.77 269.315H251.793ZM255.496 253.919C255.496 253.919 257.015 255.671 257.015 257.149C257.04 257.469 257 257.79 256.896 258.094C256.792 258.397 256.626 258.676 256.41 258.912C256.193 259.149 255.931 259.339 255.638 259.469C255.345 259.6 255.028 259.669 254.707 259.672C254.38 259.671 254.055 259.605 253.753 259.477C253.451 259.349 253.178 259.162 252.949 258.927C252.721 258.692 252.542 258.414 252.422 258.108C252.303 257.803 252.246 257.477 252.254 257.149V256.804C250.837 258.526 250.064 260.689 250.07 262.919C250.07 264.354 250.64 265.73 251.654 266.744C252.668 267.758 254.044 268.328 255.478 268.328C256.913 268.328 258.288 267.758 259.303 266.744C260.317 265.73 260.887 264.354 260.887 262.919C260.887 259.275 259.088 255.005 255.473 253.919H255.496ZM255.303 266.301C254.733 266.308 254.183 266.087 253.774 265.689C253.366 265.29 253.132 264.746 253.125 264.175C253.123 263.651 253.317 263.145 253.668 262.755C254.018 262.366 254.501 262.12 255.023 262.067C256.24 261.868 257.348 261.248 258.153 260.315C258.418 261.201 258.552 262.122 258.551 263.048C258.551 263.909 258.208 264.735 257.599 265.344C256.99 265.953 256.164 266.295 255.303 266.295V266.301Z" fill="#3A3768"/>
<path opacity="0.3" d="M428.286 264.38H288.109V265.939H428.286V264.38Z" fill="#FC6464"/>
<path d="M364.103 268.859C366.145 268.859 367.801 267.204 367.801 265.162C367.801 263.12 366.145 261.465 364.103 261.465C362.062 261.465 360.406 263.12 360.406 265.162C360.406 267.204 362.062 268.859 364.103 268.859Z" fill="#FC6464"/>
<path d="M364.459 264.38H288.109V265.939H364.459V264.38Z" fill="#FC6464"/>
<path d="M252.259 325.158C252.26 325.424 252.367 325.679 252.555 325.867C252.743 326.055 252.997 326.161 253.263 326.163H257.679C257.945 326.161 258.199 326.055 258.387 325.867C258.576 325.679 258.682 325.424 258.683 325.158V324.259H252.259V325.158ZM255.471 306.888C251.47 306.888 248.246 309.896 248.246 313.617C248.254 314.726 248.541 315.815 249.08 316.785C249.619 317.754 250.392 318.573 251.33 319.166V321.344C251.335 321.475 251.365 321.604 251.419 321.724C251.474 321.843 251.551 321.951 251.647 322.04C251.743 322.13 251.856 322.199 251.979 322.245C252.102 322.291 252.233 322.313 252.364 322.308H258.578C258.709 322.313 258.84 322.291 258.963 322.245C259.086 322.199 259.199 322.13 259.295 322.04C259.391 321.951 259.468 321.843 259.523 321.724C259.577 321.604 259.608 321.475 259.612 321.344V319.166C260.551 318.574 261.327 317.756 261.867 316.787C262.407 315.817 262.694 314.727 262.702 313.617C262.702 309.896 259.472 306.888 255.471 306.888Z" fill="#3A3768"/>
<path opacity="0.3" d="M428.286 315.749H288.109V317.308H428.286V315.749Z" fill="#FC6464"/>
<path d="M400.318 320.223C402.36 320.223 404.015 318.567 404.015 316.526C404.015 314.484 402.36 312.828 400.318 312.828C398.276 312.828 396.621 314.484 396.621 316.526C396.621 318.567 398.276 320.223 400.318 320.223Z" fill="#FC6464"/>
<path d="M400.671 315.749H288.109V317.308H400.671V315.749Z" fill="#FC6464"/>
<path d="M250.656 355.775V367.013H253.869V376.65L260.293 363.8H257.081L260.293 355.775H250.656Z" fill="#3A3768"/>
<path opacity="0.3" d="M428.286 365.436H288.109V366.995H428.286V365.436Z" fill="#FC6464"/>
<path d="M331.396 369.91C333.438 369.91 335.094 368.254 335.094 366.212C335.094 364.171 333.438 362.515 331.396 362.515C329.355 362.515 327.699 364.171 327.699 366.212C327.699 368.254 329.355 369.91 331.396 369.91Z" fill="#FC6464"/>
<path d="M331.395 365.436H288.109V366.995H331.395V365.436Z" fill="#FC6464"/>
<path d="M200.969 462.572C220.153 462.572 235.704 459.581 235.704 455.891C235.704 452.2 220.153 449.209 200.969 449.209C181.786 449.209 166.234 452.2 166.234 455.891C166.234 459.581 181.786 462.572 200.969 462.572Z" fill="#FC6464"/>
<path d="M200.389 458.344C202.622 458.344 204.431 455.975 204.431 453.052C204.431 450.13 202.622 447.76 200.389 447.76C198.157 447.76 196.348 450.13 196.348 453.052C196.348 455.975 198.157 458.344 200.389 458.344Z" fill="#3F3D56"/>
<path d="M200.389 451.872C202.622 451.872 204.431 449.503 204.431 446.58C204.431 443.658 202.622 441.289 200.389 441.289C198.157 441.289 196.348 443.658 196.348 446.58C196.348 449.503 198.157 451.872 200.389 451.872Z" fill="#3F3D56"/>
<path d="M200.389 445.407C202.622 445.407 204.431 443.037 204.431 440.115C204.431 437.192 202.622 434.823 200.389 434.823C198.157 434.823 196.348 437.192 196.348 440.115C196.348 443.037 198.157 445.407 200.389 445.407Z" fill="#3F3D56"/>
<path d="M200.389 438.935C202.622 438.935 204.431 436.566 204.431 433.643C204.431 430.721 202.622 428.352 200.389 428.352C198.157 428.352 196.348 430.721 196.348 433.643C196.348 436.566 198.157 438.935 200.389 438.935Z" fill="#3F3D56"/>
<path d="M200.389 432.464C202.622 432.464 204.431 430.094 204.431 427.172C204.431 424.249 202.622 421.88 200.389 421.88C198.157 421.88 196.348 424.249 196.348 427.172C196.348 430.094 198.157 432.464 200.389 432.464Z" fill="#3F3D56"/>
<path d="M200.389 425.992C202.622 425.992 204.431 423.623 204.431 420.7C204.431 417.778 202.622 415.409 200.389 415.409C198.157 415.409 196.348 417.778 196.348 420.7C196.348 423.623 198.157 425.992 200.389 425.992Z" fill="#3F3D56"/>
<path d="M200.389 419.521C202.622 419.521 204.431 417.151 204.431 414.229C204.431 411.306 202.622 408.937 200.389 408.937C198.157 408.937 196.348 411.306 196.348 414.229C196.348 417.151 198.157 419.521 200.389 419.521Z" fill="#3F3D56"/>
<path d="M215.522 369.956C216.073 369.251 216.577 368.509 217.029 367.737L206.399 365.985L217.893 366.072C218.994 363.673 219.594 361.074 219.658 358.435C219.721 355.796 219.246 353.172 218.261 350.723L202.854 358.725L217.07 348.27C215.738 345.967 213.946 343.963 211.806 342.383C209.666 340.803 207.223 339.681 204.63 339.086C202.037 338.492 199.349 338.437 196.735 338.927C194.12 339.416 191.634 340.439 189.432 341.931C187.229 343.424 185.358 345.353 183.934 347.601C182.51 349.848 181.565 352.364 181.156 354.993C180.747 357.621 180.884 360.306 181.558 362.879C182.232 365.453 183.429 367.86 185.075 369.95C184.218 371.038 183.478 372.213 182.867 373.455L196.662 380.621L181.956 375.721C180.923 378.773 180.667 382.034 181.212 385.21C181.757 388.386 183.084 391.375 185.075 393.909C182.829 396.766 181.432 400.197 181.044 403.811C180.656 407.424 181.293 411.074 182.881 414.343C184.469 417.611 186.945 420.367 190.026 422.295C193.106 424.223 196.667 425.246 200.301 425.246C203.935 425.246 207.496 424.223 210.577 422.295C213.657 420.367 216.133 417.611 217.721 414.343C219.31 411.074 219.946 407.424 219.558 403.811C219.171 400.197 217.774 396.766 215.528 393.909C218.211 390.495 219.669 386.278 219.669 381.936C219.669 377.593 218.211 373.377 215.528 369.962L215.522 369.956Z" fill="#FC6464"/>
<path opacity="0.1" d="M180.934 381.93C180.925 386.273 182.385 390.493 185.075 393.903C182.829 396.76 181.432 400.192 181.044 403.805C180.656 407.418 181.293 411.068 182.881 414.337C184.47 417.605 186.945 420.361 190.026 422.289C193.106 424.217 196.667 425.24 200.301 425.24C203.936 425.24 207.496 424.217 210.577 422.289C213.657 420.361 216.133 417.605 217.722 414.337C219.31 411.068 219.946 407.418 219.559 403.805C219.171 400.192 217.774 396.76 215.528 393.903C218.121 390.609 180.934 379.757 180.934 381.93Z" fill="black"/>
<path d="M124.946 408.225C154.603 408.225 178.645 403.601 178.645 397.898C178.645 392.195 154.603 387.572 124.946 387.572C95.2882 387.572 71.2461 392.195 71.2461 397.898C71.2461 403.601 95.2882 408.225 124.946 408.225Z" fill="#FC6464"/>
<path d="M125.839 401.695C129.291 401.695 132.089 398.031 132.089 393.512C132.089 388.993 129.291 385.329 125.839 385.329C122.388 385.329 119.59 388.993 119.59 393.512C119.59 398.031 122.388 401.695 125.839 401.695Z" fill="#3F3D56"/>
<path d="M125.839 391.69C129.291 391.69 132.089 388.026 132.089 383.507C132.089 378.987 129.291 375.324 125.839 375.324C122.388 375.324 119.59 378.987 119.59 383.507C119.59 388.026 122.388 391.69 125.839 391.69Z" fill="#3F3D56"/>
<path d="M125.839 381.684C129.291 381.684 132.089 378.021 132.089 373.502C132.089 368.982 129.291 365.319 125.839 365.319C122.388 365.319 119.59 368.982 119.59 373.502C119.59 378.021 122.388 381.684 125.839 381.684Z" fill="#3F3D56"/>
<path d="M125.839 371.679C129.291 371.679 132.089 368.016 132.089 363.496C132.089 358.977 129.291 355.314 125.839 355.314C122.388 355.314 119.59 358.977 119.59 363.496C119.59 368.016 122.388 371.679 125.839 371.679Z" fill="#3F3D56"/>
<path d="M125.839 361.68C129.291 361.68 132.089 358.016 132.089 353.497C132.089 348.978 129.291 345.314 125.839 345.314C122.388 345.314 119.59 348.978 119.59 353.497C119.59 358.016 122.388 361.68 125.839 361.68Z" fill="#3F3D56"/>
<path d="M125.839 351.675C129.291 351.675 132.089 348.011 132.089 343.492C132.089 338.973 129.291 335.309 125.839 335.309C122.388 335.309 119.59 338.973 119.59 343.492C119.59 348.011 122.388 351.675 125.839 351.675Z" fill="#3F3D56"/>
<path d="M125.839 341.67C129.291 341.67 132.089 338.006 132.089 333.487C132.089 328.968 129.291 325.304 125.839 325.304C122.388 325.304 119.59 328.968 119.59 333.487C119.59 338.006 122.388 341.67 125.839 341.67Z" fill="#3F3D56"/>
<path d="M102.433 265.028C101.578 263.939 100.797 262.794 100.097 261.599L116.533 258.907L98.7653 259.041C97.0602 255.333 96.129 251.316 96.0286 247.236C95.9282 243.156 96.6606 239.098 98.1812 235.31L122.023 247.675L100.05 231.508C102.113 227.955 104.884 224.864 108.193 222.427C111.501 219.991 115.275 218.261 119.281 217.346C123.286 216.43 127.437 216.349 131.475 217.106C135.514 217.864 139.353 219.444 142.754 221.749C146.156 224.053 149.047 227.033 151.247 230.503C153.448 233.973 154.911 237.858 155.545 241.917C156.18 245.977 155.973 250.123 154.936 254.099C153.9 258.075 152.057 261.795 149.521 265.028C150.852 266.719 151.996 268.551 152.932 270.489L131.608 281.586L154.345 273.953C155.941 278.67 156.335 283.711 155.493 288.619C154.65 293.527 152.598 298.148 149.521 302.064C152.996 306.482 155.158 311.788 155.759 317.377C156.361 322.966 155.377 328.611 152.922 333.667C150.466 338.723 146.637 342.986 141.873 345.968C137.108 348.951 131.601 350.532 125.98 350.532C120.359 350.532 114.852 348.951 110.087 345.968C105.323 342.986 101.494 338.723 99.0385 333.667C96.5828 328.611 95.5994 322.966 96.2008 317.377C96.8021 311.788 98.9639 306.482 102.439 302.064C98.2882 296.784 96.0316 290.262 96.0316 283.546C96.0316 276.83 98.2882 270.308 102.439 265.028H102.433Z" fill="#FC6464"/>
<path opacity="0.1" d="M155.948 283.543C155.953 290.264 153.689 296.79 149.523 302.064C152.999 306.482 155.16 311.788 155.762 317.377C156.363 322.966 155.38 328.611 152.924 333.667C150.468 338.723 146.639 342.986 141.875 345.968C137.111 348.951 131.603 350.533 125.982 350.533C120.362 350.533 114.854 348.951 110.09 345.968C105.326 342.986 101.497 338.723 99.0409 333.667C96.5852 328.611 95.6018 322.966 96.2032 317.377C96.8045 311.788 98.9663 306.482 102.441 302.064C98.423 296.965 155.948 280.185 155.948 283.543Z" fill="black"/>
<path opacity="0.1" d="M515.151 475.761C547.086 475.761 572.974 470.269 572.974 463.495C572.974 456.721 547.086 451.23 515.151 451.23C483.216 451.23 457.328 456.721 457.328 463.495C457.328 470.269 483.216 475.761 515.151 475.761Z" fill="#FC6464"/>
<path d="M493.686 464.909C493.722 465.207 493.796 465.5 493.908 465.779C494.228 466.856 494.904 467.793 495.824 468.436C496.297 468.709 496.809 468.906 497.343 469.021C500.923 469.879 504.644 469.605 508.3 469.973C511.956 470.341 515.828 471.293 519.438 470.265C520.302 470.019 521.19 469.57 521.541 468.688C521.563 468.633 521.581 468.576 521.593 468.518C524.216 468.857 526.85 469.102 529.361 468.396C530.22 468.15 531.114 467.701 531.464 466.819C531.598 466.362 531.64 465.884 531.587 465.411C531.482 462.952 531.365 460.458 530.617 458.128C530.338 457.287 530.004 456.466 529.618 455.669C529.046 454.442 528.423 453.245 527.749 452.077L527.545 451.697C528.036 451.913 528.514 452.147 528.988 452.398C531.157 445.653 532.738 438.733 533.713 431.716C534.921 423.39 534.676 414.918 532.988 406.677C532.467 403.927 532.271 401.126 532.404 398.33C532.644 392.764 533.935 387.321 535.22 381.912C535.874 379.187 536.526 376.443 537.176 373.683C538.103 369.789 539.034 365.879 539.968 361.954C540.587 359.355 541.206 356.698 541.014 354.023C540.879 352.559 540.589 351.114 540.149 349.712C539.489 347.449 538.67 345.236 537.696 343.089C537.982 343.143 538.278 343.082 538.52 342.92C538.712 342.718 538.84 342.464 538.888 342.19L540.359 336.886C541.393 333.171 542.427 329.428 542.696 325.573C543.017 321.21 542.357 316.812 542.217 312.466C542.036 306.789 542.725 301.094 542.357 295.429C542.275 294.202 542.147 292.982 542.001 291.767C542.065 291.124 542.082 290.482 542.1 289.839C542.193 286.674 542.158 283.514 540.996 280.593C540.198 278.51 538.872 276.67 537.147 275.255C537.2 274.992 537.258 274.735 537.311 274.472L538.537 268.632C539.892 262.154 541.259 255.519 540.482 248.937C539.787 243.096 537.048 237.162 532.41 234.043L532.369 234.014L531.873 233.698L531.785 233.646C531.633 233.552 531.476 233.465 531.318 233.383L531.201 233.319C531.014 233.214 530.816 233.114 530.617 233.027C529.128 232.357 527.557 231.887 525.945 231.631L525.302 231.531C524.662 231.43 524.016 231.364 523.369 231.333H522.721C522.074 231.325 521.428 231.364 520.787 231.45C520.548 231.45 520.314 231.52 520.075 231.567L519.374 231.713C517.988 232.109 516.574 232.404 515.145 232.594C514.876 232.594 514.602 232.63 514.333 232.635C513.521 232.635 512.71 232.583 511.892 232.536C511.489 232.536 511.08 232.501 510.677 232.501C510.005 232.491 509.333 232.552 508.674 232.682C507.533 232.943 506.459 233.438 505.52 234.136C504.827 234.641 504.185 235.212 503.604 235.842C503.132 236.351 502.687 236.885 502.272 237.442C502.079 237.699 501.893 237.962 501.688 238.237L501.419 238.651C501.25 238.937 501.087 239.235 500.935 239.516C500.71 239.954 500.515 240.407 500.351 240.871C499.886 242.08 499.795 243.4 500.088 244.661C500.158 244.929 500.244 245.192 500.345 245.45C499.281 247.547 498.731 249.867 498.739 252.219C498.739 258.644 502.745 264.064 508.253 265.851C508.925 267.09 509.742 268.667 510.426 270.197C508.977 271.234 507.714 272.51 506.694 273.97C503.271 273.777 499.895 276.505 498.809 279.945C498.412 281.269 498.271 282.657 498.394 284.034C497.681 286.907 497.646 290.015 497.582 293.017C497.483 297.748 497.238 302.467 496.998 307.192C496.759 311.917 496.513 316.601 496.268 321.309C496.198 322.658 496.128 324.013 495.953 325.351C495.094 325.579 495.053 326.753 495.152 327.687C495.421 330.181 495.859 332.704 496.14 335.21C495.758 336.755 495.676 338.359 495.9 339.935L496.396 340.157C496.367 341.771 496.132 343.375 495.696 344.929C495.637 345.211 495.509 345.475 495.322 345.694C495.569 345.589 495.831 345.524 496.099 345.501C495.357 347.943 494.767 350.442 493.897 352.843C493.447 354.081 492.921 355.296 492.536 356.564C492.198 357.767 491.925 358.987 491.718 360.22C491.571 360.929 491.468 361.647 491.409 362.369C491.321 363.755 491.554 365.143 492.087 366.424C492.621 367.707 493.442 368.849 494.487 369.764C494.487 370.242 494.452 370.716 494.452 371.195C494.452 374.611 494.954 378.016 494.831 381.427C494.668 386.024 493.844 390.375 493.821 394.978C493.745 407.711 497.238 420.157 501.338 432.125C502.961 436.867 504.684 441.565 506.507 446.218C507.581 448.975 508.796 452.059 507.64 454.763C508.031 454.606 508.417 454.46 508.808 454.319C508.199 455.848 507.29 457.238 506.133 458.408C504.32 460.192 501.957 461.31 499.428 461.579C498.207 461.714 496.951 461.644 495.789 462.07C494.627 462.496 493.57 463.618 493.686 464.909ZM508.615 398.839C509.884 392.256 512.313 385.951 515.788 380.218L515.823 380.598C516.01 382.479 516.354 384.359 516.728 386.234C517.511 390.183 518.428 394.125 518.287 398.091C518.141 402.294 518.387 406.502 519.023 410.66C519.216 412.287 519.608 413.884 520.191 415.415C520.577 416.326 521.079 417.167 521.36 418.125C521.662 419.219 521.819 420.348 521.827 421.483C522.345 430.841 521.773 440.228 520.121 449.454C519.718 449.454 519.461 449.518 519.456 449.571C519.211 451.15 518.67 452.668 517.861 454.045L517.791 453.916C517.651 453.671 517.505 453.391 517.353 453.11L517.838 453.186C516.5 450.301 516.623 446.937 516.564 443.724C516.448 439.365 516.005 435.021 515.239 430.729C514.091 424.232 512.098 417.913 509.31 411.933C508.737 410.675 508.344 409.342 508.142 407.973C507.772 404.924 507.932 401.833 508.615 398.839ZM532.708 329.334C532.489 329.037 532.253 328.752 532.001 328.481C531.417 327.856 530.716 327.132 530.892 326.279C530.98 325.945 531.149 325.636 531.382 325.38C531.851 324.792 532.371 324.247 532.936 323.75L533.123 323.587C532.983 325.491 532.844 327.401 532.708 329.317V329.334Z" fill="url(#paint0_linear)"/>
<path d="M541.224 286.942L541.866 291.901C542.082 293.583 542.298 295.259 542.415 296.947C542.807 302.566 542.082 308.208 542.269 313.839C542.421 318.172 543.11 322.5 542.777 326.828C542.479 330.648 541.393 334.363 540.307 338.043L538.765 343.299C538.712 343.574 538.578 343.826 538.379 344.023C538.082 344.199 537.729 344.256 537.392 344.181L530.547 343.597C530.985 341.588 531.47 339.509 531.715 337.447C531.902 335.835 532.013 334.211 532.13 332.587C532.492 327.529 532.907 322.471 533.298 317.402L534.028 308.524C534.338 304.669 534.659 300.796 535.628 297.053C536.596 293.258 538.522 289.777 541.224 286.942Z" fill="#FC6464"/>
<path opacity="0.1" d="M541.224 286.942L541.866 291.901C542.082 293.583 542.298 295.259 542.415 296.947C542.807 302.566 542.082 308.208 542.269 313.839C542.421 318.172 543.11 322.5 542.777 326.828C542.479 330.648 541.393 334.363 540.307 338.043L538.765 343.299C538.712 343.574 538.578 343.826 538.379 344.023C538.082 344.199 537.729 344.256 537.392 344.181L530.547 343.597C530.985 341.588 531.47 339.509 531.715 337.447C531.902 335.835 532.013 334.211 532.13 332.587C532.492 327.529 532.907 322.471 533.298 317.402L534.028 308.524C534.338 304.669 534.659 300.796 535.628 297.053C536.596 293.258 538.522 289.777 541.224 286.942Z" fill="black"/>
<path d="M529.027 455.768C529.429 456.559 529.78 457.374 530.079 458.209C530.861 460.516 530.978 462.993 531.095 465.429C531.147 465.898 531.103 466.373 530.967 466.824C530.628 467.701 529.658 468.144 528.753 468.384C524.962 469.406 520.967 468.448 517.071 468.098C513.176 467.747 509.327 468.004 505.565 467.157C505.01 467.05 504.473 466.863 503.971 466.603C503.018 465.983 502.307 465.055 501.956 463.974C501.843 463.697 501.766 463.407 501.728 463.11C501.605 461.825 502.721 460.715 503.936 460.295C505.151 459.874 506.476 459.938 507.756 459.81C510.39 459.54 512.862 458.409 514.788 456.592C516.714 454.774 517.987 452.372 518.409 449.758C518.456 449.478 524.74 449.647 525.418 450.009C526.189 450.435 526.656 451.493 527.094 452.211C527.783 453.367 528.428 454.553 529.027 455.768Z" fill="#A26565"/>
<path opacity="0.1" d="M529.027 455.768C529.429 456.559 529.78 457.374 530.079 458.209C530.861 460.516 530.978 462.993 531.095 465.429C531.147 465.898 531.103 466.373 530.967 466.824C530.628 467.701 529.658 468.144 528.753 468.384C524.962 469.406 520.967 468.448 517.071 468.098C513.176 467.747 509.327 468.004 505.565 467.157C505.01 467.05 504.473 466.863 503.971 466.603C503.018 465.983 502.307 465.055 501.956 463.974C501.843 463.697 501.766 463.407 501.728 463.11C501.605 461.825 502.721 460.715 503.936 460.295C505.151 459.874 506.476 459.938 507.756 459.81C510.39 459.54 512.862 458.409 514.788 456.592C516.714 454.774 517.987 452.372 518.409 449.758C518.456 449.478 524.74 449.647 525.418 450.009C526.189 450.435 526.656 451.493 527.094 452.211C527.783 453.367 528.428 454.553 529.027 455.768Z" fill="black"/>
<path d="M518.604 457.625C519.008 458.413 519.359 459.227 519.655 460.061C520.443 462.397 520.56 464.845 520.671 467.28C520.726 467.749 520.682 468.225 520.543 468.676C520.21 469.552 519.24 469.996 518.335 470.241C514.544 471.258 510.543 470.3 506.654 469.949C502.764 469.599 498.903 469.856 495.147 469.009C494.589 468.896 494.052 468.699 493.553 468.425C492.599 467.806 491.888 466.878 491.538 465.797C491.425 465.52 491.348 465.229 491.31 464.932C491.187 463.653 492.303 462.537 493.518 462.117C494.733 461.696 496.059 461.766 497.338 461.632C499.971 461.362 502.442 460.231 504.368 458.415C506.293 456.599 507.567 454.199 507.991 451.586C508.038 451.306 514.322 451.469 515 451.831C515.777 452.258 516.244 453.315 516.682 454.033C517.348 455.219 518.002 456.411 518.604 457.625Z" fill="#A26565"/>
<path d="M491.423 395.579C491.341 408.201 495.009 420.537 499.314 432.376C501.02 437.072 502.828 441.727 504.74 446.341C505.873 449.074 507.152 452.112 505.937 454.81C509.442 453.478 513.005 452.696 516.69 453.309C515.288 450.447 515.423 447.118 515.358 443.964C515.239 439.641 514.779 435.335 513.98 431.085C512.743 424.617 510.622 418.35 507.678 412.459C507.083 411.217 506.671 409.895 506.457 408.534C505.978 405.532 506.352 402.448 506.977 399.475C508.322 392.909 510.877 386.65 514.512 381.019L514.547 381.392C514.765 383.271 515.081 385.136 515.493 386.982C516.316 390.889 517.28 394.803 517.134 398.733C516.982 402.901 517.24 407.074 517.905 411.192C518.119 412.808 518.541 414.391 519.161 415.899C519.564 416.805 520.089 417.651 520.405 418.592C520.721 419.674 520.886 420.794 520.895 421.921C521.363 431.424 520.895 441.073 518.956 450.389C522.21 450.132 525.463 451.072 528.372 452.532C530.646 445.864 532.308 439.002 533.336 432.031C534.603 423.788 534.346 415.382 532.577 407.232C532.025 404.514 531.819 401.737 531.964 398.967C532.215 393.448 533.57 388.051 534.919 382.689L536.975 374.512C537.948 370.618 538.922 366.742 539.895 362.883C540.544 360.307 541.198 357.673 540.993 355.022C540.851 353.567 540.545 352.133 540.082 350.746C538.624 346.03 536.443 341.57 533.616 337.523C522.361 338.154 510.972 337.102 499.74 336.238C499.196 336.13 498.631 336.226 498.152 336.507C497.769 336.895 497.541 337.41 497.509 337.955L493.286 361.902C492.612 365.231 492.222 368.611 492.118 372.006C492.118 375.394 492.644 378.77 492.515 382.152C492.311 386.707 491.447 391.018 491.423 395.579Z" fill="#CEDDF9"/>
<path opacity="0.1" d="M514.566 381.392C514.785 383.271 515.1 385.137 515.513 386.982C517.96 382.748 520.6 378.618 522.854 374.278C523.438 373.163 523.987 372.03 524.542 370.897L526.207 367.509C526.516 366.872 526.826 366.236 527.106 365.587C527.563 364.656 527.914 363.677 528.152 362.667C527.334 362.515 525.313 364.723 524.706 365.301C523.467 366.528 522.297 367.823 521.201 369.18C519.851 370.686 518.609 372.286 517.487 373.969C516.094 376.257 515.106 378.768 514.566 381.392Z" fill="black"/>
<path d="M505.164 265.215C505.164 265.215 511.414 275.173 510.257 277.258C509.101 279.344 529.94 275.407 529.94 275.407C529.94 275.407 518.592 265.448 519.754 261.278C520.916 257.108 505.164 265.215 505.164 265.215Z" fill="#EE8E9E"/>
<path d="M510.719 268.229C518.522 268.229 524.847 261.903 524.847 254.1C524.847 246.297 518.522 239.971 510.719 239.971C502.915 239.971 496.59 246.297 496.59 254.1C496.59 261.903 502.915 268.229 510.719 268.229Z" fill="#EE8E9E"/>
<path d="M504.95 275.658C506.461 273.553 508.514 271.895 510.89 270.863C512.259 270.373 513.674 270.024 515.113 269.823L520.75 268.83C522.128 268.585 523.606 268.357 524.891 268.924C525.54 269.257 526.132 269.693 526.643 270.215C528.599 272.031 530.498 274.023 532.957 275.074C533.628 275.36 534.329 275.571 535.001 275.857C537.752 277.025 539.808 279.513 540.97 282.281C542.197 285.167 542.232 288.303 542.138 291.44C542.14 292.522 542.032 293.603 541.817 294.664C541.536 295.674 541.179 296.662 540.748 297.619C539.976 299.665 539.328 301.756 538.809 303.88C537.349 309.468 536.134 315.114 535.164 320.818C535.082 321.636 534.842 322.429 534.458 323.155C533.913 323.881 533.254 324.514 532.507 325.03C531.914 325.516 531.368 326.058 530.877 326.647C530.634 326.896 530.455 327.201 530.357 327.535C530.176 328.376 530.942 329.101 531.526 329.714C532.783 330.996 533.691 332.579 534.166 334.31C534.459 334.666 534.609 335.118 534.586 335.578C534.465 335.898 534.419 336.242 534.452 336.583C534.567 336.893 534.748 337.174 534.983 337.406C535.253 337.757 535.444 338.162 535.545 338.593C535.646 339.024 535.653 339.472 535.567 339.906C531.189 341.808 526.504 342.904 521.737 343.142C520.568 343.2 519.4 343.2 518.232 343.34C517.403 343.445 516.585 343.615 515.756 343.714C514.552 343.827 513.342 343.858 512.134 343.807C505.844 343.679 499.372 343.521 493.596 341.027C493.053 338.066 494.227 335.046 494.963 332.126C496.131 327.453 496.423 322.67 497.299 317.956C497.883 314.738 498.759 311.567 499.256 308.325C499.752 305.084 499.869 301.725 498.975 298.571C498.187 295.779 497.947 292.929 497.13 290.143C496.312 287.357 495.74 284.337 496.662 281.581C497.807 278.181 501.352 275.465 504.95 275.658Z" fill="#FC6464"/>
<path d="M498.016 246.606C497.327 244.101 498.682 241.49 500.294 239.452C502.046 237.261 504.277 235.287 507.017 234.738C509.242 234.288 511.549 234.832 513.815 234.65C515.818 234.493 517.746 233.768 519.738 233.482C521.545 233.288 523.37 233.356 525.158 233.687C526.854 233.939 528.512 234.402 530.093 235.065C536.109 237.734 539.631 244.311 540.449 250.835C541.266 257.359 539.865 263.936 538.41 270.355L537.119 276.16C535.776 282.205 534.433 288.274 534.077 294.453C533.72 300.633 534.386 306.976 536.927 312.618C528.71 308.204 522.344 300.997 518.978 292.298C518.067 289.909 517.39 287.427 516.373 285.079C515.503 283.058 514.387 281.142 513.617 279.081C512.745 276.754 512.327 274.282 512.384 271.797C512.431 269.928 512.74 268.071 512.688 266.202C512.635 264.333 512.156 262.388 510.866 261.033C509.697 259.836 508.091 259.281 506.614 258.504C504.287 257.309 502.255 255.613 500.662 253.539C499.733 252.324 499.681 251.787 499.447 250.409C499.213 249.03 498.378 247.932 498.016 246.606Z" fill="#3A3768"/>
<path d="M497.995 352.738C497.849 354.192 498.112 355.658 497.797 357.101C497.557 358.176 497.003 359.145 496.675 360.196C496.352 361.41 496.185 362.661 496.179 363.917C496.132 364.968 496.214 366.253 497.149 366.744C497.557 366.96 498.048 366.96 498.474 367.147C498.901 367.334 499.263 367.842 499.018 368.239C498.772 368.636 498.352 368.572 497.966 368.648C497.581 368.724 497.166 369.121 497.382 369.442C497.47 369.547 497.588 369.623 497.721 369.658C498.111 369.778 498.481 369.956 498.819 370.184C498.984 370.304 499.113 370.467 499.193 370.656C499.272 370.844 499.298 371.051 499.269 371.253C499.245 371.35 499.2 371.44 499.137 371.517C499.073 371.593 498.994 371.655 498.903 371.696C498.813 371.738 498.714 371.759 498.614 371.757C498.515 371.755 498.417 371.73 498.328 371.685C498.5 372.051 498.593 372.449 498.603 372.853C497.108 373.496 495.431 372.655 494.03 371.843C493.423 371.505 492.838 371.13 492.277 370.721C491.143 369.851 490.24 368.716 489.645 367.416C489.051 366.116 488.783 364.69 488.866 363.263C488.933 362.546 489.044 361.834 489.199 361.131C489.415 359.906 489.702 358.695 490.058 357.504C490.461 356.248 491.01 355.051 491.483 353.818C492.488 351.196 493.136 348.451 494.047 345.793C494.108 345.518 494.263 345.272 494.485 345.098C494.686 344.999 494.91 344.957 495.133 344.976C496.156 344.922 497.181 345.016 498.176 345.256C498.761 345.431 499.759 345.84 500.034 346.424C500.308 347.008 499.87 347.499 499.607 347.984C498.768 349.449 498.221 351.064 497.995 352.738Z" fill="#EE8E9E"/>
<path opacity="0.1" d="M498.947 281.767C498.647 282.075 498.395 282.425 498.199 282.807C496.19 286.458 496.167 290.821 496.073 294.985C495.968 299.658 495.711 304.33 495.454 309.032L494.689 323.05C494.613 324.387 494.543 325.725 494.35 327.05C493.451 327.278 493.416 328.446 493.515 329.387C494.163 335.099 495.769 340.981 494.099 346.477C494.035 346.759 493.9 347.02 493.708 347.236C494.556 346.97 495.463 346.958 496.318 347.201C497.154 347.376 497.96 347.686 498.801 347.878C499.864 348.118 501.067 348.223 501.791 349.047C502.612 346.578 503.266 344.057 503.748 341.5C504.145 339.164 504.256 336.758 505.202 334.597C505.582 333.726 506.096 332.92 506.563 332.085C509.01 327.716 510.213 322.781 511.387 317.91C511.914 315.6 512.041 313.218 511.761 310.866C511.591 309.793 511.494 308.71 511.469 307.624C511.54 306.478 511.691 305.339 511.919 304.213C512.415 300.911 512.182 297.539 511.236 294.337C510.359 291.364 509.588 288.233 507.731 285.733C505.874 283.233 502.048 281.808 498.947 281.767Z" fill="black"/>
<path d="M498.253 281.3C497.953 281.609 497.701 281.962 497.505 282.346C495.496 285.99 495.472 290.359 495.379 294.524C495.274 299.196 495.017 303.869 494.76 308.541L493.995 322.559C493.919 323.896 493.849 325.234 493.656 326.56C492.757 326.788 492.722 327.956 492.827 328.896C493.469 334.608 495.075 340.484 493.411 345.986C493.346 346.268 493.212 346.529 493.019 346.745C493.868 346.479 494.775 346.467 495.63 346.71C496.465 346.885 497.271 347.195 498.112 347.382C499.175 347.627 500.379 347.727 501.103 348.55C501.926 346.08 502.579 343.557 503.06 340.998C503.457 338.662 503.568 336.261 504.514 334.1C504.925 333.241 505.379 332.402 505.875 331.589C508.328 327.22 509.525 322.279 510.699 317.407C511.226 315.098 511.353 312.716 511.073 310.364C510.633 308.162 510.687 305.89 511.231 303.711C511.727 300.41 511.494 297.041 510.547 293.84C509.671 290.867 508.9 287.737 507.043 285.237C505.186 282.737 501.354 281.347 498.253 281.3Z" fill="#FC6464"/>
<g opacity="0.1">
<path opacity="0.1" d="M500.294 239.452C502.046 237.261 504.277 235.287 507.017 234.738C509.242 234.288 511.549 234.832 513.815 234.65C515.818 234.493 517.746 233.768 519.738 233.482C521.545 233.288 523.37 233.356 525.158 233.687C526.854 233.939 528.512 234.402 530.093 235.065C530.947 235.448 531.763 235.911 532.529 236.449C531.121 235.903 529.658 235.511 528.166 235.281C526.38 234.95 524.557 234.882 522.751 235.077C520.754 235.334 518.832 236.052 516.823 236.21C514.563 236.391 512.256 235.854 510.024 236.298C507.285 236.847 505.042 238.827 503.308 241.017C501.69 243.049 500.341 245.66 501.024 248.172C501.386 249.492 502.227 250.648 502.455 252.009C502.683 253.37 502.741 253.925 503.676 255.14C504.874 256.698 506.323 258.046 507.963 259.129C507.513 258.919 507.052 258.708 506.614 258.481C504.287 257.286 502.255 255.59 500.662 253.516C499.733 252.301 499.681 251.764 499.447 250.385C499.213 249.007 498.378 247.874 498.016 246.548C497.327 244.101 498.682 241.49 500.294 239.452Z" fill="black"/>
<path opacity="0.1" d="M510.867 261.068C510.625 260.817 510.361 260.588 510.078 260.385C511.427 261.039 512.847 261.611 513.88 262.721C515.171 264.07 515.633 266.021 515.703 267.89C515.773 269.759 515.44 271.616 515.399 273.479C515.342 275.965 515.76 278.44 516.631 280.769C517.402 282.83 518.518 284.74 519.388 286.767C520.399 289.103 521.076 291.591 521.987 293.98C524.907 301.522 530.092 307.974 536.829 312.449C536.864 312.525 536.893 312.606 536.928 312.682C528.711 308.269 522.345 301.061 518.979 292.362C518.068 289.974 517.391 287.491 516.374 285.143C515.504 283.122 514.389 281.207 513.618 279.145C512.746 276.818 512.328 274.346 512.385 271.862C512.432 269.992 512.742 268.135 512.689 266.266C512.636 264.397 512.157 262.411 510.867 261.068Z" fill="black"/>
</g>
<path opacity="0.1" d="M114.389 71.1282H77.1841C74.2325 71.1282 71.8398 73.5209 71.8398 76.4724V99.66C71.8398 102.612 74.2325 105.004 77.1841 105.004H114.389C117.341 105.004 119.734 102.612 119.734 99.66V76.4724C119.734 73.5209 117.341 71.1282 114.389 71.1282Z" fill="#FC6464"/>
<path opacity="0.1" d="M162.284 130.703H125.079C122.127 130.703 119.734 133.096 119.734 136.048V159.235C119.734 162.187 122.127 164.579 125.079 164.579H162.284C165.235 164.579 167.628 162.187 167.628 159.235V136.048C167.628 133.096 165.235 130.703 162.284 130.703Z" fill="#FC6464"/>
<path opacity="0.1" d="M560.62 76.9689H523.415C520.463 76.9689 518.07 79.3616 518.07 82.3131V105.501C518.07 108.452 520.463 110.845 523.415 110.845H560.62C563.571 110.845 565.964 108.452 565.964 105.501V82.3131C565.964 79.3616 563.571 76.9689 560.62 76.9689Z" fill="#FC6464"/>
</g>
<defs>
<linearGradient id="paint0_linear" x1="517.09" y1="470.697" x2="517.09" y2="231.286" gradientUnits="userSpaceOnUse">
<stop stop-color="#808080" stop-opacity="0.25"/>
<stop offset="0.54" stop-color="#808080" stop-opacity="0.12"/>
<stop offset="1" stop-color="#808080" stop-opacity="0.1"/>
</linearGradient>
<clipPath id="clip0">
<rect width="660" height="475.761" fill="white"/>
</clipPath>
</defs>
</svg>
