<svg width="54" height="48" viewBox="0 0 54 48" fill="none" xmlns="http://www.w3.org/2000/svg">
<g clip-path="url(#clip0)">
<path d="M12.5592 48.0002C15.3815 48.0002 16.9808 44.6656 17.3571 38.0433C17.4042 36.8222 18.392 35.8828 19.615 35.8828H34.385C35.608 35.8828 36.5958 36.8222 36.6429 38.0433C37.0192 44.6656 38.6185 48.0002 41.4408 48.0002C44.3571 48.0002 47.1324 43.9611 48.5435 41.5658C52.5418 34.6617 56.3049 21.7928 52.2125 14.7008C50.4251 11.601 47.4146 10.0042 43.2282 10.0042C41.0174 10.0042 38.8537 10.5678 36.9251 11.695C36.5958 11.8828 36.1725 12.0237 35.7962 12.0237H35.3258C34.6202 12.0237 33.9146 11.695 33.4913 11.0844C32.9268 10.3329 31.9861 9.81628 30.9512 9.81628H23.0488C22.0139 9.81628 21.0732 10.286 20.4617 11.1314C20.0383 11.695 19.3328 12.0707 18.6272 12.0707H18.1568C17.7334 12.0707 17.3571 11.9768 17.0279 11.7419C15.1463 10.6147 12.9355 10.0511 10.7247 10.0511C7.00871 10.0511 4.18641 11.3192 2.35192 13.8085C0.799652 15.922 0 18.8809 0 22.5443C0 33.4875 7.14983 48.0002 12.5592 48.0002ZM3.90418 14.9357C5.36237 12.9631 7.66725 11.9298 10.7718 11.9298C12.6533 11.9298 14.4878 12.4464 16.0871 13.3858C16.7456 13.7615 17.4512 13.9494 18.1568 13.9494H18.6272C19.9442 13.9494 21.2143 13.2918 21.9669 12.2586C22.2021 11.9298 22.5784 11.7419 23.0017 11.7419H30.9042C31.3275 11.7419 31.7038 11.9298 31.939 12.2586C32.7387 13.3388 33.9617 13.9494 35.2787 13.9494H35.7491C36.5017 13.9494 37.2073 13.7615 37.8188 13.3858C39.4181 12.4464 41.2526 11.9298 43.1341 11.9298C46.5679 11.9298 49.061 13.1979 50.4721 15.6871C53.8118 21.4171 51.1307 33.1118 46.8031 40.6734C44.4512 44.7126 42.4286 46.1685 41.3467 46.1685C39.7944 46.1685 38.7125 43.1157 38.4303 37.9963C38.2892 35.7889 36.5017 34.0981 34.2909 34.0981H19.615C17.4042 34.0981 15.6167 35.8359 15.4756 37.9963C15.1934 43.1157 14.1115 46.1685 12.5592 46.1685C8.93728 46.1216 1.88153 33.3936 1.88153 22.4973C1.88153 19.2566 2.54007 16.7204 3.90418 14.9357Z" fill="white"/>
<path d="M11.195 29.9651C11.148 30.5287 11.3832 31.0453 11.7595 31.468C12.1358 31.8437 12.6532 32.0786 13.2177 32.0786H15.0522C15.6166 32.0786 16.1341 31.8437 16.5104 31.468C16.8867 31.0923 17.0748 30.5287 17.0748 29.9651L16.9337 27.5698L19.2856 27.7107C19.8501 27.7576 20.3675 27.5228 20.7909 27.1471C21.2142 26.7713 21.4024 26.2547 21.4024 25.6911V23.8594C21.4024 23.2958 21.1672 22.7792 20.7909 22.4034C20.3675 22.0277 19.8501 21.8398 19.2856 21.8398L16.8867 21.9807L17.0278 19.5854C17.0748 19.0218 16.8396 18.5052 16.4633 18.0825C16.087 17.7068 15.5696 17.4719 15.0051 17.4719H13.1706C12.6062 17.4719 12.0888 17.7068 11.7125 18.0825C11.3362 18.4582 11.148 19.0218 11.148 19.5854L11.2891 21.9807L8.89016 21.8398C8.3257 21.7929 7.80828 22.0277 7.38494 22.4034C7.00863 22.7792 6.77344 23.2958 6.77344 23.8594V25.6911C6.77344 26.2547 7.00863 26.7713 7.38494 27.1471C7.80828 27.5228 8.3257 27.7107 8.89016 27.7107L11.2891 27.5698L11.195 29.9651ZM8.79609 25.832C8.74905 25.832 8.74905 25.832 8.70201 25.785C8.65497 25.7381 8.65497 25.7381 8.65497 25.6911V23.8594C8.65497 23.8124 8.65497 23.7655 8.70201 23.7655C8.74905 23.7185 8.74905 23.7185 8.79609 23.7185L12.2299 23.9064C12.5121 23.9064 12.7473 23.8124 12.9355 23.6246C13.1236 23.4367 13.2177 23.1549 13.2177 22.9201L13.0295 19.4915C13.0295 19.4445 13.0295 19.3976 13.0766 19.3976C13.1236 19.3506 13.1236 19.3506 13.1706 19.3506H15.0051C15.0522 19.3506 15.0992 19.3506 15.0992 19.3976C15.1463 19.4445 15.1463 19.4445 15.1463 19.4915L14.9581 22.9201C14.9581 23.2019 15.0522 23.4367 15.2403 23.6246C15.4285 23.8124 15.7107 23.9064 15.9459 23.9064L19.3797 23.7185C19.4267 23.7185 19.4267 23.7185 19.4738 23.7655C19.5208 23.8124 19.5208 23.8124 19.5208 23.8594V25.6911C19.5208 25.7381 19.5208 25.785 19.4738 25.785C19.4738 25.832 19.4267 25.832 19.3797 25.832L15.9459 25.6441C15.6637 25.6441 15.4285 25.7381 15.2403 25.9259C15.0522 26.1138 14.9581 26.3956 14.9581 26.6304L15.1463 30.059C15.1463 30.106 15.1463 30.1529 15.0992 30.1529C15.0522 30.1999 15.0522 30.1999 15.0051 30.1999H13.1706C13.1236 30.1999 13.0766 30.1999 13.0766 30.1529C13.0295 30.106 13.0295 30.106 13.0295 30.059L13.2177 26.6304C13.2177 26.3486 13.1236 26.1138 12.9355 25.9259C12.7473 25.7381 12.5121 25.6441 12.2769 25.6441H12.2299L8.79609 25.832Z" fill="white"/>
<path d="M39.5123 22.3564C40.359 22.3564 41.1587 22.0276 41.7231 21.417C42.9461 20.1959 42.9461 18.1763 41.7231 16.9552C41.1116 16.3446 40.312 16.0159 39.5123 16.0159C38.6656 16.0159 37.866 16.3446 37.3015 16.9552C36.0785 18.1763 36.0785 20.1959 37.3015 21.417C37.866 22.0276 38.6656 22.3564 39.5123 22.3564ZM38.6186 18.3172C38.8538 18.0824 39.1831 17.9415 39.5123 17.9415C39.8416 17.9415 40.1709 18.0824 40.406 18.3172C40.9235 18.8339 40.9235 19.6323 40.406 20.102C39.9357 20.5716 39.089 20.5716 38.6186 20.102C38.1482 19.6323 38.1482 18.7869 38.6186 18.3172Z" fill="white"/>
<path d="M39.5123 26.4895C38.6656 26.4895 37.866 26.8183 37.3015 27.4288C36.0785 28.65 36.0785 30.6695 37.3015 31.8907C37.913 32.5012 38.7127 32.83 39.5123 32.83C40.359 32.83 41.1587 32.5012 41.7231 31.8907C42.9461 30.6695 42.9461 28.65 41.7231 27.4288C41.1587 26.8183 40.359 26.4895 39.5123 26.4895ZM40.406 30.5756C39.9357 31.0453 39.089 31.0453 38.6186 30.5756C38.1012 30.059 38.1012 29.2605 38.6186 28.7909C38.8538 28.556 39.1831 28.4151 39.5123 28.4151C39.8416 28.4151 40.1709 28.556 40.406 28.7909C40.9235 29.2605 40.9235 30.059 40.406 30.5756Z" fill="white"/>
<path d="M42.5227 26.6773C43.1342 27.2879 43.9339 27.6167 44.7335 27.6167C45.5802 27.6167 46.3799 27.2879 46.9443 26.6773C47.5558 26.0668 47.8851 25.2683 47.8851 24.4699C47.8851 23.6245 47.5558 22.8261 46.9443 22.2625C46.3328 21.6519 45.5332 21.3231 44.7335 21.3231C43.8868 21.3231 43.0872 21.6519 42.5227 22.2625C41.2997 23.4366 41.2997 25.4562 42.5227 26.6773ZM43.8398 23.5306C44.075 23.2957 44.4042 23.1548 44.7335 23.1548C45.0628 23.1548 45.3921 23.2957 45.6272 23.5306C45.8624 23.7654 46.0036 24.0942 46.0036 24.4229C46.0036 24.7517 45.8624 25.0805 45.6272 25.3153C45.1569 25.785 44.3102 25.785 43.8398 25.3153C43.6046 25.0805 43.4635 24.7517 43.4635 24.4229C43.4635 24.0942 43.6046 23.7654 43.8398 23.5306Z" fill="white"/>
<path d="M34.2911 27.5697C35.1378 27.5697 35.9375 27.2409 36.5019 26.6303C37.1134 26.0198 37.4427 25.2213 37.4427 24.4229C37.4427 23.5775 37.1134 22.7791 36.5019 22.2155C35.8904 21.6049 35.0908 21.2761 34.2911 21.2761C33.4444 21.2761 32.6448 21.6049 32.0803 22.2155C30.8573 23.4366 30.8573 25.4562 32.0803 26.6773C32.6448 27.2409 33.4444 27.5697 34.2911 27.5697ZM33.3974 23.5305C33.6326 23.2957 33.9619 23.1548 34.2911 23.1548C34.6204 23.1548 34.9497 23.2957 35.1849 23.5305C35.4201 23.7654 35.5612 24.0941 35.5612 24.4229C35.5612 24.7517 35.4201 25.0804 35.1849 25.3153C34.7145 25.7849 33.8678 25.7849 33.3974 25.3153C32.88 24.8456 32.88 24.0472 33.3974 23.5305Z" fill="white"/>
<path d="M26.0591 0.000244141V6.34075H24.6009C24.0835 6.34075 23.6602 6.76345 23.6602 7.28009C23.6602 7.79672 24.0835 8.21942 24.6009 8.21942H29.3988C29.9163 8.21942 30.3396 7.79672 30.3396 7.28009C30.3396 6.76345 29.9163 6.34075 29.3988 6.34075H27.9406V0.000244141H26.0591Z" fill="white"/>
</g>
<defs>
<clipPath id="clip0">
<rect width="54" height="48" fill="white" transform="translate(0 0.000244141)"/>
</clipPath>
</defs>
</svg>
